<?xml version="1.0" encoding="UTF-8"?>
<svg xmlns="http://www.w3.org/2000/svg" xmlns:xlink="http://www.w3.org/1999/xlink" version="1.2" >
<font id="Avenir Black">
<font-face  font-family="Avenir" units-per-em="1000" ascent="1000" descent="-366" font-style="normal" font-weight="800" font-stretch="normal" cap-height="708" x-height="486" underline-position="-75" underline-thickness="50" />
<missing-glyph  horiz-adv-x="512" d="M222 117 L222 184 L278 184 L278 117 L222 117 Z M225 234 L223 251 Q223 307 236 332 Q243 345 254 359.5 Q265 374 282 391 Q314 421 323 438.5 Q332 456 332 474 Q332 510 309.5 534.5 Q287 559 256 559 Q225 559 202.5 537 Q180 515 174 464 L124 472 Q131 544 168 576.5 Q205 609 259 609 Q313 609 348 573.5 Q383 538 383 478 Q383 446 370.5 419.5 Q358 393 320 358 Q283 325 277 306 Q271 286 271 234 L225 234 Z M462 50 L462 667 L50 667 L50 50 L462 50 Z M512 718 L512 0 L0 0 L0 718 L512 718 Z " />
<glyph glyph-name="nonmarkingreturn" unicode="&#xd;" d="" />
<glyph glyph-name="space" unicode="&#x20;" horiz-adv-x="296" d="" />
<glyph glyph-name="exclam" unicode="&#x21;" horiz-adv-x="444" d="M297 234 L147 234 L147 708 L297 708 L297 234 Z M130 86 Q130 105 137 122 Q144 139 156.5 151.5 Q169 164 186 171 Q203 178 222 178 Q241 178 258 171 Q275 164 287.5 151.5 Q300 139 307 122 Q314 105 314 86 Q314 67 307 50 Q300 33 287.5 20.5 Q275 8 258 1 Q241 -6 222 -6 Q203 -6 186 1 Q169 8 156.5 20.5 Q144 33 137 50 Q130 67 130 86 Z " />
<glyph glyph-name="quotedbl" unicode="&#x22;" horiz-adv-x="520" d="M313 708 L439 708 L439 426 L313 426 L313 708 Z M81 708 L207 708 L207 426 L81 426 L81 708 Z " />
<glyph glyph-name="numbersign" unicode="&#x23;" horiz-adv-x="592" d="M129 201 L45 201 L45 291 L141 291 L158 417 L74 417 L74 507 L170 507 L198 708 L295 708 L267 507 L366 507 L394 708 L491 708 L463 507 L547 507 L547 417 L451 417 L434 291 L518 291 L518 201 L422 201 L394 0 L297 0 L325 201 L226 201 L198 0 L101 0 L129 201 Z M354 417 L255 417 L238 291 L337 291 L354 417 Z " />
<glyph glyph-name="dollar" unicode="&#x24;" horiz-adv-x="592" d="M328 720 Q382 720 440 706 Q498 692 542 657 L446 540 Q422 561 391 570.5 Q360 580 328 582 L328 423 L424 395 Q490 375 529.5 329.5 Q569 284 569 214 Q569 161 550 121 Q531 81 498 53 Q465 25 421 9 Q377 -7 328 -12 L328 -82 L262 -82 L262 -12 Q196 -12 130.5 6 Q65 24 15 69 L121 188 Q147 156 184 142.5 Q221 129 262 126 L262 295 L189 317 Q113 341 73.5 384.5 Q34 428 34 504 Q34 551 53 589 Q72 627 103.5 654 Q135 681 176.5 698 Q218 715 262 720 L262 790 L328 790 L328 720 Z M262 579 Q234 573 212 558 Q190 543 190 511 Q190 488 199 475 Q208 462 220 454.5 Q232 447 244 444 Q256 441 262 439 L262 579 Z M328 128 Q343 131 358.5 136.5 Q374 142 386 151 Q398 160 405.5 172.5 Q413 185 413 202 Q413 218 407.5 229 Q402 240 393 247.5 Q384 255 372 260.5 Q360 266 347 271 L328 278 L328 128 Z " />
<glyph glyph-name="percent" unicode="&#x25;" horiz-adv-x="907" d="M508 187 Q508 228 523.5 264 Q539 300 565.5 327 Q592 354 628 369.5 Q664 385 705 385 Q746 385 782 369.5 Q818 354 844.5 327 Q871 300 886.5 264 Q902 228 902 187 Q902 146 886.5 109.5 Q871 73 844.5 46 Q818 19 782 3.5 Q746 -12 705 -12 Q664 -12 628 3.5 Q592 19 565.5 46 Q539 73 523.5 109.5 Q508 146 508 187 Z M800 187 Q800 227 772.5 255 Q745 283 705 283 Q665 283 637.5 255 Q610 227 610 187 Q610 146 637.5 118 Q665 90 705 90 Q745 90 772.5 118 Q800 146 800 187 Z M5 522 Q5 563 20.5 599 Q36 635 62.5 662 Q89 689 125 704.5 Q161 720 202 720 Q243 720 279 704.5 Q315 689 341.5 662 Q368 635 383.5 599 Q399 563 399 522 Q399 481 383.5 445 Q368 409 341.5 382 Q315 355 279 339.5 Q243 324 202 324 Q161 324 125 339.5 Q89 355 62.5 382 Q36 409 20.5 445 Q5 481 5 522 Z M297 522 Q297 562 269.5 590 Q242 618 202 618 Q162 618 134.5 590 Q107 562 107 522 Q107 482 134.5 454 Q162 426 202 426 Q242 426 269.5 454 Q297 482 297 522 Z M615 740 L699 693 L286 -32 L210 11 L615 740 Z " />
<glyph glyph-name="ampersand" unicode="&#x26;" horiz-adv-x="759" d="M595 167 L753 0 L560 0 L501 67 Q457 22 406.5 2 Q356 -18 293 -18 Q245 -18 200 -5 Q155 8 119.5 34.5 Q84 61 63 101 Q42 141 42 194 Q42 228 53.5 258.5 Q65 289 85.5 314 Q106 339 133 357.5 Q160 376 192 387 Q175 406 160.5 423 Q146 440 135.5 459 Q125 478 119.5 499 Q114 520 114 546 Q114 594 132.5 628 Q151 662 182 684 Q213 706 253 716 Q293 726 335 726 Q376 726 413 715.5 Q450 705 478.5 683.5 Q507 662 524 629.5 Q541 597 541 552 Q541 520 530.5 493 Q520 466 502 442.5 Q484 419 460.5 400.5 Q437 382 410 368 L501 271 L570 365 L744 365 L595 167 Z M333 606 Q304 606 284 588 Q264 570 264 540 Q264 527 270 514.5 Q276 502 284.5 490.5 Q293 479 303.5 469 Q314 459 323 451 Q335 458 349 467.5 Q363 477 375 488.5 Q387 500 395 513.5 Q403 527 403 542 Q403 573 382.5 589.5 Q362 606 333 606 Z M285 302 Q270 293 255.5 283.5 Q241 274 229.5 262.5 Q218 251 211 236 Q204 221 204 201 Q204 181 212 165 Q220 149 233 138 Q246 127 263.5 120.5 Q281 114 299 114 Q334 114 359.5 129 Q385 144 410 166 L285 302 Z " />
<glyph glyph-name="quotesingle" unicode="&#x27;" horiz-adv-x="296" d="M85 708 L211 708 L211 426 L85 426 L85 708 Z " />
<glyph glyph-name="parenleft" unicode="&#x28;" horiz-adv-x="314" d="M293 672 Q263 624 239 580 Q215 536 198.5 490.5 Q182 445 173 395.5 Q164 346 164 288 Q164 230 173 180.5 Q182 131 198.5 85.5 Q215 40 239 -4 Q263 -48 293 -96 L190 -156 L188 -152 Q119 -49 81.5 57.5 Q44 164 44 288 Q44 412 81.5 518.5 Q119 625 188 728 L190 732 L293 672 Z " />
<glyph glyph-name="parenright" unicode="&#x29;" horiz-adv-x="314" d="M21 -96 Q51 -48 75 -4 Q99 40 115.5 85.5 Q132 131 141 180.5 Q150 230 150 288 Q150 346 141 395.5 Q132 445 115.5 490.5 Q99 536 75 580 Q51 624 21 672 L124 732 L126 728 Q195 625 232.5 518.5 Q270 412 270 288 Q270 164 232.5 57.5 Q195 -49 126 -152 L124 -156 L21 -96 Z " />
<glyph glyph-name="asterisk" unicode="&#x2a;" horiz-adv-x="482" d="M293 570 L424 613 L454 518 L323 476 L406 362 L323 301 L239 416 L158 306 L77 367 L161 476 L28 522 L60 617 L191 570 L191 708 L293 708 L293 570 Z " />
<glyph glyph-name="plus" unicode="&#x2b;" horiz-adv-x="666" d="M59 366 L270 366 L270 577 L396 577 L396 366 L607 366 L607 240 L396 240 L396 29 L270 29 L270 240 L59 240 L59 366 Z " />
<glyph glyph-name="comma" unicode="&#x2c;" horiz-adv-x="296" d="M91 162 L235 162 L145 -120 L17 -120 L91 162 Z " />
<glyph glyph-name="hyphen" unicode="&#x2d;" horiz-adv-x="296" d="M271 189 L25 189 L25 309 L271 309 L271 189 Z " />
<glyph glyph-name="period" unicode="&#x2e;" horiz-adv-x="296" d="M56 86 Q56 105 63 122 Q70 139 82.5 151.5 Q95 164 112 171 Q129 178 148 178 Q167 178 184 171 Q201 164 213.5 151.5 Q226 139 233 122 Q240 105 240 86 Q240 67 233 50 Q226 33 213.5 20.5 Q201 8 184 1 Q167 -6 148 -6 Q129 -6 112 1 Q95 8 82.5 20.5 Q70 33 63 50 Q56 67 56 86 Z " />
<glyph glyph-name="slash" unicode="&#x2f;" horiz-adv-x="407" d="M296 761 L410 726 L110 -53 L-3 -18 L296 761 Z " />
<glyph glyph-name="zero" unicode="0" horiz-adv-x="592" d="M33 354 Q33 417 44.5 482 Q56 547 85.5 600 Q115 653 166 686.5 Q217 720 296 720 Q375 720 426 686.5 Q477 653 506.5 600 Q536 547 547.5 482 Q559 417 559 354 Q559 291 547.5 226 Q536 161 506.5 108 Q477 55 426 21.5 Q375 -12 296 -12 Q217 -12 166 21.5 Q115 55 85.5 108 Q56 161 44.5 226 Q33 291 33 354 Z M183 354 Q183 326 185.5 287 Q188 248 199 212 Q210 176 232.5 151 Q255 126 296 126 Q336 126 359 151 Q382 176 393 212 Q404 248 406.5 287 Q409 326 409 354 Q409 382 406.5 421 Q404 460 393 496 Q382 532 359 557 Q336 582 296 582 Q255 582 232.5 557 Q210 532 199 496 Q188 460 185.5 421 Q183 382 183 354 Z " />
<glyph glyph-name="one" unicode="1" horiz-adv-x="592" d="M288 540 L146 415 L61 513 L292 708 L432 708 L432 0 L288 0 L288 540 Z " />
<glyph glyph-name="two" unicode="2" horiz-adv-x="592" d="M49 159 L324 406 Q345 425 366 449 Q387 473 387 505 Q387 541 361 561.5 Q335 582 300 582 Q258 582 234.5 556 Q211 530 208 492 L58 503 Q61 558 81 598.5 Q101 639 134 666 Q167 693 211.5 706.5 Q256 720 308 720 Q356 720 398 706.5 Q440 693 471 666.5 Q502 640 519.5 600 Q537 560 537 507 Q537 473 530 445.5 Q523 418 510.5 395.5 Q498 373 481 354 Q464 335 444 317 L229 132 L543 132 L543 0 L49 0 L49 159 Z " />
<glyph glyph-name="three" unicode="3" horiz-adv-x="592" d="M216 429 L265 429 Q286 429 306 432 Q326 435 342.5 443.5 Q359 452 369 467.5 Q379 483 379 508 Q379 540 353.5 561 Q328 582 291 582 Q256 582 233 563 Q210 544 203 516 L38 550 Q50 596 74 628.5 Q98 661 131 681 Q164 701 204.5 710.5 Q245 720 290 720 Q337 720 380.5 708.5 Q424 697 457 672.5 Q490 648 509.5 611 Q529 574 529 523 Q529 464 498 422 Q467 380 408 368 L408 365 Q440 361 464.5 346 Q489 331 506 309 Q523 287 532 259 Q541 231 541 200 Q541 147 520.5 107 Q500 67 465.5 40.5 Q431 14 384.5 1 Q338 -12 286 -12 Q191 -12 122.5 32 Q54 76 32 171 L190 208 Q198 170 222.5 148 Q247 126 295 126 Q344 126 367.5 151.5 Q391 177 391 217 Q391 247 378.5 263.5 Q366 280 346 288 Q326 296 301 297.5 Q276 299 251 299 L216 299 L216 429 Z " />
<glyph glyph-name="four" unicode="4" horiz-adv-x="592" d="M333 142 L24 142 L24 268 L313 708 L477 708 L477 268 L568 268 L568 142 L477 142 L477 0 L333 0 L333 142 Z M333 512 L331 512 L174 268 L333 268 L333 512 Z " />
<glyph glyph-name="five" unicode="5" horiz-adv-x="592" d="M517 576 L236 576 L233 467 Q256 475 296 475 Q350 475 395 459 Q440 443 472.5 412.5 Q505 382 523 338.5 Q541 295 541 241 Q541 181 520.5 134 Q500 87 464 54.5 Q428 22 378.5 5 Q329 -12 271 -12 Q179 -12 117 33 Q55 78 32 169 L189 205 Q195 167 221 143.5 Q247 120 286 120 Q334 120 362.5 150 Q391 180 391 226 Q391 261 376.5 283.5 Q362 306 338.5 319.5 Q315 333 286 338 Q257 343 228 343 Q191 343 153.5 336 Q116 329 81 317 L89 708 L517 708 L517 576 Z " />
<glyph glyph-name="six" unicode="6" horiz-adv-x="592" d="M287 455 Q299 458 311 460 Q323 462 336 462 Q386 462 427 444 Q468 426 497 395 Q526 364 542 321.5 Q558 279 558 231 Q558 176 537.5 131.5 Q517 87 481.5 55 Q446 23 397.5 5.5 Q349 -12 294 -12 Q238 -12 190 5.5 Q142 23 106.5 55 Q71 87 50.5 131.5 Q30 176 30 231 Q30 269 37 300.5 Q44 332 55.5 360 Q67 388 82.5 413.5 Q98 439 115 466 L270 708 L453 708 L287 455 Z M408 237 Q408 285 376.5 316.5 Q345 348 294 348 Q243 348 211.5 316.5 Q180 285 180 237 Q180 189 211.5 157.5 Q243 126 294 126 Q345 126 376.5 157.5 Q408 189 408 237 Z " />
<glyph glyph-name="seven" unicode="7" horiz-adv-x="592" d="M387 570 L37 570 L37 708 L555 708 L555 576 L272 0 L97 0 L387 570 Z " />
<glyph glyph-name="eight" unicode="8" horiz-adv-x="592" d="M59 525 Q59 574 77.5 610.5 Q96 647 128.5 671.5 Q161 696 204 708 Q247 720 296 720 Q345 720 388 708 Q431 696 463 671.5 Q495 647 514 610.5 Q533 574 533 525 Q533 467 501.5 426 Q470 385 413 368 L413 366 Q477 349 511 304.5 Q545 260 545 194 Q545 143 524.5 104 Q504 65 469.5 39.5 Q435 14 390 1 Q345 -12 296 -12 Q247 -12 202 1 Q157 14 122.5 39.5 Q88 65 67.5 104 Q47 143 47 194 Q47 260 81 304.5 Q115 349 179 366 L179 368 Q122 385 90.5 426 Q59 467 59 525 Z M209 504 Q209 471 233 448 Q257 425 296 425 Q335 425 359 448 Q383 471 383 504 Q383 536 359 559 Q335 582 296 582 Q257 582 233 559 Q209 536 209 504 Z M197 215 Q197 178 224 152 Q251 126 296 126 Q341 126 368 152 Q395 178 395 215 Q395 253 368 279 Q341 305 296 305 Q251 305 224 279 Q197 253 197 215 Z " />
<glyph glyph-name="nine" unicode="9" horiz-adv-x="592" d="M305 253 Q293 250 281 248 Q269 246 256 246 Q206 246 165 264 Q124 282 95 313 Q66 344 50 386.5 Q34 429 34 477 Q34 532 54.5 576.5 Q75 621 110.5 653 Q146 685 194 702.5 Q242 720 298 720 Q353 720 401.5 702.5 Q450 685 485.5 653 Q521 621 541.5 576.5 Q562 532 562 477 Q562 439 555 407.5 Q548 376 536.5 348 Q525 320 509.5 294.5 Q494 269 477 242 L322 0 L139 0 L305 253 Z M184 471 Q184 423 215.5 391.5 Q247 360 298 360 Q349 360 380.5 391.5 Q412 423 412 471 Q412 519 380.5 550.5 Q349 582 298 582 Q247 582 215.5 550.5 Q184 519 184 471 Z " />
<glyph glyph-name="colon" unicode="&#x3a;" horiz-adv-x="296" d="M56 86 Q56 105 63 122 Q70 139 82.5 151.5 Q95 164 112 171 Q129 178 148 178 Q167 178 184 171 Q201 164 213.5 151.5 Q226 139 233 122 Q240 105 240 86 Q240 67 233 50 Q226 33 213.5 20.5 Q201 8 184 1 Q167 -6 148 -6 Q129 -6 112 1 Q95 8 82.5 20.5 Q70 33 63 50 Q56 67 56 86 Z M56 406 Q56 425 63 442 Q70 459 82.5 471.5 Q95 484 112 491 Q129 498 148 498 Q167 498 184 491 Q201 484 213.5 471.5 Q226 459 233 442 Q240 425 240 406 Q240 387 233 370 Q226 353 213.5 340.5 Q201 328 184 321 Q167 314 148 314 Q129 314 112 321 Q95 328 82.5 340.5 Q70 353 63 370 Q56 387 56 406 Z " />
<glyph glyph-name="semicolon" unicode="&#x3b;" horiz-adv-x="296" d="M91 162 L235 162 L145 -120 L17 -120 L91 162 Z M56 406 Q56 425 63 442 Q70 459 82.5 471.5 Q95 484 112 491 Q129 498 148 498 Q167 498 184 491 Q201 484 213.5 471.5 Q226 459 233 442 Q240 425 240 406 Q240 387 233 370 Q226 353 213.5 340.5 Q201 328 184 321 Q167 314 148 314 Q129 314 112 321 Q95 328 82.5 340.5 Q70 353 63 370 Q56 387 56 406 Z " />
<glyph glyph-name="less" unicode="&#x3c;" horiz-adv-x="666" d="M586 428 L269 304 L269 302 L586 178 L586 42 L80 240 L80 366 L586 564 L586 428 Z " />
<glyph glyph-name="equal" unicode="&#x3d;" horiz-adv-x="666" d="M59 462 L607 462 L607 336 L59 336 L59 462 Z M59 270 L607 270 L607 144 L59 144 L59 270 Z " />
<glyph glyph-name="greater" unicode="&#x3e;" horiz-adv-x="666" d="M80 178 L397 302 L397 304 L80 428 L80 564 L586 366 L586 240 L80 42 L80 178 Z " />
<glyph glyph-name="question" unicode="&#x3f;" horiz-adv-x="556" d="M216 278 Q216 308 224 329 Q232 350 251 368 Q279 395 302.5 415 Q326 435 343 452.5 Q360 470 369.5 485.5 Q379 501 379 518 Q379 551 358.5 569.5 Q338 588 307 588 Q260 588 235.5 562 Q211 536 208 499 L54 509 Q65 615 132 670.5 Q199 726 304 726 Q350 726 390.5 713.5 Q431 701 462 676 Q493 651 511 614 Q529 577 529 529 Q529 500 523 476.5 Q517 453 502.5 430 Q488 407 464.5 383.5 Q441 360 405 332 Q382 314 374 297 Q366 280 366 263 L366 234 L216 234 L216 278 Z M199 86 Q199 105 206 122 Q213 139 225.5 151.5 Q238 164 255 171 Q272 178 291 178 Q310 178 327 171 Q344 164 356.5 151.5 Q369 139 376 122 Q383 105 383 86 Q383 67 376 50 Q369 33 356.5 20.5 Q344 8 327 1 Q310 -6 291 -6 Q272 -6 255 1 Q238 8 225.5 20.5 Q213 33 206 50 Q199 67 199 86 Z " />
<glyph glyph-name="at" unicode="&#x40;" horiz-adv-x="800" d="M475 364 Q475 404 457 430 Q439 456 401 456 Q355 456 328 420 Q301 384 301 332 Q301 316 304 300 Q307 284 314.5 271.5 Q322 259 335.5 251 Q349 243 370 243 Q401 243 421.5 254 Q442 265 454 282.5 Q466 300 470.5 321.5 Q475 343 475 364 Z M568 337 Q565 323 562 304 Q559 285 559 271 Q559 260 564.5 251.5 Q570 243 586 243 Q602 243 617.5 251.5 Q633 260 645 278.5 Q657 297 664.5 325 Q672 353 672 392 Q672 452 652.5 497.5 Q633 543 598.5 574 Q564 605 516 620.5 Q468 636 411 636 Q349 636 298 615 Q247 594 210.5 556 Q174 518 154 466 Q134 414 134 353 Q134 287 156 235 Q178 183 217.5 147 Q257 111 311 91.5 Q365 72 428 72 Q485 72 532.5 88 Q580 104 617 133 L727 133 Q673 59 592.5 20.5 Q512 -18 420 -18 Q340 -18 269.5 9.5 Q199 37 146 86 Q93 135 62.5 203.5 Q32 272 32 353 Q32 433 62 501 Q92 569 144 619 Q196 669 265.5 697.5 Q335 726 414 726 Q480 726 543.5 704.5 Q607 683 657 641 Q707 599 737.5 537.5 Q768 476 768 397 Q768 344 755.5 305 Q743 266 723.5 239 Q704 212 679.5 195 Q655 178 630.5 169 Q606 160 583.5 156.5 Q561 153 546 153 Q504 153 486 170 Q468 187 467 207 L465 207 Q445 187 415 170 Q385 153 337 153 Q305 153 278.5 165.5 Q252 178 233 200 Q214 222 203.5 253 Q193 284 193 321 Q193 365 207 405.5 Q221 446 246.5 477.5 Q272 509 309 527.5 Q346 546 393 546 Q433 546 459.5 533 Q486 520 501 489 L503 489 L511 534 L605 534 L568 337 Z " />
<glyph glyph-name="A" unicode="A" horiz-adv-x="741" d="M305 708 L434 708 L742 0 L566 0 L505 150 L230 150 L171 0 L-1 0 L305 708 Z M365 502 L279 282 L452 282 L365 502 Z " />
<glyph glyph-name="B" unicode="B" horiz-adv-x="648" d="M72 708 L336 708 Q382 708 428.5 701.5 Q475 695 512 675.5 Q549 656 572 621 Q595 586 595 528 Q595 468 561.5 428.5 Q528 389 473 372 L473 370 Q508 365 536.5 350.5 Q565 336 585.5 313.5 Q606 291 617 261 Q628 231 628 197 Q628 141 604 103.5 Q580 66 542 43 Q504 20 456.5 10 Q409 0 362 0 L72 0 L72 708 Z M228 425 L341 425 Q359 425 376.5 429 Q394 433 408 442 Q422 451 430.5 466 Q439 481 439 502 Q439 524 429.5 538.5 Q420 553 405 561 Q390 569 371 572.5 Q352 576 334 576 L228 576 L228 425 Z M228 132 L368 132 Q386 132 404.5 136 Q423 140 438 150 Q453 160 462.5 176 Q472 192 472 215 Q472 240 459.5 255.5 Q447 271 428 279 Q409 287 387 290 Q365 293 346 293 L228 293 L228 132 Z " />
<glyph glyph-name="C" unicode="C" horiz-adv-x="685" d="M535 524 Q512 552 478.5 567 Q445 582 401 582 Q357 582 319.5 565 Q282 548 254.5 517.5 Q227 487 211.5 445 Q196 403 196 354 Q196 304 211.5 262.5 Q227 221 254 190.5 Q281 160 317.5 143 Q354 126 396 126 Q444 126 481 146 Q518 166 542 202 L672 105 Q627 42 558 12 Q489 -18 416 -18 Q333 -18 263 8 Q193 34 142 82.5 Q91 131 62.5 200 Q34 269 34 354 Q34 439 62.5 508 Q91 577 142 625.5 Q193 674 263 700 Q333 726 416 726 Q446 726 478.5 720.5 Q511 715 542.5 703 Q574 691 603 671 Q632 651 655 622 L535 524 Z " />
<glyph glyph-name="D" unicode="D" horiz-adv-x="759" d="M72 708 L306 708 Q391 708 467.5 689 Q544 670 601 627.5 Q658 585 691.5 517 Q725 449 725 352 Q725 266 692.5 200.5 Q660 135 605 90.5 Q550 46 478 23 Q406 0 327 0 L72 0 L72 708 Z M228 144 L309 144 Q363 144 409.5 155 Q456 166 490 191.5 Q524 217 543.5 258.5 Q563 300 563 360 Q563 412 543.5 450.5 Q524 489 491 514 Q458 539 413.5 551.5 Q369 564 320 564 L228 564 L228 144 Z " />
<glyph glyph-name="E" unicode="E" horiz-adv-x="630" d="M78 708 L559 708 L559 564 L234 564 L234 432 L541 432 L541 288 L234 288 L234 144 L577 144 L577 0 L78 0 L78 708 Z " />
<glyph glyph-name="F" unicode="F" horiz-adv-x="593" d="M78 708 L553 708 L553 564 L234 564 L234 420 L529 420 L529 276 L234 276 L234 0 L78 0 L78 708 Z " />
<glyph glyph-name="G" unicode="G" horiz-adv-x="778" d="M713 50 Q644 14 569 -2 Q494 -18 416 -18 Q333 -18 263 8 Q193 34 142 82.5 Q91 131 62.5 200 Q34 269 34 354 Q34 439 62.5 508 Q91 577 142 625.5 Q193 674 263 700 Q333 726 416 726 Q501 726 572.5 705.5 Q644 685 698 635 L588 515 Q556 548 516 565 Q476 582 416 582 Q366 582 325.5 565 Q285 548 256 517.5 Q227 487 211.5 445 Q196 403 196 354 Q196 304 211.5 262.5 Q227 221 256 190.5 Q285 160 325.5 143 Q366 126 416 126 Q467 126 504 137.5 Q541 149 563 161 L563 276 L436 276 L436 420 L713 420 L713 50 Z " />
<glyph glyph-name="H" unicode="H" horiz-adv-x="759" d="M72 708 L228 708 L228 444 L531 444 L531 708 L687 708 L687 0 L531 0 L531 306 L228 306 L228 0 L72 0 L72 708 Z " />
<glyph glyph-name="I" unicode="I" horiz-adv-x="296" d="M70 708 L226 708 L226 0 L70 0 L70 708 Z " />
<glyph glyph-name="J" unicode="J" horiz-adv-x="500" d="M438 237 Q438 188 429.5 142 Q421 96 397 60.5 Q373 25 328.5 3.5 Q284 -18 212 -18 Q128 -18 70 22 Q12 62 -5 147 L138 182 Q141 156 161.5 138 Q182 120 208 120 Q235 120 250 133.5 Q265 147 272 167 Q279 187 280.5 210.5 Q282 234 282 254 L282 708 L438 708 L438 237 Z " />
<glyph glyph-name="K" unicode="K" horiz-adv-x="722" d="M78 708 L234 708 L234 414 L509 708 L713 708 L398 379 L740 0 L522 0 L234 336 L234 0 L78 0 L78 708 Z " />
<glyph glyph-name="L" unicode="L" horiz-adv-x="537" d="M78 708 L234 708 L234 144 L523 144 L523 0 L78 0 L78 708 Z " />
<glyph glyph-name="M" unicode="M" horiz-adv-x="944" d="M72 708 L308 708 L471 246 L473 246 L637 708 L872 708 L872 0 L716 0 L716 543 L714 543 L528 0 L409 0 L230 543 L228 543 L228 0 L72 0 L72 708 Z " />
<glyph glyph-name="N" unicode="N" horiz-adv-x="815" d="M72 708 L284 708 L585 216 L587 216 L587 708 L743 708 L743 0 L539 0 L230 504 L228 504 L228 0 L72 0 L72 708 Z " />
<glyph glyph-name="O" unicode="O" horiz-adv-x="832" d="M34 354 Q34 439 62.5 508 Q91 577 142 625.5 Q193 674 263 700 Q333 726 416 726 Q499 726 569 700 Q639 674 690 625.5 Q741 577 769.5 508 Q798 439 798 354 Q798 269 769.5 200 Q741 131 690 82.5 Q639 34 569 8 Q499 -18 416 -18 Q333 -18 263 8 Q193 34 142 82.5 Q91 131 62.5 200 Q34 269 34 354 Z M196 354 Q196 304 211.5 262.5 Q227 221 256 190.5 Q285 160 325.5 143 Q366 126 416 126 Q466 126 506.5 143 Q547 160 576 190.5 Q605 221 620.5 262.5 Q636 304 636 354 Q636 403 620.5 445 Q605 487 576 517.5 Q547 548 506.5 565 Q466 582 416 582 Q366 582 325.5 565 Q285 548 256 517.5 Q227 487 211.5 445 Q196 403 196 354 Z " />
<glyph glyph-name="P" unicode="P" horiz-adv-x="630" d="M72 708 L335 708 Q390 708 439 698 Q488 688 524.5 663.5 Q561 639 582.5 597.5 Q604 556 604 493 Q604 431 584 389 Q564 347 529 322 Q494 297 446 286.5 Q398 276 342 276 L228 276 L228 0 L72 0 L72 708 Z M228 408 L332 408 Q353 408 372.5 412 Q392 416 407.5 425.5 Q423 435 432.5 451.5 Q442 468 442 493 Q442 520 429.5 536.5 Q417 553 397.5 562 Q378 571 354 573.5 Q330 576 308 576 L228 576 L228 408 Z " />
<glyph glyph-name="Q" unicode="Q" horiz-adv-x="852" d="M847 0 L418 0 Q335 0 264.5 24.5 Q194 49 143 96 Q92 143 63 210 Q34 277 34 363 Q34 443 63.5 510 Q93 577 144 625 Q195 673 264 699.5 Q333 726 412 726 Q491 726 560 699 Q629 672 680 624 Q731 576 760.5 509.5 Q790 443 790 363 Q790 325 781.5 289 Q773 253 756 221 Q739 189 712 163.5 Q685 138 649 122 L649 120 L847 120 L847 0 Z M196 363 Q196 317 213 277 Q230 237 259.5 207.5 Q289 178 328 161 Q367 144 412 144 Q457 144 496 161 Q535 178 564.5 207.5 Q594 237 611 277 Q628 317 628 363 Q628 409 611 449 Q594 489 564.5 518.5 Q535 548 496 565 Q457 582 412 582 Q367 582 328 565 Q289 548 259.5 518.5 Q230 489 213 449 Q196 409 196 363 Z " />
<glyph glyph-name="R" unicode="R" horiz-adv-x="648" d="M72 708 L346 708 Q400 708 448.5 697.5 Q497 687 533.5 662.5 Q570 638 591.5 596.5 Q613 555 613 493 Q613 418 574 365.5 Q535 313 460 299 L640 0 L453 0 L305 283 L228 283 L228 0 L72 0 L72 708 Z M228 415 L320 415 Q341 415 364.5 416.5 Q388 418 407 425.5 Q426 433 438.5 449 Q451 465 451 494 Q451 521 440 537 Q429 553 412 561.5 Q395 570 373 573 Q351 576 330 576 L228 576 L228 415 Z " />
<glyph glyph-name="S" unicode="S" horiz-adv-x="574" d="M422 535 Q403 559 370.5 570.5 Q338 582 309 582 Q292 582 274 578 Q256 574 240 565.5 Q224 557 214 543 Q204 529 204 509 Q204 477 228 460 Q252 443 288.5 431 Q325 419 367 407 Q409 395 445.5 373 Q482 351 506 314 Q530 277 530 215 Q530 156 508 112 Q486 68 448.5 39 Q411 10 361.5 -4 Q312 -18 257 -18 Q188 -18 129 3 Q70 24 19 71 L130 193 Q154 161 190.5 143.5 Q227 126 266 126 Q285 126 304.5 130.5 Q324 135 339.5 144 Q355 153 364.5 167 Q374 181 374 200 Q374 232 349.5 250.5 Q325 269 288 282 Q251 295 208 308 Q165 321 128 343 Q91 365 66.5 401 Q42 437 42 496 Q42 553 64.5 596 Q87 639 124.5 668 Q162 697 211 711.5 Q260 726 312 726 Q372 726 428 709 Q484 692 529 652 L422 535 Z " />
<glyph glyph-name="T" unicode="T" horiz-adv-x="574" d="M209 570 L7 570 L7 708 L567 708 L567 570 L365 570 L365 0 L209 0 L209 570 Z " />
<glyph glyph-name="U" unicode="U" horiz-adv-x="741" d="M669 273 Q669 210 650 157 Q631 104 593.5 65 Q556 26 500 4 Q444 -18 371 -18 Q297 -18 241 4 Q185 26 147.5 65 Q110 104 91 157 Q72 210 72 273 L72 708 L228 708 L228 279 Q228 246 238.5 218 Q249 190 268 169.5 Q287 149 313.5 137.5 Q340 126 371 126 Q402 126 428 137.5 Q454 149 473 169.5 Q492 190 502.5 218 Q513 246 513 279 L513 708 L669 708 L669 273 Z " />
<glyph glyph-name="V" unicode="V" horiz-adv-x="704" d="M2 708 L180 708 L355 244 L357 244 L535 708 L702 708 L410 0 L285 0 L2 708 Z " />
<glyph glyph-name="W" unicode="W" horiz-adv-x="1000" d="M-2 708 L168 708 L281 254 L283 254 L431 708 L576 708 L723 242 L725 242 L844 708 L1002 708 L795 0 L656 0 L500 490 L498 490 L342 0 L208 0 L-2 708 Z " />
<glyph glyph-name="X" unicode="X" horiz-adv-x="722" d="M248 370 L14 708 L210 708 L361 460 L506 708 L695 708 L466 373 L722 0 L526 0 L353 285 L185 0 L0 0 L248 370 Z " />
<glyph glyph-name="Y" unicode="Y" horiz-adv-x="648" d="M246 302 L-20 708 L174 708 L324 443 L483 708 L668 708 L402 302 L402 0 L246 0 L246 302 Z " />
<glyph glyph-name="Z" unicode="Z" horiz-adv-x="630" d="M35 144 L394 570 L48 570 L48 708 L583 708 L583 570 L231 144 L595 144 L595 0 L35 0 L35 144 Z " />
<glyph glyph-name="bracketleft" unicode="&#x5b;" horiz-adv-x="296" d="M276 642 L186 642 L186 -66 L276 -66 L276 -156 L66 -156 L66 732 L276 732 L276 642 Z " />
<glyph glyph-name="backslash" unicode="&#x5c;" horiz-adv-x="407" d="M297 -53 L-3 726 L111 761 L410 -18 L297 -53 Z " />
<glyph glyph-name="bracketright" unicode="&#x5d;" horiz-adv-x="296" d="M20 -66 L110 -66 L110 642 L20 642 L20 732 L230 732 L230 -156 L20 -156 L20 -66 Z " />
<glyph glyph-name="asciicircum" unicode="&#x5e;" horiz-adv-x="666" d="M260 708 L406 708 L586 343 L444 343 L333 581 L221 343 L80 343 L260 708 Z " />
<glyph glyph-name="underscore" unicode="&#x5f;" horiz-adv-x="500" d="M0 -125 L0 -75 L500 -75 L500 -125 L0 -125 Z " />
<glyph glyph-name="grave" unicode="&#x60;" horiz-adv-x="260" d="M232 564 L100 564 L-73 708 L131 708 L232 564 Z " />
<glyph glyph-name="a" unicode="a" horiz-adv-x="537" d="M358 61 L356 61 Q331 22 289.5 5 Q248 -12 202 -12 Q168 -12 136.5 -2.5 Q105 7 81 26 Q57 45 43 73 Q29 101 29 138 Q29 180 44.5 209 Q60 238 86.5 257 Q113 276 147 286.5 Q181 297 217.5 302 Q254 307 290.5 308 Q327 309 358 309 Q358 349 329.5 372.5 Q301 396 262 396 Q225 396 194.5 380.5 Q164 365 140 338 L60 420 Q102 459 158 478.5 Q214 498 274 498 Q340 498 382.5 481.5 Q425 465 450.5 433 Q476 401 486 354.5 Q496 308 496 247 L496 0 L358 0 L358 61 Z M321 213 Q304 213 278.5 211.5 Q253 210 229.5 203 Q206 196 189.5 182 Q173 168 173 143 Q173 116 196 103 Q219 90 244 90 Q266 90 286.5 96 Q307 102 323 113 Q339 124 348.5 141 Q358 158 358 181 L358 213 L321 213 Z " />
<glyph glyph-name="b" unicode="b" horiz-adv-x="630" d="M67 756 L217 756 L217 434 L219 434 Q245 469 285.5 483.5 Q326 498 373 498 Q425 498 466 476.5 Q507 455 535.5 419 Q564 383 579.5 336.5 Q595 290 595 239 Q595 184 578 138 Q561 92 529.5 58.5 Q498 25 454 6.5 Q410 -12 356 -12 Q330 -12 307 -5 Q284 2 264.5 13 Q245 24 230.5 37.5 Q216 51 207 64 L205 64 L205 0 L67 0 L67 756 Z M205 243 Q205 188 236.5 154 Q268 120 325 120 Q382 120 413.5 154 Q445 188 445 243 Q445 298 413.5 332 Q382 366 325 366 Q268 366 236.5 332 Q205 298 205 243 Z " />
<glyph glyph-name="c" unicode="c" horiz-adv-x="482" d="M382 329 Q371 345 351 355.5 Q331 366 308 366 Q251 366 219.5 332 Q188 298 188 243 Q188 188 219.5 154 Q251 120 308 120 Q333 120 351 131 Q369 142 382 157 L481 53 Q446 17 398.5 2.5 Q351 -12 308 -12 Q252 -12 202.5 6 Q153 24 116.5 57.5 Q80 91 59 138 Q38 185 38 243 Q38 301 59 348 Q80 395 116.5 428.5 Q153 462 202.5 480 Q252 498 308 498 Q351 498 398.5 483.5 Q446 469 481 433 L382 329 Z " />
<glyph glyph-name="d" unicode="d" horiz-adv-x="630" d="M563 0 L425 0 L425 64 L423 64 Q414 51 399.5 37.5 Q385 24 365.5 13 Q346 2 322.5 -5 Q299 -12 274 -12 Q220 -12 176 6.5 Q132 25 100.5 58.5 Q69 92 52 138 Q35 184 35 239 Q35 290 50.5 336.5 Q66 383 94.5 419 Q123 455 164 476.5 Q205 498 257 498 Q304 498 344.5 483.5 Q385 469 411 434 L413 434 L413 756 L563 756 L563 0 Z M425 243 Q425 298 393.5 332 Q362 366 305 366 Q248 366 216.5 332 Q185 298 185 243 Q185 188 216.5 154 Q248 120 305 120 Q362 120 393.5 154 Q425 188 425 243 Z " />
<glyph glyph-name="e" unicode="e" horiz-adv-x="574" d="M513 84 Q477 38 422 13 Q367 -12 308 -12 Q252 -12 202.5 6 Q153 24 116.5 57.5 Q80 91 59 138 Q38 185 38 243 Q38 301 59 348 Q80 395 116.5 428.5 Q153 462 202.5 480 Q252 498 308 498 Q360 498 402.5 480 Q445 462 474.5 428.5 Q504 395 520 348 Q536 301 536 243 L536 196 L188 196 Q197 153 227 127.5 Q257 102 301 102 Q338 102 363.5 118.5 Q389 135 408 161 L513 84 Z M386 298 Q387 336 361 363 Q335 390 294 390 Q269 390 250 382 Q231 374 217.5 361.5 Q204 349 196.5 332.5 Q189 316 188 298 L386 298 Z " />
<glyph glyph-name="f" unicode="f" horiz-adv-x="370" d="M105 366 L6 366 L6 486 L105 486 L105 572 Q105 612 112 647.5 Q119 683 139 710 Q159 737 196.5 752.5 Q234 768 295 768 Q318 768 340 766 Q362 764 383 759 L376 632 Q363 637 352 639.5 Q341 642 327 642 Q291 642 273 626.5 Q255 611 255 563 L255 486 L366 486 L366 366 L255 366 L255 0 L105 0 L105 366 Z " />
<glyph glyph-name="g" unicode="g" horiz-adv-x="630" d="M563 41 Q563 -97 493.5 -168.5 Q424 -240 282 -240 Q217 -240 154 -225.5 Q91 -211 38 -169 L121 -45 Q156 -74 194.5 -91 Q233 -108 279 -108 Q348 -108 380.5 -74.5 Q413 -41 413 11 L413 58 L411 58 Q385 23 346.5 8.5 Q308 -6 274 -6 Q220 -6 176 12.5 Q132 31 100.5 64.5 Q69 98 52 144 Q35 190 35 245 Q35 293 50.5 339 Q66 385 94.5 420 Q123 455 164 476.5 Q205 498 257 498 Q289 498 315.5 491 Q342 484 363 473 Q384 462 399 448.5 Q414 435 423 422 L425 422 L425 486 L563 486 L563 41 Z M185 246 Q185 222 194 200.5 Q203 179 219.5 162.5 Q236 146 257.5 136 Q279 126 305 126 Q330 126 352 136 Q374 146 390.5 162.5 Q407 179 416 200.5 Q425 222 425 246 Q425 270 416 291.5 Q407 313 390.5 329.5 Q374 346 352 356 Q330 366 305 366 Q279 366 257.5 356 Q236 346 219.5 329.5 Q203 313 194 291.5 Q185 270 185 246 Z " />
<glyph glyph-name="h" unicode="h" horiz-adv-x="574" d="M203 756 L203 420 L205 420 Q210 434 222 448 Q234 462 251 473 Q268 484 291 491 Q314 498 341 498 Q398 498 433 480.5 Q468 463 487.5 432 Q507 401 514 359 Q521 317 521 268 L521 0 L371 0 L371 238 Q371 259 369.5 281.5 Q368 304 360.5 323 Q353 342 337.5 354 Q322 366 293 366 Q264 366 246 355.5 Q228 345 218.5 327.5 Q209 310 206 288 Q203 266 203 242 L203 0 L53 0 L53 756 L203 756 Z " />
<glyph glyph-name="i" unicode="i" horiz-adv-x="260" d="M55 486 L205 486 L205 0 L55 0 L55 486 Z M43 639 Q43 675 68.5 700.5 Q94 726 130 726 Q166 726 191.5 700.5 Q217 675 217 639 Q217 603 191.5 577.5 Q166 552 130 552 Q94 552 68.5 577.5 Q43 603 43 639 Z " />
<glyph glyph-name="j" unicode="j" horiz-adv-x="260" d="M205 -36 Q205 -83 196 -120.5 Q187 -158 166 -184.5 Q145 -211 110.5 -225.5 Q76 -240 25 -240 Q8 -240 -10 -238.5 Q-28 -237 -45 -232 L-37 -99 Q-19 -108 2 -108 Q21 -108 32 -98 Q43 -88 48 -73 Q53 -58 54 -41 Q55 -24 55 -10 L55 486 L205 486 L205 -36 Z M43 639 Q43 675 68.5 700.5 Q94 726 130 726 Q166 726 191.5 700.5 Q217 675 217 639 Q217 603 191.5 577.5 Q166 552 130 552 Q94 552 68.5 577.5 Q43 603 43 639 Z " />
<glyph glyph-name="k" unicode="k" horiz-adv-x="556" d="M53 756 L203 756 L203 294 L369 486 L553 486 L360 267 L558 0 L369 0 L205 246 L203 246 L203 0 L53 0 L53 756 Z " />
<glyph glyph-name="l" unicode="l" horiz-adv-x="260" d="M55 756 L205 756 L205 0 L55 0 L55 756 Z " />
<glyph glyph-name="m" unicode="m" horiz-adv-x="870" d="M53 486 L197 486 L197 420 L199 420 Q206 434 219 448 Q232 462 250 473 Q268 484 291 491 Q314 498 341 498 Q392 498 431.5 477 Q471 456 491 411 Q517 458 554 478 Q591 498 645 498 Q694 498 727.5 481.5 Q761 465 780.5 436.5 Q800 408 808.5 369.5 Q817 331 817 287 L817 0 L667 0 L667 283 Q667 317 652.5 341.5 Q638 366 601 366 Q575 366 557.5 357.5 Q540 349 529.5 334 Q519 319 514.5 299 Q510 279 510 257 L510 0 L360 0 L360 257 Q360 270 359 289 Q358 308 352 325 Q346 342 332.5 354 Q319 366 293 366 Q264 366 246 355.5 Q228 345 218.5 327.5 Q209 310 206 288 Q203 266 203 242 L203 0 L53 0 L53 486 Z " />
<glyph glyph-name="n" unicode="n" horiz-adv-x="574" d="M53 486 L197 486 L197 420 L199 420 Q206 434 219 448 Q232 462 250 473 Q268 484 291 491 Q314 498 341 498 Q398 498 433 480.5 Q468 463 487.5 432 Q507 401 514 359 Q521 317 521 268 L521 0 L371 0 L371 238 Q371 259 369.5 281.5 Q368 304 360.5 323 Q353 342 337.5 354 Q322 366 293 366 Q264 366 246 355.5 Q228 345 218.5 327.5 Q209 310 206 288 Q203 266 203 242 L203 0 L53 0 L53 486 Z " />
<glyph glyph-name="o" unicode="o" horiz-adv-x="610" d="M35 243 Q35 301 56 348 Q77 395 113.5 428.5 Q150 462 199.5 480 Q249 498 305 498 Q361 498 410.5 480 Q460 462 496.5 428.5 Q533 395 554 348 Q575 301 575 243 Q575 185 554 138 Q533 91 496.5 57.5 Q460 24 410.5 6 Q361 -12 305 -12 Q249 -12 199.5 6 Q150 24 113.5 57.5 Q77 91 56 138 Q35 185 35 243 Z M185 243 Q185 188 216.5 154 Q248 120 305 120 Q362 120 393.5 154 Q425 188 425 243 Q425 298 393.5 332 Q362 366 305 366 Q248 366 216.5 332 Q185 298 185 243 Z " />
<glyph glyph-name="p" unicode="p" horiz-adv-x="630" d="M67 486 L205 486 L205 422 L207 422 Q216 435 230.5 448.5 Q245 462 264.5 473 Q284 484 307 491 Q330 498 356 498 Q410 498 454 479.5 Q498 461 529.5 427.5 Q561 394 578 348 Q595 302 595 247 Q595 196 579.5 149.5 Q564 103 535.5 67 Q507 31 466 9.5 Q425 -12 373 -12 Q326 -12 285.5 2.5 Q245 17 219 52 L217 52 L217 -228 L67 -228 L67 486 Z M205 243 Q205 188 236.5 154 Q268 120 325 120 Q382 120 413.5 154 Q445 188 445 243 Q445 298 413.5 332 Q382 366 325 366 Q268 366 236.5 332 Q205 298 205 243 Z " />
<glyph glyph-name="q" unicode="q" horiz-adv-x="630" d="M563 -228 L413 -228 L413 52 L411 52 Q385 17 344.5 2.5 Q304 -12 257 -12 Q205 -12 164 9.5 Q123 31 94.5 67 Q66 103 50.5 149.5 Q35 196 35 247 Q35 302 52 348 Q69 394 100.5 427.5 Q132 461 176 479.5 Q220 498 274 498 Q299 498 322.5 491 Q346 484 365.5 473 Q385 462 399.5 448.5 Q414 435 423 422 L425 422 L425 486 L563 486 L563 -228 Z M425 243 Q425 298 393.5 332 Q362 366 305 366 Q248 366 216.5 332 Q185 298 185 243 Q185 188 216.5 154 Q248 120 305 120 Q362 120 393.5 154 Q425 188 425 243 Z " />
<glyph glyph-name="r" unicode="r" horiz-adv-x="407" d="M53 486 L203 486 L203 408 L205 408 Q229 453 262 475.5 Q295 498 345 498 Q358 498 371 497 Q384 496 395 493 L395 356 Q379 361 363.5 363.5 Q348 366 331 366 Q288 366 263 354 Q238 342 224.5 320.5 Q211 299 207 269 Q203 239 203 203 L203 0 L53 0 L53 486 Z " />
<glyph glyph-name="s" unicode="s" horiz-adv-x="463" d="M328 343 Q295 384 241 384 Q222 384 204 375 Q186 366 186 344 Q186 326 204.5 317.5 Q223 309 251.5 302.5 Q280 296 312.5 288.5 Q345 281 373.5 265 Q402 249 420.5 221.5 Q439 194 439 148 Q439 101 418.5 70.5 Q398 40 366 21.5 Q334 3 294 -4.5 Q254 -12 215 -12 Q164 -12 112 2.5 Q60 17 24 54 L115 155 Q136 129 161.5 115.5 Q187 102 221 102 Q247 102 268 109.5 Q289 117 289 137 Q289 156 270.5 165.5 Q252 175 223.5 181.5 Q195 188 162.5 195.5 Q130 203 101.5 218 Q73 233 54.5 260.5 Q36 288 36 334 Q36 377 53.5 408 Q71 439 99.5 459 Q128 479 165 488.5 Q202 498 240 498 Q288 498 337 484 Q386 470 420 434 L328 343 Z " />
<glyph glyph-name="t" unicode="t" horiz-adv-x="407" d="M384 366 L252 366 L252 204 Q252 184 254 167.5 Q256 151 263 139 Q270 127 284.5 120.5 Q299 114 323 114 Q335 114 354.5 116.5 Q374 119 384 128 L384 3 Q359 -6 332 -9 Q305 -12 279 -12 Q241 -12 209 -4 Q177 4 153 21.5 Q129 39 115.5 67 Q102 95 102 135 L102 366 L6 366 L6 486 L102 486 L102 630 L252 630 L252 486 L384 486 L384 366 Z " />
<glyph glyph-name="u" unicode="u" horiz-adv-x="574" d="M521 0 L377 0 L377 66 L375 66 Q367 52 354.5 38 Q342 24 324 13 Q306 2 283 -5 Q260 -12 233 -12 Q176 -12 140.5 5.5 Q105 23 85.5 54 Q66 85 59.5 127 Q53 169 53 218 L53 486 L203 486 L203 248 Q203 227 204.5 204.5 Q206 182 213.5 163 Q221 144 236.5 132 Q252 120 281 120 Q310 120 328 130.5 Q346 141 355.5 158.5 Q365 176 368 198 Q371 220 371 244 L371 486 L521 486 L521 0 Z " />
<glyph glyph-name="v" unicode="v" horiz-adv-x="556" d="M2 486 L164 486 L287 156 L289 156 L403 486 L554 486 L362 0 L203 0 L2 486 Z " />
<glyph glyph-name="w" unicode="w" horiz-adv-x="833" d="M-5 486 L155 486 L254 181 L256 181 L339 486 L503 486 L593 181 L595 181 L686 486 L838 486 L665 0 L517 0 L416 323 L414 323 L324 0 L173 0 L-5 486 Z " />
<glyph glyph-name="x" unicode="x" horiz-adv-x="556" d="M184 260 L22 486 L199 486 L285 354 L368 486 L535 486 L377 260 L564 0 L387 0 L281 162 L167 0 L-8 0 L184 260 Z " />
<glyph glyph-name="y" unicode="y" horiz-adv-x="556" d="M333 -79 Q318 -118 304 -148 Q290 -178 268.5 -198.5 Q247 -219 214 -229.5 Q181 -240 127 -240 Q69 -240 15 -222 L35 -99 Q69 -114 105 -114 Q130 -114 146 -108.5 Q162 -103 172.5 -92.5 Q183 -82 190 -67 Q197 -52 205 -32 L216 -4 L3 486 L165 486 L290 165 L292 165 L399 486 L553 486 L333 -79 Z " />
<glyph glyph-name="z" unicode="z" horiz-adv-x="500" d="M34 150 L286 366 L40 366 L40 486 L460 486 L460 342 L196 120 L466 120 L466 0 L34 0 L34 150 Z " />
<glyph glyph-name="braceleft" unicode="&#x7b;" horiz-adv-x="370" d="M356 -156 L251 -156 Q224 -156 200.5 -148 Q177 -140 159.5 -122 Q142 -104 132 -76.5 Q122 -49 122 -10 L122 162 Q122 185 108.5 199 Q95 213 77 220 Q59 227 41 229 Q23 231 14 231 L14 345 Q23 345 41 347 Q59 349 77 356 Q95 363 108.5 377 Q122 391 122 414 L122 587 Q122 626 131.5 653.5 Q141 681 158.5 698.5 Q176 716 199.5 724 Q223 732 251 732 L356 732 L356 618 L307 618 Q284 618 271 612 Q258 606 251.5 596.5 Q245 587 243.5 575.5 Q242 564 242 554 L242 393 Q242 358 232 338 Q222 318 207.5 307.5 Q193 297 175.5 293.5 Q158 290 142 289 L142 287 Q158 286 175.5 283 Q193 280 207.5 269.5 Q222 259 232 239 Q242 219 242 184 L242 22 Q242 12 243.5 0.5 Q245 -11 251.5 -20.5 Q258 -30 271 -36 Q284 -42 307 -42 L356 -42 L356 -156 Z " />
<glyph glyph-name="bar" unicode="&#x7c;" horiz-adv-x="222" d="M174 750 L174 -250 L48 -250 L48 750 L174 750 Z " />
<glyph glyph-name="braceright" unicode="&#x7d;" horiz-adv-x="370" d="M14 732 L122 732 Q147 732 170 724 Q193 716 210.5 698 Q228 680 238 652.5 Q248 625 248 586 L248 414 Q248 391 261 377 Q274 363 291.5 356 Q309 349 327 347 Q345 345 356 345 L356 231 Q345 231 327 229 Q309 227 291.5 220 Q274 213 261 199 Q248 185 248 162 L248 -11 Q248 -50 238 -77.5 Q228 -105 211 -122.5 Q194 -140 170.5 -148 Q147 -156 119 -156 L14 -156 L14 -42 L63 -42 Q86 -42 99 -36 Q112 -30 118.5 -20.5 Q125 -11 126.5 0.5 Q128 12 128 22 L128 183 Q128 218 138 238 Q148 258 162.5 268.5 Q177 279 194.5 282 Q212 285 228 287 L228 289 Q212 290 194.5 293 Q177 296 162.5 306.5 Q148 317 138 337 Q128 357 128 392 L128 554 Q128 564 126.5 575.5 Q125 587 118.5 596.5 Q112 606 99 612 Q86 618 63 618 L14 618 L14 732 Z " />
<glyph glyph-name="asciitilde" unicode="&#x7e;" horiz-adv-x="666" d="M564 292 Q556 276 544.5 260.5 Q533 245 518 233 Q503 221 483.5 213.5 Q464 206 439 206 Q413 206 385 215.5 Q357 225 328 238 Q300 250 273 262 Q246 274 226 274 Q211 274 198.5 267.5 Q186 261 175.5 251.5 Q165 242 156 230 Q147 218 138 206 L102 314 Q110 330 121.5 345.5 Q133 361 148 373 Q163 385 182.5 392.5 Q202 400 227 400 Q253 400 281 390.5 Q309 381 338 368 Q366 356 393 344 Q420 332 440 332 Q455 332 467.5 338.5 Q480 345 490.5 354.5 Q501 364 510 376 Q519 388 528 400 L564 292 Z " />
<glyph glyph-name="Euro" unicode="&#x20ac;" horiz-adv-x="592" d="M578 75 Q545 36 487 12 Q429 -12 362 -12 Q250 -12 182 47.5 Q114 107 91 222 L10 222 L38 312 L80 312 Q79 317 79 321 Q79 325 79 330 L79 349 Q79 362 79.5 374 Q80 386 81 398 L13 398 L44 490 L96 490 Q126 605 204 662.5 Q282 720 403 720 Q420 720 442.5 717.5 Q465 715 487.5 711.5 Q510 708 529 702.5 Q548 697 558 691 L512 561 Q497 571 467.5 578.5 Q438 586 403 586 Q352 586 314 563.5 Q276 541 254 490 L489 490 L459 398 L233 398 Q232 387 231.5 376 Q231 365 231 353 L231 332 Q231 327 231 322 Q231 317 232 312 L436 312 L407 222 L247 222 Q262 173 293.5 145.5 Q325 118 376 118 Q418 118 446.5 134 Q475 150 496 176 L578 75 Z " />
<glyph glyph-name="quotesinglbase" unicode="&#x201a;" horiz-adv-x="296" d="M167 -126 L39 -126 L113 156 L257 156 L167 -126 Z " />
<glyph glyph-name="florin" unicode="&#x192;" horiz-adv-x="592" d="M496 332 L350 332 L292 40 Q284 -1 269 -34 Q254 -67 230 -90.5 Q206 -114 172 -126.5 Q138 -139 91 -139 Q63 -139 34.5 -132.5 Q6 -126 -20 -115 L32 4 Q43 -2 54.5 -4.5 Q66 -7 78 -7 Q110 -7 126 14.5 Q142 36 153 88 L203 332 L89 332 L89 434 L223 434 L241 525 Q252 580 267 617.5 Q282 655 305 678 Q328 701 360.5 710.5 Q393 720 439 720 Q474 720 505.5 712.5 Q537 705 569 690 L516 577 Q491 588 464 588 Q428 588 411 568.5 Q394 549 385 505 L370 434 L496 434 L496 332 Z " />
<glyph glyph-name="quotedblbase" unicode="&#x201e;" horiz-adv-x="520" d="M386 -126 L258 -126 L332 156 L476 156 L386 -126 Z M172 -126 L44 -126 L118 156 L262 156 L172 -126 Z " />
<glyph glyph-name="ellipsis" unicode="&#x2026;" horiz-adv-x="1000" d="M75 86 Q75 105 82 122 Q89 139 101.5 151.5 Q114 164 131 171 Q148 178 167 178 Q186 178 203 171 Q220 164 232.5 151.5 Q245 139 252 122 Q259 105 259 86 Q259 67 252 50 Q245 33 232.5 20.5 Q220 8 203 1 Q186 -6 167 -6 Q148 -6 131 1 Q114 8 101.5 20.5 Q89 33 82 50 Q75 67 75 86 Z M408 86 Q408 105 415 122 Q422 139 434.5 151.5 Q447 164 464 171 Q481 178 500 178 Q519 178 536 171 Q553 164 565.5 151.5 Q578 139 585 122 Q592 105 592 86 Q592 67 585 50 Q578 33 565.5 20.5 Q553 8 536 1 Q519 -6 500 -6 Q481 -6 464 1 Q447 8 434.5 20.5 Q422 33 415 50 Q408 67 408 86 Z M741 86 Q741 105 748 122 Q755 139 767.5 151.5 Q780 164 797 171 Q814 178 833 178 Q852 178 869 171 Q886 164 898.5 151.5 Q911 139 918 122 Q925 105 925 86 Q925 67 918 50 Q911 33 898.5 20.5 Q886 8 869 1 Q852 -6 833 -6 Q814 -6 797 1 Q780 8 767.5 20.5 Q755 33 748 50 Q741 67 741 86 Z " />
<glyph glyph-name="dagger" unicode="&#x2020;" horiz-adv-x="592" d="M224 372 L34 372 L34 498 L224 498 L224 708 L362 708 L362 498 L558 498 L558 372 L362 372 L362 -133 L224 -133 L224 372 Z " />
<glyph glyph-name="daggerdbl" unicode="&#x2021;" horiz-adv-x="592" d="M227 47 L34 47 L34 167 L227 167 L227 408 L34 408 L34 528 L227 528 L227 708 L365 708 L365 528 L558 528 L558 408 L365 408 L365 167 L558 167 L558 47 L365 47 L365 -133 L227 -133 L227 47 Z " />
<glyph glyph-name="circumflex" unicode="&#x2c6;" horiz-adv-x="260" d="M191 564 L128 642 L66 564 L-69 564 L50 708 L213 708 L329 564 L191 564 Z " />
<glyph glyph-name="perthousand" unicode="&#x2030;" horiz-adv-x="1167" d="M395 165 Q395 201 408.5 233 Q422 265 446 289 Q470 313 502 327 Q534 341 571 341 Q607 341 639 327 Q671 313 695 289 Q719 265 733 233 Q747 201 747 165 Q747 129 733 96.5 Q719 64 695 40 Q671 16 639 2 Q607 -12 571 -12 Q534 -12 502 2 Q470 16 446 40 Q422 64 408.5 96.5 Q395 129 395 165 Z M782 165 Q782 201 796 233 Q810 265 834 289 Q858 313 890 327 Q922 341 958 341 Q994 341 1026.5 327 Q1059 313 1083 289 Q1107 265 1121 233 Q1135 201 1135 165 Q1135 129 1121 96.5 Q1107 64 1083 40 Q1059 16 1026.5 2 Q994 -12 958 -12 Q922 -12 890 2 Q858 16 834 40 Q810 64 796 96.5 Q782 129 782 165 Z M32 544 Q32 580 45.5 612 Q59 644 83 668 Q107 692 139 706 Q171 720 208 720 Q244 720 276.5 706 Q309 692 333 668 Q357 644 371 612 Q385 580 385 544 Q385 508 371 475.5 Q357 443 333 419 Q309 395 276.5 381 Q244 367 208 367 Q171 367 139 381 Q107 395 83 419 Q59 443 45.5 475.5 Q32 508 32 544 Z M128 544 Q128 511 151.5 487 Q175 463 208 463 Q241 463 265 487 Q289 511 289 544 Q289 577 265 600.5 Q241 624 208 624 Q175 624 151.5 600.5 Q128 577 128 544 Z M491 165 Q491 132 514.5 108 Q538 84 571 84 Q604 84 627.5 108 Q651 132 651 165 Q651 198 627.5 221.5 Q604 245 571 245 Q538 245 514.5 221.5 Q491 198 491 165 Z M878 165 Q878 132 901.5 108 Q925 84 958 84 Q991 84 1015 108 Q1039 132 1039 165 Q1039 198 1015 221.5 Q991 245 958 245 Q925 245 901.5 221.5 Q878 198 878 165 Z M552 740 L636 693 L223 -32 L147 11 L552 740 Z " />
<glyph glyph-name="Scaron" unicode="&#x160;" horiz-adv-x="574" d="M422 535 Q403 559 370.5 570.5 Q338 582 309 582 Q292 582 274 578 Q256 574 240 565.5 Q224 557 214 543 Q204 529 204 509 Q204 477 228 460 Q252 443 288.5 431 Q325 419 367 407 Q409 395 445.5 373 Q482 351 506 314 Q530 277 530 215 Q530 156 508 112 Q486 68 448.5 39 Q411 10 361.5 -4 Q312 -18 257 -18 Q188 -18 129 3 Q70 24 19 71 L130 193 Q154 161 190.5 143.5 Q227 126 266 126 Q285 126 304.5 130.5 Q324 135 339.5 144 Q355 153 364.5 167 Q374 181 374 200 Q374 232 349.5 250.5 Q325 269 288 282 Q251 295 208 308 Q165 321 128 343 Q91 365 66.5 401 Q42 437 42 496 Q42 553 64.5 596 Q87 639 124.5 668 Q162 697 211 711.5 Q260 726 312 726 Q372 726 428 709 Q484 692 529 652 L422 535 Z M222 931 L285 853 L347 931 L482 931 L363 787 L200 787 L84 931 L222 931 Z " />
<glyph glyph-name="guilsinglleft" unicode="&#x2039;" horiz-adv-x="296" d="M152 249 L268 76 L177 15 L18 249 L177 483 L268 422 L152 249 Z " />
<glyph glyph-name="OE" unicode="&#x152;" horiz-adv-x="1018" d="M665 432 L929 432 L929 288 L665 288 L665 144 L965 144 L965 0 L434 0 Q363 0 291.5 20.5 Q220 41 163 84 Q106 127 70 194 Q34 261 34 354 Q34 440 64.5 506 Q95 572 148 617 Q201 662 272.5 685 Q344 708 426 708 L953 708 L953 564 L665 564 L665 432 Z M509 564 L458 564 Q400 564 352 551 Q304 538 269.5 511.5 Q235 485 215.5 445.5 Q196 406 196 354 Q196 301 215.5 262 Q235 223 269.5 196.5 Q304 170 352 157 Q400 144 458 144 L509 144 L509 564 Z " />
<glyph glyph-name="Zcaron" unicode="&#x17d;" horiz-adv-x="630" d="M35 144 L394 570 L48 570 L48 708 L583 708 L583 570 L231 144 L595 144 L595 0 L35 0 L35 144 Z M250 931 L313 853 L375 931 L510 931 L391 787 L228 787 L112 931 L250 931 Z " />
<glyph glyph-name="quoteleft" unicode="&#x2018;" horiz-adv-x="296" d="M129 708 L257 708 L183 426 L39 426 L129 708 Z " />
<glyph glyph-name="quoteright" unicode="&#x2019;" horiz-adv-x="296" d="M167 426 L39 426 L113 708 L257 708 L167 426 Z " />
<glyph glyph-name="quotedblleft" unicode="&#x201c;" horiz-adv-x="520" d="M134 708 L262 708 L188 426 L44 426 L134 708 Z M348 708 L476 708 L402 426 L258 426 L348 708 Z " />
<glyph glyph-name="quotedblright" unicode="&#x201d;" horiz-adv-x="520" d="M386 426 L258 426 L332 708 L476 708 L386 426 Z M172 426 L44 426 L118 708 L262 708 L172 426 Z " />
<glyph glyph-name="bullet" unicode="&#x2022;" horiz-adv-x="500" d="M73 354 Q73 391 87 423 Q101 455 125 479 Q149 503 181 517 Q213 531 250 531 Q287 531 319 517 Q351 503 375 479 Q399 455 413 423 Q427 391 427 354 Q427 317 413 285 Q399 253 375 229 Q351 205 319 191 Q287 177 250 177 Q213 177 181 191 Q149 205 125 229 Q101 253 87 285 Q73 317 73 354 Z " />
<glyph glyph-name="endash" unicode="&#x2013;" horiz-adv-x="500" d="M0 309 L500 309 L500 189 L0 189 L0 309 Z " />
<glyph glyph-name="emdash" unicode="&#x2014;" horiz-adv-x="1000" d="M0 309 L1000 309 L1000 189 L0 189 L0 309 Z " />
<glyph glyph-name="tilde" unicode="&#x2dc;" horiz-adv-x="260" d="M-66 570 Q-62 595 -52 620 Q-42 645 -26.5 664.5 Q-11 684 11 696 Q33 708 61 708 Q86 708 106 702 Q126 696 148 687 Q162 682 175.5 677 Q189 672 204 672 Q221 672 231 682.5 Q241 693 248 708 L326 708 Q321 679 312 654 Q303 629 287.5 610.5 Q272 592 249.5 581 Q227 570 196 570 Q174 570 154.5 576.5 Q135 583 118 591 Q101 599 85.5 605.5 Q70 612 55 612 Q38 612 28 598 Q18 584 13 570 L-66 570 Z " />
<glyph glyph-name="trademark" unicode="&#x2122;" horiz-adv-x="1000" d="M159 612 L40 612 L40 708 L386 708 L386 612 L267 612 L267 296 L159 296 L159 612 Z M474 708 L619 708 L717 440 L815 708 L960 708 L960 296 L852 296 L852 564 L850 564 L752 296 L682 296 L584 564 L582 564 L582 296 L474 296 L474 708 Z " />
<glyph glyph-name="scaron" unicode="&#x161;" horiz-adv-x="463" d="M328 343 Q295 384 241 384 Q222 384 204 375 Q186 366 186 344 Q186 326 204.5 317.5 Q223 309 251.5 302.5 Q280 296 312.5 288.5 Q345 281 373.5 265 Q402 249 420.5 221.5 Q439 194 439 148 Q439 101 418.5 70.5 Q398 40 366 21.5 Q334 3 294 -4.5 Q254 -12 215 -12 Q164 -12 112 2.5 Q60 17 24 54 L115 155 Q136 129 161.5 115.5 Q187 102 221 102 Q247 102 268 109.5 Q289 117 289 137 Q289 156 270.5 165.5 Q252 175 223.5 181.5 Q195 188 162.5 195.5 Q130 203 101.5 218 Q73 233 54.5 260.5 Q36 288 36 334 Q36 377 53.5 408 Q71 439 99.5 459 Q128 479 165 488.5 Q202 498 240 498 Q288 498 337 484 Q386 470 420 434 L328 343 Z M167 708 L230 630 L292 708 L427 708 L308 564 L145 564 L29 708 L167 708 Z " />
<glyph glyph-name="guilsinglright" unicode="&#x203a;" horiz-adv-x="296" d="M144 249 L28 422 L119 483 L278 249 L119 15 L28 76 L144 249 Z " />
<glyph glyph-name="oe" unicode="&#x153;" horiz-adv-x="944" d="M883 84 Q847 38 792 13 Q737 -12 678 -12 Q615 -12 569 3.5 Q523 19 488 57 Q450 18 403.5 3 Q357 -12 306 -12 Q249 -12 200 6 Q151 24 114 57.5 Q77 91 56 138 Q35 185 35 243 Q35 301 56 348 Q77 395 114 428.5 Q151 462 200 480 Q249 498 306 498 Q360 498 406 480 Q452 462 488 425 Q520 459 566 478.5 Q612 498 678 498 Q730 498 772.5 480 Q815 462 844.5 428.5 Q874 395 890 348 Q906 301 906 243 L906 196 L558 196 Q567 153 597 127.5 Q627 102 671 102 Q708 102 733.5 118.5 Q759 135 778 161 L883 84 Z M306 366 Q249 366 217 332 Q185 298 185 243 Q185 188 217 154 Q249 120 306 120 Q363 120 394.5 154 Q426 188 426 243 Q426 298 394.5 332 Q363 366 306 366 Z M756 298 Q757 336 731 363 Q705 390 664 390 Q639 390 620 382 Q601 374 587.5 361.5 Q574 349 566.5 332.5 Q559 316 558 298 L756 298 Z " />
<glyph glyph-name="zcaron" unicode="&#x17e;" horiz-adv-x="500" d="M34 150 L286 366 L40 366 L40 486 L460 486 L460 342 L196 120 L466 120 L466 0 L34 0 L34 150 Z M185 708 L248 630 L310 708 L445 708 L326 564 L163 564 L47 708 L185 708 Z " />
<glyph glyph-name="Ydieresis" unicode="&#x178;" horiz-adv-x="648" d="M246 302 L-20 708 L174 708 L324 443 L483 708 L668 708 L402 302 L402 0 L246 0 L246 302 Z M219 780 Q201 780 186 787 Q171 794 160 806 Q149 818 142.5 833.5 Q136 849 136 866 Q136 882 142.5 897 Q149 912 160 923 Q171 934 185.5 941 Q200 948 217 948 Q252 948 278 925 Q304 902 304 866 Q304 830 280 805 Q256 780 219 780 Z M427 780 Q409 780 394 787 Q379 794 368 806 Q357 818 350.5 833.5 Q344 849 344 866 Q344 882 350.5 897 Q357 912 368 923 Q379 934 393.5 941 Q408 948 425 948 Q460 948 486 925 Q512 902 512 866 Q512 830 488 805 Q464 780 427 780 Z " />
<glyph glyph-name="uni00A0" unicode="&#xa0;" horiz-adv-x="296" d="" />
<glyph glyph-name="exclamdown" unicode="&#xa1;" horiz-adv-x="444" d="M147 252 L297 252 L297 -222 L147 -222 L147 252 Z M314 400 Q314 381 307 364 Q300 347 287.5 334.5 Q275 322 258 315 Q241 308 222 308 Q203 308 186 315 Q169 322 156.5 334.5 Q144 347 137 364 Q130 381 130 400 Q130 419 137 436 Q144 453 156.5 465.5 Q169 478 186 485 Q203 492 222 492 Q241 492 258 485 Q275 478 287.5 465.5 Q300 453 307 436 Q314 419 314 400 Z " />
<glyph glyph-name="cent" unicode="&#xa2;" horiz-adv-x="592" d="M310 -12 Q257 -9 213.5 12 Q170 33 139.5 67 Q109 101 92.5 146 Q76 191 76 243 Q76 296 92.5 340 Q109 384 139.5 417 Q170 450 213.5 471 Q257 492 310 498 L310 564 L370 564 L370 498 Q421 498 462 483.5 Q503 469 542 436 L446 334 Q426 354 406.5 363 Q387 372 370 372 L370 114 Q376 114 383.5 115 Q391 116 401.5 120 Q412 124 424.5 133 Q437 142 453 157 L544 50 Q525 32 502 20 Q479 8 455.5 1 Q432 -6 409.5 -9 Q387 -12 370 -12 L370 -81 L310 -81 L310 -12 Z M310 372 Q263 363 241.5 327 Q220 291 220 244 Q220 198 241.5 163 Q263 128 310 114 L310 372 Z " />
<glyph glyph-name="sterling" unicode="&#xa3;" horiz-adv-x="592" d="M48 114 L144 114 L144 312 L48 312 L48 414 L144 414 L144 485 Q144 530 160 572 Q176 614 207.5 647 Q239 680 285 700 Q331 720 392 720 Q449 720 504 705 Q559 690 601 652 L501 545 Q481 565 455.5 576.5 Q430 588 410 588 Q377 588 354.5 577 Q332 566 318.5 548.5 Q305 531 299.5 508.5 Q294 486 294 463 L294 414 L450 414 L450 312 L294 312 L294 114 L547 114 L547 0 L48 0 L48 114 Z " />
<glyph glyph-name="currency" unicode="&#xa4;" horiz-adv-x="592" d="M85 202 Q62 234 49 272.5 Q36 311 36 354 Q36 397 49 435.5 Q62 474 85 506 L36 555 L96 614 L145 566 Q177 589 215 601.5 Q253 614 296 614 Q339 614 377 601.5 Q415 589 447 566 L496 614 L556 555 L507 506 Q556 439 556 354 Q556 269 507 202 L556 153 L496 94 L447 142 Q415 119 377 106.5 Q339 94 296 94 Q253 94 215 106.5 Q177 119 145 142 L96 94 L36 153 L85 202 Z M168 354 Q168 326 178 301.5 Q188 277 205.5 259 Q223 241 246 230.5 Q269 220 296 220 Q323 220 346 230.5 Q369 241 386.5 259 Q404 277 414 301.5 Q424 326 424 354 Q424 382 414 406.5 Q404 431 386.5 449 Q369 467 346 477.5 Q323 488 296 488 Q269 488 246 477.5 Q223 467 205.5 449 Q188 431 178 406.5 Q168 382 168 354 Z " />
<glyph glyph-name="yen" unicode="&#xa5;" horiz-adv-x="592" d="M218 158 L49 158 L49 254 L218 254 L218 302 L206 322 L49 322 L49 418 L149 418 L-36 708 L146 708 L296 444 L446 708 L628 708 L443 418 L543 418 L543 322 L386 322 L374 302 L374 254 L543 254 L543 158 L374 158 L374 0 L218 0 L218 158 Z " />
<glyph glyph-name="brokenbar" unicode="&#xa6;" horiz-adv-x="222" d="M174 675 L174 325 L48 325 L48 675 L174 675 Z M174 175 L174 -175 L48 -175 L48 175 L174 175 Z " />
<glyph glyph-name="section" unicode="&#xa7;" horiz-adv-x="592" d="M391 545 Q380 574 354.5 590 Q329 606 299 606 Q275 606 254.5 593 Q234 580 234 553 Q234 528 257 511 Q280 494 315 479 Q350 464 390 448.5 Q430 433 465 411 Q500 389 523 357.5 Q546 326 546 281 Q546 239 522 204 Q498 169 462 151 Q488 130 502.5 98.5 Q517 67 517 32 Q517 -17 493.5 -52 Q470 -87 434 -109 Q398 -131 354.5 -141 Q311 -151 271 -151 Q234 -151 199 -145 Q164 -139 134 -124 Q104 -109 79.5 -85 Q55 -61 38 -25 L166 38 Q170 20 181.5 7 Q193 -6 208 -14.5 Q223 -23 240.5 -27 Q258 -31 275 -31 Q287 -31 301 -28.5 Q315 -26 327 -20 Q339 -14 347 -4 Q355 6 355 21 Q355 45 332.5 60.5 Q310 76 277 90.5 Q244 105 204.5 120 Q165 135 132 157.5 Q99 180 76.5 212.5 Q54 245 54 293 Q54 344 76.5 379.5 Q99 415 141 441 Q112 461 95 490.5 Q78 520 78 556 Q78 600 97.5 632 Q117 664 148 685 Q179 706 217 716 Q255 726 293 726 Q325 726 358 721 Q391 716 421.5 703 Q452 690 477 669 Q502 648 517 617 L391 545 Z M374 192 Q408 212 408 253 Q408 267 402 278.5 Q396 290 386.5 298.5 Q377 307 365.5 313.5 Q354 320 343 325 L227 380 Q192 360 192 321 Q192 303 199.5 290.5 Q207 278 218.5 268.5 Q230 259 244 252 Q258 245 272 239 L374 192 Z " />
<glyph glyph-name="dieresis" unicode="&#xa8;" horiz-adv-x="260" d="M25 558 Q7 558 -8 565 Q-23 572 -34 584 Q-45 596 -51.5 611.5 Q-58 627 -58 644 Q-58 660 -51.5 675 Q-45 690 -34 701 Q-23 712 -8.5 719 Q6 726 23 726 Q58 726 84 703 Q110 680 110 644 Q110 608 86 583 Q62 558 25 558 Z M233 558 Q215 558 200 565 Q185 572 174 584 Q163 596 156.5 611.5 Q150 627 150 644 Q150 660 156.5 675 Q163 690 174 701 Q185 712 199.5 719 Q214 726 231 726 Q266 726 292 703 Q318 680 318 644 Q318 608 294 583 Q270 558 233 558 Z " />
<glyph glyph-name="copyright" unicode="&#xa9;" horiz-adv-x="800" d="M588 300 Q583 261 566.5 232 Q550 203 526 183 Q502 163 472.5 153 Q443 143 410 143 Q363 143 326 159.5 Q289 176 263.5 205 Q238 234 224.5 273 Q211 312 211 357 Q211 403 224 441.5 Q237 480 261.5 508 Q286 536 323 551.5 Q360 567 408 567 Q442 567 472 558 Q502 549 526 530.5 Q550 512 566 484 Q582 456 588 419 L494 419 Q487 451 465 464 Q443 477 416 477 Q367 477 343 445 Q319 413 319 359 Q319 303 344.5 268 Q370 233 414 233 Q446 233 469 248 Q492 263 494 300 L588 300 Z M28 354 Q28 431 57.5 498.5 Q87 566 137.5 616.5 Q188 667 255.5 696.5 Q323 726 400 726 Q477 726 544.5 696.5 Q612 667 662.5 616.5 Q713 566 742.5 498.5 Q772 431 772 354 Q772 277 742.5 209.5 Q713 142 662.5 91.5 Q612 41 544.5 11.5 Q477 -18 400 -18 Q323 -18 255.5 11.5 Q188 41 137.5 91.5 Q87 142 57.5 209.5 Q28 277 28 354 Z M130 354 Q130 296 151 244.5 Q172 193 209 155 Q246 117 295 94.5 Q344 72 400 72 Q456 72 505 94.5 Q554 117 591 155 Q628 193 649 244.5 Q670 296 670 354 Q670 412 649 463.5 Q628 515 591 553 Q554 591 505 613.5 Q456 636 400 636 Q344 636 295 613.5 Q246 591 209 553 Q172 515 151 463.5 Q130 412 130 354 Z " />
<glyph glyph-name="ordfeminine" unicode="&#xaa;" horiz-adv-x="349" d="M230 468 L228 468 Q217 445 191 435 Q165 425 135 425 Q113 425 92.5 430.5 Q72 436 56.5 447.5 Q41 459 32 475.5 Q23 492 23 514 Q23 552 45 573 Q67 594 98.5 604.5 Q130 615 166 617 Q202 619 230 619 Q230 637 215 651.5 Q200 666 174 666 Q150 666 130.5 656 Q111 646 95 630 L43 679 Q70 702 107 714 Q144 726 182 726 Q225 726 252.5 716 Q280 706 296.5 687.5 Q313 669 319.5 641.5 Q326 614 326 579 L326 431 L230 431 L230 468 Z M236 559 L218 559 Q207 559 191 558 Q175 557 160.5 553 Q146 549 135.5 540.5 Q125 532 125 518 Q125 501 138.5 496 Q152 491 168 491 Q197 491 216.5 507 Q236 523 236 540 L236 559 Z " />
<glyph glyph-name="guillemotleft" unicode="&#xab;" horiz-adv-x="538" d="M152 249 L268 76 L177 15 L18 249 L177 483 L268 422 L152 249 Z M394 249 L510 76 L419 15 L260 249 L419 483 L510 422 L394 249 Z " />
<glyph glyph-name="logicalnot" unicode="&#xac;" horiz-adv-x="666" d="M481 336 L59 336 L59 462 L607 462 L607 142 L481 142 L481 336 Z " />
<glyph glyph-name="uni00AD" unicode="&#xad;" horiz-adv-x="296" d="M271 189 L25 189 L25 309 L271 309 L271 189 Z " />
<glyph glyph-name="registered" unicode="&#xae;" horiz-adv-x="800" d="M257 553 L395 553 Q411 553 439 551 Q467 549 494 537 Q521 525 541 499.5 Q561 474 561 427 Q561 397 553 377.5 Q545 358 532.5 345.5 Q520 333 503.5 326.5 Q487 320 470 318 L570 163 L465 163 L376 313 L359 313 L359 163 L257 163 L257 553 Z M358 391 L399 391 Q408 391 418.5 392 Q429 393 438 397 Q447 401 453 409.5 Q459 418 459 433 Q459 448 453 456.5 Q447 465 438 469 Q429 473 418.5 474 Q408 475 399 475 L358 475 L358 391 Z M28 354 Q28 431 57.5 498.5 Q87 566 137.5 616.5 Q188 667 255.5 696.5 Q323 726 400 726 Q477 726 544.5 696.5 Q612 667 662.5 616.5 Q713 566 742.5 498.5 Q772 431 772 354 Q772 277 742.5 209.5 Q713 142 662.5 91.5 Q612 41 544.5 11.5 Q477 -18 400 -18 Q323 -18 255.5 11.5 Q188 41 137.5 91.5 Q87 142 57.5 209.5 Q28 277 28 354 Z M130 354 Q130 296 151 244.5 Q172 193 209 155 Q246 117 295 94.5 Q344 72 400 72 Q456 72 505 94.5 Q554 117 591 155 Q628 193 649 244.5 Q670 296 670 354 Q670 412 649 463.5 Q628 515 591 553 Q554 591 505 613.5 Q456 636 400 636 Q344 636 295 613.5 Q246 591 209 553 Q172 515 151 463.5 Q130 412 130 354 Z " />
<glyph glyph-name="overscore" unicode="&#xaf;" horiz-adv-x="260" d="M300 591 L-40 591 L-40 687 L300 687 L300 591 Z " />
<glyph glyph-name="degree" unicode="&#xb0;" horiz-adv-x="400" d="M200 460 Q237 460 262.5 485.5 Q288 511 288 548 Q288 585 262.5 610.5 Q237 636 200 636 Q163 636 137.5 610.5 Q112 585 112 548 Q112 511 137.5 485.5 Q163 460 200 460 Z M200 376 Q164 376 133 389.5 Q102 403 78.5 426.5 Q55 450 41.5 481 Q28 512 28 548 Q28 584 41.5 615 Q55 646 78.5 669.5 Q102 693 133 706.5 Q164 720 200 720 Q236 720 267 706.5 Q298 693 321.5 669.5 Q345 646 358.5 615 Q372 584 372 548 Q372 512 358.5 481 Q345 450 321.5 426.5 Q298 403 267 389.5 Q236 376 200 376 Z " />
<glyph glyph-name="plusminus" unicode="&#xb1;" horiz-adv-x="666" d="M59 449 L270 449 L270 577 L396 577 L396 449 L607 449 L607 323 L396 323 L396 195 L270 195 L270 323 L59 323 L59 449 Z M59 155 L607 155 L607 29 L59 29 L59 155 Z " />
<glyph glyph-name="twosuperior" unicode="&#xb2;" horiz-adv-x="385" d="M24 378 L210 536 Q224 548 238.5 562 Q253 576 253 591 Q253 612 235 621 Q217 630 194 630 Q165 630 147.5 614.5 Q130 599 128 576 L26 582 Q31 653 79 686.5 Q127 720 199 720 Q234 720 263.5 712 Q293 704 315 689 Q337 674 349 651.5 Q361 629 361 600 Q361 574 357 557 Q353 540 345 527 Q337 514 326 504 Q315 494 300 483 L160 375 L160 373 L361 373 L361 289 L24 289 L24 378 Z " />
<glyph glyph-name="threesuperior" unicode="&#xb3;" horiz-adv-x="385" d="M143 552 L177 552 Q191 552 204.5 553.5 Q218 555 228.5 560 Q239 565 245 574 Q251 583 251 597 Q251 613 236 621.5 Q221 630 195 630 Q171 630 153.5 618.5 Q136 607 131 586 L21 606 Q38 670 85.5 695 Q133 720 195 720 Q227 720 257 713 Q287 706 309.5 692 Q332 678 345.5 656.5 Q359 635 359 606 Q359 571 338 545.5 Q317 520 276 513 L276 511 Q320 506 344 477 Q368 448 368 411 Q368 379 354 355 Q340 331 316 315 Q292 299 260 291 Q228 283 192 283 Q126 283 79 310 Q32 337 17 401 L126 423 Q131 400 147 386.5 Q163 373 192 373 Q221 373 240.5 384 Q260 395 260 421 Q260 438 252 447.5 Q244 457 231 461.5 Q218 466 201.5 467 Q185 468 168 468 L143 468 L143 552 Z " />
<glyph glyph-name="acute" unicode="&#xb4;" horiz-adv-x="260" d="M131 708 L335 708 L162 564 L30 564 L131 708 Z " />
<glyph glyph-name="mu" unicode="&#xb5;" horiz-adv-x="574" d="M521 0 L377 0 L377 66 L375 66 Q367 52 354.5 38 Q342 24 324 13 Q306 2 283 -5 Q260 -12 233 -12 Q216 -12 203 -9 L203 -228 L53 -228 L53 486 L203 486 L203 248 Q203 227 204.5 204.5 Q206 182 213.5 163 Q221 144 236.5 132 Q252 120 281 120 Q310 120 328 130.5 Q346 141 355.5 158.5 Q365 176 368 198 Q371 220 371 244 L371 486 L521 486 L521 0 Z " />
<glyph glyph-name="paragraph" unicode="&#xb6;" horiz-adv-x="620" d="M236 359 Q127 359 70 404 Q13 449 13 530 Q13 584 32 618.5 Q51 653 84 673 Q117 693 162 700.5 Q207 708 259 708 L561 708 L561 -133 L453 -133 L453 612 L344 612 L344 -133 L236 -133 L236 359 Z " />
<glyph glyph-name="middot" unicode="&#xb7;" horiz-adv-x="296" d="M56 283 Q56 302 63 319 Q70 336 82.5 348.5 Q95 361 112 368 Q129 375 148 375 Q167 375 184 368 Q201 361 213.5 348.5 Q226 336 233 319 Q240 302 240 283 Q240 264 233 247 Q226 230 213.5 217.5 Q201 205 184 198 Q167 191 148 191 Q129 191 112 198 Q95 205 82.5 217.5 Q70 230 63 247 Q56 264 56 283 Z " />
<glyph glyph-name="cedilla" unicode="&#xb8;" horiz-adv-x="260" d="M127 -60 Q149 -60 171.5 -62.5 Q194 -65 212 -73.5 Q230 -82 241.5 -98.5 Q253 -115 253 -143 Q253 -170 238.5 -189 Q224 -208 202.5 -219 Q181 -230 157 -235 Q133 -240 114 -240 Q84 -240 49.5 -231.5 Q15 -223 -11 -210 L14 -163 Q26 -168 45.5 -174 Q65 -180 91 -180 Q103 -180 114.5 -178.5 Q126 -177 135.5 -173.5 Q145 -170 151 -164 Q157 -158 157 -148 Q157 -130 139.5 -122 Q122 -114 107 -114 Q90 -114 71 -122 L39 -93 L101 0 L168 0 L127 -60 Z " />
<glyph glyph-name="onesuperior" unicode="&#xb9;" horiz-adv-x="385" d="M183 606 L94 531 L36 597 L195 714 L291 714 L291 289 L183 289 L183 606 Z " />
<glyph glyph-name="ordmasculine" unicode="&#xba;" horiz-adv-x="397" d="M23 575 Q23 609 36.5 637 Q50 665 73.5 684.5 Q97 704 129 715 Q161 726 198 726 Q235 726 267 715 Q299 704 323 684.5 Q347 665 360.5 637 Q374 609 374 575 Q374 539 360.5 511.5 Q347 484 323 464.5 Q299 445 267 435 Q235 425 198 425 Q161 425 129 435 Q97 445 73.5 464.5 Q50 484 36.5 511.5 Q23 539 23 575 Z M125 575 Q126 548 145 528.5 Q164 509 198 509 Q232 509 252 528.5 Q272 548 272 575 Q272 603 252 622.5 Q232 642 198 642 Q164 642 144.5 622.5 Q125 603 125 575 Z " />
<glyph glyph-name="guillemotright" unicode="&#xbb;" horiz-adv-x="538" d="M386 249 L270 422 L361 483 L520 249 L361 15 L270 76 L386 249 Z M144 249 L28 422 L119 483 L278 249 L119 15 L28 76 L144 249 Z " />
<glyph glyph-name="onequarter" unicode="&#xbc;" horiz-adv-x="889" d="M716 85 L507 85 L507 163 L706 425 L824 425 L824 169 L881 169 L881 85 L824 85 L824 0 L716 0 L716 85 Z M716 305 L714 305 L615 169 L716 169 L716 305 Z M155 606 L66 531 L8 597 L167 714 L263 714 L263 289 L155 289 L155 606 Z M594 740 L678 693 L265 -32 L189 11 L594 740 Z " />
<glyph glyph-name="onehalf" unicode="&#xbd;" horiz-adv-x="889" d="M155 606 L66 531 L8 597 L167 714 L263 714 L263 289 L155 289 L155 606 Z M544 89 L730 247 Q744 259 758.5 273 Q773 287 773 302 Q773 323 755 332 Q737 341 714 341 Q685 341 667.5 325.5 Q650 310 648 287 L546 293 Q551 364 599 397.5 Q647 431 719 431 Q754 431 783.5 423 Q813 415 835 400 Q857 385 869 362.5 Q881 340 881 311 Q881 285 877 268 Q873 251 865 238 Q857 225 846 215 Q835 205 820 194 L680 86 L680 84 L881 84 L881 0 L544 0 L544 89 Z M594 740 L678 693 L265 -32 L189 11 L594 740 Z " />
<glyph glyph-name="threequarters" unicode="&#xbe;" horiz-adv-x="889" d="M130 552 L164 552 Q178 552 191.5 553.5 Q205 555 215.5 560 Q226 565 232 574 Q238 583 238 597 Q238 613 223 621.5 Q208 630 182 630 Q158 630 140.5 618.5 Q123 607 118 586 L9 606 Q17 638 33.5 659.5 Q50 681 72.5 694.5 Q95 708 123 714 Q151 720 182 720 Q214 720 244 713 Q274 706 296.5 692 Q319 678 332.5 656.5 Q346 635 346 606 Q346 571 325 545.5 Q304 520 263 513 L263 511 Q307 506 331 477 Q355 448 355 411 Q355 379 341 355 Q327 331 303 315 Q279 299 247 291 Q215 283 179 283 Q113 283 66 310 Q19 337 4 401 L113 423 Q118 400 134 386.5 Q150 373 179 373 Q208 373 227.5 384 Q247 395 247 421 Q247 438 239 447.5 Q231 457 218 461.5 Q205 466 188.5 467 Q172 468 155 468 L130 468 L130 552 Z M720 85 L511 85 L511 163 L710 425 L828 425 L828 169 L885 169 L885 85 L828 85 L828 0 L720 0 L720 85 Z M720 305 L718 305 L619 169 L720 169 L720 305 Z M618 740 L702 693 L289 -32 L213 11 L618 740 Z " />
<glyph glyph-name="questiondown" unicode="&#xbf;" horiz-adv-x="556" d="M340 208 Q340 178 332 157 Q324 136 305 118 Q277 91 253.5 71 Q230 51 213 33.5 Q196 16 186.5 0.5 Q177 -15 177 -32 Q177 -65 197.5 -83.5 Q218 -102 249 -102 Q296 -102 320.5 -76 Q345 -50 348 -13 L502 -23 Q491 -129 424 -184.5 Q357 -240 252 -240 Q206 -240 165 -227.5 Q124 -215 93.5 -190 Q63 -165 45 -128 Q27 -91 27 -43 Q27 -15 33 9 Q39 33 53.5 56 Q68 79 91.5 102.5 Q115 126 151 154 Q174 172 182 189 Q190 206 190 223 L190 252 L340 252 L340 208 Z M357 400 Q357 381 350 364 Q343 347 330.5 334.5 Q318 322 301 315 Q284 308 265 308 Q246 308 229 315 Q212 322 199.5 334.5 Q187 347 180 364 Q173 381 173 400 Q173 419 180 436 Q187 453 199.5 465.5 Q212 478 229 485 Q246 492 265 492 Q284 492 301 485 Q318 478 330.5 465.5 Q343 453 350 436 Q357 419 357 400 Z " />
<glyph glyph-name="Agrave" unicode="&#xc0;" horiz-adv-x="741" d="M305 708 L434 708 L742 0 L566 0 L505 150 L230 150 L171 0 L-1 0 L305 708 Z M365 502 L279 282 L452 282 L365 502 Z M473 760 L341 760 L168 904 L372 904 L473 760 Z " />
<glyph glyph-name="Aacute" unicode="&#xc1;" horiz-adv-x="741" d="M305 708 L434 708 L742 0 L566 0 L505 150 L230 150 L171 0 L-1 0 L305 708 Z M365 502 L279 282 L452 282 L365 502 Z M372 904 L576 904 L403 760 L271 760 L372 904 Z " />
<glyph glyph-name="Acircumflex" unicode="&#xc2;" horiz-adv-x="741" d="M305 708 L434 708 L742 0 L566 0 L505 150 L230 150 L171 0 L-1 0 L305 708 Z M365 502 L279 282 L452 282 L365 502 Z M432 760 L369 838 L307 760 L172 760 L291 904 L454 904 L570 760 L432 760 Z " />
<glyph glyph-name="Atilde" unicode="&#xc3;" horiz-adv-x="741" d="M305 708 L434 708 L742 0 L566 0 L505 150 L230 150 L171 0 L-1 0 L305 708 Z M365 502 L279 282 L452 282 L365 502 Z M175 766 Q179 791 189 816 Q199 841 214.5 860.5 Q230 880 252 892 Q274 904 302 904 Q327 904 347 898 Q367 892 389 883 Q403 878 416.5 873 Q430 868 445 868 Q462 868 472 878.5 Q482 889 489 904 L567 904 Q562 875 553 850 Q544 825 528.5 806.5 Q513 788 490.5 777 Q468 766 437 766 Q415 766 395.5 772.5 Q376 779 359 787 Q342 795 326.5 801.5 Q311 808 296 808 Q279 808 269 794 Q259 780 254 766 L175 766 Z " />
<glyph glyph-name="Adieresis" unicode="&#xc4;" horiz-adv-x="741" d="M305 708 L434 708 L742 0 L566 0 L505 150 L230 150 L171 0 L-1 0 L305 708 Z M365 502 L279 282 L452 282 L365 502 Z M266 754 Q248 754 233 761 Q218 768 207 780 Q196 792 189.5 807.5 Q183 823 183 840 Q183 856 189.5 871 Q196 886 207 897 Q218 908 232.5 915 Q247 922 264 922 Q299 922 325 899 Q351 876 351 840 Q351 804 327 779 Q303 754 266 754 Z M474 754 Q456 754 441 761 Q426 768 415 780 Q404 792 397.5 807.5 Q391 823 391 840 Q391 856 397.5 871 Q404 886 415 897 Q426 908 440.5 915 Q455 922 472 922 Q507 922 533 899 Q559 876 559 840 Q559 804 535 779 Q511 754 474 754 Z " />
<glyph glyph-name="Aring" unicode="&#xc5;" horiz-adv-x="741" d="M305 708 L434 708 L742 0 L566 0 L505 150 L230 150 L171 0 L-1 0 L305 708 Z M365 502 L279 282 L452 282 L365 502 Z M371 731 Q348 731 328 740 Q308 749 293 764 Q278 779 269 799 Q260 819 260 842 Q260 864 269 884.5 Q278 905 293 920 Q308 935 328 944 Q348 953 371 953 Q393 953 413.5 944 Q434 935 449 920 Q464 905 473 884.5 Q482 864 482 842 Q482 819 473 799 Q464 779 449 764 Q434 749 413.5 740 Q393 731 371 731 Z M320 842 Q320 821 335 806 Q350 791 371 791 Q392 791 407 806 Q422 821 422 842 Q422 863 407 878 Q392 893 371 893 Q350 893 335 878 Q320 863 320 842 Z " />
<glyph glyph-name="AE" unicode="&#xc6;" horiz-adv-x="1037" d="M534 150 L271 150 L176 0 L-15 0 L434 708 L972 708 L972 564 L690 564 L690 432 L948 432 L948 288 L690 288 L690 144 L984 144 L984 0 L534 0 L534 150 Z M534 564 L517 564 L338 282 L534 282 L534 564 Z " />
<glyph glyph-name="Ccedilla" unicode="&#xc7;" horiz-adv-x="685" d="M535 524 Q512 552 478.5 567 Q445 582 401 582 Q357 582 319.5 565 Q282 548 254.5 517.5 Q227 487 211.5 445 Q196 403 196 354 Q196 304 211.5 262.5 Q227 221 254 190.5 Q281 160 317.5 143 Q354 126 396 126 Q444 126 481 146 Q518 166 542 202 L672 105 Q627 42 558 12 Q489 -18 416 -18 Q411 -18 406.5 -18 Q402 -18 397 -17 L368 -60 Q390 -60 412.5 -62.5 Q435 -65 453 -73.5 Q471 -82 482.5 -98.5 Q494 -115 494 -143 Q494 -170 479.5 -189 Q465 -208 443.5 -219 Q422 -230 398 -235 Q374 -240 355 -240 Q325 -240 290.5 -231.5 Q256 -223 230 -210 L255 -163 Q267 -168 286.5 -174 Q306 -180 332 -180 Q344 -180 355.5 -178.5 Q367 -177 376.5 -173.5 Q386 -170 392 -164 Q398 -158 398 -148 Q398 -130 380.5 -122 Q363 -114 348 -114 Q331 -114 312 -122 L280 -93 L334 -11 Q267 1 212 31.5 Q157 62 117.5 109 Q78 156 56 218 Q34 280 34 354 Q34 439 62.5 508 Q91 577 142 625.5 Q193 674 263 700 Q333 726 416 726 Q446 726 478.5 720.5 Q511 715 542.5 703 Q574 691 603 671 Q632 651 655 622 L535 524 Z " />
<glyph glyph-name="Egrave" unicode="&#xc8;" horiz-adv-x="630" d="M78 708 L559 708 L559 564 L234 564 L234 432 L541 432 L541 288 L234 288 L234 144 L577 144 L577 0 L78 0 L78 708 Z M417 760 L285 760 L112 904 L316 904 L417 760 Z " />
<glyph glyph-name="Eacute" unicode="&#xc9;" horiz-adv-x="630" d="M78 708 L559 708 L559 564 L234 564 L234 432 L541 432 L541 288 L234 288 L234 144 L577 144 L577 0 L78 0 L78 708 Z M316 904 L520 904 L347 760 L215 760 L316 904 Z " />
<glyph glyph-name="Ecircumflex" unicode="&#xca;" horiz-adv-x="630" d="M78 708 L559 708 L559 564 L234 564 L234 432 L541 432 L541 288 L234 288 L234 144 L577 144 L577 0 L78 0 L78 708 Z M376 760 L313 838 L251 760 L116 760 L235 904 L398 904 L514 760 L376 760 Z " />
<glyph glyph-name="Edieresis" unicode="&#xcb;" horiz-adv-x="630" d="M78 708 L559 708 L559 564 L234 564 L234 432 L541 432 L541 288 L234 288 L234 144 L577 144 L577 0 L78 0 L78 708 Z M210 754 Q192 754 177 761 Q162 768 151 780 Q140 792 133.5 807.5 Q127 823 127 840 Q127 856 133.5 871 Q140 886 151 897 Q162 908 176.5 915 Q191 922 208 922 Q243 922 269 899 Q295 876 295 840 Q295 804 271 779 Q247 754 210 754 Z M418 754 Q400 754 385 761 Q370 768 359 780 Q348 792 341.5 807.5 Q335 823 335 840 Q335 856 341.5 871 Q348 886 359 897 Q370 908 384.5 915 Q399 922 416 922 Q451 922 477 899 Q503 876 503 840 Q503 804 479 779 Q455 754 418 754 Z " />
<glyph glyph-name="Igrave" unicode="&#xcc;" horiz-adv-x="296" d="M70 708 L226 708 L226 0 L70 0 L70 708 Z M250 760 L118 760 L-55 904 L149 904 L250 760 Z " />
<glyph glyph-name="Iacute" unicode="&#xcd;" horiz-adv-x="296" d="M70 708 L226 708 L226 0 L70 0 L70 708 Z M149 904 L353 904 L180 760 L48 760 L149 904 Z " />
<glyph glyph-name="Icircumflex" unicode="&#xce;" horiz-adv-x="296" d="M70 708 L226 708 L226 0 L70 0 L70 708 Z M209 760 L146 838 L84 760 L-51 760 L68 904 L231 904 L347 760 L209 760 Z " />
<glyph glyph-name="Idieresis" unicode="&#xcf;" horiz-adv-x="296" d="M70 708 L226 708 L226 0 L70 0 L70 708 Z M43 754 Q25 754 10 761 Q-5 768 -16 780 Q-27 792 -33.5 807.5 Q-40 823 -40 840 Q-40 856 -33.5 871 Q-27 886 -16 897 Q-5 908 9.5 915 Q24 922 41 922 Q76 922 102 899 Q128 876 128 840 Q128 804 104 779 Q80 754 43 754 Z M251 754 Q233 754 218 761 Q203 768 192 780 Q181 792 174.5 807.5 Q168 823 168 840 Q168 856 174.5 871 Q181 886 192 897 Q203 908 217.5 915 Q232 922 249 922 Q284 922 310 899 Q336 876 336 840 Q336 804 312 779 Q288 754 251 754 Z " />
<glyph glyph-name="Eth" unicode="&#xd0;" horiz-adv-x="759" d="M228 420 L426 420 L426 318 L228 318 L228 144 L309 144 Q363 144 409.5 155 Q456 166 490 191.5 Q524 217 543.5 258.5 Q563 300 563 360 Q563 412 543.5 450.5 Q524 489 491 514 Q458 539 413.5 551.5 Q369 564 320 564 L228 564 L228 420 Z M72 318 L12 318 L12 420 L72 420 L72 708 L306 708 Q391 708 467.5 689 Q544 670 601 627.5 Q658 585 691.5 517 Q725 449 725 352 Q725 266 692.5 200.5 Q660 135 605 90.5 Q550 46 478 23 Q406 0 327 0 L72 0 L72 318 Z " />
<glyph glyph-name="Ntilde" unicode="&#xd1;" horiz-adv-x="815" d="M72 708 L284 708 L585 216 L587 216 L587 708 L743 708 L743 0 L539 0 L230 504 L228 504 L228 0 L72 0 L72 708 Z M212 766 Q216 791 226 816 Q236 841 251.5 860.5 Q267 880 289 892 Q311 904 339 904 Q364 904 384 898 Q404 892 426 883 Q440 878 453.5 873 Q467 868 482 868 Q499 868 509 878.5 Q519 889 526 904 L604 904 Q599 875 590 850 Q581 825 565.5 806.5 Q550 788 527.5 777 Q505 766 474 766 Q452 766 432.5 772.5 Q413 779 396 787 Q379 795 363.5 801.5 Q348 808 333 808 Q316 808 306 794 Q296 780 291 766 L212 766 Z " />
<glyph glyph-name="Ograve" unicode="&#xd2;" horiz-adv-x="832" d="M34 354 Q34 439 62.5 508 Q91 577 142 625.5 Q193 674 263 700 Q333 726 416 726 Q499 726 569 700 Q639 674 690 625.5 Q741 577 769.5 508 Q798 439 798 354 Q798 269 769.5 200 Q741 131 690 82.5 Q639 34 569 8 Q499 -18 416 -18 Q333 -18 263 8 Q193 34 142 82.5 Q91 131 62.5 200 Q34 269 34 354 Z M196 354 Q196 304 211.5 262.5 Q227 221 256 190.5 Q285 160 325.5 143 Q366 126 416 126 Q466 126 506.5 143 Q547 160 576 190.5 Q605 221 620.5 262.5 Q636 304 636 354 Q636 403 620.5 445 Q605 487 576 517.5 Q547 548 506.5 565 Q466 582 416 582 Q366 582 325.5 565 Q285 548 256 517.5 Q227 487 211.5 445 Q196 403 196 354 Z M518 760 L386 760 L213 904 L417 904 L518 760 Z " />
<glyph glyph-name="Oacute" unicode="&#xd3;" horiz-adv-x="832" d="M34 354 Q34 439 62.5 508 Q91 577 142 625.5 Q193 674 263 700 Q333 726 416 726 Q499 726 569 700 Q639 674 690 625.5 Q741 577 769.5 508 Q798 439 798 354 Q798 269 769.5 200 Q741 131 690 82.5 Q639 34 569 8 Q499 -18 416 -18 Q333 -18 263 8 Q193 34 142 82.5 Q91 131 62.5 200 Q34 269 34 354 Z M196 354 Q196 304 211.5 262.5 Q227 221 256 190.5 Q285 160 325.5 143 Q366 126 416 126 Q466 126 506.5 143 Q547 160 576 190.5 Q605 221 620.5 262.5 Q636 304 636 354 Q636 403 620.5 445 Q605 487 576 517.5 Q547 548 506.5 565 Q466 582 416 582 Q366 582 325.5 565 Q285 548 256 517.5 Q227 487 211.5 445 Q196 403 196 354 Z M417 904 L621 904 L448 760 L316 760 L417 904 Z " />
<glyph glyph-name="Ocircumflex" unicode="&#xd4;" horiz-adv-x="832" d="M34 354 Q34 439 62.5 508 Q91 577 142 625.5 Q193 674 263 700 Q333 726 416 726 Q499 726 569 700 Q639 674 690 625.5 Q741 577 769.5 508 Q798 439 798 354 Q798 269 769.5 200 Q741 131 690 82.5 Q639 34 569 8 Q499 -18 416 -18 Q333 -18 263 8 Q193 34 142 82.5 Q91 131 62.5 200 Q34 269 34 354 Z M196 354 Q196 304 211.5 262.5 Q227 221 256 190.5 Q285 160 325.5 143 Q366 126 416 126 Q466 126 506.5 143 Q547 160 576 190.5 Q605 221 620.5 262.5 Q636 304 636 354 Q636 403 620.5 445 Q605 487 576 517.5 Q547 548 506.5 565 Q466 582 416 582 Q366 582 325.5 565 Q285 548 256 517.5 Q227 487 211.5 445 Q196 403 196 354 Z M477 760 L414 838 L352 760 L217 760 L336 904 L499 904 L615 760 L477 760 Z " />
<glyph glyph-name="Otilde" unicode="&#xd5;" horiz-adv-x="832" d="M34 354 Q34 439 62.5 508 Q91 577 142 625.5 Q193 674 263 700 Q333 726 416 726 Q499 726 569 700 Q639 674 690 625.5 Q741 577 769.5 508 Q798 439 798 354 Q798 269 769.5 200 Q741 131 690 82.5 Q639 34 569 8 Q499 -18 416 -18 Q333 -18 263 8 Q193 34 142 82.5 Q91 131 62.5 200 Q34 269 34 354 Z M196 354 Q196 304 211.5 262.5 Q227 221 256 190.5 Q285 160 325.5 143 Q366 126 416 126 Q466 126 506.5 143 Q547 160 576 190.5 Q605 221 620.5 262.5 Q636 304 636 354 Q636 403 620.5 445 Q605 487 576 517.5 Q547 548 506.5 565 Q466 582 416 582 Q366 582 325.5 565 Q285 548 256 517.5 Q227 487 211.5 445 Q196 403 196 354 Z M220 766 Q224 791 234 816 Q244 841 259.5 860.5 Q275 880 297 892 Q319 904 347 904 Q372 904 392 898 Q412 892 434 883 Q448 878 461.5 873 Q475 868 490 868 Q507 868 517 878.5 Q527 889 534 904 L612 904 Q607 875 598 850 Q589 825 573.5 806.5 Q558 788 535.5 777 Q513 766 482 766 Q460 766 440.5 772.5 Q421 779 404 787 Q387 795 371.5 801.5 Q356 808 341 808 Q324 808 314 794 Q304 780 299 766 L220 766 Z " />
<glyph glyph-name="Odieresis" unicode="&#xd6;" horiz-adv-x="832" d="M34 354 Q34 439 62.5 508 Q91 577 142 625.5 Q193 674 263 700 Q333 726 416 726 Q499 726 569 700 Q639 674 690 625.5 Q741 577 769.5 508 Q798 439 798 354 Q798 269 769.5 200 Q741 131 690 82.5 Q639 34 569 8 Q499 -18 416 -18 Q333 -18 263 8 Q193 34 142 82.5 Q91 131 62.5 200 Q34 269 34 354 Z M196 354 Q196 304 211.5 262.5 Q227 221 256 190.5 Q285 160 325.5 143 Q366 126 416 126 Q466 126 506.5 143 Q547 160 576 190.5 Q605 221 620.5 262.5 Q636 304 636 354 Q636 403 620.5 445 Q605 487 576 517.5 Q547 548 506.5 565 Q466 582 416 582 Q366 582 325.5 565 Q285 548 256 517.5 Q227 487 211.5 445 Q196 403 196 354 Z M311 754 Q293 754 278 761 Q263 768 252 780 Q241 792 234.5 807.5 Q228 823 228 840 Q228 856 234.5 871 Q241 886 252 897 Q263 908 277.5 915 Q292 922 309 922 Q344 922 370 899 Q396 876 396 840 Q396 804 372 779 Q348 754 311 754 Z M519 754 Q501 754 486 761 Q471 768 460 780 Q449 792 442.5 807.5 Q436 823 436 840 Q436 856 442.5 871 Q449 886 460 897 Q471 908 485.5 915 Q500 922 517 922 Q552 922 578 899 Q604 876 604 840 Q604 804 580 779 Q556 754 519 754 Z " />
<glyph glyph-name="multiply" unicode="&#xd7;" horiz-adv-x="666" d="M157 570 L334 395 L506 569 L595 483 L422 303 L602 130 L510 37 L334 213 L157 36 L68 122 L242 303 L64 475 L157 570 Z " />
<glyph glyph-name="Oslash" unicode="&#xd8;" horiz-adv-x="832" d="M127 99 Q82 147 58 211.5 Q34 276 34 354 Q34 439 62.5 508 Q91 577 142 625.5 Q193 674 263 700 Q333 726 416 726 Q547 726 643 662 L735 762 L790 713 L700 615 Q747 567 772.5 501 Q798 435 798 354 Q798 269 769.5 200 Q741 131 690 82.5 Q639 34 569 8 Q499 -18 416 -18 Q347 -18 288 0 Q229 18 183 50 L90 -51 L34 -3 L127 99 Z M539 548 Q486 582 416 582 Q366 582 325.5 565 Q285 548 256 517.5 Q227 487 211.5 445 Q196 403 196 354 Q196 276 235 217 L539 548 Z M287 164 Q313 146 345.5 136 Q378 126 416 126 Q466 126 506.5 143 Q547 160 576 190.5 Q605 221 620.5 262.5 Q636 304 636 354 Q636 396 624.5 432.5 Q613 469 592 497 L287 164 Z " />
<glyph glyph-name="Ugrave" unicode="&#xd9;" horiz-adv-x="741" d="M669 273 Q669 210 650 157 Q631 104 593.5 65 Q556 26 500 4 Q444 -18 371 -18 Q297 -18 241 4 Q185 26 147.5 65 Q110 104 91 157 Q72 210 72 273 L72 708 L228 708 L228 279 Q228 246 238.5 218 Q249 190 268 169.5 Q287 149 313.5 137.5 Q340 126 371 126 Q402 126 428 137.5 Q454 149 473 169.5 Q492 190 502.5 218 Q513 246 513 279 L513 708 L669 708 L669 273 Z M473 760 L341 760 L168 904 L372 904 L473 760 Z " />
<glyph glyph-name="Uacute" unicode="&#xda;" horiz-adv-x="741" d="M669 273 Q669 210 650 157 Q631 104 593.5 65 Q556 26 500 4 Q444 -18 371 -18 Q297 -18 241 4 Q185 26 147.5 65 Q110 104 91 157 Q72 210 72 273 L72 708 L228 708 L228 279 Q228 246 238.5 218 Q249 190 268 169.5 Q287 149 313.5 137.5 Q340 126 371 126 Q402 126 428 137.5 Q454 149 473 169.5 Q492 190 502.5 218 Q513 246 513 279 L513 708 L669 708 L669 273 Z M372 904 L576 904 L403 760 L271 760 L372 904 Z " />
<glyph glyph-name="Ucircumflex" unicode="&#xdb;" horiz-adv-x="741" d="M669 273 Q669 210 650 157 Q631 104 593.5 65 Q556 26 500 4 Q444 -18 371 -18 Q297 -18 241 4 Q185 26 147.5 65 Q110 104 91 157 Q72 210 72 273 L72 708 L228 708 L228 279 Q228 246 238.5 218 Q249 190 268 169.5 Q287 149 313.5 137.5 Q340 126 371 126 Q402 126 428 137.5 Q454 149 473 169.5 Q492 190 502.5 218 Q513 246 513 279 L513 708 L669 708 L669 273 Z M432 760 L369 838 L307 760 L172 760 L291 904 L454 904 L570 760 L432 760 Z " />
<glyph glyph-name="Udieresis" unicode="&#xdc;" horiz-adv-x="741" d="M669 273 Q669 210 650 157 Q631 104 593.5 65 Q556 26 500 4 Q444 -18 371 -18 Q297 -18 241 4 Q185 26 147.5 65 Q110 104 91 157 Q72 210 72 273 L72 708 L228 708 L228 279 Q228 246 238.5 218 Q249 190 268 169.5 Q287 149 313.5 137.5 Q340 126 371 126 Q402 126 428 137.5 Q454 149 473 169.5 Q492 190 502.5 218 Q513 246 513 279 L513 708 L669 708 L669 273 Z M266 754 Q248 754 233 761 Q218 768 207 780 Q196 792 189.5 807.5 Q183 823 183 840 Q183 856 189.5 871 Q196 886 207 897 Q218 908 232.5 915 Q247 922 264 922 Q299 922 325 899 Q351 876 351 840 Q351 804 327 779 Q303 754 266 754 Z M474 754 Q456 754 441 761 Q426 768 415 780 Q404 792 397.5 807.5 Q391 823 391 840 Q391 856 397.5 871 Q404 886 415 897 Q426 908 440.5 915 Q455 922 472 922 Q507 922 533 899 Q559 876 559 840 Q559 804 535 779 Q511 754 474 754 Z " />
<glyph glyph-name="Yacute" unicode="&#xdd;" horiz-adv-x="648" d="M246 302 L-20 708 L174 708 L324 443 L483 708 L668 708 L402 302 L402 0 L246 0 L246 302 Z M325 930 L529 930 L356 786 L224 786 L325 930 Z " />
<glyph glyph-name="Thorn" unicode="&#xde;" horiz-adv-x="630" d="M72 708 L228 708 L228 582 L335 582 Q390 582 439 572 Q488 562 524.5 537.5 Q561 513 582.5 471.5 Q604 430 604 367 Q604 305 584 263 Q564 221 529 196 Q494 171 446 160.5 Q398 150 342 150 L228 150 L228 0 L72 0 L72 708 Z M228 282 L332 282 Q353 282 372.5 286 Q392 290 407.5 299.5 Q423 309 432.5 325.5 Q442 342 442 367 Q442 394 429.5 410.5 Q417 427 397.5 436 Q378 445 354 447.5 Q330 450 308 450 L228 450 L228 282 Z " />
<glyph glyph-name="germandbls" unicode="&#xdf;" horiz-adv-x="630" d="M53 513 Q53 768 309 768 Q351 768 392.5 757.5 Q434 747 467 724.5 Q500 702 520 667.5 Q540 633 540 585 Q540 527 516 487 Q492 447 438 425 L438 423 Q517 407 555.5 351 Q594 295 594 217 Q594 164 576 121.5 Q558 79 526.5 49.5 Q495 20 451.5 4 Q408 -12 356 -12 Q309 -12 263 0 L263 122 Q289 114 312 114 Q340 114 365 121 Q390 128 409 142.5 Q428 157 439 179 Q450 201 450 231 Q450 295 411 324 Q372 353 313 353 L293 353 L293 479 L305 479 Q343 479 369.5 499 Q396 519 396 558 Q396 577 388.5 591.5 Q381 606 368 616 Q355 626 339 631 Q323 636 305 636 Q259 636 231 609.5 Q203 583 203 538 L203 0 L53 0 L53 513 Z " />
<glyph glyph-name="agrave" unicode="&#xe0;" horiz-adv-x="537" d="M358 61 L356 61 Q331 22 289.5 5 Q248 -12 202 -12 Q168 -12 136.5 -2.5 Q105 7 81 26 Q57 45 43 73 Q29 101 29 138 Q29 180 44.5 209 Q60 238 86.5 257 Q113 276 147 286.5 Q181 297 217.5 302 Q254 307 290.5 308 Q327 309 358 309 Q358 349 329.5 372.5 Q301 396 262 396 Q225 396 194.5 380.5 Q164 365 140 338 L60 420 Q102 459 158 478.5 Q214 498 274 498 Q340 498 382.5 481.5 Q425 465 450.5 433 Q476 401 486 354.5 Q496 308 496 247 L496 0 L358 0 L358 61 Z M321 213 Q304 213 278.5 211.5 Q253 210 229.5 203 Q206 196 189.5 182 Q173 168 173 143 Q173 116 196 103 Q219 90 244 90 Q266 90 286.5 96 Q307 102 323 113 Q339 124 348.5 141 Q358 158 358 181 L358 213 L321 213 Z M371 564 L239 564 L66 708 L270 708 L371 564 Z " />
<glyph glyph-name="aacute" unicode="&#xe1;" horiz-adv-x="537" d="M358 61 L356 61 Q331 22 289.5 5 Q248 -12 202 -12 Q168 -12 136.5 -2.5 Q105 7 81 26 Q57 45 43 73 Q29 101 29 138 Q29 180 44.5 209 Q60 238 86.5 257 Q113 276 147 286.5 Q181 297 217.5 302 Q254 307 290.5 308 Q327 309 358 309 Q358 349 329.5 372.5 Q301 396 262 396 Q225 396 194.5 380.5 Q164 365 140 338 L60 420 Q102 459 158 478.5 Q214 498 274 498 Q340 498 382.5 481.5 Q425 465 450.5 433 Q476 401 486 354.5 Q496 308 496 247 L496 0 L358 0 L358 61 Z M321 213 Q304 213 278.5 211.5 Q253 210 229.5 203 Q206 196 189.5 182 Q173 168 173 143 Q173 116 196 103 Q219 90 244 90 Q266 90 286.5 96 Q307 102 323 113 Q339 124 348.5 141 Q358 158 358 181 L358 213 L321 213 Z M270 708 L474 708 L301 564 L169 564 L270 708 Z " />
<glyph glyph-name="acircumflex" unicode="&#xe2;" horiz-adv-x="537" d="M358 61 L356 61 Q331 22 289.5 5 Q248 -12 202 -12 Q168 -12 136.5 -2.5 Q105 7 81 26 Q57 45 43 73 Q29 101 29 138 Q29 180 44.5 209 Q60 238 86.5 257 Q113 276 147 286.5 Q181 297 217.5 302 Q254 307 290.5 308 Q327 309 358 309 Q358 349 329.5 372.5 Q301 396 262 396 Q225 396 194.5 380.5 Q164 365 140 338 L60 420 Q102 459 158 478.5 Q214 498 274 498 Q340 498 382.5 481.5 Q425 465 450.5 433 Q476 401 486 354.5 Q496 308 496 247 L496 0 L358 0 L358 61 Z M321 213 Q304 213 278.5 211.5 Q253 210 229.5 203 Q206 196 189.5 182 Q173 168 173 143 Q173 116 196 103 Q219 90 244 90 Q266 90 286.5 96 Q307 102 323 113 Q339 124 348.5 141 Q358 158 358 181 L358 213 L321 213 Z M330 564 L267 642 L205 564 L70 564 L189 708 L352 708 L468 564 L330 564 Z " />
<glyph glyph-name="atilde" unicode="&#xe3;" horiz-adv-x="537" d="M358 61 L356 61 Q331 22 289.5 5 Q248 -12 202 -12 Q168 -12 136.5 -2.5 Q105 7 81 26 Q57 45 43 73 Q29 101 29 138 Q29 180 44.5 209 Q60 238 86.5 257 Q113 276 147 286.5 Q181 297 217.5 302 Q254 307 290.5 308 Q327 309 358 309 Q358 349 329.5 372.5 Q301 396 262 396 Q225 396 194.5 380.5 Q164 365 140 338 L60 420 Q102 459 158 478.5 Q214 498 274 498 Q340 498 382.5 481.5 Q425 465 450.5 433 Q476 401 486 354.5 Q496 308 496 247 L496 0 L358 0 L358 61 Z M321 213 Q304 213 278.5 211.5 Q253 210 229.5 203 Q206 196 189.5 182 Q173 168 173 143 Q173 116 196 103 Q219 90 244 90 Q266 90 286.5 96 Q307 102 323 113 Q339 124 348.5 141 Q358 158 358 181 L358 213 L321 213 Z M73 570 Q77 595 87 620 Q97 645 112.5 664.5 Q128 684 150 696 Q172 708 200 708 Q225 708 245 702 Q265 696 287 687 Q301 682 314.5 677 Q328 672 343 672 Q360 672 370 682.5 Q380 693 387 708 L465 708 Q460 679 451 654 Q442 629 426.5 610.5 Q411 592 388.5 581 Q366 570 335 570 Q313 570 293.5 576.5 Q274 583 257 591 Q240 599 224.5 605.5 Q209 612 194 612 Q177 612 167 598 Q157 584 152 570 L73 570 Z " />
<glyph glyph-name="adieresis" unicode="&#xe4;" horiz-adv-x="537" d="M358 61 L356 61 Q331 22 289.5 5 Q248 -12 202 -12 Q168 -12 136.5 -2.5 Q105 7 81 26 Q57 45 43 73 Q29 101 29 138 Q29 180 44.5 209 Q60 238 86.5 257 Q113 276 147 286.5 Q181 297 217.5 302 Q254 307 290.5 308 Q327 309 358 309 Q358 349 329.5 372.5 Q301 396 262 396 Q225 396 194.5 380.5 Q164 365 140 338 L60 420 Q102 459 158 478.5 Q214 498 274 498 Q340 498 382.5 481.5 Q425 465 450.5 433 Q476 401 486 354.5 Q496 308 496 247 L496 0 L358 0 L358 61 Z M321 213 Q304 213 278.5 211.5 Q253 210 229.5 203 Q206 196 189.5 182 Q173 168 173 143 Q173 116 196 103 Q219 90 244 90 Q266 90 286.5 96 Q307 102 323 113 Q339 124 348.5 141 Q358 158 358 181 L358 213 L321 213 Z M164 558 Q146 558 131 565 Q116 572 105 584 Q94 596 87.5 611.5 Q81 627 81 644 Q81 660 87.5 675 Q94 690 105 701 Q116 712 130.5 719 Q145 726 162 726 Q197 726 223 703 Q249 680 249 644 Q249 608 225 583 Q201 558 164 558 Z M372 558 Q354 558 339 565 Q324 572 313 584 Q302 596 295.5 611.5 Q289 627 289 644 Q289 660 295.5 675 Q302 690 313 701 Q324 712 338.5 719 Q353 726 370 726 Q405 726 431 703 Q457 680 457 644 Q457 608 433 583 Q409 558 372 558 Z " />
<glyph glyph-name="aring" unicode="&#xe5;" horiz-adv-x="537" d="M358 61 L356 61 Q331 22 289.5 5 Q248 -12 202 -12 Q168 -12 136.5 -2.5 Q105 7 81 26 Q57 45 43 73 Q29 101 29 138 Q29 180 44.5 209 Q60 238 86.5 257 Q113 276 147 286.5 Q181 297 217.5 302 Q254 307 290.5 308 Q327 309 358 309 Q358 349 329.5 372.5 Q301 396 262 396 Q225 396 194.5 380.5 Q164 365 140 338 L60 420 Q102 459 158 478.5 Q214 498 274 498 Q340 498 382.5 481.5 Q425 465 450.5 433 Q476 401 486 354.5 Q496 308 496 247 L496 0 L358 0 L358 61 Z M321 213 Q304 213 278.5 211.5 Q253 210 229.5 203 Q206 196 189.5 182 Q173 168 173 143 Q173 116 196 103 Q219 90 244 90 Q266 90 286.5 96 Q307 102 323 113 Q339 124 348.5 141 Q358 158 358 181 L358 213 L321 213 Z M269 545 Q246 545 226 554 Q206 563 191 578 Q176 593 167 613 Q158 633 158 656 Q158 679 167 699 Q176 719 191 734 Q206 749 226 758 Q246 767 269 767 Q292 767 312 758 Q332 749 347 734 Q362 719 371 699 Q380 679 380 656 Q380 633 371 613 Q362 593 347 578 Q332 563 312 554 Q292 545 269 545 Z M218 656 Q218 635 233 620 Q248 605 269 605 Q290 605 305 620 Q320 635 320 656 Q320 677 305 692 Q290 707 269 707 Q248 707 233 692 Q218 677 218 656 Z " />
<glyph glyph-name="ae" unicode="&#xe6;" horiz-adv-x="852" d="M60 420 Q102 459 158 478.5 Q214 498 274 498 Q317 498 358.5 484 Q400 470 432 439 Q462 468 504.5 483 Q547 498 595 498 Q647 498 689.5 480 Q732 462 761.5 428.5 Q791 395 807 348 Q823 301 823 243 L823 196 L475 196 Q484 153 514 127.5 Q544 102 588 102 Q625 102 650.5 118.5 Q676 135 695 161 L800 84 Q764 38 709 13 Q654 -12 595 -12 Q535 -12 484 5 Q433 22 401 67 Q369 23 317.5 5.5 Q266 -12 202 -12 Q168 -12 136.5 -2.5 Q105 7 81 26 Q57 45 43 73 Q29 101 29 138 Q29 177 44 204 Q59 231 83.5 249 Q108 267 139.5 276.5 Q171 286 204.5 291 Q238 296 271 297 Q304 298 331 298 L349 298 Q349 342 326 369 Q303 396 262 396 Q225 396 194.5 380.5 Q164 365 140 338 L60 420 Z M173 139 Q173 122 180.5 112.5 Q188 103 199 98 Q210 93 224 91.5 Q238 90 250 90 Q304 90 326.5 119 Q349 148 349 196 L331 196 Q314 196 287 195 Q260 194 234.5 189 Q209 184 191 172 Q173 160 173 139 Z M673 298 Q674 336 648 363 Q622 390 581 390 Q556 390 537 382 Q518 374 504.5 361.5 Q491 349 483.5 332.5 Q476 316 475 298 L673 298 Z " />
<glyph glyph-name="ccedilla" unicode="&#xe7;" horiz-adv-x="482" d="M382 329 Q371 345 351 355.5 Q331 366 308 366 Q251 366 219.5 332 Q188 298 188 243 Q188 188 219.5 154 Q251 120 308 120 Q333 120 351 131 Q369 142 382 157 L481 53 Q446 17 398.5 2.5 Q351 -12 308 -12 Q301 -12 299 -11 L266 -60 Q288 -60 310.5 -62.5 Q333 -65 351 -73.5 Q369 -82 380.5 -98.5 Q392 -115 392 -143 Q392 -170 377.5 -189 Q363 -208 341.5 -219 Q320 -230 296 -235 Q272 -240 253 -240 Q223 -240 188.5 -231.5 Q154 -223 128 -210 L153 -163 Q165 -168 184.5 -174 Q204 -180 230 -180 Q242 -180 253.5 -178.5 Q265 -177 274.5 -173.5 Q284 -170 290 -164 Q296 -158 296 -148 Q296 -130 278.5 -122 Q261 -114 246 -114 Q229 -114 210 -122 L178 -93 L238 -3 Q194 6 157.5 27.5 Q121 49 94.5 80.5 Q68 112 53 153 Q38 194 38 243 Q38 301 59 348 Q80 395 116.5 428.5 Q153 462 202.5 480 Q252 498 308 498 Q351 498 398.5 483.5 Q446 469 481 433 L382 329 Z " />
<glyph glyph-name="egrave" unicode="&#xe8;" horiz-adv-x="574" d="M513 84 Q477 38 422 13 Q367 -12 308 -12 Q252 -12 202.5 6 Q153 24 116.5 57.5 Q80 91 59 138 Q38 185 38 243 Q38 301 59 348 Q80 395 116.5 428.5 Q153 462 202.5 480 Q252 498 308 498 Q360 498 402.5 480 Q445 462 474.5 428.5 Q504 395 520 348 Q536 301 536 243 L536 196 L188 196 Q197 153 227 127.5 Q257 102 301 102 Q338 102 363.5 118.5 Q389 135 408 161 L513 84 Z M386 298 Q387 336 361 363 Q335 390 294 390 Q269 390 250 382 Q231 374 217.5 361.5 Q204 349 196.5 332.5 Q189 316 188 298 L386 298 Z M389 564 L257 564 L84 708 L288 708 L389 564 Z " />
<glyph glyph-name="eacute" unicode="&#xe9;" horiz-adv-x="574" d="M513 84 Q477 38 422 13 Q367 -12 308 -12 Q252 -12 202.5 6 Q153 24 116.5 57.5 Q80 91 59 138 Q38 185 38 243 Q38 301 59 348 Q80 395 116.5 428.5 Q153 462 202.5 480 Q252 498 308 498 Q360 498 402.5 480 Q445 462 474.5 428.5 Q504 395 520 348 Q536 301 536 243 L536 196 L188 196 Q197 153 227 127.5 Q257 102 301 102 Q338 102 363.5 118.5 Q389 135 408 161 L513 84 Z M386 298 Q387 336 361 363 Q335 390 294 390 Q269 390 250 382 Q231 374 217.5 361.5 Q204 349 196.5 332.5 Q189 316 188 298 L386 298 Z M288 708 L492 708 L319 564 L187 564 L288 708 Z " />
<glyph glyph-name="ecircumflex" unicode="&#xea;" horiz-adv-x="574" d="M513 84 Q477 38 422 13 Q367 -12 308 -12 Q252 -12 202.5 6 Q153 24 116.5 57.5 Q80 91 59 138 Q38 185 38 243 Q38 301 59 348 Q80 395 116.5 428.5 Q153 462 202.5 480 Q252 498 308 498 Q360 498 402.5 480 Q445 462 474.5 428.5 Q504 395 520 348 Q536 301 536 243 L536 196 L188 196 Q197 153 227 127.5 Q257 102 301 102 Q338 102 363.5 118.5 Q389 135 408 161 L513 84 Z M386 298 Q387 336 361 363 Q335 390 294 390 Q269 390 250 382 Q231 374 217.5 361.5 Q204 349 196.5 332.5 Q189 316 188 298 L386 298 Z M348 564 L285 642 L223 564 L88 564 L207 708 L370 708 L486 564 L348 564 Z " />
<glyph glyph-name="edieresis" unicode="&#xeb;" horiz-adv-x="574" d="M513 84 Q477 38 422 13 Q367 -12 308 -12 Q252 -12 202.5 6 Q153 24 116.5 57.5 Q80 91 59 138 Q38 185 38 243 Q38 301 59 348 Q80 395 116.5 428.5 Q153 462 202.5 480 Q252 498 308 498 Q360 498 402.5 480 Q445 462 474.5 428.5 Q504 395 520 348 Q536 301 536 243 L536 196 L188 196 Q197 153 227 127.5 Q257 102 301 102 Q338 102 363.5 118.5 Q389 135 408 161 L513 84 Z M386 298 Q387 336 361 363 Q335 390 294 390 Q269 390 250 382 Q231 374 217.5 361.5 Q204 349 196.5 332.5 Q189 316 188 298 L386 298 Z M182 558 Q164 558 149 565 Q134 572 123 584 Q112 596 105.5 611.5 Q99 627 99 644 Q99 660 105.5 675 Q112 690 123 701 Q134 712 148.5 719 Q163 726 180 726 Q215 726 241 703 Q267 680 267 644 Q267 608 243 583 Q219 558 182 558 Z M390 558 Q372 558 357 565 Q342 572 331 584 Q320 596 313.5 611.5 Q307 627 307 644 Q307 660 313.5 675 Q320 690 331 701 Q342 712 356.5 719 Q371 726 388 726 Q423 726 449 703 Q475 680 475 644 Q475 608 451 583 Q427 558 390 558 Z " />
<glyph glyph-name="igrave" unicode="&#xec;" horiz-adv-x="260" d="M55 486 L205 486 L205 0 L55 0 L55 486 Z M232 564 L100 564 L-73 708 L131 708 L232 564 Z " />
<glyph glyph-name="iacute" unicode="&#xed;" horiz-adv-x="260" d="M55 486 L205 486 L205 0 L55 0 L55 486 Z M131 708 L335 708 L162 564 L30 564 L131 708 Z " />
<glyph glyph-name="icircumflex" unicode="&#xee;" horiz-adv-x="260" d="M55 486 L205 486 L205 0 L55 0 L55 486 Z M191 564 L128 642 L66 564 L-69 564 L50 708 L213 708 L329 564 L191 564 Z " />
<glyph glyph-name="idieresis" unicode="&#xef;" horiz-adv-x="260" d="M55 486 L205 486 L205 0 L55 0 L55 486 Z M25 558 Q7 558 -8 565 Q-23 572 -34 584 Q-45 596 -51.5 611.5 Q-58 627 -58 644 Q-58 660 -51.5 675 Q-45 690 -34 701 Q-23 712 -8.5 719 Q6 726 23 726 Q58 726 84 703 Q110 680 110 644 Q110 608 86 583 Q62 558 25 558 Z M233 558 Q215 558 200 565 Q185 572 174 584 Q163 596 156.5 611.5 Q150 627 150 644 Q150 660 156.5 675 Q163 690 174 701 Q185 712 199.5 719 Q214 726 231 726 Q266 726 292 703 Q318 680 318 644 Q318 608 294 583 Q270 558 233 558 Z " />
<glyph glyph-name="eth" unicode="&#xf0;" horiz-adv-x="610" d="M526 710 L403 659 Q427 634 456.5 599 Q486 564 512.5 517.5 Q539 471 557 413 Q575 355 575 284 Q575 216 557.5 161 Q540 106 505.5 67.5 Q471 29 421 8 Q371 -13 305 -12 Q249 -12 199.5 6 Q150 24 113.5 57.5 Q77 91 56 138 Q35 185 35 243 Q35 301 56.5 348 Q78 395 113 428.5 Q148 462 192.5 480 Q237 498 283 498 Q309 498 335 493.5 Q361 489 381 472 L383 474 Q373 488 359 505.5 Q345 523 330 541 Q315 559 299.5 575.5 Q284 592 272 603 L166 558 L94 626 L202 672 Q197 677 189 684.5 Q181 692 171.5 700.5 Q162 709 152 717 Q142 725 133 731 L255 801 Q278 784 297.5 766 Q317 748 335 729 L449 777 L526 710 Z M185 243 Q185 188 216.5 154 Q248 120 305 120 Q362 120 393.5 154 Q425 188 425 243 Q425 298 393.5 332 Q362 366 305 366 Q248 366 216.5 332 Q185 298 185 243 Z " />
<glyph glyph-name="ntilde" unicode="&#xf1;" horiz-adv-x="574" d="M53 486 L197 486 L197 420 L199 420 Q206 434 219 448 Q232 462 250 473 Q268 484 291 491 Q314 498 341 498 Q398 498 433 480.5 Q468 463 487.5 432 Q507 401 514 359 Q521 317 521 268 L521 0 L371 0 L371 238 Q371 259 369.5 281.5 Q368 304 360.5 323 Q353 342 337.5 354 Q322 366 293 366 Q264 366 246 355.5 Q228 345 218.5 327.5 Q209 310 206 288 Q203 266 203 242 L203 0 L53 0 L53 486 Z M91 570 Q95 595 105 620 Q115 645 130.5 664.5 Q146 684 168 696 Q190 708 218 708 Q243 708 263 702 Q283 696 305 687 Q319 682 332.5 677 Q346 672 361 672 Q378 672 388 682.5 Q398 693 405 708 L483 708 Q478 679 469 654 Q460 629 444.5 610.5 Q429 592 406.5 581 Q384 570 353 570 Q331 570 311.5 576.5 Q292 583 275 591 Q258 599 242.5 605.5 Q227 612 212 612 Q195 612 185 598 Q175 584 170 570 L91 570 Z " />
<glyph glyph-name="ograve" unicode="&#xf2;" horiz-adv-x="610" d="M35 243 Q35 301 56 348 Q77 395 113.5 428.5 Q150 462 199.5 480 Q249 498 305 498 Q361 498 410.5 480 Q460 462 496.5 428.5 Q533 395 554 348 Q575 301 575 243 Q575 185 554 138 Q533 91 496.5 57.5 Q460 24 410.5 6 Q361 -12 305 -12 Q249 -12 199.5 6 Q150 24 113.5 57.5 Q77 91 56 138 Q35 185 35 243 Z M185 243 Q185 188 216.5 154 Q248 120 305 120 Q362 120 393.5 154 Q425 188 425 243 Q425 298 393.5 332 Q362 366 305 366 Q248 366 216.5 332 Q185 298 185 243 Z M407 564 L275 564 L102 708 L306 708 L407 564 Z " />
<glyph glyph-name="oacute" unicode="&#xf3;" horiz-adv-x="610" d="M35 243 Q35 301 56 348 Q77 395 113.5 428.5 Q150 462 199.5 480 Q249 498 305 498 Q361 498 410.5 480 Q460 462 496.5 428.5 Q533 395 554 348 Q575 301 575 243 Q575 185 554 138 Q533 91 496.5 57.5 Q460 24 410.5 6 Q361 -12 305 -12 Q249 -12 199.5 6 Q150 24 113.5 57.5 Q77 91 56 138 Q35 185 35 243 Z M185 243 Q185 188 216.5 154 Q248 120 305 120 Q362 120 393.5 154 Q425 188 425 243 Q425 298 393.5 332 Q362 366 305 366 Q248 366 216.5 332 Q185 298 185 243 Z M306 708 L510 708 L337 564 L205 564 L306 708 Z " />
<glyph glyph-name="ocircumflex" unicode="&#xf4;" horiz-adv-x="610" d="M35 243 Q35 301 56 348 Q77 395 113.5 428.5 Q150 462 199.5 480 Q249 498 305 498 Q361 498 410.5 480 Q460 462 496.5 428.5 Q533 395 554 348 Q575 301 575 243 Q575 185 554 138 Q533 91 496.5 57.5 Q460 24 410.5 6 Q361 -12 305 -12 Q249 -12 199.5 6 Q150 24 113.5 57.5 Q77 91 56 138 Q35 185 35 243 Z M185 243 Q185 188 216.5 154 Q248 120 305 120 Q362 120 393.5 154 Q425 188 425 243 Q425 298 393.5 332 Q362 366 305 366 Q248 366 216.5 332 Q185 298 185 243 Z M366 564 L303 642 L241 564 L106 564 L225 708 L388 708 L504 564 L366 564 Z " />
<glyph glyph-name="otilde" unicode="&#xf5;" horiz-adv-x="610" d="M35 243 Q35 301 56 348 Q77 395 113.5 428.5 Q150 462 199.5 480 Q249 498 305 498 Q361 498 410.5 480 Q460 462 496.5 428.5 Q533 395 554 348 Q575 301 575 243 Q575 185 554 138 Q533 91 496.5 57.5 Q460 24 410.5 6 Q361 -12 305 -12 Q249 -12 199.5 6 Q150 24 113.5 57.5 Q77 91 56 138 Q35 185 35 243 Z M185 243 Q185 188 216.5 154 Q248 120 305 120 Q362 120 393.5 154 Q425 188 425 243 Q425 298 393.5 332 Q362 366 305 366 Q248 366 216.5 332 Q185 298 185 243 Z M109 570 Q113 595 123 620 Q133 645 148.5 664.5 Q164 684 186 696 Q208 708 236 708 Q261 708 281 702 Q301 696 323 687 Q337 682 350.5 677 Q364 672 379 672 Q396 672 406 682.5 Q416 693 423 708 L501 708 Q496 679 487 654 Q478 629 462.5 610.5 Q447 592 424.5 581 Q402 570 371 570 Q349 570 329.5 576.5 Q310 583 293 591 Q276 599 260.5 605.5 Q245 612 230 612 Q213 612 203 598 Q193 584 188 570 L109 570 Z " />
<glyph glyph-name="odieresis" unicode="&#xf6;" horiz-adv-x="610" d="M35 243 Q35 301 56 348 Q77 395 113.5 428.5 Q150 462 199.5 480 Q249 498 305 498 Q361 498 410.5 480 Q460 462 496.5 428.5 Q533 395 554 348 Q575 301 575 243 Q575 185 554 138 Q533 91 496.5 57.5 Q460 24 410.5 6 Q361 -12 305 -12 Q249 -12 199.5 6 Q150 24 113.5 57.5 Q77 91 56 138 Q35 185 35 243 Z M185 243 Q185 188 216.5 154 Q248 120 305 120 Q362 120 393.5 154 Q425 188 425 243 Q425 298 393.5 332 Q362 366 305 366 Q248 366 216.5 332 Q185 298 185 243 Z M200 558 Q182 558 167 565 Q152 572 141 584 Q130 596 123.5 611.5 Q117 627 117 644 Q117 660 123.5 675 Q130 690 141 701 Q152 712 166.5 719 Q181 726 198 726 Q233 726 259 703 Q285 680 285 644 Q285 608 261 583 Q237 558 200 558 Z M408 558 Q390 558 375 565 Q360 572 349 584 Q338 596 331.5 611.5 Q325 627 325 644 Q325 660 331.5 675 Q338 690 349 701 Q360 712 374.5 719 Q389 726 406 726 Q441 726 467 703 Q493 680 493 644 Q493 608 469 583 Q445 558 408 558 Z " />
<glyph glyph-name="divide" unicode="&#xf7;" horiz-adv-x="666" d="M59 366 L607 366 L607 240 L59 240 L59 366 Z M247 114 Q247 132 254 147.5 Q261 163 272.5 174.5 Q284 186 299.5 193 Q315 200 333 200 Q351 200 366.5 193 Q382 186 393.5 174.5 Q405 163 412 147.5 Q419 132 419 114 Q419 96 412 80.5 Q405 65 393.5 53.5 Q382 42 366.5 35 Q351 28 333 28 Q315 28 299.5 35 Q284 42 272.5 53.5 Q261 65 254 80.5 Q247 96 247 114 Z M247 492 Q247 510 254 525.5 Q261 541 272.5 552.5 Q284 564 299.5 571 Q315 578 333 578 Q351 578 366.5 571 Q382 564 393.5 552.5 Q405 541 412 525.5 Q419 510 419 492 Q419 474 412 458.5 Q405 443 393.5 431.5 Q382 420 366.5 413 Q351 406 333 406 Q315 406 299.5 413 Q284 420 272.5 431.5 Q261 443 254 458.5 Q247 474 247 492 Z " />
<glyph glyph-name="oslash" unicode="&#xf8;" horiz-adv-x="610" d="M96 76 Q67 108 51 150 Q35 192 35 243 Q35 301 56 348 Q77 395 113.5 428.5 Q150 462 199.5 480 Q249 498 305 498 Q353 498 394.5 485 Q436 472 470 449 L537 516 L584 471 L518 405 Q545 373 560 332 Q575 291 575 243 Q575 185 554 138 Q533 91 496.5 57.5 Q460 24 410.5 6 Q361 -12 305 -12 Q215 -12 146 34 L73 -39 L26 6 L96 76 Z M370 350 Q343 366 305 366 Q248 366 216.5 332 Q185 298 185 243 Q185 207 200 180 L370 350 Z M246 134 Q272 120 305 120 Q362 120 393.5 154 Q425 188 425 243 Q425 274 413 300 L246 134 Z " />
<glyph glyph-name="ugrave" unicode="&#xf9;" horiz-adv-x="574" d="M521 0 L377 0 L377 66 L375 66 Q367 52 354.5 38 Q342 24 324 13 Q306 2 283 -5 Q260 -12 233 -12 Q176 -12 140.5 5.5 Q105 23 85.5 54 Q66 85 59.5 127 Q53 169 53 218 L53 486 L203 486 L203 248 Q203 227 204.5 204.5 Q206 182 213.5 163 Q221 144 236.5 132 Q252 120 281 120 Q310 120 328 130.5 Q346 141 355.5 158.5 Q365 176 368 198 Q371 220 371 244 L371 486 L521 486 L521 0 Z M389 564 L257 564 L84 708 L288 708 L389 564 Z " />
<glyph glyph-name="uacute" unicode="&#xfa;" horiz-adv-x="574" d="M521 0 L377 0 L377 66 L375 66 Q367 52 354.5 38 Q342 24 324 13 Q306 2 283 -5 Q260 -12 233 -12 Q176 -12 140.5 5.5 Q105 23 85.5 54 Q66 85 59.5 127 Q53 169 53 218 L53 486 L203 486 L203 248 Q203 227 204.5 204.5 Q206 182 213.5 163 Q221 144 236.5 132 Q252 120 281 120 Q310 120 328 130.5 Q346 141 355.5 158.5 Q365 176 368 198 Q371 220 371 244 L371 486 L521 486 L521 0 Z M288 708 L492 708 L319 564 L187 564 L288 708 Z " />
<glyph glyph-name="ucircumflex" unicode="&#xfb;" horiz-adv-x="574" d="M521 0 L377 0 L377 66 L375 66 Q367 52 354.5 38 Q342 24 324 13 Q306 2 283 -5 Q260 -12 233 -12 Q176 -12 140.5 5.5 Q105 23 85.5 54 Q66 85 59.5 127 Q53 169 53 218 L53 486 L203 486 L203 248 Q203 227 204.5 204.5 Q206 182 213.5 163 Q221 144 236.5 132 Q252 120 281 120 Q310 120 328 130.5 Q346 141 355.5 158.5 Q365 176 368 198 Q371 220 371 244 L371 486 L521 486 L521 0 Z M348 564 L285 642 L223 564 L88 564 L207 708 L370 708 L486 564 L348 564 Z " />
<glyph glyph-name="udieresis" unicode="&#xfc;" horiz-adv-x="574" d="M521 0 L377 0 L377 66 L375 66 Q367 52 354.5 38 Q342 24 324 13 Q306 2 283 -5 Q260 -12 233 -12 Q176 -12 140.5 5.5 Q105 23 85.5 54 Q66 85 59.5 127 Q53 169 53 218 L53 486 L203 486 L203 248 Q203 227 204.5 204.5 Q206 182 213.5 163 Q221 144 236.5 132 Q252 120 281 120 Q310 120 328 130.5 Q346 141 355.5 158.5 Q365 176 368 198 Q371 220 371 244 L371 486 L521 486 L521 0 Z M182 558 Q164 558 149 565 Q134 572 123 584 Q112 596 105.5 611.5 Q99 627 99 644 Q99 660 105.5 675 Q112 690 123 701 Q134 712 148.5 719 Q163 726 180 726 Q215 726 241 703 Q267 680 267 644 Q267 608 243 583 Q219 558 182 558 Z M390 558 Q372 558 357 565 Q342 572 331 584 Q320 596 313.5 611.5 Q307 627 307 644 Q307 660 313.5 675 Q320 690 331 701 Q342 712 356.5 719 Q371 726 388 726 Q423 726 449 703 Q475 680 475 644 Q475 608 451 583 Q427 558 390 558 Z " />
<glyph glyph-name="yacute" unicode="&#xfd;" horiz-adv-x="556" d="M333 -79 Q318 -118 304 -148 Q290 -178 268.5 -198.5 Q247 -219 214 -229.5 Q181 -240 127 -240 Q69 -240 15 -222 L35 -99 Q69 -114 105 -114 Q130 -114 146 -108.5 Q162 -103 172.5 -92.5 Q183 -82 190 -67 Q197 -52 205 -32 L216 -4 L3 486 L165 486 L290 165 L292 165 L399 486 L553 486 L333 -79 Z M279 708 L483 708 L310 564 L178 564 L279 708 Z " />
<glyph glyph-name="thorn" unicode="&#xfe;" horiz-adv-x="630" d="M67 756 L217 756 L217 434 L219 434 Q228 449 242.5 460.5 Q257 472 275.5 480.5 Q294 489 314.5 493.5 Q335 498 356 498 Q410 498 454 479.5 Q498 461 529.5 427.5 Q561 394 578 348 Q595 302 595 247 Q595 196 579.5 149.5 Q564 103 535.5 67 Q507 31 466 9.5 Q425 -12 373 -12 Q326 -12 285.5 2.5 Q245 17 219 52 L217 52 L217 -228 L67 -228 L67 756 Z M205 243 Q205 188 236.5 154 Q268 120 325 120 Q382 120 413.5 154 Q445 188 445 243 Q445 298 413.5 332 Q382 366 325 366 Q268 366 236.5 332 Q205 298 205 243 Z " />
<glyph glyph-name="ydieresis" unicode="&#xff;" horiz-adv-x="556" d="M333 -79 Q318 -118 304 -148 Q290 -178 268.5 -198.5 Q247 -219 214 -229.5 Q181 -240 127 -240 Q69 -240 15 -222 L35 -99 Q69 -114 105 -114 Q130 -114 146 -108.5 Q162 -103 172.5 -92.5 Q183 -82 190 -67 Q197 -52 205 -32 L216 -4 L3 486 L165 486 L290 165 L292 165 L399 486 L553 486 L333 -79 Z M173 558 Q155 558 140 565 Q125 572 114 584 Q103 596 96.5 611.5 Q90 627 90 644 Q90 660 96.5 675 Q103 690 114 701 Q125 712 139.5 719 Q154 726 171 726 Q206 726 232 703 Q258 680 258 644 Q258 608 234 583 Q210 558 173 558 Z M381 558 Q363 558 348 565 Q333 572 322 584 Q311 596 304.5 611.5 Q298 627 298 644 Q298 660 304.5 675 Q311 690 322 701 Q333 712 347.5 719 Q362 726 379 726 Q414 726 440 703 Q466 680 466 644 Q466 608 442 583 Q418 558 381 558 Z " />
<glyph glyph-name="Amacron" unicode="&#x100;" horiz-adv-x="741" d="M305 708 L434 708 L742 0 L566 0 L505 150 L230 150 L171 0 L-1 0 L305 708 Z M365 502 L279 282 L452 282 L365 502 Z M535 787 L195 787 L195 883 L535 883 L535 787 Z " />
<glyph glyph-name="amacron" unicode="&#x101;" horiz-adv-x="537" d="M358 61 L356 61 Q331 22 289.5 5 Q248 -12 202 -12 Q168 -12 136.5 -2.5 Q105 7 81 26 Q57 45 43 73 Q29 101 29 138 Q29 180 44.5 209 Q60 238 86.5 257 Q113 276 147 286.5 Q181 297 217.5 302 Q254 307 290.5 308 Q327 309 358 309 Q358 349 329.5 372.5 Q301 396 262 396 Q225 396 194.5 380.5 Q164 365 140 338 L60 420 Q102 459 158 478.5 Q214 498 274 498 Q340 498 382.5 481.5 Q425 465 450.5 433 Q476 401 486 354.5 Q496 308 496 247 L496 0 L358 0 L358 61 Z M321 213 Q304 213 278.5 211.5 Q253 210 229.5 203 Q206 196 189.5 182 Q173 168 173 143 Q173 116 196 103 Q219 90 244 90 Q266 90 286.5 96 Q307 102 323 113 Q339 124 348.5 141 Q358 158 358 181 L358 213 L321 213 Z M455 591 L115 591 L115 687 L455 687 L455 591 Z " />
<glyph glyph-name="Abreve" unicode="&#x102;" horiz-adv-x="741" d="M305 708 L434 708 L742 0 L566 0 L505 150 L230 150 L171 0 L-1 0 L305 708 Z M365 502 L279 282 L452 282 L365 502 Z M261 904 Q264 889 274.5 880 Q285 871 299.5 865.5 Q314 860 331 858 Q348 856 365 856 Q404 856 431.5 863.5 Q459 871 470 904 L549 904 Q545 866 529 838.5 Q513 811 488.5 793.5 Q464 776 432.5 768 Q401 760 365 760 Q330 760 297.5 767.5 Q265 775 239.5 792.5 Q214 810 198.5 837.5 Q183 865 181 904 L261 904 Z " />
<glyph glyph-name="abreve" unicode="&#x103;" horiz-adv-x="537" d="M358 61 L356 61 Q331 22 289.5 5 Q248 -12 202 -12 Q168 -12 136.5 -2.5 Q105 7 81 26 Q57 45 43 73 Q29 101 29 138 Q29 180 44.5 209 Q60 238 86.5 257 Q113 276 147 286.5 Q181 297 217.5 302 Q254 307 290.5 308 Q327 309 358 309 Q358 349 329.5 372.5 Q301 396 262 396 Q225 396 194.5 380.5 Q164 365 140 338 L60 420 Q102 459 158 478.5 Q214 498 274 498 Q340 498 382.5 481.5 Q425 465 450.5 433 Q476 401 486 354.5 Q496 308 496 247 L496 0 L358 0 L358 61 Z M321 213 Q304 213 278.5 211.5 Q253 210 229.5 203 Q206 196 189.5 182 Q173 168 173 143 Q173 116 196 103 Q219 90 244 90 Q266 90 286.5 96 Q307 102 323 113 Q339 124 348.5 141 Q358 158 358 181 L358 213 L321 213 Z M181 708 Q184 693 194.5 684 Q205 675 219.5 669.5 Q234 664 251 662 Q268 660 285 660 Q324 660 351.5 667.5 Q379 675 390 708 L469 708 Q465 670 449 642.5 Q433 615 408.5 597.5 Q384 580 352.5 572 Q321 564 285 564 Q249 564 217 571.5 Q185 579 160 596.5 Q135 614 119 641.5 Q103 669 101 708 L181 708 Z " />
<glyph glyph-name="Aogonek" unicode="&#x104;" horiz-adv-x="741" d="M689 -198 Q664 -217 638 -228.5 Q612 -240 580 -240 Q538 -240 506.5 -216 Q475 -192 475 -147 Q475 -128 483.5 -107.5 Q492 -87 505 -67.5 Q518 -48 534 -30.5 Q550 -13 566 0 L505 150 L230 150 L171 0 L-1 0 L305 708 L434 708 L742 0 L635 0 Q623 -12 610.5 -27 Q598 -42 588 -58 Q578 -74 571.5 -90.5 Q565 -107 565 -122 Q565 -139 577 -153.5 Q589 -168 607 -168 Q621 -168 635.5 -161 Q650 -154 661 -145 L689 -198 Z M365 502 L279 282 L452 282 L365 502 Z " />
<glyph glyph-name="aogonek" unicode="&#x105;" horiz-adv-x="537" d="M358 61 L356 61 Q331 22 289.5 5 Q248 -12 202 -12 Q167 -12 136 -2.5 Q105 7 81 26 Q57 45 43 73 Q29 101 29 138 Q29 180 45 209 Q61 238 87 257 Q113 276 147 286.5 Q181 297 217.5 302 Q254 307 290.5 308 Q327 309 358 309 Q358 349 329.5 372.5 Q301 396 262 396 Q225 396 194.5 380.5 Q164 365 140 338 L60 420 Q102 459 158 478.5 Q214 498 274 498 Q340 498 382.5 481.5 Q425 465 450.5 433 Q476 401 486 354.5 Q496 308 496 247 L496 0 L428 0 Q416 -12 403.5 -27 Q391 -42 381 -58 Q371 -74 364.5 -90.5 Q358 -107 358 -122 Q358 -139 370 -153.5 Q382 -168 400 -168 Q414 -168 428.5 -161 Q443 -154 454 -145 L482 -198 Q457 -217 431 -228.5 Q405 -240 373 -240 Q331 -240 299.5 -216 Q268 -192 268 -147 Q268 -128 276.5 -107.5 Q285 -87 298 -68 Q311 -49 327 -31.5 Q343 -14 358 0 L358 61 Z M321 213 Q304 213 278.5 211.5 Q253 210 229.5 203 Q206 196 189.5 182 Q173 168 173 143 Q173 116 196 103 Q219 90 244 90 Q266 90 286.5 96 Q307 102 323 113 Q339 124 348.5 141 Q358 158 358 181 L358 213 L321 213 Z " />
<glyph glyph-name="Cacute" unicode="&#x106;" horiz-adv-x="685" d="M535 524 Q512 552 478.5 567 Q445 582 401 582 Q357 582 319.5 565 Q282 548 254.5 517.5 Q227 487 211.5 445 Q196 403 196 354 Q196 304 211.5 262.5 Q227 221 254 190.5 Q281 160 317.5 143 Q354 126 396 126 Q444 126 481 146 Q518 166 542 202 L672 105 Q627 42 558 12 Q489 -18 416 -18 Q333 -18 263 8 Q193 34 142 82.5 Q91 131 62.5 200 Q34 269 34 354 Q34 439 62.5 508 Q91 577 142 625.5 Q193 674 263 700 Q333 726 416 726 Q446 726 478.5 720.5 Q511 715 542.5 703 Q574 691 603 671 Q632 651 655 622 L535 524 Z M393 904 L597 904 L424 760 L292 760 L393 904 Z " />
<glyph glyph-name="cacute" unicode="&#x107;" horiz-adv-x="482" d="M382 329 Q371 345 351 355.5 Q331 366 308 366 Q251 366 219.5 332 Q188 298 188 243 Q188 188 219.5 154 Q251 120 308 120 Q333 120 351 131 Q369 142 382 157 L481 53 Q446 17 398.5 2.5 Q351 -12 308 -12 Q252 -12 202.5 6 Q153 24 116.5 57.5 Q80 91 59 138 Q38 185 38 243 Q38 301 59 348 Q80 395 116.5 428.5 Q153 462 202.5 480 Q252 498 308 498 Q351 498 398.5 483.5 Q446 469 481 433 L382 329 Z M296 708 L500 708 L327 564 L195 564 L296 708 Z " />
<glyph glyph-name="Ccircumflex" unicode="&#x108;" horiz-adv-x="685" d="M535 524 Q512 552 478.5 567 Q445 582 401 582 Q357 582 319.5 565 Q282 548 254.5 517.5 Q227 487 211.5 445 Q196 403 196 354 Q196 304 211.5 262.5 Q227 221 254 190.5 Q281 160 317.5 143 Q354 126 396 126 Q444 126 481 146 Q518 166 542 202 L672 105 Q627 42 558 12 Q489 -18 416 -18 Q333 -18 263 8 Q193 34 142 82.5 Q91 131 62.5 200 Q34 269 34 354 Q34 439 62.5 508 Q91 577 142 625.5 Q193 674 263 700 Q333 726 416 726 Q446 726 478.5 720.5 Q511 715 542.5 703 Q574 691 603 671 Q632 651 655 622 L535 524 Z M461 760 L398 838 L336 760 L201 760 L320 904 L483 904 L599 760 L461 760 Z " />
<glyph glyph-name="ccircumflex" unicode="&#x109;" horiz-adv-x="482" d="M382 329 Q371 345 351 355.5 Q331 366 308 366 Q251 366 219.5 332 Q188 298 188 243 Q188 188 219.5 154 Q251 120 308 120 Q333 120 351 131 Q369 142 382 157 L481 53 Q446 17 398.5 2.5 Q351 -12 308 -12 Q252 -12 202.5 6 Q153 24 116.5 57.5 Q80 91 59 138 Q38 185 38 243 Q38 301 59 348 Q80 395 116.5 428.5 Q153 462 202.5 480 Q252 498 308 498 Q351 498 398.5 483.5 Q446 469 481 433 L382 329 Z M352 564 L289 642 L227 564 L92 564 L211 708 L374 708 L490 564 L352 564 Z " />
<glyph glyph-name="Cdotaccent" unicode="&#x10a;" horiz-adv-x="685" d="M535 524 Q512 552 478.5 567 Q445 582 401 582 Q357 582 319.5 565 Q282 548 254.5 517.5 Q227 487 211.5 445 Q196 403 196 354 Q196 304 211.5 262.5 Q227 221 254 190.5 Q281 160 317.5 143 Q354 126 396 126 Q444 126 481 146 Q518 166 542 202 L672 105 Q627 42 558 12 Q489 -18 416 -18 Q333 -18 263 8 Q193 34 142 82.5 Q91 131 62.5 200 Q34 269 34 354 Q34 439 62.5 508 Q91 577 142 625.5 Q193 674 263 700 Q333 726 416 726 Q446 726 478.5 720.5 Q511 715 542.5 703 Q574 691 603 671 Q632 651 655 622 L535 524 Z M399 754 Q381 754 366 761 Q351 768 340 780 Q329 792 322.5 807.5 Q316 823 316 840 Q316 856 322.5 871 Q329 886 340 897 Q351 908 365.5 915 Q380 922 397 922 Q432 922 458 899 Q484 876 484 840 Q484 804 460 779 Q436 754 399 754 Z " />
<glyph glyph-name="cdotaccent" unicode="&#x10b;" horiz-adv-x="482" d="M382 329 Q371 345 351 355.5 Q331 366 308 366 Q251 366 219.5 332 Q188 298 188 243 Q188 188 219.5 154 Q251 120 308 120 Q333 120 351 131 Q369 142 382 157 L481 53 Q446 17 398.5 2.5 Q351 -12 308 -12 Q252 -12 202.5 6 Q153 24 116.5 57.5 Q80 91 59 138 Q38 185 38 243 Q38 301 59 348 Q80 395 116.5 428.5 Q153 462 202.5 480 Q252 498 308 498 Q351 498 398.5 483.5 Q446 469 481 433 L382 329 Z M290 558 Q272 558 257 565 Q242 572 231 584 Q220 596 213.5 611.5 Q207 627 207 644 Q207 660 213.5 675 Q220 690 231 701 Q242 712 256.5 719 Q271 726 288 726 Q323 726 349 703 Q375 680 375 644 Q375 608 351 583 Q327 558 290 558 Z " />
<glyph glyph-name="Ccaron" unicode="&#x10c;" horiz-adv-x="685" d="M535 524 Q512 552 478.5 567 Q445 582 401 582 Q357 582 319.5 565 Q282 548 254.5 517.5 Q227 487 211.5 445 Q196 403 196 354 Q196 304 211.5 262.5 Q227 221 254 190.5 Q281 160 317.5 143 Q354 126 396 126 Q444 126 481 146 Q518 166 542 202 L672 105 Q627 42 558 12 Q489 -18 416 -18 Q333 -18 263 8 Q193 34 142 82.5 Q91 131 62.5 200 Q34 269 34 354 Q34 439 62.5 508 Q91 577 142 625.5 Q193 674 263 700 Q333 726 416 726 Q446 726 478.5 720.5 Q511 715 542.5 703 Q574 691 603 671 Q632 651 655 622 L535 524 Z M335 931 L398 853 L460 931 L595 931 L476 787 L313 787 L197 931 L335 931 Z " />
<glyph glyph-name="ccaron" unicode="&#x10d;" horiz-adv-x="482" d="M382 329 Q371 345 351 355.5 Q331 366 308 366 Q251 366 219.5 332 Q188 298 188 243 Q188 188 219.5 154 Q251 120 308 120 Q333 120 351 131 Q369 142 382 157 L481 53 Q446 17 398.5 2.5 Q351 -12 308 -12 Q252 -12 202.5 6 Q153 24 116.5 57.5 Q80 91 59 138 Q38 185 38 243 Q38 301 59 348 Q80 395 116.5 428.5 Q153 462 202.5 480 Q252 498 308 498 Q351 498 398.5 483.5 Q446 469 481 433 L382 329 Z M226 708 L289 630 L351 708 L486 708 L367 564 L204 564 L88 708 L226 708 Z " />
<glyph glyph-name="Dcaron" unicode="&#x10e;" horiz-adv-x="759" d="M72 708 L306 708 Q391 708 467.5 689 Q544 670 601 627.5 Q658 585 691.5 517 Q725 449 725 352 Q725 266 692.5 200.5 Q660 135 605 90.5 Q550 46 478 23 Q406 0 327 0 L72 0 L72 708 Z M228 144 L309 144 Q363 144 409.5 155 Q456 166 490 191.5 Q524 217 543.5 258.5 Q563 300 563 360 Q563 412 543.5 450.5 Q524 489 491 514 Q458 539 413.5 551.5 Q369 564 320 564 L228 564 L228 144 Z M277 931 L340 853 L402 931 L537 931 L418 787 L255 787 L139 931 L277 931 Z " />
<glyph glyph-name="dcaron" unicode="&#x10f;" horiz-adv-x="630" d="M563 0 L425 0 L425 64 L423 64 Q414 51 399.5 37.5 Q385 24 365.5 13 Q346 2 322.5 -5 Q299 -12 274 -12 Q220 -12 176 6.5 Q132 25 100.5 58.5 Q69 92 52 138 Q35 184 35 239 Q35 290 50.5 336.5 Q66 383 94.5 419 Q123 455 164 476.5 Q205 498 257 498 Q304 498 344.5 483.5 Q385 469 411 434 L413 434 L413 756 L563 756 L563 0 Z M425 243 Q425 298 393.5 332 Q362 366 305 366 Q248 366 216.5 332 Q185 298 185 243 Q185 188 216.5 154 Q248 120 305 120 Q362 120 393.5 154 Q425 188 425 243 Z M657 708 L791 708 L711 509 L613 509 L657 708 Z " />
<glyph glyph-name="Dcroat" unicode="&#x110;" horiz-adv-x="759" d="M228 420 L426 420 L426 318 L228 318 L228 144 L309 144 Q363 144 409.5 155 Q456 166 490 191.5 Q524 217 543.5 258.5 Q563 300 563 360 Q563 412 543.5 450.5 Q524 489 491 514 Q458 539 413.5 551.5 Q369 564 320 564 L228 564 L228 420 Z M72 318 L12 318 L12 420 L72 420 L72 708 L306 708 Q391 708 467.5 689 Q544 670 601 627.5 Q658 585 691.5 517 Q725 449 725 352 Q725 266 692.5 200.5 Q660 135 605 90.5 Q550 46 478 23 Q406 0 327 0 L72 0 L72 318 Z " />
<glyph glyph-name="dslash" unicode="&#x111;" horiz-adv-x="630" d="M619 561 L563 561 L563 0 L425 0 L425 64 L423 64 Q414 51 399 37.5 Q384 24 365 13 Q346 2 322.5 -5 Q299 -12 274 -12 Q220 -12 176 6.5 Q132 25 100.5 58.5 Q69 92 52 138 Q35 184 35 239 Q35 290 50.5 336.5 Q66 383 94.5 419 Q123 455 164 476.5 Q205 498 257 498 Q305 498 345 483.5 Q385 469 411 434 L413 434 L413 561 L279 561 L279 657 L413 657 L413 756 L563 756 L563 657 L619 657 L619 561 Z M425 243 Q425 298 393.5 332 Q362 366 305 366 Q248 366 216.5 332 Q185 298 185 243 Q185 188 216.5 154 Q248 120 305 120 Q362 120 393.5 154 Q425 188 425 243 Z " />
<glyph glyph-name="Emacron" unicode="&#x112;" horiz-adv-x="630" d="M78 708 L559 708 L559 564 L234 564 L234 432 L541 432 L541 288 L234 288 L234 144 L577 144 L577 0 L78 0 L78 708 Z M494 787 L154 787 L154 883 L494 883 L494 787 Z " />
<glyph glyph-name="emacron" unicode="&#x113;" horiz-adv-x="574" d="M513 84 Q477 38 422 13 Q367 -12 308 -12 Q252 -12 202.5 6 Q153 24 116.5 57.5 Q80 91 59 138 Q38 185 38 243 Q38 301 59 348 Q80 395 116.5 428.5 Q153 462 202.5 480 Q252 498 308 498 Q360 498 402.5 480 Q445 462 474.5 428.5 Q504 395 520 348 Q536 301 536 243 L536 196 L188 196 Q197 153 227 127.5 Q257 102 301 102 Q338 102 363.5 118.5 Q389 135 408 161 L513 84 Z M386 298 Q387 336 361 363 Q335 390 294 390 Q269 390 250 382 Q231 374 217.5 361.5 Q204 349 196.5 332.5 Q189 316 188 298 L386 298 Z M466 591 L126 591 L126 687 L466 687 L466 591 Z " />
<glyph glyph-name="Ebreve" unicode="&#x114;" horiz-adv-x="630" d="M78 708 L559 708 L559 564 L234 564 L234 432 L541 432 L541 288 L234 288 L234 144 L577 144 L577 0 L78 0 L78 708 Z M220 904 Q223 889 233.5 880 Q244 871 258.5 865.5 Q273 860 290 858 Q307 856 324 856 Q363 856 390.5 863.5 Q418 871 429 904 L508 904 Q504 866 488 838.5 Q472 811 447.5 793.5 Q423 776 391.5 768 Q360 760 324 760 Q289 760 256.5 767.5 Q224 775 198.5 792.5 Q173 810 157.5 837.5 Q142 865 140 904 L220 904 Z " />
<glyph glyph-name="ebreve" unicode="&#x115;" horiz-adv-x="574" d="M513 84 Q477 38 422 13 Q367 -12 308 -12 Q252 -12 202.5 6 Q153 24 116.5 57.5 Q80 91 59 138 Q38 185 38 243 Q38 301 59 348 Q80 395 116.5 428.5 Q153 462 202.5 480 Q252 498 308 498 Q360 498 402.5 480 Q445 462 474.5 428.5 Q504 395 520 348 Q536 301 536 243 L536 196 L188 196 Q197 153 227 127.5 Q257 102 301 102 Q338 102 363.5 118.5 Q389 135 408 161 L513 84 Z M386 298 Q387 336 361 363 Q335 390 294 390 Q269 390 250 382 Q231 374 217.5 361.5 Q204 349 196.5 332.5 Q189 316 188 298 L386 298 Z M192 708 Q195 693 205.5 684 Q216 675 230.5 669.5 Q245 664 262 662 Q279 660 296 660 Q335 660 362.5 667.5 Q390 675 401 708 L480 708 Q476 670 460 642.5 Q444 615 419.5 597.5 Q395 580 363.5 572 Q332 564 296 564 Q260 564 228 571.5 Q196 579 171 596.5 Q146 614 130 641.5 Q114 669 112 708 L192 708 Z " />
<glyph glyph-name="Edotaccent" unicode="&#x116;" horiz-adv-x="630" d="M78 708 L559 708 L559 564 L234 564 L234 432 L541 432 L541 288 L234 288 L234 144 L577 144 L577 0 L78 0 L78 708 Z M331 754 Q313 754 298 761 Q283 768 272 780 Q261 792 254.5 807.5 Q248 823 248 840 Q248 856 254.5 871 Q261 886 272 897 Q283 908 297.5 915 Q312 922 329 922 Q364 922 390 899 Q416 876 416 840 Q416 804 392 779 Q368 754 331 754 Z " />
<glyph glyph-name="edotaccent" unicode="&#x117;" horiz-adv-x="574" d="M513 84 Q477 38 422 13 Q367 -12 308 -12 Q252 -12 202.5 6 Q153 24 116.5 57.5 Q80 91 59 138 Q38 185 38 243 Q38 301 59 348 Q80 395 116.5 428.5 Q153 462 202.5 480 Q252 498 308 498 Q360 498 402.5 480 Q445 462 474.5 428.5 Q504 395 520 348 Q536 301 536 243 L536 196 L188 196 Q197 153 227 127.5 Q257 102 301 102 Q338 102 363.5 118.5 Q389 135 408 161 L513 84 Z M386 298 Q387 336 361 363 Q335 390 294 390 Q269 390 250 382 Q231 374 217.5 361.5 Q204 349 196.5 332.5 Q189 316 188 298 L386 298 Z M301 558 Q283 558 268 565 Q253 572 242 584 Q231 596 224.5 611.5 Q218 627 218 644 Q218 660 224.5 675 Q231 690 242 701 Q253 712 267.5 719 Q282 726 299 726 Q334 726 360 703 Q386 680 386 644 Q386 608 362 583 Q338 558 301 558 Z " />
<glyph glyph-name="Eogonek" unicode="&#x118;" horiz-adv-x="630" d="M78 708 L559 708 L559 564 L234 564 L234 432 L541 432 L541 288 L234 288 L234 144 L577 144 L577 0 L513 0 Q501 -12 488.5 -27 Q476 -42 466 -58 Q456 -74 449.5 -90.5 Q443 -107 443 -122 Q443 -139 455 -153.5 Q467 -168 485 -168 Q499 -168 513.5 -161 Q528 -154 539 -145 L567 -198 Q542 -217 516 -228.5 Q490 -240 458 -240 Q416 -240 384.5 -216 Q353 -192 353 -147 Q353 -128 361.5 -107.5 Q370 -87 383 -68 Q396 -49 412 -31.5 Q428 -14 443 0 L78 0 L78 708 Z " />
<glyph glyph-name="eogonek" unicode="&#x119;" horiz-adv-x="574" d="M421 -198 Q396 -217 370 -228.5 Q344 -240 312 -240 Q270 -240 238.5 -216 Q207 -192 207 -147 Q207 -129 213.5 -111 Q220 -93 231 -75.5 Q242 -58 256 -41.5 Q270 -25 284 -11 Q232 -7 187 12.5 Q142 32 109 65 Q76 98 57 143 Q38 188 38 243 Q38 301 59 348 Q80 395 116.5 428.5 Q153 462 202.5 480 Q252 498 308 498 Q360 498 402.5 480 Q445 462 474.5 428.5 Q504 395 520 348 Q536 301 536 243 L536 196 L188 196 Q197 153 226.5 127.5 Q256 102 301 102 Q338 102 363.5 118.5 Q389 135 408 161 L513 84 Q484 48 444.5 25 Q405 2 360 -7 Q348 -19 337 -33 Q326 -47 317 -62 Q308 -77 302.5 -92.5 Q297 -108 297 -122 Q297 -139 309 -153.5 Q321 -168 339 -168 Q353 -168 367.5 -161 Q382 -154 393 -145 L421 -198 Z M386 298 Q387 336 361 363 Q335 390 294 390 Q269 390 250 382 Q231 374 217.5 361.5 Q204 349 196.5 332.5 Q189 316 188 298 L386 298 Z " />
<glyph glyph-name="Ecaron" unicode="&#x11a;" horiz-adv-x="630" d="M78 708 L559 708 L559 564 L234 564 L234 432 L541 432 L541 288 L234 288 L234 144 L577 144 L577 0 L78 0 L78 708 Z M259 931 L322 853 L384 931 L519 931 L400 787 L237 787 L121 931 L259 931 Z " />
<glyph glyph-name="ecaron" unicode="&#x11b;" horiz-adv-x="574" d="M513 84 Q477 38 422 13 Q367 -12 308 -12 Q252 -12 202.5 6 Q153 24 116.5 57.5 Q80 91 59 138 Q38 185 38 243 Q38 301 59 348 Q80 395 116.5 428.5 Q153 462 202.5 480 Q252 498 308 498 Q360 498 402.5 480 Q445 462 474.5 428.5 Q504 395 520 348 Q536 301 536 243 L536 196 L188 196 Q197 153 227 127.5 Q257 102 301 102 Q338 102 363.5 118.5 Q389 135 408 161 L513 84 Z M386 298 Q387 336 361 363 Q335 390 294 390 Q269 390 250 382 Q231 374 217.5 361.5 Q204 349 196.5 332.5 Q189 316 188 298 L386 298 Z M231 708 L294 630 L356 708 L491 708 L372 564 L209 564 L93 708 L231 708 Z " />
<glyph glyph-name="Gcircumflex" unicode="&#x11c;" horiz-adv-x="778" d="M713 50 Q644 14 569 -2 Q494 -18 416 -18 Q333 -18 263 8 Q193 34 142 82.5 Q91 131 62.5 200 Q34 269 34 354 Q34 439 62.5 508 Q91 577 142 625.5 Q193 674 263 700 Q333 726 416 726 Q501 726 572.5 705.5 Q644 685 698 635 L588 515 Q556 548 516 565 Q476 582 416 582 Q366 582 325.5 565 Q285 548 256 517.5 Q227 487 211.5 445 Q196 403 196 354 Q196 304 211.5 262.5 Q227 221 256 190.5 Q285 160 325.5 143 Q366 126 416 126 Q467 126 504 137.5 Q541 149 563 161 L563 276 L436 276 L436 420 L713 420 L713 50 Z M473 760 L410 838 L348 760 L213 760 L332 904 L495 904 L611 760 L473 760 Z " />
<glyph glyph-name="gcircumflex" unicode="&#x11d;" horiz-adv-x="630" d="M563 41 Q563 -97 493.5 -168.5 Q424 -240 282 -240 Q217 -240 154 -225.5 Q91 -211 38 -169 L121 -45 Q156 -74 194.5 -91 Q233 -108 279 -108 Q348 -108 380.5 -74.5 Q413 -41 413 11 L413 58 L411 58 Q385 23 346.5 8.5 Q308 -6 274 -6 Q220 -6 176 12.5 Q132 31 100.5 64.5 Q69 98 52 144 Q35 190 35 245 Q35 293 50.5 339 Q66 385 94.5 420 Q123 455 164 476.5 Q205 498 257 498 Q289 498 315.5 491 Q342 484 363 473 Q384 462 399 448.5 Q414 435 423 422 L425 422 L425 486 L563 486 L563 41 Z M185 246 Q185 222 194 200.5 Q203 179 219.5 162.5 Q236 146 257.5 136 Q279 126 305 126 Q330 126 352 136 Q374 146 390.5 162.5 Q407 179 416 200.5 Q425 222 425 246 Q425 270 416 291.5 Q407 313 390.5 329.5 Q374 346 352 356 Q330 366 305 366 Q279 366 257.5 356 Q236 346 219.5 329.5 Q203 313 194 291.5 Q185 270 185 246 Z M372 564 L309 642 L247 564 L112 564 L231 708 L394 708 L510 564 L372 564 Z " />
<glyph glyph-name="Gbreve" unicode="&#x11e;" horiz-adv-x="778" d="M713 50 Q644 14 569 -2 Q494 -18 416 -18 Q333 -18 263 8 Q193 34 142 82.5 Q91 131 62.5 200 Q34 269 34 354 Q34 439 62.5 508 Q91 577 142 625.5 Q193 674 263 700 Q333 726 416 726 Q501 726 572.5 705.5 Q644 685 698 635 L588 515 Q556 548 516 565 Q476 582 416 582 Q366 582 325.5 565 Q285 548 256 517.5 Q227 487 211.5 445 Q196 403 196 354 Q196 304 211.5 262.5 Q227 221 256 190.5 Q285 160 325.5 143 Q366 126 416 126 Q467 126 504 137.5 Q541 149 563 161 L563 276 L436 276 L436 420 L713 420 L713 50 Z M308 904 Q311 889 321.5 880 Q332 871 346.5 865.5 Q361 860 378 858 Q395 856 412 856 Q451 856 478.5 863.5 Q506 871 517 904 L596 904 Q592 866 576 838.5 Q560 811 535.5 793.5 Q511 776 479.5 768 Q448 760 412 760 Q377 760 344.5 767.5 Q312 775 286.5 792.5 Q261 810 245.5 837.5 Q230 865 228 904 L308 904 Z " />
<glyph glyph-name="gbreve" unicode="&#x11f;" horiz-adv-x="630" d="M563 41 Q563 -97 493.5 -168.5 Q424 -240 282 -240 Q217 -240 154 -225.5 Q91 -211 38 -169 L121 -45 Q156 -74 194.5 -91 Q233 -108 279 -108 Q348 -108 380.5 -74.5 Q413 -41 413 11 L413 58 L411 58 Q385 23 346.5 8.5 Q308 -6 274 -6 Q220 -6 176 12.5 Q132 31 100.5 64.5 Q69 98 52 144 Q35 190 35 245 Q35 293 50.5 339 Q66 385 94.5 420 Q123 455 164 476.5 Q205 498 257 498 Q289 498 315.5 491 Q342 484 363 473 Q384 462 399 448.5 Q414 435 423 422 L425 422 L425 486 L563 486 L563 41 Z M185 246 Q185 222 194 200.5 Q203 179 219.5 162.5 Q236 146 257.5 136 Q279 126 305 126 Q330 126 352 136 Q374 146 390.5 162.5 Q407 179 416 200.5 Q425 222 425 246 Q425 270 416 291.5 Q407 313 390.5 329.5 Q374 346 352 356 Q330 366 305 366 Q279 366 257.5 356 Q236 346 219.5 329.5 Q203 313 194 291.5 Q185 270 185 246 Z M217 708 Q220 693 230.5 684 Q241 675 255.5 669.5 Q270 664 287 662 Q304 660 321 660 Q360 660 387.5 667.5 Q415 675 426 708 L505 708 Q501 670 485 642.5 Q469 615 444.5 597.5 Q420 580 388.5 572 Q357 564 321 564 Q285 564 253 571.5 Q221 579 196 596.5 Q171 614 155 641.5 Q139 669 137 708 L217 708 Z " />
<glyph glyph-name="Gdotaccent" unicode="&#x120;" horiz-adv-x="778" d="M713 50 Q644 14 569 -2 Q494 -18 416 -18 Q333 -18 263 8 Q193 34 142 82.5 Q91 131 62.5 200 Q34 269 34 354 Q34 439 62.5 508 Q91 577 142 625.5 Q193 674 263 700 Q333 726 416 726 Q501 726 572.5 705.5 Q644 685 698 635 L588 515 Q556 548 516 565 Q476 582 416 582 Q366 582 325.5 565 Q285 548 256 517.5 Q227 487 211.5 445 Q196 403 196 354 Q196 304 211.5 262.5 Q227 221 256 190.5 Q285 160 325.5 143 Q366 126 416 126 Q467 126 504 137.5 Q541 149 563 161 L563 276 L436 276 L436 420 L713 420 L713 50 Z M411 754 Q393 754 378 761 Q363 768 352 780 Q341 792 334.5 807.5 Q328 823 328 840 Q328 856 334.5 871 Q341 886 352 897 Q363 908 377.5 915 Q392 922 409 922 Q444 922 470 899 Q496 876 496 840 Q496 804 472 779 Q448 754 411 754 Z " />
<glyph glyph-name="gdotaccent" unicode="&#x121;" horiz-adv-x="630" d="M563 41 Q563 -97 493.5 -168.5 Q424 -240 282 -240 Q217 -240 154 -225.5 Q91 -211 38 -169 L121 -45 Q156 -74 194.5 -91 Q233 -108 279 -108 Q348 -108 380.5 -74.5 Q413 -41 413 11 L413 58 L411 58 Q385 23 346.5 8.5 Q308 -6 274 -6 Q220 -6 176 12.5 Q132 31 100.5 64.5 Q69 98 52 144 Q35 190 35 245 Q35 293 50.5 339 Q66 385 94.5 420 Q123 455 164 476.5 Q205 498 257 498 Q289 498 315.5 491 Q342 484 363 473 Q384 462 399 448.5 Q414 435 423 422 L425 422 L425 486 L563 486 L563 41 Z M185 246 Q185 222 194 200.5 Q203 179 219.5 162.5 Q236 146 257.5 136 Q279 126 305 126 Q330 126 352 136 Q374 146 390.5 162.5 Q407 179 416 200.5 Q425 222 425 246 Q425 270 416 291.5 Q407 313 390.5 329.5 Q374 346 352 356 Q330 366 305 366 Q279 366 257.5 356 Q236 346 219.5 329.5 Q203 313 194 291.5 Q185 270 185 246 Z M320 558 Q302 558 287 565 Q272 572 261 584 Q250 596 243.5 611.5 Q237 627 237 644 Q237 660 243.5 675 Q250 690 261 701 Q272 712 286.5 719 Q301 726 318 726 Q353 726 379 703 Q405 680 405 644 Q405 608 381 583 Q357 558 320 558 Z " />
<glyph glyph-name="Gcommaaccent" unicode="&#x122;" horiz-adv-x="778" d="M713 50 Q644 14 569 -2 Q494 -18 416 -18 Q333 -18 263 8 Q193 34 142 82.5 Q91 131 62.5 200 Q34 269 34 354 Q34 439 62.5 508 Q91 577 142 625.5 Q193 674 263 700 Q333 726 416 726 Q501 726 572.5 705.5 Q644 685 698 635 L588 515 Q556 548 516 565 Q476 582 416 582 Q366 582 325.5 565 Q285 548 256 517.5 Q227 487 211.5 445 Q196 403 196 354 Q196 304 211.5 262.5 Q227 221 256 190.5 Q285 160 325.5 143 Q366 126 416 126 Q467 126 504 137.5 Q541 149 563 161 L563 276 L436 276 L436 420 L713 420 L713 50 Z M365 -61 L509 -61 L419 -260 L301 -260 L365 -61 Z " />
<glyph glyph-name="gcommaaccent" unicode="&#x123;" horiz-adv-x="630" d="M563 41 Q563 -97 493.5 -168.5 Q424 -240 282 -240 Q217 -240 154 -225.5 Q91 -211 38 -169 L121 -45 Q156 -74 194.5 -91 Q233 -108 279 -108 Q348 -108 380.5 -74.5 Q413 -41 413 11 L413 58 L411 58 Q385 23 346.5 8.5 Q308 -6 274 -6 Q220 -6 176 12.5 Q132 31 100.5 64.5 Q69 98 52 144 Q35 190 35 245 Q35 293 50.5 339 Q66 385 94.5 420 Q123 455 164 476.5 Q205 498 257 498 Q289 498 315.5 491 Q342 484 363 473 Q384 462 399 448.5 Q414 435 423 422 L425 422 L425 486 L563 486 L563 41 Z M185 246 Q185 222 194 200.5 Q203 179 219.5 162.5 Q236 146 257.5 136 Q279 126 305 126 Q330 126 352 136 Q374 146 390.5 162.5 Q407 179 416 200.5 Q425 222 425 246 Q425 270 416 291.5 Q407 313 390.5 329.5 Q374 346 352 356 Q330 366 305 366 Q279 366 257.5 356 Q236 346 219.5 329.5 Q203 313 194 291.5 Q185 270 185 246 Z M372 584 L228 584 L318 783 L436 783 L372 584 Z " />
<glyph glyph-name="Hcircumflex" unicode="&#x124;" horiz-adv-x="759" d="M72 708 L228 708 L228 444 L531 444 L531 708 L687 708 L687 0 L531 0 L531 306 L228 306 L228 0 L72 0 L72 708 Z M440 760 L377 838 L315 760 L180 760 L299 904 L462 904 L578 760 L440 760 Z " />
<glyph glyph-name="hcircumflex" unicode="&#x125;" horiz-adv-x="574" d="M203 756 L203 420 L205 420 Q210 434 222 448 Q234 462 251 473 Q268 484 291 491 Q314 498 341 498 Q398 498 433 480.5 Q468 463 487.5 432 Q507 401 514 359 Q521 317 521 268 L521 0 L371 0 L371 238 Q371 259 369.5 281.5 Q368 304 360.5 323 Q353 342 337.5 354 Q322 366 293 366 Q264 366 246 355.5 Q228 345 218.5 327.5 Q209 310 206 288 Q203 266 203 242 L203 0 L53 0 L53 756 L203 756 Z M333 800 L270 878 L208 800 L73 800 L192 944 L355 944 L471 800 L333 800 Z " />
<glyph glyph-name="Hbar" unicode="&#x126;" horiz-adv-x="759" d="M72 708 L228 708 L228 620 L531 620 L531 708 L687 708 L687 0 L531 0 L531 306 L228 306 L228 0 L72 0 L72 708 Z M531 444 L531 524 L228 524 L228 444 L531 444 Z " />
<glyph glyph-name="hbar" unicode="&#x127;" horiz-adv-x="574" d="M337 561 L203 561 L203 420 L205 420 Q210 434 221.5 448 Q233 462 250.5 473 Q268 484 291 491 Q314 498 341 498 Q398 498 433 480.5 Q468 463 487.5 432 Q507 401 514 359 Q521 317 521 268 L521 0 L371 0 L371 238 Q371 259 369.5 281.5 Q368 304 360.5 323 Q353 342 337 354 Q321 366 293 366 Q264 366 246 355.5 Q228 345 218.5 327.5 Q209 310 206 288 Q203 266 203 242 L203 0 L53 0 L53 561 L-3 561 L-3 657 L53 657 L53 756 L203 756 L203 657 L337 657 L337 561 Z " />
<glyph glyph-name="Itilde" unicode="&#x128;" horiz-adv-x="296" d="M70 708 L226 708 L226 0 L70 0 L70 708 Z M-47 766 Q-43 791 -33 816 Q-23 841 -7.5 860.5 Q8 880 30 892 Q52 904 80 904 Q105 904 125 898 Q145 892 167 883 Q181 878 194.5 873 Q208 868 223 868 Q240 868 250 878.5 Q260 889 267 904 L345 904 Q340 875 331 850 Q322 825 306.5 806.5 Q291 788 268.5 777 Q246 766 215 766 Q193 766 173.5 772.5 Q154 779 137 787 Q120 795 104.5 801.5 Q89 808 74 808 Q57 808 47 794 Q37 780 32 766 L-47 766 Z " />
<glyph glyph-name="itilde" unicode="&#x129;" horiz-adv-x="260" d="M55 486 L205 486 L205 0 L55 0 L55 486 Z M-64 570 Q-60 595 -50 620 Q-40 645 -24.5 664.5 Q-9 684 13 696 Q35 708 63 708 Q88 708 108 702 Q128 696 150 687 Q164 682 177.5 677 Q191 672 206 672 Q223 672 233 682.5 Q243 693 250 708 L328 708 Q323 679 314 654 Q305 629 289.5 610.5 Q274 592 251.5 581 Q229 570 198 570 Q176 570 156.5 576.5 Q137 583 120 591 Q103 599 87.5 605.5 Q72 612 57 612 Q40 612 30 598 Q20 584 15 570 L-64 570 Z " />
<glyph glyph-name="Imacron" unicode="&#x12a;" horiz-adv-x="296" d="M70 708 L226 708 L226 0 L70 0 L70 708 Z M317 787 L-23 787 L-23 883 L317 883 L317 787 Z " />
<glyph glyph-name="imacron" unicode="&#x12b;" horiz-adv-x="260" d="M55 486 L205 486 L205 0 L55 0 L55 486 Z M302 591 L-38 591 L-38 687 L302 687 L302 591 Z " />
<glyph glyph-name="Iogonek" unicode="&#x12e;" horiz-adv-x="296" d="M70 708 L226 708 L226 0 L140 0 Q128 -12 115.5 -27 Q103 -42 93 -58 Q83 -74 76.5 -90.5 Q70 -107 70 -122 Q70 -139 82 -153.5 Q94 -168 112 -168 Q126 -168 140.5 -161 Q155 -154 166 -145 L194 -198 Q169 -217 143 -228.5 Q117 -240 85 -240 Q43 -240 11.5 -216 Q-20 -192 -20 -147 Q-20 -128 -11.5 -107.5 Q-3 -87 10 -68 Q23 -49 39 -31.5 Q55 -14 70 0 L70 708 Z " />
<glyph glyph-name="iogonek" unicode="&#x12f;" horiz-adv-x="260" d="M55 486 L205 486 L205 0 L154 0 Q142 -12 129.5 -27 Q117 -42 107 -58 Q97 -74 90.5 -90.5 Q84 -107 84 -122 Q84 -139 96 -153.5 Q108 -168 126 -168 Q140 -168 154.5 -161 Q169 -154 180 -145 L208 -198 Q183 -217 157 -228.5 Q131 -240 99 -240 Q57 -240 25.5 -216 Q-6 -192 -6 -147 Q-6 -128 2.5 -107.5 Q11 -87 24 -68 Q37 -49 53 -31.5 Q69 -14 84 0 L55 0 L55 486 Z M43 639 Q43 675 68.5 700.5 Q94 726 130 726 Q166 726 191.5 700.5 Q217 675 217 639 Q217 603 191.5 577.5 Q166 552 130 552 Q94 552 68.5 577.5 Q43 603 43 639 Z " />
<glyph glyph-name="Idot" unicode="&#x130;" horiz-adv-x="296" d="M70 708 L226 708 L226 0 L70 0 L70 708 Z M153 754 Q135 754 120 761 Q105 768 94 780 Q83 792 76.5 807.5 Q70 823 70 840 Q70 856 76.5 871 Q83 886 94 897 Q105 908 119.5 915 Q134 922 151 922 Q186 922 212 899 Q238 876 238 840 Q238 804 214 779 Q190 754 153 754 Z " />
<glyph glyph-name="dotlessi" unicode="&#x131;" horiz-adv-x="260" d="M55 486 L205 486 L205 0 L55 0 L55 486 Z " />
<glyph glyph-name="IJ" unicode="&#x132;" horiz-adv-x="791" d="M70 708 L226 708 L226 0 L70 0 L70 708 Z M729 237 Q729 188 720.5 142 Q712 96 688 60.5 Q664 25 619.5 3.5 Q575 -18 503 -18 Q419 -18 361 22 Q303 62 286 147 L429 182 Q432 156 452.5 138 Q473 120 499 120 Q526 120 541 133.5 Q556 147 563 167 Q570 187 571.5 210.5 Q573 234 573 254 L573 708 L729 708 L729 237 Z " />
<glyph glyph-name="ij" unicode="&#x133;" horiz-adv-x="512" d="M55 486 L205 486 L205 0 L55 0 L55 486 Z M43 639 Q43 675 68.5 700.5 Q94 726 130 726 Q166 726 191.5 700.5 Q217 675 217 639 Q217 603 191.5 577.5 Q166 552 130 552 Q94 552 68.5 577.5 Q43 603 43 639 Z M457 -36 Q457 -83 448 -120.5 Q439 -158 418 -184.5 Q397 -211 362.5 -225.5 Q328 -240 277 -240 Q260 -240 242 -238.5 Q224 -237 207 -232 L215 -99 Q233 -108 254 -108 Q273 -108 284 -98 Q295 -88 300 -73 Q305 -58 306 -41 Q307 -24 307 -10 L307 486 L457 486 L457 -36 Z M295 639 Q295 675 320.5 700.5 Q346 726 382 726 Q418 726 443.5 700.5 Q469 675 469 639 Q469 603 443.5 577.5 Q418 552 382 552 Q346 552 320.5 577.5 Q295 603 295 639 Z " />
<glyph glyph-name="Jcircumflex" unicode="&#x134;" horiz-adv-x="500" d="M438 237 Q438 188 429.5 142 Q421 96 397 60.5 Q373 25 328.5 3.5 Q284 -18 212 -18 Q128 -18 70 22 Q12 62 -5 147 L138 182 Q141 156 161.5 138 Q182 120 208 120 Q235 120 250 133.5 Q265 147 272 167 Q279 187 280.5 210.5 Q282 234 282 254 L282 708 L438 708 L438 237 Z M422 760 L359 838 L297 760 L162 760 L281 904 L444 904 L560 760 L422 760 Z " />
<glyph glyph-name="jcircumflex" unicode="&#x135;" horiz-adv-x="260" d="M205 -36 Q205 -83 196 -120.5 Q187 -158 166 -184.5 Q145 -211 110.5 -225.5 Q76 -240 25 -240 Q8 -240 -10 -238.5 Q-28 -237 -45 -232 L-37 -99 Q-19 -108 2 -108 Q21 -108 32 -98 Q43 -88 48 -73 Q53 -58 54 -41 Q55 -24 55 -10 L55 486 L205 486 L205 -36 Z M191 564 L128 642 L66 564 L-69 564 L50 708 L213 708 L329 564 L191 564 Z " />
<glyph glyph-name="Kcommaaccent" unicode="&#x136;" horiz-adv-x="722" d="M78 708 L234 708 L234 414 L509 708 L713 708 L398 379 L740 0 L522 0 L234 336 L234 0 L78 0 L78 708 Z M296 -61 L440 -61 L350 -260 L232 -260 L296 -61 Z " />
<glyph glyph-name="kcommaaccent" unicode="&#x137;" horiz-adv-x="556" d="M53 756 L203 756 L203 294 L369 486 L553 486 L360 267 L558 0 L369 0 L205 246 L203 246 L203 0 L53 0 L53 756 Z M206 -61 L350 -61 L260 -260 L142 -260 L206 -61 Z " />
<glyph glyph-name="Lacute" unicode="&#x139;" horiz-adv-x="537" d="M78 708 L234 708 L234 144 L523 144 L523 0 L78 0 L78 708 Z M157 904 L361 904 L188 760 L56 760 L157 904 Z " />
<glyph glyph-name="lacute" unicode="&#x13a;" horiz-adv-x="260" d="M55 756 L205 756 L205 0 L55 0 L55 756 Z M146 944 L350 944 L177 800 L45 800 L146 944 Z " />
<glyph glyph-name="Lcommaaccent" unicode="&#x13b;" horiz-adv-x="537" d="M78 708 L234 708 L234 144 L523 144 L523 0 L78 0 L78 708 Z M232 -61 L376 -61 L286 -260 L168 -260 L232 -61 Z " />
<glyph glyph-name="lcommaaccent" unicode="&#x13c;" horiz-adv-x="260" d="M55 756 L205 756 L205 0 L55 0 L55 756 Z M79 -61 L223 -61 L133 -260 L15 -260 L79 -61 Z " />
<glyph glyph-name="Lcaron" unicode="&#x13d;" horiz-adv-x="537" d="M78 708 L234 708 L234 144 L523 144 L523 0 L78 0 L78 708 Z M356 708 L490 708 L410 509 L312 509 L356 708 Z " />
<glyph glyph-name="lcaron" unicode="&#x13e;" horiz-adv-x="260" d="M55 756 L205 756 L205 0 L55 0 L55 756 Z M301 708 L435 708 L355 509 L257 509 L301 708 Z " />
<glyph glyph-name="Ldot" unicode="&#x13f;" horiz-adv-x="537" d="M78 708 L234 708 L234 144 L523 144 L523 0 L78 0 L78 708 Z M408 319 Q390 319 375 326 Q360 333 349 345 Q338 357 331.5 372.5 Q325 388 325 405 Q325 421 331.5 436 Q338 451 349 462 Q360 473 374.5 480 Q389 487 406 487 Q441 487 467 464 Q493 441 493 405 Q493 369 469 344 Q445 319 408 319 Z " />
<glyph glyph-name="ldot" unicode="&#x140;" horiz-adv-x="400" d="M55 756 L205 756 L205 0 L55 0 L55 756 Z M326 325 Q308 325 293 332 Q278 339 267 351 Q256 363 249.5 378.5 Q243 394 243 411 Q243 427 249.5 442 Q256 457 267 468 Q278 479 292.5 486 Q307 493 324 493 Q359 493 385 470 Q411 447 411 411 Q411 375 387 350 Q363 325 326 325 Z " />
<glyph glyph-name="Lslash" unicode="&#x141;" horiz-adv-x="537" d="M78 160 L18 108 L18 240 L78 292 L78 708 L234 708 L234 427 L444 612 L444 482 L234 298 L234 144 L523 144 L523 0 L78 0 L78 160 Z " />
<glyph glyph-name="lslash" unicode="&#x142;" horiz-adv-x="260" d="M55 248 L-5 187 L-5 316 L55 377 L55 756 L205 756 L205 527 L265 588 L265 459 L205 398 L205 0 L55 0 L55 248 Z " />
<glyph glyph-name="Nacute" unicode="&#x143;" horiz-adv-x="815" d="M72 708 L284 708 L585 216 L587 216 L587 708 L743 708 L743 0 L539 0 L230 504 L228 504 L228 0 L72 0 L72 708 Z M424 904 L628 904 L455 760 L323 760 L424 904 Z " />
<glyph glyph-name="nacute" unicode="&#x144;" horiz-adv-x="574" d="M53 486 L197 486 L197 420 L199 420 Q206 434 219 448 Q232 462 250 473 Q268 484 291 491 Q314 498 341 498 Q398 498 433 480.5 Q468 463 487.5 432 Q507 401 514 359 Q521 317 521 268 L521 0 L371 0 L371 238 Q371 259 369.5 281.5 Q368 304 360.5 323 Q353 342 337.5 354 Q322 366 293 366 Q264 366 246 355.5 Q228 345 218.5 327.5 Q209 310 206 288 Q203 266 203 242 L203 0 L53 0 L53 486 Z M262 708 L466 708 L293 564 L161 564 L262 708 Z " />
<glyph glyph-name="Ncommaaccent" unicode="&#x145;" horiz-adv-x="815" d="M72 708 L284 708 L585 216 L587 216 L587 708 L743 708 L743 0 L539 0 L230 504 L228 504 L228 0 L72 0 L72 708 Z M337 -61 L481 -61 L391 -260 L273 -260 L337 -61 Z " />
<glyph glyph-name="ncommaaccent" unicode="&#x146;" horiz-adv-x="574" d="M53 486 L197 486 L197 420 L199 420 Q206 434 219 448 Q232 462 250 473 Q268 484 291 491 Q314 498 341 498 Q398 498 433 480.5 Q468 463 487.5 432 Q507 401 514 359 Q521 317 521 268 L521 0 L371 0 L371 238 Q371 259 369.5 281.5 Q368 304 360.5 323 Q353 342 337.5 354 Q322 366 293 366 Q264 366 246 355.5 Q228 345 218.5 327.5 Q209 310 206 288 Q203 266 203 242 L203 0 L53 0 L53 486 Z M228 -61 L372 -61 L282 -260 L164 -260 L228 -61 Z " />
<glyph glyph-name="Ncaron" unicode="&#x147;" horiz-adv-x="815" d="M72 708 L284 708 L585 216 L587 216 L587 708 L743 708 L743 0 L539 0 L230 504 L228 504 L228 0 L72 0 L72 708 Z M379 931 L442 853 L504 931 L639 931 L520 787 L357 787 L241 931 L379 931 Z " />
<glyph glyph-name="ncaron" unicode="&#x148;" horiz-adv-x="574" d="M53 486 L197 486 L197 420 L199 420 Q206 434 219 448 Q232 462 250 473 Q268 484 291 491 Q314 498 341 498 Q398 498 433 480.5 Q468 463 487.5 432 Q507 401 514 359 Q521 317 521 268 L521 0 L371 0 L371 238 Q371 259 369.5 281.5 Q368 304 360.5 323 Q353 342 337.5 354 Q322 366 293 366 Q264 366 246 355.5 Q228 345 218.5 327.5 Q209 310 206 288 Q203 266 203 242 L203 0 L53 0 L53 486 Z M222 708 L285 630 L347 708 L482 708 L363 564 L200 564 L84 708 L222 708 Z " />
<glyph glyph-name="napostrophe" unicode="&#x149;" horiz-adv-x="574" d="M53 486 L197 486 L197 420 L199 420 Q206 434 219 448 Q232 462 250 473 Q268 484 291 491 Q314 498 341 498 Q398 498 433 480.5 Q468 463 487.5 432 Q507 401 514 359 Q521 317 521 268 L521 0 L371 0 L371 238 Q371 259 369.5 281.5 Q368 304 360.5 323 Q353 342 337.5 354 Q322 366 293 366 Q264 366 246 355.5 Q228 345 218.5 327.5 Q209 310 206 288 Q203 266 203 242 L203 0 L53 0 L53 486 Z M-32 708 L102 708 L22 509 L-76 509 L-32 708 Z " />
<glyph glyph-name="Omacron" unicode="&#x14c;" horiz-adv-x="832" d="M34 354 Q34 439 62.5 508 Q91 577 142 625.5 Q193 674 263 700 Q333 726 416 726 Q499 726 569 700 Q639 674 690 625.5 Q741 577 769.5 508 Q798 439 798 354 Q798 269 769.5 200 Q741 131 690 82.5 Q639 34 569 8 Q499 -18 416 -18 Q333 -18 263 8 Q193 34 142 82.5 Q91 131 62.5 200 Q34 269 34 354 Z M196 354 Q196 304 211.5 262.5 Q227 221 256 190.5 Q285 160 325.5 143 Q366 126 416 126 Q466 126 506.5 143 Q547 160 576 190.5 Q605 221 620.5 262.5 Q636 304 636 354 Q636 403 620.5 445 Q605 487 576 517.5 Q547 548 506.5 565 Q466 582 416 582 Q366 582 325.5 565 Q285 548 256 517.5 Q227 487 211.5 445 Q196 403 196 354 Z M585 787 L245 787 L245 883 L585 883 L585 787 Z " />
<glyph glyph-name="omacron" unicode="&#x14d;" horiz-adv-x="610" d="M35 243 Q35 301 56 348 Q77 395 113.5 428.5 Q150 462 199.5 480 Q249 498 305 498 Q361 498 410.5 480 Q460 462 496.5 428.5 Q533 395 554 348 Q575 301 575 243 Q575 185 554 138 Q533 91 496.5 57.5 Q460 24 410.5 6 Q361 -12 305 -12 Q249 -12 199.5 6 Q150 24 113.5 57.5 Q77 91 56 138 Q35 185 35 243 Z M185 243 Q185 188 216.5 154 Q248 120 305 120 Q362 120 393.5 154 Q425 188 425 243 Q425 298 393.5 332 Q362 366 305 366 Q248 366 216.5 332 Q185 298 185 243 Z M475 591 L135 591 L135 687 L475 687 L475 591 Z " />
<glyph glyph-name="Obreve" unicode="&#x14e;" horiz-adv-x="832" d="M34 354 Q34 439 62.5 508 Q91 577 142 625.5 Q193 674 263 700 Q333 726 416 726 Q499 726 569 700 Q639 674 690 625.5 Q741 577 769.5 508 Q798 439 798 354 Q798 269 769.5 200 Q741 131 690 82.5 Q639 34 569 8 Q499 -18 416 -18 Q333 -18 263 8 Q193 34 142 82.5 Q91 131 62.5 200 Q34 269 34 354 Z M196 354 Q196 304 211.5 262.5 Q227 221 256 190.5 Q285 160 325.5 143 Q366 126 416 126 Q466 126 506.5 143 Q547 160 576 190.5 Q605 221 620.5 262.5 Q636 304 636 354 Q636 403 620.5 445 Q605 487 576 517.5 Q547 548 506.5 565 Q466 582 416 582 Q366 582 325.5 565 Q285 548 256 517.5 Q227 487 211.5 445 Q196 403 196 354 Z M311 904 Q314 889 324.5 880 Q335 871 349.5 865.5 Q364 860 381 858 Q398 856 415 856 Q454 856 481.5 863.5 Q509 871 520 904 L599 904 Q595 866 579 838.5 Q563 811 538.5 793.5 Q514 776 482.5 768 Q451 760 415 760 Q380 760 347.5 767.5 Q315 775 289.5 792.5 Q264 810 248.5 837.5 Q233 865 231 904 L311 904 Z " />
<glyph glyph-name="obreve" unicode="&#x14f;" horiz-adv-x="610" d="M35 243 Q35 301 56 348 Q77 395 113.5 428.5 Q150 462 199.5 480 Q249 498 305 498 Q361 498 410.5 480 Q460 462 496.5 428.5 Q533 395 554 348 Q575 301 575 243 Q575 185 554 138 Q533 91 496.5 57.5 Q460 24 410.5 6 Q361 -12 305 -12 Q249 -12 199.5 6 Q150 24 113.5 57.5 Q77 91 56 138 Q35 185 35 243 Z M185 243 Q185 188 216.5 154 Q248 120 305 120 Q362 120 393.5 154 Q425 188 425 243 Q425 298 393.5 332 Q362 366 305 366 Q248 366 216.5 332 Q185 298 185 243 Z M201 708 Q204 693 214.5 684 Q225 675 239.5 669.5 Q254 664 271 662 Q288 660 305 660 Q344 660 371.5 667.5 Q399 675 410 708 L489 708 Q485 670 469 642.5 Q453 615 428.5 597.5 Q404 580 372.5 572 Q341 564 305 564 Q269 564 237 571.5 Q205 579 180 596.5 Q155 614 139 641.5 Q123 669 121 708 L201 708 Z " />
<glyph glyph-name="Ohungarumlaut" unicode="&#x150;" horiz-adv-x="832" d="M34 354 Q34 439 62.5 508 Q91 577 142 625.5 Q193 674 263 700 Q333 726 416 726 Q499 726 569 700 Q639 674 690 625.5 Q741 577 769.5 508 Q798 439 798 354 Q798 269 769.5 200 Q741 131 690 82.5 Q639 34 569 8 Q499 -18 416 -18 Q333 -18 263 8 Q193 34 142 82.5 Q91 131 62.5 200 Q34 269 34 354 Z M196 354 Q196 304 211.5 262.5 Q227 221 256 190.5 Q285 160 325.5 143 Q366 126 416 126 Q466 126 506.5 143 Q547 160 576 190.5 Q605 221 620.5 262.5 Q636 304 636 354 Q636 403 620.5 445 Q605 487 576 517.5 Q547 548 506.5 565 Q466 582 416 582 Q366 582 325.5 565 Q285 548 256 517.5 Q227 487 211.5 445 Q196 403 196 354 Z M316 904 L520 904 L347 760 L215 760 L316 904 Z M580 904 L784 904 L611 760 L479 760 L580 904 Z " />
<glyph glyph-name="ohungarumlaut" unicode="&#x151;" horiz-adv-x="610" d="M35 243 Q35 301 56 348 Q77 395 113.5 428.5 Q150 462 199.5 480 Q249 498 305 498 Q361 498 410.5 480 Q460 462 496.5 428.5 Q533 395 554 348 Q575 301 575 243 Q575 185 554 138 Q533 91 496.5 57.5 Q460 24 410.5 6 Q361 -12 305 -12 Q249 -12 199.5 6 Q150 24 113.5 57.5 Q77 91 56 138 Q35 185 35 243 Z M185 243 Q185 188 216.5 154 Q248 120 305 120 Q362 120 393.5 154 Q425 188 425 243 Q425 298 393.5 332 Q362 366 305 366 Q248 366 216.5 332 Q185 298 185 243 Z M191 708 L395 708 L222 564 L90 564 L191 708 Z M455 708 L659 708 L486 564 L354 564 L455 708 Z " />
<glyph glyph-name="Racute" unicode="&#x154;" horiz-adv-x="648" d="M72 708 L346 708 Q400 708 448.5 697.5 Q497 687 533.5 662.5 Q570 638 591.5 596.5 Q613 555 613 493 Q613 418 574 365.5 Q535 313 460 299 L640 0 L453 0 L305 283 L228 283 L228 0 L72 0 L72 708 Z M228 415 L320 415 Q341 415 364.5 416.5 Q388 418 407 425.5 Q426 433 438.5 449 Q451 465 451 494 Q451 521 440 537 Q429 553 412 561.5 Q395 570 373 573 Q351 576 330 576 L228 576 L228 415 Z M291 904 L495 904 L322 760 L190 760 L291 904 Z " />
<glyph glyph-name="racute" unicode="&#x155;" horiz-adv-x="407" d="M53 486 L203 486 L203 408 L205 408 Q229 453 262 475.5 Q295 498 345 498 Q358 498 371 497 Q384 496 395 493 L395 356 Q379 361 363.5 363.5 Q348 366 331 366 Q288 366 263 354 Q238 342 224.5 320.5 Q211 299 207 269 Q203 239 203 203 L203 0 L53 0 L53 486 Z M216 708 L420 708 L247 564 L115 564 L216 708 Z " />
<glyph glyph-name="Rcommaaccent" unicode="&#x156;" horiz-adv-x="648" d="M72 708 L346 708 Q400 708 448.5 697.5 Q497 687 533.5 662.5 Q570 638 591.5 596.5 Q613 555 613 493 Q613 418 574 365.5 Q535 313 460 299 L640 0 L453 0 L305 283 L228 283 L228 0 L72 0 L72 708 Z M228 415 L320 415 Q341 415 364.5 416.5 Q388 418 407 425.5 Q426 433 438.5 449 Q451 465 451 494 Q451 521 440 537 Q429 553 412 561.5 Q395 570 373 573 Q351 576 330 576 L228 576 L228 415 Z M253 -61 L397 -61 L307 -260 L189 -260 L253 -61 Z " />
<glyph glyph-name="rcommaaccent" unicode="&#x157;" horiz-adv-x="407" d="M53 486 L203 486 L203 408 L205 408 Q229 453 262 475.5 Q295 498 345 498 Q358 498 371 497 Q384 496 395 493 L395 356 Q379 361 363.5 363.5 Q348 366 331 366 Q288 366 263 354 Q238 342 224.5 320.5 Q211 299 207 269 Q203 239 203 203 L203 0 L53 0 L53 486 Z M122 -61 L266 -61 L176 -260 L58 -260 L122 -61 Z " />
<glyph glyph-name="Rcaron" unicode="&#x158;" horiz-adv-x="648" d="M72 708 L346 708 Q400 708 448.5 697.5 Q497 687 533.5 662.5 Q570 638 591.5 596.5 Q613 555 613 493 Q613 418 574 365.5 Q535 313 460 299 L640 0 L453 0 L305 283 L228 283 L228 0 L72 0 L72 708 Z M228 415 L320 415 Q341 415 364.5 416.5 Q388 418 407 425.5 Q426 433 438.5 449 Q451 465 451 494 Q451 521 440 537 Q429 553 412 561.5 Q395 570 373 573 Q351 576 330 576 L228 576 L228 415 Z M252 931 L315 853 L377 931 L512 931 L393 787 L230 787 L114 931 L252 931 Z " />
<glyph glyph-name="rcaron" unicode="&#x159;" horiz-adv-x="407" d="M53 486 L203 486 L203 408 L205 408 Q229 453 262 475.5 Q295 498 345 498 Q358 498 371 497 Q384 496 395 493 L395 356 Q379 361 363.5 363.5 Q348 366 331 366 Q288 366 263 354 Q238 342 224.5 320.5 Q211 299 207 269 Q203 239 203 203 L203 0 L53 0 L53 486 Z M147 708 L210 630 L272 708 L407 708 L288 564 L125 564 L9 708 L147 708 Z " />
<glyph glyph-name="Sacute" unicode="&#x15a;" horiz-adv-x="574" d="M422 535 Q403 559 370.5 570.5 Q338 582 309 582 Q292 582 274 578 Q256 574 240 565.5 Q224 557 214 543 Q204 529 204 509 Q204 477 228 460 Q252 443 288.5 431 Q325 419 367 407 Q409 395 445.5 373 Q482 351 506 314 Q530 277 530 215 Q530 156 508 112 Q486 68 448.5 39 Q411 10 361.5 -4 Q312 -18 257 -18 Q188 -18 129 3 Q70 24 19 71 L130 193 Q154 161 190.5 143.5 Q227 126 266 126 Q285 126 304.5 130.5 Q324 135 339.5 144 Q355 153 364.5 167 Q374 181 374 200 Q374 232 349.5 250.5 Q325 269 288 282 Q251 295 208 308 Q165 321 128 343 Q91 365 66.5 401 Q42 437 42 496 Q42 553 64.5 596 Q87 639 124.5 668 Q162 697 211 711.5 Q260 726 312 726 Q372 726 428 709 Q484 692 529 652 L422 535 Z M296 904 L500 904 L327 760 L195 760 L296 904 Z " />
<glyph glyph-name="sacute" unicode="&#x15b;" horiz-adv-x="463" d="M328 343 Q295 384 241 384 Q222 384 204 375 Q186 366 186 344 Q186 326 204.5 317.5 Q223 309 251.5 302.5 Q280 296 312.5 288.5 Q345 281 373.5 265 Q402 249 420.5 221.5 Q439 194 439 148 Q439 101 418.5 70.5 Q398 40 366 21.5 Q334 3 294 -4.5 Q254 -12 215 -12 Q164 -12 112 2.5 Q60 17 24 54 L115 155 Q136 129 161.5 115.5 Q187 102 221 102 Q247 102 268 109.5 Q289 117 289 137 Q289 156 270.5 165.5 Q252 175 223.5 181.5 Q195 188 162.5 195.5 Q130 203 101.5 218 Q73 233 54.5 260.5 Q36 288 36 334 Q36 377 53.5 408 Q71 439 99.5 459 Q128 479 165 488.5 Q202 498 240 498 Q288 498 337 484 Q386 470 420 434 L328 343 Z M242 708 L446 708 L273 564 L141 564 L242 708 Z " />
<glyph glyph-name="Scircumflex" unicode="&#x15c;" horiz-adv-x="574" d="M422 535 Q403 559 370.5 570.5 Q338 582 309 582 Q292 582 274 578 Q256 574 240 565.5 Q224 557 214 543 Q204 529 204 509 Q204 477 228 460 Q252 443 288.5 431 Q325 419 367 407 Q409 395 445.5 373 Q482 351 506 314 Q530 277 530 215 Q530 156 508 112 Q486 68 448.5 39 Q411 10 361.5 -4 Q312 -18 257 -18 Q188 -18 129 3 Q70 24 19 71 L130 193 Q154 161 190.5 143.5 Q227 126 266 126 Q285 126 304.5 130.5 Q324 135 339.5 144 Q355 153 364.5 167 Q374 181 374 200 Q374 232 349.5 250.5 Q325 269 288 282 Q251 295 208 308 Q165 321 128 343 Q91 365 66.5 401 Q42 437 42 496 Q42 553 64.5 596 Q87 639 124.5 668 Q162 697 211 711.5 Q260 726 312 726 Q372 726 428 709 Q484 692 529 652 L422 535 Z M358 760 L295 838 L233 760 L98 760 L217 904 L380 904 L496 760 L358 760 Z " />
<glyph glyph-name="scircumflex" unicode="&#x15d;" horiz-adv-x="463" d="M328 343 Q295 384 241 384 Q222 384 204 375 Q186 366 186 344 Q186 326 204.5 317.5 Q223 309 251.5 302.5 Q280 296 312.5 288.5 Q345 281 373.5 265 Q402 249 420.5 221.5 Q439 194 439 148 Q439 101 418.5 70.5 Q398 40 366 21.5 Q334 3 294 -4.5 Q254 -12 215 -12 Q164 -12 112 2.5 Q60 17 24 54 L115 155 Q136 129 161.5 115.5 Q187 102 221 102 Q247 102 268 109.5 Q289 117 289 137 Q289 156 270.5 165.5 Q252 175 223.5 181.5 Q195 188 162.5 195.5 Q130 203 101.5 218 Q73 233 54.5 260.5 Q36 288 36 334 Q36 377 53.5 408 Q71 439 99.5 459 Q128 479 165 488.5 Q202 498 240 498 Q288 498 337 484 Q386 470 420 434 L328 343 Z M300 564 L237 642 L175 564 L40 564 L159 708 L322 708 L438 564 L300 564 Z " />
<glyph glyph-name="Scedilla" unicode="&#x15e;" horiz-adv-x="574" d="M422 535 Q403 559 370.5 570.5 Q338 582 309 582 Q292 582 274 578 Q256 574 240 565.5 Q224 557 214 543 Q204 529 204 509 Q204 477 228 460 Q252 443 288.5 431 Q325 419 367 407 Q409 395 445.5 373 Q482 351 506 314 Q530 277 530 215 Q530 162 512.5 122 Q495 82 465 53.5 Q435 25 394.5 8.5 Q354 -8 308 -14 L277 -60 Q299 -60 321.5 -62.5 Q344 -65 362 -73.5 Q380 -82 391.5 -98.5 Q403 -115 403 -143 Q403 -170 388.5 -189 Q374 -208 352.5 -219 Q331 -230 307 -235 Q283 -240 264 -240 Q234 -240 199.5 -231.5 Q165 -223 139 -210 L164 -163 Q176 -168 195.5 -174 Q215 -180 241 -180 Q253 -180 264.5 -178.5 Q276 -177 285.5 -173.5 Q295 -170 301 -164 Q307 -158 307 -148 Q307 -130 289.5 -122 Q272 -114 257 -114 Q242 -114 221 -122 L189 -93 L239 -17 Q176 -15 121.5 5.5 Q67 26 19 71 L130 193 Q154 161 190.5 143.5 Q227 126 266 126 Q285 126 304.5 130.5 Q324 135 339.5 144 Q355 153 364.5 167 Q374 181 374 200 Q374 232 349.5 250.5 Q325 269 288 282 Q251 295 208 308 Q165 321 128 343 Q91 365 66.5 401 Q42 437 42 496 Q42 553 64.5 596 Q87 639 124.5 668 Q162 697 210.5 711.5 Q259 726 312 726 Q372 726 428 709 Q484 692 529 652 L422 535 Z " />
<glyph glyph-name="scedilla" unicode="&#x15f;" horiz-adv-x="463" d="M328 343 Q295 384 241 384 Q222 384 204 375 Q186 366 186 344 Q186 326 204.5 317.5 Q223 309 251.5 302.5 Q280 296 312.5 288.5 Q345 281 373.5 265 Q402 249 420.5 221.5 Q439 194 439 148 Q439 110 425 82.5 Q411 55 388 36.5 Q365 18 335 7 Q305 -4 273 -8 L238 -60 Q260 -60 282.5 -62.5 Q305 -65 323 -73.5 Q341 -82 352.5 -98.5 Q364 -115 364 -143 Q364 -170 349.5 -189 Q335 -208 313.5 -219 Q292 -230 268 -235 Q244 -240 225 -240 Q195 -240 160.5 -231.5 Q126 -223 100 -210 L125 -163 Q137 -168 156.5 -174 Q176 -180 202 -180 Q214 -180 225.5 -178.5 Q237 -177 246.5 -173.5 Q256 -170 262 -164 Q268 -158 268 -148 Q268 -130 250.5 -122 Q233 -114 218 -114 Q203 -114 182 -122 L150 -93 L204 -12 Q155 -10 106.5 4.5 Q58 19 24 54 L115 155 Q136 129 161.5 115.5 Q187 102 221 102 Q247 102 268 109.5 Q289 117 289 137 Q289 156 270.5 165.5 Q252 175 223.5 181.5 Q195 188 162.5 195.5 Q130 203 101.5 218 Q73 233 54.5 260.5 Q36 288 36 334 Q36 377 53.5 408 Q71 439 99.5 459 Q128 479 165 488.5 Q202 498 240 498 Q288 498 337 484 Q386 470 420 434 L328 343 Z " />
<glyph glyph-name="Tcommaaccent" unicode="&#x162;" horiz-adv-x="574" d="M209 570 L7 570 L7 708 L567 708 L567 570 L365 570 L365 0 L209 0 L209 570 Z M240 -61 L384 -61 L294 -260 L176 -260 L240 -61 Z " />
<glyph glyph-name="tcommaaccent" unicode="&#x163;" horiz-adv-x="407" d="M384 366 L252 366 L252 204 Q252 184 254 167.5 Q256 151 263 139 Q270 127 284.5 120.5 Q299 114 323 114 Q335 114 354.5 116.5 Q374 119 384 128 L384 3 Q359 -6 332 -9 Q305 -12 279 -12 Q241 -12 209 -4 Q177 4 153 21.5 Q129 39 115.5 67 Q102 95 102 135 L102 366 L6 366 L6 486 L102 486 L102 630 L252 630 L252 486 L384 486 L384 366 Z M167 -61 L311 -61 L221 -260 L103 -260 L167 -61 Z " />
<glyph glyph-name="Tcaron" unicode="&#x164;" horiz-adv-x="574" d="M209 570 L7 570 L7 708 L567 708 L567 570 L365 570 L365 0 L209 0 L209 570 Z M226 931 L289 853 L351 931 L486 931 L367 787 L204 787 L88 931 L226 931 Z " />
<glyph glyph-name="tcaron" unicode="&#x165;" horiz-adv-x="407" d="M384 366 L252 366 L252 204 Q252 184 254 167.5 Q256 151 263 139 Q270 127 284.5 120.5 Q299 114 323 114 Q335 114 354.5 116.5 Q374 119 384 128 L384 3 Q359 -6 332 -9 Q305 -12 279 -12 Q241 -12 209 -4 Q177 4 153 21.5 Q129 39 115.5 67 Q102 95 102 135 L102 366 L6 366 L6 486 L102 486 L102 630 L252 630 L252 486 L384 486 L384 366 Z M350 758 L484 758 L404 559 L306 559 L350 758 Z " />
<glyph glyph-name="Tbar" unicode="&#x166;" horiz-adv-x="574" d="M490 366 L365 366 L365 0 L209 0 L209 366 L90 366 L90 462 L209 462 L209 570 L7 570 L7 708 L567 708 L567 570 L365 570 L365 462 L490 462 L490 366 Z " />
<glyph glyph-name="tbar" unicode="&#x167;" horiz-adv-x="407" d="M367 217 L252 217 L252 204 Q252 184 254 167.5 Q256 151 263 139 Q270 127 284.5 120.5 Q299 114 323 114 Q335 114 354.5 116.5 Q374 119 384 128 L384 3 Q359 -6 332 -9 Q305 -12 279 -12 Q241 -12 209 -4 Q177 4 153 21.5 Q129 39 115.5 67 Q102 95 102 135 L102 217 L27 217 L27 313 L102 313 L102 366 L6 366 L6 486 L102 486 L102 630 L252 630 L252 486 L384 486 L384 366 L252 366 L252 313 L367 313 L367 217 Z " />
<glyph glyph-name="Utilde" unicode="&#x168;" horiz-adv-x="741" d="M669 273 Q669 210 650 157 Q631 104 593.5 65 Q556 26 500 4 Q444 -18 371 -18 Q297 -18 241 4 Q185 26 147.5 65 Q110 104 91 157 Q72 210 72 273 L72 708 L228 708 L228 279 Q228 246 238.5 218 Q249 190 268 169.5 Q287 149 313.5 137.5 Q340 126 371 126 Q402 126 428 137.5 Q454 149 473 169.5 Q492 190 502.5 218 Q513 246 513 279 L513 708 L669 708 L669 273 Z M181 766 Q185 791 195 816 Q205 841 220.5 860.5 Q236 880 258 892 Q280 904 308 904 Q333 904 353 898 Q373 892 395 883 Q409 878 422.5 873 Q436 868 451 868 Q468 868 478 878.5 Q488 889 495 904 L573 904 Q568 875 559 850 Q550 825 534.5 806.5 Q519 788 496.5 777 Q474 766 443 766 Q421 766 401.5 772.5 Q382 779 365 787 Q348 795 332.5 801.5 Q317 808 302 808 Q285 808 275 794 Q265 780 260 766 L181 766 Z " />
<glyph glyph-name="utilde" unicode="&#x169;" horiz-adv-x="574" d="M521 0 L377 0 L377 66 L375 66 Q367 52 354.5 38 Q342 24 324 13 Q306 2 283 -5 Q260 -12 233 -12 Q176 -12 140.5 5.5 Q105 23 85.5 54 Q66 85 59.5 127 Q53 169 53 218 L53 486 L203 486 L203 248 Q203 227 204.5 204.5 Q206 182 213.5 163 Q221 144 236.5 132 Q252 120 281 120 Q310 120 328 130.5 Q346 141 355.5 158.5 Q365 176 368 198 Q371 220 371 244 L371 486 L521 486 L521 0 Z M94 570 Q98 595 108 620 Q118 645 133.5 664.5 Q149 684 171 696 Q193 708 221 708 Q246 708 266 702 Q286 696 308 687 Q322 682 335.5 677 Q349 672 364 672 Q381 672 391 682.5 Q401 693 408 708 L486 708 Q481 679 472 654 Q463 629 447.5 610.5 Q432 592 409.5 581 Q387 570 356 570 Q334 570 314.5 576.5 Q295 583 278 591 Q261 599 245.5 605.5 Q230 612 215 612 Q198 612 188 598 Q178 584 173 570 L94 570 Z " />
<glyph glyph-name="Umacron" unicode="&#x16a;" horiz-adv-x="741" d="M669 273 Q669 210 650 157 Q631 104 593.5 65 Q556 26 500 4 Q444 -18 371 -18 Q297 -18 241 4 Q185 26 147.5 65 Q110 104 91 157 Q72 210 72 273 L72 708 L228 708 L228 279 Q228 246 238.5 218 Q249 190 268 169.5 Q287 149 313.5 137.5 Q340 126 371 126 Q402 126 428 137.5 Q454 149 473 169.5 Q492 190 502.5 218 Q513 246 513 279 L513 708 L669 708 L669 273 Z M547 787 L207 787 L207 883 L547 883 L547 787 Z " />
<glyph glyph-name="umacron" unicode="&#x16b;" horiz-adv-x="574" d="M521 0 L377 0 L377 66 L375 66 Q367 52 354.5 38 Q342 24 324 13 Q306 2 283 -5 Q260 -12 233 -12 Q176 -12 140.5 5.5 Q105 23 85.5 54 Q66 85 59.5 127 Q53 169 53 218 L53 486 L203 486 L203 248 Q203 227 204.5 204.5 Q206 182 213.5 163 Q221 144 236.5 132 Q252 120 281 120 Q310 120 328 130.5 Q346 141 355.5 158.5 Q365 176 368 198 Q371 220 371 244 L371 486 L521 486 L521 0 Z M456 591 L116 591 L116 687 L456 687 L456 591 Z " />
<glyph glyph-name="Ubreve" unicode="&#x16c;" horiz-adv-x="741" d="M669 273 Q669 210 650 157 Q631 104 593.5 65 Q556 26 500 4 Q444 -18 371 -18 Q297 -18 241 4 Q185 26 147.5 65 Q110 104 91 157 Q72 210 72 273 L72 708 L228 708 L228 279 Q228 246 238.5 218 Q249 190 268 169.5 Q287 149 313.5 137.5 Q340 126 371 126 Q402 126 428 137.5 Q454 149 473 169.5 Q492 190 502.5 218 Q513 246 513 279 L513 708 L669 708 L669 273 Z M273 904 Q276 889 286.5 880 Q297 871 311.5 865.5 Q326 860 343 858 Q360 856 377 856 Q416 856 443.5 863.5 Q471 871 482 904 L561 904 Q557 866 541 838.5 Q525 811 500.5 793.5 Q476 776 444.5 768 Q413 760 377 760 Q342 760 309.5 767.5 Q277 775 251.5 792.5 Q226 810 210.5 837.5 Q195 865 193 904 L273 904 Z " />
<glyph glyph-name="ubreve" unicode="&#x16d;" horiz-adv-x="574" d="M521 0 L377 0 L377 66 L375 66 Q367 52 354.5 38 Q342 24 324 13 Q306 2 283 -5 Q260 -12 233 -12 Q176 -12 140.5 5.5 Q105 23 85.5 54 Q66 85 59.5 127 Q53 169 53 218 L53 486 L203 486 L203 248 Q203 227 204.5 204.5 Q206 182 213.5 163 Q221 144 236.5 132 Q252 120 281 120 Q310 120 328 130.5 Q346 141 355.5 158.5 Q365 176 368 198 Q371 220 371 244 L371 486 L521 486 L521 0 Z M185 708 Q188 693 198.5 684 Q209 675 223.5 669.5 Q238 664 255 662 Q272 660 289 660 Q328 660 355.5 667.5 Q383 675 394 708 L473 708 Q469 670 453 642.5 Q437 615 412.5 597.5 Q388 580 356.5 572 Q325 564 289 564 Q253 564 221 571.5 Q189 579 164 596.5 Q139 614 123 641.5 Q107 669 105 708 L185 708 Z " />
<glyph glyph-name="Uring" unicode="&#x16e;" horiz-adv-x="741" d="M669 273 Q669 210 650 157 Q631 104 593.5 65 Q556 26 500 4 Q444 -18 371 -18 Q297 -18 241 4 Q185 26 147.5 65 Q110 104 91 157 Q72 210 72 273 L72 708 L228 708 L228 279 Q228 246 238.5 218 Q249 190 268 169.5 Q287 149 313.5 137.5 Q340 126 371 126 Q402 126 428 137.5 Q454 149 473 169.5 Q492 190 502.5 218 Q513 246 513 279 L513 708 L669 708 L669 273 Z M377 731 Q354 731 334 740 Q314 749 299 764 Q284 779 275 799 Q266 819 266 842 Q266 864 275 884.5 Q284 905 299 920 Q314 935 334 944 Q354 953 377 953 Q399 953 419.5 944 Q440 935 455 920 Q470 905 479 884.5 Q488 864 488 842 Q488 819 479 799 Q470 779 455 764 Q440 749 419.5 740 Q399 731 377 731 Z M326 842 Q326 821 341 806 Q356 791 377 791 Q398 791 413 806 Q428 821 428 842 Q428 863 413 878 Q398 893 377 893 Q356 893 341 878 Q326 863 326 842 Z " />
<glyph glyph-name="uring" unicode="&#x16f;" horiz-adv-x="574" d="M521 0 L377 0 L377 66 L375 66 Q367 52 354.5 38 Q342 24 324 13 Q306 2 283 -5 Q260 -12 233 -12 Q176 -12 140.5 5.5 Q105 23 85.5 54 Q66 85 59.5 127 Q53 169 53 218 L53 486 L203 486 L203 248 Q203 227 204.5 204.5 Q206 182 213.5 163 Q221 144 236.5 132 Q252 120 281 120 Q310 120 328 130.5 Q346 141 355.5 158.5 Q365 176 368 198 Q371 220 371 244 L371 486 L521 486 L521 0 Z M284 545 Q261 545 241 554 Q221 563 206 578 Q191 593 182 613 Q173 633 173 656 Q173 679 182 699 Q191 719 206 734 Q221 749 241 758 Q261 767 284 767 Q307 767 327 758 Q347 749 362 734 Q377 719 386 699 Q395 679 395 656 Q395 633 386 613 Q377 593 362 578 Q347 563 327 554 Q307 545 284 545 Z M233 656 Q233 635 248 620 Q263 605 284 605 Q305 605 320 620 Q335 635 335 656 Q335 677 320 692 Q305 707 284 707 Q263 707 248 692 Q233 677 233 656 Z " />
<glyph glyph-name="Uhungarumlaut" unicode="&#x170;" horiz-adv-x="741" d="M669 273 Q669 210 650 157 Q631 104 593.5 65 Q556 26 500 4 Q444 -18 371 -18 Q297 -18 241 4 Q185 26 147.5 65 Q110 104 91 157 Q72 210 72 273 L72 708 L228 708 L228 279 Q228 246 238.5 218 Q249 190 268 169.5 Q287 149 313.5 137.5 Q340 126 371 126 Q402 126 428 137.5 Q454 149 473 169.5 Q492 190 502.5 218 Q513 246 513 279 L513 708 L669 708 L669 273 Z M262 904 L466 904 L293 760 L161 760 L262 904 Z M526 904 L730 904 L557 760 L425 760 L526 904 Z " />
<glyph glyph-name="uhungarumlaut" unicode="&#x171;" horiz-adv-x="574" d="M521 0 L377 0 L377 66 L375 66 Q367 52 354.5 38 Q342 24 324 13 Q306 2 283 -5 Q260 -12 233 -12 Q176 -12 140.5 5.5 Q105 23 85.5 54 Q66 85 59.5 127 Q53 169 53 218 L53 486 L203 486 L203 248 Q203 227 204.5 204.5 Q206 182 213.5 163 Q221 144 236.5 132 Q252 120 281 120 Q310 120 328 130.5 Q346 141 355.5 158.5 Q365 176 368 198 Q371 220 371 244 L371 486 L521 486 L521 0 Z M161 708 L365 708 L192 564 L60 564 L161 708 Z M425 708 L629 708 L456 564 L324 564 L425 708 Z " />
<glyph glyph-name="Uogonek" unicode="&#x172;" horiz-adv-x="741" d="M491 -198 Q466 -217 440 -228.5 Q414 -240 382 -240 Q340 -240 308.5 -216 Q277 -192 277 -147 Q277 -114 299 -79 Q321 -44 348 -17 Q280 -14 228 9 Q176 32 141.5 71 Q107 110 89.5 161.5 Q72 213 72 273 L72 708 L228 708 L228 279 Q228 246 238.5 218 Q249 190 268 169.5 Q287 149 313 137.5 Q339 126 371 126 Q402 126 428 137.5 Q454 149 473 169.5 Q492 190 502.5 218 Q513 246 513 279 L513 708 L669 708 L669 273 Q669 216 653.5 167 Q638 118 607 79.5 Q576 41 529.5 16.5 Q483 -8 422 -15 Q401 -38 384 -67 Q367 -96 367 -122 Q367 -139 379 -153.5 Q391 -168 409 -168 Q423 -168 437.5 -161 Q452 -154 463 -145 L491 -198 Z " />
<glyph glyph-name="uogonek" unicode="&#x173;" horiz-adv-x="574" d="M501 -198 Q476 -217 450 -228.5 Q424 -240 392 -240 Q350 -240 318.5 -216 Q287 -192 287 -147 Q287 -128 295.5 -107.5 Q304 -87 317 -68 Q330 -49 346 -31.5 Q362 -14 377 0 L377 66 L375 66 Q367 52 354.5 38 Q342 24 324 13 Q306 2 283.5 -5 Q261 -12 233 -12 Q176 -12 140.5 5.5 Q105 23 85.5 54 Q66 85 59.5 127 Q53 169 53 218 L53 486 L203 486 L203 248 Q203 227 204.5 204.5 Q206 182 213.5 163 Q221 144 236.5 132 Q252 120 281 120 Q310 120 328 130.5 Q346 141 355.5 158.5 Q365 176 368 198 Q371 220 371 244 L371 486 L521 486 L521 0 L447 0 Q435 -12 422.5 -27 Q410 -42 400 -58 Q390 -74 383.5 -90.5 Q377 -107 377 -122 Q377 -139 389 -153.5 Q401 -168 419 -168 Q433 -168 447.5 -161 Q462 -154 473 -145 L501 -198 Z " />
<glyph glyph-name="Wcircumflex" unicode="&#x174;" horiz-adv-x="1000" d="M-2 708 L168 708 L281 254 L283 254 L431 708 L576 708 L723 242 L725 242 L844 708 L1002 708 L795 0 L656 0 L500 490 L498 490 L342 0 L208 0 L-2 708 Z M560 760 L497 838 L435 760 L300 760 L419 904 L582 904 L698 760 L560 760 Z " />
<glyph glyph-name="wcircumflex" unicode="&#x175;" horiz-adv-x="833" d="M-5 486 L155 486 L254 181 L256 181 L339 486 L503 486 L593 181 L595 181 L686 486 L838 486 L665 0 L517 0 L416 323 L414 323 L324 0 L173 0 L-5 486 Z M476 564 L413 642 L351 564 L216 564 L335 708 L498 708 L614 564 L476 564 Z " />
<glyph glyph-name="Ycircumflex" unicode="&#x176;" horiz-adv-x="648" d="M246 302 L-20 708 L174 708 L324 443 L483 708 L668 708 L402 302 L402 0 L246 0 L246 302 Z M385 760 L322 838 L260 760 L125 760 L244 904 L407 904 L523 760 L385 760 Z " />
<glyph glyph-name="ycircumflex" unicode="&#x177;" horiz-adv-x="556" d="M333 -79 Q318 -118 304 -148 Q290 -178 268.5 -198.5 Q247 -219 214 -229.5 Q181 -240 127 -240 Q69 -240 15 -222 L35 -99 Q69 -114 105 -114 Q130 -114 146 -108.5 Q162 -103 172.5 -92.5 Q183 -82 190 -67 Q197 -52 205 -32 L216 -4 L3 486 L165 486 L290 165 L292 165 L399 486 L553 486 L333 -79 Z M353 564 L290 642 L228 564 L93 564 L212 708 L375 708 L491 564 L353 564 Z " />
<glyph glyph-name="Zacute" unicode="&#x179;" horiz-adv-x="630" d="M35 144 L394 570 L48 570 L48 708 L583 708 L583 570 L231 144 L595 144 L595 0 L35 0 L35 144 Z M321 904 L525 904 L352 760 L220 760 L321 904 Z " />
<glyph glyph-name="zacute" unicode="&#x17a;" horiz-adv-x="500" d="M34 150 L286 366 L40 366 L40 486 L460 486 L460 342 L196 120 L466 120 L466 0 L34 0 L34 150 Z M250 708 L454 708 L281 564 L149 564 L250 708 Z " />
<glyph glyph-name="Zdotaccent" unicode="&#x17b;" horiz-adv-x="630" d="M35 144 L394 570 L48 570 L48 708 L583 708 L583 570 L231 144 L595 144 L595 0 L35 0 L35 144 Z M336 754 Q318 754 303 761 Q288 768 277 780 Q266 792 259.5 807.5 Q253 823 253 840 Q253 856 259.5 871 Q266 886 277 897 Q288 908 302.5 915 Q317 922 334 922 Q369 922 395 899 Q421 876 421 840 Q421 804 397 779 Q373 754 336 754 Z " />
<glyph glyph-name="zdotaccent" unicode="&#x17c;" horiz-adv-x="500" d="M34 150 L286 366 L40 366 L40 486 L460 486 L460 342 L196 120 L466 120 L466 0 L34 0 L34 150 Z M265 558 Q247 558 232 565 Q217 572 206 584 Q195 596 188.5 611.5 Q182 627 182 644 Q182 660 188.5 675 Q195 690 206 701 Q217 712 231.5 719 Q246 726 263 726 Q298 726 324 703 Q350 680 350 644 Q350 608 326 583 Q302 558 265 558 Z " />
<glyph glyph-name="Scommaaccent" unicode="&#x218;" horiz-adv-x="574" d="M422 535 Q403 559 370.5 570.5 Q338 582 309 582 Q292 582 274 578 Q256 574 240 565.5 Q224 557 214 543 Q204 529 204 509 Q204 477 228 460 Q252 443 288.5 431 Q325 419 367 407 Q409 395 445.5 373 Q482 351 506 314 Q530 277 530 215 Q530 156 508 112 Q486 68 448.5 39 Q411 10 361.5 -4 Q312 -18 257 -18 Q188 -18 129 3 Q70 24 19 71 L130 193 Q154 161 190.5 143.5 Q227 126 266 126 Q285 126 304.5 130.5 Q324 135 339.5 144 Q355 153 364.5 167 Q374 181 374 200 Q374 232 349.5 250.5 Q325 269 288 282 Q251 295 208 308 Q165 321 128 343 Q91 365 66.5 401 Q42 437 42 496 Q42 553 64.5 596 Q87 639 124.5 668 Q162 697 211 711.5 Q260 726 312 726 Q372 726 428 709 Q484 692 529 652 L422 535 Z M217 -61 L361 -61 L271 -260 L153 -260 L217 -61 Z " />
<glyph glyph-name="scommaaccent" unicode="&#x219;" horiz-adv-x="463" d="M328 343 Q295 384 241 384 Q222 384 204 375 Q186 366 186 344 Q186 326 204.5 317.5 Q223 309 251.5 302.5 Q280 296 312.5 288.5 Q345 281 373.5 265 Q402 249 420.5 221.5 Q439 194 439 148 Q439 101 418.5 70.5 Q398 40 366 21.5 Q334 3 294 -4.5 Q254 -12 215 -12 Q164 -12 112 2.5 Q60 17 24 54 L115 155 Q136 129 161.5 115.5 Q187 102 221 102 Q247 102 268 109.5 Q289 117 289 137 Q289 156 270.5 165.5 Q252 175 223.5 181.5 Q195 188 162.5 195.5 Q130 203 101.5 218 Q73 233 54.5 260.5 Q36 288 36 334 Q36 377 53.5 408 Q71 439 99.5 459 Q128 479 165 488.5 Q202 498 240 498 Q288 498 337 484 Q386 470 420 434 L328 343 Z M172 -61 L316 -61 L226 -260 L108 -260 L172 -61 Z " />
<glyph glyph-name="uni021A" unicode="&#x21a;" horiz-adv-x="574" d="M209 570 L7 570 L7 708 L567 708 L567 570 L365 570 L365 0 L209 0 L209 570 Z M240 -61 L384 -61 L294 -260 L176 -260 L240 -61 Z " />
<glyph glyph-name="uni021B" unicode="&#x21b;" horiz-adv-x="407" d="M384 366 L252 366 L252 204 Q252 184 254 167.5 Q256 151 263 139 Q270 127 284.5 120.5 Q299 114 323 114 Q335 114 354.5 116.5 Q374 119 384 128 L384 3 Q359 -6 332 -9 Q305 -12 279 -12 Q241 -12 209 -4 Q177 4 153 21.5 Q129 39 115.5 67 Q102 95 102 135 L102 366 L6 366 L6 486 L102 486 L102 630 L252 630 L252 486 L384 486 L384 366 Z M167 -61 L311 -61 L221 -260 L103 -260 L167 -61 Z " />
<glyph glyph-name="dotlessj" unicode="&#x237;" horiz-adv-x="260" d="M205 -36 Q205 -83 196 -120.5 Q187 -158 166 -184.5 Q145 -211 110.5 -225.5 Q76 -240 25 -240 Q8 -240 -10 -238.5 Q-28 -237 -45 -232 L-37 -99 Q-19 -108 2 -108 Q21 -108 32 -98 Q43 -88 48 -73 Q53 -58 54 -41 Q55 -24 55 -10 L55 486 L205 486 L205 -36 Z " />
<glyph glyph-name="caron" unicode="&#x2c7;" horiz-adv-x="260" d="M65 708 L128 630 L190 708 L325 708 L206 564 L43 564 L-73 708 L65 708 Z " />
<glyph glyph-name="uni02C9" unicode="&#x2c9;" horiz-adv-x="260" d="M300 591 L-40 591 L-40 687 L300 687 L300 591 Z " />
<glyph glyph-name="breve" unicode="&#x2d8;" horiz-adv-x="260" d="M26 708 Q29 693 39.5 684 Q50 675 64.5 669.5 Q79 664 96 662 Q113 660 130 660 Q169 660 196.5 667.5 Q224 675 235 708 L314 708 Q310 670 294 642.5 Q278 615 253.5 597.5 Q229 580 197.5 572 Q166 564 130 564 Q94 564 62 571.5 Q30 579 5 596.5 Q-20 614 -36 641.5 Q-52 669 -54 708 L26 708 Z " />
<glyph glyph-name="dotaccent" unicode="&#x2d9;" horiz-adv-x="260" d="M129 558 Q111 558 96 565 Q81 572 70 584 Q59 596 52.5 611.5 Q46 627 46 644 Q46 660 52.5 675 Q59 690 70 701 Q81 712 95.5 719 Q110 726 127 726 Q162 726 188 703 Q214 680 214 644 Q214 608 190 583 Q166 558 129 558 Z " />
<glyph glyph-name="ring" unicode="&#x2da;" horiz-adv-x="260" d="M130 545 Q107 545 87 554 Q67 563 52 578 Q37 593 28 613 Q19 633 19 656 Q19 679 28 699 Q37 719 52 734 Q67 749 87 758 Q107 767 130 767 Q153 767 173 758 Q193 749 208 734 Q223 719 232 699 Q241 679 241 656 Q241 633 232 613 Q223 593 208 578 Q193 563 173 554 Q153 545 130 545 Z M79 656 Q79 635 94 620 Q109 605 130 605 Q151 605 166 620 Q181 635 181 656 Q181 677 166 692 Q151 707 130 707 Q109 707 94 692 Q79 677 79 656 Z " />
<glyph glyph-name="ogonek" unicode="&#x2db;" horiz-adv-x="260" d="M205 -198 Q180 -217 154 -228.5 Q128 -240 96 -240 Q75 -240 56 -234 Q37 -228 22.5 -216 Q8 -204 -0.5 -186.5 Q-9 -169 -9 -147 Q-9 -125 1 -102.5 Q11 -80 27 -58.5 Q43 -37 61 -19 Q79 -1 96 12 L164 12 Q152 1 137.5 -14.5 Q123 -30 110.5 -48.5 Q98 -67 89.5 -86 Q81 -105 81 -122 Q81 -139 93 -153.5 Q105 -168 123 -168 Q137 -168 151.5 -161 Q166 -154 177 -145 L205 -198 Z " />
<glyph glyph-name="hungarumlaut" unicode="&#x2dd;" horiz-adv-x="260" d="M-1 708 L203 708 L30 564 L-102 564 L-1 708 Z M263 708 L467 708 L294 564 L162 564 L263 708 Z " />
<glyph glyph-name="uni0394" unicode="&#x394;" horiz-adv-x="693" d="M27 78 L267 721 L432 721 L665 79 L665 0 L27 0 L27 78 Z M515 109 L403 402 Q397 421 388.5 445.5 Q380 470 372 494.5 Q364 519 356.5 541.5 Q349 564 345 580 L342 580 Q339 567 332.5 547.5 Q326 528 318.5 505.5 Q311 483 303 460 Q295 437 289 417 L170 109 L515 109 Z " />
<glyph glyph-name="uni03A9" unicode="&#x3a9;" horiz-adv-x="751" d="M182 112 Q158 133 135 161 Q112 189 94 224.5 Q76 260 65 302 Q54 344 54 392 Q54 458 77.5 517 Q101 576 143.5 620 Q186 664 245.5 690 Q305 716 378 716 Q455 716 514.5 687.5 Q574 659 614.5 613.5 Q655 568 675.5 511.5 Q696 455 696 398 Q696 350 685 307 Q674 264 655.5 227.5 Q637 191 613.5 162 Q590 133 565 112 L565 109 L710 109 L710 0 L427 0 L427 81 Q452 97 475.5 122 Q499 147 517 182 Q535 217 545.5 263.5 Q556 310 556 369 Q556 415 544.5 458 Q533 501 510 533.5 Q487 566 453.5 585.5 Q420 605 377 605 Q336 605 302 587 Q268 569 244 536.5 Q220 504 207 460 Q194 416 194 364 Q194 310 204.5 264.5 Q215 219 232.5 183 Q250 147 273.5 121.5 Q297 96 323 81 L323 0 L39 0 L39 109 L182 109 L182 112 Z " />
<glyph glyph-name="uni03BC" unicode="&#x3bc;" horiz-adv-x="574" d="M521 0 L377 0 L377 66 L375 66 Q367 52 354.5 38 Q342 24 324 13 Q306 2 283 -5 Q260 -12 233 -12 Q216 -12 203 -9 L203 -228 L53 -228 L53 486 L203 486 L203 248 Q203 227 204.5 204.5 Q206 182 213.5 163 Q221 144 236.5 132 Q252 120 281 120 Q310 120 328 130.5 Q346 141 355.5 158.5 Q365 176 368 198 Q371 220 371 244 L371 486 L521 486 L521 0 Z " />
<glyph glyph-name="pi" unicode="&#x3c0;" horiz-adv-x="637" d="M538 416 L538 154 Q538 97 542 60.5 Q546 24 552 0 L418 0 Q408 16 404 54.5 Q400 93 400 147 L400 416 L258 416 Q256 375 250.5 319 Q245 263 236.5 204.5 Q228 146 216.5 92 Q205 38 192 0 L58 0 Q71 43 82.5 98 Q94 153 102 210 Q110 267 115.5 321 Q121 375 122 416 Q85 416 60.5 413.5 Q36 411 19 406 L4 495 Q24 511 66.5 520.5 Q109 530 178 530 L622 530 L612 416 L538 416 Z " />
<glyph glyph-name="fraction" unicode="&#x2044;" horiz-adv-x="167" d="M244 740 L328 693 L-85 -32 L-161 11 L244 740 Z " />
<glyph glyph-name="afii61289" unicode="&#x2113;" horiz-adv-x="546" d="M526 136 Q484 56 425 23.5 Q366 -9 303 -9 Q257 -9 223.5 4 Q190 17 167 39 Q144 61 131 91 Q118 121 113 154 Q113 162 112 165 Q99 155 86 144.5 Q73 134 59 125 L24 196 Q47 215 69 231.5 Q91 248 111 266 L111 514 Q111 583 126 632.5 Q141 682 166.5 714 Q192 746 226.5 761 Q261 776 301 776 Q340 776 368.5 761.5 Q397 747 415.5 722.5 Q434 698 443 665 Q452 632 452 595 Q452 504 396 419 Q340 334 243 244 L244 205 Q246 154 271.5 127.5 Q297 101 335 101 Q356 101 375.5 109 Q395 117 412.5 130 Q430 143 444.5 159.5 Q459 176 470 194 L526 136 Z M243 367 Q297 427 330 486.5 Q363 546 363 598 Q363 636 350.5 658.5 Q338 681 307 681 Q296 681 284.5 673.5 Q273 666 264 648 Q255 630 249 599 Q243 568 243 522 L243 367 Z " />
<glyph glyph-name="Omega" unicode="&#x2126;" horiz-adv-x="751" d="M182 112 Q158 133 135 161 Q112 189 94 224.5 Q76 260 65 302 Q54 344 54 392 Q54 458 77.5 517 Q101 576 143.5 620 Q186 664 245.5 690 Q305 716 378 716 Q455 716 514.5 687.5 Q574 659 614.5 613.5 Q655 568 675.5 511.5 Q696 455 696 398 Q696 350 685 307 Q674 264 655.5 227.5 Q637 191 613.5 162 Q590 133 565 112 L565 109 L710 109 L710 0 L427 0 L427 81 Q452 97 475.5 122 Q499 147 517 182 Q535 217 545.5 263.5 Q556 310 556 369 Q556 415 544.5 458 Q533 501 510 533.5 Q487 566 453.5 585.5 Q420 605 377 605 Q336 605 302 587 Q268 569 244 536.5 Q220 504 207 460 Q194 416 194 364 Q194 310 204.5 264.5 Q215 219 232.5 183 Q250 147 273.5 121.5 Q297 96 323 81 L323 0 L39 0 L39 109 L182 109 L182 112 Z " />
<glyph glyph-name="estimated" unicode="&#x212e;" horiz-adv-x="779" d="M195 352 L195 110 Q274 31 389 31 Q473 31 534 69 Q595 107 646 191 L693 163 Q663 115 631.5 81 Q600 47 563.5 25 Q527 3 484 -7 Q441 -17 389 -17 Q310 -17 246.5 11.5 Q183 40 138 90 Q93 140 68.5 207.5 Q44 275 44 352 Q44 430 68.5 497 Q93 564 138 613.5 Q183 663 246.5 691.5 Q310 720 389 720 Q466 720 529.5 693 Q593 666 639 617 Q685 568 710 500.5 Q735 433 735 352 L195 352 Z M584 400 L584 593 Q500 674 387 674 Q274 674 195 593 L195 400 L584 400 Z " />
<glyph glyph-name="partialdiff" unicode="&#x2202;" horiz-adv-x="606" d="M68 737 Q80 746 98 756.5 Q116 767 140 776 Q164 785 195 791 Q226 797 264 797 Q323 797 376.5 772 Q430 747 470 698.5 Q510 650 533.5 577.5 Q557 505 557 410 Q557 317 536.5 240 Q516 163 477.5 108 Q439 53 384 22.5 Q329 -8 259 -8 Q202 -8 160.5 14.5 Q119 37 92 72.5 Q65 108 51.5 150.5 Q38 193 38 233 Q38 293 55.5 342 Q73 391 104 425.5 Q135 460 176 478.5 Q217 497 265 497 Q298 497 324 487.5 Q350 478 369.5 465 Q389 452 402 438 Q415 424 421 414 L422 414 Q423 420 423 430.5 Q423 441 423 447 Q423 494 410.5 537.5 Q398 581 375 614 Q352 647 319 666.5 Q286 686 246 686 Q197 686 162 669.5 Q127 653 107 638 L68 737 Z M273 104 Q301 104 324.5 122.5 Q348 141 365.5 169.5 Q383 198 394 233.5 Q405 269 409 304 Q406 316 396.5 330.5 Q387 345 372 358.5 Q357 372 337.5 381 Q318 390 294 390 Q267 390 245 377 Q223 364 207.5 341.5 Q192 319 183 290 Q174 261 174 229 Q174 203 181 180.5 Q188 158 200.5 141 Q213 124 231 114 Q249 104 272 104 L273 104 Z " />
<glyph glyph-name="increment" unicode="&#x2206;" horiz-adv-x="693" d="M27 78 L267 721 L432 721 L665 79 L665 0 L27 0 L27 78 Z M515 109 L403 402 Q397 421 388.5 445.5 Q380 470 372 494.5 Q364 519 356.5 541.5 Q349 564 345 580 L342 580 Q339 567 332.5 547.5 Q326 528 318.5 505.5 Q311 483 303 460 Q295 437 289 417 L170 109 L515 109 Z " />
<glyph glyph-name="product" unicode="&#x220f;" horiz-adv-x="759" d="M626 583 L626 -97 L491 -97 L491 583 L267 583 L267 -97 L132 -97 L132 583 L24 583 L24 705 L734 705 L734 583 L626 583 Z " />
<glyph glyph-name="summation" unicode="&#x2211;" horiz-adv-x="588" d="M23 -97 L23 -12 L275 304 L33 611 L33 705 L552 705 L552 590 L218 590 L218 586 L429 325 L196 30 L196 27 L569 27 L569 -97 L23 -97 Z " />
<glyph glyph-name="minus" unicode="&#x2212;" horiz-adv-x="666" d="M59 366 L607 366 L607 240 L59 240 L59 366 Z " />
<glyph glyph-name="uni2215" unicode="&#x2215;" horiz-adv-x="167" d="M244 740 L328 693 L-85 -32 L-161 11 L244 740 Z " />
<glyph glyph-name="uni2219" unicode="&#x2219;" horiz-adv-x="296" d="M56 283 Q56 302 63 319 Q70 336 82.5 348.5 Q95 361 112 368 Q129 375 148 375 Q167 375 184 368 Q201 361 213.5 348.5 Q226 336 233 319 Q240 302 240 283 Q240 264 233 247 Q226 230 213.5 217.5 Q201 205 184 198 Q167 191 148 191 Q129 191 112 198 Q95 205 82.5 217.5 Q70 230 63 247 Q56 264 56 283 Z " />
<glyph glyph-name="radical" unicode="&#x221a;" horiz-adv-x="624" d="M398 -142 L289 -142 L132 298 L55 267 L32 341 L213 415 L322 93 Q327 70 332.5 47 Q338 24 343 6 L344 5 Q347 22 351.5 47.5 Q356 73 361 99 L539 846 L635 846 L398 -142 Z " />
<glyph glyph-name="infinity" unicode="&#x221e;" horiz-adv-x="803" d="M753 291 Q753 249 739 215.5 Q725 182 702 158.5 Q679 135 649 123 Q619 111 587 111 Q543 111 498.5 135.5 Q454 160 402 228 Q382 203 361.5 181.5 Q341 160 318 144.5 Q295 129 269 120 Q243 111 212 111 Q180 111 150.5 123.5 Q121 136 98.5 159.5 Q76 183 62.5 215 Q49 247 49 286 Q49 325 62 357.5 Q75 390 98 413.5 Q121 437 152.5 450 Q184 463 221 463 Q279 463 322.5 432 Q366 401 406 349 Q422 367 440.5 387 Q459 407 481.5 424 Q504 441 531.5 452 Q559 463 593 463 Q627 463 656 451 Q685 439 706.5 416.5 Q728 394 740.5 362.5 Q753 331 753 292 L753 291 Z M223 185 Q244 185 263 193.5 Q282 202 298.5 216 Q315 230 331 247.5 Q347 265 362 282 Q346 303 331 323 Q316 343 299 358 Q282 373 262.5 382 Q243 391 218 391 Q173 391 148.5 361 Q124 331 124 285 Q124 243 151.5 214 Q179 185 221 185 L223 185 Z M584 391 Q560 391 540 380.5 Q520 370 502.5 354.5 Q485 339 470.5 321 Q456 303 444 289 Q467 260 485.5 240 Q504 220 520.5 208 Q537 196 553.5 190.5 Q570 185 589 185 Q610 185 627 194.5 Q644 204 655 218.5 Q666 233 672 250.5 Q678 268 678 285 Q678 333 652.5 362 Q627 391 585 391 L584 391 Z " />
<glyph glyph-name="integral" unicode="&#x222b;" horiz-adv-x="410" d="M376 769 Q368 773 358.5 775.5 Q349 778 338 778 Q323 778 309.5 772 Q296 766 286 752 Q269 731 263.5 689 Q258 647 258 584 Q258 522 260.5 464.5 Q263 407 266 349 Q269 291 271.5 230.5 Q274 170 274 101 Q274 29 263.5 -20.5 Q253 -70 236 -100 Q215 -142 177.5 -159 Q140 -176 101 -176 Q76 -176 53.5 -170.5 Q31 -165 19 -159 L36 -64 Q44 -67 55.5 -71 Q67 -75 81 -75 Q94 -75 106.5 -70.5 Q119 -66 127 -55 Q141 -36 148.5 -1.5 Q156 33 156 101 Q156 170 153.5 232 Q151 294 148 353.5 Q145 413 142.5 472.5 Q140 532 140 597 Q140 686 154.5 738.5 Q169 791 203 826 Q226 851 259 862 Q292 873 326 873 Q346 873 363.5 869 Q381 865 390 861 L376 769 Z " />
<glyph glyph-name="approxequal" unicode="&#x2248;" horiz-adv-x="666" d="M591 228 Q562 171 521.5 134 Q481 97 433 97 Q405 97 381.5 108 Q358 119 335.5 132.5 Q313 146 289 157 Q265 168 237 168 Q217 168 195.5 142.5 Q174 117 154 83 L75 161 Q88 188 106.5 211.5 Q125 235 147 252 Q169 269 193.5 279 Q218 289 243 289 Q274 289 297.5 278 Q321 267 342 254.5 Q363 242 384.5 231 Q406 220 433 220 Q451 220 470.5 241.5 Q490 263 513 303 L591 228 Z M591 426 Q562 366 522 333.5 Q482 301 434 301 Q409 301 384.5 312 Q360 323 335.5 336 Q311 349 286.5 360 Q262 371 237 371 Q228 371 217.5 363.5 Q207 356 196.5 344 Q186 332 175 317 Q164 302 154 287 L75 362 Q88 388 106 411 Q124 434 146 451 Q168 468 192.5 477.5 Q217 487 243 487 Q268 487 293 476 Q318 465 342 452.5 Q366 440 389 429 Q412 418 434 418 Q452 418 472 441 Q492 464 513 502 L591 426 Z " />
<glyph glyph-name="notequal" unicode="&#x2260;" horiz-adv-x="666" d="M59 462 L338 462 L388 578 L494 535 L462 462 L607 462 L607 336 L407 336 L378 270 L607 270 L607 144 L323 144 L271 25 L169 63 L203 144 L59 144 L59 270 L257 270 L285 336 L59 336 L59 462 Z " />
<glyph glyph-name="lessequal" unicode="&#x2264;" horiz-adv-x="666" d="M69 313 L69 426 L551 619 L551 479 L225 371 L551 262 L551 124 L69 313 Z M65 -15 L65 108 L555 108 L555 -15 L65 -15 Z " />
<glyph glyph-name="greaterequal" unicode="&#x2265;" horiz-adv-x="666" d="M69 124 L69 262 L395 371 L69 479 L69 619 L551 426 L551 313 L69 124 Z M65 -15 L65 108 L555 108 L555 -15 L65 -15 Z " />
<glyph glyph-name="lozenge" unicode="&#x25ca;" horiz-adv-x="623" d="M363 -51 L255 -51 L51 352 L259 755 L368 755 L572 352 L363 -51 Z M333 589 Q327 603 321.5 618.5 Q316 634 313 647 L310 647 Q303 619 290 589 L171 355 L291 111 Q297 97 302 81.5 Q307 66 309 56 L313 56 Q316 67 321.5 84 Q327 101 331 109 L452 349 L333 589 Z " />
<glyph glyph-name="grave.cap" unicode="&#xe300;" horiz-adv-x="260" d="M232 760 L100 760 L-73 904 L131 904 L232 760 Z " />
<glyph glyph-name="acute.cap" unicode="&#xe301;" horiz-adv-x="260" d="M131 904 L335 904 L162 760 L30 760 L131 904 Z " />
<glyph glyph-name="circumflex.cap" unicode="&#xe302;" horiz-adv-x="260" d="M191 760 L128 838 L66 760 L-69 760 L50 904 L213 904 L329 760 L191 760 Z " />
<glyph glyph-name="caron.cap" unicode="&#xe303;" horiz-adv-x="260" d="M65 931 L128 853 L190 931 L325 931 L206 787 L43 787 L-73 931 L65 931 Z " />
<glyph glyph-name="tilde.cap" unicode="&#xe304;" horiz-adv-x="260" d="M-66 766 Q-62 791 -52 816 Q-42 841 -26.5 860.5 Q-11 880 11 892 Q33 904 61 904 Q86 904 106 898 Q126 892 148 883 Q162 878 175.5 873 Q189 868 204 868 Q221 868 231 878.5 Q241 889 248 904 L326 904 Q321 875 312 850 Q303 825 287.5 806.5 Q272 788 249.5 777 Q227 766 196 766 Q174 766 154.5 772.5 Q135 779 118 787 Q101 795 85.5 801.5 Q70 808 55 808 Q38 808 28 794 Q18 780 13 766 L-66 766 Z " />
<glyph glyph-name="dieresis.cap" unicode="&#xe305;" horiz-adv-x="260" d="M25 754 Q7 754 -8 761 Q-23 768 -34 780 Q-45 792 -51.5 807.5 Q-58 823 -58 840 Q-58 856 -51.5 871 Q-45 886 -34 897 Q-23 908 -8.5 915 Q6 922 23 922 Q58 922 84 899 Q110 876 110 840 Q110 804 86 779 Q62 754 25 754 Z M233 754 Q215 754 200 761 Q185 768 174 780 Q163 792 156.5 807.5 Q150 823 150 840 Q150 856 156.5 871 Q163 886 174 897 Q185 908 199.5 915 Q214 922 231 922 Q266 922 292 899 Q318 876 318 840 Q318 804 294 779 Q270 754 233 754 Z " />
<glyph glyph-name="macron.cap" unicode="&#xe306;" horiz-adv-x="260" d="M300 787 L-40 787 L-40 883 L300 883 L300 787 Z " />
<glyph glyph-name="breve.cap" unicode="&#xe307;" horiz-adv-x="260" d="M26 904 Q29 889 39.5 880 Q50 871 64.5 865.5 Q79 860 96 858 Q113 856 130 856 Q169 856 196.5 863.5 Q224 871 235 904 L314 904 Q310 866 294 838.5 Q278 811 253.5 793.5 Q229 776 197.5 768 Q166 760 130 760 Q95 760 62.5 767.5 Q30 775 4.5 792.5 Q-21 810 -36.5 837.5 Q-52 865 -54 904 L26 904 Z " />
<glyph glyph-name="ring.cap" unicode="&#xe308;" horiz-adv-x="260" d="M130 731 Q107 731 87 740 Q67 749 52 764 Q37 779 28 799 Q19 819 19 842 Q19 864 28 884.5 Q37 905 52 920 Q67 935 87 944 Q107 953 130 953 Q152 953 172.5 944 Q193 935 208 920 Q223 905 232 884.5 Q241 864 241 842 Q241 819 232 799 Q223 779 208 764 Q193 749 172.5 740 Q152 731 130 731 Z M79 842 Q79 821 94 806 Q109 791 130 791 Q151 791 166 806 Q181 821 181 842 Q181 863 166 878 Q151 893 130 893 Q109 893 94 878 Q79 863 79 842 Z " />
<glyph glyph-name="hungarumlaut.cap" unicode="&#xe309;" horiz-adv-x="260" d="M-1 904 L203 904 L30 760 L-102 760 L-1 904 Z M263 904 L467 904 L294 760 L162 760 L263 904 Z " />
<glyph glyph-name="dotaccent.cap" unicode="&#xe30a;" horiz-adv-x="260" d="M129 754 Q111 754 96 761 Q81 768 70 780 Q59 792 52.5 807.5 Q46 823 46 840 Q46 856 52.5 871 Q59 886 70 897 Q81 908 95.5 915 Q110 922 127 922 Q162 922 188 899 Q214 876 214 840 Q214 804 190 779 Q166 754 129 754 Z " />
<glyph glyph-name="caron.alt" unicode="&#xe30b;" horiz-adv-x="260" d="M81 708 L215 708 L135 509 L37 509 L81 708 Z " />
<glyph glyph-name="commaaccent" unicode="&#xe30c;" horiz-adv-x="260" d="M91 -61 L235 -61 L145 -260 L27 -260 L91 -61 Z " />
<glyph glyph-name="commaaccent.alt" unicode="&#xe30d;" horiz-adv-x="260" d="M161 584 L17 584 L107 783 L225 783 L161 584 Z " />
<glyph glyph-name="uniF8FF" unicode="&#xf8ff;" horiz-adv-x="512" d="M222 117 L222 184 L278 184 L278 117 L222 117 Z M225 234 L223 251 Q223 307 236 332 Q243 345 254 359.5 Q265 374 282 391 Q314 421 323 438.5 Q332 456 332 474 Q332 510 309.5 534.5 Q287 559 256 559 Q225 559 202.5 537 Q180 515 174 464 L124 472 Q131 544 168 576.5 Q205 609 259 609 Q313 609 348 573.5 Q383 538 383 478 Q383 446 370.5 419.5 Q358 393 320 358 Q283 325 277 306 Q271 286 271 234 L225 234 Z M462 50 L462 667 L50 667 L50 50 L462 50 Z M512 718 L512 0 L0 0 L0 718 L512 718 Z " />
<glyph glyph-name="fi" unicode="&#xfb01;" horiz-adv-x="630" d="M425 486 L575 486 L575 0 L425 0 L425 486 Z M413 639 Q413 675 438.5 700.5 Q464 726 500 726 Q536 726 561.5 700.5 Q587 675 587 639 Q587 603 561.5 577.5 Q536 552 500 552 Q464 552 438.5 577.5 Q413 603 413 639 Z M105 366 L6 366 L6 486 L105 486 L105 572 Q105 612 112 647.5 Q119 683 139 710 Q159 737 196.5 752.5 Q234 768 295 768 Q318 768 340 766 Q362 764 383 759 L376 632 Q363 637 352 639.5 Q341 642 327 642 Q291 642 273 626.5 Q255 611 255 563 L255 486 L366 486 L366 366 L255 366 L255 0 L105 0 L105 366 Z " />
<glyph glyph-name="fl" unicode="&#xfb02;" horiz-adv-x="630" d="M425 756 L575 756 L575 0 L425 0 L425 756 Z M105 366 L6 366 L6 486 L105 486 L105 572 Q105 612 112 647.5 Q119 683 139 710 Q159 737 196.5 752.5 Q234 768 295 768 Q318 768 340 766 Q362 764 383 759 L376 632 Q363 637 352 639.5 Q341 642 327 642 Q291 642 273 626.5 Q255 611 255 563 L255 486 L366 486 L366 366 L255 366 L255 0 L105 0 L105 366 Z " />
<glyph glyph-name="gravecmb" unicode="&#x300;" d="M45 564 L-87 564 L-260 708 L-56 708 L45 564 Z " />
<glyph glyph-name="acutecmb" unicode="&#x301;" d="M-159 708 L45 708 L-128 564 L-260 564 L-159 708 Z " />
<glyph glyph-name="circumflexcmb" unicode="&#x302;" d="M0 564 L-63 642 L-125 564 L-260 564 L-141 708 L22 708 L138 564 L0 564 Z " />
<glyph glyph-name="tildecmb" unicode="&#x303;" d="M-260 570 Q-256 595 -246 620 Q-236 645 -220.5 664.5 Q-205 684 -183 696 Q-161 708 -133 708 Q-108 708 -88 702 Q-68 696 -46 687 Q-32 682 -18.5 677 Q-5 672 10 672 Q27 672 37 682.5 Q47 693 54 708 L132 708 Q127 679 118 654 Q109 629 93.5 610.5 Q78 592 55.5 581 Q33 570 2 570 Q-20 570 -39.5 576.5 Q-59 583 -76 591 Q-93 599 -108.5 605.5 Q-124 612 -139 612 Q-156 612 -166 598 Q-176 584 -181 570 L-260 570 Z " />
<glyph glyph-name="macroncmb" unicode="&#x304;" d="M80 591 L-260 591 L-260 687 L80 687 L80 591 Z " />
<glyph glyph-name="brevecmb" unicode="&#x306;" d="M-180 708 Q-177 693 -166.5 684 Q-156 675 -141.5 669.5 Q-127 664 -110 662 Q-93 660 -76 660 Q-37 660 -9.5 667.5 Q18 675 29 708 L108 708 Q104 670 88 642.5 Q72 615 47.5 597.5 Q23 580 -8.5 572 Q-40 564 -76 564 Q-112 564 -144 571.5 Q-176 579 -201 596.5 Q-226 614 -242 641.5 Q-258 669 -260 708 L-180 708 Z " />
<glyph glyph-name="dotaccentcmb" unicode="&#x307;" d="M-177 558 Q-195 558 -210 565 Q-225 572 -236 584 Q-247 596 -253.5 611.5 Q-260 627 -260 644 Q-260 660 -253.5 675 Q-247 690 -236 701 Q-225 712 -210.5 719 Q-196 726 -179 726 Q-144 726 -118 703 Q-92 680 -92 644 Q-92 608 -116 583 Q-140 558 -177 558 Z " />
<glyph glyph-name="dieresiscmb" unicode="&#x308;" d="M-177 558 Q-195 558 -210 565 Q-225 572 -236 584 Q-247 596 -253.5 611.5 Q-260 627 -260 644 Q-260 660 -253.5 675 Q-247 690 -236 701 Q-225 712 -210.5 719 Q-196 726 -179 726 Q-144 726 -118 703 Q-92 680 -92 644 Q-92 608 -116 583 Q-140 558 -177 558 Z M31 558 Q13 558 -2 565 Q-17 572 -28 584 Q-39 596 -45.5 611.5 Q-52 627 -52 644 Q-52 660 -45.5 675 Q-39 690 -28 701 Q-17 712 -2.5 719 Q12 726 29 726 Q64 726 90 703 Q116 680 116 644 Q116 608 92 583 Q68 558 31 558 Z " />
<glyph glyph-name="hookabovecmb" unicode="&#x309;" d="M-362 550 Q-362 567 -356 577.5 Q-350 588 -338 597 Q-320 612 -305 622 Q-290 632 -279 641 Q-268 650 -261 658.5 Q-254 667 -254 676 Q-255 693 -268 702 Q-281 711 -301 711 Q-331 711 -346.5 696.5 Q-362 682 -364 664 L-462 668 Q-455 722 -412 751 Q-369 780 -302 781 Q-273 781 -247.5 775 Q-222 769 -202 756.5 Q-182 744 -171 725.5 Q-160 707 -160 682 Q-160 667 -164.5 655.5 Q-169 644 -177 632 Q-185 620 -201 607.5 Q-217 595 -240 580 Q-255 571 -260.5 562 Q-266 553 -265 545 L-266 529 L-362 528 L-362 550 Z " />
<glyph glyph-name="ringcmb" unicode="&#x30a;" d="M-149 545 Q-172 545 -192 554 Q-212 563 -227 578 Q-242 593 -251 613 Q-260 633 -260 656 Q-260 679 -251 699 Q-242 719 -227 734 Q-212 749 -192 758 Q-172 767 -149 767 Q-126 767 -106 758 Q-86 749 -71 734 Q-56 719 -47 699 Q-38 679 -38 656 Q-38 633 -47 613 Q-56 593 -71 578 Q-86 563 -106 554 Q-126 545 -149 545 Z M-200 656 Q-200 635 -185 620 Q-170 605 -149 605 Q-128 605 -113 620 Q-98 635 -98 656 Q-98 677 -113 692 Q-128 707 -149 707 Q-170 707 -185 692 Q-200 677 -200 656 Z " />
<glyph glyph-name="hungarumlautcmb" unicode="&#x30b;" d="M-159 708 L45 708 L-128 564 L-260 564 L-159 708 Z M105 708 L309 708 L136 564 L4 564 L105 708 Z " />
<glyph glyph-name="caroncmb" unicode="&#x30c;" d="M-122 708 L-59 630 L3 708 L138 708 L19 564 L-144 564 L-260 708 L-122 708 Z " />
<glyph glyph-name="doublegravecmb" unicode="&#x30f;" d="M45 564 L-87 564 L-260 708 L-56 708 L45 564 Z M-211 565 L-343 565 L-516 709 L-312 709 L-211 565 Z " />
<glyph glyph-name="invertedbrevecmb" unicode="&#x311;" d="M-288 708 Q-285 693 -274.5 684 Q-264 675 -249.5 669.5 Q-235 664 -218 662 Q-201 660 -184 660 Q-145 660 -117.5 667.5 Q-90 675 -79 708 L0 708 Q-4 670 -20 642.5 Q-36 615 -60.5 597.5 Q-85 580 -116.5 572 Q-148 564 -184 564 Q-220 564 -252 571.5 Q-284 579 -309 596.5 Q-334 614 -350 641.5 Q-366 669 -368 708 L-288 708 Z " />
<glyph glyph-name="horncmb" unicode="&#x31b;" d="M-222 718 L-78 718 L-168 436 L-296 436 L-222 718 Z " />
<glyph glyph-name="dotbelowcmb" unicode="&#x323;" d="M-296 -162 Q-296 -143 -289 -126 Q-282 -109 -269.5 -96.5 Q-257 -84 -240 -77 Q-223 -70 -204 -70 Q-185 -70 -168 -77 Q-151 -84 -138.5 -96.5 Q-126 -109 -119 -126 Q-112 -143 -112 -162 Q-112 -181 -119 -198 Q-126 -215 -138.5 -227.5 Q-151 -240 -168 -247 Q-185 -254 -204 -254 Q-223 -254 -240 -247 Q-257 -240 -269.5 -227.5 Q-282 -215 -289 -198 Q-296 -181 -296 -162 Z " />
<glyph glyph-name="dieresisbelowcmb" unicode="&#x324;" d="M-177 -238 Q-195 -238 -210 -231 Q-225 -224 -236 -212 Q-247 -200 -253.5 -184.5 Q-260 -169 -260 -152 Q-260 -136 -253.5 -121 Q-247 -106 -236 -95 Q-225 -84 -210.5 -77 Q-196 -70 -179 -70 Q-144 -70 -118 -93 Q-92 -116 -92 -152 Q-92 -188 -116 -213 Q-140 -238 -177 -238 Z M31 -238 Q13 -238 -2 -231 Q-17 -224 -28 -212 Q-39 -200 -45.5 -184.5 Q-52 -169 -52 -152 Q-52 -136 -45.5 -121 Q-39 -106 -28 -95 Q-17 -84 -2.5 -77 Q12 -70 29 -70 Q64 -70 90 -93 Q116 -116 116 -152 Q116 -188 92 -213 Q68 -238 31 -238 Z " />
<glyph glyph-name="ringbelowcmb" unicode="&#x325;" d="M-149 -292 Q-172 -292 -192 -283 Q-212 -274 -227 -259 Q-242 -244 -251 -224 Q-260 -204 -260 -181 Q-260 -158 -251 -138 Q-242 -118 -227 -103 Q-212 -88 -192 -79 Q-172 -70 -149 -70 Q-126 -70 -106 -79 Q-86 -88 -71 -103 Q-56 -118 -47 -138 Q-38 -158 -38 -181 Q-38 -204 -47 -224 Q-56 -244 -71 -259 Q-86 -274 -106 -283 Q-126 -292 -149 -292 Z M-200 -181 Q-200 -202 -185 -217 Q-170 -232 -149 -232 Q-128 -232 -113 -217 Q-98 -202 -98 -181 Q-98 -160 -113 -145 Q-128 -130 -149 -130 Q-170 -130 -185 -145 Q-200 -160 -200 -181 Z " />
<glyph glyph-name="commabelowcmb" unicode="&#x326;" d="M-222 -70 L-78 -70 L-168 -352 L-296 -352 L-222 -70 Z " />
<glyph glyph-name="cedillacmb" unicode="&#x327;" d="M-122 -60 Q-100 -60 -77.5 -62.5 Q-55 -65 -37 -73.5 Q-19 -82 -7.5 -98.5 Q4 -115 4 -143 Q4 -170 -10.5 -189 Q-25 -208 -46.5 -219 Q-68 -230 -92 -235 Q-116 -240 -135 -240 Q-165 -240 -199.5 -231.5 Q-234 -223 -260 -210 L-235 -163 Q-223 -168 -203.5 -174 Q-184 -180 -158 -180 Q-146 -180 -134.5 -178.5 Q-123 -177 -113.5 -173.5 Q-104 -170 -98 -164 Q-92 -158 -92 -148 Q-92 -130 -109.5 -122 Q-127 -114 -142 -114 Q-159 -114 -178 -122 L-210 -93 L-148 0 L-81 0 L-122 -60 Z " />
<glyph glyph-name="ogonekcmb" unicode="&#x328;" d="M-46 -198 Q-71 -217 -97 -228.5 Q-123 -240 -155 -240 Q-176 -240 -195 -234 Q-214 -228 -228.5 -216 Q-243 -204 -251.5 -186.5 Q-260 -169 -260 -147 Q-260 -125 -250 -102.5 Q-240 -80 -224 -58.5 Q-208 -37 -190 -19 Q-172 -1 -155 12 L-87 12 Q-99 1 -113.5 -14.5 Q-128 -30 -140.5 -48.5 Q-153 -67 -161.5 -86 Q-170 -105 -170 -122 Q-170 -139 -158 -153.5 Q-146 -168 -128 -168 Q-114 -168 -99.5 -161 Q-85 -154 -74 -145 L-46 -198 Z " />
<glyph glyph-name="circumflexbelowcmb" unicode="&#x32d;" d="M0 -214 L-63 -136 L-125 -214 L-260 -214 L-141 -70 L22 -70 L138 -214 L0 -214 Z " />
<glyph glyph-name="brevebelowcmb" unicode="&#x32e;" d="M-180 -70 Q-177 -85 -166.5 -94 Q-156 -103 -141.5 -108.5 Q-127 -114 -110 -116 Q-93 -118 -76 -118 Q-37 -118 -9.5 -110.5 Q18 -103 29 -70 L108 -70 Q104 -108 88 -135.5 Q72 -163 47.5 -180.5 Q23 -198 -8.5 -206 Q-40 -214 -76 -214 Q-112 -214 -144 -206.5 Q-176 -199 -201 -181.5 Q-226 -164 -242 -136.5 Q-258 -109 -260 -70 L-180 -70 Z " />
<glyph glyph-name="tildebelowcmb" unicode="&#x330;" d="M-260 -208 Q-256 -183 -246 -158 Q-236 -133 -220.5 -113.5 Q-205 -94 -183 -82 Q-161 -70 -133 -70 Q-108 -70 -88 -76 Q-68 -82 -46 -91 Q-32 -96 -18.5 -101 Q-5 -106 10 -106 Q27 -106 37 -95.5 Q47 -85 54 -70 L132 -70 Q127 -99 118 -124 Q109 -149 93.5 -167.5 Q78 -186 55.5 -197 Q33 -208 2 -208 Q-20 -208 -39.5 -201.5 Q-59 -195 -76 -187 Q-93 -179 -108.5 -172.5 Q-124 -166 -139 -166 Q-156 -166 -166 -180 Q-176 -194 -181 -208 L-260 -208 Z " />
<glyph glyph-name="macronbelowcmb" unicode="&#x331;" d="M80 -166 L-260 -166 L-260 -70 L80 -70 L80 -166 Z " />
<glyph glyph-name="clickdental" unicode="&#x1c0;" horiz-adv-x="222" d="M174 750 L174 -250 L48 -250 L48 750 L174 750 Z " />
<glyph glyph-name="clicklateral" unicode="&#x1c1;" horiz-adv-x="444" d="M174 750 L174 -250 L48 -250 L48 750 L174 750 Z M396 750 L396 -250 L270 -250 L270 750 L396 750 Z " />
<glyph glyph-name="centigrade" unicode="&#x2103;" horiz-adv-x="1085" d="M200 460 Q237 460 262.5 485.5 Q288 511 288 548 Q288 585 262.5 610.5 Q237 636 200 636 Q163 636 137.5 610.5 Q112 585 112 548 Q112 511 137.5 485.5 Q163 460 200 460 Z M200 376 Q164 376 133 389.5 Q102 403 78.5 426.5 Q55 450 41.5 481 Q28 512 28 548 Q28 584 41.5 615 Q55 646 78.5 669.5 Q102 693 133 706.5 Q164 720 200 720 Q236 720 267 706.5 Q298 693 321.5 669.5 Q345 646 358.5 615 Q372 584 372 548 Q372 512 358.5 481 Q345 450 321.5 426.5 Q298 403 267 389.5 Q236 376 200 376 Z M935 524 Q912 552 878.5 567 Q845 582 801 582 Q757 582 719.5 565 Q682 548 654.5 517.5 Q627 487 611.5 445 Q596 403 596 354 Q596 304 611.5 262.5 Q627 221 654 190.5 Q681 160 717.5 143 Q754 126 796 126 Q844 126 881 146 Q918 166 942 202 L1072 105 Q1027 42 958 12 Q889 -18 816 -18 Q733 -18 663 8 Q593 34 542 82.5 Q491 131 462.5 200 Q434 269 434 354 Q434 439 462.5 508 Q491 577 542 625.5 Q593 674 663 700 Q733 726 816 726 Q846 726 878.5 720.5 Q911 715 942.5 703 Q974 691 1003 671 Q1032 651 1055 622 L935 524 Z " />
<glyph glyph-name="fahrenheit" unicode="&#x2109;" horiz-adv-x="993" d="M200 460 Q237 460 262.5 485.5 Q288 511 288 548 Q288 585 262.5 610.5 Q237 636 200 636 Q163 636 137.5 610.5 Q112 585 112 548 Q112 511 137.5 485.5 Q163 460 200 460 Z M200 376 Q164 376 133 389.5 Q102 403 78.5 426.5 Q55 450 41.5 481 Q28 512 28 548 Q28 584 41.5 615 Q55 646 78.5 669.5 Q102 693 133 706.5 Q164 720 200 720 Q236 720 267 706.5 Q298 693 321.5 669.5 Q345 646 358.5 615 Q372 584 372 548 Q372 512 358.5 481 Q345 450 321.5 426.5 Q298 403 267 389.5 Q236 376 200 376 Z M478 708 L953 708 L953 564 L634 564 L634 420 L929 420 L929 276 L634 276 L634 0 L478 0 L478 708 Z " />
<glyph glyph-name="kelvin" unicode="&#x212a;" horiz-adv-x="722" d="M78 708 L234 708 L234 414 L509 708 L713 708 L398 379 L740 0 L522 0 L234 336 L234 0 L78 0 L78 708 Z " />
<glyph glyph-name="Oneroman" unicode="&#x2160;" horiz-adv-x="296" d="M70 708 L226 708 L226 0 L70 0 L70 708 Z " />
<glyph glyph-name="Tworoman" unicode="&#x2161;" horiz-adv-x="592" d="M70 708 L226 708 L226 0 L70 0 L70 708 Z M366 708 L522 708 L522 0 L366 0 L366 708 Z " />
<glyph glyph-name="Threeroman" unicode="&#x2162;" horiz-adv-x="888" d="M70 708 L226 708 L226 0 L70 0 L70 708 Z M366 708 L522 708 L522 0 L366 0 L366 708 Z M662 708 L818 708 L818 0 L662 0 L662 708 Z " />
<glyph glyph-name="Fourroman" unicode="&#x2163;" horiz-adv-x="1000" d="M70 708 L226 708 L226 0 L70 0 L70 708 Z M298 708 L476 708 L651 244 L653 244 L831 708 L998 708 L706 0 L581 0 L298 708 Z " />
<glyph glyph-name="Fiveroman" unicode="&#x2164;" horiz-adv-x="704" d="M2 708 L180 708 L355 244 L357 244 L535 708 L702 708 L410 0 L285 0 L2 708 Z " />
<glyph glyph-name="Sixroman" unicode="&#x2165;" horiz-adv-x="1000" d="M2 708 L180 708 L355 244 L357 244 L535 708 L702 708 L410 0 L285 0 L2 708 Z M774 708 L930 708 L930 0 L774 0 L774 708 Z " />
<glyph glyph-name="Sevenroman" unicode="&#x2166;" horiz-adv-x="1296" d="M2 708 L180 708 L355 244 L357 244 L535 708 L702 708 L410 0 L285 0 L2 708 Z M774 708 L930 708 L930 0 L774 0 L774 708 Z M1070 708 L1226 708 L1226 0 L1070 0 L1070 708 Z " />
<glyph glyph-name="Eightroman" unicode="&#x2167;" horiz-adv-x="1592" d="M2 708 L180 708 L355 244 L357 244 L535 708 L702 708 L410 0 L285 0 L2 708 Z M774 708 L930 708 L930 0 L774 0 L774 708 Z M1070 708 L1226 708 L1226 0 L1070 0 L1070 708 Z M1366 708 L1522 708 L1522 0 L1366 0 L1366 708 Z " />
<glyph glyph-name="Nineroman" unicode="&#x2168;" horiz-adv-x="1018" d="M70 708 L226 708 L226 0 L70 0 L70 708 Z M544 370 L310 708 L506 708 L657 460 L802 708 L991 708 L762 373 L1018 0 L822 0 L649 285 L481 0 L296 0 L544 370 Z " />
<glyph glyph-name="Tenroman" unicode="&#x2169;" horiz-adv-x="722" d="M248 370 L14 708 L210 708 L361 460 L506 708 L695 708 L466 373 L722 0 L526 0 L353 285 L185 0 L0 0 L248 370 Z " />
<glyph glyph-name="Elevenroman" unicode="&#x216a;" horiz-adv-x="1018" d="M248 370 L14 708 L210 708 L361 460 L506 708 L695 708 L466 373 L722 0 L526 0 L353 285 L185 0 L0 0 L248 370 Z M792 708 L948 708 L948 0 L792 0 L792 708 Z " />
<glyph glyph-name="Twelveroman" unicode="&#x216b;" horiz-adv-x="1314" d="M248 370 L14 708 L210 708 L361 460 L506 708 L695 708 L466 373 L722 0 L526 0 L353 285 L185 0 L0 0 L248 370 Z M792 708 L948 708 L948 0 L792 0 L792 708 Z M1088 708 L1244 708 L1244 0 L1088 0 L1088 708 Z " />
<glyph glyph-name="uni216C" unicode="&#x216c;" horiz-adv-x="537" d="M78 708 L234 708 L234 144 L523 144 L523 0 L78 0 L78 708 Z " />
<glyph glyph-name="uni216D" unicode="&#x216d;" horiz-adv-x="685" d="M535 524 Q512 552 478.5 567 Q445 582 401 582 Q357 582 319.5 565 Q282 548 254.5 517.5 Q227 487 211.5 445 Q196 403 196 354 Q196 304 211.5 262.5 Q227 221 254 190.5 Q281 160 317.5 143 Q354 126 396 126 Q444 126 481 146 Q518 166 542 202 L672 105 Q627 42 558 12 Q489 -18 416 -18 Q333 -18 263 8 Q193 34 142 82.5 Q91 131 62.5 200 Q34 269 34 354 Q34 439 62.5 508 Q91 577 142 625.5 Q193 674 263 700 Q333 726 416 726 Q446 726 478.5 720.5 Q511 715 542.5 703 Q574 691 603 671 Q632 651 655 622 L535 524 Z " />
<glyph glyph-name="uni216E" unicode="&#x216e;" horiz-adv-x="759" d="M72 708 L306 708 Q391 708 467.5 689 Q544 670 601 627.5 Q658 585 691.5 517 Q725 449 725 352 Q725 266 692.5 200.5 Q660 135 605 90.5 Q550 46 478 23 Q406 0 327 0 L72 0 L72 708 Z M228 144 L309 144 Q363 144 409.5 155 Q456 166 490 191.5 Q524 217 543.5 258.5 Q563 300 563 360 Q563 412 543.5 450.5 Q524 489 491 514 Q458 539 413.5 551.5 Q369 564 320 564 L228 564 L228 144 Z " />
<glyph glyph-name="uni216F" unicode="&#x216f;" horiz-adv-x="944" d="M72 708 L308 708 L471 246 L473 246 L637 708 L872 708 L872 0 L716 0 L716 543 L714 543 L528 0 L409 0 L230 543 L228 543 L228 0 L72 0 L72 708 Z " />
<glyph glyph-name="oneroman" unicode="&#x2170;" horiz-adv-x="260" d="M55 486 L205 486 L205 0 L55 0 L55 486 Z M43 639 Q43 675 68.5 700.5 Q94 726 130 726 Q166 726 191.5 700.5 Q217 675 217 639 Q217 603 191.5 577.5 Q166 552 130 552 Q94 552 68.5 577.5 Q43 603 43 639 Z " />
<glyph glyph-name="tworoman" unicode="&#x2171;" horiz-adv-x="520" d="M55 486 L205 486 L205 0 L55 0 L55 486 Z M43 639 Q43 675 68.5 700.5 Q94 726 130 726 Q166 726 191.5 700.5 Q217 675 217 639 Q217 603 191.5 577.5 Q166 552 130 552 Q94 552 68.5 577.5 Q43 603 43 639 Z M315 486 L465 486 L465 0 L315 0 L315 486 Z M303 639 Q303 675 328.5 700.5 Q354 726 390 726 Q426 726 451.5 700.5 Q477 675 477 639 Q477 603 451.5 577.5 Q426 552 390 552 Q354 552 328.5 577.5 Q303 603 303 639 Z " />
<glyph glyph-name="threeroman" unicode="&#x2172;" horiz-adv-x="780" d="M55 486 L205 486 L205 0 L55 0 L55 486 Z M43 639 Q43 675 68.5 700.5 Q94 726 130 726 Q166 726 191.5 700.5 Q217 675 217 639 Q217 603 191.5 577.5 Q166 552 130 552 Q94 552 68.5 577.5 Q43 603 43 639 Z M315 486 L465 486 L465 0 L315 0 L315 486 Z M303 639 Q303 675 328.5 700.5 Q354 726 390 726 Q426 726 451.5 700.5 Q477 675 477 639 Q477 603 451.5 577.5 Q426 552 390 552 Q354 552 328.5 577.5 Q303 603 303 639 Z M575 486 L725 486 L725 0 L575 0 L575 486 Z M563 639 Q563 675 588.5 700.5 Q614 726 650 726 Q686 726 711.5 700.5 Q737 675 737 639 Q737 603 711.5 577.5 Q686 552 650 552 Q614 552 588.5 577.5 Q563 603 563 639 Z " />
<glyph glyph-name="fourroman" unicode="&#x2173;" horiz-adv-x="816" d="M55 486 L205 486 L205 0 L55 0 L55 486 Z M43 639 Q43 675 68.5 700.5 Q94 726 130 726 Q166 726 191.5 700.5 Q217 675 217 639 Q217 603 191.5 577.5 Q166 552 130 552 Q94 552 68.5 577.5 Q43 603 43 639 Z M262 486 L424 486 L547 156 L549 156 L663 486 L814 486 L622 0 L463 0 L262 486 Z " />
<glyph glyph-name="fiveroman" unicode="&#x2174;" horiz-adv-x="556" d="M2 486 L164 486 L287 156 L289 156 L403 486 L554 486 L362 0 L203 0 L2 486 Z " />
<glyph glyph-name="sixroman" unicode="&#x2175;" horiz-adv-x="816" d="M2 486 L164 486 L287 156 L289 156 L403 486 L554 486 L362 0 L203 0 L2 486 Z M611 486 L761 486 L761 0 L611 0 L611 486 Z M599 639 Q599 675 624.5 700.5 Q650 726 686 726 Q722 726 747.5 700.5 Q773 675 773 639 Q773 603 747.5 577.5 Q722 552 686 552 Q650 552 624.5 577.5 Q599 603 599 639 Z " />
<glyph glyph-name="sevenroman" unicode="&#x2176;" horiz-adv-x="1076" d="M2 486 L164 486 L287 156 L289 156 L403 486 L554 486 L362 0 L203 0 L2 486 Z M611 486 L761 486 L761 0 L611 0 L611 486 Z M599 639 Q599 675 624.5 700.5 Q650 726 686 726 Q722 726 747.5 700.5 Q773 675 773 639 Q773 603 747.5 577.5 Q722 552 686 552 Q650 552 624.5 577.5 Q599 603 599 639 Z M871 486 L1021 486 L1021 0 L871 0 L871 486 Z M859 639 Q859 675 884.5 700.5 Q910 726 946 726 Q982 726 1007.5 700.5 Q1033 675 1033 639 Q1033 603 1007.5 577.5 Q982 552 946 552 Q910 552 884.5 577.5 Q859 603 859 639 Z " />
<glyph glyph-name="eightroman" unicode="&#x2177;" horiz-adv-x="1336" d="M2 486 L164 486 L287 156 L289 156 L403 486 L554 486 L362 0 L203 0 L2 486 Z M611 486 L761 486 L761 0 L611 0 L611 486 Z M599 639 Q599 675 624.5 700.5 Q650 726 686 726 Q722 726 747.5 700.5 Q773 675 773 639 Q773 603 747.5 577.5 Q722 552 686 552 Q650 552 624.5 577.5 Q599 603 599 639 Z M871 486 L1021 486 L1021 0 L871 0 L871 486 Z M859 639 Q859 675 884.5 700.5 Q910 726 946 726 Q982 726 1007.5 700.5 Q1033 675 1033 639 Q1033 603 1007.5 577.5 Q982 552 946 552 Q910 552 884.5 577.5 Q859 603 859 639 Z M1131 486 L1281 486 L1281 0 L1131 0 L1131 486 Z M1119 639 Q1119 675 1144.5 700.5 Q1170 726 1206 726 Q1242 726 1267.5 700.5 Q1293 675 1293 639 Q1293 603 1267.5 577.5 Q1242 552 1206 552 Q1170 552 1144.5 577.5 Q1119 603 1119 639 Z " />
<glyph glyph-name="nineroman" unicode="&#x2178;" horiz-adv-x="816" d="M55 486 L205 486 L205 0 L55 0 L55 486 Z M43 639 Q43 675 68.5 700.5 Q94 726 130 726 Q166 726 191.5 700.5 Q217 675 217 639 Q217 603 191.5 577.5 Q166 552 130 552 Q94 552 68.5 577.5 Q43 603 43 639 Z M444 260 L282 486 L459 486 L545 354 L628 486 L795 486 L637 260 L824 0 L647 0 L541 162 L427 0 L252 0 L444 260 Z " />
<glyph glyph-name="tenroman" unicode="&#x2179;" horiz-adv-x="556" d="M184 260 L22 486 L199 486 L285 354 L368 486 L535 486 L377 260 L564 0 L387 0 L281 162 L167 0 L-8 0 L184 260 Z " />
<glyph glyph-name="elevenroman" unicode="&#x217a;" horiz-adv-x="816" d="M184 260 L22 486 L199 486 L285 354 L368 486 L535 486 L377 260 L564 0 L387 0 L281 162 L167 0 L-8 0 L184 260 Z M611 486 L761 486 L761 0 L611 0 L611 486 Z M599 639 Q599 675 624.5 700.5 Q650 726 686 726 Q722 726 747.5 700.5 Q773 675 773 639 Q773 603 747.5 577.5 Q722 552 686 552 Q650 552 624.5 577.5 Q599 603 599 639 Z " />
<glyph glyph-name="twelveroman" unicode="&#x217b;" horiz-adv-x="1076" d="M184 260 L22 486 L199 486 L285 354 L368 486 L535 486 L377 260 L564 0 L387 0 L281 162 L167 0 L-8 0 L184 260 Z M611 486 L761 486 L761 0 L611 0 L611 486 Z M599 639 Q599 675 624.5 700.5 Q650 726 686 726 Q722 726 747.5 700.5 Q773 675 773 639 Q773 603 747.5 577.5 Q722 552 686 552 Q650 552 624.5 577.5 Q599 603 599 639 Z M871 486 L1021 486 L1021 0 L871 0 L871 486 Z M859 639 Q859 675 884.5 700.5 Q910 726 946 726 Q982 726 1007.5 700.5 Q1033 675 1033 639 Q1033 603 1007.5 577.5 Q982 552 946 552 Q910 552 884.5 577.5 Q859 603 859 639 Z " />
<glyph glyph-name="uni217C" unicode="&#x217c;" horiz-adv-x="260" d="M55 756 L205 756 L205 0 L55 0 L55 756 Z " />
<glyph glyph-name="uni217D" unicode="&#x217d;" horiz-adv-x="482" d="M382 329 Q371 345 351 355.5 Q331 366 308 366 Q251 366 219.5 332 Q188 298 188 243 Q188 188 219.5 154 Q251 120 308 120 Q333 120 351 131 Q369 142 382 157 L481 53 Q446 17 398.5 2.5 Q351 -12 308 -12 Q252 -12 202.5 6 Q153 24 116.5 57.5 Q80 91 59 138 Q38 185 38 243 Q38 301 59 348 Q80 395 116.5 428.5 Q153 462 202.5 480 Q252 498 308 498 Q351 498 398.5 483.5 Q446 469 481 433 L382 329 Z " />
</font>
</svg>
