<?xml version="1.0" encoding="UTF-8"?>
<svg xmlns="http://www.w3.org/2000/svg" xmlns:xlink="http://www.w3.org/1999/xlink" version="1.2" >
<font id="Avenir Heavy">
<font-face  font-family="Avenir" units-per-em="1000" ascent="1000" descent="-325" font-style="normal" font-weight="900" font-stretch="normal" cap-height="708" x-height="480" underline-position="-75" underline-thickness="50" />
<missing-glyph  horiz-adv-x="512" d="M222 117 L222 184 L278 184 L278 117 L222 117 Z M225 234 L223 251 Q223 307 236 332 Q243 345 254 359.5 Q265 374 282 391 Q314 421 323 438.5 Q332 456 332 474 Q332 510 309.5 534.5 Q287 559 256 559 Q225 559 202.5 537 Q180 515 174 464 L124 472 Q131 544 168 576.5 Q205 609 259 609 Q313 609 348 573.5 Q383 538 383 478 Q383 446 370.5 419.5 Q358 393 320 358 Q283 325 277 306 Q271 286 271 234 L225 234 Z M462 50 L462 667 L50 667 L50 50 L462 50 Z M512 718 L512 0 L0 0 L0 718 L512 718 Z " />
<glyph glyph-name="nonmarkingreturn" unicode="&#xd;" d="" />
<glyph glyph-name="space" unicode="&#x20;" horiz-adv-x="296" d="" />
<glyph glyph-name="exclam" unicode="&#x21;" horiz-adv-x="296" d="M208 222 L88 222 L88 708 L208 708 L208 222 Z M68 70 Q68 102 91.5 125 Q115 148 148 148 Q180 148 204 126 Q228 104 228 72 Q228 40 204.5 17 Q181 -6 148 -6 Q132 -6 117.5 0 Q103 6 92 16 Q81 26 74.5 40 Q68 54 68 70 Z " />
<glyph glyph-name="quotedbl" unicode="&#x22;" horiz-adv-x="519" d="M120 708 L222 708 L222 444 L120 444 L120 708 Z M297 708 L399 708 L399 444 L297 444 L297 708 Z " />
<glyph glyph-name="numbersign" unicode="&#x23;" horiz-adv-x="592" d="M137 209 L47 209 L47 293 L148 293 L166 415 L76 415 L76 499 L177 499 L207 708 L295 708 L265 499 L368 499 L398 708 L485 708 L455 499 L545 499 L545 415 L443 415 L426 293 L516 293 L516 209 L416 209 L385 0 L298 0 L328 209 L224 209 L194 0 L107 0 L137 209 Z M253 415 L236 293 L339 293 L356 415 L253 415 Z " />
<glyph glyph-name="dollar" unicode="&#x24;" horiz-adv-x="592" d="M318 720 L327 720 Q378 720 431.5 702.5 Q485 685 523 651 L440 558 Q417 583 385 597.5 Q353 612 318 612 L318 412 L322 411 Q364 400 404.5 386 Q445 372 476.5 349.5 Q508 327 527.5 293 Q547 259 547 208 Q547 158 529 119.5 Q511 81 480 53.5 Q449 26 407.5 10 Q366 -6 318 -11 L318 -83 L264 -83 L264 -12 Q198 -13 137.5 8 Q77 29 31 77 L122 170 Q146 136 184 118 Q222 100 264 96 L264 307 L259 308 Q217 320 179 334.5 Q141 349 111.5 372.5 Q82 396 65 429.5 Q48 463 48 513 Q48 558 66 594 Q84 630 114 656.5 Q144 683 183 699 Q222 715 264 719 L264 786 L318 786 L318 720 Z M264 610 Q229 604 201.5 580.5 Q174 557 174 519 Q174 496 181.5 482 Q189 468 201 458 Q213 448 229.5 441.5 Q246 435 264 427 L264 610 Z M318 96 Q339 100 357.5 108.5 Q376 117 390 129.5 Q404 142 412.5 159.5 Q421 177 421 199 Q421 221 411.5 236 Q402 251 387 261 Q372 271 354 278 Q336 285 318 291 L318 96 Z " />
<glyph glyph-name="percent" unicode="&#x25;" horiz-adv-x="907" d="M505 174 Q505 213 519.5 246.5 Q534 280 559.5 305.5 Q585 331 618.5 345.5 Q652 360 691 360 Q730 360 763.5 345.5 Q797 331 822.5 305.5 Q848 280 862.5 246.5 Q877 213 877 174 Q877 135 862.5 101.5 Q848 68 822.5 42.5 Q797 17 763.5 2.5 Q730 -12 691 -12 Q652 -12 618.5 2.5 Q585 17 559.5 42.5 Q534 68 519.5 101.5 Q505 135 505 174 Z M781 174 Q781 212 755 238 Q729 264 691 264 Q653 264 627 238 Q601 212 601 174 Q601 136 627 110 Q653 84 691 84 Q729 84 755 110 Q781 136 781 174 Z M30 534 Q30 573 44.5 606.5 Q59 640 84.5 665.5 Q110 691 143.5 705.5 Q177 720 216 720 Q255 720 288.5 705.5 Q322 691 347.5 665.5 Q373 640 387.5 606.5 Q402 573 402 534 Q402 495 387.5 461.5 Q373 428 347.5 402.5 Q322 377 288.5 362.5 Q255 348 216 348 Q177 348 143.5 362.5 Q110 377 84.5 402.5 Q59 428 44.5 461.5 Q30 495 30 534 Z M306 534 Q306 572 280 598 Q254 624 216 624 Q178 624 152 598 Q126 572 126 534 Q126 496 152 470 Q178 444 216 444 Q254 444 280 470 Q306 496 306 534 Z M621 740 L704 702 L288 -32 L205 6 L621 740 Z " />
<glyph glyph-name="ampersand" unicode="&#x26;" horiz-adv-x="741" d="M574 167 L727 0 L572 0 L497 81 Q454 30 405 6 Q356 -18 288 -18 Q241 -18 197.5 -4.5 Q154 9 121 35.5 Q88 62 68 100.5 Q48 139 48 190 Q48 226 60 256.5 Q72 287 92.5 312.5 Q113 338 141 357.5 Q169 377 201 389 Q184 408 169.5 426 Q155 444 144 463 Q133 482 126.5 504 Q120 526 120 552 Q120 595 136.5 628 Q153 661 181 682.5 Q209 704 246 715 Q283 726 323 726 Q363 726 399 716 Q435 706 462.5 685.5 Q490 665 506.5 633 Q523 601 523 558 Q523 525 511 497.5 Q499 470 479 447.5 Q459 425 433.5 406.5 Q408 388 382 375 L496 252 L575 372 L716 372 L574 167 Z M325 618 Q290 618 265 598.5 Q240 579 240 547 Q240 533 246 519.5 Q252 506 262 492.5 Q272 479 283.5 467 Q295 455 307 444 Q322 452 339 462.5 Q356 473 370.5 486.5 Q385 500 394 516 Q403 532 403 552 Q403 581 380 599.5 Q357 618 325 618 Z M277 318 Q259 307 242 295.5 Q225 284 211 270 Q197 256 188.5 238 Q180 220 180 197 Q180 174 189 154 Q198 134 213.5 120 Q229 106 249 98 Q269 90 292 90 Q333 90 364 112 Q395 134 422 160 L277 318 Z " />
<glyph glyph-name="quotesingle" unicode="&#x27;" horiz-adv-x="296" d="M97 708 L199 708 L199 444 L97 444 L97 708 Z " />
<glyph glyph-name="parenleft" unicode="&#x28;" horiz-adv-x="296" d="M279 680 L278 676 Q218 592 184 491.5 Q150 391 150 288 Q150 184 184 83.5 Q218 -17 278 -101 L194 -156 Q125 -61 86.5 52 Q48 165 48 288 Q48 410 86.5 523.5 Q125 637 194 732 L279 680 Z " />
<glyph glyph-name="parenright" unicode="&#x29;" horiz-adv-x="296" d="M17 -104 L18 -100 Q78 -16 112 84.5 Q146 185 146 288 Q146 392 112 492 Q78 592 18 676 L102 732 Q171 637 209.5 524 Q248 411 248 288 Q248 166 209.5 52.5 Q171 -61 102 -156 L17 -104 Z " />
<glyph glyph-name="asterisk" unicode="&#x2a;" horiz-adv-x="463" d="M274 566 L409 610 L435 530 L299 486 L385 369 L316 319 L230 437 L146 322 L79 373 L165 486 L28 533 L54 613 L190 566 L190 708 L274 708 L274 566 Z " />
<glyph glyph-name="plus" unicode="&#x2b;" horiz-adv-x="666" d="M282 354 L282 574 L384 574 L384 354 L604 354 L604 252 L384 252 L384 32 L282 32 L282 252 L62 252 L62 354 L282 354 Z " />
<glyph glyph-name="comma" unicode="&#x2c;" horiz-adv-x="296" d="M108 138 L230 138 L145 -126 L38 -126 L108 138 Z " />
<glyph glyph-name="hyphen" unicode="&#x2d;" horiz-adv-x="315" d="M281 195 L34 195 L34 297 L281 297 L281 195 Z " />
<glyph glyph-name="period" unicode="&#x2e;" horiz-adv-x="296" d="M68 70 Q68 102 91.5 125 Q115 148 148 148 Q180 148 204 126 Q228 104 228 72 Q228 40 204.5 17 Q181 -6 148 -6 Q132 -6 117.5 0 Q103 6 92 16 Q81 26 74.5 40 Q68 54 68 70 Z " />
<glyph glyph-name="slash" unicode="&#x2f;" horiz-adv-x="389" d="M74 -48 L-9 -18 L303 758 L386 726 L74 -48 Z " />
<glyph glyph-name="zero" unicode="0" horiz-adv-x="592" d="M40 354 Q40 438 53.5 497.5 Q67 557 89 597.5 Q111 638 138.5 662.5 Q166 687 194.5 699.5 Q223 712 249.5 716 Q276 720 296 720 Q316 720 342.5 716 Q369 712 397.5 699.5 Q426 687 453.5 662.5 Q481 638 503 597.5 Q525 557 538.5 497.5 Q552 438 552 354 Q552 270 538.5 210.5 Q525 151 503 110.5 Q481 70 453.5 45.5 Q426 21 397.5 8.5 Q369 -4 342.5 -8 Q316 -12 296 -12 Q276 -12 249.5 -8 Q223 -4 194.5 8.5 Q166 21 138.5 45.5 Q111 70 89 110.5 Q67 151 53.5 210.5 Q40 270 40 354 Z M160 354 Q160 321 164.5 277.5 Q169 234 183 195 Q197 156 224 129 Q251 102 296 102 Q341 102 368 129 Q395 156 409 195 Q423 234 427.5 277.5 Q432 321 432 354 Q432 387 427.5 430.5 Q423 474 409 513 Q395 552 368 579 Q341 606 296 606 Q251 606 224 579 Q197 552 183 513 Q169 474 164.5 430.5 Q160 387 160 354 Z " />
<glyph glyph-name="one" unicode="1" horiz-adv-x="592" d="M268 570 L135 447 L65 530 L279 708 L388 708 L388 0 L268 0 L268 570 Z " />
<glyph glyph-name="two" unicode="2" horiz-adv-x="592" d="M59 127 L334 393 Q346 405 359 418.5 Q372 432 382.5 447 Q393 462 400 478.5 Q407 495 407 513 Q407 535 398.5 552 Q390 569 376 581 Q362 593 343.5 599.5 Q325 606 304 606 Q259 606 230 580 Q201 554 195 510 L69 520 Q73 569 92.5 606.5 Q112 644 143 669 Q174 694 215 707 Q256 720 304 720 Q352 720 393.5 707.5 Q435 695 466 670.5 Q497 646 515 608 Q533 570 533 519 Q533 452 502.5 403.5 Q472 355 424 311 L205 108 L533 108 L533 0 L59 0 L59 127 Z " />
<glyph glyph-name="three" unicode="3" horiz-adv-x="592" d="M222 423 L253 423 Q279 423 303.5 426 Q328 429 347.5 439 Q367 449 379 468 Q391 487 391 519 Q391 560 363 586 Q335 612 290 612 Q254 612 225.5 591.5 Q197 571 184 534 L57 568 Q69 607 91 636 Q113 665 143 683.5 Q173 702 209 711 Q245 720 284 720 Q330 720 371 708 Q412 696 443 672.5 Q474 649 492.5 613.5 Q511 578 511 531 Q511 474 479 429.5 Q447 385 390 371 L390 369 Q458 359 493 311 Q528 263 528 197 Q528 146 508.5 107 Q489 68 456 41.5 Q423 15 379.5 1.5 Q336 -12 289 -12 Q245 -12 206 -2.5 Q167 7 135.5 27 Q104 47 81 78.5 Q58 110 46 154 L174 188 Q185 144 213 120 Q241 96 289 96 Q313 96 334.5 104 Q356 112 372.5 126.5 Q389 141 398.5 161.5 Q408 182 408 207 Q408 241 393.5 262.5 Q379 284 356.5 295.5 Q334 307 306 311 Q278 315 251 315 L222 315 L222 423 Z " />
<glyph glyph-name="four" unicode="4" horiz-adv-x="592" d="M335 144 L34 144 L34 263 L319 708 L455 708 L455 252 L558 252 L558 144 L455 144 L455 0 L335 0 L335 144 Z M335 538 L333 538 L156 252 L335 252 L335 538 Z " />
<glyph glyph-name="five" unicode="5" horiz-adv-x="592" d="M505 600 L220 600 L217 459 Q231 464 252.5 466 Q274 468 293 468 Q345 468 388.5 451.5 Q432 435 463 404 Q494 373 511.5 330 Q529 287 529 233 Q529 176 509.5 130.5 Q490 85 455.5 53.5 Q421 22 374 5 Q327 -12 273 -12 Q188 -12 128.5 28 Q69 68 44 150 L170 184 Q182 146 211 124 Q240 102 286 102 Q313 102 335.5 111 Q358 120 374.5 136.5 Q391 153 400 175 Q409 197 409 223 Q409 260 395.5 286 Q382 312 359 328.5 Q336 345 306 352.5 Q276 360 243 360 Q204 360 165.5 351 Q127 342 95 326 L102 708 L505 708 L505 600 Z " />
<glyph glyph-name="six" unicode="6" horiz-adv-x="592" d="M437 708 L267 446 L269 444 Q280 450 298.5 453 Q317 456 335 456 Q382 456 421 438 Q460 420 488.5 389 Q517 358 532.5 317 Q548 276 548 230 Q548 175 529 130 Q510 85 476.5 53.5 Q443 22 396.5 5 Q350 -12 296 -12 Q240 -12 194 4.5 Q148 21 114.5 52 Q81 83 62.5 128 Q44 173 44 229 Q44 285 62.5 330.5 Q81 376 110 423 L291 708 L437 708 Z M170 231 Q170 204 180 180.5 Q190 157 207.5 139.5 Q225 122 248.5 112 Q272 102 299 102 Q326 102 349.5 112 Q373 122 390.5 139.5 Q408 157 418 180.5 Q428 204 428 231 Q428 258 418 281.5 Q408 305 390.5 322.5 Q373 340 349.5 350 Q326 360 299 360 Q272 360 248.5 350 Q225 340 207.5 322.5 Q190 305 180 281.5 Q170 258 170 231 Z " />
<glyph glyph-name="seven" unicode="7" horiz-adv-x="592" d="M42 708 L523 708 L523 598 L240 0 L99 0 L388 594 L42 594 L42 708 Z " />
<glyph glyph-name="eight" unicode="8" horiz-adv-x="592" d="M296 720 Q341 720 380.5 707.5 Q420 695 449.5 671.5 Q479 648 496 613.5 Q513 579 513 534 Q513 477 486.5 434 Q460 391 406 375 L406 373 Q431 368 454.5 352.5 Q478 337 496 314.5 Q514 292 524.5 263 Q535 234 535 201 Q535 148 516 108.5 Q497 69 465 42 Q433 15 389 1.5 Q345 -12 296 -12 Q246 -12 202.5 1.5 Q159 15 127 42 Q95 69 76 108.5 Q57 148 57 201 Q57 234 67.5 263 Q78 292 96 314.5 Q114 337 137.5 352.5 Q161 368 186 373 L186 375 Q132 391 105.5 434 Q79 477 79 534 Q79 579 96 613.5 Q113 648 142.5 671.5 Q172 695 211.5 707.5 Q251 720 296 720 Z M296 618 Q250 618 224.5 590 Q199 562 199 522 Q199 480 225 451.5 Q251 423 296 423 Q316 423 333.5 430.5 Q351 438 364.5 451.5 Q378 465 385.5 483 Q393 501 393 522 Q393 562 365.5 590 Q338 618 296 618 Z M296 327 Q272 327 250 319 Q228 311 212 296 Q196 281 186.5 260.5 Q177 240 177 216 Q177 165 210.5 133.5 Q244 102 296 102 Q348 102 381.5 133.5 Q415 165 415 216 Q415 240 405.5 260.5 Q396 281 380 296 Q364 311 342 319 Q320 327 296 327 Z " />
<glyph glyph-name="nine" unicode="9" horiz-adv-x="592" d="M155 0 L325 262 L323 264 Q312 258 293.5 255 Q275 252 257 252 Q210 252 171 270 Q132 288 103.5 319 Q75 350 59.5 391 Q44 432 44 478 Q44 533 63 578 Q82 623 115.5 654.5 Q149 686 195.5 703 Q242 720 296 720 Q351 720 397.5 703.5 Q444 687 477.5 656 Q511 625 529.5 580 Q548 535 548 479 Q548 423 529.5 377.5 Q511 332 482 285 L301 0 L155 0 Z M422 477 Q422 504 412 527.5 Q402 551 384.5 568.5 Q367 586 343.5 596 Q320 606 293 606 Q266 606 242.5 596 Q219 586 201.5 568.5 Q184 551 174 527.5 Q164 504 164 477 Q164 450 174 426.5 Q184 403 201.5 385.5 Q219 368 242.5 358 Q266 348 293 348 Q320 348 343.5 358 Q367 368 384.5 385.5 Q402 403 412 426.5 Q422 450 422 477 Z " />
<glyph glyph-name="colon" unicode="&#x3a;" horiz-adv-x="296" d="M68 70 Q68 102 91.5 125 Q115 148 148 148 Q180 148 204 126 Q228 104 228 72 Q228 40 204.5 17 Q181 -6 148 -6 Q132 -6 117.5 0 Q103 6 92 16 Q81 26 74.5 40 Q68 54 68 70 Z M68 409 Q68 441 91.5 464 Q115 487 148 487 Q180 487 204 465 Q228 443 228 411 Q228 379 204.5 356 Q181 333 148 333 Q132 333 117.5 339 Q103 345 92 355 Q81 365 74.5 379 Q68 393 68 409 Z " />
<glyph glyph-name="semicolon" unicode="&#x3b;" horiz-adv-x="296" d="M108 138 L230 138 L145 -126 L38 -126 L108 138 Z M68 409 Q68 441 91.5 464 Q115 487 148 487 Q180 487 204 465 Q228 443 228 411 Q228 379 204.5 356 Q181 333 148 333 Q132 333 117.5 339 Q103 345 92 355 Q81 365 74.5 379 Q68 393 68 409 Z " />
<glyph glyph-name="less" unicode="&#x3c;" horiz-adv-x="666" d="M80 267 L80 339 L586 564 L586 454 L248 303 L586 152 L586 42 L80 267 Z " />
<glyph glyph-name="equal" unicode="&#x3d;" horiz-adv-x="666" d="M604 444 L604 342 L62 342 L62 444 L604 444 Z M604 264 L604 162 L62 162 L62 264 L604 264 Z " />
<glyph glyph-name="greater" unicode="&#x3e;" horiz-adv-x="666" d="M586 339 L586 267 L80 42 L80 152 L418 303 L80 454 L80 564 L586 339 Z " />
<glyph glyph-name="question" unicode="&#x3f;" horiz-adv-x="519" d="M210 209 L210 264 Q210 286 212.5 301.5 Q215 317 221.5 329.5 Q228 342 238.5 353.5 Q249 365 264 381 L341 459 Q366 484 366 524 Q366 563 340.5 587.5 Q315 612 276 612 Q234 612 207 583.5 Q180 555 176 514 L48 524 Q54 572 73 609.5 Q92 647 122.5 673 Q153 699 193 712.5 Q233 726 281 726 Q326 726 364.5 713 Q403 700 431.5 675.5 Q460 651 476 614.5 Q492 578 492 531 Q492 498 483 473 Q474 448 459 427 Q444 406 424.5 387 Q405 368 383 347 Q369 334 359 324 Q349 314 342.5 303.5 Q336 293 333 279.5 Q330 266 330 247 L330 209 L210 209 Z M190 70 Q190 102 213.5 125 Q237 148 270 148 Q302 148 326 126 Q350 104 350 72 Q350 40 326.5 17 Q303 -6 270 -6 Q254 -6 239.5 0 Q225 6 214 16 Q203 26 196.5 40 Q190 54 190 70 Z " />
<glyph glyph-name="at" unicode="&#x40;" horiz-adv-x="800" d="M401 456 Q376 456 356 446.5 Q336 437 322.5 420.5 Q309 404 302 382 Q295 360 295 335 Q295 327 296.5 311.5 Q298 296 305.5 281 Q313 266 330 254.5 Q347 243 378 243 Q406 243 425 254 Q444 265 455 282.5 Q466 300 470.5 321.5 Q475 343 475 364 Q475 404 457 430 Q439 456 401 456 Z M727 133 Q673 59 592.5 20.5 Q512 -18 420 -18 Q340 -18 269.5 9.5 Q199 37 146 86 Q93 135 62.5 203.5 Q32 272 32 353 Q32 433 62 501 Q92 569 144 619 Q196 669 265.5 697.5 Q335 726 414 726 Q480 726 543.5 704.5 Q607 683 657 641 Q707 599 737.5 537.5 Q768 476 768 397 Q768 344 755.5 305 Q743 266 723.5 239 Q704 212 679.5 195 Q655 178 630.5 169 Q606 160 583.5 156.5 Q561 153 546 153 Q504 153 486 170 Q468 187 467 207 L465 207 Q445 187 415 170 Q385 153 337 153 Q305 153 278.5 165.5 Q252 178 233 200 Q214 222 203.5 253 Q193 284 193 321 Q193 365 207 405.5 Q221 446 246.5 477.5 Q272 509 309 527.5 Q346 546 393 546 Q433 546 459.5 533 Q486 520 501 489 L503 489 L511 534 L605 534 L568 337 Q565 323 562 309 Q559 295 559 280 Q559 262 564.5 252.5 Q570 243 586 243 Q602 243 617.5 251.5 Q633 260 645 278.5 Q657 297 664.5 325 Q672 353 672 392 Q672 452 652.5 497.5 Q633 543 598.5 574 Q564 605 516 620.5 Q468 636 411 636 Q349 636 298 615 Q247 594 210.5 556 Q174 518 154 466 Q134 414 134 353 Q134 287 156 235 Q178 183 217.5 147 Q257 111 311 91.5 Q365 72 428 72 Q485 72 532.5 88 Q580 104 617 133 L727 133 Z " />
<glyph glyph-name="A" unicode="A" horiz-adv-x="722" d="M308 708 L417 708 L722 0 L578 0 L512 162 L205 162 L141 0 L0 0 L308 708 Z M468 270 L359 558 L248 270 L468 270 Z " />
<glyph glyph-name="B" unicode="B" horiz-adv-x="648" d="M79 708 L355 708 Q395 708 434 698.5 Q473 689 503.5 667.5 Q534 646 553 612 Q572 578 572 530 Q572 470 538 431 Q504 392 449 375 L449 373 Q482 369 510.5 354.5 Q539 340 559 317.5 Q579 295 590.5 265.5 Q602 236 602 202 Q602 144 579 105.5 Q556 67 518.5 43.5 Q481 20 432.5 10 Q384 0 334 0 L79 0 L79 708 Z M205 420 L320 420 Q383 420 414.5 444.5 Q446 469 446 509 Q446 555 413.5 577.5 Q381 600 309 600 L205 600 L205 420 Z M205 108 L321 108 Q345 108 372.5 111 Q400 114 423 125 Q446 136 461 156.5 Q476 177 476 212 Q476 268 439.5 290 Q403 312 326 312 L205 312 L205 108 Z " />
<glyph glyph-name="C" unicode="C" horiz-adv-x="685" d="M565 542 Q526 584 489.5 598 Q453 612 416 612 Q361 612 316.5 592.5 Q272 573 240 538.5 Q208 504 190.5 458 Q173 412 173 359 Q173 302 190.5 254 Q208 206 240 171 Q272 136 316.5 116 Q361 96 416 96 Q459 96 499.5 116.5 Q540 137 575 182 L679 108 Q631 42 562 12 Q493 -18 415 -18 Q333 -18 264.5 8.5 Q196 35 146.5 83.5 Q97 132 69 200 Q41 268 41 351 Q41 436 69 505.5 Q97 575 146.5 624 Q196 673 264.5 699.5 Q333 726 415 726 Q487 726 548.5 700.5 Q610 675 663 614 L565 542 Z " />
<glyph glyph-name="D" unicode="D" horiz-adv-x="759" d="M79 708 L358 708 Q428 708 493 686.5 Q558 665 608 621 Q658 577 688 510.5 Q718 444 718 354 Q718 263 683.5 196.5 Q649 130 594.5 86.5 Q540 43 473.5 21.5 Q407 0 343 0 L79 0 L79 708 Z M299 114 Q358 114 410.5 127.5 Q463 141 502 169.5 Q541 198 563.5 243.5 Q586 289 586 354 Q586 418 566 464 Q546 510 510.5 538.5 Q475 567 426.5 580.5 Q378 594 320 594 L205 594 L205 114 L299 114 Z " />
<glyph glyph-name="E" unicode="E" horiz-adv-x="611" d="M79 708 L548 708 L548 594 L205 594 L205 420 L530 420 L530 306 L205 306 L205 114 L566 114 L566 0 L79 0 L79 708 Z " />
<glyph glyph-name="F" unicode="F" horiz-adv-x="574" d="M79 708 L536 708 L536 594 L205 594 L205 408 L517 408 L517 294 L205 294 L205 0 L79 0 L79 708 Z " />
<glyph glyph-name="G" unicode="G" horiz-adv-x="778" d="M708 52 Q577 -18 415 -18 Q333 -18 264.5 8.5 Q196 35 146.5 83.5 Q97 132 69 200 Q41 268 41 351 Q41 436 69 505.5 Q97 575 146.5 624 Q196 673 264.5 699.5 Q333 726 415 726 Q496 726 567 706.5 Q638 687 694 637 L601 543 Q567 576 518.5 594 Q470 612 416 612 Q361 612 316.5 592.5 Q272 573 240 538.5 Q208 504 190.5 458 Q173 412 173 359 Q173 302 190.5 254 Q208 206 240 171 Q272 136 316.5 116 Q361 96 416 96 Q464 96 506.5 105 Q549 114 582 133 L582 300 L437 300 L437 414 L708 414 L708 52 Z " />
<glyph glyph-name="H" unicode="H" horiz-adv-x="741" d="M79 708 L205 708 L205 426 L536 426 L536 708 L662 708 L662 0 L536 0 L536 312 L205 312 L205 0 L79 0 L79 708 Z " />
<glyph glyph-name="I" unicode="I" horiz-adv-x="278" d="M76 708 L202 708 L202 0 L76 0 L76 708 Z " />
<glyph glyph-name="J" unicode="J" horiz-adv-x="500" d="M426 196 Q426 154 412.5 115 Q399 76 372.5 46.5 Q346 17 306 -0.5 Q266 -18 213 -18 Q129 -18 75.5 21 Q22 60 5 145 L123 173 Q129 138 151.5 117 Q174 96 207 96 Q261 96 280.5 132.5 Q300 169 300 233 L300 708 L426 708 L426 196 Z " />
<glyph glyph-name="K" unicode="K" horiz-adv-x="685" d="M79 708 L205 708 L205 408 L211 408 L504 708 L674 708 L343 381 L696 0 L519 0 L212 348 L205 348 L205 0 L79 0 L79 708 Z " />
<glyph glyph-name="L" unicode="L" horiz-adv-x="519" d="M79 708 L205 708 L205 114 L506 114 L506 0 L79 0 L79 708 Z " />
<glyph glyph-name="M" unicode="M" horiz-adv-x="926" d="M82 708 L274 708 L463 212 L654 708 L844 708 L844 0 L724 0 L724 588 L722 588 L507 0 L419 0 L204 588 L202 588 L202 0 L82 0 L82 708 Z " />
<glyph glyph-name="N" unicode="N" horiz-adv-x="796" d="M79 708 L246 708 L589 182 L591 182 L591 708 L717 708 L717 0 L557 0 L207 543 L205 543 L205 0 L79 0 L79 708 Z " />
<glyph glyph-name="O" unicode="O" horiz-adv-x="833" d="M41 351 Q41 436 69 505.5 Q97 575 146.5 624 Q196 673 264.5 699.5 Q333 726 415 726 Q498 727 567 701.5 Q636 676 686 627 Q736 578 764 509 Q792 440 792 355 Q792 272 764 204 Q736 136 686 87 Q636 38 567 10.5 Q498 -17 415 -18 Q333 -18 264.5 8.5 Q196 35 146.5 83.5 Q97 132 69 200 Q41 268 41 351 Z M173 359 Q173 302 190.5 254 Q208 206 240 171 Q272 136 316.5 116 Q361 96 416 96 Q471 96 516 116 Q561 136 593 171 Q625 206 642.5 254 Q660 302 660 359 Q660 412 642.5 458 Q625 504 593 538.5 Q561 573 516 592.5 Q471 612 416 612 Q361 612 316.5 592.5 Q272 573 240 538.5 Q208 504 190.5 458 Q173 412 173 359 Z " />
<glyph glyph-name="P" unicode="P" horiz-adv-x="611" d="M79 708 L317 708 Q368 708 415.5 698 Q463 688 499 664.5 Q535 641 556.5 601.5 Q578 562 578 503 Q578 436 555 395 Q532 354 493 331.5 Q454 309 402.5 301 Q351 293 295 293 L205 293 L205 0 L79 0 L79 708 Z M281 401 Q308 401 337 403 Q366 405 390.5 415 Q415 425 430.5 445 Q446 465 446 501 Q446 534 432 553.5 Q418 573 396 583.5 Q374 594 347 597 Q320 600 295 600 L205 600 L205 401 L281 401 Z " />
<glyph glyph-name="Q" unicode="Q" horiz-adv-x="852" d="M839 0 L427 0 Q344 0 273.5 25.5 Q203 51 151.5 98.5 Q100 146 70.5 214.5 Q41 283 41 369 Q41 447 70.5 512.5 Q100 578 151 625.5 Q202 673 269.5 699.5 Q337 726 413 726 Q489 726 556.5 699.5 Q624 673 675 625.5 Q726 578 755.5 512.5 Q785 447 785 369 Q785 313 771.5 270.5 Q758 228 736 195.5 Q714 163 687.5 141 Q661 119 636 104 L636 102 L839 102 L839 0 Z M410 612 Q359 612 315.5 593.5 Q272 575 240.5 542 Q209 509 191 464 Q173 419 173 366 Q173 312 191 265.5 Q209 219 241 185.5 Q273 152 316.5 133 Q360 114 412 114 Q464 114 508.5 133 Q553 152 585 185.5 Q617 219 635 265.5 Q653 312 653 366 Q653 419 635 464 Q617 509 585 542 Q553 575 508.5 593.5 Q464 612 410 612 Z " />
<glyph glyph-name="R" unicode="R" horiz-adv-x="630" d="M79 708 L325 708 Q376 708 423.5 698.5 Q471 689 508 666 Q545 643 567 604 Q589 565 589 505 Q589 428 546.5 376 Q504 324 425 313 L613 0 L461 0 L297 300 L205 300 L205 0 L79 0 L79 708 Z M303 408 Q330 408 357 410.5 Q384 413 406.5 422.5 Q429 432 443 451.5 Q457 471 457 506 Q457 537 444 556 Q431 575 410 584.5 Q389 594 363.5 597 Q338 600 314 600 L205 600 L205 408 L303 408 Z " />
<glyph glyph-name="S" unicode="S" horiz-adv-x="574" d="M426 556 Q406 585 372.5 598.5 Q339 612 302 612 Q280 612 259.5 607 Q239 602 222.5 591 Q206 580 196 562.5 Q186 545 186 521 Q186 485 211 466 Q236 447 273 433 Q310 419 354 406 Q398 393 435 370 Q472 347 497 309 Q522 271 522 208 Q522 151 501 108.5 Q480 66 444.5 38 Q409 10 362 -4 Q315 -18 263 -18 Q197 -18 136 4 Q75 26 31 78 L126 170 Q149 135 186.5 115.5 Q224 96 266 96 Q288 96 310 102 Q332 108 350 120 Q368 132 379 150.5 Q390 169 390 193 Q390 232 365 253 Q340 274 303 288.5 Q266 303 222 316 Q178 329 141 351.5 Q104 374 79 411.5 Q54 449 54 512 Q54 567 76.5 607 Q99 647 135.5 673.5 Q172 700 219 713 Q266 726 315 726 Q371 726 423.5 709 Q476 692 518 653 L426 556 Z " />
<glyph glyph-name="T" unicode="T" horiz-adv-x="574" d="M224 594 L7 594 L7 708 L567 708 L567 594 L350 594 L350 0 L224 0 L224 594 Z " />
<glyph glyph-name="U" unicode="U" horiz-adv-x="722" d="M646 260 Q646 196 624 144.5 Q602 93 564 57 Q526 21 474 1.5 Q422 -18 361 -18 Q300 -18 248 1.5 Q196 21 157.5 57 Q119 93 97.5 144.5 Q76 196 76 260 L76 708 L202 708 L202 264 Q202 238 210 209.5 Q218 181 236.5 157 Q255 133 285.5 117.5 Q316 102 361 102 Q406 102 436.5 117.5 Q467 133 485.5 157 Q504 181 512 209.5 Q520 238 520 264 L520 708 L646 708 L646 260 Z " />
<glyph glyph-name="V" unicode="V" horiz-adv-x="667" d="M-3 708 L142 708 L335 173 L534 708 L670 708 L384 0 L275 0 L-3 708 Z " />
<glyph glyph-name="W" unicode="W" horiz-adv-x="981" d="M0 708 L138 708 L271 198 L273 198 L432 708 L556 708 L712 198 L714 198 L853 708 L981 708 L775 0 L655 0 L491 539 L489 539 L325 0 L209 0 L0 708 Z " />
<glyph glyph-name="X" unicode="X" horiz-adv-x="685" d="M252 370 L16 708 L175 708 L342 446 L507 708 L660 708 L428 370 L685 0 L525 0 L338 299 L152 0 L0 0 L252 370 Z " />
<glyph glyph-name="Y" unicode="Y" horiz-adv-x="630" d="M252 303 L-14 708 L144 708 L318 426 L494 708 L644 708 L378 303 L378 0 L252 0 L252 303 Z " />
<glyph glyph-name="Z" unicode="Z" horiz-adv-x="611" d="M35 114 L413 594 L41 594 L41 708 L570 708 L570 594 L189 114 L576 114 L576 0 L35 0 L35 114 Z " />
<glyph glyph-name="bracketleft" unicode="&#x5b;" horiz-adv-x="278" d="M258 654 L168 654 L168 -78 L258 -78 L258 -156 L66 -156 L66 732 L258 732 L258 654 Z " />
<glyph glyph-name="backslash" unicode="&#x5c;" horiz-adv-x="389" d="M86 758 L398 -18 L315 -48 L3 726 L86 758 Z " />
<glyph glyph-name="bracketright" unicode="&#x5d;" horiz-adv-x="278" d="M20 -78 L110 -78 L110 654 L20 654 L20 732 L212 732 L212 -156 L20 -156 L20 -78 Z " />
<glyph glyph-name="asciicircum" unicode="&#x5e;" horiz-adv-x="666" d="M69 343 L292 708 L374 708 L597 343 L479 343 L332 582 L187 343 L69 343 Z " />
<glyph glyph-name="underscore" unicode="&#x5f;" horiz-adv-x="500" d="M0 -125 L0 -75 L500 -75 L500 -125 L0 -125 Z " />
<glyph glyph-name="grave" unicode="&#x60;" horiz-adv-x="260" d="M177 564 L83 564 L-58 708 L78 708 L177 564 Z " />
<glyph glyph-name="a" unicode="a" horiz-adv-x="537" d="M368 66 L365 66 Q339 25 299 6.5 Q259 -12 211 -12 Q178 -12 146.5 -3 Q115 6 90.5 24 Q66 42 51 69 Q36 96 36 132 Q36 171 50 198.5 Q64 226 87.5 244.5 Q111 263 142 274 Q173 285 206.5 290.5 Q240 296 274 297.5 Q308 299 338 299 L368 299 L368 312 Q368 357 337 379.5 Q306 402 258 402 Q220 402 187 388.5 Q154 375 130 352 L67 415 Q107 456 160.5 474 Q214 492 271 492 Q322 492 357 480.5 Q392 469 415 451 Q438 433 450.5 409.5 Q463 386 468.5 362 Q474 338 475 315.5 Q476 293 476 276 L476 0 L368 0 L368 66 Z M361 215 L336 215 Q311 215 280 213 Q249 211 221.5 203.5 Q194 196 175 181.5 Q156 167 156 141 Q156 124 163.5 112.5 Q171 101 183 93 Q195 85 210 81.5 Q225 78 240 78 Q302 78 331.5 107.5 Q361 137 361 188 L361 215 Z " />
<glyph glyph-name="b" unicode="b" horiz-adv-x="630" d="M68 756 L188 756 L188 419 L191 419 Q200 431 214 443.5 Q228 456 248 467 Q268 478 294 485 Q320 492 354 492 Q405 492 448 472.5 Q491 453 521.5 419 Q552 385 569 339 Q586 293 586 240 Q586 187 570 141 Q554 95 523 61 Q492 27 448 7.5 Q404 -12 349 -12 Q298 -12 254 8 Q210 28 184 72 L182 72 L182 0 L68 0 L68 756 Z M466 240 Q466 268 456.5 294 Q447 320 428.5 340 Q410 360 384 372 Q358 384 325 384 Q292 384 266 372 Q240 360 221.5 340 Q203 320 193.5 294 Q184 268 184 240 Q184 212 193.5 186 Q203 160 221.5 140 Q240 120 266 108 Q292 96 325 96 Q358 96 384 108 Q410 120 428.5 140 Q447 160 456.5 186 Q466 212 466 240 Z " />
<glyph glyph-name="c" unicode="c" horiz-adv-x="482" d="M396 336 Q375 358 352 371 Q329 384 305 384 Q272 384 246 372 Q220 360 201.5 340 Q183 320 173.5 294 Q164 268 164 240 Q164 212 173.5 186 Q183 160 201.5 140 Q220 120 246 108 Q272 96 305 96 Q333 96 357 107.5 Q381 119 398 141 L478 55 Q460 37 436.5 24 Q413 11 389 3 Q365 -5 343 -8.5 Q321 -12 305 -12 Q251 -12 203 6 Q155 24 120 57 Q85 90 64.5 136.5 Q44 183 44 240 Q44 297 64.5 343.5 Q85 390 120 423 Q155 456 203 474 Q251 492 305 492 Q351 492 397.5 474.5 Q444 457 479 419 L396 336 Z " />
<glyph glyph-name="d" unicode="d" horiz-adv-x="630" d="M448 72 L446 72 Q420 28 376 8 Q332 -12 281 -12 Q225 -12 181.5 7.5 Q138 27 107 61 Q76 95 60 141 Q44 187 44 240 Q44 293 61 339 Q78 385 108.5 419 Q139 453 182 472.5 Q225 492 276 492 Q310 492 336 485 Q362 478 382 467 Q402 456 416 443.5 Q430 431 439 419 L442 419 L442 756 L562 756 L562 0 L448 0 L448 72 Z M164 240 Q164 212 173.5 186 Q183 160 201.5 140 Q220 120 246 108 Q272 96 305 96 Q338 96 364 108 Q390 120 408.5 140 Q427 160 436.5 186 Q446 212 446 240 Q446 268 436.5 294 Q427 320 408.5 340 Q390 360 364 372 Q338 384 305 384 Q272 384 246 372 Q220 360 201.5 340 Q183 320 173.5 294 Q164 268 164 240 Z " />
<glyph glyph-name="e" unicode="e" horiz-adv-x="574" d="M164 198 Q170 144 206 114 Q242 84 293 84 Q338 84 368.5 102.5 Q399 121 422 149 L508 84 Q466 32 414 10 Q362 -12 305 -12 Q251 -12 203 6 Q155 24 120 57 Q85 90 64.5 136.5 Q44 183 44 240 Q44 297 64.5 343.5 Q85 390 120 423 Q155 456 203 474 Q251 492 305 492 Q355 492 396.5 474.5 Q438 457 467.5 424 Q497 391 513.5 342.5 Q530 294 530 231 L530 198 L164 198 Z M410 288 Q409 341 377 371.5 Q345 402 288 402 Q234 402 202.5 371 Q171 340 164 288 L410 288 Z " />
<glyph glyph-name="f" unicode="f" horiz-adv-x="352" d="M111 378 L12 378 L12 480 L111 480 L111 548 Q111 598 118 638.5 Q125 679 144.5 708 Q164 737 199 752.5 Q234 768 290 768 Q331 768 366 761 L358 659 Q345 662 333 664 Q321 666 308 666 Q283 666 268 658 Q253 650 244.5 636.5 Q236 623 233.5 605 Q231 587 231 567 L231 480 L342 480 L342 378 L231 378 L231 0 L111 0 L111 378 Z " />
<glyph glyph-name="g" unicode="g" horiz-adv-x="630" d="M562 480 L562 43 Q562 -22 546 -74.5 Q530 -127 496.5 -163.5 Q463 -200 412 -220 Q361 -240 291 -240 Q224 -240 164 -223 Q104 -206 53 -161 L125 -63 Q161 -96 200 -114 Q239 -132 290 -132 Q333 -132 362.5 -120 Q392 -108 409.5 -87 Q427 -66 434.5 -36.5 Q442 -7 442 29 L442 64 L440 64 Q414 29 371 11.5 Q328 -6 283 -6 Q229 -6 185 13.5 Q141 33 109.5 66 Q78 99 61 144 Q44 189 44 240 Q44 293 60 339 Q76 385 107 419 Q138 453 181.5 472.5 Q225 492 281 492 Q332 492 376 472 Q420 452 446 408 L448 408 L448 480 L562 480 Z M306 384 Q274 384 248 373.5 Q222 363 203.5 344.5 Q185 326 174.5 299.5 Q164 273 164 241 Q164 212 174.5 187 Q185 162 204 143 Q223 124 249 113 Q275 102 305 102 Q338 102 364.5 113 Q391 124 409.5 142.5 Q428 161 438 187 Q448 213 448 243 Q448 306 410 345 Q372 384 306 384 Z " />
<glyph glyph-name="h" unicode="h" horiz-adv-x="574" d="M188 413 L190 413 Q204 443 239.5 467.5 Q275 492 331 492 Q379 492 412.5 476 Q446 460 467 434 Q488 408 497 374 Q506 340 506 303 L506 0 L386 0 L386 243 Q386 263 384 287.5 Q382 312 373.5 333.5 Q365 355 347 369.5 Q329 384 298 384 Q268 384 247.5 374 Q227 364 213.5 347 Q200 330 194 308 Q188 286 188 262 L188 0 L68 0 L68 756 L188 756 L188 413 Z " />
<glyph glyph-name="i" unicode="i" horiz-adv-x="260" d="M70 480 L190 480 L190 0 L70 0 L70 480 Z M53 643 Q53 672 74.5 693.5 Q96 715 129 715 Q162 715 184.5 694.5 Q207 674 207 643 Q207 612 184.5 591.5 Q162 571 129 571 Q96 571 74.5 592.5 Q53 614 53 643 Z " />
<glyph glyph-name="j" unicode="j" horiz-adv-x="260" d="M190 480 L190 -29 Q190 -74 184 -112.5 Q178 -151 160.5 -179.5 Q143 -208 111 -224 Q79 -240 28 -240 Q11 -240 -5 -238 Q-21 -236 -37 -231 L-28 -127 Q-18 -129 -9 -130.5 Q0 -132 10 -132 Q32 -132 44.5 -122.5 Q57 -113 62.5 -98 Q68 -83 69 -65 Q70 -47 70 -30 L70 480 L190 480 Z M53 643 Q53 672 74.5 693.5 Q96 715 129 715 Q162 715 184.5 694.5 Q207 674 207 643 Q207 612 184.5 591.5 Q162 571 129 571 Q96 571 74.5 592.5 Q53 614 53 643 Z " />
<glyph glyph-name="k" unicode="k" horiz-adv-x="537" d="M68 756 L188 756 L188 281 L373 480 L527 480 L321 262 L540 0 L381 0 L190 245 L188 245 L188 0 L68 0 L68 756 Z " />
<glyph glyph-name="l" unicode="l" horiz-adv-x="260" d="M70 756 L190 756 L190 0 L70 0 L70 756 Z " />
<glyph glyph-name="m" unicode="m" horiz-adv-x="870" d="M63 480 L177 480 L177 405 L179 405 Q195 439 230.5 465.5 Q266 492 326 492 Q439 492 476 403 Q502 449 541 470.5 Q580 492 634 492 Q682 492 715 476 Q748 460 768.5 432 Q789 404 798 366.5 Q807 329 807 286 L807 0 L687 0 L687 272 Q687 294 683 314.5 Q679 335 669 350.5 Q659 366 642 375 Q625 384 598 384 Q570 384 550.5 373.5 Q531 363 518.5 345.5 Q506 328 500.5 305.5 Q495 283 495 260 L495 0 L375 0 L375 286 Q375 331 356 357.5 Q337 384 293 384 Q263 384 242.5 374 Q222 364 208.5 347 Q195 330 189 308 Q183 286 183 262 L183 0 L63 0 L63 480 Z " />
<glyph glyph-name="n" unicode="n" horiz-adv-x="574" d="M68 480 L182 480 L182 403 L184 403 Q201 439 236 465.5 Q271 492 331 492 Q379 492 412.5 476 Q446 460 467 434 Q488 408 497 374 Q506 340 506 303 L506 0 L386 0 L386 243 Q386 263 384 287.5 Q382 312 373.5 333.5 Q365 355 347 369.5 Q329 384 298 384 Q268 384 247.5 374 Q227 364 213.5 347 Q200 330 194 308 Q188 286 188 262 L188 0 L68 0 L68 480 Z " />
<glyph glyph-name="o" unicode="o" horiz-adv-x="610" d="M44 240 Q44 297 64.5 343.5 Q85 390 120 423 Q155 456 203 474 Q251 492 305 492 Q359 492 407 474 Q455 456 490 423 Q525 390 545.5 343.5 Q566 297 566 240 Q566 183 545.5 136.5 Q525 90 490 57 Q455 24 407 6 Q359 -12 305 -12 Q251 -12 203 6 Q155 24 120 57 Q85 90 64.5 136.5 Q44 183 44 240 Z M164 240 Q164 212 173.5 186 Q183 160 201.5 140 Q220 120 246 108 Q272 96 305 96 Q338 96 364 108 Q390 120 408.5 140 Q427 160 436.5 186 Q446 212 446 240 Q446 268 436.5 294 Q427 320 408.5 340 Q390 360 364 372 Q338 384 305 384 Q272 384 246 372 Q220 360 201.5 340 Q183 320 173.5 294 Q164 268 164 240 Z " />
<glyph glyph-name="p" unicode="p" horiz-adv-x="630" d="M68 480 L182 480 L182 408 L184 408 Q210 452 254 472 Q298 492 349 492 Q404 492 448 472.5 Q492 453 523 419 Q554 385 570 339 Q586 293 586 240 Q586 187 569 141 Q552 95 521.5 61 Q491 27 448 7.5 Q405 -12 354 -12 Q320 -12 294 -5 Q268 2 248 13 Q228 24 214 36.5 Q200 49 191 61 L188 61 L188 -228 L68 -228 L68 480 Z M466 240 Q466 268 456.5 294 Q447 320 428.5 340 Q410 360 384 372 Q358 384 325 384 Q292 384 266 372 Q240 360 221.5 340 Q203 320 193.5 294 Q184 268 184 240 Q184 212 193.5 186 Q203 160 221.5 140 Q240 120 266 108 Q292 96 325 96 Q358 96 384 108 Q410 120 428.5 140 Q447 160 456.5 186 Q466 212 466 240 Z " />
<glyph glyph-name="q" unicode="q" horiz-adv-x="630" d="M562 -228 L442 -228 L442 61 L439 61 Q430 49 416 36.5 Q402 24 382 13 Q362 2 336 -5 Q310 -12 276 -12 Q225 -12 182 7.5 Q139 27 108.5 61 Q78 95 61 141 Q44 187 44 240 Q44 293 60 339 Q76 385 107 419 Q138 453 181.5 472.5 Q225 492 281 492 Q332 492 376 472 Q420 452 446 408 L448 408 L448 480 L562 480 L562 -228 Z M164 240 Q164 212 173.5 186 Q183 160 201.5 140 Q220 120 246 108 Q272 96 305 96 Q338 96 364 108 Q390 120 408.5 140 Q427 160 436.5 186 Q446 212 446 240 Q446 268 436.5 294 Q427 320 408.5 340 Q390 360 364 372 Q338 384 305 384 Q272 384 246 372 Q220 360 201.5 340 Q183 320 173.5 294 Q164 268 164 240 Z " />
<glyph glyph-name="r" unicode="r" horiz-adv-x="389" d="M68 480 L188 480 L188 404 L190 404 Q210 446 247 469 Q284 492 332 492 Q343 492 353.5 490 Q364 488 375 485 L375 369 Q360 373 345.5 375.5 Q331 378 317 378 Q275 378 249.5 362.5 Q224 347 210.5 327 Q197 307 192.5 287 Q188 267 188 257 L188 0 L68 0 L68 480 Z " />
<glyph glyph-name="s" unicode="s" horiz-adv-x="444" d="M324 347 Q289 396 230 396 Q206 396 183 384 Q160 372 160 345 Q160 323 179 313 Q198 303 227 296 Q256 289 289.5 281.5 Q323 274 352 258.5 Q381 243 400 216 Q419 189 419 142 Q419 99 400.5 69.5 Q382 40 352.5 22 Q323 4 286 -4 Q249 -12 212 -12 Q156 -12 109 4 Q62 20 25 62 L105 137 Q128 111 154.5 94.5 Q181 78 219 78 Q232 78 246 81 Q260 84 272 91 Q284 98 291.5 108.5 Q299 119 299 133 Q299 158 280 170 Q261 182 232 189.5 Q203 197 169.5 203.5 Q136 210 107 224.5 Q78 239 59 265 Q40 291 40 337 Q40 377 56.5 406.5 Q73 436 100 455 Q127 474 162 483 Q197 492 233 492 Q281 492 328 475.5 Q375 459 404 419 L324 347 Z " />
<glyph glyph-name="t" unicode="t" horiz-adv-x="389" d="M12 378 L12 480 L111 480 L111 619 L231 619 L231 480 L363 480 L363 378 L231 378 L231 168 Q231 132 244.5 111 Q258 90 298 90 Q314 90 333 93.5 Q352 97 363 105 L363 4 Q344 -5 316.5 -8.5 Q289 -12 268 -12 Q220 -12 189.5 -1.5 Q159 9 141.5 30.5 Q124 52 117.5 84 Q111 116 111 158 L111 378 L12 378 Z " />
<glyph glyph-name="u" unicode="u" horiz-adv-x="574" d="M506 0 L392 0 L392 77 L390 77 Q373 41 338 14.5 Q303 -12 243 -12 Q195 -12 161.5 3.5 Q128 19 107 45.5 Q86 72 77 106 Q68 140 68 177 L68 480 L188 480 L188 237 Q188 217 190 192.5 Q192 168 200.5 146.5 Q209 125 226.5 110.5 Q244 96 276 96 Q306 96 326.5 106 Q347 116 360.5 133 Q374 150 380 172 Q386 194 386 218 L386 480 L506 480 L506 0 Z " />
<glyph glyph-name="v" unicode="v" horiz-adv-x="519" d="M3 480 L134 480 L262 144 L264 144 L393 480 L516 480 L327 0 L199 0 L3 480 Z " />
<glyph glyph-name="w" unicode="w" horiz-adv-x="796" d="M3 480 L133 480 L237 144 L239 144 L336 480 L466 480 L570 144 L572 144 L672 480 L793 480 L630 0 L511 0 L397 328 L395 328 L294 0 L170 0 L3 480 Z " />
<glyph glyph-name="x" unicode="x" horiz-adv-x="537" d="M192 258 L26 480 L172 480 L268 336 L372 480 L509 480 L345 258 L538 0 L392 0 L267 172 L141 0 L-1 0 L192 258 Z " />
<glyph glyph-name="y" unicode="y" horiz-adv-x="519" d="M3 480 L135 480 L269 147 L271 147 L391 480 L516 480 L289 -103 Q276 -137 260.5 -162.5 Q245 -188 224 -205.5 Q203 -223 174.5 -231.5 Q146 -240 106 -240 Q59 -240 14 -228 L29 -120 Q43 -125 58.5 -128.5 Q74 -132 90 -132 Q112 -132 127 -128 Q142 -124 152.5 -115.5 Q163 -107 170 -93.5 Q177 -80 185 -61 L208 -4 L3 480 Z " />
<glyph glyph-name="z" unicode="z" horiz-adv-x="482" d="M34 111 L291 382 L291 384 L46 384 L46 480 L436 480 L436 371 L176 96 L448 96 L448 0 L34 0 L34 111 Z " />
<glyph glyph-name="braceleft" unicode="&#x7b;" horiz-adv-x="278" d="M0 332 Q10 332 26 335 Q42 338 57 345.5 Q72 353 83 367 Q94 381 94 402 L94 600 Q94 634 108 658.5 Q122 683 142 699.5 Q162 716 184 724 Q206 732 222 732 L313 732 L313 648 L258 648 Q237 648 224.5 641 Q212 634 205.5 623.5 Q199 613 197.5 601 Q196 589 196 578 L196 390 Q196 361 185 342 Q174 323 158.5 311.5 Q143 300 126.5 295 Q110 290 98 289 L98 287 Q110 286 126.5 282 Q143 278 158.5 267 Q174 256 185 235.5 Q196 215 196 180 L196 -2 Q196 -13 197.5 -25 Q199 -37 205.5 -47.5 Q212 -58 224.5 -65 Q237 -72 258 -72 L313 -72 L313 -156 L222 -156 Q206 -156 184 -148 Q162 -140 142 -123.5 Q122 -107 108 -82.5 Q94 -58 94 -24 L94 167 Q94 191 83 206 Q72 221 57 229.5 Q42 238 26 241 Q10 244 0 244 L0 332 Z " />
<glyph glyph-name="bar" unicode="&#x7c;" horiz-adv-x="222" d="M162 750 L162 -250 L60 -250 L60 750 L162 750 Z " />
<glyph glyph-name="braceright" unicode="&#x7d;" horiz-adv-x="278" d="M278 244 Q267 244 251 241 Q235 238 220 230.5 Q205 223 194.5 209 Q184 195 184 174 L184 -24 Q184 -58 170 -82.5 Q156 -107 136 -123.5 Q116 -140 94 -148 Q72 -156 56 -156 L-35 -156 L-35 -72 L20 -72 Q41 -72 53.5 -65 Q66 -58 72.5 -47.5 Q79 -37 80.5 -25 Q82 -13 82 -2 L82 186 Q82 215 93 234 Q104 253 119.5 264 Q135 275 151.5 280 Q168 285 180 287 L180 289 Q168 290 151.5 294 Q135 298 119.5 309 Q104 320 93 340.5 Q82 361 82 396 L82 578 Q82 589 80.5 601 Q79 613 72.5 623.5 Q66 634 53.5 641 Q41 648 20 648 L-35 648 L-35 732 L56 732 Q72 732 94 724 Q116 716 136 699.5 Q156 683 170 658.5 Q184 634 184 600 L184 409 Q184 385 194.5 370 Q205 355 220 346.5 Q235 338 251 335 Q267 332 278 332 L278 244 Z " />
<glyph glyph-name="asciitilde" unicode="&#x7e;" horiz-adv-x="666" d="M565 301 Q554 285 541.5 269.5 Q529 254 514.5 242 Q500 230 481.5 222.5 Q463 215 440 215 Q412 215 387.5 224.5 Q363 234 338 248 Q314 262 286 272.5 Q258 283 223 283 Q206 283 192.5 276.5 Q179 270 168.5 260.5 Q158 251 150.5 239 Q143 227 137 215 L101 299 Q109 315 120 330.5 Q131 346 146 358 Q161 370 180 377.5 Q199 385 223 385 Q252 385 281 375.5 Q310 366 339 353 Q367 341 393.5 329 Q420 317 440 317 Q455 317 468 323.5 Q481 330 491.5 339.5 Q502 349 511 361 Q520 373 529 385 L565 301 Z " />
<glyph glyph-name="Euro" unicode="&#x20ac;" horiz-adv-x="610" d="M584 25 Q555 6 508.5 -6 Q462 -18 408 -18 Q340 -18 287.5 1 Q235 20 197 53 Q159 86 135 129.5 Q111 173 99 222 L15 222 L43 308 L88 308 Q87 313 87 319 Q87 325 87 330 L87 352 Q87 364 87.5 376.5 Q88 389 90 400 L18 400 L48 486 L103 486 Q118 541 147 585 Q176 629 216.5 660.5 Q257 692 308.5 709 Q360 726 420 726 Q468 726 510.5 716.5 Q553 707 580 693 L542 593 Q519 607 485 614 Q451 621 414 621 Q384 621 354 612 Q324 603 298.5 586 Q273 569 253.5 544 Q234 519 224 486 L512 486 L484 400 L205 400 Q202 379 202 351 L202 330 Q202 324 202.5 318.5 Q203 313 204 308 L460 308 L433 222 L219 222 Q226 194 243 169.5 Q260 145 285 127 Q310 109 342 98.5 Q374 88 412 88 Q487 88 543 121 L584 25 Z " />
<glyph glyph-name="quotesinglbase" unicode="&#x201a;" horiz-adv-x="296" d="M122 138 L244 138 L159 -126 L52 -126 L122 138 Z " />
<glyph glyph-name="florin" unicode="&#x192;" horiz-adv-x="592" d="M480 336 L342 336 L285 48 Q266 -48 221 -93.5 Q176 -139 98 -139 Q72 -139 45.5 -133 Q19 -127 -4 -115 L41 -23 Q51 -30 63.5 -33.5 Q76 -37 88 -37 Q127 -37 143 -7.5 Q159 22 168 67 L221 336 L108 336 L108 426 L239 426 L261 537 Q268 574 281 607.5 Q294 641 315 666 Q336 691 366.5 705.5 Q397 720 441 720 Q473 720 501.5 712 Q530 704 558 689 L512 596 Q485 612 457 612 Q435 612 421 602.5 Q407 593 398 578.5 Q389 564 384.5 546 Q380 528 376 510 L358 426 L480 426 L480 336 Z " />
<glyph glyph-name="quotedblbase" unicode="&#x201e;" horiz-adv-x="519" d="M338 138 L460 138 L375 -126 L268 -126 L338 138 Z M129 138 L251 138 L166 -126 L59 -126 L129 138 Z " />
<glyph glyph-name="ellipsis" unicode="&#x2026;" horiz-adv-x="1000" d="M87 70 Q87 102 110.5 125 Q134 148 167 148 Q199 148 223 126 Q247 104 247 72 Q247 40 223.5 17 Q200 -6 167 -6 Q151 -6 136.5 0 Q122 6 111 16 Q100 26 93.5 40 Q87 54 87 70 Z M420 70 Q420 102 443.5 125 Q467 148 500 148 Q532 148 556 126 Q580 104 580 72 Q580 40 556.5 17 Q533 -6 500 -6 Q484 -6 469.5 0 Q455 6 444 16 Q433 26 426.5 40 Q420 54 420 70 Z M753 70 Q753 102 776.5 125 Q800 148 833 148 Q865 148 889 126 Q913 104 913 72 Q913 40 889.5 17 Q866 -6 833 -6 Q817 -6 802.5 0 Q788 6 777 16 Q766 26 759.5 40 Q753 54 753 70 Z " />
<glyph glyph-name="dagger" unicode="&#x2020;" horiz-adv-x="593" d="M353 505 L552 505 L552 409 L353 409 L353 -126 L239 -126 L239 409 L41 409 L41 505 L239 505 L239 708 L353 708 L353 505 Z " />
<glyph glyph-name="daggerdbl" unicode="&#x2021;" horiz-adv-x="593" d="M353 523 L546 523 L546 427 L353 427 L353 156 L546 156 L546 60 L353 60 L353 -126 L239 -126 L239 60 L47 60 L47 156 L239 156 L239 427 L47 427 L47 523 L239 523 L239 708 L353 708 L353 523 Z " />
<glyph glyph-name="circumflex" unicode="&#x2c6;" horiz-adv-x="260" d="M198 564 L129 654 L60 564 L-52 564 L63 708 L198 708 L312 564 L198 564 Z " />
<glyph glyph-name="perthousand" unicode="&#x2030;" horiz-adv-x="1167" d="M411 165 Q411 201 425 233 Q439 265 463 289 Q487 313 519 327 Q551 341 587 341 Q623 341 655.5 327 Q688 313 712 289 Q736 265 750 233 Q764 201 764 165 Q764 129 750 96.5 Q736 64 712 40 Q688 16 655.5 2 Q623 -12 587 -12 Q551 -12 519 2 Q487 16 463 40 Q439 64 425 96.5 Q411 129 411 165 Z M807 165 Q807 201 821 233 Q835 265 859 289 Q883 313 915 327 Q947 341 983 341 Q1019 341 1051.5 327 Q1084 313 1108 289 Q1132 265 1146 233 Q1160 201 1160 165 Q1160 129 1146 96.5 Q1132 64 1108 40 Q1084 16 1051.5 2 Q1019 -12 983 -12 Q947 -12 915 2 Q883 16 859 40 Q835 64 821 96.5 Q807 129 807 165 Z M7 544 Q7 580 21 612 Q35 644 59 668 Q83 692 115 706 Q147 720 183 720 Q219 720 251.5 706 Q284 692 308 668 Q332 644 346 612 Q360 580 360 544 Q360 508 346 475.5 Q332 443 308 419 Q284 395 251.5 381 Q219 367 183 367 Q147 367 115 381 Q83 395 59 419 Q35 443 21 475.5 Q7 508 7 544 Z M97 544 Q97 506 121 481.5 Q145 457 183 457 Q221 457 245.5 481.5 Q270 506 270 544 Q270 582 245.5 606 Q221 630 183 630 Q145 630 121 606 Q97 582 97 544 Z M501 165 Q501 127 525 102.5 Q549 78 587 78 Q625 78 649.5 102.5 Q674 127 674 165 Q674 203 649.5 227 Q625 251 587 251 Q549 251 525 227 Q501 203 501 165 Z M897 165 Q897 127 921 102.5 Q945 78 983 78 Q1021 78 1045.5 102.5 Q1070 127 1070 165 Q1070 203 1045.5 227 Q1021 251 983 251 Q945 251 921 227 Q897 203 897 165 Z M550 740 L633 702 L217 -32 L134 6 L550 740 Z " />
<glyph glyph-name="Scaron" unicode="&#x160;" horiz-adv-x="574" d="M426 556 Q406 585 372.5 598.5 Q339 612 302 612 Q280 612 259.5 607 Q239 602 222.5 591 Q206 580 196 562.5 Q186 545 186 521 Q186 485 211 466 Q236 447 273 433 Q310 419 354 406 Q398 393 435 370 Q472 347 497 309 Q522 271 522 208 Q522 151 501 108.5 Q480 66 444.5 38 Q409 10 362 -4 Q315 -18 263 -18 Q197 -18 136 4 Q75 26 31 78 L126 170 Q149 135 186.5 115.5 Q224 96 266 96 Q288 96 310 102 Q332 108 350 120 Q368 132 379 150.5 Q390 169 390 193 Q390 232 365 253 Q340 274 303 288.5 Q266 303 222 316 Q178 329 141 351.5 Q104 374 79 411.5 Q54 449 54 512 Q54 567 76.5 607 Q99 647 135.5 673.5 Q172 700 219 713 Q266 726 315 726 Q371 726 423.5 709 Q476 692 518 653 L426 556 Z M220 900 L289 810 L358 900 L468 900 L353 756 L220 756 L106 900 L220 900 Z " />
<glyph glyph-name="guilsinglleft" unicode="&#x2039;" horiz-adv-x="296" d="M142 248 L258 73 L182 22 L30 248 L182 472 L257 421 L142 248 Z " />
<glyph glyph-name="OE" unicode="&#x152;" horiz-adv-x="1000" d="M645 420 L915 420 L915 306 L645 306 L645 114 L950 114 L950 0 L453 0 Q357 0 282.5 27 Q208 54 156 102 Q104 150 77 214.5 Q50 279 50 354 Q50 430 77 494.5 Q104 559 156 606.5 Q208 654 282.5 681 Q357 708 453 708 L933 708 L933 594 L645 594 L645 420 Z M519 594 L456 594 Q433 594 404 589.5 Q375 585 345.5 574.5 Q316 564 287.5 546.5 Q259 529 237 502.5 Q215 476 201.5 439 Q188 402 188 354 Q188 306 201.5 269 Q215 232 237 205.5 Q259 179 287.5 161.5 Q316 144 345.5 133.5 Q375 123 404 118.5 Q433 114 456 114 L519 114 L519 594 Z " />
<glyph glyph-name="Zcaron" unicode="&#x17d;" horiz-adv-x="611" d="M35 114 L413 594 L41 594 L41 708 L570 708 L570 594 L189 114 L576 114 L576 0 L35 0 L35 114 Z M239 900 L308 810 L377 900 L487 900 L372 756 L239 756 L125 900 L239 900 Z " />
<glyph glyph-name="quoteleft" unicode="&#x2018;" horiz-adv-x="296" d="M174 444 L52 444 L137 708 L244 708 L174 444 Z " />
<glyph glyph-name="quoteright" unicode="&#x2019;" horiz-adv-x="296" d="M122 708 L244 708 L159 444 L52 444 L122 708 Z " />
<glyph glyph-name="quotedblleft" unicode="&#x201c;" horiz-adv-x="519" d="M180 444 L58 444 L143 708 L250 708 L180 444 Z M391 444 L269 444 L354 708 L461 708 L391 444 Z " />
<glyph glyph-name="quotedblright" unicode="&#x201d;" horiz-adv-x="519" d="M339 708 L461 708 L376 444 L269 444 L339 708 Z M128 708 L250 708 L165 444 L58 444 L128 708 Z " />
<glyph glyph-name="bullet" unicode="&#x2022;" horiz-adv-x="500" d="M73 354 Q73 391 87 423 Q101 455 125 479 Q149 503 181 517 Q213 531 250 531 Q287 531 319 517 Q351 503 375 479 Q399 455 413 423 Q427 391 427 354 Q427 317 413 285 Q399 253 375 229 Q351 205 319 191 Q287 177 250 177 Q213 177 181 191 Q149 205 125 229 Q101 253 87 285 Q73 317 73 354 Z " />
<glyph glyph-name="endash" unicode="&#x2013;" horiz-adv-x="500" d="M500 198 L0 198 L0 294 L500 294 L500 198 Z " />
<glyph glyph-name="emdash" unicode="&#x2014;" horiz-adv-x="1000" d="M1000 198 L0 198 L0 294 L1000 294 L1000 198 Z " />
<glyph glyph-name="tilde" unicode="&#x2dc;" horiz-adv-x="260" d="M-54 568 Q-50 592 -42.5 615 Q-35 638 -22 655.5 Q-9 673 10.5 684 Q30 695 58 695 Q78 695 98.5 689 Q119 683 138 676.5 Q157 670 173.5 664 Q190 658 202 658 Q222 658 232.5 670.5 Q243 683 248 700 L314 700 Q310 676 302.5 653 Q295 630 282 612.5 Q269 595 249.5 584 Q230 573 202 573 Q182 573 161.5 579 Q141 585 122 592 Q103 599 86.5 605 Q70 611 58 611 Q38 611 27.5 598 Q17 585 12 568 L-54 568 Z " />
<glyph glyph-name="trademark" unicode="&#x2122;" horiz-adv-x="1000" d="M162 618 L40 618 L40 708 L386 708 L386 618 L264 618 L264 296 L162 296 L162 618 Z M480 708 L622 708 L720 440 L818 708 L960 708 L960 296 L858 296 L858 564 L856 564 L755 296 L685 296 L584 564 L582 564 L582 296 L480 296 L480 708 Z " />
<glyph glyph-name="scaron" unicode="&#x161;" horiz-adv-x="444" d="M324 347 Q289 396 230 396 Q206 396 183 384 Q160 372 160 345 Q160 323 179 313 Q198 303 227 296 Q256 289 289.5 281.5 Q323 274 352 258.5 Q381 243 400 216 Q419 189 419 142 Q419 99 400.5 69.5 Q382 40 352.5 22 Q323 4 286 -4 Q249 -12 212 -12 Q156 -12 109 4 Q62 20 25 62 L105 137 Q128 111 154.5 94.5 Q181 78 219 78 Q232 78 246 81 Q260 84 272 91 Q284 98 291.5 108.5 Q299 119 299 133 Q299 158 280 170 Q261 182 232 189.5 Q203 197 169.5 203.5 Q136 210 107 224.5 Q78 239 59 265 Q40 291 40 337 Q40 377 56.5 406.5 Q73 436 100 455 Q127 474 162 483 Q197 492 233 492 Q281 492 328 475.5 Q375 459 404 419 L324 347 Z M155 708 L224 618 L293 708 L403 708 L288 564 L155 564 L41 708 L155 708 Z " />
<glyph glyph-name="guilsinglright" unicode="&#x203a;" horiz-adv-x="296" d="M154 246 L38 421 L114 472 L266 246 L114 22 L39 73 L154 246 Z " />
<glyph glyph-name="oe" unicode="&#x153;" horiz-adv-x="926" d="M540 204 Q539 177 550 155 Q561 133 578.5 117 Q596 101 617 92.5 Q638 84 657 84 Q702 84 732 102.5 Q762 121 785 149 L868 90 Q828 34 775.5 11 Q723 -12 657 -12 Q597 -12 552 8 Q507 28 479 65 Q443 25 396.5 6.5 Q350 -12 297 -12 Q243 -12 195 6 Q147 24 112 57 Q77 90 56.5 136.5 Q36 183 36 240 Q36 297 56.5 343.5 Q77 390 112 423 Q147 456 195 474 Q243 492 297 492 Q351 492 398 473 Q445 454 481 414 Q513 454 559 473 Q605 492 659 492 Q717 492 760.5 472 Q804 452 833 417.5 Q862 383 876 336.5 Q890 290 890 237 L890 204 L540 204 Z M770 288 Q769 341 738 371.5 Q707 402 659 402 Q638 402 616 394.5 Q594 387 576.5 373 Q559 359 548 337.5 Q537 316 536 288 L770 288 Z M156 240 Q156 210 165.5 182.5 Q175 155 193.5 134.5 Q212 114 238 102 Q264 90 297 90 Q331 90 357.5 102 Q384 114 402.5 134.5 Q421 155 430.5 182.5 Q440 210 440 240 Q440 270 430.5 297.5 Q421 325 402.5 345.5 Q384 366 357.5 378 Q331 390 297 390 Q264 390 238 378 Q212 366 193.5 345.5 Q175 325 165.5 297.5 Q156 270 156 240 Z " />
<glyph glyph-name="zcaron" unicode="&#x17e;" horiz-adv-x="482" d="M34 111 L291 382 L291 384 L46 384 L46 480 L436 480 L436 371 L176 96 L448 96 L448 0 L34 0 L34 111 Z M174 708 L243 618 L312 708 L422 708 L307 564 L174 564 L60 708 L174 708 Z " />
<glyph glyph-name="Ydieresis" unicode="&#x178;" horiz-adv-x="630" d="M252 303 L-14 708 L144 708 L318 426 L494 708 L644 708 L378 303 L378 0 L252 0 L252 303 Z M135 828 Q135 857 156.5 878.5 Q178 900 211 900 Q244 900 266.5 879.5 Q289 859 289 828 Q289 797 266.5 776.5 Q244 756 211 756 Q178 756 156.5 777.5 Q135 799 135 828 Z M341 828 Q341 857 362.5 878.5 Q384 900 417 900 Q450 900 472.5 879.5 Q495 859 495 828 Q495 797 472.5 776.5 Q450 756 417 756 Q384 756 362.5 777.5 Q341 799 341 828 Z " />
<glyph glyph-name="uni00A0" unicode="&#xa0;" horiz-adv-x="296" d="" />
<glyph glyph-name="exclamdown" unicode="&#xa1;" horiz-adv-x="296" d="M88 265 L208 265 L208 -222 L88 -222 L88 265 Z M228 416 Q228 384 204.5 361 Q181 338 148 338 Q116 338 92 360 Q68 382 68 414 Q68 446 91.5 469 Q115 492 148 492 Q164 492 178.5 486 Q193 480 204 470 Q215 460 221.5 446 Q228 432 228 416 Z " />
<glyph glyph-name="cent" unicode="&#xa2;" horiz-adv-x="592" d="M354 492 Q402 490 447.5 475 Q493 460 524 423 L447 345 Q428 365 404.5 376.5 Q381 388 354 390 L354 90 Q382 90 407.5 103 Q433 116 451 136 L524 57 Q492 22 446.5 6 Q401 -10 354 -12 L354 -84 L300 -84 L300 -12 Q249 -8 207.5 13.5 Q166 35 137.5 68.5 Q109 102 93.5 146 Q78 190 78 241 Q78 346 137.5 412 Q197 478 300 492 L300 559 L354 559 L354 492 Z M300 389 Q272 383 252 369.5 Q232 356 218.5 336.5 Q205 317 198.5 292 Q192 267 192 240 Q192 187 219 145.5 Q246 104 300 90 L300 389 Z " />
<glyph glyph-name="sterling" unicode="&#xa3;" horiz-adv-x="592" d="M66 96 L168 96 L168 315 L66 315 L66 399 L168 399 L168 499 Q168 536 181 575 Q194 614 222 646.5 Q250 679 294 699.5 Q338 720 400 720 Q454 720 504 704.5 Q554 689 591 656 L510 569 Q488 589 462 600.5 Q436 612 404 612 Q376 612 354.5 601.5 Q333 591 318 574 Q303 557 295.5 535 Q288 513 288 489 L288 399 L450 399 L450 315 L288 315 L288 96 L541 96 L541 0 L66 0 L66 96 Z " />
<glyph glyph-name="currency" unicode="&#xa4;" horiz-adv-x="592" d="M36 155 L85 204 Q62 236 49 274 Q36 312 36 355 Q36 397 49 435.5 Q62 474 85 506 L36 555 L96 614 L145 566 Q177 589 215 601.5 Q253 614 296 614 Q339 614 377 601.5 Q415 589 447 566 L496 614 L556 555 L507 506 Q556 439 556 355 Q556 313 543 274.5 Q530 236 507 204 L556 155 L496 95 L447 144 Q415 121 377 108 Q339 95 296 95 Q212 95 145 144 L96 95 L36 155 Z M150 355 Q150 286 189.5 244.5 Q229 203 296 203 Q363 203 402.5 244.5 Q442 286 442 355 Q442 424 402.5 465 Q363 506 296 506 Q229 506 189.5 465 Q150 424 150 355 Z " />
<glyph glyph-name="yen" unicode="&#xa5;" horiz-adv-x="592" d="M236 177 L66 177 L66 255 L236 255 L236 303 L217 337 L66 337 L66 415 L174 415 L12 708 L147 708 L302 414 L451 708 L580 708 L418 415 L526 415 L526 337 L375 337 L356 303 L356 255 L526 255 L526 177 L356 177 L356 0 L236 0 L236 177 Z " />
<glyph glyph-name="brokenbar" unicode="&#xa6;" horiz-adv-x="222" d="M162 675 L162 325 L60 325 L60 675 L162 675 Z M162 175 L162 -175 L60 -175 L60 175 L162 175 Z " />
<glyph glyph-name="section" unicode="&#xa7;" horiz-adv-x="593" d="M398 566 Q387 596 361 613 Q335 630 303 630 Q273 630 247.5 614 Q222 598 222 564 Q222 536 244 517.5 Q266 499 299.5 483.5 Q333 468 372 452 Q411 436 444.5 413.5 Q478 391 500 359 Q522 327 522 280 Q522 238 498 203.5 Q474 169 437 152 Q466 130 482 99.5 Q498 69 498 33 Q498 -12 478 -45.5 Q458 -79 426 -101 Q394 -123 354 -133.5 Q314 -144 275 -144 Q239 -144 206 -137.5 Q173 -131 144 -117 Q115 -103 91.5 -79.5 Q68 -56 53 -21 L160 31 Q171 -7 204 -24.5 Q237 -42 274 -42 Q289 -42 305.5 -38.5 Q322 -35 335.5 -27.5 Q349 -20 357.5 -7.5 Q366 5 366 23 Q366 51 344 69 Q322 87 288.5 102 Q255 117 216 132.5 Q177 148 143.5 169.5 Q110 191 88 221.5 Q66 252 66 299 Q66 354 92.5 389 Q119 424 162 447 Q131 467 113.5 495 Q96 523 96 561 Q96 603 114 634 Q132 665 161 685.5 Q190 706 226.5 716 Q263 726 300 726 Q329 726 359 721 Q389 716 416.5 704 Q444 692 466.5 672.5 Q489 653 503 625 L398 566 Z M362 194 Q380 204 394 224 Q408 244 408 264 Q408 283 400.5 296 Q393 309 381.5 319 Q370 329 355.5 336.5 Q341 344 327 352 L238 394 Q214 383 197 368 Q180 353 180 324 Q180 306 188 292.5 Q196 279 208.5 269.5 Q221 260 236 252.5 Q251 245 265 239 L362 194 Z " />
<glyph glyph-name="dieresis" unicode="&#xa8;" horiz-adv-x="260" d="M-50 636 Q-50 665 -28.5 686.5 Q-7 708 26 708 Q59 708 81.5 687.5 Q104 667 104 636 Q104 605 81.5 584.5 Q59 564 26 564 Q-7 564 -28.5 585.5 Q-50 607 -50 636 Z M156 636 Q156 665 177.5 686.5 Q199 708 232 708 Q265 708 287.5 687.5 Q310 667 310 636 Q310 605 287.5 584.5 Q265 564 232 564 Q199 564 177.5 585.5 Q156 607 156 636 Z " />
<glyph glyph-name="copyright" unicode="&#xa9;" horiz-adv-x="800" d="M588 297 Q583 259 566.5 230.5 Q550 202 526 182.5 Q502 163 472.5 153 Q443 143 410 143 Q363 143 326 159.5 Q289 176 263.5 205 Q238 234 224.5 273 Q211 312 211 357 Q211 403 224 441.5 Q237 480 261.5 508 Q286 536 323 551.5 Q360 567 408 567 Q442 567 472 558 Q502 549 526 531 Q550 513 566 485.5 Q582 458 588 422 L494 422 Q487 457 465 470 Q443 483 416 483 Q358 483 332.5 448 Q307 413 307 359 Q307 331 314 307 Q321 283 334.5 265 Q348 247 368 237 Q388 227 414 227 Q446 227 469 242.5 Q492 258 494 297 L588 297 Z M28 354 Q28 431 57.5 498.5 Q87 566 137.5 616.5 Q188 667 255.5 696.5 Q323 726 400 726 Q477 726 544.5 696.5 Q612 667 662.5 616.5 Q713 566 742.5 498.5 Q772 431 772 354 Q772 277 742.5 209.5 Q713 142 662.5 91.5 Q612 41 544.5 11.5 Q477 -18 400 -18 Q323 -18 255.5 11.5 Q188 41 137.5 91.5 Q87 142 57.5 209.5 Q28 277 28 354 Z M124 354 Q124 294 145.5 241.5 Q167 189 204 150 Q241 111 291.5 88.5 Q342 66 400 66 Q458 66 508.5 88.5 Q559 111 596 150 Q633 189 654.5 241.5 Q676 294 676 354 Q676 414 654.5 466.5 Q633 519 596 558 Q559 597 508.5 619.5 Q458 642 400 642 Q342 642 291.5 619.5 Q241 597 204 558 Q167 519 145.5 466.5 Q124 414 124 354 Z " />
<glyph glyph-name="ordfeminine" unicode="&#xaa;" horiz-adv-x="349" d="M243 470 L241 470 Q226 445 196.5 435 Q167 425 138 425 Q125 425 106.5 428.5 Q88 432 70.5 441.5 Q53 451 40.5 468.5 Q28 486 28 513 Q28 548 48 568 Q68 588 97.5 598 Q127 608 161.5 610.5 Q196 613 226 613 L243 613 L243 621 Q243 638 223 646 Q203 654 174 654 Q149 654 129 645.5 Q109 637 91 622 L48 675 Q74 698 110 709 Q146 720 186 720 Q258 720 289.5 690.5 Q321 661 321 600 L321 431 L243 431 L243 470 Z M211 553 Q199 553 182 552 Q165 551 149.5 547 Q134 543 123 536 Q112 529 112 516 Q112 501 127.5 493 Q143 485 162 485 Q205 485 222 502.5 Q239 520 239 547 L239 553 L211 553 Z " />
<glyph glyph-name="guillemotleft" unicode="&#xab;" horiz-adv-x="519" d="M142 248 L258 73 L182 22 L30 248 L182 472 L257 421 L142 248 Z M365 248 L481 73 L405 22 L253 248 L405 472 L480 421 L365 248 Z " />
<glyph glyph-name="logicalnot" unicode="&#xac;" horiz-adv-x="666" d="M502 342 L62 342 L62 444 L604 444 L604 147 L502 147 L502 342 Z " />
<glyph glyph-name="uni00AD" unicode="&#xad;" horiz-adv-x="296" d="" />
<glyph glyph-name="registered" unicode="&#xae;" horiz-adv-x="800" d="M257 553 L382 553 Q416 553 447.5 548 Q479 543 503.5 530.5 Q528 518 543 495.5 Q558 473 558 438 Q558 412 550 390.5 Q542 369 529.5 354 Q517 339 501.5 329.5 Q486 320 470 318 L570 163 L465 163 L376 313 L353 313 L353 163 L257 163 L257 553 Z M352 391 L399 391 Q408 391 419 392 Q430 393 439.5 397 Q449 401 455.5 409.5 Q462 418 462 433 Q462 448 455.5 456.5 Q449 465 439.5 469 Q430 473 419 474 Q408 475 399 475 L352 475 L352 391 Z M28 354 Q28 431 57.5 498.5 Q87 566 137.5 616.5 Q188 667 255.5 696.5 Q323 726 400 726 Q477 726 544.5 696.5 Q612 667 662.5 616.5 Q713 566 742.5 498.5 Q772 431 772 354 Q772 277 742.5 209.5 Q713 142 662.5 91.5 Q612 41 544.5 11.5 Q477 -18 400 -18 Q323 -18 255.5 11.5 Q188 41 137.5 91.5 Q87 142 57.5 209.5 Q28 277 28 354 Z M124 354 Q124 294 145.5 241.5 Q167 189 204 150 Q241 111 291.5 88.5 Q342 66 400 66 Q458 66 508.5 88.5 Q559 111 596 150 Q633 189 654.5 241.5 Q676 294 676 354 Q676 414 654.5 466.5 Q633 519 596 558 Q559 597 508.5 619.5 Q458 642 400 642 Q342 642 291.5 619.5 Q241 597 204 558 Q167 519 145.5 466.5 Q124 414 124 354 Z " />
<glyph glyph-name="overscore" unicode="&#xaf;" horiz-adv-x="260" d="M290 595 L-30 595 L-30 673 L290 673 L290 595 Z " />
<glyph glyph-name="degree" unicode="&#xb0;" horiz-adv-x="400" d="M40 560 Q40 593 52.5 622 Q65 651 87 673 Q109 695 138 707.5 Q167 720 200 720 Q233 720 262 707.5 Q291 695 313 673 Q335 651 347.5 622 Q360 593 360 560 Q360 527 347.5 498 Q335 469 313 447 Q291 425 262 412.5 Q233 400 200 400 Q167 400 138 412.5 Q109 425 87 447 Q65 469 52.5 498 Q40 527 40 560 Z M118 560 Q118 526 142 502 Q166 478 200 478 Q234 478 258 502 Q282 526 282 560 Q282 594 258 618 Q234 642 200 642 Q166 642 142 618 Q118 594 118 560 Z " />
<glyph glyph-name="plusminus" unicode="&#xb1;" horiz-adv-x="666" d="M283 574 L385 574 L385 431 L604 431 L604 329 L385 329 L385 186 L283 186 L283 329 L62 329 L62 431 L283 431 L283 574 Z M62 134 L604 134 L604 32 L62 32 L62 134 Z " />
<glyph glyph-name="twosuperior" unicode="&#xb2;" horiz-adv-x="385" d="M31 384 L211 536 Q225 548 238.5 562 Q252 576 252 591 Q252 612 235.5 621 Q219 630 196 630 Q169 630 152.5 614.5 Q136 599 134 576 L38 582 Q43 654 87.5 687 Q132 720 201 720 Q267 720 310.5 688 Q354 656 354 592 Q354 527 296 483 L156 375 L156 373 L354 373 L354 289 L31 289 L31 384 Z " />
<glyph glyph-name="threesuperior" unicode="&#xb3;" horiz-adv-x="385" d="M146 552 L178 552 Q191 552 204 553.5 Q217 555 226.5 560 Q236 565 242 574 Q248 583 248 597 Q248 613 233.5 621.5 Q219 630 195 630 Q172 630 155.5 618.5 Q139 607 134 586 L31 606 Q38 638 54 659.5 Q70 681 91.5 694.5 Q113 708 139.5 714 Q166 720 195 720 Q225 720 253 713 Q281 706 302.5 692 Q324 678 337 656.5 Q350 635 350 606 Q350 571 329.5 545.5 Q309 520 271 513 L271 511 Q313 506 335.5 477 Q358 448 358 411 Q358 379 344.5 355 Q331 331 308.5 315 Q286 299 256 291 Q226 283 192 283 Q130 283 85.5 310 Q41 337 27 401 L130 423 Q135 400 150 386.5 Q165 373 192 373 Q219 373 237.5 384 Q256 395 256 421 Q256 438 248.5 447.5 Q241 457 229 461.5 Q217 466 201 467 Q185 468 169 468 L146 468 L146 552 Z " />
<glyph glyph-name="acute" unicode="&#xb4;" horiz-adv-x="260" d="M182 708 L318 708 L177 564 L83 564 L182 708 Z " />
<glyph glyph-name="mu" unicode="&#xb5;" horiz-adv-x="574" d="M188 480 L188 237 Q188 217 190 192.5 Q192 168 200.5 146.5 Q209 125 226.5 110.5 Q244 96 276 96 Q306 96 326.5 106 Q347 116 360.5 133 Q374 150 380 172 Q386 194 386 218 L386 480 L506 480 L506 0 L392 0 L392 77 L390 77 Q373 41 338 14.5 Q303 -12 243 -12 Q210 -12 188 -5 L188 -228 L68 -228 L68 480 L188 480 Z " />
<glyph glyph-name="paragraph" unicode="&#xb6;" horiz-adv-x="600" d="M246 338 Q197 338 157.5 351.5 Q118 365 90 389.5 Q62 414 46.5 447.5 Q31 481 31 520 Q31 570 48 606 Q65 642 95.5 664.5 Q126 687 169 697.5 Q212 708 264 708 L533 708 L533 -126 L443 -126 L443 636 L336 636 L336 -126 L246 -126 L246 338 Z " />
<glyph glyph-name="middot" unicode="&#xb7;" horiz-adv-x="296" d="M68 291 Q68 323 91.5 346 Q115 369 148 369 Q180 369 204 347 Q228 325 228 293 Q228 261 204.5 238 Q181 215 148 215 Q132 215 117.5 221 Q103 227 92 237 Q81 247 74.5 261 Q68 275 68 291 Z " />
<glyph glyph-name="cedilla" unicode="&#xb8;" horiz-adv-x="260" d="M177 -60 Q199 -60 220.5 -62 Q242 -64 259.5 -72.5 Q277 -81 287.5 -97.5 Q298 -114 298 -143 Q298 -170 284.5 -189 Q271 -208 251 -219 Q231 -230 206 -235 Q181 -240 159 -240 Q103 -240 53 -212 L75 -166 Q113 -186 157 -186 Q165 -186 175 -184 Q185 -182 193.5 -177.5 Q202 -173 208 -164.5 Q214 -156 214 -144 Q214 -124 196.5 -116 Q179 -108 163 -108 Q153 -108 144 -110 Q135 -112 126 -115 L99 -90 L161 0 L219 0 L177 -60 Z " />
<glyph glyph-name="onesuperior" unicode="&#xb9;" horiz-adv-x="385" d="M179 606 L95 531 L40 597 L190 714 L281 714 L281 289 L179 289 L179 606 Z " />
<glyph glyph-name="ordmasculine" unicode="&#xba;" horiz-adv-x="397" d="M197 425 Q162 425 131.5 435.5 Q101 446 78.5 465.5 Q56 485 43 512 Q30 539 31 572 Q31 605 44 632 Q57 659 79.5 678.5 Q102 698 132 709 Q162 720 197 720 Q232 720 263 709 Q294 698 317 678.5 Q340 659 353 632 Q366 605 366 572 Q366 539 353 512 Q340 485 317 465.5 Q294 446 263 435.5 Q232 425 197 425 Z M197 497 Q218 497 234 504 Q250 511 260.5 522 Q271 533 276.5 546 Q282 559 282 572 Q282 585 276.5 598.5 Q271 612 260.5 623 Q250 634 234 641 Q218 648 197 648 Q176 648 160 641 Q144 634 133.5 623 Q123 612 118 598.5 Q113 585 113 572 Q113 559 118 546 Q123 533 133.5 522 Q144 511 160 504 Q176 497 197 497 Z " />
<glyph glyph-name="guillemotright" unicode="&#xbb;" horiz-adv-x="519" d="M377 246 L261 421 L337 472 L489 246 L337 22 L262 73 L377 246 Z M154 246 L38 421 L114 472 L266 246 L114 22 L39 73 L154 246 Z " />
<glyph glyph-name="onequarter" unicode="&#xbc;" horiz-adv-x="889" d="M168 606 L84 531 L29 597 L179 714 L270 714 L270 289 L168 289 L168 606 Z M705 85 L507 85 L507 163 L695 425 L807 425 L807 169 L860 169 L860 85 L807 85 L807 0 L705 0 L705 85 Z M705 303 L704 305 L609 169 L705 169 L705 303 Z M600 740 L683 702 L267 -32 L184 6 L600 740 Z " />
<glyph glyph-name="onehalf" unicode="&#xbd;" horiz-adv-x="889" d="M171 606 L87 531 L32 597 L182 714 L273 714 L273 289 L171 289 L171 606 Z M535 95 L714 247 Q728 259 741.5 273 Q755 287 755 302 Q755 323 738.5 332 Q722 341 699 341 Q672 341 655.5 325.5 Q639 310 637 287 L541 293 Q546 365 590.5 398 Q635 431 704 431 Q770 431 813.5 399 Q857 367 857 303 Q857 238 799 194 L659 86 L659 84 L857 84 L857 0 L535 0 L535 95 Z M602 740 L685 702 L269 -32 L186 6 L602 740 Z " />
<glyph glyph-name="threequarters" unicode="&#xbe;" horiz-adv-x="889" d="M715 335 L713 335 L595 159 L595 157 L715 157 L715 335 Z M142 552 L174 552 Q187 552 200 553.5 Q213 555 222.5 560 Q232 565 238 574 Q244 583 244 597 Q244 613 229.5 621.5 Q215 630 191 630 Q168 630 151.5 618.5 Q135 607 130 586 L27 606 Q34 638 50 659.5 Q66 681 87.5 694.5 Q109 708 135.5 714 Q162 720 191 720 Q221 720 249 713 Q277 706 298.5 692 Q320 678 333 656.5 Q346 635 346 606 Q346 571 325.5 545.5 Q305 520 267 513 L267 511 Q309 506 331.5 477 Q354 448 354 411 Q354 379 340.5 355 Q327 331 304.5 315 Q282 299 252 291 Q222 283 188 283 Q126 283 81.5 310 Q37 337 23 401 L126 423 Q131 400 146 386.5 Q161 373 188 373 Q215 373 233.5 384 Q252 395 252 421 Q252 438 244.5 447.5 Q237 457 225 461.5 Q213 466 197 467 Q181 468 165 468 L142 468 L142 552 Z M712 85 L514 85 L514 163 L702 425 L814 425 L814 169 L866 169 L866 85 L814 85 L814 0 L712 0 L712 85 Z M627 740 L710 702 L294 -32 L211 6 L627 740 Z " />
<glyph glyph-name="questiondown" unicode="&#xbf;" horiz-adv-x="519" d="M309 277 L309 222 Q309 199 306.5 184 Q304 169 297.5 156.5 Q291 144 280.5 132.5 Q270 121 255 105 L178 27 Q153 2 153 -38 Q153 -77 178.5 -101.5 Q204 -126 243 -126 Q285 -126 312 -97.5 Q339 -69 343 -28 L471 -38 Q465 -86 446 -123.5 Q427 -161 396.5 -187 Q366 -213 326 -226.5 Q286 -240 238 -240 Q193 -240 154.5 -227.5 Q116 -215 87.5 -190 Q59 -165 43 -128.5 Q27 -92 27 -45 Q27 -12 36 13 Q45 38 60 59 Q75 80 94.5 99 Q114 118 136 139 Q150 152 160 162 Q170 172 176.5 182.5 Q183 193 186 206 Q189 219 189 239 L189 277 L309 277 Z M329 416 Q329 384 305.5 361 Q282 338 249 338 Q217 338 193 360 Q169 382 169 414 Q169 446 192.5 469 Q216 492 249 492 Q265 492 279.5 486 Q294 480 305 470 Q316 460 322.5 446 Q329 432 329 416 Z " />
<glyph glyph-name="Agrave" unicode="&#xc0;" horiz-adv-x="722" d="M308 708 L417 708 L722 0 L578 0 L512 162 L205 162 L141 0 L0 0 L308 708 Z M468 270 L359 558 L248 270 L468 270 Z M408 756 L314 756 L173 900 L309 900 L408 756 Z " />
<glyph glyph-name="Aacute" unicode="&#xc1;" horiz-adv-x="722" d="M308 708 L417 708 L722 0 L578 0 L512 162 L205 162 L141 0 L0 0 L308 708 Z M468 270 L359 558 L248 270 L468 270 Z M413 900 L549 900 L408 756 L314 756 L413 900 Z " />
<glyph glyph-name="Acircumflex" unicode="&#xc2;" horiz-adv-x="722" d="M308 708 L417 708 L722 0 L578 0 L512 162 L205 162 L141 0 L0 0 L308 708 Z M468 270 L359 558 L248 270 L468 270 Z M429 756 L360 846 L291 756 L179 756 L294 900 L429 900 L543 756 L429 756 Z " />
<glyph glyph-name="Atilde" unicode="&#xc3;" horiz-adv-x="722" d="M308 708 L417 708 L722 0 L578 0 L512 162 L205 162 L141 0 L0 0 L308 708 Z M468 270 L359 558 L248 270 L468 270 Z M177 760 Q181 784 188.5 807 Q196 830 209 847.5 Q222 865 241.5 876 Q261 887 289 887 Q309 887 329.5 881 Q350 875 369 868.5 Q388 862 404.5 856 Q421 850 433 850 Q453 850 463.5 862.5 Q474 875 479 892 L545 892 Q541 868 533.5 845 Q526 822 513 804.5 Q500 787 480.5 776 Q461 765 433 765 Q413 765 392.5 771 Q372 777 353 784 Q334 791 317.5 797 Q301 803 289 803 Q269 803 258.5 790 Q248 777 243 760 L177 760 Z " />
<glyph glyph-name="Adieresis" unicode="&#xc4;" horiz-adv-x="722" d="M308 708 L417 708 L722 0 L578 0 L512 162 L205 162 L141 0 L0 0 L308 708 Z M468 270 L359 558 L248 270 L468 270 Z M181 828 Q181 857 202.5 878.5 Q224 900 257 900 Q290 900 312.5 879.5 Q335 859 335 828 Q335 797 312.5 776.5 Q290 756 257 756 Q224 756 202.5 777.5 Q181 799 181 828 Z M387 828 Q387 857 408.5 878.5 Q430 900 463 900 Q496 900 518.5 879.5 Q541 859 541 828 Q541 797 518.5 776.5 Q496 756 463 756 Q430 756 408.5 777.5 Q387 799 387 828 Z " />
<glyph glyph-name="Aring" unicode="&#xc5;" horiz-adv-x="722" d="M308 708 L417 708 L722 0 L578 0 L512 162 L205 162 L141 0 L0 0 L308 708 Z M468 270 L359 558 L248 270 L468 270 Z M466 837 Q466 792 436 763.5 Q406 735 361 735 Q316 735 286 763 Q256 791 256 836 Q256 858 264 877 Q272 896 286 909.5 Q300 923 319 931 Q338 939 361 939 Q406 939 436 910.5 Q466 882 466 837 Z M418 837 Q418 860 401 875.5 Q384 891 361 891 Q338 891 321 875.5 Q304 860 304 837 Q304 814 321 798.5 Q338 783 361 783 Q384 783 401 798 Q418 813 418 837 Z " />
<glyph glyph-name="AE" unicode="&#xc6;" horiz-adv-x="1000" d="M529 186 L261 186 L147 0 L-6 0 L447 708 L943 708 L943 594 L655 594 L655 420 L925 420 L925 306 L655 306 L655 114 L955 114 L955 0 L529 0 L529 186 Z M529 294 L529 594 L514 594 L327 294 L529 294 Z " />
<glyph glyph-name="Ccedilla" unicode="&#xc7;" horiz-adv-x="685" d="M565 542 Q526 584 489.5 598 Q453 612 416 612 Q361 612 316.5 592.5 Q272 573 240 538.5 Q208 504 190.5 458 Q173 412 173 359 Q173 302 190.5 254 Q208 206 240 171 Q272 136 316.5 116 Q361 96 416 96 Q459 96 499.5 116.5 Q540 137 575 182 L679 108 Q631 42 564 12.5 Q497 -17 419 -18 L390 -60 Q412 -60 433.5 -62 Q455 -64 472.5 -72.5 Q490 -81 500.5 -97.5 Q511 -114 511 -143 Q511 -170 497.5 -189 Q484 -208 464 -219 Q444 -230 419 -235 Q394 -240 372 -240 Q316 -240 266 -212 L288 -166 Q326 -186 370 -186 Q378 -186 388 -184 Q398 -182 406.5 -177.5 Q415 -173 421 -164.5 Q427 -156 427 -144 Q427 -124 409.5 -116 Q392 -108 376 -108 Q366 -108 357 -110 Q348 -112 339 -115 L312 -90 L363 -15 Q291 -7 232 23 Q173 53 130.5 100.5 Q88 148 64.5 211.5 Q41 275 41 351 Q41 436 69 505.5 Q97 575 146.5 624 Q196 673 264.5 699.5 Q333 726 415 726 Q487 726 548.5 700.5 Q610 675 663 614 L565 542 Z " />
<glyph glyph-name="Egrave" unicode="&#xc8;" horiz-adv-x="611" d="M79 708 L548 708 L548 594 L205 594 L205 420 L530 420 L530 306 L205 306 L205 114 L566 114 L566 0 L79 0 L79 708 Z M353 756 L259 756 L118 900 L254 900 L353 756 Z " />
<glyph glyph-name="Eacute" unicode="&#xc9;" horiz-adv-x="611" d="M79 708 L548 708 L548 594 L205 594 L205 420 L530 420 L530 306 L205 306 L205 114 L566 114 L566 0 L79 0 L79 708 Z M358 900 L494 900 L353 756 L259 756 L358 900 Z " />
<glyph glyph-name="Ecircumflex" unicode="&#xca;" horiz-adv-x="611" d="M79 708 L548 708 L548 594 L205 594 L205 420 L530 420 L530 306 L205 306 L205 114 L566 114 L566 0 L79 0 L79 708 Z M374 756 L305 846 L236 756 L124 756 L239 900 L374 900 L488 756 L374 756 Z " />
<glyph glyph-name="Edieresis" unicode="&#xcb;" horiz-adv-x="611" d="M79 708 L548 708 L548 594 L205 594 L205 420 L530 420 L530 306 L205 306 L205 114 L566 114 L566 0 L79 0 L79 708 Z M126 828 Q126 857 147.5 878.5 Q169 900 202 900 Q235 900 257.5 879.5 Q280 859 280 828 Q280 797 257.5 776.5 Q235 756 202 756 Q169 756 147.5 777.5 Q126 799 126 828 Z M332 828 Q332 857 353.5 878.5 Q375 900 408 900 Q441 900 463.5 879.5 Q486 859 486 828 Q486 797 463.5 776.5 Q441 756 408 756 Q375 756 353.5 777.5 Q332 799 332 828 Z " />
<glyph glyph-name="Igrave" unicode="&#xcc;" horiz-adv-x="278" d="M76 708 L202 708 L202 0 L76 0 L76 708 Z M186 756 L92 756 L-49 900 L87 900 L186 756 Z " />
<glyph glyph-name="Iacute" unicode="&#xcd;" horiz-adv-x="278" d="M76 708 L202 708 L202 0 L76 0 L76 708 Z M191 900 L327 900 L186 756 L92 756 L191 900 Z " />
<glyph glyph-name="Icircumflex" unicode="&#xce;" horiz-adv-x="278" d="M76 708 L202 708 L202 0 L76 0 L76 708 Z M207 756 L138 846 L69 756 L-43 756 L72 900 L207 900 L321 756 L207 756 Z " />
<glyph glyph-name="Idieresis" unicode="&#xcf;" horiz-adv-x="278" d="M76 708 L202 708 L202 0 L76 0 L76 708 Z M-41 828 Q-41 857 -19.5 878.5 Q2 900 35 900 Q68 900 90.5 879.5 Q113 859 113 828 Q113 797 90.5 776.5 Q68 756 35 756 Q2 756 -19.5 777.5 Q-41 799 -41 828 Z M165 828 Q165 857 186.5 878.5 Q208 900 241 900 Q274 900 296.5 879.5 Q319 859 319 828 Q319 797 296.5 776.5 Q274 756 241 756 Q208 756 186.5 777.5 Q165 799 165 828 Z " />
<glyph glyph-name="Eth" unicode="&#xd0;" horiz-adv-x="759" d="M79 324 L13 324 L13 408 L79 408 L79 708 L358 708 Q428 708 493 686.5 Q558 665 608 621 Q658 577 688 510.5 Q718 444 718 354 Q718 263 683.5 196.5 Q649 130 594.5 86.5 Q540 43 473.5 21.5 Q407 0 343 0 L79 0 L79 324 Z M299 114 Q358 114 410.5 127.5 Q463 141 502 169.5 Q541 198 563.5 243.5 Q586 289 586 354 Q586 418 566 464 Q546 510 510.5 538.5 Q475 567 426.5 580.5 Q378 594 320 594 L205 594 L205 408 L421 408 L421 324 L205 324 L205 114 L299 114 Z " />
<glyph glyph-name="Ntilde" unicode="&#xd1;" horiz-adv-x="796" d="M79 708 L246 708 L589 182 L591 182 L591 708 L717 708 L717 0 L557 0 L207 543 L205 543 L205 0 L79 0 L79 708 Z M214 760 Q218 784 225.5 807 Q233 830 246 847.5 Q259 865 278.5 876 Q298 887 326 887 Q346 887 366.5 881 Q387 875 406 868.5 Q425 862 441.5 856 Q458 850 470 850 Q490 850 500.5 862.5 Q511 875 516 892 L582 892 Q578 868 570.5 845 Q563 822 550 804.5 Q537 787 517.5 776 Q498 765 470 765 Q450 765 429.5 771 Q409 777 390 784 Q371 791 354.5 797 Q338 803 326 803 Q306 803 295.5 790 Q285 777 280 760 L214 760 Z " />
<glyph glyph-name="Ograve" unicode="&#xd2;" horiz-adv-x="833" d="M41 351 Q41 436 69 505.5 Q97 575 146.5 624 Q196 673 264.5 699.5 Q333 726 415 726 Q498 727 567 701.5 Q636 676 686 627 Q736 578 764 509 Q792 440 792 355 Q792 272 764 204 Q736 136 686 87 Q636 38 567 10.5 Q498 -17 415 -18 Q333 -18 264.5 8.5 Q196 35 146.5 83.5 Q97 132 69 200 Q41 268 41 351 Z M173 359 Q173 302 190.5 254 Q208 206 240 171 Q272 136 316.5 116 Q361 96 416 96 Q471 96 516 116 Q561 136 593 171 Q625 206 642.5 254 Q660 302 660 359 Q660 412 642.5 458 Q625 504 593 538.5 Q561 573 516 592.5 Q471 612 416 612 Q361 612 316.5 592.5 Q272 573 240 538.5 Q208 504 190.5 458 Q173 412 173 359 Z M464 756 L370 756 L229 900 L365 900 L464 756 Z " />
<glyph glyph-name="Oacute" unicode="&#xd3;" horiz-adv-x="833" d="M41 351 Q41 436 69 505.5 Q97 575 146.5 624 Q196 673 264.5 699.5 Q333 726 415 726 Q498 727 567 701.5 Q636 676 686 627 Q736 578 764 509 Q792 440 792 355 Q792 272 764 204 Q736 136 686 87 Q636 38 567 10.5 Q498 -17 415 -18 Q333 -18 264.5 8.5 Q196 35 146.5 83.5 Q97 132 69 200 Q41 268 41 351 Z M173 359 Q173 302 190.5 254 Q208 206 240 171 Q272 136 316.5 116 Q361 96 416 96 Q471 96 516 116 Q561 136 593 171 Q625 206 642.5 254 Q660 302 660 359 Q660 412 642.5 458 Q625 504 593 538.5 Q561 573 516 592.5 Q471 612 416 612 Q361 612 316.5 592.5 Q272 573 240 538.5 Q208 504 190.5 458 Q173 412 173 359 Z M469 900 L605 900 L464 756 L370 756 L469 900 Z " />
<glyph glyph-name="Ocircumflex" unicode="&#xd4;" horiz-adv-x="833" d="M41 351 Q41 436 69 505.5 Q97 575 146.5 624 Q196 673 264.5 699.5 Q333 726 415 726 Q498 727 567 701.5 Q636 676 686 627 Q736 578 764 509 Q792 440 792 355 Q792 272 764 204 Q736 136 686 87 Q636 38 567 10.5 Q498 -17 415 -18 Q333 -18 264.5 8.5 Q196 35 146.5 83.5 Q97 132 69 200 Q41 268 41 351 Z M173 359 Q173 302 190.5 254 Q208 206 240 171 Q272 136 316.5 116 Q361 96 416 96 Q471 96 516 116 Q561 136 593 171 Q625 206 642.5 254 Q660 302 660 359 Q660 412 642.5 458 Q625 504 593 538.5 Q561 573 516 592.5 Q471 612 416 612 Q361 612 316.5 592.5 Q272 573 240 538.5 Q208 504 190.5 458 Q173 412 173 359 Z M485 756 L416 846 L347 756 L235 756 L350 900 L485 900 L599 756 L485 756 Z " />
<glyph glyph-name="Otilde" unicode="&#xd5;" horiz-adv-x="833" d="M41 351 Q41 436 69 505.5 Q97 575 146.5 624 Q196 673 264.5 699.5 Q333 726 415 726 Q498 727 567 701.5 Q636 676 686 627 Q736 578 764 509 Q792 440 792 355 Q792 272 764 204 Q736 136 686 87 Q636 38 567 10.5 Q498 -17 415 -18 Q333 -18 264.5 8.5 Q196 35 146.5 83.5 Q97 132 69 200 Q41 268 41 351 Z M173 359 Q173 302 190.5 254 Q208 206 240 171 Q272 136 316.5 116 Q361 96 416 96 Q471 96 516 116 Q561 136 593 171 Q625 206 642.5 254 Q660 302 660 359 Q660 412 642.5 458 Q625 504 593 538.5 Q561 573 516 592.5 Q471 612 416 612 Q361 612 316.5 592.5 Q272 573 240 538.5 Q208 504 190.5 458 Q173 412 173 359 Z M233 760 Q237 784 244.5 807 Q252 830 265 847.5 Q278 865 297.5 876 Q317 887 345 887 Q365 887 385.5 881 Q406 875 425 868.5 Q444 862 460.5 856 Q477 850 489 850 Q509 850 519.5 862.5 Q530 875 535 892 L601 892 Q597 868 589.5 845 Q582 822 569 804.5 Q556 787 536.5 776 Q517 765 489 765 Q469 765 448.5 771 Q428 777 409 784 Q390 791 373.5 797 Q357 803 345 803 Q325 803 314.5 790 Q304 777 299 760 L233 760 Z " />
<glyph glyph-name="Odieresis" unicode="&#xd6;" horiz-adv-x="833" d="M41 351 Q41 436 69 505.5 Q97 575 146.5 624 Q196 673 264.5 699.5 Q333 726 415 726 Q498 727 567 701.5 Q636 676 686 627 Q736 578 764 509 Q792 440 792 355 Q792 272 764 204 Q736 136 686 87 Q636 38 567 10.5 Q498 -17 415 -18 Q333 -18 264.5 8.5 Q196 35 146.5 83.5 Q97 132 69 200 Q41 268 41 351 Z M173 359 Q173 302 190.5 254 Q208 206 240 171 Q272 136 316.5 116 Q361 96 416 96 Q471 96 516 116 Q561 136 593 171 Q625 206 642.5 254 Q660 302 660 359 Q660 412 642.5 458 Q625 504 593 538.5 Q561 573 516 592.5 Q471 612 416 612 Q361 612 316.5 592.5 Q272 573 240 538.5 Q208 504 190.5 458 Q173 412 173 359 Z M237 828 Q237 857 258.5 878.5 Q280 900 313 900 Q346 900 368.5 879.5 Q391 859 391 828 Q391 797 368.5 776.5 Q346 756 313 756 Q280 756 258.5 777.5 Q237 799 237 828 Z M443 828 Q443 857 464.5 878.5 Q486 900 519 900 Q552 900 574.5 879.5 Q597 859 597 828 Q597 797 574.5 776.5 Q552 756 519 756 Q486 756 464.5 777.5 Q443 799 443 828 Z " />
<glyph glyph-name="multiply" unicode="&#xd7;" horiz-adv-x="666" d="M333 374 L515 556 L585 486 L404 305 L589 119 L515 45 L332 226 L151 45 L77 118 L262 300 L78 486 L150 557 L333 374 Z " />
<glyph glyph-name="Oslash" unicode="&#xd8;" horiz-adv-x="833" d="M559 567 Q497 612 416 612 Q361 612 316.5 592.5 Q272 573 240 538.5 Q208 504 190.5 458 Q173 412 173 359 Q173 312 185 271 Q197 230 219 197 L559 567 Z M264 148 Q295 123 333 109.5 Q371 96 416 96 Q471 96 516 116 Q561 136 593 171 Q625 206 642.5 254 Q660 302 660 359 Q660 456 606 521 L264 148 Z M781 712 L695 618 Q742 569 767 502.5 Q792 436 792 355 Q792 272 764 204 Q736 136 686 87 Q636 38 567 10.5 Q498 -17 415 -18 Q346 -18 286 1.5 Q226 21 179 56 L94 -36 L44 7 L131 101 Q88 149 64.5 212 Q41 275 41 351 Q41 436 69 505.5 Q97 575 146.5 624 Q196 673 264.5 699.5 Q333 726 415 726 Q482 728 539.5 710.5 Q597 693 645 661 L732 755 L781 712 Z " />
<glyph glyph-name="Ugrave" unicode="&#xd9;" horiz-adv-x="722" d="M646 260 Q646 196 624 144.5 Q602 93 564 57 Q526 21 474 1.5 Q422 -18 361 -18 Q300 -18 248 1.5 Q196 21 157.5 57 Q119 93 97.5 144.5 Q76 196 76 260 L76 708 L202 708 L202 264 Q202 238 210 209.5 Q218 181 236.5 157 Q255 133 285.5 117.5 Q316 102 361 102 Q406 102 436.5 117.5 Q467 133 485.5 157 Q504 181 512 209.5 Q520 238 520 264 L520 708 L646 708 L646 260 Z M408 756 L314 756 L173 900 L309 900 L408 756 Z " />
<glyph glyph-name="Uacute" unicode="&#xda;" horiz-adv-x="722" d="M646 260 Q646 196 624 144.5 Q602 93 564 57 Q526 21 474 1.5 Q422 -18 361 -18 Q300 -18 248 1.5 Q196 21 157.5 57 Q119 93 97.5 144.5 Q76 196 76 260 L76 708 L202 708 L202 264 Q202 238 210 209.5 Q218 181 236.5 157 Q255 133 285.5 117.5 Q316 102 361 102 Q406 102 436.5 117.5 Q467 133 485.5 157 Q504 181 512 209.5 Q520 238 520 264 L520 708 L646 708 L646 260 Z M413 900 L549 900 L408 756 L314 756 L413 900 Z " />
<glyph glyph-name="Ucircumflex" unicode="&#xdb;" horiz-adv-x="722" d="M646 260 Q646 196 624 144.5 Q602 93 564 57 Q526 21 474 1.5 Q422 -18 361 -18 Q300 -18 248 1.5 Q196 21 157.5 57 Q119 93 97.5 144.5 Q76 196 76 260 L76 708 L202 708 L202 264 Q202 238 210 209.5 Q218 181 236.5 157 Q255 133 285.5 117.5 Q316 102 361 102 Q406 102 436.5 117.5 Q467 133 485.5 157 Q504 181 512 209.5 Q520 238 520 264 L520 708 L646 708 L646 260 Z M429 756 L360 846 L291 756 L179 756 L294 900 L429 900 L543 756 L429 756 Z " />
<glyph glyph-name="Udieresis" unicode="&#xdc;" horiz-adv-x="722" d="M646 260 Q646 196 624 144.5 Q602 93 564 57 Q526 21 474 1.5 Q422 -18 361 -18 Q300 -18 248 1.5 Q196 21 157.5 57 Q119 93 97.5 144.5 Q76 196 76 260 L76 708 L202 708 L202 264 Q202 238 210 209.5 Q218 181 236.5 157 Q255 133 285.5 117.5 Q316 102 361 102 Q406 102 436.5 117.5 Q467 133 485.5 157 Q504 181 512 209.5 Q520 238 520 264 L520 708 L646 708 L646 260 Z M181 828 Q181 857 202.5 878.5 Q224 900 257 900 Q290 900 312.5 879.5 Q335 859 335 828 Q335 797 312.5 776.5 Q290 756 257 756 Q224 756 202.5 777.5 Q181 799 181 828 Z M387 828 Q387 857 408.5 878.5 Q430 900 463 900 Q496 900 518.5 879.5 Q541 859 541 828 Q541 797 518.5 776.5 Q496 756 463 756 Q430 756 408.5 777.5 Q387 799 387 828 Z " />
<glyph glyph-name="Yacute" unicode="&#xdd;" horiz-adv-x="630" d="M252 303 L-14 708 L144 708 L318 426 L494 708 L644 708 L378 303 L378 0 L252 0 L252 303 Z M367 900 L503 900 L362 756 L268 756 L367 900 Z " />
<glyph glyph-name="Thorn" unicode="&#xde;" horiz-adv-x="611" d="M79 708 L205 708 L205 571 L317 571 Q368 571 415.5 561 Q463 551 499 527.5 Q535 504 556.5 464.5 Q578 425 578 366 Q578 299 555 258 Q532 217 493 194.5 Q454 172 402.5 164 Q351 156 295 156 L205 156 L205 0 L79 0 L79 708 Z M281 264 Q308 264 337 266 Q366 268 390.5 278 Q415 288 430.5 308 Q446 328 446 364 Q446 397 432 416.5 Q418 436 396 446.5 Q374 457 347 460 Q320 463 295 463 L205 463 L205 264 L281 264 Z " />
<glyph glyph-name="germandbls" unicode="&#xdf;" horiz-adv-x="611" d="M56 511 Q56 647 115.5 707.5 Q175 768 296 768 Q339 768 378.5 756.5 Q418 745 448 721.5 Q478 698 495.5 663.5 Q513 629 513 583 Q513 528 485.5 487 Q458 446 407 425 L407 423 Q447 418 477 400 Q507 382 527 354.5 Q547 327 557 292 Q567 257 567 218 Q567 167 549.5 124.5 Q532 82 501 51.5 Q470 21 426.5 4.5 Q383 -12 332 -12 Q311 -12 290 -9.5 Q269 -7 248 -1 L248 100 Q262 94 275 92 Q288 90 303 90 Q366 90 406.5 127 Q447 164 447 228 Q447 299 404.5 335 Q362 371 295 371 L281 371 L281 473 L289 473 Q334 473 363.5 497.5 Q393 522 393 567 Q393 609 363.5 634.5 Q334 660 292 660 Q232 660 204 625.5 Q176 591 176 539 L176 0 L56 0 L56 511 Z " />
<glyph glyph-name="agrave" unicode="&#xe0;" horiz-adv-x="537" d="M368 66 L365 66 Q339 25 299 6.5 Q259 -12 211 -12 Q178 -12 146.5 -3 Q115 6 90.5 24 Q66 42 51 69 Q36 96 36 132 Q36 171 50 198.5 Q64 226 87.5 244.5 Q111 263 142 274 Q173 285 206.5 290.5 Q240 296 274 297.5 Q308 299 338 299 L368 299 L368 312 Q368 357 337 379.5 Q306 402 258 402 Q220 402 187 388.5 Q154 375 130 352 L67 415 Q107 456 160.5 474 Q214 492 271 492 Q322 492 357 480.5 Q392 469 415 451 Q438 433 450.5 409.5 Q463 386 468.5 362 Q474 338 475 315.5 Q476 293 476 276 L476 0 L368 0 L368 66 Z M361 215 L336 215 Q311 215 280 213 Q249 211 221.5 203.5 Q194 196 175 181.5 Q156 167 156 141 Q156 124 163.5 112.5 Q171 101 183 93 Q195 85 210 81.5 Q225 78 240 78 Q302 78 331.5 107.5 Q361 137 361 188 L361 215 Z M316 564 L222 564 L81 708 L217 708 L316 564 Z " />
<glyph glyph-name="aacute" unicode="&#xe1;" horiz-adv-x="537" d="M368 66 L365 66 Q339 25 299 6.5 Q259 -12 211 -12 Q178 -12 146.5 -3 Q115 6 90.5 24 Q66 42 51 69 Q36 96 36 132 Q36 171 50 198.5 Q64 226 87.5 244.5 Q111 263 142 274 Q173 285 206.5 290.5 Q240 296 274 297.5 Q308 299 338 299 L368 299 L368 312 Q368 357 337 379.5 Q306 402 258 402 Q220 402 187 388.5 Q154 375 130 352 L67 415 Q107 456 160.5 474 Q214 492 271 492 Q322 492 357 480.5 Q392 469 415 451 Q438 433 450.5 409.5 Q463 386 468.5 362 Q474 338 475 315.5 Q476 293 476 276 L476 0 L368 0 L368 66 Z M361 215 L336 215 Q311 215 280 213 Q249 211 221.5 203.5 Q194 196 175 181.5 Q156 167 156 141 Q156 124 163.5 112.5 Q171 101 183 93 Q195 85 210 81.5 Q225 78 240 78 Q302 78 331.5 107.5 Q361 137 361 188 L361 215 Z M321 708 L457 708 L316 564 L222 564 L321 708 Z " />
<glyph glyph-name="acircumflex" unicode="&#xe2;" horiz-adv-x="537" d="M368 66 L365 66 Q339 25 299 6.5 Q259 -12 211 -12 Q178 -12 146.5 -3 Q115 6 90.5 24 Q66 42 51 69 Q36 96 36 132 Q36 171 50 198.5 Q64 226 87.5 244.5 Q111 263 142 274 Q173 285 206.5 290.5 Q240 296 274 297.5 Q308 299 338 299 L368 299 L368 312 Q368 357 337 379.5 Q306 402 258 402 Q220 402 187 388.5 Q154 375 130 352 L67 415 Q107 456 160.5 474 Q214 492 271 492 Q322 492 357 480.5 Q392 469 415 451 Q438 433 450.5 409.5 Q463 386 468.5 362 Q474 338 475 315.5 Q476 293 476 276 L476 0 L368 0 L368 66 Z M361 215 L336 215 Q311 215 280 213 Q249 211 221.5 203.5 Q194 196 175 181.5 Q156 167 156 141 Q156 124 163.5 112.5 Q171 101 183 93 Q195 85 210 81.5 Q225 78 240 78 Q302 78 331.5 107.5 Q361 137 361 188 L361 215 Z M337 564 L268 654 L199 564 L87 564 L202 708 L337 708 L451 564 L337 564 Z " />
<glyph glyph-name="atilde" unicode="&#xe3;" horiz-adv-x="537" d="M368 66 L365 66 Q339 25 299 6.5 Q259 -12 211 -12 Q178 -12 146.5 -3 Q115 6 90.5 24 Q66 42 51 69 Q36 96 36 132 Q36 171 50 198.5 Q64 226 87.5 244.5 Q111 263 142 274 Q173 285 206.5 290.5 Q240 296 274 297.5 Q308 299 338 299 L368 299 L368 312 Q368 357 337 379.5 Q306 402 258 402 Q220 402 187 388.5 Q154 375 130 352 L67 415 Q107 456 160.5 474 Q214 492 271 492 Q322 492 357 480.5 Q392 469 415 451 Q438 433 450.5 409.5 Q463 386 468.5 362 Q474 338 475 315.5 Q476 293 476 276 L476 0 L368 0 L368 66 Z M361 215 L336 215 Q311 215 280 213 Q249 211 221.5 203.5 Q194 196 175 181.5 Q156 167 156 141 Q156 124 163.5 112.5 Q171 101 183 93 Q195 85 210 81.5 Q225 78 240 78 Q302 78 331.5 107.5 Q361 137 361 188 L361 215 Z M85 568 Q89 592 96.5 615 Q104 638 117 655.5 Q130 673 149.5 684 Q169 695 197 695 Q217 695 237.5 689 Q258 683 277 676.5 Q296 670 312.5 664 Q329 658 341 658 Q361 658 371.5 670.5 Q382 683 387 700 L453 700 Q449 676 441.5 653 Q434 630 421 612.5 Q408 595 388.5 584 Q369 573 341 573 Q321 573 300.5 579 Q280 585 261 592 Q242 599 225.5 605 Q209 611 197 611 Q177 611 166.5 598 Q156 585 151 568 L85 568 Z " />
<glyph glyph-name="adieresis" unicode="&#xe4;" horiz-adv-x="537" d="M368 66 L365 66 Q339 25 299 6.5 Q259 -12 211 -12 Q178 -12 146.5 -3 Q115 6 90.5 24 Q66 42 51 69 Q36 96 36 132 Q36 171 50 198.5 Q64 226 87.5 244.5 Q111 263 142 274 Q173 285 206.5 290.5 Q240 296 274 297.5 Q308 299 338 299 L368 299 L368 312 Q368 357 337 379.5 Q306 402 258 402 Q220 402 187 388.5 Q154 375 130 352 L67 415 Q107 456 160.5 474 Q214 492 271 492 Q322 492 357 480.5 Q392 469 415 451 Q438 433 450.5 409.5 Q463 386 468.5 362 Q474 338 475 315.5 Q476 293 476 276 L476 0 L368 0 L368 66 Z M361 215 L336 215 Q311 215 280 213 Q249 211 221.5 203.5 Q194 196 175 181.5 Q156 167 156 141 Q156 124 163.5 112.5 Q171 101 183 93 Q195 85 210 81.5 Q225 78 240 78 Q302 78 331.5 107.5 Q361 137 361 188 L361 215 Z M89 636 Q89 665 110.5 686.5 Q132 708 165 708 Q198 708 220.5 687.5 Q243 667 243 636 Q243 605 220.5 584.5 Q198 564 165 564 Q132 564 110.5 585.5 Q89 607 89 636 Z M295 636 Q295 665 316.5 686.5 Q338 708 371 708 Q404 708 426.5 687.5 Q449 667 449 636 Q449 605 426.5 584.5 Q404 564 371 564 Q338 564 316.5 585.5 Q295 607 295 636 Z " />
<glyph glyph-name="aring" unicode="&#xe5;" horiz-adv-x="537" d="M368 66 L365 66 Q339 25 299 6.5 Q259 -12 211 -12 Q178 -12 146.5 -3 Q115 6 90.5 24 Q66 42 51 69 Q36 96 36 132 Q36 171 50 198.5 Q64 226 87.5 244.5 Q111 263 142 274 Q173 285 206.5 290.5 Q240 296 274 297.5 Q308 299 338 299 L368 299 L368 312 Q368 357 337 379.5 Q306 402 258 402 Q220 402 187 388.5 Q154 375 130 352 L67 415 Q107 456 160.5 474 Q214 492 271 492 Q322 492 357 480.5 Q392 469 415 451 Q438 433 450.5 409.5 Q463 386 468.5 362 Q474 338 475 315.5 Q476 293 476 276 L476 0 L368 0 L368 66 Z M361 215 L336 215 Q311 215 280 213 Q249 211 221.5 203.5 Q194 196 175 181.5 Q156 167 156 141 Q156 124 163.5 112.5 Q171 101 183 93 Q195 85 210 81.5 Q225 78 240 78 Q302 78 331.5 107.5 Q361 137 361 188 L361 215 Z M374 655 Q374 610 344 581.5 Q314 553 269 553 Q224 553 194 581.5 Q164 610 164 654 Q164 676 172 695 Q180 714 194 727.5 Q208 741 227 749 Q246 757 269 757 Q314 757 344 728.5 Q374 700 374 655 Z M326 655 Q326 678 309 693.5 Q292 709 269 709 Q246 709 229 693.5 Q212 678 212 655 Q212 632 229 616.5 Q246 601 269 601 Q292 601 309 616 Q326 631 326 655 Z " />
<glyph glyph-name="ae" unicode="&#xe6;" horiz-adv-x="852" d="M816 204 L466 204 Q465 175 476 151.5 Q487 128 504.5 111.5 Q522 95 543 86.5 Q564 78 583 78 Q628 78 658 96.5 Q688 115 711 143 L794 84 Q754 33 701.5 10.5 Q649 -12 583 -12 Q522 -12 476 13 Q430 38 404 74 Q372 25 321.5 7 Q271 -11 211 -11 Q179 -11 147.5 -2.5 Q116 6 91.5 23.5 Q67 41 51.5 68 Q36 95 36 133 Q36 218 96.5 253 Q157 288 268 288 L366 288 Q366 341 339 372 Q312 403 258 403 Q220 403 187 389.5 Q154 376 130 353 L67 416 Q107 457 160.5 475 Q214 493 271 493 Q313 495 357 477.5 Q401 460 430 422 Q459 454 496 473.5 Q533 493 585 492 Q643 492 686.5 472 Q730 452 759 417.5 Q788 383 802 336.5 Q816 290 816 237 L816 204 Z M239 79 Q269 79 293 89 Q317 99 333 114.5 Q349 130 357.5 150.5 Q366 171 366 192 L366 204 L306 204 Q281 204 254.5 201.5 Q228 199 206 192.5 Q184 186 170 173.5 Q156 161 156 141 Q156 124 164.5 112 Q173 100 185.5 92.5 Q198 85 212.5 82 Q227 79 239 79 Z M700 288 Q697 339 667 370.5 Q637 402 584 402 Q534 402 502.5 370 Q471 338 468 288 L700 288 Z " />
<glyph glyph-name="ccedilla" unicode="&#xe7;" horiz-adv-x="482" d="M396 336 Q375 358 352 371 Q329 384 305 384 Q272 384 246 372 Q220 360 201.5 340 Q183 320 173.5 294 Q164 268 164 240 Q164 212 173.5 186 Q183 160 201.5 140 Q220 120 246 108 Q272 96 305 96 Q333 96 357 107.5 Q381 119 398 141 L478 55 Q460 37 437 24.5 Q414 12 390.5 3.5 Q367 -5 345 -8.5 Q323 -12 307 -12 L273 -60 Q295 -60 316.5 -62 Q338 -64 355.5 -72.5 Q373 -81 383.5 -97.5 Q394 -114 394 -143 Q394 -170 380.5 -189 Q367 -208 347 -219 Q327 -230 302 -235 Q277 -240 255 -240 Q199 -240 149 -212 L171 -166 Q209 -186 253 -186 Q261 -186 271 -184 Q281 -182 289.5 -177.5 Q298 -173 304 -164.5 Q310 -156 310 -144 Q310 -124 292.5 -116 Q275 -108 259 -108 Q249 -108 240 -110 Q231 -112 222 -115 L195 -90 L252 -7 Q207 1 169 22 Q131 43 103.5 75 Q76 107 60 148.5 Q44 190 44 240 Q44 297 64.5 343.5 Q85 390 120 423 Q155 456 203 474 Q251 492 305 492 Q351 492 397.5 474.5 Q444 457 479 419 L396 336 Z " />
<glyph glyph-name="egrave" unicode="&#xe8;" horiz-adv-x="574" d="M164 198 Q170 144 206 114 Q242 84 293 84 Q338 84 368.5 102.5 Q399 121 422 149 L508 84 Q466 32 414 10 Q362 -12 305 -12 Q251 -12 203 6 Q155 24 120 57 Q85 90 64.5 136.5 Q44 183 44 240 Q44 297 64.5 343.5 Q85 390 120 423 Q155 456 203 474 Q251 492 305 492 Q355 492 396.5 474.5 Q438 457 467.5 424 Q497 391 513.5 342.5 Q530 294 530 231 L530 198 L164 198 Z M410 288 Q409 341 377 371.5 Q345 402 288 402 Q234 402 202.5 371 Q171 340 164 288 L410 288 Z M334 564 L240 564 L99 708 L235 708 L334 564 Z " />
<glyph glyph-name="eacute" unicode="&#xe9;" horiz-adv-x="574" d="M164 198 Q170 144 206 114 Q242 84 293 84 Q338 84 368.5 102.5 Q399 121 422 149 L508 84 Q466 32 414 10 Q362 -12 305 -12 Q251 -12 203 6 Q155 24 120 57 Q85 90 64.5 136.5 Q44 183 44 240 Q44 297 64.5 343.5 Q85 390 120 423 Q155 456 203 474 Q251 492 305 492 Q355 492 396.5 474.5 Q438 457 467.5 424 Q497 391 513.5 342.5 Q530 294 530 231 L530 198 L164 198 Z M410 288 Q409 341 377 371.5 Q345 402 288 402 Q234 402 202.5 371 Q171 340 164 288 L410 288 Z M339 708 L475 708 L334 564 L240 564 L339 708 Z " />
<glyph glyph-name="ecircumflex" unicode="&#xea;" horiz-adv-x="574" d="M164 198 Q170 144 206 114 Q242 84 293 84 Q338 84 368.5 102.5 Q399 121 422 149 L508 84 Q466 32 414 10 Q362 -12 305 -12 Q251 -12 203 6 Q155 24 120 57 Q85 90 64.5 136.5 Q44 183 44 240 Q44 297 64.5 343.5 Q85 390 120 423 Q155 456 203 474 Q251 492 305 492 Q355 492 396.5 474.5 Q438 457 467.5 424 Q497 391 513.5 342.5 Q530 294 530 231 L530 198 L164 198 Z M410 288 Q409 341 377 371.5 Q345 402 288 402 Q234 402 202.5 371 Q171 340 164 288 L410 288 Z M355 564 L286 654 L217 564 L105 564 L220 708 L355 708 L469 564 L355 564 Z " />
<glyph glyph-name="edieresis" unicode="&#xeb;" horiz-adv-x="574" d="M164 198 Q170 144 206 114 Q242 84 293 84 Q338 84 368.5 102.5 Q399 121 422 149 L508 84 Q466 32 414 10 Q362 -12 305 -12 Q251 -12 203 6 Q155 24 120 57 Q85 90 64.5 136.5 Q44 183 44 240 Q44 297 64.5 343.5 Q85 390 120 423 Q155 456 203 474 Q251 492 305 492 Q355 492 396.5 474.5 Q438 457 467.5 424 Q497 391 513.5 342.5 Q530 294 530 231 L530 198 L164 198 Z M410 288 Q409 341 377 371.5 Q345 402 288 402 Q234 402 202.5 371 Q171 340 164 288 L410 288 Z M107 636 Q107 665 128.5 686.5 Q150 708 183 708 Q216 708 238.5 687.5 Q261 667 261 636 Q261 605 238.5 584.5 Q216 564 183 564 Q150 564 128.5 585.5 Q107 607 107 636 Z M313 636 Q313 665 334.5 686.5 Q356 708 389 708 Q422 708 444.5 687.5 Q467 667 467 636 Q467 605 444.5 584.5 Q422 564 389 564 Q356 564 334.5 585.5 Q313 607 313 636 Z " />
<glyph glyph-name="igrave" unicode="&#xec;" horiz-adv-x="260" d="M70 480 L190 480 L190 0 L70 0 L70 480 Z M189 564 L95 564 L-46 708 L90 708 L189 564 Z " />
<glyph glyph-name="iacute" unicode="&#xed;" horiz-adv-x="260" d="M70 480 L190 480 L190 0 L70 0 L70 480 Z M173 708 L309 708 L168 564 L74 564 L173 708 Z " />
<glyph glyph-name="icircumflex" unicode="&#xee;" horiz-adv-x="260" d="M70 480 L190 480 L190 0 L70 0 L70 480 Z M198 564 L129 654 L60 564 L-52 564 L63 708 L198 708 L312 564 L198 564 Z " />
<glyph glyph-name="idieresis" unicode="&#xef;" horiz-adv-x="260" d="M70 480 L190 480 L190 0 L70 0 L70 480 Z M-50 636 Q-50 665 -28.5 686.5 Q-7 708 26 708 Q59 708 81.5 687.5 Q104 667 104 636 Q104 605 81.5 584.5 Q59 564 26 564 Q-7 564 -28.5 585.5 Q-50 607 -50 636 Z M156 636 Q156 665 177.5 686.5 Q199 708 232 708 Q265 708 287.5 687.5 Q310 667 310 636 Q310 605 287.5 584.5 Q265 564 232 564 Q199 564 177.5 585.5 Q156 607 156 636 Z " />
<glyph glyph-name="eth" unicode="&#xf0;" horiz-adv-x="610" d="M506 712 L389 658 Q425 619 457 575.5 Q489 532 513.5 484.5 Q538 437 552 385 Q566 333 566 277 Q566 214 549.5 161 Q533 108 500 69.5 Q467 31 418 9.5 Q369 -12 305 -12 Q251 -12 203 6 Q155 24 120 57 Q85 90 64.5 136.5 Q44 183 44 240 Q44 297 64 343.5 Q84 390 118.5 423 Q153 456 198.5 474 Q244 492 295 492 Q328 492 357.5 483.5 Q387 475 409 454 L411 456 Q385 498 352.5 535 Q320 572 285 608 L282 611 L176 562 L116 619 L223 669 Q216 676 206 684.5 Q196 693 185 702 Q174 711 163.5 719.5 Q153 728 146 734 L246 792 Q273 771 296.5 749.5 Q320 728 331 717 L442 768 L506 712 Z M305 96 Q338 96 364 108 Q390 120 408.5 140 Q427 160 436.5 186 Q446 212 446 240 Q446 268 436.5 294 Q427 320 408.5 340 Q390 360 364 372 Q338 384 305 384 Q272 384 246 372 Q220 360 201.5 340 Q183 320 173.5 294 Q164 268 164 240 Q164 212 173.5 186 Q183 160 201.5 140 Q220 120 246 108 Q272 96 305 96 Z " />
<glyph glyph-name="ntilde" unicode="&#xf1;" horiz-adv-x="574" d="M68 480 L182 480 L182 403 L184 403 Q201 439 236 465.5 Q271 492 331 492 Q379 492 412.5 476 Q446 460 467 434 Q488 408 497 374 Q506 340 506 303 L506 0 L386 0 L386 243 Q386 263 384 287.5 Q382 312 373.5 333.5 Q365 355 347 369.5 Q329 384 298 384 Q268 384 247.5 374 Q227 364 213.5 347 Q200 330 194 308 Q188 286 188 262 L188 0 L68 0 L68 480 Z M103 568 Q107 592 114.5 615 Q122 638 135 655.5 Q148 673 167.5 684 Q187 695 215 695 Q235 695 255.5 689 Q276 683 295 676.5 Q314 670 330.5 664 Q347 658 359 658 Q379 658 389.5 670.5 Q400 683 405 700 L471 700 Q467 676 459.5 653 Q452 630 439 612.5 Q426 595 406.5 584 Q387 573 359 573 Q339 573 318.5 579 Q298 585 279 592 Q260 599 243.5 605 Q227 611 215 611 Q195 611 184.5 598 Q174 585 169 568 L103 568 Z " />
<glyph glyph-name="ograve" unicode="&#xf2;" horiz-adv-x="610" d="M44 240 Q44 297 64.5 343.5 Q85 390 120 423 Q155 456 203 474 Q251 492 305 492 Q359 492 407 474 Q455 456 490 423 Q525 390 545.5 343.5 Q566 297 566 240 Q566 183 545.5 136.5 Q525 90 490 57 Q455 24 407 6 Q359 -12 305 -12 Q251 -12 203 6 Q155 24 120 57 Q85 90 64.5 136.5 Q44 183 44 240 Z M164 240 Q164 212 173.5 186 Q183 160 201.5 140 Q220 120 246 108 Q272 96 305 96 Q338 96 364 108 Q390 120 408.5 140 Q427 160 436.5 186 Q446 212 446 240 Q446 268 436.5 294 Q427 320 408.5 340 Q390 360 364 372 Q338 384 305 384 Q272 384 246 372 Q220 360 201.5 340 Q183 320 173.5 294 Q164 268 164 240 Z M352 564 L258 564 L117 708 L253 708 L352 564 Z " />
<glyph glyph-name="oacute" unicode="&#xf3;" horiz-adv-x="610" d="M44 240 Q44 297 64.5 343.5 Q85 390 120 423 Q155 456 203 474 Q251 492 305 492 Q359 492 407 474 Q455 456 490 423 Q525 390 545.5 343.5 Q566 297 566 240 Q566 183 545.5 136.5 Q525 90 490 57 Q455 24 407 6 Q359 -12 305 -12 Q251 -12 203 6 Q155 24 120 57 Q85 90 64.5 136.5 Q44 183 44 240 Z M164 240 Q164 212 173.5 186 Q183 160 201.5 140 Q220 120 246 108 Q272 96 305 96 Q338 96 364 108 Q390 120 408.5 140 Q427 160 436.5 186 Q446 212 446 240 Q446 268 436.5 294 Q427 320 408.5 340 Q390 360 364 372 Q338 384 305 384 Q272 384 246 372 Q220 360 201.5 340 Q183 320 173.5 294 Q164 268 164 240 Z M357 708 L493 708 L352 564 L258 564 L357 708 Z " />
<glyph glyph-name="ocircumflex" unicode="&#xf4;" horiz-adv-x="610" d="M44 240 Q44 297 64.5 343.5 Q85 390 120 423 Q155 456 203 474 Q251 492 305 492 Q359 492 407 474 Q455 456 490 423 Q525 390 545.5 343.5 Q566 297 566 240 Q566 183 545.5 136.5 Q525 90 490 57 Q455 24 407 6 Q359 -12 305 -12 Q251 -12 203 6 Q155 24 120 57 Q85 90 64.5 136.5 Q44 183 44 240 Z M164 240 Q164 212 173.5 186 Q183 160 201.5 140 Q220 120 246 108 Q272 96 305 96 Q338 96 364 108 Q390 120 408.5 140 Q427 160 436.5 186 Q446 212 446 240 Q446 268 436.5 294 Q427 320 408.5 340 Q390 360 364 372 Q338 384 305 384 Q272 384 246 372 Q220 360 201.5 340 Q183 320 173.5 294 Q164 268 164 240 Z M373 564 L304 654 L235 564 L123 564 L238 708 L373 708 L487 564 L373 564 Z " />
<glyph glyph-name="otilde" unicode="&#xf5;" horiz-adv-x="610" d="M44 240 Q44 297 64.5 343.5 Q85 390 120 423 Q155 456 203 474 Q251 492 305 492 Q359 492 407 474 Q455 456 490 423 Q525 390 545.5 343.5 Q566 297 566 240 Q566 183 545.5 136.5 Q525 90 490 57 Q455 24 407 6 Q359 -12 305 -12 Q251 -12 203 6 Q155 24 120 57 Q85 90 64.5 136.5 Q44 183 44 240 Z M164 240 Q164 212 173.5 186 Q183 160 201.5 140 Q220 120 246 108 Q272 96 305 96 Q338 96 364 108 Q390 120 408.5 140 Q427 160 436.5 186 Q446 212 446 240 Q446 268 436.5 294 Q427 320 408.5 340 Q390 360 364 372 Q338 384 305 384 Q272 384 246 372 Q220 360 201.5 340 Q183 320 173.5 294 Q164 268 164 240 Z M121 568 Q125 592 132.5 615 Q140 638 153 655.5 Q166 673 185.5 684 Q205 695 233 695 Q253 695 273.5 689 Q294 683 313 676.5 Q332 670 348.5 664 Q365 658 377 658 Q397 658 407.5 670.5 Q418 683 423 700 L489 700 Q485 676 477.5 653 Q470 630 457 612.5 Q444 595 424.5 584 Q405 573 377 573 Q357 573 336.5 579 Q316 585 297 592 Q278 599 261.5 605 Q245 611 233 611 Q213 611 202.5 598 Q192 585 187 568 L121 568 Z " />
<glyph glyph-name="odieresis" unicode="&#xf6;" horiz-adv-x="610" d="M44 240 Q44 297 64.5 343.5 Q85 390 120 423 Q155 456 203 474 Q251 492 305 492 Q359 492 407 474 Q455 456 490 423 Q525 390 545.5 343.5 Q566 297 566 240 Q566 183 545.5 136.5 Q525 90 490 57 Q455 24 407 6 Q359 -12 305 -12 Q251 -12 203 6 Q155 24 120 57 Q85 90 64.5 136.5 Q44 183 44 240 Z M164 240 Q164 212 173.5 186 Q183 160 201.5 140 Q220 120 246 108 Q272 96 305 96 Q338 96 364 108 Q390 120 408.5 140 Q427 160 436.5 186 Q446 212 446 240 Q446 268 436.5 294 Q427 320 408.5 340 Q390 360 364 372 Q338 384 305 384 Q272 384 246 372 Q220 360 201.5 340 Q183 320 173.5 294 Q164 268 164 240 Z M125 636 Q125 665 146.5 686.5 Q168 708 201 708 Q234 708 256.5 687.5 Q279 667 279 636 Q279 605 256.5 584.5 Q234 564 201 564 Q168 564 146.5 585.5 Q125 607 125 636 Z M331 636 Q331 665 352.5 686.5 Q374 708 407 708 Q440 708 462.5 687.5 Q485 667 485 636 Q485 605 462.5 584.5 Q440 564 407 564 Q374 564 352.5 585.5 Q331 607 331 636 Z " />
<glyph glyph-name="divide" unicode="&#xf7;" horiz-adv-x="666" d="M604 354 L604 252 L62 252 L62 354 L604 354 Z M258 483 Q258 514 280 536 Q302 558 333 558 Q364 558 386 536 Q408 514 408 483 Q408 452 386 430 Q364 408 333 408 Q302 408 280 430 Q258 452 258 483 Z M258 123 Q258 154 280 176 Q302 198 333 198 Q364 198 386 176 Q408 154 408 123 Q408 92 386 70 Q364 48 333 48 Q302 48 280 70 Q258 92 258 123 Z " />
<glyph glyph-name="oslash" unicode="&#xf8;" horiz-adv-x="610" d="M384 360 Q368 371 348 377.5 Q328 384 305 384 Q272 384 246 372 Q220 360 201.5 340 Q183 320 173.5 294 Q164 268 164 240 Q164 195 187 160 L384 360 Z M227 119 Q259 96 305 96 Q338 96 364 108 Q390 120 408.5 140 Q427 160 436.5 186 Q446 212 446 240 Q446 283 425 318 L227 119 Z M579 474 L509 403 Q535 371 550.5 330 Q566 289 566 240 Q566 183 545.5 136.5 Q525 90 490 57 Q455 24 407 6 Q359 -12 305 -12 Q259 -12 218.5 1 Q178 14 146 37 L76 -34 L36 7 L103 75 Q75 107 59.5 148.5 Q44 190 44 240 Q44 297 64.5 343.5 Q85 390 120 423 Q155 456 203 474 Q251 492 305 492 Q351 492 392 479 Q433 466 466 442 L537 514 L579 474 Z " />
<glyph glyph-name="ugrave" unicode="&#xf9;" horiz-adv-x="574" d="M506 0 L392 0 L392 77 L390 77 Q373 41 338 14.5 Q303 -12 243 -12 Q195 -12 161.5 3.5 Q128 19 107 45.5 Q86 72 77 106 Q68 140 68 177 L68 480 L188 480 L188 237 Q188 217 190 192.5 Q192 168 200.5 146.5 Q209 125 226.5 110.5 Q244 96 276 96 Q306 96 326.5 106 Q347 116 360.5 133 Q374 150 380 172 Q386 194 386 218 L386 480 L506 480 L506 0 Z M334 564 L240 564 L99 708 L235 708 L334 564 Z " />
<glyph glyph-name="uacute" unicode="&#xfa;" horiz-adv-x="574" d="M506 0 L392 0 L392 77 L390 77 Q373 41 338 14.5 Q303 -12 243 -12 Q195 -12 161.5 3.5 Q128 19 107 45.5 Q86 72 77 106 Q68 140 68 177 L68 480 L188 480 L188 237 Q188 217 190 192.5 Q192 168 200.5 146.5 Q209 125 226.5 110.5 Q244 96 276 96 Q306 96 326.5 106 Q347 116 360.5 133 Q374 150 380 172 Q386 194 386 218 L386 480 L506 480 L506 0 Z M339 708 L475 708 L334 564 L240 564 L339 708 Z " />
<glyph glyph-name="ucircumflex" unicode="&#xfb;" horiz-adv-x="574" d="M506 0 L392 0 L392 77 L390 77 Q373 41 338 14.5 Q303 -12 243 -12 Q195 -12 161.5 3.5 Q128 19 107 45.5 Q86 72 77 106 Q68 140 68 177 L68 480 L188 480 L188 237 Q188 217 190 192.5 Q192 168 200.5 146.5 Q209 125 226.5 110.5 Q244 96 276 96 Q306 96 326.5 106 Q347 116 360.5 133 Q374 150 380 172 Q386 194 386 218 L386 480 L506 480 L506 0 Z M355 564 L286 654 L217 564 L105 564 L220 708 L355 708 L469 564 L355 564 Z " />
<glyph glyph-name="udieresis" unicode="&#xfc;" horiz-adv-x="574" d="M506 0 L392 0 L392 77 L390 77 Q373 41 338 14.5 Q303 -12 243 -12 Q195 -12 161.5 3.5 Q128 19 107 45.5 Q86 72 77 106 Q68 140 68 177 L68 480 L188 480 L188 237 Q188 217 190 192.5 Q192 168 200.5 146.5 Q209 125 226.5 110.5 Q244 96 276 96 Q306 96 326.5 106 Q347 116 360.5 133 Q374 150 380 172 Q386 194 386 218 L386 480 L506 480 L506 0 Z M107 636 Q107 665 128.5 686.5 Q150 708 183 708 Q216 708 238.5 687.5 Q261 667 261 636 Q261 605 238.5 584.5 Q216 564 183 564 Q150 564 128.5 585.5 Q107 607 107 636 Z M313 636 Q313 665 334.5 686.5 Q356 708 389 708 Q422 708 444.5 687.5 Q467 667 467 636 Q467 605 444.5 584.5 Q422 564 389 564 Q356 564 334.5 585.5 Q313 607 313 636 Z " />
<glyph glyph-name="yacute" unicode="&#xfd;" horiz-adv-x="519" d="M3 480 L135 480 L269 147 L271 147 L391 480 L516 480 L289 -103 Q276 -137 260.5 -162.5 Q245 -188 224 -205.5 Q203 -223 174.5 -231.5 Q146 -240 106 -240 Q59 -240 14 -228 L29 -120 Q43 -125 58.5 -128.5 Q74 -132 90 -132 Q112 -132 127 -128 Q142 -124 152.5 -115.5 Q163 -107 170 -93.5 Q177 -80 185 -61 L208 -4 L3 480 Z M312 708 L448 708 L307 564 L213 564 L312 708 Z " />
<glyph glyph-name="thorn" unicode="&#xfe;" horiz-adv-x="630" d="M68 756 L188 756 L188 418 L190 418 Q212 454 255 473 Q298 492 349 492 Q404 492 448 472.5 Q492 453 523 419 Q554 385 570 339 Q586 293 586 240 Q586 187 569 141 Q552 95 521.5 61 Q491 27 448 7.5 Q405 -12 354 -12 Q320 -12 294 -5 Q268 2 248 13 Q228 24 214 36.5 Q200 49 191 61 L188 61 L188 -228 L68 -228 L68 756 Z M466 240 Q466 268 456.5 294 Q447 320 428.5 340 Q410 360 384 372 Q358 384 325 384 Q292 384 266 372 Q240 360 221.5 340 Q203 320 193.5 294 Q184 268 184 240 Q184 212 193.5 186 Q203 160 221.5 140 Q240 120 266 108 Q292 96 325 96 Q358 96 384 108 Q410 120 428.5 140 Q447 160 456.5 186 Q466 212 466 240 Z " />
<glyph glyph-name="ydieresis" unicode="&#xff;" horiz-adv-x="519" d="M3 480 L135 480 L269 147 L271 147 L391 480 L516 480 L289 -103 Q276 -137 260.5 -162.5 Q245 -188 224 -205.5 Q203 -223 174.5 -231.5 Q146 -240 106 -240 Q59 -240 14 -228 L29 -120 Q43 -125 58.5 -128.5 Q74 -132 90 -132 Q112 -132 127 -128 Q142 -124 152.5 -115.5 Q163 -107 170 -93.5 Q177 -80 185 -61 L208 -4 L3 480 Z M80 636 Q80 665 101.5 686.5 Q123 708 156 708 Q189 708 211.5 687.5 Q234 667 234 636 Q234 605 211.5 584.5 Q189 564 156 564 Q123 564 101.5 585.5 Q80 607 80 636 Z M286 636 Q286 665 307.5 686.5 Q329 708 362 708 Q395 708 417.5 687.5 Q440 667 440 636 Q440 605 417.5 584.5 Q395 564 362 564 Q329 564 307.5 585.5 Q286 607 286 636 Z " />
<glyph glyph-name="Amacron" unicode="&#x100;" horiz-adv-x="722" d="M308 708 L417 708 L722 0 L578 0 L512 162 L205 162 L141 0 L0 0 L308 708 Z M468 270 L359 558 L248 270 L468 270 Z M518 787 L198 787 L198 865 L518 865 L518 787 Z " />
<glyph glyph-name="amacron" unicode="&#x101;" horiz-adv-x="537" d="M368 66 L365 66 Q339 25 299 6.5 Q259 -12 211 -12 Q178 -12 146.5 -3 Q115 6 90.5 24 Q66 42 51 69 Q36 96 36 132 Q36 171 50 198.5 Q64 226 87.5 244.5 Q111 263 142 274 Q173 285 206.5 290.5 Q240 296 274 297.5 Q308 299 338 299 L368 299 L368 312 Q368 357 337 379.5 Q306 402 258 402 Q220 402 187 388.5 Q154 375 130 352 L67 415 Q107 456 160.5 474 Q214 492 271 492 Q322 492 357 480.5 Q392 469 415 451 Q438 433 450.5 409.5 Q463 386 468.5 362 Q474 338 475 315.5 Q476 293 476 276 L476 0 L368 0 L368 66 Z M361 215 L336 215 Q311 215 280 213 Q249 211 221.5 203.5 Q194 196 175 181.5 Q156 167 156 141 Q156 124 163.5 112.5 Q171 101 183 93 Q195 85 210 81.5 Q225 78 240 78 Q302 78 331.5 107.5 Q361 137 361 188 L361 215 Z M444 595 L124 595 L124 673 L444 673 L444 595 Z " />
<glyph glyph-name="Abreve" unicode="&#x102;" horiz-adv-x="722" d="M308 708 L417 708 L722 0 L578 0 L512 162 L205 162 L141 0 L0 0 L308 708 Z M468 270 L359 558 L248 270 L468 270 Z M255 900 Q262 862 291 848 Q320 834 358 834 Q401 834 426 846 Q451 858 462 900 L528 900 Q520 825 474.5 790.5 Q429 756 357 756 Q285 756 239 790.5 Q193 825 188 900 L255 900 Z " />
<glyph glyph-name="abreve" unicode="&#x103;" horiz-adv-x="537" d="M368 66 L365 66 Q339 25 299 6.5 Q259 -12 211 -12 Q178 -12 146.5 -3 Q115 6 90.5 24 Q66 42 51 69 Q36 96 36 132 Q36 171 50 198.5 Q64 226 87.5 244.5 Q111 263 142 274 Q173 285 206.5 290.5 Q240 296 274 297.5 Q308 299 338 299 L368 299 L368 312 Q368 357 337 379.5 Q306 402 258 402 Q220 402 187 388.5 Q154 375 130 352 L67 415 Q107 456 160.5 474 Q214 492 271 492 Q322 492 357 480.5 Q392 469 415 451 Q438 433 450.5 409.5 Q463 386 468.5 362 Q474 338 475 315.5 Q476 293 476 276 L476 0 L368 0 L368 66 Z M361 215 L336 215 Q311 215 280 213 Q249 211 221.5 203.5 Q194 196 175 181.5 Q156 167 156 141 Q156 124 163.5 112.5 Q171 101 183 93 Q195 85 210 81.5 Q225 78 240 78 Q302 78 331.5 107.5 Q361 137 361 188 L361 215 Z M181 708 Q188 670 217 656 Q246 642 284 642 Q327 642 352 654 Q377 666 388 708 L454 708 Q446 634 400.5 599 Q355 564 283 564 Q211 564 165 598.5 Q119 633 114 708 L181 708 Z " />
<glyph glyph-name="Aogonek" unicode="&#x104;" horiz-adv-x="722" d="M689 -196 Q668 -213 642.5 -223.5 Q617 -234 589 -234 Q569 -234 550.5 -228.5 Q532 -223 517.5 -211.5 Q503 -200 494.5 -183.5 Q486 -167 486 -145 Q486 -125 494.5 -104.5 Q503 -84 516.5 -65 Q530 -46 546 -29.5 Q562 -13 578 0 L512 162 L205 162 L141 0 L0 0 L308 708 L417 708 L722 0 L640 0 Q628 -11 615 -25.5 Q602 -40 590.5 -56.5 Q579 -73 571.5 -90 Q564 -107 564 -122 Q564 -141 577.5 -154.5 Q591 -168 610 -168 Q624 -168 638.5 -162 Q653 -156 664 -147 L689 -196 Z M468 270 L359 558 L248 270 L468 270 Z " />
<glyph glyph-name="aogonek" unicode="&#x105;" horiz-adv-x="537" d="M368 66 L365 66 Q339 24 299 6 Q259 -12 211 -12 Q178 -12 146.5 -3 Q115 6 90.5 24 Q66 42 51 69 Q36 96 36 132 Q36 171 50 198.5 Q64 226 87.5 244.5 Q111 263 142 274 Q173 285 206.5 290.5 Q240 296 274 297.5 Q308 299 338 299 L368 299 L368 312 Q368 357 337 379.5 Q306 402 258 402 Q220 402 187 388.5 Q154 375 130 352 L67 415 Q107 457 160.5 474.5 Q214 492 271 492 Q322 492 357 480.5 Q392 469 415 451 Q438 433 450.5 409.5 Q463 386 468.5 362 Q474 338 475 315.5 Q476 293 476 276 L476 0 L430 0 Q418 -11 405 -25.5 Q392 -40 380.5 -56.5 Q369 -73 361.5 -90 Q354 -107 354 -122 Q354 -141 367.5 -154.5 Q381 -168 400 -168 Q414 -168 428.5 -162 Q443 -156 454 -147 L479 -196 Q458 -213 432.5 -223.5 Q407 -234 379 -234 Q359 -234 340.5 -228.5 Q322 -223 307.5 -211.5 Q293 -200 284.5 -183.5 Q276 -167 276 -145 Q276 -125 284.5 -104.5 Q293 -84 306.5 -65 Q320 -46 336 -29.5 Q352 -13 368 0 L368 66 Z M361 215 L336 215 Q311 215 280 213 Q249 211 221.5 203.5 Q194 196 175 181 Q156 166 156 141 Q156 124 163.5 112.5 Q171 101 183 93 Q195 85 210 81.5 Q225 78 240 78 Q303 78 332 107.5 Q361 137 361 188 L361 215 Z " />
<glyph glyph-name="Cacute" unicode="&#x106;" horiz-adv-x="685" d="M565 542 Q526 584 489.5 598 Q453 612 416 612 Q361 612 316.5 592.5 Q272 573 240 538.5 Q208 504 190.5 458 Q173 412 173 359 Q173 302 190.5 254 Q208 206 240 171 Q272 136 316.5 116 Q361 96 416 96 Q459 96 499.5 116.5 Q540 137 575 182 L679 108 Q631 42 562 12 Q493 -18 415 -18 Q333 -18 264.5 8.5 Q196 35 146.5 83.5 Q97 132 69 200 Q41 268 41 351 Q41 436 69 505.5 Q97 575 146.5 624 Q196 673 264.5 699.5 Q333 726 415 726 Q487 726 548.5 700.5 Q610 675 663 614 L565 542 Z M440 900 L576 900 L435 756 L341 756 L440 900 Z " />
<glyph glyph-name="cacute" unicode="&#x107;" horiz-adv-x="482" d="M396 336 Q375 358 352 371 Q329 384 305 384 Q272 384 246 372 Q220 360 201.5 340 Q183 320 173.5 294 Q164 268 164 240 Q164 212 173.5 186 Q183 160 201.5 140 Q220 120 246 108 Q272 96 305 96 Q333 96 357 107.5 Q381 119 398 141 L478 55 Q460 37 436.5 24 Q413 11 389 3 Q365 -5 343 -8.5 Q321 -12 305 -12 Q251 -12 203 6 Q155 24 120 57 Q85 90 64.5 136.5 Q44 183 44 240 Q44 297 64.5 343.5 Q85 390 120 423 Q155 456 203 474 Q251 492 305 492 Q351 492 397.5 474.5 Q444 457 479 419 L396 336 Z M341 708 L477 708 L336 564 L242 564 L341 708 Z " />
<glyph glyph-name="Ccircumflex" unicode="&#x108;" horiz-adv-x="685" d="M565 542 Q526 584 489.5 598 Q453 612 416 612 Q361 612 316.5 592.5 Q272 573 240 538.5 Q208 504 190.5 458 Q173 412 173 359 Q173 302 190.5 254 Q208 206 240 171 Q272 136 316.5 116 Q361 96 416 96 Q459 96 499.5 116.5 Q540 137 575 182 L679 108 Q631 42 562 12 Q493 -18 415 -18 Q333 -18 264.5 8.5 Q196 35 146.5 83.5 Q97 132 69 200 Q41 268 41 351 Q41 436 69 505.5 Q97 575 146.5 624 Q196 673 264.5 699.5 Q333 726 415 726 Q487 726 548.5 700.5 Q610 675 663 614 L565 542 Z M480 756 L411 846 L342 756 L230 756 L345 900 L480 900 L594 756 L480 756 Z " />
<glyph glyph-name="ccircumflex" unicode="&#x109;" horiz-adv-x="482" d="M396 336 Q375 358 352 371 Q329 384 305 384 Q272 384 246 372 Q220 360 201.5 340 Q183 320 173.5 294 Q164 268 164 240 Q164 212 173.5 186 Q183 160 201.5 140 Q220 120 246 108 Q272 96 305 96 Q333 96 357 107.5 Q381 119 398 141 L478 55 Q460 37 436.5 24 Q413 11 389 3 Q365 -5 343 -8.5 Q321 -12 305 -12 Q251 -12 203 6 Q155 24 120 57 Q85 90 64.5 136.5 Q44 183 44 240 Q44 297 64.5 343.5 Q85 390 120 423 Q155 456 203 474 Q251 492 305 492 Q351 492 397.5 474.5 Q444 457 479 419 L396 336 Z M362 564 L293 654 L224 564 L112 564 L227 708 L362 708 L476 564 L362 564 Z " />
<glyph glyph-name="Cdotaccent" unicode="&#x10a;" horiz-adv-x="685" d="M565 542 Q526 584 489.5 598 Q453 612 416 612 Q361 612 316.5 592.5 Q272 573 240 538.5 Q208 504 190.5 458 Q173 412 173 359 Q173 302 190.5 254 Q208 206 240 171 Q272 136 316.5 116 Q361 96 416 96 Q459 96 499.5 116.5 Q540 137 575 182 L679 108 Q631 42 562 12 Q493 -18 415 -18 Q333 -18 264.5 8.5 Q196 35 146.5 83.5 Q97 132 69 200 Q41 268 41 351 Q41 436 69 505.5 Q97 575 146.5 624 Q196 673 264.5 699.5 Q333 726 415 726 Q487 726 548.5 700.5 Q610 675 663 614 L565 542 Z M335 828 Q335 857 356.5 878.5 Q378 900 411 900 Q444 900 466.5 879.5 Q489 859 489 828 Q489 797 466.5 776.5 Q444 756 411 756 Q378 756 356.5 777.5 Q335 799 335 828 Z " />
<glyph glyph-name="cdotaccent" unicode="&#x10b;" horiz-adv-x="482" d="M396 336 Q375 358 352 371 Q329 384 305 384 Q272 384 246 372 Q220 360 201.5 340 Q183 320 173.5 294 Q164 268 164 240 Q164 212 173.5 186 Q183 160 201.5 140 Q220 120 246 108 Q272 96 305 96 Q333 96 357 107.5 Q381 119 398 141 L478 55 Q460 37 436.5 24 Q413 11 389 3 Q365 -5 343 -8.5 Q321 -12 305 -12 Q251 -12 203 6 Q155 24 120 57 Q85 90 64.5 136.5 Q44 183 44 240 Q44 297 64.5 343.5 Q85 390 120 423 Q155 456 203 474 Q251 492 305 492 Q351 492 397.5 474.5 Q444 457 479 419 L396 336 Z M217 636 Q217 665 238.5 686.5 Q260 708 293 708 Q326 708 348.5 687.5 Q371 667 371 636 Q371 605 348.5 584.5 Q326 564 293 564 Q260 564 238.5 585.5 Q217 607 217 636 Z " />
<glyph glyph-name="Ccaron" unicode="&#x10c;" horiz-adv-x="685" d="M565 542 Q526 584 489.5 598 Q453 612 416 612 Q361 612 316.5 592.5 Q272 573 240 538.5 Q208 504 190.5 458 Q173 412 173 359 Q173 302 190.5 254 Q208 206 240 171 Q272 136 316.5 116 Q361 96 416 96 Q459 96 499.5 116.5 Q540 137 575 182 L679 108 Q631 42 562 12 Q493 -18 415 -18 Q333 -18 264.5 8.5 Q196 35 146.5 83.5 Q97 132 69 200 Q41 268 41 351 Q41 436 69 505.5 Q97 575 146.5 624 Q196 673 264.5 699.5 Q333 726 415 726 Q487 726 548.5 700.5 Q610 675 663 614 L565 542 Z M345 900 L414 810 L483 900 L593 900 L478 756 L345 756 L231 900 L345 900 Z " />
<glyph glyph-name="ccaron" unicode="&#x10d;" horiz-adv-x="482" d="M396 336 Q375 358 352 371 Q329 384 305 384 Q272 384 246 372 Q220 360 201.5 340 Q183 320 173.5 294 Q164 268 164 240 Q164 212 173.5 186 Q183 160 201.5 140 Q220 120 246 108 Q272 96 305 96 Q333 96 357 107.5 Q381 119 398 141 L478 55 Q460 37 436.5 24 Q413 11 389 3 Q365 -5 343 -8.5 Q321 -12 305 -12 Q251 -12 203 6 Q155 24 120 57 Q85 90 64.5 136.5 Q44 183 44 240 Q44 297 64.5 343.5 Q85 390 120 423 Q155 456 203 474 Q251 492 305 492 Q351 492 397.5 474.5 Q444 457 479 419 L396 336 Z M226 708 L295 618 L364 708 L474 708 L359 564 L226 564 L112 708 L226 708 Z " />
<glyph glyph-name="Dcaron" unicode="&#x10e;" horiz-adv-x="759" d="M79 708 L358 708 Q428 708 493 686.5 Q558 665 608 621 Q658 577 688 510.5 Q718 444 718 354 Q718 263 683.5 196.5 Q649 130 594.5 86.5 Q540 43 473.5 21.5 Q407 0 343 0 L79 0 L79 708 Z M299 114 Q358 114 410.5 127.5 Q463 141 502 169.5 Q541 198 563.5 243.5 Q586 289 586 354 Q586 418 566 464 Q546 510 510.5 538.5 Q475 567 426.5 580.5 Q378 594 320 594 L205 594 L205 114 L299 114 Z M266 900 L335 810 L404 900 L514 900 L399 756 L266 756 L152 900 L266 900 Z " />
<glyph glyph-name="dcaron" unicode="&#x10f;" horiz-adv-x="630" d="M448 72 L446 72 Q420 28 376 8 Q332 -12 281 -12 Q225 -12 181.5 7.5 Q138 27 107 61 Q76 95 60 141 Q44 187 44 240 Q44 293 61 339 Q78 385 108.5 419 Q139 453 182 472.5 Q225 492 276 492 Q310 492 336 485 Q362 478 382 467 Q402 456 416 443.5 Q430 431 439 419 L442 419 L442 756 L562 756 L562 0 L448 0 L448 72 Z M164 240 Q164 212 173.5 186 Q183 160 201.5 140 Q220 120 246 108 Q272 96 305 96 Q338 96 364 108 Q390 120 408.5 140 Q427 160 436.5 186 Q446 212 446 240 Q446 268 436.5 294 Q427 320 408.5 340 Q390 360 364 372 Q338 384 305 384 Q272 384 246 372 Q220 360 201.5 340 Q183 320 173.5 294 Q164 268 164 240 Z M670 708 L792 708 L707 510 L610 510 L670 708 Z " />
<glyph glyph-name="Dcroat" unicode="&#x110;" horiz-adv-x="759" d="M79 324 L13 324 L13 408 L79 408 L79 708 L358 708 Q428 708 493 686.5 Q558 665 608 621 Q658 577 688 510.5 Q718 444 718 354 Q718 263 683.5 196.5 Q649 130 594.5 86.5 Q540 43 473.5 21.5 Q407 0 343 0 L79 0 L79 324 Z M299 114 Q358 114 410.5 127.5 Q463 141 502 169.5 Q541 198 563.5 243.5 Q586 289 586 354 Q586 418 566 464 Q546 510 510.5 538.5 Q475 567 426.5 580.5 Q378 594 320 594 L205 594 L205 408 L421 408 L421 324 L205 324 L205 114 L299 114 Z " />
<glyph glyph-name="dslash" unicode="&#x111;" horiz-adv-x="630" d="M633 565 L562 565 L562 0 L448 0 L448 72 L446 72 Q420 27 376 7.5 Q332 -12 281 -12 Q225 -12 181.5 7.5 Q138 27 107 61 Q76 95 60 141 Q44 187 44 240 Q44 293 61 339 Q78 385 108.5 419 Q139 453 182 472.5 Q225 492 276 492 Q309 492 335.5 485 Q362 478 382 467 Q402 456 416 443.5 Q430 431 439 419 L442 419 L442 565 L313 565 L313 643 L442 643 L442 756 L562 756 L562 643 L633 643 L633 565 Z M164 240 Q164 212 173.5 186 Q183 160 201.5 140 Q220 120 246 108 Q272 96 305 96 Q338 96 364 108 Q390 120 408.5 140 Q427 160 436.5 186 Q446 212 446 240 Q446 268 436.5 294 Q427 320 408.5 340 Q390 360 364 372 Q338 384 305 384 Q272 384 246 372 Q220 360 201.5 340 Q183 320 173.5 294 Q164 268 164 240 Z " />
<glyph glyph-name="Emacron" unicode="&#x112;" horiz-adv-x="611" d="M79 708 L548 708 L548 594 L205 594 L205 420 L530 420 L530 306 L205 306 L205 114 L566 114 L566 0 L79 0 L79 708 Z M480 787 L160 787 L160 865 L480 865 L480 787 Z " />
<glyph glyph-name="emacron" unicode="&#x113;" horiz-adv-x="574" d="M164 198 Q170 144 206 114 Q242 84 293 84 Q338 84 368.5 102.5 Q399 121 422 149 L508 84 Q466 32 414 10 Q362 -12 305 -12 Q251 -12 203 6 Q155 24 120 57 Q85 90 64.5 136.5 Q44 183 44 240 Q44 297 64.5 343.5 Q85 390 120 423 Q155 456 203 474 Q251 492 305 492 Q355 492 396.5 474.5 Q438 457 467.5 424 Q497 391 513.5 342.5 Q530 294 530 231 L530 198 L164 198 Z M410 288 Q409 341 377 371.5 Q345 402 288 402 Q234 402 202.5 371 Q171 340 164 288 L410 288 Z M460 595 L140 595 L140 673 L460 673 L460 595 Z " />
<glyph glyph-name="Ebreve" unicode="&#x114;" horiz-adv-x="611" d="M79 708 L548 708 L548 594 L205 594 L205 420 L530 420 L530 306 L205 306 L205 114 L566 114 L566 0 L79 0 L79 708 Z M220 900 Q227 862 256 848 Q285 834 323 834 Q366 834 391 846 Q416 858 427 900 L493 900 Q485 825 439.5 790.5 Q394 756 322 756 Q250 756 204 790.5 Q158 825 153 900 L220 900 Z " />
<glyph glyph-name="ebreve" unicode="&#x115;" horiz-adv-x="574" d="M164 198 Q170 144 206 114 Q242 84 293 84 Q338 84 368.5 102.5 Q399 121 422 149 L508 84 Q466 32 414 10 Q362 -12 305 -12 Q251 -12 203 6 Q155 24 120 57 Q85 90 64.5 136.5 Q44 183 44 240 Q44 297 64.5 343.5 Q85 390 120 423 Q155 456 203 474 Q251 492 305 492 Q355 492 396.5 474.5 Q438 457 467.5 424 Q497 391 513.5 342.5 Q530 294 530 231 L530 198 L164 198 Z M410 288 Q409 341 377 371.5 Q345 402 288 402 Q234 402 202.5 371 Q171 340 164 288 L410 288 Z M197 708 Q204 670 233 656 Q262 642 300 642 Q343 642 368 654 Q393 666 404 708 L470 708 Q462 634 416.5 599 Q371 564 299 564 Q227 564 181 598.5 Q135 633 130 708 L197 708 Z " />
<glyph glyph-name="Edotaccent" unicode="&#x116;" horiz-adv-x="611" d="M79 708 L548 708 L548 594 L205 594 L205 420 L530 420 L530 306 L205 306 L205 114 L566 114 L566 0 L79 0 L79 708 Z M258 828 Q258 857 279.5 878.5 Q301 900 334 900 Q367 900 389.5 879.5 Q412 859 412 828 Q412 797 389.5 776.5 Q367 756 334 756 Q301 756 279.5 777.5 Q258 799 258 828 Z " />
<glyph glyph-name="edotaccent" unicode="&#x117;" horiz-adv-x="574" d="M164 198 Q170 144 206 114 Q242 84 293 84 Q338 84 368.5 102.5 Q399 121 422 149 L508 84 Q466 32 414 10 Q362 -12 305 -12 Q251 -12 203 6 Q155 24 120 57 Q85 90 64.5 136.5 Q44 183 44 240 Q44 297 64.5 343.5 Q85 390 120 423 Q155 456 203 474 Q251 492 305 492 Q355 492 396.5 474.5 Q438 457 467.5 424 Q497 391 513.5 342.5 Q530 294 530 231 L530 198 L164 198 Z M410 288 Q409 341 377 371.5 Q345 402 288 402 Q234 402 202.5 371 Q171 340 164 288 L410 288 Z M223 636 Q223 665 244.5 686.5 Q266 708 299 708 Q332 708 354.5 687.5 Q377 667 377 636 Q377 605 354.5 584.5 Q332 564 299 564 Q266 564 244.5 585.5 Q223 607 223 636 Z " />
<glyph glyph-name="Eogonek" unicode="&#x118;" horiz-adv-x="611" d="M79 708 L548 708 L548 594 L205 594 L205 420 L530 420 L530 306 L205 306 L205 114 L566 114 L566 0 L507 0 Q495 -11 482 -25.5 Q469 -40 457.5 -56.5 Q446 -73 438.5 -90 Q431 -107 431 -122 Q431 -141 444.5 -154.5 Q458 -168 477 -168 Q491 -168 505.5 -162 Q520 -156 531 -147 L556 -196 Q535 -213 509.5 -223.5 Q484 -234 456 -234 Q436 -234 417.5 -228.5 Q399 -223 384.5 -211.5 Q370 -200 361.5 -183.5 Q353 -167 353 -145 Q353 -125 361.5 -104.5 Q370 -84 383.5 -65 Q397 -46 413 -29.5 Q429 -13 445 0 L79 0 L79 708 Z " />
<glyph glyph-name="eogonek" unicode="&#x119;" horiz-adv-x="574" d="M414 -196 Q393 -213 367.5 -223.5 Q342 -234 314 -234 Q294 -234 275.5 -228.5 Q257 -223 242.5 -211.5 Q228 -200 219.5 -183.5 Q211 -167 211 -145 Q211 -127 218 -108.5 Q225 -90 236 -73 Q247 -56 261 -40 Q275 -24 289 -11 Q238 -8 193 11 Q148 30 115 62.5 Q82 95 63 140 Q44 185 44 240 Q44 297 64.5 343.5 Q85 390 120 423 Q155 456 203 474 Q251 492 305 492 Q355 492 396.5 474.5 Q438 457 467.5 424 Q497 391 513.5 342.5 Q530 294 530 231 L530 198 L164 198 Q170 144 206 114 Q242 84 293 84 Q338 84 368.5 102.5 Q399 121 422 149 L508 84 Q476 44 437.5 22.5 Q399 1 357 -7 Q346 -18 334 -32 Q322 -46 312 -61 Q302 -76 295.5 -92 Q289 -108 289 -122 Q289 -141 302.5 -154.5 Q316 -168 335 -168 Q349 -168 363.5 -162 Q378 -156 389 -147 L414 -196 Z M410 288 Q409 342 377 372 Q345 402 288 402 Q234 402 202.5 371 Q171 340 164 288 L410 288 Z " />
<glyph glyph-name="Ecaron" unicode="&#x11a;" horiz-adv-x="611" d="M79 708 L548 708 L548 594 L205 594 L205 420 L530 420 L530 306 L205 306 L205 114 L566 114 L566 0 L79 0 L79 708 Z M258 900 L327 810 L396 900 L506 900 L391 756 L258 756 L144 900 L258 900 Z " />
<glyph glyph-name="ecaron" unicode="&#x11b;" horiz-adv-x="574" d="M164 198 Q170 144 206 114 Q242 84 293 84 Q338 84 368.5 102.5 Q399 121 422 149 L508 84 Q466 32 414 10 Q362 -12 305 -12 Q251 -12 203 6 Q155 24 120 57 Q85 90 64.5 136.5 Q44 183 44 240 Q44 297 64.5 343.5 Q85 390 120 423 Q155 456 203 474 Q251 492 305 492 Q355 492 396.5 474.5 Q438 457 467.5 424 Q497 391 513.5 342.5 Q530 294 530 231 L530 198 L164 198 Z M410 288 Q409 341 377 371.5 Q345 402 288 402 Q234 402 202.5 371 Q171 340 164 288 L410 288 Z M233 708 L302 618 L371 708 L481 708 L366 564 L233 564 L119 708 L233 708 Z " />
<glyph glyph-name="Gcircumflex" unicode="&#x11c;" horiz-adv-x="778" d="M708 52 Q577 -18 415 -18 Q333 -18 264.5 8.5 Q196 35 146.5 83.5 Q97 132 69 200 Q41 268 41 351 Q41 436 69 505.5 Q97 575 146.5 624 Q196 673 264.5 699.5 Q333 726 415 726 Q496 726 567 706.5 Q638 687 694 637 L601 543 Q567 576 518.5 594 Q470 612 416 612 Q361 612 316.5 592.5 Q272 573 240 538.5 Q208 504 190.5 458 Q173 412 173 359 Q173 302 190.5 254 Q208 206 240 171 Q272 136 316.5 116 Q361 96 416 96 Q464 96 506.5 105 Q549 114 582 133 L582 300 L437 300 L437 414 L708 414 L708 52 Z M479 756 L410 846 L341 756 L229 756 L344 900 L479 900 L593 756 L479 756 Z " />
<glyph glyph-name="gcircumflex" unicode="&#x11d;" horiz-adv-x="630" d="M562 480 L562 43 Q562 -22 546 -74.5 Q530 -127 496.5 -163.5 Q463 -200 412 -220 Q361 -240 291 -240 Q224 -240 164 -223 Q104 -206 53 -161 L125 -63 Q161 -96 200 -114 Q239 -132 290 -132 Q333 -132 362.5 -120 Q392 -108 409.5 -87 Q427 -66 434.5 -36.5 Q442 -7 442 29 L442 64 L440 64 Q414 29 371 11.5 Q328 -6 283 -6 Q229 -6 185 13.5 Q141 33 109.5 66 Q78 99 61 144 Q44 189 44 240 Q44 293 60 339 Q76 385 107 419 Q138 453 181.5 472.5 Q225 492 281 492 Q332 492 376 472 Q420 452 446 408 L448 408 L448 480 L562 480 Z M306 384 Q274 384 248 373.5 Q222 363 203.5 344.5 Q185 326 174.5 299.5 Q164 273 164 241 Q164 212 174.5 187 Q185 162 204 143 Q223 124 249 113 Q275 102 305 102 Q338 102 364.5 113 Q391 124 409.5 142.5 Q428 161 438 187 Q448 213 448 243 Q448 306 410 345 Q372 384 306 384 Z M395 564 L326 654 L257 564 L145 564 L260 708 L395 708 L509 564 L395 564 Z " />
<glyph glyph-name="Gbreve" unicode="&#x11e;" horiz-adv-x="778" d="M708 52 Q577 -18 415 -18 Q333 -18 264.5 8.5 Q196 35 146.5 83.5 Q97 132 69 200 Q41 268 41 351 Q41 436 69 505.5 Q97 575 146.5 624 Q196 673 264.5 699.5 Q333 726 415 726 Q496 726 567 706.5 Q638 687 694 637 L601 543 Q567 576 518.5 594 Q470 612 416 612 Q361 612 316.5 592.5 Q272 573 240 538.5 Q208 504 190.5 458 Q173 412 173 359 Q173 302 190.5 254 Q208 206 240 171 Q272 136 316.5 116 Q361 96 416 96 Q464 96 506.5 105 Q549 114 582 133 L582 300 L437 300 L437 414 L708 414 L708 52 Z M310 900 Q317 862 346 848 Q375 834 413 834 Q456 834 481 846 Q506 858 517 900 L583 900 Q575 825 529.5 790.5 Q484 756 412 756 Q340 756 294 790.5 Q248 825 243 900 L310 900 Z " />
<glyph glyph-name="gbreve" unicode="&#x11f;" horiz-adv-x="630" d="M562 480 L562 43 Q562 -22 546 -74.5 Q530 -127 496.5 -163.5 Q463 -200 412 -220 Q361 -240 291 -240 Q224 -240 164 -223 Q104 -206 53 -161 L125 -63 Q161 -96 200 -114 Q239 -132 290 -132 Q333 -132 362.5 -120 Q392 -108 409.5 -87 Q427 -66 434.5 -36.5 Q442 -7 442 29 L442 64 L440 64 Q414 29 371 11.5 Q328 -6 283 -6 Q229 -6 185 13.5 Q141 33 109.5 66 Q78 99 61 144 Q44 189 44 240 Q44 293 60 339 Q76 385 107 419 Q138 453 181.5 472.5 Q225 492 281 492 Q332 492 376 472 Q420 452 446 408 L448 408 L448 480 L562 480 Z M306 384 Q274 384 248 373.5 Q222 363 203.5 344.5 Q185 326 174.5 299.5 Q164 273 164 241 Q164 212 174.5 187 Q185 162 204 143 Q223 124 249 113 Q275 102 305 102 Q338 102 364.5 113 Q391 124 409.5 142.5 Q428 161 438 187 Q448 213 448 243 Q448 306 410 345 Q372 384 306 384 Z M224 708 Q231 670 260 656 Q289 642 327 642 Q370 642 395 654 Q420 666 431 708 L497 708 Q489 634 443.5 599 Q398 564 326 564 Q254 564 208 598.5 Q162 633 157 708 L224 708 Z " />
<glyph glyph-name="Gdotaccent" unicode="&#x120;" horiz-adv-x="778" d="M708 52 Q577 -18 415 -18 Q333 -18 264.5 8.5 Q196 35 146.5 83.5 Q97 132 69 200 Q41 268 41 351 Q41 436 69 505.5 Q97 575 146.5 624 Q196 673 264.5 699.5 Q333 726 415 726 Q496 726 567 706.5 Q638 687 694 637 L601 543 Q567 576 518.5 594 Q470 612 416 612 Q361 612 316.5 592.5 Q272 573 240 538.5 Q208 504 190.5 458 Q173 412 173 359 Q173 302 190.5 254 Q208 206 240 171 Q272 136 316.5 116 Q361 96 416 96 Q464 96 506.5 105 Q549 114 582 133 L582 300 L437 300 L437 414 L708 414 L708 52 Z M337 828 Q337 857 358.5 878.5 Q380 900 413 900 Q446 900 468.5 879.5 Q491 859 491 828 Q491 797 468.5 776.5 Q446 756 413 756 Q380 756 358.5 777.5 Q337 799 337 828 Z " />
<glyph glyph-name="gdotaccent" unicode="&#x121;" horiz-adv-x="630" d="M562 480 L562 43 Q562 -22 546 -74.5 Q530 -127 496.5 -163.5 Q463 -200 412 -220 Q361 -240 291 -240 Q224 -240 164 -223 Q104 -206 53 -161 L125 -63 Q161 -96 200 -114 Q239 -132 290 -132 Q333 -132 362.5 -120 Q392 -108 409.5 -87 Q427 -66 434.5 -36.5 Q442 -7 442 29 L442 64 L440 64 Q414 29 371 11.5 Q328 -6 283 -6 Q229 -6 185 13.5 Q141 33 109.5 66 Q78 99 61 144 Q44 189 44 240 Q44 293 60 339 Q76 385 107 419 Q138 453 181.5 472.5 Q225 492 281 492 Q332 492 376 472 Q420 452 446 408 L448 408 L448 480 L562 480 Z M306 384 Q274 384 248 373.5 Q222 363 203.5 344.5 Q185 326 174.5 299.5 Q164 273 164 241 Q164 212 174.5 187 Q185 162 204 143 Q223 124 249 113 Q275 102 305 102 Q338 102 364.5 113 Q391 124 409.5 142.5 Q428 161 438 187 Q448 213 448 243 Q448 306 410 345 Q372 384 306 384 Z M240 636 Q240 665 261.5 686.5 Q283 708 316 708 Q349 708 371.5 687.5 Q394 667 394 636 Q394 605 371.5 584.5 Q349 564 316 564 Q283 564 261.5 585.5 Q240 607 240 636 Z " />
<glyph glyph-name="Gcommaaccent" unicode="&#x122;" horiz-adv-x="778" d="M708 52 Q577 -18 415 -18 Q333 -18 264.5 8.5 Q196 35 146.5 83.5 Q97 132 69 200 Q41 268 41 351 Q41 436 69 505.5 Q97 575 146.5 624 Q196 673 264.5 699.5 Q333 726 415 726 Q496 726 567 706.5 Q638 687 694 637 L601 543 Q567 576 518.5 594 Q470 612 416 612 Q361 612 316.5 592.5 Q272 573 240 538.5 Q208 504 190.5 458 Q173 412 173 359 Q173 302 190.5 254 Q208 206 240 171 Q272 136 316.5 116 Q361 96 416 96 Q464 96 506.5 105 Q549 114 582 133 L582 300 L437 300 L437 414 L708 414 L708 52 Z M379 -60 L501 -60 L416 -258 L309 -258 L379 -60 Z " />
<glyph glyph-name="gcommaaccent" unicode="&#x123;" horiz-adv-x="630" d="M562 480 L562 43 Q562 -22 546 -74.5 Q530 -127 496.5 -163.5 Q463 -200 412 -220 Q361 -240 291 -240 Q224 -240 164 -223 Q104 -206 53 -161 L125 -63 Q161 -96 200 -114 Q239 -132 290 -132 Q333 -132 362.5 -120 Q392 -108 409.5 -87 Q427 -66 434.5 -36.5 Q442 -7 442 29 L442 64 L440 64 Q414 29 371 11.5 Q328 -6 283 -6 Q229 -6 185 13.5 Q141 33 109.5 66 Q78 99 61 144 Q44 189 44 240 Q44 293 60 339 Q76 385 107 419 Q138 453 181.5 472.5 Q225 492 281 492 Q332 492 376 472 Q420 452 446 408 L448 408 L448 480 L562 480 Z M306 384 Q274 384 248 373.5 Q222 363 203.5 344.5 Q185 326 174.5 299.5 Q164 273 164 241 Q164 212 174.5 187 Q185 162 204 143 Q223 124 249 113 Q275 102 305 102 Q338 102 364.5 113 Q391 124 409.5 142.5 Q428 161 438 187 Q448 213 448 243 Q448 306 410 345 Q372 384 306 384 Z M357 584 L235 584 L320 782 L427 782 L357 584 Z " />
<glyph glyph-name="Hcircumflex" unicode="&#x124;" horiz-adv-x="741" d="M79 708 L205 708 L205 426 L536 426 L536 708 L662 708 L662 0 L536 0 L536 312 L205 312 L205 0 L79 0 L79 708 Z M438 756 L369 846 L300 756 L188 756 L303 900 L438 900 L552 756 L438 756 Z " />
<glyph glyph-name="hcircumflex" unicode="&#x125;" horiz-adv-x="574" d="M188 413 L190 413 Q204 443 239.5 467.5 Q275 492 331 492 Q379 492 412.5 476 Q446 460 467 434 Q488 408 497 374 Q506 340 506 303 L506 0 L386 0 L386 243 Q386 263 384 287.5 Q382 312 373.5 333.5 Q365 355 347 369.5 Q329 384 298 384 Q268 384 247.5 374 Q227 364 213.5 347 Q200 330 194 308 Q188 286 188 262 L188 0 L68 0 L68 756 L188 756 L188 413 Z M358 796 L289 886 L220 796 L108 796 L223 940 L358 940 L472 796 L358 796 Z " />
<glyph glyph-name="Hbar" unicode="&#x126;" horiz-adv-x="741" d="M79 708 L205 708 L205 619 L536 619 L536 708 L662 708 L662 0 L536 0 L536 312 L205 312 L205 0 L79 0 L79 708 Z M536 426 L536 541 L205 541 L205 426 L536 426 Z " />
<glyph glyph-name="hbar" unicode="&#x127;" horiz-adv-x="574" d="M317 565 L188 565 L188 413 L190 413 Q204 443 239 467.5 Q274 492 331 492 Q379 492 412.5 476 Q446 460 467 434 Q488 408 497 374 Q506 340 506 303 L506 0 L386 0 L386 243 Q386 263 384 287.5 Q382 312 373.5 333.5 Q365 355 347 369.5 Q329 384 298 384 Q268 384 247.5 374 Q227 364 213.5 347 Q200 330 194 308 Q188 286 188 262 L188 0 L68 0 L68 565 L-3 565 L-3 643 L68 643 L68 756 L188 756 L188 643 L317 643 L317 565 Z " />
<glyph glyph-name="Itilde" unicode="&#x128;" horiz-adv-x="278" d="M76 708 L202 708 L202 0 L76 0 L76 708 Z M-44 760 Q-40 784 -32.5 807 Q-25 830 -12 847.5 Q1 865 20.5 876 Q40 887 68 887 Q88 887 108.5 881 Q129 875 148 868.5 Q167 862 183.5 856 Q200 850 212 850 Q232 850 242.5 862.5 Q253 875 258 892 L324 892 Q320 868 312.5 845 Q305 822 292 804.5 Q279 787 259.5 776 Q240 765 212 765 Q192 765 171.5 771 Q151 777 132 784 Q113 791 96.5 797 Q80 803 68 803 Q48 803 37.5 790 Q27 777 22 760 L-44 760 Z " />
<glyph glyph-name="itilde" unicode="&#x129;" horiz-adv-x="260" d="M70 480 L190 480 L190 0 L70 0 L70 480 Z M-52 568 Q-48 592 -40.5 615 Q-33 638 -20 655.5 Q-7 673 12.5 684 Q32 695 60 695 Q80 695 100.5 689 Q121 683 140 676.5 Q159 670 175.5 664 Q192 658 204 658 Q224 658 234.5 670.5 Q245 683 250 700 L316 700 Q312 676 304.5 653 Q297 630 284 612.5 Q271 595 251.5 584 Q232 573 204 573 Q184 573 163.5 579 Q143 585 124 592 Q105 599 88.5 605 Q72 611 60 611 Q40 611 29.5 598 Q19 585 14 568 L-52 568 Z " />
<glyph glyph-name="Imacron" unicode="&#x12a;" horiz-adv-x="278" d="M76 708 L202 708 L202 0 L76 0 L76 708 Z M298 787 L-22 787 L-22 865 L298 865 L298 787 Z " />
<glyph glyph-name="imacron" unicode="&#x12b;" horiz-adv-x="260" d="M70 480 L190 480 L190 0 L70 0 L70 480 Z M292 595 L-28 595 L-28 673 L292 673 L292 595 Z " />
<glyph glyph-name="Iogonek" unicode="&#x12e;" horiz-adv-x="278" d="M76 708 L202 708 L202 0 L166 0 Q154 -11 141 -25.5 Q128 -40 116.5 -56.5 Q105 -73 97.5 -90 Q90 -107 90 -122 Q90 -141 103.5 -154.5 Q117 -168 136 -168 Q150 -168 164.5 -162 Q179 -156 190 -147 L215 -196 Q194 -213 168.5 -223.5 Q143 -234 115 -234 Q95 -234 76.5 -228.5 Q58 -223 43.5 -211.5 Q29 -200 20.5 -183.5 Q12 -167 12 -145 Q12 -125 20.5 -104.5 Q29 -84 42.5 -65 Q56 -46 72 -29.5 Q88 -13 104 0 L76 0 L76 708 Z " />
<glyph glyph-name="iogonek" unicode="&#x12f;" horiz-adv-x="260" d="M70 480 L190 480 L190 0 L132 0 Q120 -11 107 -25.5 Q94 -40 82.5 -56.5 Q71 -73 63.5 -90 Q56 -107 56 -122 Q56 -141 69.5 -154.5 Q83 -168 102 -168 Q116 -168 130.5 -162 Q145 -156 156 -147 L181 -196 Q160 -213 134.5 -223.5 Q109 -234 81 -234 Q61 -234 42.5 -228.5 Q24 -223 9.5 -211.5 Q-5 -200 -13.5 -183.5 Q-22 -167 -22 -145 Q-22 -125 -13.5 -104.5 Q-5 -84 8.5 -65 Q22 -46 38 -29.5 Q54 -13 70 0 L70 480 Z M53 643 Q53 672 74.5 693.5 Q96 715 129 715 Q162 715 184.5 694.5 Q207 674 207 643 Q207 612 184.5 591.5 Q162 571 129 571 Q96 571 74.5 592.5 Q53 614 53 643 Z " />
<glyph glyph-name="Idot" unicode="&#x130;" horiz-adv-x="278" d="M76 708 L202 708 L202 0 L76 0 L76 708 Z M63 828 Q63 857 84.5 878.5 Q106 900 139 900 Q172 900 194.5 879.5 Q217 859 217 828 Q217 797 194.5 776.5 Q172 756 139 756 Q106 756 84.5 777.5 Q63 799 63 828 Z " />
<glyph glyph-name="dotlessi" unicode="&#x131;" horiz-adv-x="260" d="M70 480 L190 480 L190 0 L70 0 L70 480 Z " />
<glyph glyph-name="IJ" unicode="&#x132;" horiz-adv-x="767" d="M76 708 L202 708 L202 0 L76 0 L76 708 Z M693 196 Q693 154 679.5 115 Q666 76 639.5 46.5 Q613 17 573 -0.5 Q533 -18 480 -18 Q396 -18 342.5 21 Q289 60 272 145 L390 173 Q396 138 418.5 117 Q441 96 474 96 Q528 96 547.5 132.5 Q567 169 567 233 L567 708 L693 708 L693 196 Z " />
<glyph glyph-name="ij" unicode="&#x133;" horiz-adv-x="484" d="M70 480 L190 480 L190 0 L70 0 L70 480 Z M53 643 Q53 672 74.5 693.5 Q96 715 129 715 Q162 715 184.5 694.5 Q207 674 207 643 Q207 612 184.5 591.5 Q162 571 129 571 Q96 571 74.5 592.5 Q53 614 53 643 Z M414 480 L414 -29 Q414 -74 408 -112.5 Q402 -151 384.5 -179.5 Q367 -208 335 -224 Q303 -240 252 -240 Q235 -240 219 -238 Q203 -236 187 -231 L196 -127 Q206 -129 215 -130.5 Q224 -132 234 -132 Q256 -132 268.5 -122.5 Q281 -113 286.5 -98 Q292 -83 293 -65 Q294 -47 294 -30 L294 480 L414 480 Z M277 643 Q277 672 298.5 693.5 Q320 715 353 715 Q386 715 408.5 694.5 Q431 674 431 643 Q431 612 408.5 591.5 Q386 571 353 571 Q320 571 298.5 592.5 Q277 614 277 643 Z " />
<glyph glyph-name="Jcircumflex" unicode="&#x134;" horiz-adv-x="500" d="M426 196 Q426 154 412.5 115 Q399 76 372.5 46.5 Q346 17 306 -0.5 Q266 -18 213 -18 Q129 -18 75.5 21 Q22 60 5 145 L123 173 Q129 138 151.5 117 Q174 96 207 96 Q261 96 280.5 132.5 Q300 169 300 233 L300 708 L426 708 L426 196 Z M432 756 L363 846 L294 756 L182 756 L297 900 L432 900 L546 756 L432 756 Z " />
<glyph glyph-name="jcircumflex" unicode="&#x135;" horiz-adv-x="260" d="M190 480 L190 -29 Q190 -74 184 -112.5 Q178 -151 160.5 -179.5 Q143 -208 111 -224 Q79 -240 28 -240 Q11 -240 -5 -238 Q-21 -236 -37 -231 L-28 -127 Q-18 -129 -9 -130.5 Q0 -132 10 -132 Q32 -132 44.5 -122.5 Q57 -113 62.5 -98 Q68 -83 69 -65 Q70 -47 70 -30 L70 480 L190 480 Z M198 564 L129 654 L60 564 L-52 564 L63 708 L198 708 L312 564 L198 564 Z " />
<glyph glyph-name="Kcommaaccent" unicode="&#x136;" horiz-adv-x="685" d="M79 708 L205 708 L205 408 L211 408 L504 708 L674 708 L343 381 L696 0 L519 0 L212 348 L205 348 L205 0 L79 0 L79 708 Z M282 -60 L404 -60 L319 -258 L212 -258 L282 -60 Z " />
<glyph glyph-name="kcommaaccent" unicode="&#x137;" horiz-adv-x="537" d="M68 756 L188 756 L188 281 L373 480 L527 480 L321 262 L540 0 L381 0 L190 245 L188 245 L188 0 L68 0 L68 756 Z M212 -60 L334 -60 L249 -258 L142 -258 L212 -60 Z " />
<glyph glyph-name="Lacute" unicode="&#x139;" horiz-adv-x="519" d="M79 708 L205 708 L205 114 L506 114 L506 0 L79 0 L79 708 Z M164 900 L300 900 L159 756 L65 756 L164 900 Z " />
<glyph glyph-name="lacute" unicode="&#x13a;" horiz-adv-x="260" d="M70 756 L190 756 L190 0 L70 0 L70 756 Z M153 940 L289 940 L148 796 L54 796 L153 940 Z " />
<glyph glyph-name="Lcommaaccent" unicode="&#x13b;" horiz-adv-x="519" d="M79 708 L205 708 L205 114 L506 114 L506 0 L79 0 L79 708 Z M227 -60 L349 -60 L264 -258 L157 -258 L227 -60 Z " />
<glyph glyph-name="lcommaaccent" unicode="&#x13c;" horiz-adv-x="260" d="M70 756 L190 756 L190 0 L70 0 L70 756 Z M88 -60 L210 -60 L125 -258 L18 -258 L88 -60 Z " />
<glyph glyph-name="Lcaron" unicode="&#x13d;" horiz-adv-x="519" d="M79 708 L205 708 L205 114 L506 114 L506 0 L79 0 L79 708 Z M318 708 L440 708 L355 510 L258 510 L318 708 Z " />
<glyph glyph-name="lcaron" unicode="&#x13e;" horiz-adv-x="260" d="M70 756 L190 756 L190 0 L70 0 L70 756 Z M307 708 L429 708 L344 510 L247 510 L307 708 Z " />
<glyph glyph-name="Ldot" unicode="&#x13f;" horiz-adv-x="519" d="M79 708 L205 708 L205 114 L506 114 L506 0 L79 0 L79 708 Z M336 379 Q336 408 357.5 429.5 Q379 451 412 451 Q445 451 467.5 430.5 Q490 410 490 379 Q490 348 467.5 327.5 Q445 307 412 307 Q379 307 357.5 328.5 Q336 350 336 379 Z " />
<glyph glyph-name="ldot" unicode="&#x140;" horiz-adv-x="384" d="M70 756 L190 756 L190 0 L70 0 L70 756 Z M242 380 Q242 409 263.5 430.5 Q285 452 318 452 Q351 452 373.5 431.5 Q396 411 396 380 Q396 349 373.5 328.5 Q351 308 318 308 Q285 308 263.5 329.5 Q242 351 242 380 Z " />
<glyph glyph-name="Lslash" unicode="&#x141;" horiz-adv-x="519" d="M79 187 L9 125 L9 235 L79 297 L79 708 L205 708 L205 408 L411 589 L411 480 L205 298 L205 114 L506 114 L506 0 L79 0 L79 187 Z " />
<glyph glyph-name="lslash" unicode="&#x142;" horiz-adv-x="260" d="M70 273 L1 204 L1 313 L70 382 L70 756 L190 756 L190 501 L259 570 L259 463 L190 395 L190 0 L70 0 L70 273 Z " />
<glyph glyph-name="Nacute" unicode="&#x143;" horiz-adv-x="796" d="M79 708 L246 708 L589 182 L591 182 L591 708 L717 708 L717 0 L557 0 L207 543 L205 543 L205 0 L79 0 L79 708 Z M443 900 L579 900 L438 756 L344 756 L443 900 Z " />
<glyph glyph-name="nacute" unicode="&#x144;" horiz-adv-x="574" d="M68 480 L182 480 L182 403 L184 403 Q201 439 236 465.5 Q271 492 331 492 Q379 492 412.5 476 Q446 460 467 434 Q488 408 497 374 Q506 340 506 303 L506 0 L386 0 L386 243 Q386 263 384 287.5 Q382 312 373.5 333.5 Q365 355 347 369.5 Q329 384 298 384 Q268 384 247.5 374 Q227 364 213.5 347 Q200 330 194 308 Q188 286 188 262 L188 0 L68 0 L68 480 Z M309 708 L445 708 L304 564 L210 564 L309 708 Z " />
<glyph glyph-name="Ncommaaccent" unicode="&#x145;" horiz-adv-x="796" d="M79 708 L246 708 L589 182 L591 182 L591 708 L717 708 L717 0 L557 0 L207 543 L205 543 L205 0 L79 0 L79 708 Z M331 -60 L453 -60 L368 -258 L261 -258 L331 -60 Z " />
<glyph glyph-name="ncommaaccent" unicode="&#x146;" horiz-adv-x="574" d="M68 480 L182 480 L182 403 L184 403 Q201 439 236 465.5 Q271 492 331 492 Q379 492 412.5 476 Q446 460 467 434 Q488 408 497 374 Q506 340 506 303 L506 0 L386 0 L386 243 Q386 263 384 287.5 Q382 312 373.5 333.5 Q365 355 347 369.5 Q329 384 298 384 Q268 384 247.5 374 Q227 364 213.5 347 Q200 330 194 308 Q188 286 188 262 L188 0 L68 0 L68 480 Z M230 -60 L352 -60 L267 -258 L160 -258 L230 -60 Z " />
<glyph glyph-name="Ncaron" unicode="&#x147;" horiz-adv-x="796" d="M79 708 L246 708 L589 182 L591 182 L591 708 L717 708 L717 0 L557 0 L207 543 L205 543 L205 0 L79 0 L79 708 Z M330 900 L399 810 L468 900 L578 900 L463 756 L330 756 L216 900 L330 900 Z " />
<glyph glyph-name="ncaron" unicode="&#x148;" horiz-adv-x="574" d="M68 480 L182 480 L182 403 L184 403 Q201 439 236 465.5 Q271 492 331 492 Q379 492 412.5 476 Q446 460 467 434 Q488 408 497 374 Q506 340 506 303 L506 0 L386 0 L386 243 Q386 263 384 287.5 Q382 312 373.5 333.5 Q365 355 347 369.5 Q329 384 298 384 Q268 384 247.5 374 Q227 364 213.5 347 Q200 330 194 308 Q188 286 188 262 L188 0 L68 0 L68 480 Z M225 708 L294 618 L363 708 L473 708 L358 564 L225 564 L111 708 L225 708 Z " />
<glyph glyph-name="napostrophe" unicode="&#x149;" horiz-adv-x="574" d="M68 480 L182 480 L182 403 L184 403 Q201 439 236 465.5 Q271 492 331 492 Q379 492 412.5 476 Q446 460 467 434 Q488 408 497 374 Q506 340 506 303 L506 0 L386 0 L386 243 Q386 263 384 287.5 Q382 312 373.5 333.5 Q365 355 347 369.5 Q329 384 298 384 Q268 384 247.5 374 Q227 364 213.5 347 Q200 330 194 308 Q188 286 188 262 L188 0 L68 0 L68 480 Z M-2 708 L120 708 L35 510 L-62 510 L-2 708 Z " />
<glyph glyph-name="Omacron" unicode="&#x14c;" horiz-adv-x="833" d="M41 351 Q41 436 69 505.5 Q97 575 146.5 624 Q196 673 264.5 699.5 Q333 726 415 726 Q498 727 567 701.5 Q636 676 686 627 Q736 578 764 509 Q792 440 792 355 Q792 272 764 204 Q736 136 686 87 Q636 38 567 10.5 Q498 -17 415 -18 Q333 -18 264.5 8.5 Q196 35 146.5 83.5 Q97 132 69 200 Q41 268 41 351 Z M173 359 Q173 302 190.5 254 Q208 206 240 171 Q272 136 316.5 116 Q361 96 416 96 Q471 96 516 116 Q561 136 593 171 Q625 206 642.5 254 Q660 302 660 359 Q660 412 642.5 458 Q625 504 593 538.5 Q561 573 516 592.5 Q471 612 416 612 Q361 612 316.5 592.5 Q272 573 240 538.5 Q208 504 190.5 458 Q173 412 173 359 Z M575 787 L255 787 L255 865 L575 865 L575 787 Z " />
<glyph glyph-name="omacron" unicode="&#x14d;" horiz-adv-x="610" d="M44 240 Q44 297 64.5 343.5 Q85 390 120 423 Q155 456 203 474 Q251 492 305 492 Q359 492 407 474 Q455 456 490 423 Q525 390 545.5 343.5 Q566 297 566 240 Q566 183 545.5 136.5 Q525 90 490 57 Q455 24 407 6 Q359 -12 305 -12 Q251 -12 203 6 Q155 24 120 57 Q85 90 64.5 136.5 Q44 183 44 240 Z M164 240 Q164 212 173.5 186 Q183 160 201.5 140 Q220 120 246 108 Q272 96 305 96 Q338 96 364 108 Q390 120 408.5 140 Q427 160 436.5 186 Q446 212 446 240 Q446 268 436.5 294 Q427 320 408.5 340 Q390 360 364 372 Q338 384 305 384 Q272 384 246 372 Q220 360 201.5 340 Q183 320 173.5 294 Q164 268 164 240 Z M465 595 L145 595 L145 673 L465 673 L465 595 Z " />
<glyph glyph-name="Obreve" unicode="&#x14e;" horiz-adv-x="833" d="M41 351 Q41 436 69 505.5 Q97 575 146.5 624 Q196 673 264.5 699.5 Q333 726 415 726 Q498 727 567 701.5 Q636 676 686 627 Q736 578 764 509 Q792 440 792 355 Q792 272 764 204 Q736 136 686 87 Q636 38 567 10.5 Q498 -17 415 -18 Q333 -18 264.5 8.5 Q196 35 146.5 83.5 Q97 132 69 200 Q41 268 41 351 Z M173 359 Q173 302 190.5 254 Q208 206 240 171 Q272 136 316.5 116 Q361 96 416 96 Q471 96 516 116 Q561 136 593 171 Q625 206 642.5 254 Q660 302 660 359 Q660 412 642.5 458 Q625 504 593 538.5 Q561 573 516 592.5 Q471 612 416 612 Q361 612 316.5 592.5 Q272 573 240 538.5 Q208 504 190.5 458 Q173 412 173 359 Z M312 900 Q319 862 348 848 Q377 834 415 834 Q458 834 483 846 Q508 858 519 900 L585 900 Q577 825 531.5 790.5 Q486 756 414 756 Q342 756 296 790.5 Q250 825 245 900 L312 900 Z " />
<glyph glyph-name="obreve" unicode="&#x14f;" horiz-adv-x="610" d="M44 240 Q44 297 64.5 343.5 Q85 390 120 423 Q155 456 203 474 Q251 492 305 492 Q359 492 407 474 Q455 456 490 423 Q525 390 545.5 343.5 Q566 297 566 240 Q566 183 545.5 136.5 Q525 90 490 57 Q455 24 407 6 Q359 -12 305 -12 Q251 -12 203 6 Q155 24 120 57 Q85 90 64.5 136.5 Q44 183 44 240 Z M164 240 Q164 212 173.5 186 Q183 160 201.5 140 Q220 120 246 108 Q272 96 305 96 Q338 96 364 108 Q390 120 408.5 140 Q427 160 436.5 186 Q446 212 446 240 Q446 268 436.5 294 Q427 320 408.5 340 Q390 360 364 372 Q338 384 305 384 Q272 384 246 372 Q220 360 201.5 340 Q183 320 173.5 294 Q164 268 164 240 Z M204 708 Q211 670 240 656 Q269 642 307 642 Q350 642 375 654 Q400 666 411 708 L477 708 Q469 634 423.5 599 Q378 564 306 564 Q234 564 188 598.5 Q142 633 137 708 L204 708 Z " />
<glyph glyph-name="Ohungarumlaut" unicode="&#x150;" horiz-adv-x="833" d="M41 351 Q41 436 69 505.5 Q97 575 146.5 624 Q196 673 264.5 699.5 Q333 726 415 726 Q498 727 567 701.5 Q636 676 686 627 Q736 578 764 509 Q792 440 792 355 Q792 272 764 204 Q736 136 686 87 Q636 38 567 10.5 Q498 -17 415 -18 Q333 -18 264.5 8.5 Q196 35 146.5 83.5 Q97 132 69 200 Q41 268 41 351 Z M173 359 Q173 302 190.5 254 Q208 206 240 171 Q272 136 316.5 116 Q361 96 416 96 Q471 96 516 116 Q561 136 593 171 Q625 206 642.5 254 Q660 302 660 359 Q660 412 642.5 458 Q625 504 593 538.5 Q561 573 516 592.5 Q471 612 416 612 Q361 612 316.5 592.5 Q272 573 240 538.5 Q208 504 190.5 458 Q173 412 173 359 Z M363 900 L499 900 L358 756 L264 756 L363 900 Z M568 900 L704 900 L563 756 L469 756 L568 900 Z " />
<glyph glyph-name="ohungarumlaut" unicode="&#x151;" horiz-adv-x="610" d="M44 240 Q44 297 64.5 343.5 Q85 390 120 423 Q155 456 203 474 Q251 492 305 492 Q359 492 407 474 Q455 456 490 423 Q525 390 545.5 343.5 Q566 297 566 240 Q566 183 545.5 136.5 Q525 90 490 57 Q455 24 407 6 Q359 -12 305 -12 Q251 -12 203 6 Q155 24 120 57 Q85 90 64.5 136.5 Q44 183 44 240 Z M164 240 Q164 212 173.5 186 Q183 160 201.5 140 Q220 120 246 108 Q272 96 305 96 Q338 96 364 108 Q390 120 408.5 140 Q427 160 436.5 186 Q446 212 446 240 Q446 268 436.5 294 Q427 320 408.5 340 Q390 360 364 372 Q338 384 305 384 Q272 384 246 372 Q220 360 201.5 340 Q183 320 173.5 294 Q164 268 164 240 Z M243 708 L379 708 L238 564 L144 564 L243 708 Z M448 708 L584 708 L443 564 L349 564 L448 708 Z " />
<glyph glyph-name="Racute" unicode="&#x154;" horiz-adv-x="630" d="M79 708 L325 708 Q376 708 423.5 698.5 Q471 689 508 666 Q545 643 567 604 Q589 565 589 505 Q589 428 546.5 376 Q504 324 425 313 L613 0 L461 0 L297 300 L205 300 L205 0 L79 0 L79 708 Z M303 408 Q330 408 357 410.5 Q384 413 406.5 422.5 Q429 432 443 451.5 Q457 471 457 506 Q457 537 444 556 Q431 575 410 584.5 Q389 594 363.5 597 Q338 600 314 600 L205 600 L205 408 L303 408 Z M309 900 L445 900 L304 756 L210 756 L309 900 Z " />
<glyph glyph-name="racute" unicode="&#x155;" horiz-adv-x="389" d="M68 480 L188 480 L188 404 L190 404 Q210 446 247 469 Q284 492 332 492 Q343 492 353.5 490 Q364 488 375 485 L375 369 Q360 373 345.5 375.5 Q331 378 317 378 Q275 378 249.5 362.5 Q224 347 210.5 327 Q197 307 192.5 287 Q188 267 188 257 L188 0 L68 0 L68 480 Z M232 708 L368 708 L227 564 L133 564 L232 708 Z " />
<glyph glyph-name="Rcommaaccent" unicode="&#x156;" horiz-adv-x="630" d="M79 708 L325 708 Q376 708 423.5 698.5 Q471 689 508 666 Q545 643 567 604 Q589 565 589 505 Q589 428 546.5 376 Q504 324 425 313 L613 0 L461 0 L297 300 L205 300 L205 0 L79 0 L79 708 Z M303 408 Q330 408 357 410.5 Q384 413 406.5 422.5 Q429 432 443 451.5 Q457 471 457 506 Q457 537 444 556 Q431 575 410 584.5 Q389 594 363.5 597 Q338 600 314 600 L205 600 L205 408 L303 408 Z M241 -60 L363 -60 L278 -258 L171 -258 L241 -60 Z " />
<glyph glyph-name="rcommaaccent" unicode="&#x157;" horiz-adv-x="389" d="M68 480 L188 480 L188 404 L190 404 Q210 446 247 469 Q284 492 332 492 Q343 492 353.5 490 Q364 488 375 485 L375 369 Q360 373 345.5 375.5 Q331 378 317 378 Q275 378 249.5 362.5 Q224 347 210.5 327 Q197 307 192.5 287 Q188 267 188 257 L188 0 L68 0 L68 480 Z M133 -60 L255 -60 L170 -258 L63 -258 L133 -60 Z " />
<glyph glyph-name="Rcaron" unicode="&#x158;" horiz-adv-x="630" d="M79 708 L325 708 Q376 708 423.5 698.5 Q471 689 508 666 Q545 643 567 604 Q589 565 589 505 Q589 428 546.5 376 Q504 324 425 313 L613 0 L461 0 L297 300 L205 300 L205 0 L79 0 L79 708 Z M303 408 Q330 408 357 410.5 Q384 413 406.5 422.5 Q429 432 443 451.5 Q457 471 457 506 Q457 537 444 556 Q431 575 410 584.5 Q389 594 363.5 597 Q338 600 314 600 L205 600 L205 408 L303 408 Z M249 900 L318 810 L387 900 L497 900 L382 756 L249 756 L135 900 L249 900 Z " />
<glyph glyph-name="rcaron" unicode="&#x159;" horiz-adv-x="389" d="M68 480 L188 480 L188 404 L190 404 Q210 446 247 469 Q284 492 332 492 Q343 492 353.5 490 Q364 488 375 485 L375 369 Q360 373 345.5 375.5 Q331 378 317 378 Q275 378 249.5 362.5 Q224 347 210.5 327 Q197 307 192.5 287 Q188 267 188 257 L188 0 L68 0 L68 480 Z M141 708 L210 618 L279 708 L389 708 L274 564 L141 564 L27 708 L141 708 Z " />
<glyph glyph-name="Sacute" unicode="&#x15a;" horiz-adv-x="574" d="M426 556 Q406 585 372.5 598.5 Q339 612 302 612 Q280 612 259.5 607 Q239 602 222.5 591 Q206 580 196 562.5 Q186 545 186 521 Q186 485 211 466 Q236 447 273 433 Q310 419 354 406 Q398 393 435 370 Q472 347 497 309 Q522 271 522 208 Q522 151 501 108.5 Q480 66 444.5 38 Q409 10 362 -4 Q315 -18 263 -18 Q197 -18 136 4 Q75 26 31 78 L126 170 Q149 135 186.5 115.5 Q224 96 266 96 Q288 96 310 102 Q332 108 350 120 Q368 132 379 150.5 Q390 169 390 193 Q390 232 365 253 Q340 274 303 288.5 Q266 303 222 316 Q178 329 141 351.5 Q104 374 79 411.5 Q54 449 54 512 Q54 567 76.5 607 Q99 647 135.5 673.5 Q172 700 219 713 Q266 726 315 726 Q371 726 423.5 709 Q476 692 518 653 L426 556 Z M332 900 L468 900 L327 756 L233 756 L332 900 Z " />
<glyph glyph-name="sacute" unicode="&#x15b;" horiz-adv-x="444" d="M324 347 Q289 396 230 396 Q206 396 183 384 Q160 372 160 345 Q160 323 179 313 Q198 303 227 296 Q256 289 289.5 281.5 Q323 274 352 258.5 Q381 243 400 216 Q419 189 419 142 Q419 99 400.5 69.5 Q382 40 352.5 22 Q323 4 286 -4 Q249 -12 212 -12 Q156 -12 109 4 Q62 20 25 62 L105 137 Q128 111 154.5 94.5 Q181 78 219 78 Q232 78 246 81 Q260 84 272 91 Q284 98 291.5 108.5 Q299 119 299 133 Q299 158 280 170 Q261 182 232 189.5 Q203 197 169.5 203.5 Q136 210 107 224.5 Q78 239 59 265 Q40 291 40 337 Q40 377 56.5 406.5 Q73 436 100 455 Q127 474 162 483 Q197 492 233 492 Q281 492 328 475.5 Q375 459 404 419 L324 347 Z M256 708 L392 708 L251 564 L157 564 L256 708 Z " />
<glyph glyph-name="Scircumflex" unicode="&#x15c;" horiz-adv-x="574" d="M426 556 Q406 585 372.5 598.5 Q339 612 302 612 Q280 612 259.5 607 Q239 602 222.5 591 Q206 580 196 562.5 Q186 545 186 521 Q186 485 211 466 Q236 447 273 433 Q310 419 354 406 Q398 393 435 370 Q472 347 497 309 Q522 271 522 208 Q522 151 501 108.5 Q480 66 444.5 38 Q409 10 362 -4 Q315 -18 263 -18 Q197 -18 136 4 Q75 26 31 78 L126 170 Q149 135 186.5 115.5 Q224 96 266 96 Q288 96 310 102 Q332 108 350 120 Q368 132 379 150.5 Q390 169 390 193 Q390 232 365 253 Q340 274 303 288.5 Q266 303 222 316 Q178 329 141 351.5 Q104 374 79 411.5 Q54 449 54 512 Q54 567 76.5 607 Q99 647 135.5 673.5 Q172 700 219 713 Q266 726 315 726 Q371 726 423.5 709 Q476 692 518 653 L426 556 Z M370 756 L301 846 L232 756 L120 756 L235 900 L370 900 L484 756 L370 756 Z " />
<glyph glyph-name="scircumflex" unicode="&#x15d;" horiz-adv-x="444" d="M324 347 Q289 396 230 396 Q206 396 183 384 Q160 372 160 345 Q160 323 179 313 Q198 303 227 296 Q256 289 289.5 281.5 Q323 274 352 258.5 Q381 243 400 216 Q419 189 419 142 Q419 99 400.5 69.5 Q382 40 352.5 22 Q323 4 286 -4 Q249 -12 212 -12 Q156 -12 109 4 Q62 20 25 62 L105 137 Q128 111 154.5 94.5 Q181 78 219 78 Q232 78 246 81 Q260 84 272 91 Q284 98 291.5 108.5 Q299 119 299 133 Q299 158 280 170 Q261 182 232 189.5 Q203 197 169.5 203.5 Q136 210 107 224.5 Q78 239 59 265 Q40 291 40 337 Q40 377 56.5 406.5 Q73 436 100 455 Q127 474 162 483 Q197 492 233 492 Q281 492 328 475.5 Q375 459 404 419 L324 347 Z M304 564 L235 654 L166 564 L54 564 L169 708 L304 708 L418 564 L304 564 Z " />
<glyph glyph-name="Scedilla" unicode="&#x15e;" horiz-adv-x="574" d="M426 556 Q406 585 372.5 598.5 Q339 612 302 612 Q280 612 259.5 607 Q239 602 222.5 591 Q206 580 196 562.5 Q186 545 186 521 Q186 485 211 466 Q236 447 273 433 Q310 419 354 406 Q398 393 435 370 Q472 347 497 309 Q522 271 522 208 Q522 157 505 117.5 Q488 78 459 50.5 Q430 23 390.5 6.5 Q351 -10 306 -15 L275 -60 Q297 -60 318.5 -62 Q340 -64 357.5 -72.5 Q375 -81 385.5 -97.5 Q396 -114 396 -143 Q396 -170 382.5 -189 Q369 -208 349 -219 Q329 -230 304 -235 Q279 -240 257 -240 Q200 -240 151 -212 L173 -166 Q211 -186 255 -186 Q263 -186 273 -184 Q283 -182 291.5 -177.5 Q300 -173 306 -164.5 Q312 -156 312 -144 Q312 -124 294.5 -116 Q277 -108 261 -108 Q251 -108 242 -110 Q233 -112 224 -115 L197 -90 L247 -18 Q184 -16 128.5 6.5 Q73 29 31 78 L126 170 Q149 135 186.5 115.5 Q224 96 266 96 Q288 96 310 102 Q332 108 350 120 Q368 132 379 150.5 Q390 169 390 193 Q390 232 365 253 Q340 274 303 288.5 Q266 303 222 316 Q178 329 141 351.5 Q104 374 79 411.5 Q54 449 54 512 Q54 567 76.5 607 Q99 647 135.5 673.5 Q172 700 219 713 Q266 726 315 726 Q372 726 424 709 Q476 692 518 653 L426 556 Z " />
<glyph glyph-name="scedilla" unicode="&#x15f;" horiz-adv-x="444" d="M324 347 Q290 396 230 396 Q206 396 183 384 Q160 372 160 345 Q160 323 179 313 Q198 303 227 296 Q256 289 289.5 281.5 Q323 274 352 258.5 Q381 243 400 216 Q419 189 419 142 Q419 106 406 80 Q393 54 371 35.5 Q349 17 320.5 6.5 Q292 -4 261 -8 L225 -60 Q247 -60 268.5 -62 Q290 -64 307.5 -72.5 Q325 -81 335.5 -97.5 Q346 -114 346 -143 Q346 -170 332.5 -189 Q319 -208 299 -219 Q279 -230 254 -235 Q229 -240 207 -240 Q150 -240 101 -212 L123 -166 Q161 -186 205 -186 Q213 -186 223 -184 Q233 -182 241.5 -177.5 Q250 -173 256 -164.5 Q262 -156 262 -144 Q262 -124 244.5 -116 Q227 -108 211 -108 Q201 -108 192 -110 Q183 -112 174 -115 L147 -90 L200 -12 Q148 -10 104 6.5 Q60 23 25 62 L105 137 Q128 111 154.5 94.5 Q181 78 219 78 Q232 78 246 81 Q260 84 272 91 Q284 98 291.5 108.5 Q299 119 299 133 Q299 158 280 170 Q261 182 232 189.5 Q203 197 169.5 203.5 Q136 210 107 224.5 Q78 239 59 265 Q40 291 40 337 Q40 377 56.5 406.5 Q73 436 100 455 Q127 474 162 483 Q197 492 233 492 Q281 492 328 475.5 Q375 459 404 419 L324 347 Z " />
<glyph glyph-name="Tcedilla" unicode="&#x162;" horiz-adv-x="574" d="M224 594 L7 594 L7 708 L567 708 L567 594 L350 594 L350 0 L224 0 L224 594 Z M264 -60 Q286 -60 307.5 -62 Q329 -64 346.5 -72.5 Q364 -81 374.5 -97.5 Q385 -114 385 -143 Q385 -170 371.5 -189 Q358 -208 338 -219 Q318 -230 293 -235 Q268 -240 246 -240 Q190 -240 140 -212 L162 -166 Q200 -186 244 -186 Q252 -186 262 -184 Q272 -182 280.5 -177.5 Q289 -173 295 -164.5 Q301 -156 301 -144 Q301 -124 283.5 -116 Q266 -108 250 -108 Q240 -108 231 -110 Q222 -112 213 -115 L186 -90 L248 0 L306 0 L264 -60 Z " />
<glyph glyph-name="tcedilla" unicode="&#x163;" horiz-adv-x="389" d="M12 378 L12 480 L111 480 L111 619 L231 619 L231 480 L363 480 L363 378 L231 378 L231 168 Q231 132 244.5 111 Q258 90 298 90 Q314 90 333 93.5 Q352 97 363 105 L363 4 Q344 -5 316.5 -8.5 Q289 -12 268 -12 Q220 -12 189.5 -1.5 Q159 9 141.5 30.5 Q124 52 117.5 84 Q111 116 111 158 L111 378 L12 378 Z M224 -60 Q246 -60 267.5 -62 Q289 -64 306.5 -72.5 Q324 -81 334.5 -97.5 Q345 -114 345 -143 Q345 -170 331.5 -189 Q318 -208 298 -219 Q278 -230 253 -235 Q228 -240 206 -240 Q150 -240 100 -212 L122 -166 Q160 -186 204 -186 Q212 -186 222 -184 Q232 -182 240.5 -177.5 Q249 -173 255 -164.5 Q261 -156 261 -144 Q261 -124 243.5 -116 Q226 -108 210 -108 Q200 -108 191 -110 Q182 -112 173 -115 L146 -90 L208 0 L266 0 L224 -60 Z " />
<glyph glyph-name="Tcaron" unicode="&#x164;" horiz-adv-x="574" d="M224 594 L7 594 L7 708 L567 708 L567 594 L350 594 L350 0 L224 0 L224 594 Z M220 900 L289 810 L358 900 L468 900 L353 756 L220 756 L106 900 L220 900 Z " />
<glyph glyph-name="tcaron" unicode="&#x165;" horiz-adv-x="389" d="M12 378 L12 480 L111 480 L111 619 L231 619 L231 480 L363 480 L363 378 L231 378 L231 168 Q231 132 244.5 111 Q258 90 298 90 Q314 90 333 93.5 Q352 97 363 105 L363 4 Q344 -5 316.5 -8.5 Q289 -12 268 -12 Q220 -12 189.5 -1.5 Q159 9 141.5 30.5 Q124 52 117.5 84 Q111 116 111 158 L111 378 L12 378 Z M344 748 L466 748 L381 550 L284 550 L344 748 Z " />
<glyph glyph-name="Tbar" unicode="&#x166;" horiz-adv-x="574" d="M500 404 L350 404 L350 0 L224 0 L224 404 L80 404 L80 482 L224 482 L224 594 L7 594 L7 708 L567 708 L567 594 L350 594 L350 482 L500 482 L500 404 Z " />
<glyph glyph-name="tbar" unicode="&#x167;" horiz-adv-x="389" d="M336 239 L231 239 L231 168 Q231 132 244.5 111 Q258 90 298 90 Q314 90 333 93.5 Q352 97 363 105 L363 4 Q344 -5 316.5 -8.5 Q289 -12 268 -12 Q220 -12 189.5 -1.5 Q159 9 141.5 30.5 Q124 52 117.5 84 Q111 116 111 158 L111 239 L36 239 L36 317 L111 317 L111 378 L12 378 L12 480 L111 480 L111 619 L231 619 L231 480 L363 480 L363 378 L231 378 L231 317 L336 317 L336 239 Z " />
<glyph glyph-name="Utilde" unicode="&#x168;" horiz-adv-x="722" d="M646 260 Q646 196 624 144.5 Q602 93 564 57 Q526 21 474 1.5 Q422 -18 361 -18 Q300 -18 248 1.5 Q196 21 157.5 57 Q119 93 97.5 144.5 Q76 196 76 260 L76 708 L202 708 L202 264 Q202 238 210 209.5 Q218 181 236.5 157 Q255 133 285.5 117.5 Q316 102 361 102 Q406 102 436.5 117.5 Q467 133 485.5 157 Q504 181 512 209.5 Q520 238 520 264 L520 708 L646 708 L646 260 Z M182 760 Q186 784 193.5 807 Q201 830 214 847.5 Q227 865 246.5 876 Q266 887 294 887 Q314 887 334.5 881 Q355 875 374 868.5 Q393 862 409.5 856 Q426 850 438 850 Q458 850 468.5 862.5 Q479 875 484 892 L550 892 Q546 868 538.5 845 Q531 822 518 804.5 Q505 787 485.5 776 Q466 765 438 765 Q418 765 397.5 771 Q377 777 358 784 Q339 791 322.5 797 Q306 803 294 803 Q274 803 263.5 790 Q253 777 248 760 L182 760 Z " />
<glyph glyph-name="utilde" unicode="&#x169;" horiz-adv-x="574" d="M506 0 L392 0 L392 77 L390 77 Q373 41 338 14.5 Q303 -12 243 -12 Q195 -12 161.5 3.5 Q128 19 107 45.5 Q86 72 77 106 Q68 140 68 177 L68 480 L188 480 L188 237 Q188 217 190 192.5 Q192 168 200.5 146.5 Q209 125 226.5 110.5 Q244 96 276 96 Q306 96 326.5 106 Q347 116 360.5 133 Q374 150 380 172 Q386 194 386 218 L386 480 L506 480 L506 0 Z M106 568 Q110 592 117.5 615 Q125 638 138 655.5 Q151 673 170.5 684 Q190 695 218 695 Q238 695 258.5 689 Q279 683 298 676.5 Q317 670 333.5 664 Q350 658 362 658 Q382 658 392.5 670.5 Q403 683 408 700 L474 700 Q470 676 462.5 653 Q455 630 442 612.5 Q429 595 409.5 584 Q390 573 362 573 Q342 573 321.5 579 Q301 585 282 592 Q263 599 246.5 605 Q230 611 218 611 Q198 611 187.5 598 Q177 585 172 568 L106 568 Z " />
<glyph glyph-name="Umacron" unicode="&#x16a;" horiz-adv-x="722" d="M646 260 Q646 196 624 144.5 Q602 93 564 57 Q526 21 474 1.5 Q422 -18 361 -18 Q300 -18 248 1.5 Q196 21 157.5 57 Q119 93 97.5 144.5 Q76 196 76 260 L76 708 L202 708 L202 264 Q202 238 210 209.5 Q218 181 236.5 157 Q255 133 285.5 117.5 Q316 102 361 102 Q406 102 436.5 117.5 Q467 133 485.5 157 Q504 181 512 209.5 Q520 238 520 264 L520 708 L646 708 L646 260 Z M517 787 L197 787 L197 865 L517 865 L517 787 Z " />
<glyph glyph-name="umacron" unicode="&#x16b;" horiz-adv-x="574" d="M506 0 L392 0 L392 77 L390 77 Q373 41 338 14.5 Q303 -12 243 -12 Q195 -12 161.5 3.5 Q128 19 107 45.5 Q86 72 77 106 Q68 140 68 177 L68 480 L188 480 L188 237 Q188 217 190 192.5 Q192 168 200.5 146.5 Q209 125 226.5 110.5 Q244 96 276 96 Q306 96 326.5 106 Q347 116 360.5 133 Q374 150 380 172 Q386 194 386 218 L386 480 L506 480 L506 0 Z M446 595 L126 595 L126 673 L446 673 L446 595 Z " />
<glyph glyph-name="Ubreve" unicode="&#x16c;" horiz-adv-x="722" d="M646 260 Q646 196 624 144.5 Q602 93 564 57 Q526 21 474 1.5 Q422 -18 361 -18 Q300 -18 248 1.5 Q196 21 157.5 57 Q119 93 97.5 144.5 Q76 196 76 260 L76 708 L202 708 L202 264 Q202 238 210 209.5 Q218 181 236.5 157 Q255 133 285.5 117.5 Q316 102 361 102 Q406 102 436.5 117.5 Q467 133 485.5 157 Q504 181 512 209.5 Q520 238 520 264 L520 708 L646 708 L646 260 Z M254 900 Q261 862 290 848 Q319 834 357 834 Q400 834 425 846 Q450 858 461 900 L527 900 Q519 825 473.5 790.5 Q428 756 356 756 Q284 756 238 790.5 Q192 825 187 900 L254 900 Z " />
<glyph glyph-name="ubreve" unicode="&#x16d;" horiz-adv-x="574" d="M506 0 L392 0 L392 77 L390 77 Q373 41 338 14.5 Q303 -12 243 -12 Q195 -12 161.5 3.5 Q128 19 107 45.5 Q86 72 77 106 Q68 140 68 177 L68 480 L188 480 L188 237 Q188 217 190 192.5 Q192 168 200.5 146.5 Q209 125 226.5 110.5 Q244 96 276 96 Q306 96 326.5 106 Q347 116 360.5 133 Q374 150 380 172 Q386 194 386 218 L386 480 L506 480 L506 0 Z M186 708 Q193 670 222 656 Q251 642 289 642 Q332 642 357 654 Q382 666 393 708 L459 708 Q451 634 405.5 599 Q360 564 288 564 Q216 564 170 598.5 Q124 633 119 708 L186 708 Z " />
<glyph glyph-name="Uring" unicode="&#x16e;" horiz-adv-x="722" d="M646 260 Q646 196 624 144.5 Q602 93 564 57 Q526 21 474 1.5 Q422 -18 361 -18 Q300 -18 248 1.5 Q196 21 157.5 57 Q119 93 97.5 144.5 Q76 196 76 260 L76 708 L202 708 L202 264 Q202 238 210 209.5 Q218 181 236.5 157 Q255 133 285.5 117.5 Q316 102 361 102 Q406 102 436.5 117.5 Q467 133 485.5 157 Q504 181 512 209.5 Q520 238 520 264 L520 708 L646 708 L646 260 Z M467 837 Q467 792 437 763.5 Q407 735 362 735 Q317 735 287 763 Q257 791 257 836 Q257 858 265 877 Q273 896 287 909.5 Q301 923 320 931 Q339 939 362 939 Q407 939 437 910.5 Q467 882 467 837 Z M419 837 Q419 860 402 875.5 Q385 891 362 891 Q339 891 322 875.5 Q305 860 305 837 Q305 814 322 798.5 Q339 783 362 783 Q385 783 402 798 Q419 813 419 837 Z " />
<glyph glyph-name="uring" unicode="&#x16f;" horiz-adv-x="574" d="M506 0 L392 0 L392 77 L390 77 Q373 41 338 14.5 Q303 -12 243 -12 Q195 -12 161.5 3.5 Q128 19 107 45.5 Q86 72 77 106 Q68 140 68 177 L68 480 L188 480 L188 237 Q188 217 190 192.5 Q192 168 200.5 146.5 Q209 125 226.5 110.5 Q244 96 276 96 Q306 96 326.5 106 Q347 116 360.5 133 Q374 150 380 172 Q386 194 386 218 L386 480 L506 480 L506 0 Z M389 655 Q389 610 359 581.5 Q329 553 284 553 Q239 553 209 581.5 Q179 610 179 654 Q179 676 187 695 Q195 714 209 727.5 Q223 741 242 749 Q261 757 284 757 Q329 757 359 728.5 Q389 700 389 655 Z M341 655 Q341 678 324 693.5 Q307 709 284 709 Q261 709 244 693.5 Q227 678 227 655 Q227 632 244 616.5 Q261 601 284 601 Q307 601 324 616 Q341 631 341 655 Z " />
<glyph glyph-name="Uhungarumlaut" unicode="&#x170;" horiz-adv-x="722" d="M646 260 Q646 196 624 144.5 Q602 93 564 57 Q526 21 474 1.5 Q422 -18 361 -18 Q300 -18 248 1.5 Q196 21 157.5 57 Q119 93 97.5 144.5 Q76 196 76 260 L76 708 L202 708 L202 264 Q202 238 210 209.5 Q218 181 236.5 157 Q255 133 285.5 117.5 Q316 102 361 102 Q406 102 436.5 117.5 Q467 133 485.5 157 Q504 181 512 209.5 Q520 238 520 264 L520 708 L646 708 L646 260 Z M304 900 L440 900 L299 756 L205 756 L304 900 Z M509 900 L645 900 L504 756 L410 756 L509 900 Z " />
<glyph glyph-name="uhungarumlaut" unicode="&#x171;" horiz-adv-x="574" d="M506 0 L392 0 L392 77 L390 77 Q373 41 338 14.5 Q303 -12 243 -12 Q195 -12 161.5 3.5 Q128 19 107 45.5 Q86 72 77 106 Q68 140 68 177 L68 480 L188 480 L188 237 Q188 217 190 192.5 Q192 168 200.5 146.5 Q209 125 226.5 110.5 Q244 96 276 96 Q306 96 326.5 106 Q347 116 360.5 133 Q374 150 380 172 Q386 194 386 218 L386 480 L506 480 L506 0 Z M224 708 L360 708 L219 564 L125 564 L224 708 Z M429 708 L565 708 L424 564 L330 564 L429 708 Z " />
<glyph glyph-name="Uogonek" unicode="&#x172;" horiz-adv-x="722" d="M476 -196 Q455 -213 429.5 -223.5 Q404 -234 376 -234 Q356 -234 337.5 -228.5 Q319 -223 304.5 -211.5 Q290 -200 281.5 -183.5 Q273 -167 273 -145 Q273 -111 295 -77 Q317 -43 345 -17 Q287 -14 238 6.5 Q189 27 153 62.5 Q117 98 96.5 148 Q76 198 76 260 L76 708 L202 708 L202 264 Q202 238 210 209.5 Q218 181 236.5 157 Q255 133 285.5 117.5 Q316 102 361 102 Q406 102 436.5 117.5 Q467 133 485.5 157 Q504 181 512 209.5 Q520 238 520 264 L520 708 L646 708 L646 260 Q646 203 628.5 155.5 Q611 108 580 73 Q549 38 506 15.5 Q463 -7 412 -14 Q401 -25 390 -38.5 Q379 -52 370.5 -66 Q362 -80 356.5 -94.5 Q351 -109 351 -122 Q351 -141 364.5 -154.5 Q378 -168 397 -168 Q411 -168 425.5 -162 Q440 -156 451 -147 L476 -196 Z " />
<glyph glyph-name="uogonek" unicode="&#x173;" horiz-adv-x="574" d="M503 -196 Q482 -213 456.5 -223.5 Q431 -234 403 -234 Q383 -234 364.5 -228.5 Q346 -223 331.5 -211.5 Q317 -200 308.5 -183.5 Q300 -167 300 -145 Q300 -125 308.5 -104.5 Q317 -84 330.5 -65 Q344 -46 360 -29.5 Q376 -13 392 0 L392 77 L390 77 Q373 41 338 14.5 Q303 -12 243 -12 Q195 -12 161.5 3.5 Q128 19 107 45.5 Q86 72 77 106 Q68 140 68 177 L68 480 L188 480 L188 237 Q188 217 190 192.5 Q192 168 200.5 146.5 Q209 125 226.5 110.5 Q244 96 276 96 Q306 96 326.5 106 Q347 116 360.5 133 Q374 150 380 172 Q386 194 386 218 L386 480 L506 480 L506 0 L454 0 Q442 -11 429 -25.5 Q416 -40 404.5 -56.5 Q393 -73 385.5 -90 Q378 -107 378 -122 Q378 -141 391.5 -154.5 Q405 -168 424 -168 Q438 -168 452.5 -162 Q467 -156 478 -147 L503 -196 Z " />
<glyph glyph-name="Wcircumflex" unicode="&#x174;" horiz-adv-x="981" d="M0 708 L138 708 L271 198 L273 198 L432 708 L556 708 L712 198 L714 198 L853 708 L981 708 L775 0 L655 0 L491 539 L489 539 L325 0 L209 0 L0 708 Z M559 756 L490 846 L421 756 L309 756 L424 900 L559 900 L673 756 L559 756 Z " />
<glyph glyph-name="wcircumflex" unicode="&#x175;" horiz-adv-x="796" d="M3 480 L133 480 L237 144 L239 144 L336 480 L466 480 L570 144 L572 144 L672 480 L793 480 L630 0 L511 0 L397 328 L395 328 L294 0 L170 0 L3 480 Z M464 564 L395 654 L326 564 L214 564 L329 708 L464 708 L578 564 L464 564 Z " />
<glyph glyph-name="Ycircumflex" unicode="&#x176;" horiz-adv-x="630" d="M252 303 L-14 708 L144 708 L318 426 L494 708 L644 708 L378 303 L378 0 L252 0 L252 303 Z M386 756 L317 846 L248 756 L136 756 L251 900 L386 900 L500 756 L386 756 Z " />
<glyph glyph-name="ycircumflex" unicode="&#x177;" horiz-adv-x="519" d="M3 480 L135 480 L269 147 L271 147 L391 480 L516 480 L289 -103 Q276 -137 260.5 -162.5 Q245 -188 224 -205.5 Q203 -223 174.5 -231.5 Q146 -240 106 -240 Q59 -240 14 -228 L29 -120 Q43 -125 58.5 -128.5 Q74 -132 90 -132 Q112 -132 127 -128 Q142 -124 152.5 -115.5 Q163 -107 170 -93.5 Q177 -80 185 -61 L208 -4 L3 480 Z M337 564 L268 654 L199 564 L87 564 L202 708 L337 708 L451 564 L337 564 Z " />
<glyph glyph-name="Zacute" unicode="&#x179;" horiz-adv-x="611" d="M35 114 L413 594 L41 594 L41 708 L570 708 L570 594 L189 114 L576 114 L576 0 L35 0 L35 114 Z M340 900 L476 900 L335 756 L241 756 L340 900 Z " />
<glyph glyph-name="zacute" unicode="&#x17a;" horiz-adv-x="482" d="M34 111 L291 382 L291 384 L46 384 L46 480 L436 480 L436 371 L176 96 L448 96 L448 0 L34 0 L34 111 Z M274 708 L410 708 L269 564 L175 564 L274 708 Z " />
<glyph glyph-name="Zdotaccent" unicode="&#x17b;" horiz-adv-x="611" d="M35 114 L413 594 L41 594 L41 708 L570 708 L570 594 L189 114 L576 114 L576 0 L35 0 L35 114 Z M252 828 Q252 857 273.5 878.5 Q295 900 328 900 Q361 900 383.5 879.5 Q406 859 406 828 Q406 797 383.5 776.5 Q361 756 328 756 Q295 756 273.5 777.5 Q252 799 252 828 Z " />
<glyph glyph-name="zdotaccent" unicode="&#x17c;" horiz-adv-x="482" d="M34 111 L291 382 L291 384 L46 384 L46 480 L436 480 L436 371 L176 96 L448 96 L448 0 L34 0 L34 111 Z M185 636 Q185 665 206.5 686.5 Q228 708 261 708 Q294 708 316.5 687.5 Q339 667 339 636 Q339 605 316.5 584.5 Q294 564 261 564 Q228 564 206.5 585.5 Q185 607 185 636 Z " />
<glyph glyph-name="Scommaaccent" unicode="&#x218;" horiz-adv-x="574" d="M426 556 Q406 585 372.5 598.5 Q339 612 302 612 Q280 612 259.5 607 Q239 602 222.5 591 Q206 580 196 562.5 Q186 545 186 521 Q186 485 211 466 Q236 447 273 433 Q310 419 354 406 Q398 393 435 370 Q472 347 497 309 Q522 271 522 208 Q522 151 501 108.5 Q480 66 444.5 38 Q409 10 362 -4 Q315 -18 263 -18 Q197 -18 136 4 Q75 26 31 78 L126 170 Q149 135 186.5 115.5 Q224 96 266 96 Q288 96 310 102 Q332 108 350 120 Q368 132 379 150.5 Q390 169 390 193 Q390 232 365 253 Q340 274 303 288.5 Q266 303 222 316 Q178 329 141 351.5 Q104 374 79 411.5 Q54 449 54 512 Q54 567 76.5 607 Q99 647 135.5 673.5 Q172 700 219 713 Q266 726 315 726 Q371 726 423.5 709 Q476 692 518 653 L426 556 Z M220 -60 L342 -60 L257 -258 L150 -258 L220 -60 Z " />
<glyph glyph-name="scommaaccent" unicode="&#x219;" horiz-adv-x="444" d="M324 347 Q289 396 230 396 Q206 396 183 384 Q160 372 160 345 Q160 323 179 313 Q198 303 227 296 Q256 289 289.5 281.5 Q323 274 352 258.5 Q381 243 400 216 Q419 189 419 142 Q419 99 400.5 69.5 Q382 40 352.5 22 Q323 4 286 -4 Q249 -12 212 -12 Q156 -12 109 4 Q62 20 25 62 L105 137 Q128 111 154.5 94.5 Q181 78 219 78 Q232 78 246 81 Q260 84 272 91 Q284 98 291.5 108.5 Q299 119 299 133 Q299 158 280 170 Q261 182 232 189.5 Q203 197 169.5 203.5 Q136 210 107 224.5 Q78 239 59 265 Q40 291 40 337 Q40 377 56.5 406.5 Q73 436 100 455 Q127 474 162 483 Q197 492 233 492 Q281 492 328 475.5 Q375 459 404 419 L324 347 Z M163 -60 L285 -60 L200 -258 L93 -258 L163 -60 Z " />
<glyph glyph-name="uni021A" unicode="&#x21a;" horiz-adv-x="574" d="M224 594 L7 594 L7 708 L567 708 L567 594 L350 594 L350 0 L224 0 L224 594 Z M249 -60 L371 -60 L286 -258 L179 -258 L249 -60 Z " />
<glyph glyph-name="uni021B" unicode="&#x21b;" horiz-adv-x="389" d="M12 378 L12 480 L111 480 L111 619 L231 619 L231 480 L363 480 L363 378 L231 378 L231 168 Q231 132 244.5 111 Q258 90 298 90 Q314 90 333 93.5 Q352 97 363 105 L363 4 Q344 -5 316.5 -8.5 Q289 -12 268 -12 Q220 -12 189.5 -1.5 Q159 9 141.5 30.5 Q124 52 117.5 84 Q111 116 111 158 L111 378 L12 378 Z M157 -60 L279 -60 L194 -258 L87 -258 L157 -60 Z " />
<glyph glyph-name="dotlessj" unicode="&#x237;" horiz-adv-x="260" d="M190 480 L190 -29 Q190 -74 184 -112.5 Q178 -151 160.5 -179.5 Q143 -208 111 -224 Q79 -240 28 -240 Q11 -240 -5 -238 Q-21 -236 -37 -231 L-28 -127 Q-18 -129 -9 -130.5 Q0 -132 10 -132 Q32 -132 44.5 -122.5 Q57 -113 62.5 -98 Q68 -83 69 -65 Q70 -47 70 -30 L70 480 L190 480 Z " />
<glyph glyph-name="caron" unicode="&#x2c7;" horiz-adv-x="260" d="M63 708 L132 618 L201 708 L311 708 L196 564 L63 564 L-51 708 L63 708 Z " />
<glyph glyph-name="uni02C9" unicode="&#x2c9;" horiz-adv-x="260" d="M290 595 L-30 595 L-30 673 L290 673 L290 595 Z " />
<glyph glyph-name="breve" unicode="&#x2d8;" horiz-adv-x="260" d="M27 708 Q34 670 63 656 Q92 642 130 642 Q173 642 198 654 Q223 666 234 708 L300 708 Q292 634 246.5 599 Q201 564 129 564 Q57 564 11 598.5 Q-35 633 -40 708 L27 708 Z " />
<glyph glyph-name="dotaccent" unicode="&#x2d9;" horiz-adv-x="260" d="M53 636 Q53 665 74.5 686.5 Q96 708 129 708 Q162 708 184.5 687.5 Q207 667 207 636 Q207 605 184.5 584.5 Q162 564 129 564 Q96 564 74.5 585.5 Q53 607 53 636 Z " />
<glyph glyph-name="ring" unicode="&#x2da;" horiz-adv-x="260" d="M235 655 Q235 610 205 581.5 Q175 553 130 553 Q85 553 55 581.5 Q25 610 25 654 Q25 676 33 695 Q41 714 55 727.5 Q69 741 88 749 Q107 757 130 757 Q175 757 205 728.5 Q235 700 235 655 Z M187 655 Q187 678 170 693.5 Q153 709 130 709 Q107 709 90 693.5 Q73 678 73 655 Q73 632 90 616.5 Q107 601 130 601 Q153 601 170 616 Q187 631 187 655 Z " />
<glyph glyph-name="ogonek" unicode="&#x2db;" horiz-adv-x="260" d="M202 -196 Q181 -213 155.5 -223.5 Q130 -234 102 -234 Q82 -234 63.5 -228.5 Q45 -223 30.5 -211.5 Q16 -200 7.5 -183.5 Q-1 -167 -1 -145 Q-1 -124 8.5 -102 Q18 -80 33 -60.5 Q48 -41 65.5 -23.5 Q83 -6 99 6 L160 6 Q148 -4 134 -19 Q120 -34 107 -51.5 Q94 -69 85.5 -87.5 Q77 -106 77 -122 Q77 -141 90.5 -154.5 Q104 -168 123 -168 Q137 -168 151.5 -162 Q166 -156 177 -147 L202 -196 Z " />
<glyph glyph-name="hungarumlaut" unicode="&#x2dd;" horiz-adv-x="260" d="M79 708 L215 708 L74 564 L-20 564 L79 708 Z M284 708 L420 708 L279 564 L185 564 L284 708 Z " />
<glyph glyph-name="fraction" unicode="&#x2044;" horiz-adv-x="167" d="M250 740 L333 702 L-83 -32 L-166 6 L250 740 Z " />
<glyph glyph-name="afii61289" unicode="&#x2113;" horiz-adv-x="500" d="M443 49 Q371 -14 285 -14 Q213 -14 172.5 24.5 Q132 63 132 127 L132 191 L76 139 L74 139 L32 202 L131 287 L131 531 Q131 573 143.5 607.5 Q156 642 178 667.5 Q200 693 230 707 Q260 721 296 721 Q359 721 396 682.5 Q433 644 433 578 Q433 502 387.5 427 Q342 352 248 268 L248 146 Q248 125 254 110.5 Q260 96 269 87.5 Q278 79 289.5 75.5 Q301 72 313 72 Q354 72 401 110 L403 110 L443 49 Z M338 570 Q338 601 326 622 Q314 643 295 643 Q276 643 262 619.5 Q248 596 248 553 L248 368 Q294 419 316 470.5 Q338 522 338 570 Z " />
<glyph glyph-name="Omega" unicode="&#x2126;" horiz-adv-x="759" d="M425 0 L425 189 Q463 196 492.5 215.5 Q522 235 542 263 Q562 291 572 325.5 Q582 360 582 397 Q582 442 567 481.5 Q552 521 524.5 551 Q497 581 459 598.5 Q421 616 375 616 Q328 616 289.5 598.5 Q251 581 223.5 551 Q196 521 181 481 Q166 441 166 396 Q166 318 204 263.5 Q242 209 320 189 L320 0 L46 0 L46 106 L218 106 L218 138 Q173 152 140.5 178 Q108 204 87 239 Q66 274 56 316 Q46 358 46 404 Q46 473 71.5 531.5 Q97 590 141.5 632 Q186 674 245.5 697.5 Q305 721 373 721 Q441 721 501 698 Q561 675 605.5 634 Q650 593 675.5 535 Q701 477 701 407 Q701 360 691.5 317.5 Q682 275 661 240 Q640 205 607 178.5 Q574 152 528 138 L528 106 L701 106 L701 0 L425 0 Z " />
<glyph glyph-name="estimated" unicode="&#x212e;" horiz-adv-x="500" d="M157 259 L157 78 Q216 19 302 19 Q365 19 411 47.5 Q457 76 495 139 L530 118 Q507 82 483.5 56.5 Q460 31 432.5 14.5 Q405 -2 373 -9.5 Q341 -17 302 -17 Q243 -17 195.5 4.5 Q148 26 114 63.5 Q80 101 62 151 Q44 201 44 259 Q44 317 62 367.5 Q80 418 114 455 Q148 492 195.5 513.5 Q243 535 302 535 Q360 535 407.5 514.5 Q455 494 489 457.5 Q523 421 542 370.5 Q561 320 561 259 L157 259 Z M448 295 L448 440 Q385 500 301 500 Q217 500 157 440 L157 295 L448 295 Z " />
<glyph glyph-name="partialdiff" unicode="&#x2202;" horiz-adv-x="556" d="M514 358 Q514 294 503.5 228 Q493 162 465 108.5 Q437 55 387.5 21 Q338 -13 259 -13 Q209 -13 169 4.5 Q129 22 100 52.5 Q71 83 55.5 124.5 Q40 166 40 215 Q40 263 55.5 303.5 Q71 344 99.5 373.5 Q128 403 168 419.5 Q208 436 256 436 Q298 436 332.5 421.5 Q367 407 399 381 L399 409 Q400 445 393 484.5 Q386 524 368.5 557 Q351 590 321.5 612 Q292 634 248 634 Q213 634 183 620.5 Q153 607 126 585 L67 655 Q109 687 148.5 704 Q188 721 242 721 Q320 721 372 689 Q424 657 455.5 605 Q487 553 500.5 488.5 Q514 424 514 358 Z M397 289 Q371 318 342 335.5 Q313 353 271 353 Q240 353 217 341 Q194 329 179 309.5 Q164 290 156.5 263.5 Q149 237 149 209 Q149 182 155.5 157 Q162 132 176 113 Q190 94 211.5 82.5 Q233 71 263 71 Q298 71 324 90 Q350 109 367 137.5 Q384 166 391.5 200 Q399 234 398 264 L397 289 Z " />
<glyph glyph-name="increment" unicode="&#x2206;" horiz-adv-x="685" d="M8 0 L278 712 L393 712 L677 0 L8 0 Z M334 581 L161 104 L519 104 L334 581 Z " />
<glyph glyph-name="product" unicode="&#x220f;" horiz-adv-x="741" d="M565 -214 L565 683 L176 683 L176 -214 L62 -214 L62 786 L679 786 L679 -214 L565 -214 Z " />
<glyph glyph-name="summation" unicode="&#x2211;" horiz-adv-x="648" d="M25 -214 L25 -125 L328 292 L38 697 L38 786 L611 786 L611 683 L189 683 L464 293 L171 -111 L624 -111 L624 -214 L25 -214 Z " />
<glyph glyph-name="minus" unicode="&#x2212;" horiz-adv-x="666" d="M604 354 L604 252 L62 252 L62 354 L604 354 Z " />
<glyph glyph-name="uni2215" unicode="&#x2215;" horiz-adv-x="167" d="M250 740 L333 702 L-83 -32 L-166 6 L250 740 Z " />
<glyph glyph-name="uni2219" unicode="&#x2219;" horiz-adv-x="296" d="M68 291 Q68 323 91.5 346 Q115 369 148 369 Q180 369 204 347 Q228 325 228 293 Q228 261 204.5 238 Q181 215 148 215 Q132 215 117.5 221 Q103 227 92 237 Q81 247 74.5 261 Q68 275 68 291 Z " />
<glyph glyph-name="radical" unicode="&#x221a;" horiz-adv-x="537" d="M338 -214 L232 -214 L80 103 L29 78 L-12 168 L136 236 L265 -37 L433 786 L549 786 L338 -214 Z " />
<glyph glyph-name="infinity" unicode="&#x221e;" horiz-adv-x="815" d="M770 263 Q770 225 758.5 192 Q747 159 725 134 Q703 109 672 95 Q641 81 601 81 Q570 81 543 90.5 Q516 100 492.5 115.5 Q469 131 448 151 Q427 171 408 193 Q387 171 366.5 151 Q346 131 323.5 115.5 Q301 100 274.5 91 Q248 82 216 82 Q177 82 145 96 Q113 110 91 134 Q69 158 57 191 Q45 224 45 262 Q45 299 56.5 332 Q68 365 89.5 389 Q111 413 142 427 Q173 441 212 441 Q245 441 272.5 431 Q300 421 323.5 404.5 Q347 388 367.5 366.5 Q388 345 408 322 Q427 345 447.5 366.5 Q468 388 491.5 405 Q515 422 542.5 432 Q570 442 602 442 Q641 442 672 428 Q703 414 725 390 Q747 366 758.5 333 Q770 300 770 263 Z M680 260 Q680 296 659 321 Q638 346 600 346 Q580 346 561.5 337.5 Q543 329 525.5 316 Q508 303 492.5 287.5 Q477 272 465 259 Q478 244 493 229.5 Q508 215 525.5 203.5 Q543 192 562.5 184.5 Q582 177 603 177 Q640 177 660 201 Q680 225 680 260 Z M350 259 Q338 272 322 287 Q306 302 288 315 Q270 328 250.5 336.5 Q231 345 212 345 Q177 345 156 319.5 Q135 294 135 260 Q135 223 156.5 200.5 Q178 178 215 178 Q234 178 253 185.5 Q272 193 289.5 204.5 Q307 216 322.5 230.5 Q338 245 350 259 Z " />
<glyph glyph-name="integral" unicode="&#x222b;" horiz-adv-x="611" d="M486 709 Q486 686 471.5 671.5 Q457 657 434 657 Q410 657 399.5 668.5 Q389 680 383.5 693.5 Q378 707 373.5 718.5 Q369 730 358 730 Q347 730 344.5 721 Q342 712 342 704 Q342 673 344 643 Q346 613 346 582 L346 -7 Q346 -45 341 -82 Q336 -119 321 -148.5 Q306 -178 277.5 -196.5 Q249 -215 202 -215 Q184 -215 164.5 -211 Q145 -207 128.5 -198 Q112 -189 101.5 -174.5 Q91 -160 91 -139 Q91 -116 106 -101 Q121 -86 144 -86 Q168 -86 178.5 -97.5 Q189 -109 194.5 -122.5 Q200 -136 204 -147.5 Q208 -159 218 -159 Q226 -159 229.5 -153.5 Q233 -148 234.5 -140.5 Q236 -133 235.5 -125.5 Q235 -118 235 -113 Q235 -87 233 -62 Q231 -37 231 -11 L231 495 Q231 523 230.5 555.5 Q230 588 232 620.5 Q234 653 241.5 683 Q249 713 265 736 Q281 759 308 772.5 Q335 786 376 786 Q393 786 412.5 781.5 Q432 777 448.5 768 Q465 759 475.5 744.5 Q486 730 486 709 Z " />
<glyph glyph-name="approxequal" unicode="&#x2248;" horiz-adv-x="666" d="M602 451 Q599 418 589.5 387 Q580 356 562 332 Q544 308 517 293.5 Q490 279 453 279 Q423 279 387.5 290 Q352 301 317 313.5 Q282 326 251 337 Q220 348 200 348 Q172 348 156.5 325.5 Q141 303 136 279 L65 279 Q68 310 77.5 341 Q87 372 104.5 396.5 Q122 421 148.5 436.5 Q175 452 211 452 Q242 452 275 441.5 Q308 431 341 419 Q374 407 406.5 396.5 Q439 386 469 386 Q497 386 511.5 406 Q526 426 531 451 L602 451 Z M600 243 Q597 210 587.5 179 Q578 148 560.5 124 Q543 100 516 85.5 Q489 71 452 71 Q422 71 386.5 82 Q351 93 316 105.5 Q281 118 250 129 Q219 140 198 140 Q170 140 154.5 118 Q139 96 134 72 L63 72 Q66 103 75.5 134 Q85 165 102.5 189.5 Q120 214 146.5 229 Q173 244 209 244 Q240 244 273 233.5 Q306 223 339 211 Q372 199 404.5 188.5 Q437 178 467 178 Q495 178 509.5 198 Q524 218 529 243 L600 243 Z " />
<glyph glyph-name="notequal" unicode="&#x2260;" horiz-adv-x="666" d="M322 162 L248 18 L160 63 L210 162 L80 162 L80 264 L261 264 L299 342 L80 342 L80 444 L350 444 L422 587 L512 543 L461 444 L586 444 L586 342 L410 342 L372 264 L586 264 L586 162 L322 162 Z " />
<glyph glyph-name="lessequal" unicode="&#x2264;" horiz-adv-x="666" d="M80 314 L80 422 L586 599 L586 486 L227 368 L586 256 L586 144 L80 314 Z M80 4 L80 111 L586 111 L586 4 L80 4 Z " />
<glyph glyph-name="greaterequal" unicode="&#x2265;" horiz-adv-x="666" d="M80 256 L439 368 L80 486 L80 599 L586 422 L586 314 L80 144 L80 256 Z M80 111 L586 111 L586 4 L80 4 L80 111 Z " />
<glyph glyph-name="lozenge" unicode="&#x25ca;" horiz-adv-x="593" d="M346 -35 L246 -35 L69 356 L246 747 L346 747 L524 356 L346 -35 Z M296 641 L178 356 L296 70 L415 356 L296 641 Z " />
<glyph glyph-name="grave.cap" unicode="&#xe300;" horiz-adv-x="260" d="M177 756 L83 756 L-58 900 L78 900 L177 756 Z " />
<glyph glyph-name="acute.cap" unicode="&#xe301;" horiz-adv-x="260" d="M182 900 L318 900 L177 756 L83 756 L182 900 Z " />
<glyph glyph-name="circumflex.cap" unicode="&#xe302;" horiz-adv-x="260" d="M198 756 L129 846 L60 756 L-52 756 L63 900 L198 900 L312 756 L198 756 Z " />
<glyph glyph-name="caron.cap" unicode="&#xe303;" horiz-adv-x="260" d="M63 900 L132 810 L201 900 L311 900 L196 756 L63 756 L-51 900 L63 900 Z " />
<glyph glyph-name="tilde.cap" unicode="&#xe304;" horiz-adv-x="260" d="M-54 760 Q-50 784 -42.5 807 Q-35 830 -22 847.5 Q-9 865 10.5 876 Q30 887 58 887 Q78 887 98.5 881 Q119 875 138 868.5 Q157 862 173.5 856 Q190 850 202 850 Q222 850 232.5 862.5 Q243 875 248 892 L314 892 Q310 868 302.5 845 Q295 822 282 804.5 Q269 787 249.5 776 Q230 765 202 765 Q182 765 161.5 771 Q141 777 122 784 Q103 791 86.5 797 Q70 803 58 803 Q38 803 27.5 790 Q17 777 12 760 L-54 760 Z " />
<glyph glyph-name="dieresis.cap" unicode="&#xe305;" horiz-adv-x="260" d="M-50 828 Q-50 857 -28.5 878.5 Q-7 900 26 900 Q59 900 81.5 879.5 Q104 859 104 828 Q104 797 81.5 776.5 Q59 756 26 756 Q-7 756 -28.5 777.5 Q-50 799 -50 828 Z M156 828 Q156 857 177.5 878.5 Q199 900 232 900 Q265 900 287.5 879.5 Q310 859 310 828 Q310 797 287.5 776.5 Q265 756 232 756 Q199 756 177.5 777.5 Q156 799 156 828 Z " />
<glyph glyph-name="macron.cap" unicode="&#xe306;" horiz-adv-x="260" d="M290 787 L-30 787 L-30 865 L290 865 L290 787 Z " />
<glyph glyph-name="breve.cap" unicode="&#xe307;" horiz-adv-x="260" d="M27 900 Q34 862 63 848 Q92 834 130 834 Q173 834 198 846 Q223 858 234 900 L300 900 Q292 825 246.5 790.5 Q201 756 129 756 Q57 756 11 790.5 Q-35 825 -40 900 L27 900 Z " />
<glyph glyph-name="ring.cap" unicode="&#xe308;" horiz-adv-x="260" d="M235 837 Q235 792 205 763.5 Q175 735 130 735 Q85 735 55 763 Q25 791 25 836 Q25 858 33 877 Q41 896 55 909.5 Q69 923 88 931 Q107 939 130 939 Q175 939 205 910.5 Q235 882 235 837 Z M187 837 Q187 860 170 875.5 Q153 891 130 891 Q107 891 90 875.5 Q73 860 73 837 Q73 814 90 798.5 Q107 783 130 783 Q153 783 170 798 Q187 813 187 837 Z " />
<glyph glyph-name="hungarumlaut.cap" unicode="&#xe309;" horiz-adv-x="260" d="M79 900 L215 900 L74 756 L-20 756 L79 900 Z M284 900 L420 900 L279 756 L185 756 L284 900 Z " />
<glyph glyph-name="dotaccent.cap" unicode="&#xe30a;" horiz-adv-x="260" d="M53 828 Q53 857 74.5 878.5 Q96 900 129 900 Q162 900 184.5 879.5 Q207 859 207 828 Q207 797 184.5 776.5 Q162 756 129 756 Q96 756 74.5 777.5 Q53 799 53 828 Z " />
<glyph glyph-name="caron.alt" unicode="&#xe30b;" horiz-adv-x="260" d="M108 708 L230 708 L145 510 L48 510 L108 708 Z " />
<glyph glyph-name="commaaccent" unicode="&#xe30c;" horiz-adv-x="260" d="M98 -60 L220 -60 L135 -258 L28 -258 L98 -60 Z " />
<glyph glyph-name="commaaccent.alt" unicode="&#xe30d;" horiz-adv-x="260" d="M160 584 L38 584 L123 782 L230 782 L160 584 Z " />
<glyph glyph-name="uniF8FF" unicode="&#xf8ff;" horiz-adv-x="876" d="M484 664 Q508 693 539 707.5 Q570 722 591 722 Q591 655 545 603 Q499 551 435 551 Q435 582 449 612 Q457 629 484 664 Z M678 237 Q697 208 722.5 185.5 Q748 163 766 158 Q761 144 757 133 Q753 122 749 114 Q726 64 701 36 Q661 -8 643 -21 Q617 -38 583 -38 Q554 -38 514 -21 Q476 -5 455 -5 Q436 -5 380 -27 Q350 -38 332 -38 Q283 -38 229 20 Q207 43 185 76 Q144 136 124 191.5 Q104 247 104 319 Q104 407 158 478 Q216 554 304 554 Q346 554 375 542 Q438 516 453 516 Q480 516 510 528 Q576 554 600 554 Q658 554 690 531 Q705 519 750 467 Q708 448 683 407.5 Q658 367 658 321 Q658 266 678 237 Z " />
<glyph glyph-name="fi" unicode="&#xfb01;" horiz-adv-x="593" d="M111 378 L12 378 L12 480 L111 480 L111 548 Q111 598 118 638.5 Q125 679 144.5 708 Q164 737 199 752.5 Q234 768 290 768 Q331 768 366 761 L358 659 Q345 662 333 664 Q321 666 308 666 Q283 666 268 658 Q253 650 244.5 636.5 Q236 623 233.5 605 Q231 587 231 567 L231 480 L342 480 L342 378 L231 378 L231 0 L111 0 L111 378 Z M420 480 L540 480 L540 0 L420 0 L420 480 Z M404 643 Q404 672 425.5 693.5 Q447 715 480 715 Q513 715 535.5 694.5 Q558 674 558 643 Q558 612 535.5 591.5 Q513 571 480 571 Q447 571 425.5 592.5 Q404 614 404 643 Z " />
<glyph glyph-name="fl" unicode="&#xfb02;" horiz-adv-x="593" d="M111 378 L12 378 L12 480 L111 480 L111 548 Q111 598 118 638.5 Q125 679 144.5 708 Q164 737 199 752.5 Q234 768 290 768 Q331 768 366 761 L358 659 Q345 662 333 664 Q321 666 308 666 Q283 666 268 658 Q253 650 244.5 636.5 Q236 623 233.5 605 Q231 587 231 567 L231 480 L342 480 L342 378 L231 378 L231 0 L111 0 L111 378 Z M420 756 L540 756 L540 0 L420 0 L420 756 Z " />
<glyph glyph-name="gravecmb" unicode="&#x300;" d="M-25 564 L-119 564 L-260 708 L-124 708 L-25 564 Z " />
<glyph glyph-name="acutecmb" unicode="&#x301;" d="M-161 708 L-25 708 L-166 564 L-260 564 L-161 708 Z " />
<glyph glyph-name="circumflexcmb" unicode="&#x302;" d="M-10 564 L-79 654 L-148 564 L-260 564 L-145 708 L-10 708 L104 564 L-10 564 Z " />
<glyph glyph-name="tildecmb" unicode="&#x303;" d="M-260 568 Q-256 592 -248.5 615 Q-241 638 -228 655.5 Q-215 673 -195.5 684 Q-176 695 -148 695 Q-128 695 -107.5 689 Q-87 683 -68 676.5 Q-49 670 -32.5 664 Q-16 658 -4 658 Q16 658 26.5 670.5 Q37 683 42 700 L108 700 Q104 676 96.5 653 Q89 630 76 612.5 Q63 595 43.5 584 Q24 573 -4 573 Q-24 573 -44.5 579 Q-65 585 -84 592 Q-103 599 -119.5 605 Q-136 611 -148 611 Q-168 611 -178.5 598 Q-189 585 -194 568 L-260 568 Z " />
<glyph glyph-name="macroncmb" unicode="&#x304;" d="M60 595 L-260 595 L-260 673 L60 673 L60 595 Z " />
<glyph glyph-name="brevecmb" unicode="&#x306;" d="M-193 708 Q-186 670 -157 656 Q-128 642 -90 642 Q-47 642 -22 654 Q3 666 14 708 L80 708 Q72 634 26.5 599 Q-19 564 -91 564 Q-163 564 -209 598.5 Q-255 633 -260 708 L-193 708 Z " />
<glyph glyph-name="dotaccentcmb" unicode="&#x307;" d="M-260 636 Q-260 665 -238.5 686.5 Q-217 708 -184 708 Q-151 708 -128.5 687.5 Q-106 667 -106 636 Q-106 605 -128.5 584.5 Q-151 564 -184 564 Q-217 564 -238.5 585.5 Q-260 607 -260 636 Z " />
<glyph glyph-name="dieresiscmb" unicode="&#x308;" d="M-260 636 Q-260 665 -238.5 686.5 Q-217 708 -184 708 Q-151 708 -128.5 687.5 Q-106 667 -106 636 Q-106 605 -128.5 584.5 Q-151 564 -184 564 Q-217 564 -238.5 585.5 Q-260 607 -260 636 Z M-54 636 Q-54 665 -32.5 686.5 Q-11 708 22 708 Q55 708 77.5 687.5 Q100 667 100 636 Q100 605 77.5 584.5 Q55 564 22 564 Q-11 564 -32.5 585.5 Q-54 607 -54 636 Z " />
<glyph glyph-name="hookabovecmb" unicode="&#x309;" d="M-292 600 Q-292 621 -284.5 633.5 Q-277 646 -254 660 Q-233 673 -233 688 Q-233 708 -256 708 Q-282 708 -288 671 L-364 680 Q-359 722 -330 743.5 Q-301 765 -254 765 Q-205 765 -178 743.5 Q-151 722 -151 692 Q-151 666 -162 651 Q-173 636 -199 625 Q-213 619 -218.5 613 Q-224 607 -224 600 L-292 600 Z " />
<glyph glyph-name="ringcmb" unicode="&#x30a;" d="M-50 655 Q-50 610 -80 581.5 Q-110 553 -155 553 Q-200 553 -230 581.5 Q-260 610 -260 654 Q-260 676 -252 695 Q-244 714 -230 727.5 Q-216 741 -197 749 Q-178 757 -155 757 Q-110 757 -80 728.5 Q-50 700 -50 655 Z M-98 655 Q-98 678 -115 693.5 Q-132 709 -155 709 Q-178 709 -195 693.5 Q-212 678 -212 655 Q-212 632 -195 616.5 Q-178 601 -155 601 Q-132 601 -115 616 Q-98 631 -98 655 Z " />
<glyph glyph-name="hungarumlautcmb" unicode="&#x30b;" d="M-161 708 L-25 708 L-166 564 L-260 564 L-161 708 Z M44 708 L180 708 L39 564 L-55 564 L44 708 Z " />
<glyph glyph-name="caroncmb" unicode="&#x30c;" d="M-146 708 L-77 618 L-8 708 L102 708 L-13 564 L-146 564 L-260 708 L-146 708 Z " />
<glyph glyph-name="doublegravecmb" unicode="&#x30f;" d="M-25 564 L-119 564 L-260 708 L-124 708 L-25 564 Z M-215 564 L-309 564 L-450 708 L-314 708 L-215 564 Z " />
<glyph glyph-name="invertedbrevecmb" unicode="&#x311;" d="M-273 708 Q-266 670 -237 656 Q-208 642 -170 642 Q-127 642 -102 654 Q-77 666 -66 708 L0 708 Q-8 634 -53.5 599 Q-99 564 -171 564 Q-243 564 -289 598.5 Q-335 633 -340 708 L-273 708 Z " />
<glyph glyph-name="horncmb" unicode="&#x31b;" d="M-226 688 L-104 688 L-189 424 L-296 424 L-226 688 Z " />
<glyph glyph-name="dotbelowcmb" unicode="&#x323;" d="M-296 -148 Q-296 -116 -272.5 -93 Q-249 -70 -216 -70 Q-184 -70 -160 -92 Q-136 -114 -136 -146 Q-136 -178 -159.5 -201 Q-183 -224 -216 -224 Q-232 -224 -246.5 -218 Q-261 -212 -272 -202 Q-283 -192 -289.5 -178 Q-296 -164 -296 -148 Z " />
<glyph glyph-name="dieresisbelowcmb" unicode="&#x324;" d="M-260 -142 Q-260 -113 -238.5 -91.5 Q-217 -70 -184 -70 Q-151 -70 -128.5 -90.5 Q-106 -111 -106 -142 Q-106 -173 -128.5 -193.5 Q-151 -214 -184 -214 Q-217 -214 -238.5 -192.5 Q-260 -171 -260 -142 Z M-54 -142 Q-54 -113 -32.5 -91.5 Q-11 -70 22 -70 Q55 -70 77.5 -90.5 Q100 -111 100 -142 Q100 -173 77.5 -193.5 Q55 -214 22 -214 Q-11 -214 -32.5 -192.5 Q-54 -171 -54 -142 Z " />
<glyph glyph-name="ringbelowcmb" unicode="&#x325;" d="M-50 -172 Q-50 -217 -80 -245.5 Q-110 -274 -155 -274 Q-200 -274 -230 -245.5 Q-260 -217 -260 -173 Q-260 -151 -252 -132 Q-244 -113 -230 -99.5 Q-216 -86 -197 -78 Q-178 -70 -155 -70 Q-110 -70 -80 -98.5 Q-50 -127 -50 -172 Z M-98 -172 Q-98 -149 -115 -133.5 Q-132 -118 -155 -118 Q-178 -118 -195 -133.5 Q-212 -149 -212 -172 Q-212 -195 -195 -210.5 Q-178 -226 -155 -226 Q-132 -226 -115 -211 Q-98 -196 -98 -172 Z " />
<glyph glyph-name="commabelowcmb" unicode="&#x326;" d="M-226 -70 L-104 -70 L-189 -334 L-296 -334 L-226 -70 Z " />
<glyph glyph-name="cedillacmb" unicode="&#x327;" d="M-136 -60 Q-114 -60 -92.5 -62 Q-71 -64 -53.5 -72.5 Q-36 -81 -25.5 -97.5 Q-15 -114 -15 -143 Q-15 -170 -28.5 -189 Q-42 -208 -62 -219 Q-82 -230 -107 -235 Q-132 -240 -154 -240 Q-210 -240 -260 -212 L-238 -166 Q-200 -186 -156 -186 Q-148 -186 -138 -184 Q-128 -182 -119.5 -177.5 Q-111 -173 -105 -164.5 Q-99 -156 -99 -144 Q-99 -124 -116.5 -116 Q-134 -108 -150 -108 Q-160 -108 -169 -110 Q-178 -112 -187 -115 L-214 -90 L-152 0 L-94 0 L-136 -60 Z " />
<glyph glyph-name="ogonekcmb" unicode="&#x328;" d="M-57 -196 Q-78 -213 -103.5 -223.5 Q-129 -234 -157 -234 Q-177 -234 -195.5 -228.5 Q-214 -223 -228.5 -211.5 Q-243 -200 -251.5 -183.5 Q-260 -167 -260 -145 Q-260 -124 -250.5 -102 Q-241 -80 -226 -60.5 Q-211 -41 -193.5 -23.5 Q-176 -6 -160 6 L-99 6 Q-111 -4 -125 -19 Q-139 -34 -152 -51.5 Q-165 -69 -173.5 -87.5 Q-182 -106 -182 -122 Q-182 -141 -168.5 -154.5 Q-155 -168 -136 -168 Q-122 -168 -107.5 -162 Q-93 -156 -82 -147 L-57 -196 Z " />
<glyph glyph-name="circumflexbelowcmb" unicode="&#x32d;" d="M-10 -214 L-79 -124 L-148 -214 L-260 -214 L-145 -70 L-10 -70 L104 -214 L-10 -214 Z " />
<glyph glyph-name="brevebelowcmb" unicode="&#x32e;" d="M-193 -70 Q-186 -108 -157 -122 Q-128 -136 -90 -136 Q-47 -136 -22 -124 Q3 -112 14 -70 L80 -70 Q72 -144 26.5 -179 Q-19 -214 -91 -214 Q-163 -214 -209 -179.5 Q-255 -145 -260 -70 L-193 -70 Z " />
<glyph glyph-name="tildebelowcmb" unicode="&#x330;" d="M-260 -202 Q-256 -178 -248.5 -155 Q-241 -132 -228 -114.5 Q-215 -97 -195.5 -86 Q-176 -75 -148 -75 Q-128 -75 -107.5 -81 Q-87 -87 -68 -93.5 Q-49 -100 -32.5 -106 Q-16 -112 -4 -112 Q16 -112 26.5 -99.5 Q37 -87 42 -70 L108 -70 Q104 -94 96.5 -117 Q89 -140 76 -157.5 Q63 -175 43.5 -186 Q24 -197 -4 -197 Q-24 -197 -44.5 -191 Q-65 -185 -84 -178 Q-103 -171 -119.5 -165 Q-136 -159 -148 -159 Q-168 -159 -178.5 -172 Q-189 -185 -194 -202 L-260 -202 Z " />
<glyph glyph-name="macronbelowcmb" unicode="&#x331;" d="M60 -148 L-260 -148 L-260 -70 L60 -70 L60 -148 Z " />
<glyph glyph-name="clickdental" unicode="&#x1c0;" horiz-adv-x="222" d="M162 750 L162 -250 L60 -250 L60 750 L162 750 Z " />
<glyph glyph-name="clicklateral" unicode="&#x1c1;" horiz-adv-x="444" d="M162 750 L162 -250 L60 -250 L60 750 L162 750 Z M384 750 L384 -250 L282 -250 L282 750 L384 750 Z " />
<glyph glyph-name="centigrade" unicode="&#x2103;" horiz-adv-x="1085" d="M40 560 Q40 593 52.5 622 Q65 651 87 673 Q109 695 138 707.5 Q167 720 200 720 Q233 720 262 707.5 Q291 695 313 673 Q335 651 347.5 622 Q360 593 360 560 Q360 527 347.5 498 Q335 469 313 447 Q291 425 262 412.5 Q233 400 200 400 Q167 400 138 412.5 Q109 425 87 447 Q65 469 52.5 498 Q40 527 40 560 Z M118 560 Q118 526 142 502 Q166 478 200 478 Q234 478 258 502 Q282 526 282 560 Q282 594 258 618 Q234 642 200 642 Q166 642 142 618 Q118 594 118 560 Z M965 542 Q926 584 889.5 598 Q853 612 816 612 Q761 612 716.5 592.5 Q672 573 640 538.5 Q608 504 590.5 458 Q573 412 573 359 Q573 302 590.5 254 Q608 206 640 171 Q672 136 716.5 116 Q761 96 816 96 Q859 96 899.5 116.5 Q940 137 975 182 L1079 108 Q1031 42 962 12 Q893 -18 815 -18 Q733 -18 664.5 8.5 Q596 35 546.5 83.5 Q497 132 469 200 Q441 268 441 351 Q441 436 469 505.5 Q497 575 546.5 624 Q596 673 664.5 699.5 Q733 726 815 726 Q887 726 948.5 700.5 Q1010 675 1063 614 L965 542 Z " />
<glyph glyph-name="fahrenheit" unicode="&#x2109;" horiz-adv-x="974" d="M40 560 Q40 593 52.5 622 Q65 651 87 673 Q109 695 138 707.5 Q167 720 200 720 Q233 720 262 707.5 Q291 695 313 673 Q335 651 347.5 622 Q360 593 360 560 Q360 527 347.5 498 Q335 469 313 447 Q291 425 262 412.5 Q233 400 200 400 Q167 400 138 412.5 Q109 425 87 447 Q65 469 52.5 498 Q40 527 40 560 Z M118 560 Q118 526 142 502 Q166 478 200 478 Q234 478 258 502 Q282 526 282 560 Q282 594 258 618 Q234 642 200 642 Q166 642 142 618 Q118 594 118 560 Z M479 708 L936 708 L936 594 L605 594 L605 408 L917 408 L917 294 L605 294 L605 0 L479 0 L479 708 Z " />
<glyph glyph-name="kelvin" unicode="&#x212a;" horiz-adv-x="685" d="M79 708 L205 708 L205 408 L211 408 L504 708 L674 708 L343 381 L696 0 L519 0 L212 348 L205 348 L205 0 L79 0 L79 708 Z " />
<glyph glyph-name="angstrom" unicode="&#x212b;" horiz-adv-x="722" d="M308 708 L417 708 L722 0 L578 0 L512 162 L205 162 L141 0 L0 0 L308 708 Z M468 270 L359 558 L248 270 L468 270 Z M466 837 Q466 792 436 763.5 Q406 735 361 735 Q316 735 286 763 Q256 791 256 836 Q256 858 264 877 Q272 896 286 909.5 Q300 923 319 931 Q338 939 361 939 Q406 939 436 910.5 Q466 882 466 837 Z M418 837 Q418 860 401 875.5 Q384 891 361 891 Q338 891 321 875.5 Q304 860 304 837 Q304 814 321 798.5 Q338 783 361 783 Q384 783 401 798 Q418 813 418 837 Z " />
<glyph glyph-name="Oneroman" unicode="&#x2160;" horiz-adv-x="278" d="M76 708 L202 708 L202 0 L76 0 L76 708 Z " />
<glyph glyph-name="Tworoman" unicode="&#x2161;" horiz-adv-x="556" d="M76 708 L202 708 L202 0 L76 0 L76 708 Z M354 708 L480 708 L480 0 L354 0 L354 708 Z " />
<glyph glyph-name="Threeroman" unicode="&#x2162;" horiz-adv-x="834" d="M76 708 L202 708 L202 0 L76 0 L76 708 Z M354 708 L480 708 L480 0 L354 0 L354 708 Z M632 708 L758 708 L758 0 L632 0 L632 708 Z " />
<glyph glyph-name="Fourroman" unicode="&#x2163;" horiz-adv-x="945" d="M76 708 L202 708 L202 0 L76 0 L76 708 Z M275 708 L420 708 L613 173 L812 708 L948 708 L662 0 L553 0 L275 708 Z " />
<glyph glyph-name="Fiveroman" unicode="&#x2164;" horiz-adv-x="667" d="M-3 708 L142 708 L335 173 L534 708 L670 708 L384 0 L275 0 L-3 708 Z " />
<glyph glyph-name="Sixroman" unicode="&#x2165;" horiz-adv-x="945" d="M-3 708 L142 708 L335 173 L534 708 L670 708 L384 0 L275 0 L-3 708 Z M743 708 L869 708 L869 0 L743 0 L743 708 Z " />
<glyph glyph-name="Sevenroman" unicode="&#x2166;" horiz-adv-x="1223" d="M-3 708 L142 708 L335 173 L534 708 L670 708 L384 0 L275 0 L-3 708 Z M743 708 L869 708 L869 0 L743 0 L743 708 Z M1021 708 L1147 708 L1147 0 L1021 0 L1021 708 Z " />
<glyph glyph-name="Eightroman" unicode="&#x2167;" horiz-adv-x="1501" d="M-3 708 L142 708 L335 173 L534 708 L670 708 L384 0 L275 0 L-3 708 Z M743 708 L869 708 L869 0 L743 0 L743 708 Z M1021 708 L1147 708 L1147 0 L1021 0 L1021 708 Z M1299 708 L1425 708 L1425 0 L1299 0 L1299 708 Z " />
<glyph glyph-name="Nineroman" unicode="&#x2168;" horiz-adv-x="963" d="M76 708 L202 708 L202 0 L76 0 L76 708 Z M530 370 L294 708 L453 708 L620 446 L785 708 L938 708 L706 370 L963 0 L803 0 L616 299 L430 0 L278 0 L530 370 Z " />
<glyph glyph-name="Tenroman" unicode="&#x2169;" horiz-adv-x="685" d="M252 370 L16 708 L175 708 L342 446 L507 708 L660 708 L428 370 L685 0 L525 0 L338 299 L152 0 L0 0 L252 370 Z " />
<glyph glyph-name="Elevenroman" unicode="&#x216a;" horiz-adv-x="963" d="M252 370 L16 708 L175 708 L342 446 L507 708 L660 708 L428 370 L685 0 L525 0 L338 299 L152 0 L0 0 L252 370 Z M761 708 L887 708 L887 0 L761 0 L761 708 Z " />
<glyph glyph-name="Twelveroman" unicode="&#x216b;" horiz-adv-x="1241" d="M252 370 L16 708 L175 708 L342 446 L507 708 L660 708 L428 370 L685 0 L525 0 L338 299 L152 0 L0 0 L252 370 Z M761 708 L887 708 L887 0 L761 0 L761 708 Z M1039 708 L1165 708 L1165 0 L1039 0 L1039 708 Z " />
<glyph glyph-name="uni216C" unicode="&#x216c;" horiz-adv-x="519" d="M79 708 L205 708 L205 114 L506 114 L506 0 L79 0 L79 708 Z " />
<glyph glyph-name="uni216D" unicode="&#x216d;" horiz-adv-x="685" d="M565 542 Q526 584 489.5 598 Q453 612 416 612 Q361 612 316.5 592.5 Q272 573 240 538.5 Q208 504 190.5 458 Q173 412 173 359 Q173 302 190.5 254 Q208 206 240 171 Q272 136 316.5 116 Q361 96 416 96 Q459 96 499.5 116.5 Q540 137 575 182 L679 108 Q631 42 562 12 Q493 -18 415 -18 Q333 -18 264.5 8.5 Q196 35 146.5 83.5 Q97 132 69 200 Q41 268 41 351 Q41 436 69 505.5 Q97 575 146.5 624 Q196 673 264.5 699.5 Q333 726 415 726 Q487 726 548.5 700.5 Q610 675 663 614 L565 542 Z " />
<glyph glyph-name="uni216E" unicode="&#x216e;" horiz-adv-x="759" d="M79 708 L358 708 Q428 708 493 686.5 Q558 665 608 621 Q658 577 688 510.5 Q718 444 718 354 Q718 263 683.5 196.5 Q649 130 594.5 86.5 Q540 43 473.5 21.5 Q407 0 343 0 L79 0 L79 708 Z M299 114 Q358 114 410.5 127.5 Q463 141 502 169.5 Q541 198 563.5 243.5 Q586 289 586 354 Q586 418 566 464 Q546 510 510.5 538.5 Q475 567 426.5 580.5 Q378 594 320 594 L205 594 L205 114 L299 114 Z " />
<glyph glyph-name="uni216F" unicode="&#x216f;" horiz-adv-x="926" d="M82 708 L274 708 L463 212 L654 708 L844 708 L844 0 L724 0 L724 588 L722 588 L507 0 L419 0 L204 588 L202 588 L202 0 L82 0 L82 708 Z " />
<glyph glyph-name="oneroman" unicode="&#x2170;" horiz-adv-x="260" d="M70 480 L190 480 L190 0 L70 0 L70 480 Z M53 643 Q53 672 74.5 693.5 Q96 715 129 715 Q162 715 184.5 694.5 Q207 674 207 643 Q207 612 184.5 591.5 Q162 571 129 571 Q96 571 74.5 592.5 Q53 614 53 643 Z " />
<glyph glyph-name="tworoman" unicode="&#x2171;" horiz-adv-x="520" d="M70 480 L190 480 L190 0 L70 0 L70 480 Z M53 643 Q53 672 74.5 693.5 Q96 715 129 715 Q162 715 184.5 694.5 Q207 674 207 643 Q207 612 184.5 591.5 Q162 571 129 571 Q96 571 74.5 592.5 Q53 614 53 643 Z M330 480 L450 480 L450 0 L330 0 L330 480 Z M313 643 Q313 672 334.5 693.5 Q356 715 389 715 Q422 715 444.5 694.5 Q467 674 467 643 Q467 612 444.5 591.5 Q422 571 389 571 Q356 571 334.5 592.5 Q313 614 313 643 Z " />
<glyph glyph-name="threeroman" unicode="&#x2172;" horiz-adv-x="780" d="M70 480 L190 480 L190 0 L70 0 L70 480 Z M53 643 Q53 672 74.5 693.5 Q96 715 129 715 Q162 715 184.5 694.5 Q207 674 207 643 Q207 612 184.5 591.5 Q162 571 129 571 Q96 571 74.5 592.5 Q53 614 53 643 Z M330 480 L450 480 L450 0 L330 0 L330 480 Z M313 643 Q313 672 334.5 693.5 Q356 715 389 715 Q422 715 444.5 694.5 Q467 674 467 643 Q467 612 444.5 591.5 Q422 571 389 571 Q356 571 334.5 592.5 Q313 614 313 643 Z M590 480 L710 480 L710 0 L590 0 L590 480 Z M573 643 Q573 672 594.5 693.5 Q616 715 649 715 Q682 715 704.5 694.5 Q727 674 727 643 Q727 612 704.5 591.5 Q682 571 649 571 Q616 571 594.5 592.5 Q573 614 573 643 Z " />
<glyph glyph-name="fourroman" unicode="&#x2173;" horiz-adv-x="779" d="M70 480 L190 480 L190 0 L70 0 L70 480 Z M53 643 Q53 672 74.5 693.5 Q96 715 129 715 Q162 715 184.5 694.5 Q207 674 207 643 Q207 612 184.5 591.5 Q162 571 129 571 Q96 571 74.5 592.5 Q53 614 53 643 Z M263 480 L394 480 L522 144 L524 144 L653 480 L776 480 L587 0 L459 0 L263 480 Z " />
<glyph glyph-name="fiveroman" unicode="&#x2174;" horiz-adv-x="519" d="M3 480 L134 480 L262 144 L264 144 L393 480 L516 480 L327 0 L199 0 L3 480 Z " />
<glyph glyph-name="sixroman" unicode="&#x2175;" horiz-adv-x="779" d="M3 480 L134 480 L262 144 L264 144 L393 480 L516 480 L327 0 L199 0 L3 480 Z M589 480 L709 480 L709 0 L589 0 L589 480 Z M572 643 Q572 672 593.5 693.5 Q615 715 648 715 Q681 715 703.5 694.5 Q726 674 726 643 Q726 612 703.5 591.5 Q681 571 648 571 Q615 571 593.5 592.5 Q572 614 572 643 Z " />
<glyph glyph-name="sevenroman" unicode="&#x2176;" horiz-adv-x="1039" d="M3 480 L134 480 L262 144 L264 144 L393 480 L516 480 L327 0 L199 0 L3 480 Z M589 480 L709 480 L709 0 L589 0 L589 480 Z M572 643 Q572 672 593.5 693.5 Q615 715 648 715 Q681 715 703.5 694.5 Q726 674 726 643 Q726 612 703.5 591.5 Q681 571 648 571 Q615 571 593.5 592.5 Q572 614 572 643 Z M849 480 L969 480 L969 0 L849 0 L849 480 Z M832 643 Q832 672 853.5 693.5 Q875 715 908 715 Q941 715 963.5 694.5 Q986 674 986 643 Q986 612 963.5 591.5 Q941 571 908 571 Q875 571 853.5 592.5 Q832 614 832 643 Z " />
<glyph glyph-name="eightroman" unicode="&#x2177;" horiz-adv-x="1299" d="M3 480 L134 480 L262 144 L264 144 L393 480 L516 480 L327 0 L199 0 L3 480 Z M589 480 L709 480 L709 0 L589 0 L589 480 Z M572 643 Q572 672 593.5 693.5 Q615 715 648 715 Q681 715 703.5 694.5 Q726 674 726 643 Q726 612 703.5 591.5 Q681 571 648 571 Q615 571 593.5 592.5 Q572 614 572 643 Z M849 480 L969 480 L969 0 L849 0 L849 480 Z M832 643 Q832 672 853.5 693.5 Q875 715 908 715 Q941 715 963.5 694.5 Q986 674 986 643 Q986 612 963.5 591.5 Q941 571 908 571 Q875 571 853.5 592.5 Q832 614 832 643 Z M1109 480 L1229 480 L1229 0 L1109 0 L1109 480 Z M1092 643 Q1092 672 1113.5 693.5 Q1135 715 1168 715 Q1201 715 1223.5 694.5 Q1246 674 1246 643 Q1246 612 1223.5 591.5 Q1201 571 1168 571 Q1135 571 1113.5 592.5 Q1092 614 1092 643 Z " />
<glyph glyph-name="nineroman" unicode="&#x2178;" horiz-adv-x="797" d="M70 480 L190 480 L190 0 L70 0 L70 480 Z M53 643 Q53 672 74.5 693.5 Q96 715 129 715 Q162 715 184.5 694.5 Q207 674 207 643 Q207 612 184.5 591.5 Q162 571 129 571 Q96 571 74.5 592.5 Q53 614 53 643 Z M452 258 L286 480 L432 480 L528 336 L632 480 L769 480 L605 258 L798 0 L652 0 L527 172 L401 0 L259 0 L452 258 Z " />
<glyph glyph-name="tenroman" unicode="&#x2179;" horiz-adv-x="537" d="M192 258 L26 480 L172 480 L268 336 L372 480 L509 480 L345 258 L538 0 L392 0 L267 172 L141 0 L-1 0 L192 258 Z " />
<glyph glyph-name="elevenroman" unicode="&#x217a;" horiz-adv-x="797" d="M192 258 L26 480 L172 480 L268 336 L372 480 L509 480 L345 258 L538 0 L392 0 L267 172 L141 0 L-1 0 L192 258 Z M607 480 L727 480 L727 0 L607 0 L607 480 Z M590 643 Q590 672 611.5 693.5 Q633 715 666 715 Q699 715 721.5 694.5 Q744 674 744 643 Q744 612 721.5 591.5 Q699 571 666 571 Q633 571 611.5 592.5 Q590 614 590 643 Z " />
<glyph glyph-name="twelveroman" unicode="&#x217b;" horiz-adv-x="1057" d="M192 258 L26 480 L172 480 L268 336 L372 480 L509 480 L345 258 L538 0 L392 0 L267 172 L141 0 L-1 0 L192 258 Z M607 480 L727 480 L727 0 L607 0 L607 480 Z M590 643 Q590 672 611.5 693.5 Q633 715 666 715 Q699 715 721.5 694.5 Q744 674 744 643 Q744 612 721.5 591.5 Q699 571 666 571 Q633 571 611.5 592.5 Q590 614 590 643 Z M867 480 L987 480 L987 0 L867 0 L867 480 Z M850 643 Q850 672 871.5 693.5 Q893 715 926 715 Q959 715 981.5 694.5 Q1004 674 1004 643 Q1004 612 981.5 591.5 Q959 571 926 571 Q893 571 871.5 592.5 Q850 614 850 643 Z " />
<glyph glyph-name="uni217C" unicode="&#x217c;" horiz-adv-x="260" d="M70 756 L190 756 L190 0 L70 0 L70 756 Z " />
<glyph glyph-name="uni217D" unicode="&#x217d;" horiz-adv-x="482" d="M396 336 Q375 358 352 371 Q329 384 305 384 Q272 384 246 372 Q220 360 201.5 340 Q183 320 173.5 294 Q164 268 164 240 Q164 212 173.5 186 Q183 160 201.5 140 Q220 120 246 108 Q272 96 305 96 Q333 96 357 107.5 Q381 119 398 141 L478 55 Q460 37 436.5 24 Q413 11 389 3 Q365 -5 343 -8.5 Q321 -12 305 -12 Q251 -12 203 6 Q155 24 120 57 Q85 90 64.5 136.5 Q44 183 44 240 Q44 297 64.5 343.5 Q85 390 120 423 Q155 456 203 474 Q251 492 305 492 Q351 492 397.5 474.5 Q444 457 479 419 L396 336 Z " />
<glyph glyph-name="uni217E" unicode="&#x217e;" horiz-adv-x="630" d="M448 72 L446 72 Q420 28 376 8 Q332 -12 281 -12 Q225 -12 181.5 7.5 Q138 27 107 61 Q76 95 60 141 Q44 187 44 240 Q44 293 61 339 Q78 385 108.5 419 Q139 453 182 472.5 Q225 492 276 492 Q310 492 336 485 Q362 478 382 467 Q402 456 416 443.5 Q430 431 439 419 L442 419 L442 756 L562 756 L562 0 L448 0 L448 72 Z M164 240 Q164 212 173.5 186 Q183 160 201.5 140 Q220 120 246 108 Q272 96 305 96 Q338 96 364 108 Q390 120 408.5 140 Q427 160 436.5 186 Q446 212 446 240 Q446 268 436.5 294 Q427 320 408.5 340 Q390 360 364 372 Q338 384 305 384 Q272 384 246 372 Q220 360 201.5 340 Q183 320 173.5 294 Q164 268 164 240 Z " />
<glyph glyph-name="thousandroman" unicode="&#x217f;" horiz-adv-x="870" d="M63 480 L177 480 L177 405 L179 405 Q195 439 230.5 465.5 Q266 492 326 492 Q439 492 476 403 Q502 449 541 470.5 Q580 492 634 492 Q682 492 715 476 Q748 460 768.5 432 Q789 404 798 366.5 Q807 329 807 286 L807 0 L687 0 L687 272 Q687 294 683 314.5 Q679 335 669 350.5 Q659 366 642 375 Q625 384 598 384 Q570 384 550.5 373.5 Q531 363 518.5 345.5 Q506 328 500.5 305.5 Q495 283 495 260 L495 0 L375 0 L375 286 Q375 331 356 357.5 Q337 384 293 384 Q263 384 242.5 374 Q222 364 208.5 347 Q195 330 189 308 Q183 286 183 262 L183 0 L63 0 L63 480 Z " />
<glyph glyph-name="Ibreve" unicode="&#x12c;" horiz-adv-x="278" d="M76 708 L202 708 L202 0 L76 0 L76 708 Z M36 902 Q43 864 72 850 Q101 836 139 836 Q182 836 207 848 Q232 860 243 902 L309 902 Q301 828 255.5 793 Q210 758 138 758 Q66 758 20 792.5 Q-26 827 -31 902 L36 902 Z " />
<glyph glyph-name="ibreve" unicode="&#x12d;" horiz-adv-x="260" d="M70 480 L190 480 L190 0 L70 0 L70 480 Z M27 675 Q34 637 63 623 Q92 609 130 609 Q173 609 198 621 Q223 633 234 675 L300 675 Q292 601 246.5 566 Q201 531 129 531 Q57 531 11 565.5 Q-35 600 -40 675 L27 675 Z " />
<glyph glyph-name="clickretroflex" unicode="&#x1c3;" horiz-adv-x="296" d="M208 222 L88 222 L88 708 L208 708 L208 222 Z M68 70 Q68 102 91.5 125 Q115 148 148 148 Q180 148 204 126 Q228 104 228 72 Q228 40 204.5 17 Q181 -6 148 -6 Q132 -6 117.5 0 Q103 6 92 16 Q81 26 74.5 40 Q68 54 68 70 Z " />
<glyph glyph-name="DZcaron" unicode="&#x1c4;" horiz-adv-x="1370" d="M79 708 L358 708 Q428 708 493 686.5 Q558 665 608 621 Q658 577 688 510.5 Q718 444 718 354 Q718 263 683.5 196.5 Q649 130 594.5 86.5 Q540 43 473.5 21.5 Q407 0 343 0 L79 0 L79 708 Z M299 114 Q358 114 410.5 127.5 Q463 141 502 169.5 Q541 198 563.5 243.5 Q586 289 586 354 Q586 418 566 464 Q546 510 510.5 538.5 Q475 567 426.5 580.5 Q378 594 320 594 L205 594 L205 114 L299 114 Z M794 114 L1172 594 L800 594 L800 708 L1329 708 L1329 594 L948 114 L1335 114 L1335 0 L794 0 L794 114 Z M997 902 L1066 812 L1135 902 L1245 902 L1130 758 L997 758 L883 902 L997 902 Z " />
<glyph glyph-name="Dzcaron" unicode="&#x1c5;" horiz-adv-x="1241" d="M79 708 L358 708 Q428 708 493 686.5 Q558 665 608 621 Q658 577 688 510.5 Q718 444 718 354 Q718 263 683.5 196.5 Q649 130 594.5 86.5 Q540 43 473.5 21.5 Q407 0 343 0 L79 0 L79 708 Z M299 114 Q358 114 410.5 127.5 Q463 141 502 169.5 Q541 198 563.5 243.5 Q586 289 586 354 Q586 418 566 464 Q546 510 510.5 538.5 Q475 567 426.5 580.5 Q378 594 320 594 L205 594 L205 114 L299 114 Z M793 111 L1050 382 L1050 384 L805 384 L805 480 L1195 480 L1195 371 L935 96 L1207 96 L1207 0 L793 0 L793 111 Z M933 675 L1002 585 L1071 675 L1181 675 L1066 531 L933 531 L819 675 L933 675 Z " />
<glyph glyph-name="dzcaron" unicode="&#x1c6;" horiz-adv-x="1112" d="M448 72 L446 72 Q420 28 376 8 Q332 -12 281 -12 Q225 -12 181.5 7.5 Q138 27 107 61 Q76 95 60 141 Q44 187 44 240 Q44 293 61 339 Q78 385 108.5 419 Q139 453 182 472.5 Q225 492 276 492 Q310 492 336 485 Q362 478 382 467 Q402 456 416 443.5 Q430 431 439 419 L442 419 L442 756 L562 756 L562 0 L448 0 L448 72 Z M164 240 Q164 212 173.5 186 Q183 160 201.5 140 Q220 120 246 108 Q272 96 305 96 Q338 96 364 108 Q390 120 408.5 140 Q427 160 436.5 186 Q446 212 446 240 Q446 268 436.5 294 Q427 320 408.5 340 Q390 360 364 372 Q338 384 305 384 Q272 384 246 372 Q220 360 201.5 340 Q183 320 173.5 294 Q164 268 164 240 Z M664 111 L921 382 L921 384 L676 384 L676 480 L1066 480 L1066 371 L806 96 L1078 96 L1078 0 L664 0 L664 111 Z M804 675 L873 585 L942 675 L1052 675 L937 531 L804 531 L690 675 L804 675 Z " />
<glyph glyph-name="LJ" unicode="&#x1c7;" horiz-adv-x="1019" d="M79 708 L205 708 L205 114 L506 114 L506 0 L79 0 L79 708 Z M945 196 Q945 154 931.5 115 Q918 76 891.5 46.5 Q865 17 825 -0.5 Q785 -18 732 -18 Q648 -18 594.5 21 Q541 60 524 145 L642 173 Q648 138 670.5 117 Q693 96 726 96 Q780 96 799.5 132.5 Q819 169 819 233 L819 708 L945 708 L945 196 Z " />
<glyph glyph-name="Lj" unicode="&#x1c8;" horiz-adv-x="779" d="M79 708 L205 708 L205 114 L506 114 L506 0 L79 0 L79 708 Z M709 480 L709 -29 Q709 -74 703 -112.5 Q697 -151 679.5 -179.5 Q662 -208 630 -224 Q598 -240 547 -240 Q530 -240 514 -238 Q498 -236 482 -231 L491 -127 Q501 -129 510 -130.5 Q519 -132 529 -132 Q551 -132 563.5 -122.5 Q576 -113 581.5 -98 Q587 -83 588 -65 Q589 -47 589 -30 L589 480 L709 480 Z M572 643 Q572 672 593.5 693.5 Q615 715 648 715 Q681 715 703.5 694.5 Q726 674 726 643 Q726 612 703.5 591.5 Q681 571 648 571 Q615 571 593.5 592.5 Q572 614 572 643 Z " />
</font>
</svg>
