<?xml version="1.0" encoding="UTF-8"?>
<svg xmlns="http://www.w3.org/2000/svg" xmlns:xlink="http://www.w3.org/1999/xlink" version="1.2" >
<font id="Sincerely">
<font-face  font-family="Sincerely" units-per-em="1000" ascent="687" descent="-475" font-style="normal" font-weight="400" font-stretch="normal" cap-height="676" x-height="274" underline-position="-75" underline-thickness="50" />
<missing-glyph  horiz-adv-x="400" d="" />
<glyph glyph-name="eth" unicode="&#xf0;" horiz-adv-x="916" d="M1019 60 Q1019 54 1011.5 49 Q1004 44 996 44 L737 44 Q660 7 568.5 -7.5 Q477 -22 392 -22 Q377 -22 349.5 -21.5 Q322 -21 289 -18.5 Q256 -16 221.5 -10.5 Q187 -5 159 5 Q131 15 113 30.5 Q95 46 95 68 Q95 92 117.5 112.5 Q140 133 178 149.5 Q216 166 266 178.5 Q316 191 372 199.5 Q428 208 486.5 212.5 Q545 217 599 217 Q609 217 619.5 216 Q630 215 639 212 Q648 209 653.5 203 Q659 197 659 187 Q659 178 654 175.5 Q649 173 640 173 Q631 174 619.5 174 Q608 174 593 174 Q582 174 570 174 Q558 174 544 173 Q533 173 498.5 169.5 Q464 166 419.5 159.5 Q375 153 326 144 Q277 135 236 123 Q195 111 168.5 96.5 Q142 82 142 65 Q142 48 170 38.5 Q198 29 237 24 Q276 19 319 18 Q362 17 392 17 Q406 17 435.5 18 Q465 19 505.5 24 Q546 29 595 38.5 Q644 48 696 66 L696 84 Q696 139 686 194 Q676 249 654 306.5 Q632 364 597.5 426 Q563 488 514 557 Q498 546 483.5 538 Q469 530 458 530 Q448 530 443 536 Q438 542 438 548 Q438 553 441 556 Q444 559 446 564 Q450 568 460 576 Q470 584 483 595 Q477 610 458.5 627 Q440 644 420.5 662 Q401 680 386 697 Q371 714 371 727 Q371 737 378.5 740.5 Q386 744 391 744 Q400 744 406 740.5 Q412 737 420 730 Q443 711 468.5 686 Q494 661 520 630 Q540 648 549 656.5 Q558 665 566 665 Q575 665 582 657 Q589 649 589 643 Q589 636 574 619 Q570 614 563.5 607.5 Q557 601 549 593 Q588 542 623.5 481 Q659 420 686 354 Q713 288 729.5 219 Q746 150 746 84 Q768 84 786.5 84 Q805 84 826 84 Q847 84 872.5 83.5 Q898 83 933 83 Q981 82 1000 78 Q1019 74 1019 60 Z " />
<glyph glyph-name="Scaron" unicode="&#x160;" horiz-adv-x="1086" d="M929 806 Q929 801 912.5 779 Q896 757 875.5 732.5 Q855 708 836.5 688.5 Q818 669 815 669 Q812 669 801.5 687.5 Q791 706 779 729.5 Q767 753 757.5 775.5 Q748 798 748 805 Q748 816 758 820 Q768 824 772 824 Q774 824 780.5 811.5 Q787 799 795.5 782.5 Q804 766 811.5 749.5 Q819 733 822 726 Q828 734 840.5 750 Q853 766 866.5 782.5 Q880 799 892.5 811.5 Q905 824 910 824 Q916 824 922.5 820.5 Q929 817 929 806 Z M1105 88 Q1105 61 1086 44.5 Q1067 28 1039 19 Q1011 10 980 5.5 Q949 1 925 -3 Q832 -18 741 -20 Q650 -22 557 -27 Q549 -34 545 -40 Q541 -46 535 -50.5 Q529 -55 517 -57.5 Q505 -60 482 -60 Q392 -60 337 -59.5 Q282 -59 244 -58.5 Q206 -58 176.5 -57.5 Q147 -57 108 -57 Q96 -55 80.5 -51.5 Q65 -48 51 -41.5 Q37 -35 27.5 -24.5 Q18 -14 18 3 Q18 12 23 17 Q28 22 36 27 Q86 27 147.5 25.5 Q209 24 275 22.5 Q341 21 406.5 19.5 Q472 18 530 18 Q544 18 588.5 18.5 Q633 19 691.5 21 Q750 23 814.5 27 Q879 31 933 39 Q987 47 1022 58.5 Q1057 70 1057 87 Q1057 102 1033 114 Q1009 126 971.5 136 Q934 146 889 153.5 Q844 161 802 167 Q760 173 727 177 Q694 181 680 184 Q663 187 633.5 191.5 Q604 196 569.5 203 Q535 210 500 220 Q465 230 436 244 Q407 258 389 277.5 Q371 297 371 323 Q371 361 409 398.5 Q447 436 506 470.5 Q565 505 637 536 Q709 567 778 591 Q847 615 904.5 631 Q962 647 991 653 Q1009 657 1027.5 664 Q1046 671 1064 671 Q1075 671 1082.5 666.5 Q1090 662 1090 651 Q1090 641 1071 633 Q1052 625 1026 618.5 Q1000 612 972.5 606.5 Q945 601 928 596 Q906 590 859.5 575.5 Q813 561 756 540.5 Q699 520 638.5 494.5 Q578 469 528.5 441 Q479 413 447.5 383.5 Q416 354 416 326 Q416 305 450.5 287.5 Q485 270 538 255.5 Q591 241 654 229.5 Q717 218 773 210 Q829 202 870.5 196.5 Q912 191 922 189 Q941 185 972 179.5 Q1003 174 1032.5 163.5 Q1062 153 1083.5 135 Q1105 117 1105 88 Z " />
<glyph glyph-name="scaron" unicode="&#x161;" horiz-adv-x="461" d="M278 374 Q278 369 261.5 347 Q245 325 224.5 300.5 Q204 276 185.5 256.5 Q167 237 164 237 Q161 237 150.5 255.5 Q140 274 128 297.5 Q116 321 106.5 343.5 Q97 366 97 373 Q97 384 107 388 Q117 392 121 392 Q123 392 129.5 379.5 Q136 367 144.5 350.5 Q153 334 160.5 317.5 Q168 301 171 294 Q177 302 189.5 318 Q202 334 215.5 350.5 Q229 367 241.5 379.5 Q254 392 259 392 Q265 392 271.5 388.5 Q278 385 278 374 Z M609 29 Q609 20 605.5 16 Q602 12 594 7 Q576 4 531.5 -2.5 Q487 -9 430 -17 Q373 -25 310 -33.5 Q247 -42 191.5 -49 Q136 -56 93.5 -60.5 Q51 -65 35 -65 Q28 -65 16.5 -64.5 Q5 -64 -5.5 -61 Q-16 -58 -24 -52 Q-32 -46 -32 -35 Q-32 -14 -19.5 -8.5 Q-7 -3 9 -3 Q33 -3 59.5 -7.5 Q86 -12 112 -12 Q134 -12 173.5 -10.5 Q213 -9 252 -4.5 Q291 0 319.5 7 Q348 14 348 26 Q348 35 327.5 41 Q307 47 276 52.5 Q245 58 209 64 Q173 70 142 79 Q111 88 90.5 101 Q70 114 70 134 Q70 156 92 170.5 Q114 185 143 194 Q172 203 201.5 206.5 Q231 210 246 210 Q260 210 268 207.5 Q276 205 276 194 Q276 180 264 175 Q257 172 233.5 169.5 Q210 167 185 163 Q160 159 140.5 152 Q121 145 121 134 Q121 130 134.5 124.5 Q148 119 168.5 113.5 Q189 108 213.5 102.5 Q238 97 260.5 93 Q283 89 299.5 86 Q316 83 321 82 Q353 76 371.5 69 Q390 62 400 55 Q410 48 412.5 41.5 Q415 35 415 31 Q415 25 414 25 Q436 25 457.5 29 Q479 33 500.5 37.5 Q522 42 543.5 45.5 Q565 49 586 49 Q594 49 601.5 43.5 Q609 38 609 29 Z " />
<glyph glyph-name="Yacute" unicode="&#xdd;" horiz-adv-x="1031" d="M695 765 Q695 759 692 749.5 Q689 740 682 724 Q675 708 664.5 684.5 Q654 661 639 627 Q635 624 631 624 Q624 624 619 630.5 Q614 637 614 645 Q614 658 624 680.5 Q634 703 653 750 Q658 763 664.5 773.5 Q671 784 679 784 Q683 784 689 780 Q695 776 695 765 Z M1151 52 Q1151 46 1140 38 Q1129 30 1114 22 Q1099 14 1084.5 7.5 Q1070 1 1063 -3 Q991 -41 946 -64 Q901 -87 875 -100 Q849 -113 838.5 -118 Q828 -123 826 -126 Q822 -133 818 -139 Q814 -144 810.5 -150 Q807 -156 805 -159 Q793 -179 773.5 -211 Q754 -243 729 -279.5 Q704 -316 675 -353 Q646 -390 615 -420 Q584 -450 552.5 -469 Q521 -488 491 -488 Q440 -488 440 -434 Q440 -404 465.5 -366.5 Q491 -329 526.5 -292.5 Q562 -256 599.5 -225 Q637 -194 662 -177 Q677 -167 699 -152.5 Q721 -138 741.5 -124 Q762 -110 777 -99.5 Q792 -89 793 -87 Q831 -18 866 56.5 Q901 131 940 200 L914 178 Q875 145 831.5 110.5 Q788 76 741 48 Q694 20 643.5 2.5 Q593 -15 539 -15 Q472 -15 422 18.5 Q372 52 332 102 Q292 152 259.5 209 Q227 266 195 314 Q193 320 190.5 321.5 Q188 323 183 323 Q176 323 169 320 Q162 317 154 317 Q141 317 132 327 Q123 337 117 352 Q111 367 107 383.5 Q103 400 99 413 Q92 437 81 463 Q70 489 59.5 515.5 Q49 542 41 569 Q33 596 33 621 Q33 632 44 641 Q55 650 66 650 Q78 650 89 634.5 Q100 619 110 597.5 Q120 576 128.5 554.5 Q137 533 143 521 Q162 482 187.5 430.5 Q213 379 243.5 324.5 Q274 270 309.5 217 Q345 164 383.5 122.5 Q422 81 463 55.5 Q504 30 546 30 Q591 30 630 47.5 Q669 65 707 87 Q805 144 884.5 220.5 Q964 297 1021 395 Q1032 413 1041.5 432 Q1051 451 1060 470 Q1066 481 1070 494.5 Q1074 508 1079 519 Q1084 530 1090 537.5 Q1096 545 1106 545 Q1120 545 1126 540.5 Q1132 536 1132 522 Q1132 502 1122.5 488.5 Q1113 475 1105 458 Q1081 399 1048.5 329.5 Q1016 260 984 191.5 Q952 123 923 60 Q894 -3 876 -50 Q894 -39 952 -10.5 Q1010 18 1114 75 Q1116 76 1119 76 L1126 76 Q1151 76 1151 52 Z M750 -178 Q750 -172 745 -172 Q735 -172 712 -188 Q689 -204 660.5 -228.5 Q632 -253 602 -283.5 Q572 -314 547.5 -342.5 Q523 -371 507 -394.5 Q491 -418 491 -430 Q491 -440 503 -440 Q508 -440 516.5 -436 Q525 -432 534.5 -426.5 Q544 -421 552 -415.5 Q560 -410 563 -407 Q573 -398 589.5 -381 Q606 -364 625 -343 Q644 -322 664 -298.5 Q684 -275 701.5 -252.5 Q719 -230 732 -210.5 Q745 -191 750 -178 Z " />
<glyph glyph-name="yacute" unicode="&#xfd;" horiz-adv-x="600" d="M381 382 Q381 376 378 366.5 Q375 357 368 341 Q361 325 350.5 301.5 Q340 278 325 244 Q321 241 317 241 Q310 241 305 247.5 Q300 254 300 262 Q300 275 310 297.5 Q320 320 339 367 Q344 380 350.5 390.5 Q357 401 365 401 Q369 401 375 397 Q381 393 381 382 Z M735 65 Q735 59 727 51 Q693 23 651 -12 Q609 -47 569.5 -83 Q530 -119 498 -152 Q466 -185 452 -209 Q443 -224 432 -257.5 Q421 -291 407.5 -325 Q394 -359 378 -384.5 Q362 -410 342 -410 Q328 -410 318 -403.5 Q308 -397 308 -380 Q308 -351 321.5 -324 Q335 -297 353 -273 Q371 -249 388.5 -228.5 Q406 -208 413 -191 Q423 -168 428 -145 Q433 -122 440 -99 Q446 -79 455.5 -45 Q465 -11 474 23 Q483 57 489 82 Q495 107 495 109 Q460 90 423.5 67 Q387 44 348.5 24 Q310 4 269.5 -10 Q229 -24 187 -24 Q144 -24 119.5 -1 Q95 22 95 77 Q95 79 96.5 96 Q98 113 101.5 132.5 Q105 152 110.5 167.5 Q116 183 125 183 Q143 183 146 172 Q149 161 149 150 Q146 133 141.5 111.5 Q137 90 137 70 Q137 46 148 29 Q159 12 191 12 Q216 12 251 25 Q286 38 322 56.5 Q358 75 391.5 96 Q425 117 446 132 Q456 139 470.5 150.5 Q485 162 500 173.5 Q515 185 527.5 193 Q540 201 544 201 Q551 201 556 194.5 Q561 188 562 183 Q557 158 550 135 Q543 112 536 87 Q531 68 521.5 35.5 Q512 3 502 -29 Q492 -61 484.5 -85.5 Q477 -110 476 -114 Q481 -111 498 -96 Q515 -81 536 -62 Q557 -43 578 -23.5 Q599 -4 613 9 Q624 19 637 31 Q650 43 663 53.5 Q676 64 688.5 71 Q701 78 711 78 Q722 78 728.5 74.5 Q735 71 735 65 Z " />
<glyph glyph-name="Thorn" unicode="&#xde;" horiz-adv-x="1297" d="M1387 424 Q1387 373 1368.5 336.5 Q1350 300 1324 273.5 Q1298 247 1271 229 Q1244 211 1226 197 L1272 197 Q1283 197 1291.5 193.5 Q1300 190 1300 175 Q1300 166 1290 161 Q1280 156 1274 156 L1154 156 Q1095 133 1040.5 118.5 Q986 104 925 104 Q912 104 890.5 106 Q869 108 848 114.5 Q827 121 812 133 Q797 145 797 165 Q797 188 812.5 197 Q828 206 854 206 Q894 206 921 204 Q948 202 971.5 200 Q995 198 1020.5 195.5 Q1046 193 1083 193 Q1112 193 1156.5 211.5 Q1201 230 1243 261 Q1285 292 1315 332 Q1345 372 1345 415 Q1345 456 1314 480.5 Q1283 505 1240 517.5 Q1197 530 1151.5 534 Q1106 538 1077 538 Q1036 538 991 535.5 Q946 533 899.5 528 Q853 523 807.5 515 Q762 507 720 496 L718 495 Q717 458 715.5 411.5 Q714 365 713 318 Q712 271 711.5 227.5 Q711 184 711 153 Q711 127 710.5 113.5 Q710 100 709.5 85.5 Q709 71 708 47.5 Q707 24 706 -21 Q700 -32 685 -32 Q673 -32 668.5 -24.5 Q664 -17 663 -7 Q662 3 662.5 14 Q663 25 661 31 L673 485 L671 485 Q661 483 630 474 Q599 465 555 451.5 Q511 438 458.5 419.5 Q406 401 352.5 380 Q299 359 248.5 335.5 Q198 312 159 287 Q120 262 96.5 237 Q73 212 73 187 Q73 166 86 159 Q99 152 115 149 Q131 146 144 142.5 Q157 139 157 125 Q157 112 146.5 109.5 Q136 107 125 107 Q108 107 90.5 111.5 Q73 116 59 125.5 Q45 135 36.5 149.5 Q28 164 28 183 Q28 215 50 245 Q72 275 109.5 303 Q147 331 195.5 356.5 Q244 382 298 404.5 Q352 427 407.5 446.5 Q463 466 512.5 481.5 Q562 497 603 508 Q644 519 669 526 Q670 526 671 526.5 Q672 527 674 527 L678 681 Q679 698 683 712.5 Q687 727 705 727 Q712 727 719 722 Q726 717 726 694 Q726 660 723.5 627 Q721 594 720 560 Q720 555 719.5 550 Q719 545 719 540 Q757 549 806 556 Q855 563 903.5 568 Q952 573 996.5 576 Q1041 579 1070 579 Q1097 579 1131 577 Q1165 575 1200.5 569.5 Q1236 564 1269.5 553.5 Q1303 543 1329 525.5 Q1355 508 1371 483.5 Q1387 459 1387 424 Z " />
<glyph glyph-name="thorn" unicode="&#xfe;" horiz-adv-x="701" d="M834 56 Q834 48 826.5 41 Q819 34 803 34 Q755 34 704.5 27.5 Q654 21 607 19 Q578 18 549.5 12 Q521 6 488.5 -0.5 Q456 -7 417.5 -12 Q379 -17 331 -17 Q319 -17 303.5 -10.5 Q288 -4 288 10 Q288 25 301 34 Q314 43 333.5 48.5 Q353 54 377 55.5 Q401 57 422 57 Q444 57 460.5 56 Q477 55 482 55 Q503 55 529.5 60.5 Q556 66 579.5 77.5 Q603 89 619 107.5 Q635 126 635 152 Q635 161 621 168 Q607 175 580 175 Q514 175 452.5 150 Q391 125 336 85.5 Q281 46 233.5 -4 Q186 -54 150 -104 Q136 -122 121.5 -141 Q107 -160 99 -182 Q95 -193 91.5 -218.5 Q88 -244 84 -275.5 Q80 -307 74 -341.5 Q68 -376 59 -404 Q50 -432 38 -450.5 Q26 -469 8 -469 Q-1 -469 -7 -464 Q-13 -459 -16.5 -451.5 Q-20 -444 -21.5 -436 Q-23 -428 -23 -421 Q-23 -376 -10 -327 Q3 -278 33 -224 Q35 -220 41 -185 Q47 -150 54.5 -95 Q62 -40 71 29.5 Q80 99 89 172.5 Q98 246 107 319 Q116 392 123 454 Q130 516 134.5 561 Q139 606 140 625 Q140 630 137 634.5 Q134 639 118 641 Q102 641 89 637 Q76 633 64.5 627 Q53 621 41.5 614.5 Q30 608 17 602 Q15 601 6.5 595.5 Q-2 590 -12 583.5 Q-22 577 -31 572 Q-40 567 -43 567 Q-54 567 -62 571 Q-70 575 -70 583 Q-70 585 -63 591.5 Q-56 598 -47 605.5 Q-38 613 -30 620 Q-22 627 -19 629 Q-7 640 11.5 650 Q30 660 50.5 668 Q71 676 91 681 Q111 686 127 686 Q146 686 157.5 679.5 Q169 673 175.5 663 Q182 653 184 641.5 Q186 630 186 621 Q186 621 182.5 591 Q179 561 173.5 512 Q168 463 161 400.5 Q154 338 146 272 Q128 118 107 -78 Q109 -78 119 -67.5 Q129 -57 141.5 -43.5 Q154 -30 165 -18 Q176 -6 180 -2 Q221 40 266.5 79.5 Q312 119 363 149.5 Q414 180 470 198.5 Q526 217 587 217 Q604 217 620.5 213 Q637 209 650.5 200.5 Q664 192 672 178.5 Q680 165 680 146 Q680 126 673.5 111.5 Q667 97 658.5 86.5 Q650 76 643.5 70.5 Q637 65 637 63 Q654 63 675 65 Q696 67 719 69.5 Q742 72 765 74 Q788 76 809 76 Q822 76 828 70 Q834 64 834 56 Z " />
<glyph glyph-name="Zcaron" unicode="&#x17d;" horiz-adv-x="1040" d="M717 794 Q717 789 700.5 767 Q684 745 663.5 720.5 Q643 696 624.5 676.5 Q606 657 603 657 Q600 657 589.5 675.5 Q579 694 567 717.5 Q555 741 545.5 763.5 Q536 786 536 793 Q536 804 546 808 Q556 812 560 812 Q562 812 568.5 799.5 Q575 787 583.5 770.5 Q592 754 599.5 737.5 Q607 721 610 714 Q616 722 628.5 738 Q641 754 654.5 770.5 Q668 787 680.5 799.5 Q693 812 698 812 Q704 812 710.5 808.5 Q717 805 717 794 Z M1173 47 Q1173 46 1163 34.5 Q1153 23 1134.5 6.5 Q1116 -10 1088 -29 Q1060 -48 1024.5 -64 Q989 -80 945 -90.5 Q901 -101 850 -101 Q807 -101 763 -89 Q719 -77 676.5 -59 Q634 -41 594 -20 Q554 1 519 19 Q493 32 461 47.5 Q429 63 399 76.5 Q369 90 346.5 99.5 Q324 109 317 109 Q310 109 288 95 Q266 81 239.5 62.5 Q213 44 188 25.5 Q163 7 151 -2 Q141 -10 129.5 -18.5 Q118 -27 106 -35 Q94 -43 82.5 -48 Q71 -53 61 -53 Q50 -53 40.5 -48 Q31 -43 31 -31 Q31 -10 54.5 15.5 Q78 41 110.5 65 Q143 89 175.5 108 Q208 127 226 136 Q245 146 265.5 148.5 Q286 151 306 162 Q313 166 328 176 Q343 186 359 197.5 Q375 209 388.5 220 Q402 231 405 237 Q402 243 399 248 Q396 253 396 258 Q396 272 407.5 277 Q419 282 435 284 Q451 286 468 287 Q485 288 495 294 Q510 303 537 322 Q564 341 594.5 363 Q625 385 655.5 408 Q686 431 708 447 Q720 455 741.5 469.5 Q763 484 784 499 Q805 514 820.5 526 Q836 538 836 541 Q836 545 830 549 Q810 549 735.5 547.5 Q661 546 516 546 Q440 546 366 551.5 Q292 557 214 561 Q196 562 181 567 Q166 572 166 595 Q166 606 171.5 613 Q177 620 185 624.5 Q193 629 202.5 631 Q212 633 220 633 Q277 633 335 631.5 Q393 630 450 627 Q466 621 470.5 614.5 Q475 608 478.5 603 Q482 598 491 594.5 Q500 591 525 591 L860 591 Q874 594 890 597 Q906 600 920 600 Q930 600 941.5 595.5 Q953 591 953 577 Q953 568 940 556.5 Q927 545 909 533 Q891 521 871 509 Q851 497 836 486 Q827 480 805 464 Q783 448 755 427.5 Q727 407 697 385 Q667 363 642 344 Q617 325 601 312 Q585 299 585 297 Q585 293 596 292 Q607 291 626 291 Q653 291 691.5 292.5 Q730 294 765 294 Q806 294 834.5 290 Q863 286 863 272 Q863 264 857.5 259 Q852 254 844 251 Q836 248 827 247 Q818 246 811 246 L504 246 Q496 241 474.5 227.5 Q453 214 430 198 Q407 182 389.5 167 Q372 152 372 145 Q372 139 380.5 134.5 Q389 130 396 127 Q463 99 526.5 65 Q590 31 657 4 Q689 -9 713 -20.5 Q737 -32 760.5 -40.5 Q784 -49 811 -54 Q838 -59 875 -59 Q934 -59 980.5 -39.5 Q1027 -20 1061 4 Q1095 28 1117.5 47.5 Q1140 67 1151 67 Q1166 67 1169.5 57.5 Q1173 48 1173 47 Z " />
<glyph glyph-name="zcaron" unicode="&#x17e;" horiz-adv-x="750" d="M632 397 Q632 392 615.5 370 Q599 348 578.5 323.5 Q558 299 539.5 279.5 Q521 260 518 260 Q515 260 504.5 278.5 Q494 297 482 320.5 Q470 344 460.5 366.5 Q451 389 451 396 Q451 407 461 411 Q471 415 475 415 Q477 415 483.5 402.5 Q490 390 498.5 373.5 Q507 357 514.5 340.5 Q522 324 525 317 Q531 325 543.5 341 Q556 357 569.5 373.5 Q583 390 595.5 402.5 Q608 415 613 415 Q619 415 625.5 411.5 Q632 408 632 397 Z M930 79 Q930 63 909 46 Q888 29 859.5 14 Q831 -1 802 -12.5 Q773 -24 757 -30 Q744 -35 734 -37.5 Q724 -40 714 -42 Q704 -44 693.5 -44.5 Q683 -45 669 -45 Q615 -45 562.5 -27 Q510 -9 460 9 Q446 14 430.5 20.5 Q415 27 399 27 Q384 27 370.5 20.5 Q357 14 343.5 6 Q330 -2 316 -8.5 Q302 -15 285 -15 Q260 -15 260 12 Q260 34 275.5 45.5 Q291 57 312.5 63 Q334 69 356.5 71 Q379 73 392 75 Q396 76 409 83 Q422 90 439.5 100.5 Q457 111 475.5 123 Q494 135 510 145 Q526 155 536.5 161 Q547 167 547 166 Q547 174 538 178.5 Q529 183 522 183 Q457 183 396 162 Q335 141 278 111 Q269 107 244.5 92.5 Q220 78 192 62.5 Q164 47 139 35 Q114 23 104 23 Q85 23 85 42 Q85 53 94.5 59.5 Q104 66 112 71 Q146 94 192.5 120.5 Q239 147 292 170 Q345 193 401.5 208.5 Q458 224 511 224 Q536 224 557.5 222.5 Q579 221 601 219 Q614 218 627.5 216.5 Q641 215 651.5 212.5 Q662 210 669 205.5 Q676 201 676 192 Q676 182 658.5 169.5 Q641 157 618 145.5 Q595 134 573.5 124.5 Q552 115 544 111 Q529 104 514.5 96.5 Q500 89 488.5 82 Q477 75 470 69 Q463 63 463 60 Q463 57 475 50.5 Q487 44 505.5 36.5 Q524 29 547 21.5 Q570 14 592.5 8 Q615 2 634.5 -2 Q654 -6 666 -6 Q685 -6 708.5 -0.5 Q732 5 756.5 14 Q781 23 803 33.5 Q825 44 841 54 Q848 59 856.5 66 Q865 73 874.5 79.5 Q884 86 893.5 91 Q903 96 911 96 Q918 96 924 91.5 Q930 87 930 79 Z " />
<glyph glyph-name="minus" unicode="&#x2212;" horiz-adv-x="438" d="M400 178 Q400 171 396 164 Q392 157 385 155 L54 155 Q47 157 43 164 Q39 171 39 178 Q39 184 42.5 193 Q46 202 54 202 L385 202 Q393 202 396.5 193 Q400 184 400 178 Z " />
<glyph glyph-name="space" unicode="&#x20;" horiz-adv-x="400" d="" />
<glyph glyph-name="exclam" unicode="&#x21;" horiz-adv-x="277" d="M264 516 Q264 512 262.5 501.5 Q261 491 258.5 478.5 Q256 466 254 452.5 Q252 439 251 428 Q250 410 248 382 Q246 354 243 322.5 Q240 291 237 259.5 Q234 228 229 202.5 Q224 177 218 161 Q212 145 205 145 Q196 145 191.5 151 Q187 157 185.5 165 Q184 173 184 181.5 Q184 190 184 196 Q189 246 192 275.5 Q195 305 196.5 323 Q198 341 199 351.5 Q200 362 201 373.5 Q202 385 203.5 402.5 Q205 420 209 452 Q211 464 212.5 479 Q214 494 218 507.5 Q222 521 228.5 530 Q235 539 246 539 Q264 539 264 516 Z M215 54 Q215 45 212 34.5 Q209 24 203 14.5 Q197 5 189 -1 Q181 -7 171 -7 Q148 -7 148 15 Q148 24 151.5 35 Q155 46 161 55 Q167 64 175.5 70.5 Q184 77 194 77 Q206 77 210.5 71 Q215 65 215 54 Z " />
<glyph glyph-name="quotedbl" unicode="&#x22;" horiz-adv-x="194" d="M207 514 Q207 510 205.5 499.5 Q204 489 201.5 476.5 Q199 464 197 450.5 Q195 437 194 426 Q192 399 190.5 383.5 Q189 368 186.5 360 Q184 352 178 350 Q172 348 161 348 Q152 348 148.5 357.5 Q145 367 145 381 Q145 397 147.5 415 Q150 433 152 450 Q154 462 155.5 477 Q157 492 161 505.5 Q165 519 171.5 528 Q178 537 189 537 Q207 537 207 514 Z M105 514 Q105 510 103.5 499.5 Q102 489 99.5 476.5 Q97 464 95 450.5 Q93 437 92 426 Q90 399 88.5 383.5 Q87 368 84.5 360 Q82 352 76 350 Q70 348 59 348 Q50 348 46.5 357.5 Q43 367 43 381 Q43 397 45.5 415 Q48 433 50 450 Q52 462 53.5 477 Q55 492 59 505.5 Q63 519 69.5 528 Q76 537 87 537 Q105 537 105 514 Z " />
<glyph glyph-name="numbersign" unicode="&#x23;" horiz-adv-x="528" d="M517 360 Q517 344 506 337 Q495 330 479.5 327.5 Q464 325 445.5 325.5 Q427 326 412 325 Q404 299 397.5 275.5 Q391 252 384 227 Q398 228 414 228.5 Q430 229 448 229 Q460 229 467.5 227 Q475 225 475 215 Q475 200 464 193 Q453 186 437 183.5 Q421 181 403.5 181.5 Q386 182 372 181 Q369 169 364.5 151.5 Q360 134 354.5 117.5 Q349 101 341.5 89.5 Q334 78 324 78 Q313 78 309.5 82 Q306 86 306 92 Q306 96 307 100.5 Q308 105 310.5 114 Q313 123 316.5 139 Q320 155 326 180 L272 180 Q243 180 210.5 180.5 Q178 181 142 183 Q139 171 134.5 153 Q130 135 124.5 118.5 Q119 102 111.5 90 Q104 78 94 78 Q83 78 79.5 82 Q76 86 76 92 Q76 96 77 100.5 Q78 105 80.5 115 Q83 125 87.5 141.5 Q92 158 98 186 Q17 186 17 208 Q17 210 20.5 221.5 Q24 233 35 235 Q64 235 79 234 Q94 233 110 231 L137 330 Q60 330 60 352 Q60 352 60.5 356 Q61 360 62.5 365 Q64 370 67 374 Q70 378 76 379 Q105 379 120 378 Q135 377 149 376 L172 459 Q175 470 181.5 479.5 Q188 489 206 489 Q212 489 217.5 487 Q223 485 223 476 Q223 455 212.5 429.5 Q202 404 197 381 Q196 379 195 376.5 Q194 374 194 372 Q216 371 251 369.5 Q286 368 346 368 L376 368 L402 459 Q405 470 411.5 479.5 Q418 489 436 489 Q442 489 447.5 487 Q453 485 453 476 Q453 453 442 423.5 Q431 394 423 371 Q438 372 454.5 372.5 Q471 373 491 373 Q502 373 509.5 371 Q517 369 517 360 Z M314 324 Q285 324 252.5 324.5 Q220 325 182 327 Q174 300 168 276.5 Q162 253 154 228 Q177 227 212 226 Q247 225 304 224 Q312 224 320 224 Q328 224 338 225 L364 324 L314 324 Z " />
<glyph glyph-name="dollar" unicode="&#x24;" horiz-adv-x="493" d="M466 185 Q466 174 452.5 162 Q439 150 414.5 139 Q390 128 355 120 Q320 112 277 108 Q277 89 276.5 66 Q276 43 276 14 Q270 2 258 2 Q248 2 244.5 10 Q241 18 240 29 Q239 40 239.5 51.5 Q240 63 238 70 L238 106 L217 106 Q197 106 168 103.5 Q139 101 110 101 Q74 101 47 106 Q20 111 20 125 Q20 146 32.5 151.5 Q45 157 61 157 Q85 157 111.5 152.5 Q138 148 164 148 Q186 148 225.5 149.5 Q265 151 304 155.5 Q343 160 371.5 167 Q400 174 400 186 Q400 195 379.5 201 Q359 207 328 212.5 Q297 218 261 224 Q225 230 194 239 Q163 248 142.5 261 Q122 274 122 294 Q122 309 132.5 320 Q143 331 159 339.5 Q175 348 195.5 354 Q216 360 235 363 L235 411 Q235 429 239 444.5 Q243 460 258 460 Q264 460 270 455 Q276 450 276 425 Q276 412 276 404 Q276 396 275.5 390 Q275 384 274.5 379.5 Q274 375 273 368 Q281 369 287 369.5 Q293 370 298 370 Q312 370 320 367.5 Q328 365 328 354 Q328 340 316 335 Q309 332 285.5 329.5 Q262 327 237 323 Q212 319 192.5 312 Q173 305 173 294 Q173 290 186.5 284.5 Q200 279 220.5 273.5 Q241 268 265.5 263 Q290 258 312.5 253.5 Q335 249 351.5 246 Q368 243 373 242 Q407 235 426 228 Q445 221 454 214 Q463 207 464.5 199.5 Q466 192 466 185 Z " />
<glyph glyph-name="percent" unicode="&#x25;" horiz-adv-x="612" d="M572 261 Q572 233 566 203.5 Q560 174 551 149 Q542 122 527.5 89 Q513 56 494 27.5 Q475 -1 452 -20.5 Q429 -40 402 -40 Q385 -40 371 -29 Q358 -15 353 2 Q348 19 348 42 Q348 60 350 78.5 Q352 97 355 114 Q359 136 366.5 163 Q374 190 385 218 Q396 246 410 272.5 Q424 299 439.5 320 Q455 341 471.5 353.5 Q488 366 504 366 Q529 366 550.5 339 Q572 312 572 261 Z M444 557 Q444 553 443 547.5 Q442 542 440 534 L440 535 Q440 535 430.5 507 Q421 479 405.5 432 Q390 385 369.5 324 Q349 263 327.5 197.5 Q306 132 284 65.5 Q262 -1 244 -58 Q237 -64 232 -64 Q221 -64 216.5 -58 Q212 -52 212 -44 Q212 -31 217 -16 Q222 -1 223 8 L397 537 Q402 551 408.5 563.5 Q415 576 426 576 Q432 576 438 572 Q444 568 444 557 Z M295 417 Q295 389 289 359.5 Q283 330 274 305 Q265 278 250.5 245 Q236 212 217 183.5 Q198 155 175 135.5 Q152 116 125 116 Q108 116 94 127 Q81 141 76 158 Q71 175 71 198 Q71 216 73 234.5 Q75 253 78 270 Q82 292 89.5 319 Q97 346 108 374 Q119 402 133 428.5 Q147 455 162.5 476 Q178 497 194.5 509.5 Q211 522 227 522 Q252 522 273.5 495 Q295 468 295 417 Z M540 262 Q540 295 528.5 311 Q517 327 506 327 Q494 327 483.5 313 Q473 299 465 282.5 Q457 266 451.5 251.5 Q446 237 443 236 L430 235 Q429 235 421.5 216 Q414 197 405.5 170 Q397 143 390 112.5 Q383 82 383 57 Q383 40 387 28 Q391 16 399 11 Q406 6 413 6 Q433 6 455.5 33.5 Q478 61 496.5 100.5 Q515 140 527.5 184.5 Q540 229 540 262 Z M263 418 Q263 451 251.5 467 Q240 483 229 483 Q217 483 206.5 469 Q196 455 188 438.5 Q180 422 174.5 407.5 Q169 393 166 392 L153 391 Q152 391 144.5 372 Q137 353 128.5 326 Q120 299 113 268.5 Q106 238 106 213 Q106 196 110 184 Q114 172 122 167 Q129 162 136 162 Q156 162 178.5 189.5 Q201 217 219.5 256.5 Q238 296 250.5 340.5 Q263 385 263 418 Z " />
<glyph glyph-name="ampersand" unicode="&#x26;" horiz-adv-x="671" d="M806 623 Q806 609 783.5 592 Q761 575 726.5 558 Q692 541 651.5 525 Q611 509 575 496.5 Q539 484 513.5 476.5 Q488 469 483 469 Q473 469 464.5 473 Q456 477 456 488 L468 532 Q467 535 462 535 Q450 535 417 525 Q384 515 341.5 498.5 Q299 482 252.5 460.5 Q206 439 167.5 416.5 Q129 394 104 371.5 Q79 349 79 330 Q79 318 97 309.5 Q115 301 142 295 Q169 289 201.5 285.5 Q234 282 262.5 280 Q291 278 311.5 277.5 Q332 277 336 277 Q396 277 452.5 286 Q509 295 568 309 Q568 313 568.5 316.5 Q569 320 570 325 Q571 337 573 352 Q575 367 579 380.5 Q583 394 589.5 403 Q596 412 607 412 Q625 412 625 389 Q625 385 623 361.5 Q621 338 618 302.5 Q615 267 610.5 223 Q606 179 601 133.5 Q596 88 591.5 45.5 Q587 3 582 -29 Q579 -49 577 -70.5 Q575 -92 572.5 -109 Q570 -126 566 -137 Q562 -148 556 -148 Q541 -148 537 -128 Q533 -108 533 -85 Q533 -68 534 -53.5 Q535 -39 537 -36 L429 -36 Q387 -36 344 -32.5 Q301 -29 267 -18.5 Q233 -8 211.5 12.5 Q190 33 190 66 Q190 96 203.5 118.5 Q217 141 237.5 160.5 Q258 180 280.5 197.5 Q303 215 321 233 Q315 236 301.5 237 Q288 238 274 238 Q261 240 237.5 241 Q214 242 187 245 Q160 248 132.5 253.5 Q105 259 82.5 269 Q60 279 45.5 293.5 Q31 308 31 330 Q31 361 57.5 391 Q84 421 128.5 449.5 Q173 478 231 504.5 Q289 531 352 553.5 Q415 576 479 595 Q543 614 599 627 Q655 640 698.5 647.5 Q742 655 765 655 Q778 655 792 647 Q806 639 806 623 Z M563 266 Q561 265 558 265 Q525 258 490.5 249.5 Q456 241 423 230 Q390 219 361 204 Q332 189 310 169 Q300 160 286.5 148.5 Q273 137 262 124 Q251 111 243 96 Q235 81 235 65 Q235 32 302 20 Q369 8 516 8 L537 8 Q542 68 548.5 130 Q555 192 563 266 Z " />
<glyph glyph-name="quotesingle" unicode="&#x27;" horiz-adv-x="92" d="M105 514 Q105 510 103.5 499.5 Q102 489 99.5 476.5 Q97 464 95 450.5 Q93 437 92 426 Q90 399 88.5 383.5 Q87 368 84.5 360 Q82 352 76 350 Q70 348 59 348 Q50 348 46.5 357.5 Q43 367 43 381 Q43 397 45.5 415 Q48 433 50 450 Q52 462 53.5 477 Q55 492 59 505.5 Q63 519 69.5 528 Q76 537 87 537 Q105 537 105 514 Z " />
<glyph glyph-name="parenleft" unicode="&#x28;" horiz-adv-x="186" d="M502 745 Q502 739 472.5 723.5 Q443 708 399 681 Q355 654 303 615 Q251 576 207 524 Q163 472 133.5 405.5 Q104 339 104 257 Q104 162 125.5 84 Q147 6 180 -55 Q213 -116 250.5 -161 Q288 -206 321 -236.5 Q354 -267 375.5 -283.5 Q397 -300 397 -303 Q397 -317 392.5 -323 Q388 -329 374 -329 Q359 -329 330 -310 Q301 -291 265.5 -254.5 Q230 -218 193 -166 Q156 -114 126 -48 Q96 18 76.5 96.5 Q57 175 57 264 Q57 343 82.5 411 Q108 479 148 535 Q188 591 237 635 Q286 679 332 709 Q378 739 416 754.5 Q454 770 473 770 Q484 770 493 763 Q502 756 502 745 Z " />
<glyph glyph-name="parenright" unicode="&#x29;" horiz-adv-x="298" d="M278 304 Q278 215 254.5 133.5 Q231 52 194 -18.5 Q157 -89 112.5 -146 Q68 -203 26.5 -244 Q-15 -285 -48.5 -307 Q-82 -329 -97 -329 Q-111 -329 -114 -322.5 Q-117 -316 -117 -303 Q-20 -235 57 -144 Q90 -105 121 -58 Q152 -11 176 44 Q200 99 215 161.5 Q230 224 230 293 Q230 369 205.5 430.5 Q181 492 143.5 540.5 Q106 589 62 625.5 Q18 662 -21.5 687 Q-61 712 -90 726 Q-119 740 -125 745 Q-127 746 -127 749 Q-127 756 -114.5 763 Q-102 770 -93 770 Q-78 770 -44 755.5 Q-10 741 31 713.5 Q72 686 116 645.5 Q160 605 196 553.5 Q232 502 255 439.5 Q278 377 278 304 Z " />
<glyph glyph-name="asterisk" unicode="&#x2a;" horiz-adv-x="438" d="M400 541 Q400 534 396 527 Q392 520 385 518 L276 518 L354 440 Q357 437 357 433 Q357 420 348 412.5 Q339 405 329 405 Q327 405 321 407 L240 487 L234 374 Q233 366 224 363 Q215 360 210 360 Q203 361 196 365 Q189 369 187 377 L193 484 L112 412 Q109 409 105 409 Q93 409 86 418.5 Q79 428 79 438 Q79 441 81 447 L160 518 L54 518 Q47 520 43 527 Q39 534 39 541 Q39 547 42.5 556 Q46 565 54 565 L162 565 L87 641 Q85 647 85 650 Q85 661 92 668 Q95 671 100.5 674 Q106 677 112 677 Q118 677 120 674 L200 595 L207 707 Q209 714 216 717.5 Q223 721 230 721 Q236 720 245.5 716 Q255 712 254 704 L247 595 L329 667 Q333 669 336 669 Q346 669 354.5 661 Q363 653 363 640 Q363 636 360 631 L284 565 L385 565 Q393 565 396.5 556 Q400 547 400 541 Z " />
<glyph glyph-name="plus" unicode="&#x2b;" horiz-adv-x="438" d="M400 178 Q400 171 396 164 Q392 157 385 155 L242 155 L234 11 Q233 3 224 0 Q215 -3 210 -3 Q203 -2 196 2 Q189 6 187 14 L195 155 L54 155 Q47 157 43 164 Q39 171 39 178 Q39 184 42.5 193 Q46 202 54 202 L198 202 L207 344 Q209 351 216 354.5 Q223 358 230 358 Q236 357 245.5 353 Q255 349 254 341 L245 202 L385 202 Q393 202 396.5 193 Q400 184 400 178 Z " />
<glyph glyph-name="comma" unicode="&#x2c;" horiz-adv-x="233" d="M210 46 Q210 43 209.5 39 Q209 35 208 30 Q207 20 201 -4 Q195 -28 186.5 -52.5 Q178 -77 166.5 -96 Q155 -115 141 -115 Q123 -115 123 -97 Q123 -95 123.5 -93 Q124 -91 124 -89 Q125 -85 128 -75 Q131 -65 135.5 -53 Q140 -41 144.5 -28.5 Q149 -16 152 -5 Q164 39 169 53 Q174 67 187 67 Q198 67 204 63.5 Q210 60 210 46 Z " />
<glyph glyph-name="hyphen" unicode="&#x2d;" horiz-adv-x="335" d="M309 118 Q309 111 305 104 Q301 97 294 95 L43 95 Q36 97 32 104 Q28 111 28 118 Q28 124 31.5 133 Q35 142 43 142 L294 142 Q302 142 305.5 133 Q309 124 309 118 Z " />
<glyph glyph-name="period" unicode="&#x2e;" horiz-adv-x="269" d="M215 54 Q215 45 212 34.5 Q209 24 203 14.5 Q197 5 189 -1 Q181 -7 171 -7 Q148 -7 148 15 Q148 24 151.5 35 Q155 46 161 55 Q167 64 175.5 70.5 Q184 77 194 77 Q206 77 210.5 71 Q215 65 215 54 Z " />
<glyph glyph-name="slash" unicode="&#x2f;" horiz-adv-x="306" d="M292 723 Q292 713 288 701 L288 702 Q288 702 275.5 664 Q263 626 243.5 564 Q224 502 199.5 423.5 Q175 345 149 263 Q123 181 98.5 103.5 Q74 26 56 -34 Q49 -41 40 -41 Q30 -41 23.5 -34.5 Q17 -28 17 -19 Q17 -7 22 8 Q27 23 28 32 L239 700 Q244 717 251 729.5 Q258 742 272 742 Q279 742 285.5 738 Q292 734 292 723 Z " />
<glyph glyph-name="zero" unicode="0" horiz-adv-x="846" d="M805 326 Q805 275 777 232.5 Q749 190 706.5 156 Q664 122 614 96.5 Q564 71 519 55 Q444 28 366.5 10 Q289 -8 209 -8 Q182 -8 151.5 -2.5 Q121 3 94.5 16 Q68 29 51 51 Q34 73 34 106 Q34 136 51.5 163.5 Q69 191 96.5 215.5 Q124 240 158.5 262 Q193 284 226 303 Q269 328 322.5 350.5 Q376 373 433.5 389.5 Q491 406 548.5 416 Q606 426 657 426 Q682 426 708.5 423 Q735 420 756.5 409.5 Q778 399 791.5 379 Q805 359 805 326 Z M759 309 Q759 332 754.5 344.5 Q750 357 741 363 Q732 369 718.5 370.5 Q705 372 688 372 Q671 372 651 371 Q631 370 611.5 366.5 Q592 363 573.5 356.5 Q555 350 540 339 Q532 334 524 334 Q516 334 512.5 337.5 Q509 341 506 345.5 Q503 350 499 353.5 Q495 357 486 357 Q469 357 454.5 351 Q440 345 423 339 Q401 332 366.5 318.5 Q332 305 294.5 287 Q257 269 219 247.5 Q181 226 150.5 202 Q120 178 101 152.5 Q82 127 82 101 Q82 68 117 55 Q152 42 203 42 Q241 42 282.5 47 Q324 52 362 59.5 Q400 67 430.5 75 Q461 83 477 88 Q512 100 560 124.5 Q608 149 652.5 179.5 Q697 210 728 244 Q759 278 759 309 Z " />
<glyph glyph-name="one" unicode="1" horiz-adv-x="328" d="M279 370 Q277 327 274 283.5 Q271 240 268.5 191.5 Q266 143 264.5 87.5 Q263 32 263 -34 Q263 -42 254 -45.5 Q245 -49 239 -49 Q211 -49 211 -18 Q211 30 212.5 80 Q214 130 217 179 Q218 195 220.5 215 Q223 235 225.5 256.5 Q228 278 230 300 Q232 322 232 342 Q232 358 218 358 Q207 358 191 350 Q175 342 166 337 Q155 331 137 322.5 Q119 314 100 305.5 Q81 297 63.5 291.5 Q46 286 35 286 Q26 286 18 288 Q10 290 10 303 Q10 311 18 317.5 Q26 324 37 329.5 Q48 335 60.5 340 Q73 345 82 349 Q97 357 120 368.5 Q143 380 168 391 Q193 402 216.5 410 Q240 418 256 418 Q265 418 269.5 413 Q274 408 276.5 400.5 Q279 393 279 384.5 Q279 376 279 370 Z " />
<glyph glyph-name="two" unicode="2" horiz-adv-x="710" d="M668 -12 Q668 -26 639 -35.5 Q610 -45 563.5 -50 Q517 -55 458 -57 Q399 -59 339 -59 Q288 -59 240 -58 Q192 -57 153 -55.5 Q114 -54 87 -52.5 Q60 -51 51 -51 Q44 -51 38.5 -45.5 Q33 -40 33 -32 Q33 -21 46 -11 Q59 -1 77 7 Q95 15 115 22.5 Q135 30 150 36 Q227 69 302.5 106.5 Q378 144 452 183 Q460 187 477.5 197 Q495 207 512.5 220.5 Q530 234 543.5 251 Q557 268 557 286 Q557 302 545 310.5 Q533 319 516.5 323 Q500 327 483 328 Q466 329 457 329 Q408 329 359.5 315.5 Q311 302 267 284 Q256 280 239 271 Q222 262 204.5 253 Q187 244 173 237 Q159 230 154 230 Q152 230 143.5 233.5 Q135 237 135 248 Q135 254 140 262.5 Q145 271 162 281 Q233 324 311 347.5 Q389 371 473 371 Q493 371 516.5 367 Q540 363 559.5 353.5 Q579 344 592 327.5 Q605 311 605 286 Q605 261 587 236 Q569 211 540.5 188.5 Q512 166 477 145.5 Q442 125 407.5 108 Q373 91 343.5 78 Q314 65 296 57 Q287 53 267.5 43 Q248 33 228.5 22.5 Q209 12 194.5 3.5 Q180 -5 180 -6 Q180 -7 186.5 -8 Q193 -9 223 -10 Q253 -11 314.5 -11.5 Q376 -12 485 -12 Q514 -12 543.5 -9.5 Q573 -7 602 0 Q612 2 621.5 5.5 Q631 9 642 9 Q653 9 660.5 4 Q668 -1 668 -12 Z " />
<glyph glyph-name="three" unicode="3" horiz-adv-x="635" d="M640 338 Q639 330 637.5 321.5 Q636 313 631 305 Q625 295 606 283.5 Q587 272 561.5 260.5 Q536 249 508 238 Q480 227 457 219 Q434 211 418.5 206 Q403 201 403 201 Q403 199 416.5 193.5 Q430 188 450 178.5 Q470 169 493 156 Q516 143 536 127.5 Q556 112 569.5 93.5 Q583 75 583 54 Q583 21 558 0.5 Q533 -20 499 -30.5 Q465 -41 429.5 -44.5 Q394 -48 373 -48 Q344 -48 315 -47 Q286 -46 257 -42 Q247 -41 225.5 -35.5 Q204 -30 178 -22.5 Q152 -15 124.5 -5.5 Q97 4 74.5 15 Q52 26 37.5 37.5 Q23 49 23 61 Q23 72 30.5 76.5 Q38 81 47 81 Q51 81 61 75.5 Q71 70 83.5 62.5 Q96 55 109.5 47.5 Q123 40 134 36 Q172 24 203.5 16 Q235 8 264.5 4 Q294 0 324.5 -1.5 Q355 -3 390 -3 Q403 -3 426.5 -1.5 Q450 0 473.5 6 Q497 12 514.5 24.5 Q532 37 532 58 Q532 75 510.5 92.5 Q489 110 459.5 125 Q430 140 400.5 151 Q371 162 355 165 Q347 167 334 168 Q321 169 308 172 Q295 175 286 181 Q277 187 277 198 Q277 211 291.5 218.5 Q306 226 326.5 231 Q347 236 369 239 Q391 242 406 246 Q413 248 438.5 257.5 Q464 267 492 279 Q520 291 542.5 303 Q565 315 565 323 Q565 326 544.5 328 Q524 330 493.5 331 Q463 332 428.5 332.5 Q394 333 367 333 Q327 333 287.5 327.5 Q248 322 215.5 316 Q183 310 161 304.5 Q139 299 134 299 Q123 299 116.5 306.5 Q110 314 110 325 Q110 333 128.5 339.5 Q147 346 170 351.5 Q193 357 215.5 360.5 Q238 364 245 365 Q284 370 325.5 372.5 Q367 375 403 376.5 Q439 378 467.5 378 Q496 378 510 378 Q515 378 536 377 Q557 376 580 372.5 Q603 369 621.5 361 Q640 353 640 338 Z " />
<glyph glyph-name="four" unicode="4" horiz-adv-x="692" d="M660 135 Q660 128 656 121.5 Q652 115 645 114 Q629 113 602.5 112.5 Q576 112 551 112 Q526 112 507.5 111.5 Q489 111 489 110 L489 -8 Q489 -26 480 -29.5 Q471 -33 466 -33 Q457 -33 449 -26.5 Q441 -20 441 -9 L443 109 L91 109 Q61 109 38.5 111.5 Q16 114 16 130 Q16 141 27.5 150.5 Q39 160 54.5 168 Q70 176 85.5 182 Q101 188 109 192 Q192 231 256 268 Q320 305 366.5 333 Q413 361 442 378 Q471 395 483 395 Q494 395 500.5 387 Q507 379 507 368 Q507 323 499 267.5 Q491 212 491 159 L627 159 Q641 159 650.5 154 Q660 149 660 135 Z M453 311 Q453 324 447 324 Q446 324 424.5 312.5 Q403 301 370.5 283 Q338 265 300.5 244 Q263 223 231.5 205 Q200 187 178.5 174 Q157 161 157 160 Q158 155 167 154 Q176 153 178 153 Q222 153 257 153.5 Q292 154 323.5 154.5 Q355 155 384 155.5 Q413 156 443 156 Q444 201 448.5 238.5 Q453 276 453 311 Z " />
<glyph glyph-name="five" unicode="5" horiz-adv-x="723" d="M688 381 Q688 366 665.5 358 Q643 350 613.5 347 Q584 344 556.5 344 Q529 344 519 344 Q441 342 392.5 344 Q344 346 318 346 Q282 346 282 341 Q282 318 285 296 Q288 274 291 251 Q292 244 307.5 239.5 Q323 235 344.5 231.5 Q366 228 390 225 Q414 222 432 218 Q452 214 487.5 208 Q523 202 558 190.5 Q593 179 619 160 Q645 141 645 112 Q645 87 622.5 66.5 Q600 46 562.5 29.5 Q525 13 477 1.5 Q429 -10 379 -18 Q329 -26 280.5 -29.5 Q232 -33 194 -33 Q173 -33 145 -31 Q117 -29 91.5 -24 Q66 -19 48.5 -10 Q31 -1 31 13 Q31 33 52 45 Q73 57 105 63 Q137 69 174 71 Q211 73 244 73 Q253 73 266 72.5 Q279 72 290.5 70.5 Q302 69 310 65.5 Q318 62 318 56 Q318 46 315 41 Q312 36 306 34.5 Q300 33 291 33 Q282 33 271 33 Q226 32 193.5 28 Q161 24 160 18 Q160 13 172 10 Q184 7 204 7 Q239 7 281.5 11.5 Q324 16 367.5 23.5 Q411 31 451.5 41 Q492 51 524 62.5 Q556 74 575 87 Q594 100 594 112 Q594 125 572 136.5 Q550 148 516.5 157.5 Q483 167 443 175 Q403 183 367 189 Q331 195 304.5 199 Q278 203 271 204 Q259 208 251.5 232.5 Q244 257 239.5 285.5 Q235 314 233.5 338 Q232 362 232 365 Q232 380 241 386 Q250 392 262 392 Q311 392 361 387.5 Q411 383 462 383 Q510 383 539.5 386 Q569 389 588.5 392 Q608 395 623 398 Q638 401 658 401 Q667 401 677.5 397.5 Q688 394 688 381 Z " />
<glyph glyph-name="six" unicode="6" horiz-adv-x="790" d="M763 473 Q762 463 751.5 458.5 Q741 454 726 452 Q711 450 695 449.5 Q679 449 667 447 Q598 435 520 412.5 Q442 390 370 358 Q298 326 239 286 Q180 246 150 199 Q231 241 318 263.5 Q405 286 494 286 Q511 286 540.5 284 Q570 282 599 272 Q628 262 649.5 242.5 Q671 223 671 188 Q671 156 648.5 128.5 Q626 101 590 78.5 Q554 56 509.5 38.5 Q465 21 420.5 8.5 Q376 -4 337.5 -11.5 Q299 -19 274 -21 Q273 -21 254.5 -22.5 Q236 -24 208 -24 Q178 -24 145 -21 Q112 -18 85 -8 Q58 2 41 20 Q24 38 26 69 Q30 135 68.5 192.5 Q107 250 167.5 298 Q228 346 303 383.5 Q378 421 454.5 447 Q531 473 601.5 486.5 Q672 500 723 500 Q740 500 751.5 495 Q763 490 763 473 Z M620 182 Q620 202 607.5 213 Q595 224 578 229.5 Q561 235 544 236.5 Q527 238 518 238 Q482 238 436 232 Q390 226 341.5 215.5 Q293 205 247 189 Q201 173 164 153.5 Q127 134 104.5 110.5 Q82 87 80 60 Q79 50 87.5 42 Q96 34 111 29.5 Q126 25 146.5 22.5 Q167 20 191 20 Q223 20 267 25.5 Q311 31 358.5 40.5 Q406 50 453 64.5 Q500 79 537 97 Q574 115 597 136.5 Q620 158 620 182 Z " />
<glyph glyph-name="seven" unicode="7" horiz-adv-x="609" d="M587 394 Q587 385 566 362 Q545 339 516 310.5 Q487 282 456.5 252.5 Q426 223 407 202 Q391 185 379 171 Q368 159 359.5 149.5 Q351 140 351 139 L400 139 Q422 139 450.5 138.5 Q479 138 509 138 Q517 138 520.5 129 Q524 120 524 114 Q524 100 509 95 Q461 97 415 97 Q369 97 321 97 Q318 97 310 89 Q302 81 292.5 69.5 Q283 58 273.5 46 Q264 34 258 26 Q253 20 236.5 -1 Q220 -22 200.5 -44.5 Q181 -67 164 -85 Q147 -103 141 -103 Q130 -103 123.5 -98 Q117 -93 117 -82 Q117 -74 126.5 -60 Q136 -46 150 -29 Q164 -12 180 6 Q196 24 210 40.5 Q224 57 233.5 69 Q243 81 243 86 L243 125 Q243 133 250.5 135.5 Q258 138 267 138.5 Q276 139 284 139 Q292 139 293 141 Q308 158 329 180.5 Q350 203 373 227 Q396 251 418 274.5 Q440 298 458 317.5 Q476 337 487 350.5 Q498 364 498 367 Q498 370 476 371.5 Q454 373 418.5 374 Q383 375 340 375.5 Q297 376 254.5 376.5 Q212 377 175.5 377 Q139 377 117 377 Q105 377 99.5 369.5 Q94 362 90 352.5 Q86 343 80 335.5 Q74 328 60 328 Q52 328 47 334 Q42 340 42 348 Q42 358 47 368.5 Q52 379 57 388 Q69 411 90 416 Q111 421 134 421 Q244 421 353.5 419 Q463 417 572 415 Q587 410 587 394 Z " />
<glyph glyph-name="eight" unicode="8" horiz-adv-x="737" d="M695 354 Q695 333 683.5 315.5 Q672 298 654.5 285 Q637 272 617 262 Q597 252 579.5 245.5 Q562 239 550.5 235.5 Q539 232 539 230 Q539 227 560.5 219 Q582 211 608 197.5 Q634 184 655.5 165.5 Q677 147 677 123 Q677 102 659 84 Q641 66 610 51 Q579 36 538 24.5 Q497 13 452 5.5 Q407 -2 359.5 -6 Q312 -10 269 -10 Q221 -10 177.5 -7.5 Q134 -5 101 3 Q68 11 49 27.5 Q30 44 30 71 Q30 95 51 116 Q72 137 103 154 Q134 171 170.5 184 Q207 197 238 206.5 Q269 216 290 221.5 Q311 227 311 228 Q311 230 293.5 236.5 Q276 243 254.5 254.5 Q233 266 215.5 281 Q198 296 198 315 Q198 341 223 359.5 Q248 378 283 391 Q318 404 357.5 413.5 Q397 423 425 430 Q439 434 458.5 439 Q478 444 497.5 448.5 Q517 453 533.5 456.5 Q550 460 558 460 Q570 460 574 455.5 Q578 451 579.5 445.5 Q581 440 582.5 434.5 Q584 429 590 427 Q602 423 620 417.5 Q638 412 654.5 404 Q671 396 683 384 Q695 372 695 354 Z M644 351 Q644 359 633 365 Q622 371 606 375 Q590 379 572 380.5 Q554 382 540 382 Q513 382 485 377.5 Q457 373 428 373 Q425 373 423.5 374 Q422 375 420 376 Q418 377 414.5 378 Q411 379 404 379 Q388 379 361.5 371.5 Q335 364 310 354 Q285 344 267 333 Q249 322 249 315 Q249 307 260.5 299.5 Q272 292 289 285 Q306 278 327 272 Q348 266 367 262 Q386 258 400.5 255.5 Q415 253 419 253 Q427 253 447 256.5 Q467 260 492 266.5 Q517 273 544 282.5 Q571 292 593 302.5 Q615 313 629.5 325.5 Q644 338 644 351 Z M629 123 Q629 135 614 145.5 Q599 156 576 165 Q553 174 526.5 181 Q500 188 477.5 193 Q455 198 439.5 200.5 Q424 203 424 203 Q423 203 402 199 Q381 195 348 187.5 Q315 180 272 168 Q229 156 183 141 Q170 137 152 130.5 Q134 124 118.5 115 Q103 106 92 95 Q81 84 81 69 Q81 56 101 49 Q121 42 146.5 39 Q172 36 194.5 35.5 Q217 35 222 35 Q285 35 356.5 41.5 Q428 48 488.5 59.5 Q549 71 589 87 Q629 103 629 123 Z " />
<glyph glyph-name="nine" unicode="9" horiz-adv-x="737" d="M704 343 Q704 275 667 213 Q630 151 571 97.5 Q512 44 437.5 0.5 Q363 -43 287.5 -74 Q212 -105 142.5 -122.5 Q73 -140 25 -141 Q15 -141 7.5 -134.5 Q0 -128 0 -117 Q0 -101 12 -99 Q32 -95 52.5 -92 Q73 -89 93 -84 Q161 -68 237 -39 Q313 -10 382.5 27.5 Q452 65 507.5 110 Q563 155 590 203 Q501 149 403.5 119 Q306 89 205 89 Q184 89 160 93.5 Q136 98 115.5 108.5 Q95 119 82 137 Q69 155 69 182 Q69 214 90.5 242 Q112 270 146.5 294 Q181 318 223.5 338 Q266 358 308.5 373.5 Q351 389 388.5 399 Q426 409 449 413 Q450 413 459.5 414.5 Q469 416 485 418 Q501 420 521 421.5 Q541 423 562 423 Q588 423 613 419.5 Q638 416 658.5 407 Q679 398 691.5 382.5 Q704 367 704 343 Z M649 347 Q649 366 624 373 Q599 380 563 380 Q542 380 519 377.5 Q496 375 475 371 Q454 367 436.5 363 Q419 359 407 356 Q391 352 363 343.5 Q335 335 303 322.5 Q271 310 238.5 294.5 Q206 279 179.5 261.5 Q153 244 136.5 224 Q120 204 120 184 Q120 168 129.5 158.5 Q139 149 152.5 144 Q166 139 181.5 137.5 Q197 136 208 136 Q242 136 288 144 Q334 152 383 166.5 Q432 181 480 200.5 Q528 220 565.5 243.5 Q603 267 626 293.5 Q649 320 649 347 Z " />
<glyph glyph-name="colon" unicode="&#x3a;" horiz-adv-x="244" d="M263 274 Q263 265 260 254.5 Q257 244 251 234.5 Q245 225 237 219 Q229 213 219 213 Q196 213 196 235 Q196 244 199.5 255 Q203 266 209 275 Q215 284 223.5 290.5 Q232 297 241 297 Q254 297 258.5 291 Q263 285 263 274 Z M215 54 Q215 45 212 34.5 Q209 24 203 14.5 Q197 5 189 -1 Q181 -7 171 -7 Q148 -7 148 15 Q148 24 151.5 35 Q155 46 161 55 Q167 64 175.5 70.5 Q184 77 194 77 Q206 77 210.5 71 Q215 65 215 54 Z " />
<glyph glyph-name="semicolon" unicode="&#x3b;" horiz-adv-x="244" d="M263 274 Q263 265 260 254.5 Q257 244 251 234.5 Q245 225 237 219 Q229 213 219 213 Q196 213 196 235 Q196 244 199.5 255 Q203 266 209 275 Q215 284 223.5 290.5 Q232 297 241 297 Q254 297 258.5 291 Q263 285 263 274 Z M207 46 Q207 43 206.5 39 Q206 35 205 30 Q204 20 198 -4 Q192 -28 183.5 -52.5 Q175 -77 163.5 -96 Q152 -115 138 -115 Q120 -115 120 -97 Q120 -95 120.5 -93 Q121 -91 121 -89 Q122 -85 125 -75 Q128 -65 132.5 -53 Q137 -41 141.5 -28.5 Q146 -16 149 -5 Q161 39 166 53 Q171 67 184 67 Q195 67 201 63.5 Q207 60 207 46 Z " />
<glyph glyph-name="less" unicode="&#x3c;" horiz-adv-x="332" d="M303 330 Q303 316 286 292 Q271 271 249 252.5 Q227 234 203 218 Q179 202 154.5 187.5 Q130 173 110 160 Q110 159 132 149 Q154 139 180 127 Q206 115 228 102.5 Q250 90 250 84 Q250 64 225 64 Q205 64 181 75 Q157 86 139 94 Q123 101 99.5 115.5 Q76 130 60 135 Q49 140 41.5 146 Q34 152 34 159 Q34 165 41.5 172 Q49 179 67 187 Q68 187 79.5 192.5 Q91 198 108 207.5 Q125 217 145.5 229.5 Q166 242 185.5 255.5 Q205 269 220.5 282 Q236 295 244 307 Q255 324 269 332.5 Q283 341 292 341 Q303 341 303 330 Z " />
<glyph glyph-name="equal" unicode="&#x3d;" horiz-adv-x="438" d="M400 238 Q400 231 396 224 Q392 217 385 215 L54 215 Q47 217 43 224 Q39 231 39 238 Q39 244 42.5 253 Q46 262 54 262 L385 262 Q393 262 396.5 253 Q400 244 400 238 Z M389 118 Q389 111 385 104 Q381 97 374 95 L43 95 Q36 97 32 104 Q28 111 28 118 Q28 124 31.5 133 Q35 142 43 142 L374 142 Q382 142 385.5 133 Q389 124 389 118 Z " />
<glyph glyph-name="greater" unicode="&#x3e;" horiz-adv-x="313" d="M302 245 Q302 239 294.5 232 Q287 225 269 217 Q268 217 244 204.5 Q220 192 190 174 Q160 156 131.5 135 Q103 114 92 97 Q81 80 67 71.5 Q53 63 44 63 Q33 63 33 74 Q33 88 50 112 Q65 133 87 151.5 Q109 170 133 186 Q157 202 181.5 216.5 Q206 231 226 244 Q226 246 204 255.5 Q182 265 156 277 Q130 289 108 301.5 Q86 314 86 320 Q86 340 111 340 Q131 340 155 329 Q179 318 197 310 Q213 303 236.5 288.5 Q260 274 276 269 Q287 264 294.5 258 Q302 252 302 245 Z " />
<glyph glyph-name="question" unicode="&#x3f;" horiz-adv-x="669" d="M645 396 Q645 367 619 348 Q593 329 558 317.5 Q523 306 487.5 300 Q452 294 432 290 Q414 286 390 283 Q366 280 344.5 276.5 Q323 273 307.5 268.5 Q292 264 291 257 Q288 234 285.5 212 Q283 190 282 167 Q281 144 279.5 130 Q278 116 262 116 Q250 116 241 122 Q232 128 232 143 Q232 146 233.5 170 Q235 194 239.5 222.5 Q244 251 251.5 275.5 Q259 300 271 304 Q278 305 304.5 309 Q331 313 367 319 Q403 325 443 333 Q483 341 516.5 350.5 Q550 360 572 371.5 Q594 383 594 396 Q594 409 575 421.5 Q556 434 524 445.5 Q492 457 451.5 467 Q411 477 367.5 484.5 Q324 492 281.5 496.5 Q239 501 204 501 Q184 501 172 498 Q160 495 160 490 Q161 484 193.5 480 Q226 476 271 475 Q282 475 291 475 Q300 475 306 473.5 Q312 472 315 467 Q318 462 318 452 Q318 446 310 442.5 Q302 439 290.5 437.5 Q279 436 266 435.5 Q253 435 244 435 Q211 435 174 437 Q137 439 105 445 Q73 451 52 463 Q31 475 31 495 Q31 509 48.5 518 Q66 527 91.5 532 Q117 537 145 539 Q173 541 194 541 Q233 541 281 537.5 Q329 534 379 526 Q429 518 477 506.5 Q525 495 562.5 478.5 Q600 462 622.5 441.5 Q645 421 645 396 Z M274 54 Q274 45 271 34.5 Q268 24 262 14.5 Q256 5 248 -1 Q240 -7 230 -7 Q207 -7 207 15 Q207 24 210.5 35 Q214 46 220 55 Q226 64 234.5 70.5 Q243 77 253 77 Q265 77 269.5 71 Q274 65 274 54 Z " />
<glyph glyph-name="at" unicode="&#x40;" horiz-adv-x="1003" d="M969 205 Q969 153 950.5 113.5 Q932 74 903 45 Q874 16 839 -3.5 Q804 -23 771 -35 Q738 -47 711.5 -52 Q685 -57 673 -57 Q636 -57 610 -42 Q584 -27 565.5 -9 Q547 9 534 24 Q521 39 508 39 Q501 39 490 35.5 Q479 32 467 27 Q455 22 443.5 17 Q432 12 424 9 Q364 -11 305 -17.5 Q246 -24 179 -24 Q166 -24 141.5 -21.5 Q117 -19 92.5 -12 Q68 -5 50 6 Q32 17 32 34 Q32 48 34 56 Q36 64 50 72 Q86 92 133.5 110.5 Q181 129 234 145 Q287 161 343.5 173.5 Q400 186 452.5 195.5 Q505 205 551 210 Q597 215 631 215 Q638 215 645.5 214.5 Q653 214 659 212 Q665 210 669 204.5 Q673 199 673 190 Q673 180 659 172 Q645 164 623 157 Q601 150 575 145 Q549 140 525 136.5 Q501 133 482.5 131 Q464 129 457 129 Q445 129 436.5 133.5 Q428 138 414 138 Q404 138 376.5 132.5 Q349 127 313.5 118 Q278 109 239.5 98 Q201 87 169 76 Q137 65 116 55.5 Q95 46 95 40 Q95 32 111.5 27 Q128 22 148.5 19.5 Q169 17 187.5 16 Q206 15 209 15 Q268 15 319 23 Q370 31 424 51 Q446 59 469 71.5 Q492 84 516 84 Q534 84 550 68 Q566 52 583.5 33 Q601 14 622.5 -2 Q644 -18 673 -18 Q707 -18 750.5 -3 Q794 12 832.5 40.5 Q871 69 897.5 109 Q924 149 924 200 Q924 250 893 287 Q862 324 809.5 348.5 Q757 373 687.5 385.5 Q618 398 541 398 Q479 398 412.5 388.5 Q346 379 282.5 365 Q219 351 162 335 Q105 319 62 305 Q57 305 54.5 310.5 Q52 316 52 322 Q52 329 56 336.5 Q60 344 69 348 Q117 369 174 386.5 Q231 404 293 416.5 Q355 429 419.5 435.5 Q484 442 547 442 Q631 442 707.5 428 Q784 414 842 384.5 Q900 355 934.5 310.5 Q969 266 969 205 Z " />
<glyph glyph-name="A" unicode="A" horiz-adv-x="1277" d="M1278 43 Q1278 25 1272.5 10 Q1267 -5 1247 -5 Q1232 -5 1229 4.5 Q1226 14 1226 28 Q1226 44 1226.5 58 Q1227 72 1227.5 88 Q1228 104 1228.5 124 Q1229 144 1229 171 Q1229 174 1217.5 185 Q1206 196 1179 207.5 Q1152 219 1109 228.5 Q1066 238 1003 238 Q984 238 935 236.5 Q886 235 823.5 232 Q761 229 691.5 225 Q622 221 561.5 215 Q501 209 456.5 202 Q412 195 399 186 Q349 154 303 115 Q257 76 211 37 Q196 24 174.5 2.5 Q153 -19 130 -40 Q107 -61 85 -76.5 Q63 -92 46 -92 Q38 -92 30 -87.5 Q22 -83 22 -73 Q22 -55 38 -26 Q54 3 76 33 Q98 63 121 90 Q144 117 157 130 Q175 149 202.5 169 Q230 189 261 205.5 Q292 222 324 232.5 Q356 243 383 243 Q385 243 412.5 259 Q440 275 486 302 Q532 329 591.5 363 Q651 397 716.5 432 Q782 467 849 501 Q916 535 977 562 Q1038 589 1088 605 Q1138 621 1170 621 Q1209 621 1229.5 605 Q1250 589 1260 564.5 Q1270 540 1271.5 511.5 Q1273 483 1273 457 Q1273 434 1273.5 399 Q1274 364 1274.5 323.5 Q1275 283 1275.5 240 Q1276 197 1276.5 158.5 Q1277 120 1277.5 89.5 Q1278 59 1278 43 Z M1230 462 Q1230 481 1228.5 501.5 Q1227 522 1221 539.5 Q1215 557 1202.5 568 Q1190 579 1167 579 Q1149 579 1126.5 573.5 Q1104 568 1080 560 Q1056 552 1032.5 541.5 Q1009 531 989 522 Q983 519 958.5 506.5 Q934 494 898 475 Q862 456 819 433 Q776 410 731.5 386 Q687 362 645 339 Q603 316 570.5 298 Q538 280 518.5 268 Q499 256 499 254 Q624 262 745.5 272 Q867 282 992 282 Q1061 282 1105 276 Q1149 270 1175.5 263.5 Q1202 257 1213.5 251 Q1225 245 1228 245 Q1229 245 1229.5 249 Q1230 253 1230 273.5 Q1230 294 1230 338 Q1230 382 1230 462 Z " />
<glyph glyph-name="B" unicode="B" horiz-adv-x="1461" d="M1470 188 Q1469 145 1439.5 114.5 Q1410 84 1364.5 62.5 Q1319 41 1263.5 28 Q1208 15 1154 7.5 Q1100 0 1053.5 -4.5 Q1007 -9 979 -12 Q975 -23 965.5 -28.5 Q956 -34 945 -36.5 Q934 -39 922 -40 Q910 -41 901 -42 L746 -42 Q737 -42 728 -38.5 Q719 -35 711.5 -29 Q704 -23 699.5 -15 Q695 -7 695 1 Q695 16 706.5 23.5 Q718 31 731 30 Q742 30 758.5 28.5 Q775 27 789 27 Q807 27 814 30 Q831 145 841 267 Q851 389 856 506 Q855 509 850 509 Q840 509 819.5 502.5 Q799 496 777 487.5 Q755 479 735.5 470.5 Q716 462 707 458 Q705 457 697 454 Q689 451 679.5 447 Q670 443 661 439.5 Q652 436 647 434 Q617 423 563 400 Q509 377 445.5 347 Q382 317 316 281.5 Q250 246 196.5 208 Q143 170 109 131.5 Q75 93 75 58 Q75 29 92 12 Q109 -5 133 -13.5 Q157 -22 183.5 -24.5 Q210 -27 229 -27 Q281 -27 332 -23.5 Q383 -20 434 -9 Q454 -5 472 3.5 Q490 12 509 12 Q518 12 524 6 Q530 0 530 -11 Q530 -25 501 -36.5 Q472 -48 428.5 -56 Q385 -64 335 -68 Q285 -72 244 -72 Q205 -72 166.5 -66.5 Q128 -61 97.5 -46 Q67 -31 48.5 -4.5 Q30 22 30 64 Q30 100 57 136.5 Q84 173 124.5 207 Q165 241 212 271 Q259 301 299 323 Q424 393 557 445.5 Q690 498 823 548 Q831 551 839.5 554.5 Q848 558 856 563 Q856 575 862.5 584.5 Q869 594 878 594 Q891 594 899.5 590 Q908 586 909 576 Q954 589 1001 602.5 Q1048 616 1095.5 627.5 Q1143 639 1191 646 Q1239 653 1286 653 Q1304 653 1327 652 Q1350 651 1369.5 644.5 Q1389 638 1402.5 624.5 Q1416 611 1416 585 Q1416 564 1408 548 Q1400 532 1387 519 Q1374 506 1358.5 495 Q1343 484 1329 473 Q1301 453 1271 438 Q1241 423 1209.5 410 Q1178 397 1146 384 Q1114 371 1084 356 Q1078 353 1075 351.5 Q1072 350 1072 344 Q1072 338 1102 335.5 Q1132 333 1176.5 329.5 Q1221 326 1273 318.5 Q1325 311 1369.5 296 Q1414 281 1443 255 Q1472 229 1470 188 Z M1422 190 Q1422 212 1404 228 Q1386 244 1357.5 255 Q1329 266 1295 273 Q1261 280 1228.5 284 Q1196 288 1169 290 Q1142 292 1129 293 Q1097 295 1066 296 Q1035 297 1006 299 Q996 301 987.5 309 Q979 317 979 328 Q979 337 983.5 348.5 Q988 360 997 365 Q1027 381 1066 398.5 Q1105 416 1146.5 434.5 Q1188 453 1228.5 471.5 Q1269 490 1300.5 509 Q1332 528 1351.5 546.5 Q1371 565 1371 582 Q1371 593 1362.5 598.5 Q1354 604 1342.5 607 Q1331 610 1318.5 610.5 Q1306 611 1298 611 Q1226 611 1154 596.5 Q1082 582 1012 563 Q1002 560 985 554.5 Q968 549 951.5 543 Q935 537 923 531.5 Q911 526 910 524 Q909 522 907 492 Q905 462 901.5 416 Q898 370 893.5 314 Q889 258 884.5 203.5 Q880 149 875 103 Q870 57 865 30 L886 30 Q985 30 1085 43.5 Q1185 57 1279 84 Q1297 87 1321.5 95.5 Q1346 104 1368.5 117.5 Q1391 131 1406.5 149.5 Q1422 168 1422 190 Z " />
<glyph glyph-name="C" unicode="C" horiz-adv-x="1289" d="M1416 44 Q1416 37 1403.5 30.5 Q1391 24 1373 18.5 Q1355 13 1335.5 8.5 Q1316 4 1302 1 Q1199 -22 1095 -38 Q991 -54 886 -62 Q811 -68 732.5 -73 Q654 -78 576 -78 Q519 -78 462 -74 Q405 -70 350 -62 Q329 -59 297 -53.5 Q265 -48 230 -40 Q195 -32 159.5 -19.5 Q124 -7 96 11 Q68 29 50.5 52.5 Q33 76 33 107 Q33 143 55 177.5 Q77 212 113 243.5 Q149 275 195.5 303.5 Q242 332 291 357 Q340 382 387.5 402.5 Q435 423 473 438 Q563 475 662.5 513.5 Q762 552 859 576 Q913 590 966.5 599.5 Q1020 609 1075 609 Q1090 609 1107 607.5 Q1124 606 1139 601 Q1154 596 1164 585 Q1174 574 1174 555 Q1174 529 1148 501.5 Q1122 474 1078 447 Q1034 420 977.5 394 Q921 368 860 344.5 Q799 321 738.5 301.5 Q678 282 626 267.5 Q574 253 535 245 Q496 237 479 237 Q459 237 446.5 242 Q434 247 434 266 Q434 286 447.5 293 Q461 300 482 306 Q536 323 591.5 336 Q647 349 701 366 Q724 373 744 380 Q764 387 787 387 Q798 387 807.5 384 Q817 381 828 381 Q835 381 860 390 Q885 399 918 414 Q951 429 987.5 447.5 Q1024 466 1055 485 Q1086 504 1106 521.5 Q1126 539 1126 552 Q1126 563 1115 565 Q1104 567 1094 567 Q1030 567 968 556 Q906 545 844 528 Q819 521 773 506 Q727 491 668.5 469.5 Q610 448 544 422 Q478 396 412.5 366.5 Q347 337 287 305 Q227 273 181.5 240 Q136 207 108.5 175 Q81 143 81 113 Q81 80 113 56 Q145 32 195 15.5 Q245 -1 305.5 -11 Q366 -21 423.5 -26.5 Q481 -32 528 -33.5 Q575 -35 597 -35 Q667 -35 732 -32.5 Q797 -30 865 -23 Q1079 -3 1290 40 Q1303 43 1318.5 47 Q1334 51 1349 54.5 Q1364 58 1376 61 Q1388 64 1394 64 Q1416 64 1416 44 Z " />
<glyph glyph-name="D" unicode="D" horiz-adv-x="1703" d="M1720 231 Q1720 189 1698.5 156 Q1677 123 1642 98 Q1607 73 1562.5 54 Q1518 35 1472 22 Q1426 9 1383.5 0 Q1341 -9 1309 -15 Q1190 -38 1067 -48.5 Q944 -59 826 -59 Q808 -59 779.5 -58 Q751 -57 723.5 -50 Q696 -43 676.5 -29.5 Q657 -16 657 10 Q657 21 663.5 28 Q670 35 680 38.5 Q690 42 701 43.5 Q712 45 721 46 Q729 162 734 285 Q739 408 747 526 Q616 537 479 538.5 Q342 540 214 540 Q206 540 184.5 539 Q163 538 140 533 Q117 528 99.5 517.5 Q82 507 82 489 Q82 465 107 440 Q132 415 172 391.5 Q212 368 260.5 346.5 Q309 325 356 308 Q403 291 442.5 278.5 Q482 266 504 261 Q513 259 528 257.5 Q543 256 557.5 253 Q572 250 583 243.5 Q594 237 594 225 Q594 214 587 209 Q580 204 570 204 Q544 204 514 214 Q484 224 459 232 Q435 239 394.5 252 Q354 265 307 282.5 Q260 300 212 322 Q164 344 125 369.5 Q86 395 61.5 423.5 Q37 452 37 483 Q37 520 58.5 540.5 Q80 561 111.5 570.5 Q143 580 177.5 582 Q212 584 238 585 Q268 586 311.5 585.5 Q355 585 405.5 583.5 Q456 582 508.5 580.5 Q561 579 608 577 Q655 575 692.5 574 Q730 573 750 573 Q753 573 754 577 Q755 581 756.5 585.5 Q758 590 761.5 593.5 Q765 597 774 597 Q785 597 789.5 592 Q794 587 796 581.5 Q798 576 798 571.5 Q798 567 799 567 Q925 562 1043.5 543 Q1162 524 1280 498 Q1309 492 1353 480 Q1397 468 1446 450.5 Q1495 433 1543.5 410.5 Q1592 388 1631.5 360.5 Q1671 333 1695.5 300.5 Q1720 268 1720 231 Z M1672 236 Q1672 270 1640 299.5 Q1608 329 1564.5 352 Q1521 375 1477 391.5 Q1433 408 1408 415 Q1277 452 1148.5 478 Q1020 504 883 518 Q866 520 846 522 Q826 524 794 524 Q790 439 781.5 318 Q773 197 768 55 Q768 50 772 47 Q776 44 780 44 L1145 44 Q1150 44 1153.5 39 Q1157 34 1161 28.5 Q1165 23 1170 18 Q1175 13 1181 13 Q1216 13 1263.5 20 Q1311 27 1360 38 Q1409 49 1455 63 Q1501 77 1534 91 Q1556 100 1580 113.5 Q1604 127 1624.5 144.5 Q1645 162 1658.5 185 Q1672 208 1672 236 Z " />
<glyph glyph-name="E" unicode="E" horiz-adv-x="861" d="M983 66 Q983 57 974 50 Q908 31 837 15 Q766 -1 693.5 -12.5 Q621 -24 548.5 -30.5 Q476 -37 408 -37 Q382 -37 345 -34.5 Q308 -32 273.5 -22 Q239 -12 214.5 9 Q190 30 190 66 Q190 96 203.5 118.5 Q217 141 237.5 160.5 Q258 180 280.5 197.5 Q303 215 321 233 Q315 236 301.5 237 Q288 238 274 238 Q261 240 237.5 241 Q214 242 187 245 Q160 248 132.5 253.5 Q105 259 82.5 269 Q60 279 45.5 293.5 Q31 308 31 330 Q31 349 37 363.5 Q43 378 53 389.5 Q63 401 75 410 Q87 419 100 427 Q172 475 250.5 507 Q329 539 410 566 Q455 581 500 597 Q545 613 589.5 625.5 Q634 638 678 646.5 Q722 655 765 655 Q778 655 792 647 Q806 639 806 623 Q806 609 783.5 592 Q761 575 726.5 558 Q692 541 651.5 525 Q611 509 575 496.5 Q539 484 513.5 476.5 Q488 469 483 469 Q473 469 464.5 473 Q456 477 456 488 L468 532 Q467 535 462 535 Q450 535 417 525 Q384 515 341.5 498.5 Q299 482 252.5 460.5 Q206 439 167.5 416.5 Q129 394 104 371.5 Q79 349 79 330 Q79 318 97 309.5 Q115 301 142 295 Q169 289 201.5 285.5 Q234 282 262.5 280 Q291 278 311.5 277.5 Q332 277 336 277 Q397 277 454 286.5 Q511 296 570 310 Q578 313 586 313 Q596 313 602.5 308 Q609 303 609 292 Q609 283 603.5 278 Q598 273 589.5 271 Q581 269 572.5 268 Q564 267 558 265 Q525 258 490.5 249.5 Q456 241 423 230 Q390 219 361 204 Q332 189 310 169 Q300 160 286.5 148.5 Q273 137 262 124 Q251 111 243 96 Q235 81 235 65 Q235 32 302 20 Q369 8 516 8 Q554 8 599.5 14 Q645 20 692 29 Q739 38 784.5 48.5 Q830 59 867 68 Q904 77 928.5 83 Q953 89 959 89 Q968 89 975.5 83 Q983 77 983 66 Z " />
<glyph glyph-name="F" unicode="F" horiz-adv-x="930" d="M1046 89 Q1046 73 1032 68.5 Q1018 64 1003 64 Q996 64 990.5 64.5 Q985 65 980 65 Q971 65 942.5 64 Q914 63 871.5 62 Q829 61 775 59 Q721 57 661.5 56 Q602 55 539.5 54 Q477 53 417 53 Q396 53 385 49 Q374 45 374 21 Q374 -48 372.5 -118.5 Q371 -189 366 -258 Q365 -264 366 -272.5 Q367 -281 367 -291 Q367 -303 365.5 -315 Q364 -327 360 -337 Q356 -347 348 -353.5 Q340 -360 326 -360 Q317 -360 309 -355.5 Q301 -351 294 -345 Q287 -339 283 -331.5 Q279 -324 279 -318 L279 -156 Q279 -128 284.5 -118.5 Q290 -109 297.5 -106.5 Q305 -104 312.5 -104.5 Q320 -105 324 -97 Q326 -61 328 -24.5 Q330 12 330 47 L324 53 Q290 53 265.5 54.5 Q241 56 218 57.5 Q195 59 168.5 61 Q142 63 103 65 Q82 68 68 68.5 Q54 69 45 70.5 Q36 72 32 76.5 Q28 81 28 91 Q28 96 31 102.5 Q34 109 40 110 Q112 110 183.5 105.5 Q255 101 324 101 L330 107 Q330 107 331 137 Q332 167 333 209 Q334 251 334.5 296 Q335 341 334 371 Q333 376 332 394 Q331 410 330.5 442.5 Q330 475 330 535 Q330 550 322 562.5 Q314 575 304.5 586.5 Q295 598 287 610 Q279 622 279 637 Q279 653 288.5 664.5 Q298 676 315 676 Q329 676 339 664.5 Q349 653 355.5 637 Q362 621 366.5 605 Q371 589 372 580 Q390 561 411.5 540.5 Q433 520 456 505 Q517 474 577 451 Q637 428 711 412 Q741 406 772 399.5 Q803 393 838 388 Q873 383 914.5 379.5 Q956 376 1007 374 Q1013 374 1020.5 366 Q1028 358 1028 353 Q1028 342 1017 335 Q1006 328 997 329 Q972 330 945.5 332.5 Q919 335 893 338 Q812 347 733 363.5 Q654 380 576 403 Q539 414 504.5 430.5 Q470 447 444 462.5 Q418 478 401.5 489 Q385 500 382 500 Q380 500 378.5 490.5 Q377 481 376.5 468.5 Q376 456 375.5 443.5 Q375 431 375 424 Q375 421 375.5 409.5 Q376 398 376.5 364 Q377 330 377.5 268.5 Q378 207 378 104 Q378 100 401 99 Q424 98 453 98 Q462 98 502.5 99 Q543 100 600 101 Q657 102 722.5 104 Q788 106 848 107 Q908 108 953.5 109 Q999 110 1016 110 Q1030 110 1038 107 Q1046 104 1046 89 Z " />
<glyph glyph-name="G" unicode="G" horiz-adv-x="1152" d="M1208 591 Q1208 581 1186.5 568.5 Q1165 556 1132 544 Q1099 532 1059.5 521 Q1020 510 984 501.5 Q948 493 919.5 488 Q891 483 881 483 Q864 483 850 487.5 Q836 492 820 492 Q806 492 784.5 485.5 Q763 479 740 470.5 Q717 462 696 453 Q675 444 663 438 Q649 432 616 418.5 Q583 405 538.5 386 Q494 367 441.5 344 Q389 321 336 295 Q283 269 234 241.5 Q185 214 147 187 Q109 160 86.5 133.5 Q64 107 64 84 Q64 61 85 48.5 Q106 36 134 30 Q162 24 189 23 Q216 22 229 22 Q277 22 321.5 26.5 Q366 31 409 39 Q452 47 495.5 58 Q539 69 585 82 Q599 86 637 98.5 Q675 111 724.5 128 Q774 145 829 164 Q884 183 931 200.5 Q978 218 1011.5 230.5 Q1045 243 1052 247 Q1062 253 1063 268 Q1064 283 1067 292 Q1070 303 1079.5 310.5 Q1089 318 1101 323.5 Q1113 329 1125.5 331.5 Q1138 334 1148 334 Q1162 334 1171.5 325 Q1181 316 1181 302 Q1181 283 1171.5 272 Q1162 261 1150.5 251.5 Q1139 242 1128.5 230.5 Q1118 219 1115 199 Q1114 186 1111.5 148.5 Q1109 111 1106.5 68.5 Q1104 26 1102 -11.5 Q1100 -49 1099 -62 Q1096 -111 1088 -167.5 Q1080 -224 1057 -272.5 Q1034 -321 992 -353 Q950 -385 881 -385 Q844 -385 806.5 -373.5 Q769 -362 734.5 -342.5 Q700 -323 669.5 -297.5 Q639 -272 615 -244 Q608 -236 598 -226 Q588 -216 588 -204 Q588 -193 594.5 -188 Q601 -183 612 -183 Q623 -183 647 -208 Q671 -233 706 -263 Q741 -293 786.5 -318 Q832 -343 886 -343 Q930 -343 960 -317 Q990 -291 1009 -253 Q1028 -215 1037 -172 Q1046 -129 1048 -95 Q1053 -29 1055.5 41 Q1058 111 1058 178 Q1058 191 1055.5 193.5 Q1053 196 1047 196 Q1047 195 1013.5 182.5 Q980 170 931 152 Q882 134 827.5 115 Q773 96 732 82 Q672 63 612 44.5 Q552 26 491 11.5 Q430 -3 367.5 -11.5 Q305 -20 242 -20 Q215 -20 177 -17 Q139 -14 103.5 -4 Q68 6 43.5 26 Q19 46 19 79 Q19 112 39 141 Q59 170 89 194 Q119 218 153.5 238 Q188 258 217 274 Q370 358 541.5 434 Q713 510 884 567 Q913 576 945.5 587.5 Q978 599 1011.5 609 Q1045 619 1078.5 626 Q1112 633 1142 633 Q1153 633 1165 631.5 Q1177 630 1186.5 625.5 Q1196 621 1202 613 Q1208 605 1208 591 Z " />
<glyph glyph-name="H" unicode="H" horiz-adv-x="1016" d="M1102 181 Q1102 171 1096 164 Q1090 157 1078 157 L973 157 Q972 153 971.5 141.5 Q971 130 970.5 108 Q970 86 969.5 52.5 Q969 19 968 -30 Q962 -42 947 -42 Q935 -42 930.5 -34 Q926 -26 925 -15 Q924 -4 924.5 7.5 Q925 19 923 26 Q923 34 907.5 55 Q892 76 864.5 98.5 Q837 121 800 138.5 Q763 156 721 156 Q696 156 683 155.5 Q670 155 660.5 155 Q651 155 640 154 Q629 153 609.5 153 Q590 153 556.5 152.5 Q523 152 468 152 L468 18 Q468 9 461.5 4.5 Q455 0 446 0 Q433 0 429 11.5 Q425 23 425 34 L425 151 Q334 151 280 151.5 Q226 152 196.5 152 Q167 152 157 152 Q147 152 144 152 Q134 153 113.5 155 Q93 157 72.5 161.5 Q52 166 36.5 174 Q21 182 21 195 Q21 203 25.5 208.5 Q30 214 38 214 Q58 214 71.5 214 Q85 214 101 213.5 Q117 213 139 213 Q161 213 197.5 212.5 Q234 212 288.5 212 Q343 212 424 212 Q427 265 428 322.5 Q429 380 431 455 Q412 469 405 486 Q398 503 398 530 Q398 532 399 552.5 Q400 573 403 596.5 Q406 620 412.5 639.5 Q419 659 431 659 L464 659 Q472 659 476 652 Q480 645 480 637 Q480 586 479.5 554 Q479 522 478 498.5 Q477 475 475.5 454 Q474 433 473 402.5 Q472 372 470.5 326.5 Q469 281 469 209 Q512 207 559 206 Q606 205 661 204.5 Q716 204 781 204 Q846 204 925 204 Q927 220 927.5 227.5 Q928 235 928 250 Q928 288 929 325.5 Q930 363 931.5 405 Q933 447 935.5 496 Q938 545 940 606 Q941 624 945 640 Q949 656 967 656 Q970 656 974 655 Q978 654 981 650.5 Q984 647 986 640 Q988 633 988 620 Q988 584 984.5 548 Q981 512 979 476 Q974 419 973.5 355 Q973 291 973 203 Q975 202 980.5 201.5 Q986 201 998 201 Q1010 201 1030.5 201 Q1051 201 1084 201 Q1092 199 1097 194.5 Q1102 190 1102 181 Z M923 104 Q923 117 923 131.5 Q923 146 922 157 L852 157 Q866 151 879 141.5 Q892 132 902 123.5 Q912 115 917.5 109.5 Q923 104 923 104 Z " />
<glyph glyph-name="I" unicode="I" horiz-adv-x="572" d="M704 41 Q704 22 685 18 Q666 14 646 14 L630 14 Q606 14 579.5 14 Q553 14 529 13 Q505 12 487.5 10 Q470 8 465 5 Q464 4 463 3.5 Q462 3 460 1 Q453 -5 437 -14.5 Q421 -24 391 -34 Q361 -44 313.5 -51 Q266 -58 196 -58 Q181 -58 151.5 -57 Q122 -56 92 -49.5 Q62 -43 40 -29.5 Q18 -16 18 8 Q18 35 45 40 Q102 44 158 45.5 Q214 47 271 47 Q304 47 337 46.5 Q370 46 404 45 Q406 45 416 45.5 Q426 46 431 50 Q451 67 467.5 96 Q484 125 497.5 159.5 Q511 194 521.5 230.5 Q532 267 539.5 298 Q547 329 550.5 351.5 Q554 374 554 381 Q554 384 548 386.5 Q542 389 534.5 397.5 Q527 406 520.5 423 Q514 440 514 472 Q514 496 517.5 522.5 Q521 549 529.5 571 Q538 593 553 607.5 Q568 622 591 622 Q599 622 612.5 617 Q626 612 626 601 Q626 532 618 460.5 Q610 389 594.5 318.5 Q579 248 555 180 Q531 112 499 50 Q510 50 519 50 Q528 50 541.5 50.5 Q555 51 576.5 51.5 Q598 52 632 53 Q642 56 653.5 57.5 Q665 59 675 59 Q686 59 695 56 Q704 53 704 41 Z M387 3 Q387 4 375 4 Q363 4 343 4 Q324 4 301 4 Q278 4 257 3.5 Q236 3 220 3 Q204 3 199 3 Q159 3 141.5 0 Q124 -3 124 -8 Q124 -14 136 -17 Q148 -20 155 -20 L279 -17 Q334 -15 360.5 -7.5 Q387 0 387 3 Z " />
<glyph glyph-name="J" unicode="J" horiz-adv-x="292" d="M303 424 Q303 376 301 330 Q299 284 297 237 Q294 154 286 77 Q278 0 258 -81 Q255 -96 247 -127.5 Q239 -159 227.5 -197.5 Q216 -236 200.5 -277.5 Q185 -319 167 -353 Q149 -387 128.5 -409 Q108 -431 85 -431 Q58 -431 40 -416 Q21 -399 0.5 -368 Q-20 -337 -36.5 -301.5 Q-53 -266 -63.5 -231 Q-74 -196 -74 -171 Q-74 -137 -53 -109.5 Q-32 -82 -11 -63 Q-2 -55 20 -37.5 Q42 -20 67 -2.5 Q92 15 116 28.5 Q140 42 154 42 Q164 42 169.5 36 Q175 30 175 21 Q175 16 171.5 11.5 Q168 7 163 3 Q141 -9 108.5 -27.5 Q76 -46 46 -69 Q16 -92 -5 -118.5 Q-26 -145 -26 -172 Q-26 -189 -15.5 -224 Q-5 -259 11.5 -294.5 Q28 -330 47.5 -356.5 Q67 -383 85 -383 Q94 -383 102.5 -373 Q111 -363 118 -349 Q125 -335 130.5 -321 Q136 -307 139 -299 Q180 -198 204 -104 Q228 -10 240 85.5 Q252 181 255 281 Q258 381 258 494 L255 505 L213 505 Q209 505 206.5 511.5 Q204 518 202 525.5 Q200 533 199 540 Q198 547 198 548 L198 656 Q198 675 211 686.5 Q224 698 242 698 Q265 698 275 683 Q285 668 289.5 647 Q294 626 295 603.5 Q296 581 300 566 Q300 548 300.5 525.5 Q301 503 301.5 483 Q302 463 302.5 446.5 Q303 430 303 424 Z " />
<glyph glyph-name="K" unicode="K" horiz-adv-x="901" d="M1033 42 Q1033 25 998.5 13 Q964 1 915 -6 Q866 -13 814 -16 Q762 -19 726 -19 Q618 -19 524 -6 Q430 7 351.5 29 Q273 51 211 80 Q149 109 106 140 Q105 141 105 130 Q105 119 104 102.5 Q103 86 101.5 66.5 Q100 47 96.5 30 Q93 13 87 2 Q81 -9 72 -9 Q58 -9 53 3 Q48 15 48 20 Q53 80 54.5 141 Q56 202 60 262 Q65 353 72 442 Q79 531 81 622 Q83 631 90.5 635.5 Q98 640 106 640 Q120 640 124.5 629.5 Q129 619 129 608 Q129 603 127.5 579.5 Q126 556 124 523.5 Q122 491 119.5 453.5 Q117 416 115 381 Q113 346 111.5 318 Q110 290 110 278 Q110 276 110.5 275 Q111 274 111 272 L111 269 Q132 285 166.5 308.5 Q201 332 243.5 360 Q286 388 334.5 418 Q383 448 431.5 475.5 Q480 503 526.5 525.5 Q573 548 611 562 Q618 565 623 570 Q628 575 631.5 581 Q635 587 638 592 Q641 597 644 598 Q672 614 705.5 623 Q739 632 770 640 Q786 645 801 650 Q816 655 832 655 Q852 655 863 645 Q874 635 874 623 Q874 612 863.5 603 Q853 594 829 592 Q791 583 752.5 569.5 Q714 556 677 541 Q595 508 522 470 Q449 432 386.5 394.5 Q324 357 274 321.5 Q224 286 189.5 258.5 Q155 231 136 213.5 Q117 196 117 194 Q117 192 136.5 179 Q156 166 191 147 Q226 128 274.5 107 Q323 86 382 68 Q441 50 507.5 38 Q574 26 644 26 Q685 26 718 26.5 Q751 27 781 28 Q811 29 840 31.5 Q869 34 901 38 Q928 42 954.5 50.5 Q981 59 1008 59 Q1026 59 1029.5 54.5 Q1033 50 1033 42 Z " />
<glyph glyph-name="L" unicode="L" horiz-adv-x="823" d="M956 44 Q956 39 938 20 Q920 1 885.5 -20 Q851 -41 800.5 -57.5 Q750 -74 685 -74 Q642 -74 590.5 -69.5 Q539 -65 486 -58 Q433 -51 382 -42.5 Q331 -34 288.5 -27 Q246 -20 216 -15.5 Q186 -11 176 -11 Q173 -12 163 -20.5 Q153 -29 138.5 -39 Q124 -49 106 -57 Q88 -65 70 -65 Q34 -65 34 -31 Q34 -18 42.5 -7.5 Q51 3 64 10.5 Q77 18 92.5 23 Q108 28 121 31 Q161 40 188.5 76.5 Q216 113 234 163.5 Q252 214 261.5 272 Q271 330 274 381 Q279 447 278.5 511.5 Q278 576 280 642 Q284 656 294 662.5 Q304 669 318 669 Q342 669 357 653 Q372 637 372 614 Q372 570 369.5 529.5 Q367 489 363 447 Q362 436 360.5 422.5 Q359 409 351 399 Q343 390 331.5 383 Q320 376 315 363 Q315 313 309 272 Q303 231 292 193 Q281 155 264.5 118.5 Q248 82 226 41 Q242 35 277 27.5 Q312 20 357 11.5 Q402 3 452 -4.5 Q502 -12 547 -18.5 Q592 -25 627.5 -28.5 Q663 -32 679 -32 Q745 -32 789 -16.5 Q833 -1 861.5 17.5 Q890 36 906 51.5 Q922 67 931 67 Q939 67 947.5 60 Q956 53 956 44 Z " />
<glyph glyph-name="M" unicode="M" horiz-adv-x="1257" d="M1262 508 Q1262 493 1260 476.5 Q1258 460 1253 448 L1253 29 Q1253 3 1246 -3.5 Q1239 -10 1230 -10 Q1211 -10 1206.5 5.5 Q1202 21 1202 37 L1205 296 Q1205 305 1205.5 323.5 Q1206 342 1206 360 Q1206 378 1204.5 392 Q1203 406 1200 406 Q1199 406 1186.5 393.5 Q1174 381 1155 362.5 Q1136 344 1113 321 Q1090 298 1069 276.5 Q1048 255 1031 238.5 Q1014 222 1007 215 Q972 182 927.5 152 Q883 122 834.5 98.5 Q786 75 737.5 61 Q689 47 647 47 Q557 47 486.5 77.5 Q416 108 362.5 153.5 Q309 199 272 252 Q235 305 210.5 350.5 Q186 396 174 426.5 Q162 457 159 457 Q157 457 152.5 428.5 Q148 400 142 356.5 Q136 313 129.5 261 Q123 209 117.5 162.5 Q112 116 107.5 81.5 Q103 47 102 38 Q101 32 99.5 22 Q98 12 95 3 Q92 -6 87 -12.5 Q82 -19 73 -19 Q62 -19 54 -13.5 Q46 -8 46 5 Q46 16 49.5 27.5 Q53 39 55 50 Q58 64 62.5 102.5 Q67 141 73 192.5 Q79 244 85.5 302.5 Q92 361 97 414.5 Q102 468 105.5 511 Q109 554 109 573 Q109 587 106.5 601 Q104 615 104 629 Q104 639 105 644 Q107 655 110.5 662.5 Q114 670 128 670 Q140 670 148 660.5 Q156 651 162 637 Q168 623 172.5 607.5 Q177 592 181 580 Q202 526 224.5 468.5 Q247 411 275.5 357 Q304 303 339 255.5 Q374 208 418.5 172.5 Q463 137 519.5 117 Q576 97 647 98 Q722 99 788 129 Q854 159 913 204 Q972 249 1023.5 303.5 Q1075 358 1121 409 Q1128 417 1139.5 430.5 Q1151 444 1161.5 458 Q1172 472 1180 483 Q1188 494 1188 497 Q1188 501 1190.5 511 Q1193 521 1198 531 Q1203 541 1210.5 548.5 Q1218 556 1227 556 Q1235 556 1243 554 Q1251 552 1256 544 Q1259 539 1260.5 529 Q1262 519 1262 508 Z " />
<glyph glyph-name="N" unicode="N" horiz-adv-x="1109" d="M1127 576 Q1127 558 1125 528.5 Q1123 499 1119 467.5 Q1115 436 1109.5 407 Q1104 378 1097 360 Q1092 349 1079.5 345.5 Q1067 342 1061 333 Q1055 323 1052.5 291 Q1050 259 1046.5 216.5 Q1043 174 1035 128 Q1027 82 1009 43 Q991 4 960 -21.5 Q929 -47 880 -47 Q834 -47 780 -27 Q726 -7 669.5 26.5 Q613 60 555.5 103.5 Q498 147 443.5 193 Q389 239 341 285 Q293 331 254.5 369.5 Q216 408 190 436 Q164 464 154 474 Q153 476 146.5 482 Q140 488 139 488 Q138 488 135 457 Q132 426 128.5 379 Q125 332 121 276.5 Q117 221 113.5 172 Q110 123 107.5 87.5 Q105 52 104 46 Q103 38 101 28.5 Q99 19 95 11 Q91 3 84.5 -2.5 Q78 -8 67 -8 Q53 -8 49.5 0.5 Q46 9 46 22 Q46 31 48.5 59 Q51 87 55 128.5 Q59 170 64 222.5 Q69 275 73 331.5 Q77 388 79.5 446.5 Q82 505 82 558 L70 597 Q70 621 95 621 Q100 621 110 613 Q120 605 131.5 593.5 Q143 582 154 569 Q165 556 172 546 Q202 506 255 449.5 Q308 393 373 332 Q438 271 510 211.5 Q582 152 650 104.5 Q718 57 776.5 27.5 Q835 -2 873 -2 Q916 -2 942 32.5 Q968 67 982 121 Q996 175 1001.5 241 Q1007 307 1009.5 370 Q1012 433 1014.5 485 Q1017 537 1025 564 Q1031 585 1045 603 Q1059 621 1086 621 Q1108 621 1117.5 608 Q1127 595 1127 576 Z " />
<glyph glyph-name="O" unicode="O" horiz-adv-x="1305" d="M1336 368 Q1336 316 1313.5 271.5 Q1291 227 1253.5 190 Q1216 153 1167.5 123.5 Q1119 94 1067.5 71 Q1016 48 965.5 32 Q915 16 873 7 Q819 -5 758.5 -12 Q698 -19 635 -19 Q539 -19 447 -0.5 Q355 18 280 61 Q254 76 226 97 Q198 118 175.5 145 Q153 172 138.5 204 Q124 236 124 273 Q124 318 143.5 358 Q163 398 195 433.5 Q227 469 269 499 Q311 529 355 553 Q399 577 442.5 595 Q486 613 522 624 Q544 631 569 636.5 Q594 642 608 642 Q627 642 630 638.5 Q633 635 633 625 Q633 620 619 614 Q605 608 588 601 Q571 594 557 587.5 Q543 581 543 574 Q621 593 705.5 601 Q790 609 871 609 Q923 609 984.5 604.5 Q1046 600 1106 585 Q1166 570 1218 542.5 Q1270 515 1304 468 Q1318 449 1327 423.5 Q1336 398 1336 368 Z M1290 366 Q1290 398 1275.5 423 Q1261 448 1241 468 Q1207 501 1161.5 520.5 Q1116 540 1066.5 550.5 Q1017 561 966 564 Q915 567 871 567 Q832 567 792.5 566 Q753 565 714 561 Q670 557 616 545 Q562 533 506.5 512.5 Q451 492 398 463 Q345 434 304.5 397 Q264 360 239 315 Q214 270 214 217 Q214 183 237 155.5 Q260 128 297 106 Q334 84 381.5 68 Q429 52 478 41.5 Q527 31 574 26 Q621 21 657 21 Q712 21 780.5 32.5 Q849 44 919 65.5 Q989 87 1056 118 Q1123 149 1175 187.5 Q1227 226 1258.5 271 Q1290 316 1290 366 Z " />
<glyph glyph-name="P" unicode="P" horiz-adv-x="1297" d="M1387 484 Q1387 433 1368.5 396.5 Q1350 360 1324 333.5 Q1298 307 1271 289 Q1244 271 1226 257 L1272 257 Q1283 257 1291.5 253.5 Q1300 250 1300 235 Q1300 226 1290 221 Q1280 216 1274 216 L1154 216 Q1095 193 1040.5 178.5 Q986 164 925 164 Q912 164 890.5 166 Q869 168 848 174.5 Q827 181 812 193 Q797 205 797 225 Q797 248 812.5 257 Q828 266 854 266 Q894 266 921 264 Q948 262 971.5 260 Q995 258 1020.5 255.5 Q1046 253 1083 253 Q1112 253 1156.5 271.5 Q1201 290 1243 321 Q1285 352 1315 392 Q1345 432 1345 475 Q1345 516 1314 540.5 Q1283 565 1240 577.5 Q1197 590 1151.5 594 Q1106 598 1077 598 Q1036 598 991 595.5 Q946 593 899.5 588 Q853 583 807.5 575 Q762 567 720 556 Q716 413 709 270 Q702 127 697 -16 Q695 -27 689.5 -29 Q684 -31 676 -31 Q662 -31 658.5 -22.5 Q655 -14 655 -1 Q655 9 656.5 48 Q658 87 659.5 141.5 Q661 196 663 259 Q665 322 667 379.5 Q669 437 670 482 Q671 527 671 545 Q661 543 630 534 Q599 525 555 511.5 Q511 498 458.5 479.5 Q406 461 352.5 440 Q299 419 248.5 395.5 Q198 372 159 347 Q120 322 96.5 297 Q73 272 73 247 Q73 226 86 219 Q99 212 115 209 Q131 206 144 202.5 Q157 199 157 185 Q157 172 146.5 169.5 Q136 167 125 167 Q108 167 90.5 171.5 Q73 176 59 185.5 Q45 195 36.5 209.5 Q28 224 28 243 Q28 275 50 305 Q72 335 109.5 363 Q147 391 195.5 416.5 Q244 442 298 464.5 Q352 487 407.5 506.5 Q463 526 512.5 541.5 Q562 557 603 568 Q644 579 669 586 Q671 586 673 591 Q675 596 677.5 601.5 Q680 607 684.5 611.5 Q689 616 697 616 Q709 616 713.5 610 Q718 604 723 604 Q765 612 810 618.5 Q855 625 899.5 629.5 Q944 634 987.5 636.5 Q1031 639 1070 639 Q1111 639 1166 634 Q1221 629 1270 613 Q1319 597 1353 566.5 Q1387 536 1387 484 Z " />
<glyph glyph-name="Q" unicode="Q" horiz-adv-x="1235" d="M1368 51 Q1368 44 1365.5 38 Q1363 32 1356 29 Q1336 18 1313.5 12 Q1291 6 1270 -1 Q1225 -15 1183 -25.5 Q1141 -36 1096 -34 Q1050 -32 1005 -23 Q960 -14 916 -1.5 Q872 11 828 25.5 Q784 40 740 53 Q716 61 691.5 69 Q667 77 641 77 Q613 77 559.5 71 Q506 65 423 65 Q405 65 384 66 Q363 67 344.5 73.5 Q326 80 314 94 Q302 108 302 134 Q302 150 319 163.5 Q336 177 373 177 Q397 177 425 170 Q440 167 461.5 160 Q483 153 510 146 Q537 139 570 133.5 Q603 128 641 128 Q682 128 721.5 143 Q761 158 797 175 Q843 196 900 224 Q957 252 1007 288.5 Q1057 325 1091 370.5 Q1125 416 1125 473 Q1125 506 1108.5 528.5 Q1092 551 1066 564.5 Q1040 578 1008 584 Q976 590 944 590 Q864 590 778 575.5 Q692 561 607.5 535.5 Q523 510 443 475 Q363 440 296 400 Q269 384 233 361 Q197 338 164.5 309.5 Q132 281 109.5 249 Q87 217 87 182 Q87 152 105 128 Q123 104 153 86.5 Q183 69 223.5 57 Q264 45 309.5 37.5 Q355 30 404 26.5 Q453 23 499 23 Q535 23 568 28 Q601 33 623 38 Q628 39 634.5 41.5 Q641 44 647 44 Q661 44 666 37 Q671 30 671 20 Q671 11 662 5.5 Q653 0 641.5 -3 Q630 -6 618.5 -7.5 Q607 -9 602 -10 Q564 -15 528 -17 Q492 -19 454 -19 Q425 -19 383 -16.5 Q341 -14 294.5 -6.5 Q248 1 201.5 15 Q155 29 118.5 51 Q82 73 59 104.5 Q36 136 36 179 Q36 229 69.5 276.5 Q103 324 156.5 366.5 Q210 409 276.5 446 Q343 483 409.5 512 Q476 541 536 561.5 Q596 582 635 592 Q707 610 780.5 623.5 Q854 637 928 637 Q967 637 1011.5 630.5 Q1056 624 1093.5 607 Q1131 590 1155 559 Q1179 528 1177 478 Q1174 409 1140.5 356.5 Q1107 304 1056.5 264 Q1006 224 946.5 193.5 Q887 163 832 137 Q827 135 815 129.5 Q803 124 790 118 Q777 112 767.5 107.5 Q758 103 758 102 L758 98 Q797 86 840.5 71 Q884 56 927.5 42.5 Q971 29 1012 20 Q1053 11 1088 11 Q1151 11 1208.5 29.5 Q1266 48 1323 71 Q1336 76 1344 76 Q1360 76 1364 65.5 Q1368 55 1368 51 Z " />
<glyph glyph-name="R" unicode="R" horiz-adv-x="1462" d="M1597 70 Q1597 52 1570.5 33.5 Q1544 15 1506.5 0 Q1469 -15 1428.5 -24.5 Q1388 -34 1359 -34 Q1315 -34 1274.5 -22 Q1234 -10 1196.5 9.5 Q1159 29 1124 54 Q1089 79 1054 104 Q997 146 937 194.5 Q877 243 819 289 Q762 289 726 298.5 Q690 308 668 319.5 Q646 331 636.5 340 Q627 349 623 349 Q620 349 617.5 325 Q615 301 613 264.5 Q611 228 609 184.5 Q607 141 605.5 101.5 Q604 62 603 32 Q602 2 602 -7 Q597 -13 592 -17.5 Q587 -22 579 -22 Q567 -22 560.5 -12.5 Q554 -3 554 8 Q554 12 555.5 36.5 Q557 61 559.5 98.5 Q562 136 565 183 Q568 230 571 278.5 Q574 327 577 373 Q580 419 582.5 455 Q585 491 586 513 Q587 535 587 535 Q577 535 536 522.5 Q495 510 439.5 488 Q384 466 322 436.5 Q260 407 207.5 374 Q155 341 121 305 Q87 269 87 235 Q87 213 104 201 Q121 189 141 181 Q161 173 178 165.5 Q195 158 195 144 Q195 136 188 129 Q181 122 172 122 Q156 123 132 130 Q108 137 86 150.5 Q64 164 48.5 183 Q33 202 33 226 Q33 274 64 315.5 Q95 357 144.5 392 Q194 427 256 456 Q318 485 379.5 508.5 Q441 532 496.5 550.5 Q552 569 589 583 Q592 584 592.5 591.5 Q593 599 594 608 Q595 617 599.5 624 Q604 631 614 631 Q625 631 629 626 Q633 621 634 615.5 Q635 610 635 605 Q635 600 638 600 Q640 600 661 606.5 Q682 613 716.5 622 Q751 631 796.5 642.5 Q842 654 893 663 Q944 672 996.5 678.5 Q1049 685 1098 685 Q1121 685 1153 684.5 Q1185 684 1220 679.5 Q1255 675 1289.5 666.5 Q1324 658 1351 642 Q1378 626 1395 601.5 Q1412 577 1412 541 Q1412 505 1386 472.5 Q1360 440 1318 413 Q1276 386 1222.5 364.5 Q1169 343 1114.5 328 Q1060 313 1009 305 Q958 297 920 297 Q892 297 892 293 Q892 288 909 272.5 Q926 257 953 236.5 Q980 216 1012 193 Q1044 170 1073.5 149 Q1103 128 1126.5 111.5 Q1150 95 1159 89 Q1185 71 1208.5 57 Q1232 43 1256 33.5 Q1280 24 1306.5 19 Q1333 14 1367 14 Q1383 14 1404.5 18.5 Q1426 23 1448.5 30.5 Q1471 38 1491.5 47 Q1512 56 1527 65 Q1538 72 1551 80.5 Q1564 89 1572 89 Q1580 89 1588.5 83.5 Q1597 78 1597 70 Z M1359 550 Q1359 579 1332 597.5 Q1305 616 1265.5 626 Q1226 636 1181.5 639.5 Q1137 643 1102 643 Q983 643 864.5 616.5 Q746 590 635 553 Q634 551 633 533 Q632 515 631.5 493.5 Q631 472 630 453 Q629 434 627 430 Q635 452 669 452 Q686 452 707 441.5 Q728 431 750 415 Q772 399 792.5 379.5 Q813 360 829 343 Q840 342 851.5 341 Q863 340 874 340 Q928 340 985 347.5 Q1042 355 1096 369 Q1150 383 1197.5 402.5 Q1245 422 1281 445.5 Q1317 469 1338 495.5 Q1359 522 1359 550 Z " />
<glyph glyph-name="S" unicode="S" horiz-adv-x="1086" d="M1105 88 Q1105 61 1086 44.5 Q1067 28 1039 19 Q1011 10 980 5.5 Q949 1 925 -3 Q832 -18 741 -20 Q650 -22 557 -27 Q549 -34 545 -40 Q541 -46 535 -50.5 Q529 -55 517 -57.5 Q505 -60 482 -60 Q392 -60 337 -59.5 Q282 -59 244 -58.5 Q206 -58 176.5 -57.5 Q147 -57 108 -57 Q96 -55 80.5 -51.5 Q65 -48 51 -41.5 Q37 -35 27.5 -24.5 Q18 -14 18 3 Q18 12 23 17 Q28 22 36 27 Q86 27 147.5 25.5 Q209 24 275 22.5 Q341 21 406.5 19.5 Q472 18 530 18 Q544 18 588.5 18.5 Q633 19 691.5 21 Q750 23 814.5 27 Q879 31 933 39 Q987 47 1022 58.5 Q1057 70 1057 87 Q1057 102 1033 114 Q1009 126 971.5 136 Q934 146 889 153.5 Q844 161 802 167 Q760 173 727 177 Q694 181 680 184 Q663 187 633.5 191.5 Q604 196 569.5 203 Q535 210 500 220 Q465 230 436 244 Q407 258 389 277.5 Q371 297 371 323 Q371 361 409 398.5 Q447 436 506 470.5 Q565 505 637 536 Q709 567 778 591 Q847 615 904.5 631 Q962 647 991 653 Q1009 657 1027.5 664 Q1046 671 1064 671 Q1075 671 1082.5 666.5 Q1090 662 1090 651 Q1090 641 1071 633 Q1052 625 1026 618.5 Q1000 612 972.5 606.5 Q945 601 928 596 Q906 590 859.5 575.5 Q813 561 756 540.5 Q699 520 638.5 494.5 Q578 469 528.5 441 Q479 413 447.5 383.5 Q416 354 416 326 Q416 305 450.5 287.5 Q485 270 538 255.5 Q591 241 654 229.5 Q717 218 773 210 Q829 202 870.5 196.5 Q912 191 922 189 Q941 185 972 179.5 Q1003 174 1032.5 163.5 Q1062 153 1083.5 135 Q1105 117 1105 88 Z " />
<glyph glyph-name="T" unicode="T" horiz-adv-x="709" d="M932 568 Q932 559 923 553 Q914 547 900.5 543.5 Q887 540 870 539 Q853 538 838 538 L555 536 Q547 533 537 506 Q527 479 516.5 439.5 Q506 400 496 353 Q486 306 478.5 263.5 Q471 221 466.5 188 Q462 155 462 144 Q462 76 490 48 Q518 20 588 20 Q641 20 692.5 29.5 Q744 39 797 56 Q808 56 816 48 Q824 40 824 29 Q824 20 807.5 12.5 Q791 5 765.5 -1.5 Q740 -8 709.5 -13 Q679 -18 651 -21.5 Q623 -25 602 -26.5 Q581 -28 574 -28 Q502 -28 458 13 Q414 54 414 128 Q414 200 430 279.5 Q446 359 465 430 Q472 454 479.5 476.5 Q487 499 492 523 Q490 528 486.5 531.5 Q483 535 477 535 L315 535 Q314 535 310.5 530.5 Q307 526 302.5 520.5 Q298 515 293.5 510.5 Q289 506 285 505 Q248 499 208 498 Q168 497 129 497 Q114 497 96 499 Q78 501 62 506.5 Q46 512 35.5 522.5 Q25 533 25 550 Q25 573 43 578.5 Q61 584 81 584 L495 577 Q504 579 507.5 584.5 Q511 590 514 596.5 Q517 603 521 608 Q525 613 535 613 Q547 613 551 609 Q555 605 556.5 599.5 Q558 594 559 588.5 Q560 583 567 580 Q657 580 738 584.5 Q819 589 904 589 Q914 589 923 584.5 Q932 580 932 568 Z " />
<glyph glyph-name="U" unicode="U" horiz-adv-x="1083" d="M1135 575 Q1135 567 1134 558 Q1133 549 1130 538 Q1126 523 1118 505.5 Q1110 488 1100.5 470.5 Q1091 453 1081 437 Q1071 421 1064 409 Q1059 389 1054.5 367.5 Q1050 346 1046 325 Q1034 265 1027.5 204.5 Q1021 144 1013 83 Q1012 74 1012 59 Q1012 44 1010 29 Q1008 14 1002.5 3.5 Q997 -7 983 -7 Q969 -7 965.5 4.5 Q962 16 962 28 Q962 82 973.5 146.5 Q985 211 998 286 Q998 291 999 297 Q1000 303 1000 313 Q931 252 850.5 192.5 Q770 133 682.5 85.5 Q595 38 501.5 8.5 Q408 -21 312 -21 Q236 -21 179 10 Q122 41 94 119 Q81 154 76.5 185.5 Q72 217 72 252 Q72 263 72 273.5 Q72 284 73 295 Q62 304 54 313 Q46 322 46 336 Q46 371 52 421 Q58 471 68 517.5 Q78 564 90 597.5 Q102 631 115 634 L154 634 Q161 634 163.5 623.5 Q166 613 166 608 Q166 581 159.5 553.5 Q153 526 148 499 Q135 436 128 371.5 Q121 307 121 244 Q121 135 173.5 77.5 Q226 20 336 20 Q374 20 410.5 27.5 Q447 35 482 47.5 Q517 60 551 75.5 Q585 91 618 107 Q665 129 713.5 156.5 Q762 184 808.5 216 Q855 248 897.5 283.5 Q940 319 974 358 Q985 370 998.5 384.5 Q1012 399 1016 415 Q1023 442 1028 478 Q1033 514 1040 546.5 Q1047 579 1059 602 Q1071 625 1092 625 Q1098 625 1105 623 Q1112 621 1119 616 Q1126 611 1130.5 601 Q1135 591 1135 575 Z " />
<glyph glyph-name="V" unicode="V" horiz-adv-x="1198" d="M1232 622 Q1231 562 1226 500 Q1221 438 1210 376 Q1199 314 1181.5 253.5 Q1164 193 1139 137 Q1123 100 1106.5 70.5 Q1090 41 1068 20.5 Q1046 0 1017 -11 Q988 -22 946 -22 Q881 -22 815 5 Q749 32 685.5 76 Q622 120 561 177.5 Q500 235 445.5 295 Q391 355 343.5 414 Q296 473 258 521 Q241 544 223 565 L136 574 Q124 575 104.5 576 Q85 577 66.5 582 Q48 587 35 597 Q22 607 22 626 Q22 640 34 648.5 Q46 657 61.5 661 Q77 665 93 666 Q109 667 118 667 Q163 667 195.5 653 Q228 639 259 607 Q276 606 319.5 604 Q363 602 420.5 600.5 Q478 599 543 597.5 Q608 596 667 595 Q726 594 772 593.5 Q818 593 838 593 Q856 593 871.5 588.5 Q887 584 887 568 Q887 562 882 558 Q877 554 870 554 Q859 554 854 562 L321 562 Q313 562 306.5 560.5 Q300 559 300 553 Q300 550 315.5 529 Q331 508 356.5 477.5 Q382 447 415 409 Q448 371 483 333 Q518 295 553.5 260 Q589 225 618 200 Q650 173 690.5 141.5 Q731 110 775.5 84 Q820 58 866 40.5 Q912 23 956 23 Q997 23 1028 51 Q1059 79 1082.5 124.5 Q1106 170 1122.5 226 Q1139 282 1150.5 338 Q1162 394 1168.5 444 Q1175 494 1178 526 Q1179 535 1179 554 Q1179 573 1181 592 Q1183 611 1189 625.5 Q1195 640 1208 640 Q1232 640 1232 622 Z " />
<glyph glyph-name="W" unicode="W" horiz-adv-x="1334" d="M1428 520 Q1428 509 1420.5 503.5 Q1413 498 1404.5 495.5 Q1396 493 1389 492.5 Q1382 492 1383 490 Q1396 466 1403 445 Q1410 424 1410 397 Q1410 340 1381 285 Q1352 230 1304 181 Q1256 132 1194.5 91 Q1133 50 1069 20 Q1005 -10 942.5 -26.5 Q880 -43 831 -43 Q777 -43 739.5 -23.5 Q702 -4 677.5 27 Q653 58 639 97 Q625 136 618 173.5 Q611 211 609.5 244 Q608 277 608 297 Q608 308 607 307 Q578 282 545.5 245 Q513 208 477.5 168 Q442 128 403.5 88 Q365 48 324.5 16.5 Q284 -15 241.5 -35 Q199 -55 154 -55 Q127 -55 110 -44.5 Q93 -34 84 -16 Q75 2 71.5 26.5 Q68 51 68 78 Q68 105 72.5 140.5 Q77 176 82 208.5 Q87 241 91.5 264.5 Q96 288 96 292 Q96 302 88 304.5 Q80 307 71 309.5 Q62 312 54.5 318.5 Q47 325 48 343 L50 371 Q55 435 58.5 473 Q62 511 69.5 534 Q77 557 90.5 570 Q104 583 129 595 Q134 598 136.5 602 Q139 606 142 609.5 Q145 613 148.5 616 Q152 619 159 619 Q180 619 180 593 Q176 567 171.5 540 Q167 513 165 487 Q164 473 159.5 439.5 Q155 406 149.5 363 Q144 320 137.5 272.5 Q131 225 126 183.5 Q121 142 117.5 111.5 Q114 81 114 71 Q114 59 115 44 Q116 29 120 16.5 Q124 4 133.5 -4.5 Q143 -13 159 -13 Q186 -13 213 -1.5 Q240 10 272 35 Q304 60 344.5 98.5 Q385 137 437 191 Q462 217 481.5 239.5 Q501 262 520 284 Q539 306 559 327.5 Q579 349 605 373 Q608 377 615 377 Q635 377 644 367 Q653 357 656 341 Q659 325 658.5 306.5 Q658 288 659 271 Q663 229 669.5 181.5 Q676 134 693 93.5 Q710 53 741 26 Q772 -1 825 -1 Q865 -1 920.5 15 Q976 31 1035.5 58.5 Q1095 86 1153.5 124 Q1212 162 1258.5 206.5 Q1305 251 1333.5 299 Q1362 347 1362 396 Q1362 412 1355.5 431.5 Q1349 451 1331 468 Q1313 485 1280 496.5 Q1247 508 1193 508 Q1153 508 1119.5 506.5 Q1086 505 1047 501.5 Q1008 498 956 493 Q904 488 825 481 Q811 481 798 485 Q785 489 785 503 Q785 518 808 529.5 Q831 541 866.5 548.5 Q902 556 945 561 Q988 566 1027.5 569 Q1067 572 1098 573 Q1129 574 1141 574 Q1187 574 1225 567.5 Q1263 561 1291 552.5 Q1319 544 1335.5 537.5 Q1352 531 1355 531 Q1363 531 1378 534.5 Q1393 538 1401 541 Q1407 543 1410 543 Q1417 543 1422.5 537.5 Q1428 532 1428 520 Z " />
<glyph glyph-name="X" unicode="X" horiz-adv-x="1223" d="M1356 49 Q1356 37 1342.5 27.5 Q1329 18 1308 11 Q1287 4 1261.5 -1 Q1236 -6 1212 -9.5 Q1188 -13 1168.5 -14.5 Q1149 -16 1141 -16 Q1053 -16 971 6 Q889 28 815 61 Q741 94 676 133.5 Q611 173 555 208 Q544 216 533.5 223.5 Q523 231 512 238 Q480 217 436.5 181 Q393 145 348.5 103 Q304 61 264 18 Q224 -25 198 -61 L210 -93 Q210 -95 206.5 -108 Q203 -121 196 -140 Q189 -159 178.5 -180.5 Q168 -202 153.5 -220 Q139 -238 121.5 -250 Q104 -262 82 -262 Q64 -262 53 -250.5 Q42 -239 42 -214 Q42 -200 57 -174 Q72 -148 96.5 -114.5 Q121 -81 153 -43 Q185 -5 219 33 Q253 71 287 106.5 Q321 142 349 169 Q367 187 388 204.5 Q409 222 426 236 Q443 250 454.5 260 Q466 270 466 272 Q466 274 455.5 282.5 Q445 291 428.5 303 Q412 315 392 329.5 Q372 344 352.5 358 Q333 372 316.5 384 Q300 396 291 403 Q285 408 269 420.5 Q253 433 232 448.5 Q211 464 189 482 Q167 500 148 515.5 Q129 531 117 543.5 Q105 556 105 561 Q105 572 109 581.5 Q113 591 126 591 Q132 591 141.5 584.5 Q151 578 161 569 Q171 560 181.5 549.5 Q192 539 201 531 Q261 480 320 436 Q327 431 343.5 418.5 Q360 406 381 391 Q402 376 424 360.5 Q446 345 464.5 332 Q483 319 495 311 Q507 303 508 303 Q509 304 510 304 Q511 304 513 306 Q524 315 560.5 341 Q597 367 649.5 401 Q702 435 765 472 Q828 509 891 540.5 Q954 572 1012.5 592 Q1071 612 1114 612 Q1115 612 1119.5 610 Q1124 608 1128.5 605 Q1133 602 1136.5 598.5 Q1140 595 1140 591 Q1140 589 1138.5 586 Q1137 583 1132 582 Q1092 574 1033 548.5 Q974 523 910 489.5 Q846 456 782.5 419 Q719 382 668 350.5 Q617 319 585.5 297.5 Q554 276 554 273 Q619 230 689.5 186.5 Q760 143 833.5 108 Q907 73 984 50.5 Q1061 28 1139 28 Q1190 28 1223.5 34.5 Q1257 41 1277.5 49 Q1298 57 1309.5 63.5 Q1321 70 1329 70 Q1337 70 1346.5 67.5 Q1356 65 1356 49 Z " />
<glyph glyph-name="Y" unicode="Y" horiz-adv-x="1031" d="M1151 52 Q1151 46 1140 38 Q1129 30 1114 22 Q1099 14 1084.5 7.5 Q1070 1 1063 -3 Q991 -41 946 -64 Q901 -87 875 -100 Q849 -113 838.5 -118 Q828 -123 826 -126 Q822 -133 818 -139 Q814 -144 810.5 -150 Q807 -156 805 -159 Q793 -179 773.5 -211 Q754 -243 729 -279.5 Q704 -316 675 -353 Q646 -390 615 -420 Q584 -450 552.5 -469 Q521 -488 491 -488 Q440 -488 440 -434 Q440 -404 465.5 -366.5 Q491 -329 526.5 -292.5 Q562 -256 599.5 -225 Q637 -194 662 -177 Q677 -167 699 -152.5 Q721 -138 741.5 -124 Q762 -110 777 -99.5 Q792 -89 793 -87 Q831 -18 866 56.5 Q901 131 940 200 L914 178 Q875 145 831.5 110.5 Q788 76 741 48 Q694 20 643.5 2.5 Q593 -15 539 -15 Q472 -15 422 18.5 Q372 52 332 102 Q292 152 259.5 209 Q227 266 195 314 Q193 320 190.5 321.5 Q188 323 183 323 Q176 323 169 320 Q162 317 154 317 Q141 317 132 327 Q123 337 117 352 Q111 367 107 383.5 Q103 400 99 413 Q92 437 81 463 Q70 489 59.5 515.5 Q49 542 41 569 Q33 596 33 621 Q33 632 44 641 Q55 650 66 650 Q78 650 89 634.5 Q100 619 110 597.5 Q120 576 128.5 554.5 Q137 533 143 521 Q162 482 187.5 430.5 Q213 379 243.5 324.5 Q274 270 309.5 217 Q345 164 383.5 122.5 Q422 81 463 55.5 Q504 30 546 30 Q591 30 630 47.5 Q669 65 707 87 Q805 144 884.5 220.5 Q964 297 1021 395 Q1032 413 1041.5 432 Q1051 451 1060 470 Q1066 481 1070 494.5 Q1074 508 1079 519 Q1084 530 1090 537.5 Q1096 545 1106 545 Q1120 545 1126 540.5 Q1132 536 1132 522 Q1132 502 1122.5 488.5 Q1113 475 1105 458 Q1081 399 1048.5 329.5 Q1016 260 984 191.5 Q952 123 923 60 Q894 -3 876 -50 Q894 -39 952 -10.5 Q1010 18 1114 75 Q1116 76 1119 76 L1126 76 Q1151 76 1151 52 Z M750 -178 Q750 -172 745 -172 Q735 -172 712 -188 Q689 -204 660.5 -228.5 Q632 -253 602 -283.5 Q572 -314 547.5 -342.5 Q523 -371 507 -394.5 Q491 -418 491 -430 Q491 -440 503 -440 Q508 -440 516.5 -436 Q525 -432 534.5 -426.5 Q544 -421 552 -415.5 Q560 -410 563 -407 Q573 -398 589.5 -381 Q606 -364 625 -343 Q644 -322 664 -298.5 Q684 -275 701.5 -252.5 Q719 -230 732 -210.5 Q745 -191 750 -178 Z " />
<glyph glyph-name="Z" unicode="Z" horiz-adv-x="1040" d="M1173 47 Q1173 46 1163 34.5 Q1153 23 1134.5 6.5 Q1116 -10 1088 -29 Q1060 -48 1024.5 -64 Q989 -80 945 -90.5 Q901 -101 850 -101 Q807 -101 763 -89 Q719 -77 676.5 -59 Q634 -41 594 -20 Q554 1 519 19 Q493 32 461 47.5 Q429 63 399 76.5 Q369 90 346.5 99.5 Q324 109 317 109 Q310 109 288 95 Q266 81 239.5 62.5 Q213 44 188 25.5 Q163 7 151 -2 Q141 -10 129.5 -18.5 Q118 -27 106 -35 Q94 -43 82.5 -48 Q71 -53 61 -53 Q50 -53 40.5 -48 Q31 -43 31 -31 Q31 -10 54.5 15.5 Q78 41 110.5 65 Q143 89 175.5 108 Q208 127 226 136 Q245 146 265.5 148.5 Q286 151 306 162 Q313 166 328 176 Q343 186 359 197.5 Q375 209 388.5 220 Q402 231 405 237 Q402 243 399 248 Q396 253 396 258 Q396 272 407.5 277 Q419 282 435 284 Q451 286 468 287 Q485 288 495 294 Q510 303 537 322 Q564 341 594.5 363 Q625 385 655.5 408 Q686 431 708 447 Q720 455 741.5 469.5 Q763 484 784 499 Q805 514 820.5 526 Q836 538 836 541 Q836 545 830 549 Q810 549 735.5 547.5 Q661 546 516 546 Q440 546 366 551.5 Q292 557 214 561 Q196 562 181 567 Q166 572 166 595 Q166 606 171.5 613 Q177 620 185 624.5 Q193 629 202.5 631 Q212 633 220 633 Q277 633 335 631.5 Q393 630 450 627 Q466 621 470.5 614.5 Q475 608 478.5 603 Q482 598 491 594.5 Q500 591 525 591 L860 591 Q874 594 890 597 Q906 600 920 600 Q930 600 941.5 595.5 Q953 591 953 577 Q953 568 940 556.5 Q927 545 909 533 Q891 521 871 509 Q851 497 836 486 Q827 480 805 464 Q783 448 755 427.5 Q727 407 697 385 Q667 363 642 344 Q617 325 601 312 Q585 299 585 297 Q585 293 596 292 Q607 291 626 291 Q653 291 691.5 292.5 Q730 294 765 294 Q806 294 834.5 290 Q863 286 863 272 Q863 264 857.5 259 Q852 254 844 251 Q836 248 827 247 Q818 246 811 246 L504 246 Q496 241 474.5 227.5 Q453 214 430 198 Q407 182 389.5 167 Q372 152 372 145 Q372 139 380.5 134.5 Q389 130 396 127 Q463 99 526.5 65 Q590 31 657 4 Q689 -9 713 -20.5 Q737 -32 760.5 -40.5 Q784 -49 811 -54 Q838 -59 875 -59 Q934 -59 980.5 -39.5 Q1027 -20 1061 4 Q1095 28 1117.5 47.5 Q1140 67 1151 67 Q1166 67 1169.5 57.5 Q1173 48 1173 47 Z " />
<glyph glyph-name="bracketleft" unicode="&#x5b;" horiz-adv-x="199" d="M380 636 Q380 627 371 621 Q362 615 348.5 611.5 Q335 608 318 607 Q301 606 286 606 L243 606 Q235 603 224 571.5 Q213 540 201.5 491.5 Q190 443 179 384 Q168 325 159.5 268 Q151 211 145.5 162 Q140 113 140 84 Q140 16 168 -12 Q196 -40 266 -40 Q296 -40 309 -45 Q322 -50 322 -58 Q322 -69 302 -78.5 Q282 -88 252 -88 Q180 -88 136 -47 Q92 -6 92 68 Q92 103 98.5 161.5 Q105 220 115.5 288.5 Q126 357 139.5 427 Q153 497 167.5 554 Q182 611 196.5 647 Q211 683 223 683 Q235 683 239 679 Q243 675 244.5 669.5 Q246 664 247 658.5 Q248 653 255 650 Q300 650 317.5 651 Q335 652 339.5 653.5 Q344 655 343.5 656 Q343 657 352 657 Q362 657 371 652.5 Q380 648 380 636 Z " />
<glyph glyph-name="backslash" unicode="&#x5c;" horiz-adv-x="248" d="M244 -24 Q244 -34 238.5 -40.5 Q233 -47 222 -47 Q217 -47 213 -45.5 Q209 -44 205 -39 Q190 22 170.5 101 Q151 180 130.5 263 Q110 346 90 426 Q70 506 54.5 569 Q39 632 29 670.5 Q19 709 19 709 L19 708 Q17 714 17 718.5 Q17 723 17 727 Q17 741 23.5 744.5 Q30 748 37 748 Q53 748 58.5 735 Q64 722 68 705 L237 25 Q237 17 240.5 2.5 Q244 -12 244 -24 Z " />
<glyph glyph-name="bracketright" unicode="&#x5d;" horiz-adv-x="229" d="M207 416 Q207 366 205.5 315 Q204 264 201.5 217.5 Q199 171 195 132 Q191 93 186 68 Q179 31 161.5 2 Q144 -27 119.5 -47 Q95 -67 63.5 -77.5 Q32 -88 -4 -88 Q-35 -88 -52 -78.5 Q-69 -69 -69 -58 Q-67 -50 -53 -45 Q-39 -40 -9 -40 Q27 -40 52.5 -33.5 Q78 -27 95.5 -12 Q113 3 124 26.5 Q135 50 141 84 Q146 107 149.5 141.5 Q153 176 155.5 217.5 Q158 259 159 304.5 Q160 350 160 394 Q160 436 158.5 473.5 Q157 511 154.5 540 Q152 569 148 586.5 Q144 604 138 606 L95 606 Q80 606 64.5 607 Q49 608 36.5 611 Q24 614 15.5 619.5 Q7 625 7 633 Q7 647 18 652 Q29 657 39 657 Q48 657 47 656 Q46 655 50.5 653.5 Q55 652 72 651 Q89 650 134 650 Q142 653 144 658.5 Q146 664 148.5 669.5 Q151 675 156 679 Q161 683 173 683 Q182 683 188.5 661 Q195 639 199 602.5 Q203 566 205 517.5 Q207 469 207 416 Z " />
<glyph glyph-name="asciicircum" unicode="&#x5e;" horiz-adv-x="461" d="M414 25 Q414 12 396 -2 Q378 -16 345 -27.5 Q312 -39 266.5 -46.5 Q221 -54 165 -54 Q145 -54 116 -56.5 Q87 -59 58 -59 Q22 -59 -5 -54 Q-32 -49 -32 -35 Q-32 -14 -19.5 -8.5 Q-7 -3 9 -3 Q33 -3 59.5 -7.5 Q86 -12 112 -12 Q134 -12 173.5 -10.5 Q213 -9 252 -4.5 Q291 0 319.5 7 Q348 14 348 26 Q348 35 327.5 41 Q307 47 276 52.5 Q245 58 209 64 Q173 70 142 79 Q111 88 90.5 101 Q70 114 70 134 Q70 156 92 170.5 Q114 185 143 194 Q172 203 201.5 206.5 Q231 210 246 210 Q260 210 268 207.5 Q276 205 276 194 Q276 180 264 175 Q257 172 233.5 169.5 Q210 167 185 163 Q160 159 140.5 152 Q121 145 121 134 Q121 130 134.5 124.5 Q148 119 168.5 113.5 Q189 108 213.5 103 Q238 98 260.5 93.5 Q283 89 299.5 86 Q316 83 321 82 Q355 75 374 68 Q393 61 402 54 Q411 47 412.5 39.5 Q414 32 414 25 Z " />
<glyph glyph-name="underscore" unicode="&#x5f;" horiz-adv-x="509" d="M509 1 Q509 -6 505 -13 Q501 -20 494 -22 L43 -22 Q36 -20 32 -13 Q28 -6 28 1 Q28 7 31.5 16 Q35 25 43 25 L494 25 Q502 25 505.5 16 Q509 7 509 1 Z " />
<glyph glyph-name="grave" unicode="&#x60;" horiz-adv-x="413" d="M250 371 Q250 363 245.5 356.5 Q241 350 234 350 Q232 350 227 353 Q214 387 204.5 410.5 Q195 434 189 450 Q183 466 180 475.5 Q177 485 177 491 Q177 502 182.5 506 Q188 510 191 510 Q198 510 203.5 499 Q209 488 214 476 Q231 429 240.5 406.5 Q250 384 250 371 Z " />
<glyph glyph-name="a" unicode="a" horiz-adv-x="889" d="M1021 37 Q1021 28 1015 22.5 Q1009 17 1000.5 13.5 Q992 10 982 8 Q972 6 964 3 Q936 -6 906.5 -16.5 Q877 -27 847.5 -36 Q818 -45 788 -51 Q758 -57 728 -57 Q688 -57 658 -39 Q628 -21 599 6 Q591 13 580 26 Q569 39 557 39 Q550 39 539 35.5 Q528 32 516 27 Q504 22 492.5 17 Q481 12 473 9 Q413 -11 354 -17.5 Q295 -24 228 -24 Q215 -24 190.5 -21.5 Q166 -19 141.5 -12 Q117 -5 99 6 Q81 17 81 34 Q81 48 83 56 Q85 64 99 72 Q135 92 182.5 110.5 Q230 129 283 145 Q336 161 392.5 173.5 Q449 186 501.5 195.5 Q554 205 600.5 210 Q647 215 680 215 Q687 215 694.5 214.5 Q702 214 708 212 Q714 210 718 204.5 Q722 199 722 190 Q722 180 708 172 Q694 164 672 157 Q650 150 624 145 Q598 140 574 136.5 Q550 133 531.5 131 Q513 129 506 129 Q494 129 485.5 133.5 Q477 138 463 138 Q453 138 425.5 132.5 Q398 127 362.5 118 Q327 109 288.5 98 Q250 87 218 76 Q186 65 165 55.5 Q144 46 144 40 Q144 32 160.5 27 Q177 22 197.5 19.5 Q218 17 236.5 16 Q255 15 258 15 Q317 15 368 23 Q419 31 473 51 Q495 59 518 71.5 Q541 84 565 84 Q583 84 599 68.5 Q615 53 632.5 34 Q650 15 671.5 -1 Q693 -17 722 -18 Q767 -20 816 -3.5 Q865 13 910 27 Q930 33 955 43.5 Q980 54 1000 54 Q1009 54 1015 51 Q1021 48 1021 37 Z " />
<glyph glyph-name="b" unicode="b" horiz-adv-x="561" d="M694 53 Q694 47 689 39.5 Q684 32 679 32 Q618 32 556.5 32 Q495 32 433 34 Q421 6 402 -10.5 Q383 -27 360 -36 Q337 -45 310.5 -47.5 Q284 -50 257 -50 Q226 -50 196.5 -42 Q167 -34 144.5 -17.5 Q122 -1 108.5 24.5 Q95 50 95 85 Q95 122 103.5 180 Q112 238 126 303 Q140 368 158.5 434 Q177 500 197 552 Q204 571 214.5 594.5 Q225 618 239 638.5 Q253 659 270 673 Q287 687 308 687 Q318 687 324 681 Q330 675 333 666.5 Q336 658 337 649 Q338 640 338 633 Q338 582 323 522.5 Q308 463 285 403 Q262 343 236 287.5 Q210 232 187 188.5 Q164 145 149 118 Q134 91 134 89 Q134 56 145 36.5 Q156 17 174.5 6.5 Q193 -4 218 -7.5 Q243 -11 270 -11 Q284 -11 301 -10 Q318 -9 334.5 -5 Q351 -1 365.5 7 Q380 15 388 28 Q388 42 377.5 48.5 Q367 55 351 58.5 Q335 62 316.5 64.5 Q298 67 282 73.5 Q266 80 255.5 91 Q245 102 245 123 Q245 131 253 141 Q261 151 272 151 Q301 151 327 144 Q353 137 374.5 126.5 Q396 116 410.5 103.5 Q425 91 429 79 Q432 79 459 78.5 Q486 78 523.5 77 Q561 76 601 75.5 Q641 75 671 75 Q694 75 694 53 Z M296 622 Q296 630 290 630 Q280 630 265.5 602.5 Q251 575 235 532.5 Q219 490 204 440 Q189 390 177 344.5 Q165 299 157.5 264.5 Q150 230 150 220 Q150 218 149 213 Q148 208 148 205 Q153 205 165.5 230.5 Q178 256 194.5 295.5 Q211 335 229 383.5 Q247 432 262 478 Q277 524 286.5 563 Q296 602 296 622 Z " />
<glyph glyph-name="c" unicode="c" horiz-adv-x="750" d="M879 57 Q879 49 873.5 41.5 Q868 34 853 31 Q735 10 618.5 -5 Q502 -20 382 -20 Q358 -20 326 -19.5 Q294 -19 260.5 -17 Q227 -15 195 -10.5 Q163 -6 137.5 2 Q112 10 96.5 22.5 Q81 35 81 53 Q81 80 121.5 102.5 Q162 125 224 143 Q286 161 360.5 174 Q435 187 503.5 196 Q572 205 625.5 209.5 Q679 214 698 214 Q714 214 731.5 203 Q749 192 749 177 Q749 172 746 166 Q739 157 719.5 150 Q700 143 676 138.5 Q652 134 626.5 132 Q601 130 581 130 Q565 130 554.5 138 Q544 146 533 157 L515 157 Q515 157 486 153.5 Q457 150 414.5 143 Q372 136 322 127 Q272 118 229.5 106.5 Q187 95 158.5 82.5 Q130 70 130 56 Q130 46 144.5 39 Q159 32 182 27.5 Q205 23 232 21 Q259 19 284.5 17.5 Q310 16 329.5 16 Q349 16 356 16 Q418 16 479 20.5 Q540 25 595.5 31.5 Q651 38 699.5 46 Q748 54 784.5 60.5 Q821 67 843 71.5 Q865 76 868 76 Q872 76 875.5 70.5 Q879 65 879 57 Z " />
<glyph glyph-name="d" unicode="d" horiz-adv-x="1093" d="M1225 42 Q1225 33 1207.5 23 Q1190 13 1163 4 Q1136 -5 1104 -13 Q1072 -21 1042 -26.5 Q1012 -32 988.5 -35.5 Q965 -39 956 -39 Q913 -39 881.5 -24.5 Q850 -10 830 15 Q810 40 800.5 74 Q791 108 791 147 Q791 153 791 160.5 Q791 168 789 179 Q738 120 678.5 80 Q619 40 555.5 15.5 Q492 -9 427 -19.5 Q362 -30 300 -30 Q273 -30 238 -28 Q203 -26 171 -19 Q139 -12 117 0 Q95 12 95 32 Q95 50 105 62.5 Q115 75 129.5 83.5 Q144 92 160 97.5 Q176 103 189 108 Q304 152 419 175 Q534 198 656 198 Q686 198 710 200.5 Q734 203 751.5 212 Q769 221 780.5 238 Q792 255 798 284 Q809 345 818 405.5 Q827 466 836 527 Q837 535 839.5 557 Q842 579 846.5 602 Q851 625 859.5 643 Q868 661 881 661 Q886 661 894.5 656 Q903 651 903 630 Q903 617 899.5 600.5 Q896 584 891.5 569 Q887 554 883 542 Q879 530 878 524 Q861 436 847 341.5 Q833 247 833 154 Q833 122 838.5 94.5 Q844 67 858.5 46.5 Q873 26 896.5 14.5 Q920 3 956 3 Q1002 3 1053 17 Q1104 31 1147 45 Q1162 50 1177.5 55 Q1193 60 1216 60 Q1221 56 1223 53.5 Q1225 51 1225 42 Z M695 150 Q695 155 685.5 156.5 Q676 158 659 158 Q635 158 603 155.5 Q571 153 540 149.5 Q509 146 485.5 142.5 Q462 139 456 138 Q447 136 420.5 130.5 Q394 125 359.5 117 Q325 109 287.5 99.5 Q250 90 219 79.5 Q188 69 167.5 58.5 Q147 48 147 39 Q147 21 178 14 Q209 7 251 7 Q367 7 450.5 26.5 Q534 46 588.5 71 Q643 96 669 119.5 Q695 143 695 150 Z " />
<glyph glyph-name="e" unicode="e" horiz-adv-x="703" d="M838 76 Q838 69 815 59 Q792 49 763 39.5 Q734 30 706.5 22.5 Q679 15 670 13 Q653 9 616 2 Q579 -5 531 -11.5 Q483 -18 427.5 -22.5 Q372 -27 319 -27 Q274 -27 233.5 -22.5 Q193 -18 162 -7 Q131 4 113 23 Q95 42 95 71 Q95 100 119.5 123 Q144 146 183 163.5 Q222 181 271 193 Q320 205 369 213 Q418 221 463 224.5 Q508 228 538 228 Q546 228 565.5 227 Q585 226 605.5 222.5 Q626 219 642 211 Q658 203 658 188 Q658 165 632.5 147 Q607 129 567 116.5 Q527 104 478.5 95.5 Q430 87 385 81.5 Q340 76 303.5 73.5 Q267 71 251 70 Q235 69 217 68.5 Q199 68 184 67.5 Q169 67 159 66.5 Q149 66 149 65 Q149 50 167 40.5 Q185 31 209 25.5 Q233 20 256.5 18 Q280 16 291 16 Q371 16 432 20 Q493 24 546.5 32 Q600 40 650.5 52 Q701 64 760 79 Q765 80 773 82.5 Q781 85 790 87.5 Q799 90 807 92 Q815 94 818 94 Q826 94 832 90.5 Q838 87 838 76 Z M595 178 Q595 184 588.5 186 Q582 188 574 188 Q539 188 497.5 185.5 Q456 183 414 178 Q372 173 332 166 Q292 159 259.5 150 Q227 141 203.5 130.5 Q180 120 172 107 Q209 107 248.5 109 Q288 111 328.5 115 Q369 119 408.5 124.5 Q448 130 484 136 Q492 138 510.5 142 Q529 146 547.5 152 Q566 158 580.5 164.5 Q595 171 595 178 Z " />
<glyph glyph-name="f" unicode="f" horiz-adv-x="456" d="M591 78 Q591 66 572.5 58.5 Q554 51 528 46.5 Q502 42 474.5 39.5 Q447 37 429 35 Q424 34 407.5 33.5 Q391 33 370 32.5 Q349 32 326 31 Q303 30 284 29.5 Q265 29 252.5 28.5 Q240 28 240 27 Q245 -20 247.5 -65.5 Q250 -111 250 -155 Q250 -218 245.5 -272.5 Q241 -327 232 -367.5 Q223 -408 209.5 -431.5 Q196 -455 177 -455 Q168 -455 163 -450.5 Q158 -446 155.5 -439 Q153 -432 152 -425 Q151 -418 151 -412 Q151 -397 153.5 -361 Q156 -325 159.5 -280 Q163 -235 167.5 -185 Q172 -135 175.5 -91 Q179 -47 181.5 -14 Q184 19 184 31 Q184 34 164.5 36.5 Q145 39 121 43.5 Q97 48 77.5 55.5 Q58 63 58 76 Q58 85 63.5 89 Q69 93 77 93 Q105 93 132.5 87 Q160 81 190 81 Q194 109 198 155 Q202 201 207.5 257.5 Q213 314 220 376 Q227 438 235.5 497 Q244 556 255 607.5 Q266 659 280 695 Q281 697 284.5 698 Q288 699 292.5 699.5 Q297 700 301.5 702 Q306 704 309 707 Q312 712 318.5 719 Q325 726 332 732.5 Q339 739 346.5 744 Q354 749 360 749 Q402 748 443 745.5 Q484 743 517 737 Q550 731 570.5 720.5 Q591 710 591 692 Q591 678 580 670 Q569 662 555 662 Q496 662 438.5 665.5 Q381 669 322 680 Q318 681 310.5 642.5 Q303 604 294 544 Q285 484 275.5 411.5 Q266 339 258 271.5 Q250 204 244.5 150 Q239 96 238 73 Q290 73 344 74.5 Q398 76 450 81 Q479 83 507 88 Q535 93 564 93 Q569 93 580 91 Q591 89 591 78 Z " />
<glyph glyph-name="g" unicode="g" horiz-adv-x="799" d="M934 44 Q934 40 930 39 Q929 39 910 29 Q891 19 863 4.5 Q835 -10 802.5 -27 Q770 -44 742.5 -59 Q715 -74 696.5 -84.5 Q678 -95 678 -96 Q676 -108 671.5 -130 Q667 -152 661 -177 Q658 -192 652.5 -218 Q647 -244 639 -274.5 Q631 -305 620.5 -336 Q610 -367 596.5 -392 Q583 -417 566 -433 Q549 -449 528 -449 Q511 -449 501 -440.5 Q491 -432 486 -419 Q481 -406 479.5 -391 Q478 -376 478 -364 Q478 -324 493.5 -280 Q509 -236 532.5 -196 Q556 -156 583.5 -124.5 Q611 -93 636 -79 Q644 -45 650 -18 Q655 5 659.5 25 Q664 45 664 47 Q664 52 663 56 Q662 60 656 60 Q648 60 633 55 Q618 50 601.5 43.5 Q585 37 569.5 30.5 Q554 24 544 21 Q480 1 414 -10 Q348 -21 281 -21 Q257 -21 225 -19.5 Q193 -18 164 -11.5 Q135 -5 115 9.5 Q95 24 95 51 Q95 69 114 83.5 Q133 98 161 108.5 Q189 119 219.5 126 Q250 133 272 138 Q382 161 500.5 179.5 Q619 198 733 198 Q750 198 759.5 190.5 Q769 183 769 165 Q769 154 745.5 146 Q722 138 691.5 133 Q661 128 632.5 125.5 Q604 123 595 123 Q584 123 574.5 126 Q565 129 556 132 Q547 135 537.5 138 Q528 141 517 141 Q505 141 472 137 Q439 133 397.5 126.5 Q356 120 310.5 110.5 Q265 101 227 91 Q189 81 164.5 70.5 Q140 60 140 50 Q140 40 152 33 Q164 26 183.5 22 Q203 18 227 16.5 Q251 15 276 15 Q327 15 375 21 Q423 27 472.5 39.5 Q522 52 575.5 72 Q629 92 690 120 Q694 120 700.5 113.5 Q707 107 709 105 L709 88 Q709 84 705 62 Q701 40 696.5 15.5 Q692 -9 688.5 -28 Q685 -47 685 -47 Q692 -43 708 -33 Q724 -23 744.5 -11 Q765 1 788 14 Q811 27 833.5 37.5 Q856 48 874.5 54.5 Q893 61 905 61 Q918 61 926 55 Q934 49 934 44 Z M622 -168 Q622 -166 621.5 -162.5 Q621 -159 617 -159 Q608 -159 593.5 -179.5 Q579 -200 564.5 -226 Q550 -252 539 -276 Q528 -300 526 -308 Q517 -340 517 -374 Q517 -383 519 -393.5 Q521 -404 532 -404 Q544 -404 555 -387 Q566 -370 576 -344 Q586 -318 594.5 -287.5 Q603 -257 609 -231 Q615 -205 618.5 -187 Q622 -169 622 -168 Z " />
<glyph glyph-name="h" unicode="h" horiz-adv-x="709" d="M844 48 Q844 41 838.5 34.5 Q833 28 825 22.5 Q817 17 807.5 13 Q798 9 790 6 Q745 -8 701.5 -22 Q658 -36 610 -36 Q562 -36 520.5 -12 Q479 12 443 42 Q432 51 420.5 63 Q409 75 396 85.5 Q383 96 369.5 103.5 Q356 111 341 111 Q326 111 306 99.5 Q286 88 265 71 Q244 54 222.5 34.5 Q201 15 182.5 -2 Q164 -19 149 -30.5 Q134 -42 127 -42 Q104 -42 95 -19.5 Q86 3 86 36 Q86 57 89.5 83 Q93 109 97.5 134 Q102 159 106.5 179 Q111 199 113 207 Q123 247 134.5 300 Q146 353 160 409 Q174 465 190.5 519.5 Q207 574 225 617 Q243 660 263 686.5 Q283 713 305 713 Q317 713 325 707 Q333 701 338 691.5 Q343 682 345 671 Q347 660 347 650 Q347 619 339.5 585 Q332 551 321 517 Q310 483 296.5 450.5 Q283 418 272 389 Q249 329 225 275 Q201 221 173 165 Q156 131 142 101.5 Q128 72 128 37 Q128 30 129.5 22.5 Q131 15 139 15 Q159 30 183 52.5 Q207 75 233.5 97 Q260 119 287 134.5 Q314 150 341 150 Q373 150 404.5 127 Q436 104 467.5 76.5 Q499 49 532 26 Q565 3 601 3 Q640 3 676.5 12 Q713 21 743 32.5 Q773 44 795.5 53 Q818 62 830 62 Q837 62 840.5 59.5 Q844 57 844 48 Z M307 643 Q307 659 299 659 Q291 659 278.5 632.5 Q266 606 251 565.5 Q236 525 221 476.5 Q206 428 194 383 Q182 338 174.5 303.5 Q167 269 167 256 Q167 250 169 250 Q174 250 185.5 276 Q197 302 211 338 Q225 374 239.5 413 Q254 452 263 479 Q269 496 276.5 518.5 Q284 541 291 564.5 Q298 588 302.5 609 Q307 630 307 643 Z " />
<glyph glyph-name="i" unicode="i" horiz-adv-x="367" d="M253 381 Q253 370 249.5 357 Q246 344 239 333 Q232 322 222 314.5 Q212 307 200 307 Q172 307 172 334 Q172 345 176 358 Q180 371 187.5 382.5 Q195 394 205 401.5 Q215 409 227 409 Q242 409 247.5 402 Q253 395 253 381 Z M471 51 Q471 41 453.5 32 Q436 23 409 15 Q382 7 349.5 0 Q317 -7 287.5 -12 Q258 -17 235.5 -19.5 Q213 -22 205 -22 Q157 -22 133 2 Q109 26 109 68 Q109 76 110.5 93 Q112 110 116 127 Q120 144 127 157 Q134 170 145 170 Q163 170 163 153 Q163 132 158.5 116 Q154 100 154 72 Q154 49 163.5 33 Q173 17 197 17 Q248 17 297 29 Q346 41 393 53 Q407 57 423.5 62.5 Q440 68 447 68 Q461 68 466 64 Q471 60 471 51 Z " />
<glyph glyph-name="j" unicode="j" horiz-adv-x="364" d="M364 378 Q364 367 361 354.5 Q358 342 351.5 331 Q345 320 335 312.5 Q325 305 311 305 Q295 305 289.5 317 Q284 329 284 338 Q284 347 287.5 359.5 Q291 372 297.5 383.5 Q304 395 314 402.5 Q324 410 336 410 Q348 410 356 401.5 Q364 393 364 378 Z M490 52 Q490 46 488 41 Q486 36 475 30 Q409 -5 354 -49.5 Q299 -94 257 -156 Q256 -168 253.5 -197.5 Q251 -227 246.5 -264 Q242 -301 234.5 -340.5 Q227 -380 216.5 -413 Q206 -446 192.5 -467 Q179 -488 161 -488 Q144 -488 137 -472 Q130 -456 130 -440 Q130 -415 136 -374.5 Q142 -334 153 -290 Q164 -246 178.5 -203 Q193 -160 211 -129 Q212 -128 215.5 -106 Q219 -84 223 -54.5 Q227 -25 230 6.5 Q233 38 233 58 Q233 69 232 73.5 Q231 78 223 78 Q209 78 195 72 Q181 66 167.5 58.5 Q154 51 141 45 Q128 39 116 39 Q108 39 101.5 42.5 Q95 46 95 55 Q95 67 112.5 79.5 Q130 92 152.5 101.5 Q175 111 197.5 117.5 Q220 124 230 124 Q248 124 265 118.5 Q282 113 282 93 Q282 79 279.5 52.5 Q277 26 274 0 Q270 -31 265 -64 Q267 -64 278 -54 Q289 -44 306 -29.5 Q323 -15 344.5 2.5 Q366 20 388.5 34.5 Q411 49 432 59 Q453 69 469 69 Q477 69 483.5 66 Q490 63 490 52 Z " />
<glyph glyph-name="k" unicode="k" horiz-adv-x="664" d="M790 47 Q790 39 781 33 Q753 18 724 4 Q695 -10 664.5 -21 Q634 -32 603 -38.5 Q572 -45 540 -45 Q504 -45 470 -34 Q436 -23 403.5 -7 Q371 9 340 27.5 Q309 46 279 62 Q261 49 241.5 29.5 Q222 10 203 -8 Q184 -26 167 -38.5 Q150 -51 137 -51 Q117 -51 107.5 -36 Q98 -21 98 -3 Q98 38 101 79.5 Q104 121 110 162 Q122 250 140.5 336 Q159 422 179 509 Q182 520 185 541.5 Q188 563 193.5 584.5 Q199 606 207.5 622 Q216 638 228 638 Q236 638 242.5 636 Q249 634 249 625 Q249 615 245.5 597 Q242 579 236.5 558 Q231 537 225.5 515 Q220 493 215 476 Q201 422 191 367.5 Q181 313 170 257 Q158 196 149 136.5 Q140 77 140 14 Q140 3 143 3 Q149 3 165 16.5 Q181 30 197.5 46.5 Q214 63 226.5 76.5 Q239 90 239 91 Q231 101 223 108.5 Q215 116 208.5 124.5 Q202 133 198 143 Q194 153 194 167 Q194 181 211 189 Q228 197 250.5 201.5 Q273 206 296 208 Q319 210 332 212 Q343 214 355.5 217.5 Q368 221 379 221 Q390 221 393 213.5 Q396 206 397 198 Q422 212 447 221.5 Q472 231 493 236 Q514 241 529 243 Q544 245 550 245 Q563 245 571.5 242 Q580 239 580 226 Q580 216 565.5 210.5 Q551 205 530 201.5 Q509 198 486 193.5 Q463 189 445 180 Q439 177 418 164 Q397 151 374 136 Q351 121 333 108.5 Q315 96 315 94 Q315 93 326 86.5 Q337 80 354 70.5 Q371 61 391.5 50 Q412 39 430.5 29 Q449 19 464 12 Q479 5 484 3 Q514 -6 541 -6 Q576 -6 612.5 5 Q649 16 682 30 Q691 34 701.5 40 Q712 46 723 52 Q734 58 745.5 62 Q757 66 767 66 Q777 66 783.5 60.5 Q790 55 790 47 Z M336 166 Q336 171 321 171 Q311 171 298.5 169 Q286 167 275 164 Q264 161 256 157.5 Q248 154 248 151 Q248 145 252 140 Q256 135 261 131 Q266 127 271 125 Q276 123 278 123 Q278 123 287.5 129.5 Q297 136 307.5 143.5 Q318 151 327 158 Q336 165 336 166 Z " />
<glyph glyph-name="l" unicode="l" horiz-adv-x="359" d="M488 49 Q488 37 479 34 Q453 20 418 4.5 Q383 -11 345.5 -23.5 Q308 -36 271 -44.5 Q234 -53 204 -53 Q171 -53 150 -42.5 Q129 -32 117 -13 Q105 6 100.5 32 Q96 58 96 88 Q96 104 98 137.5 Q100 171 104.5 214.5 Q109 258 115.5 308 Q122 358 131.5 408 Q141 458 153 504 Q165 550 180 585.5 Q195 621 213 642 Q231 663 253 663 Q267 663 275.5 656 Q284 649 288 638.5 Q292 628 293 615 Q294 602 294 591 Q294 532 282 470.5 Q270 409 252.5 351 Q235 293 214.5 242 Q194 191 176.5 152 Q159 113 147 90.5 Q135 68 135 67 Q135 31 148 8.5 Q161 -14 202 -14 Q238 -14 272 -5 Q306 4 338.5 17 Q371 30 401.5 43.5 Q432 57 461 67 Q467 69 470 69 Q479 69 483.5 63 Q488 57 488 49 Z M255 603 Q255 615 247 615 Q237 615 227 596 Q217 577 208 547.5 Q199 518 190.5 483 Q182 448 175.5 416 Q169 384 164.5 359.5 Q160 335 159 327 Q157 314 153 289 Q149 264 145 236.5 Q141 209 138 184 Q135 159 135 146 Q138 147 146 167 Q154 187 163 212 Q172 237 180 260 Q188 283 190 290 Q216 365 235.5 445 Q255 525 255 603 Z " />
<glyph glyph-name="m" unicode="m" horiz-adv-x="1029" d="M1164 56 Q1164 38 1130 16 Q1086 -13 1033.5 -28.5 Q981 -44 930 -44 Q899 -44 881 -30 Q863 -16 853 4.5 Q843 25 838.5 49 Q834 73 830 93.5 Q826 114 820 128 Q814 142 801 142 Q781 142 759.5 129.5 Q738 117 714.5 98.5 Q691 80 667 58 Q643 36 619.5 17.5 Q596 -1 572.5 -13.5 Q549 -26 527 -26 Q507 -26 496 -14 Q485 -2 479.5 16.5 Q474 35 472.5 56.5 Q471 78 468 96.5 Q465 115 458.5 127 Q452 139 439 139 Q422 139 392 123.5 Q362 108 324.5 85 Q287 62 245.5 35.5 Q204 9 163 -14 Q154 -19 147 -21 Q140 -23 129 -23 Q106 -23 96 -7.5 Q86 8 88 28 Q90 64 92.5 86.5 Q95 109 98.5 122 Q102 135 107.5 140 Q113 145 120 145 Q134 145 138 141.5 Q142 138 142 124 Q142 104 139 84 Q136 64 136 42 Q136 37 137 32.5 Q138 28 141 28 Q152 28 172.5 38.5 Q193 49 215.5 63.5 Q238 78 258.5 92 Q279 106 289 112 Q301 120 322 133 Q343 146 366.5 158.5 Q390 171 412 180.5 Q434 190 447 190 Q468 190 480 177.5 Q492 165 499 146.5 Q506 128 509 106 Q512 84 515 65.5 Q518 47 522 34.5 Q526 22 534 22 Q550 22 570.5 34.5 Q591 47 614 65.5 Q637 84 662 106 Q687 128 712 146.5 Q737 165 761.5 177.5 Q786 190 808 190 Q829 190 841 176 Q853 162 860.5 141 Q868 120 872.5 95.5 Q877 71 883 50 Q889 29 897.5 15 Q906 1 922 1 Q979 1 1018.5 12 Q1058 23 1084.5 35.5 Q1111 48 1126.5 59 Q1142 70 1150 70 Q1164 70 1164 56 Z " />
<glyph glyph-name="n" unicode="n" horiz-adv-x="734" d="M875 50 Q875 45 847.5 31.5 Q820 18 783 4 Q746 -10 710 -21 Q674 -32 656 -32 Q624 -32 598.5 -19.5 Q573 -7 552.5 11.5 Q532 30 515 52 Q498 74 482.5 92.5 Q467 111 452.5 123.5 Q438 136 422 136 Q406 136 387 128.5 Q368 121 348.5 110 Q329 99 311 87.5 Q293 76 279 67 Q265 58 245 44 Q225 30 204 16.5 Q183 3 163 -7 Q143 -17 129 -17 Q107 -17 101 3 Q95 23 95 48 Q95 57 96 76 Q97 95 100.5 114.5 Q104 134 110.5 148.5 Q117 163 127 163 Q136 163 143 158 Q150 153 150 145 Q150 122 145.5 100.5 Q141 79 141 58 Q141 51 142 45.5 Q143 40 151 40 Q157 40 175 50.5 Q193 61 218 77 Q243 93 272 111 Q301 129 329.5 145 Q358 161 382.5 171.5 Q407 182 422 182 Q444 182 462.5 169.5 Q481 157 499 137.5 Q517 118 534 96 Q551 74 569 54.5 Q587 35 606.5 22.5 Q626 10 649 10 Q680 10 711 17.5 Q742 25 768.5 35.5 Q795 46 815.5 56.5 Q836 67 846 73 Q851 75 855 77.5 Q859 80 863 80 Q868 80 871.5 73.5 Q875 67 875 50 Z " />
<glyph glyph-name="o" unicode="o" horiz-adv-x="886" d="M1019 60 Q1019 54 1011.5 49 Q1004 44 996 44 L737 44 Q736 44 727.5 41 Q719 38 706.5 33.5 Q694 29 680 23.5 Q666 18 654 14 Q591 -9 524.5 -15.5 Q458 -22 392 -22 Q377 -22 349.5 -21.5 Q322 -21 289 -18.5 Q256 -16 221.5 -10.5 Q187 -5 159 5 Q131 15 113 30.5 Q95 46 95 68 Q95 89 115 110 Q131 128 168 142.5 Q205 157 255 169 Q305 181 364 190.5 Q423 200 483 206.5 Q543 213 599 216 Q655 219 699 219 Q709 219 719.5 218 Q730 217 739 214 Q748 211 753.5 205 Q759 199 759 189 Q759 180 754 177.5 Q749 175 740 175 Q724 176 708.5 176 Q693 176 679 176 Q635 176 600 175.5 Q565 175 544 173 Q533 172 498.5 168.5 Q464 165 419.5 159 Q375 153 326 144 Q277 135 236 123 Q195 111 168.5 96.5 Q142 82 142 65 Q142 48 170 38.5 Q198 29 237 24 Q276 19 319 18 Q362 17 392 17 Q403 17 424 17.5 Q445 18 470 19.5 Q495 21 522 23.5 Q549 26 571 29.5 Q593 33 607 38.5 Q621 44 621 51 Q621 59 609.5 62 Q598 65 584 68.5 Q570 72 558.5 80 Q547 88 547 104 Q547 127 569 131.5 Q591 136 632 136 Q649 136 669.5 133 Q690 130 708 123.5 Q726 117 738.5 107.5 Q751 98 751 86 Q772 85 790 84.5 Q808 84 828.5 84 Q849 84 874 83.5 Q899 83 933 83 Q981 82 1000 78 Q1019 74 1019 60 Z " />
<glyph glyph-name="p" unicode="p" horiz-adv-x="940" d="M1073 56 Q1073 48 1065.5 41 Q1058 34 1042 34 Q994 34 943.5 27.5 Q893 21 846 19 Q817 18 788.5 12 Q760 6 727.5 -0.5 Q695 -7 656.5 -12 Q618 -17 570 -17 Q558 -17 542.5 -10.5 Q527 -4 527 10 Q527 25 540 34 Q553 43 572.5 48.5 Q592 54 616 55.5 Q640 57 661 57 Q683 57 699.5 56 Q716 55 721 55 Q742 55 768.5 60.5 Q795 66 818.5 77.5 Q842 89 858 107.5 Q874 126 874 152 Q874 161 860 168 Q846 175 819 175 Q753 175 691.5 150 Q630 125 575 85.5 Q520 46 472.5 -4 Q425 -54 389 -104 Q375 -122 360.5 -141 Q346 -160 338 -182 Q334 -193 330.5 -218.5 Q327 -244 323 -275.5 Q319 -307 313 -341.5 Q307 -376 298 -404 Q289 -432 277 -450.5 Q265 -469 247 -469 Q238 -469 232 -464 Q226 -459 222.5 -451.5 Q219 -444 217.5 -436 Q216 -428 216 -421 Q216 -376 229 -327 Q242 -278 272 -224 Q277 -215 283.5 -178.5 Q290 -142 296 -94.5 Q302 -47 307.5 3.5 Q313 54 315 91 Q315 96 312 100.5 Q309 105 293 107 Q277 107 264 103 Q251 99 239.5 93 Q228 87 216.5 80.5 Q205 74 192 68 Q190 67 181.5 61.5 Q173 56 163 49.5 Q153 43 144 38 Q135 33 132 33 Q121 33 113 37 Q105 41 105 49 Q105 51 112 57.5 Q119 64 128 71.5 Q137 79 145 86 Q153 93 156 95 Q168 106 186.5 116 Q205 126 225.5 134 Q246 142 266 147 Q286 152 302 152 Q321 152 332.5 145.5 Q344 139 350.5 129 Q357 119 359 107.5 Q361 96 361 87 Q360 87 358 61.5 Q356 36 353 5 Q349 -31 346 -78 Q348 -78 358 -67.5 Q368 -57 380.5 -43.5 Q393 -30 404 -18 Q415 -6 419 -2 Q460 40 505.5 79.5 Q551 119 602 149.5 Q653 180 709 198.5 Q765 217 826 217 Q843 217 859.5 213 Q876 209 889.5 200.5 Q903 192 911 178.5 Q919 165 919 146 Q919 126 912.5 111.5 Q906 97 897.5 86.5 Q889 76 882.5 70.5 Q876 65 876 63 Q893 63 914 65 Q935 67 958 69.5 Q981 72 1004 74 Q1027 76 1048 76 Q1061 76 1067 70 Q1073 64 1073 56 Z " />
<glyph glyph-name="q" unicode="q" horiz-adv-x="742" d="M871 58 Q871 48 860 37 Q829 12 791.5 -21.5 Q754 -55 721.5 -88.5 Q689 -122 665.5 -152.5 Q642 -183 639 -203 Q639 -206 634.5 -228.5 Q630 -251 624.5 -280.5 Q619 -310 613.5 -338.5 Q608 -367 606 -382 Q604 -393 600.5 -409 Q597 -425 591.5 -439.5 Q586 -454 579.5 -464.5 Q573 -475 565 -475 Q537 -475 537 -448 Q537 -414 545.5 -366 Q554 -318 564 -277 Q567 -264 573.5 -247.5 Q580 -231 586.5 -215.5 Q593 -200 598 -188 Q603 -176 603 -173 Q607 -147 612 -114.5 Q617 -82 622.5 -47.5 Q628 -13 633 20.5 Q638 54 642 81 Q646 108 648.5 125.5 Q651 143 651 146 Q651 163 633 163 Q629 163 619.5 162.5 Q610 162 599.5 161.5 Q589 161 580 160.5 Q571 160 567 160 Q556 159 518.5 155 Q481 151 431 144 Q381 137 326 127.5 Q271 118 224.5 107.5 Q178 97 148 85 Q118 73 118 61 Q118 51 134.5 45.5 Q151 40 172.5 37.5 Q194 35 214.5 34.5 Q235 34 242 34 Q310 34 377 44.5 Q444 55 507 79 Q518 83 533 90 Q548 97 563.5 104 Q579 111 591.5 116 Q604 121 609 121 Q617 121 622 117 Q627 113 627 104 Q627 96 619 90.5 Q611 85 606 82 Q569 60 525.5 43.5 Q482 27 436.5 16.5 Q391 6 344.5 0.5 Q298 -5 255 -5 Q233 -5 202.5 -2.5 Q172 0 143.5 7.5 Q115 15 94 28.5 Q73 42 70 64 Q70 85 101 103.5 Q132 122 182.5 137 Q233 152 295.5 164 Q358 176 421.5 184 Q485 192 542.5 197 Q600 202 639 202 Q649 202 655.5 206 Q662 210 666.5 214.5 Q671 219 674.5 222.5 Q678 226 684 226 Q689 226 697 222 Q705 218 705 211 Q705 209 701.5 186 Q698 163 692 130 Q686 97 680 58 Q674 19 668 -15 Q662 -49 658.5 -73.5 Q655 -98 655 -103 Q656 -103 668 -89.5 Q680 -76 698 -56.5 Q716 -37 738.5 -14.5 Q761 8 783 27 Q805 46 824.5 59 Q844 72 857 72 Q871 72 871 58 Z " />
<glyph glyph-name="r" unicode="r" horiz-adv-x="431" d="M553 76 Q553 62 535 60 L507 60 Q478 60 444 61.5 Q410 63 376.5 68.5 Q343 74 311.5 84 Q280 94 257 111 Q231 131 219.5 142 Q208 153 207 153 Q206 153 201 139 Q196 125 187.5 104.5 Q179 84 169 60 Q159 36 147.5 15.5 Q136 -5 124 -19 Q112 -33 101 -33 Q91 -33 86.5 -24 Q82 -15 80 -6 L80 144 Q80 180 92 180 L116 180 Q118 180 121.5 174.5 Q125 169 125 145 L125 73 Q129 73 134.5 86.5 Q140 100 146 119.5 Q152 139 158.5 161.5 Q165 184 171 203.5 Q177 223 182 236 Q187 249 191 249 L202 249 Q203 249 212 227 Q221 205 251 174 Q279 145 316 130.5 Q353 116 392.5 109.5 Q432 103 470 101 Q508 99 538 96 Q549 94 551 90.5 Q553 87 553 76 Z " />
<glyph glyph-name="s" unicode="s" horiz-adv-x="461" d="M609 29 Q609 20 605.5 16 Q602 12 594 7 Q576 4 531.5 -2.5 Q487 -9 430 -17 Q373 -25 310 -33.5 Q247 -42 191.5 -49 Q136 -56 93.5 -60.5 Q51 -65 35 -65 Q28 -65 16.5 -64.5 Q5 -64 -5.5 -61 Q-16 -58 -24 -52 Q-32 -46 -32 -35 Q-32 -14 -19.5 -8.5 Q-7 -3 9 -3 Q33 -3 59.5 -7.5 Q86 -12 112 -12 Q134 -12 173.5 -10.5 Q213 -9 252 -4.5 Q291 0 319.5 7 Q348 14 348 26 Q348 35 327.5 41 Q307 47 276 52.5 Q245 58 209 64 Q173 70 142 79 Q111 88 90.5 101 Q70 114 70 134 Q70 156 92 170.5 Q114 185 143 194 Q172 203 201.5 206.5 Q231 210 246 210 Q260 210 268 207.5 Q276 205 276 194 Q276 180 264 175 Q257 172 233.5 169.5 Q210 167 185 163 Q160 159 140.5 152 Q121 145 121 134 Q121 130 134.5 124.5 Q148 119 168.5 113.5 Q189 108 213.5 102.5 Q238 97 260.5 93 Q283 89 299.5 86 Q316 83 321 82 Q353 76 371.5 69 Q390 62 400 55 Q410 48 412.5 41.5 Q415 35 415 31 Q415 25 414 25 Q436 25 457.5 29 Q479 33 500.5 37.5 Q522 42 543.5 45.5 Q565 49 586 49 Q594 49 601.5 43.5 Q609 38 609 29 Z " />
<glyph glyph-name="t" unicode="t" horiz-adv-x="390" d="M527 64 Q527 49 502 41 Q478 33 447.5 30 Q417 27 383 27 Q381 27 376.5 27 Q372 27 356.5 27 Q341 27 310 27.5 Q279 28 224 29 Q215 29 214 14.5 Q213 0 213 -17.5 Q213 -35 209.5 -49.5 Q206 -64 192 -64 Q183 -64 177.5 -58 Q172 -52 169 -44 Q166 -36 164.5 -27.5 Q163 -19 161 -13 Q155 6 147.5 17 Q140 28 129.5 34.5 Q119 41 105.5 45 Q92 49 74 53 Q65 59 65 71 Q65 89 86 89 Q95 89 101 87.5 Q107 86 113.5 84.5 Q120 83 129 81.5 Q138 80 154 80 Q156 81 164 82 Q172 83 173 92 Q179 163 187.5 238.5 Q196 314 206 409 Q208 421 209.5 436 Q211 451 215 464.5 Q219 478 225.5 487 Q232 496 243 496 Q261 496 261 473 Q261 469 259.5 458.5 Q258 448 255.5 435.5 Q253 423 251 409.5 Q249 396 248 385 Q243 328 236 272.5 Q229 217 224 161 Q222 145 220 128.5 Q218 112 218 96 Q218 84 220.5 77.5 Q223 71 236 71 L293 71 Q337 71 381 71.5 Q425 72 469 77 Q476 78 485 79.5 Q494 81 503 81 Q513 81 520 77.5 Q527 74 527 64 Z " />
<glyph glyph-name="u" unicode="u" horiz-adv-x="782" d="M917 59 Q917 48 908 44 Q885 34 852.5 20.5 Q820 7 785.5 -5 Q751 -17 717.5 -25.5 Q684 -34 658 -34 Q626 -34 604.5 -21.5 Q583 -9 569 10 Q555 29 547.5 51.5 Q540 74 534.5 93 Q529 112 525 124.5 Q521 137 515 137 Q511 137 493.5 126.5 Q476 116 449.5 100 Q423 84 390 65 Q357 46 320.5 30 Q284 14 247 3.5 Q210 -7 176 -7 Q158 -7 144.5 -0.5 Q131 6 122 15.5 Q113 25 108 36 Q103 47 103 56 Q102 63 101.5 71 Q101 79 101 89 Q101 104 102.5 120 Q104 136 108.5 149 Q113 162 120.5 170.5 Q128 179 139 179 Q142 179 149.5 173 Q157 167 157 155 Q157 144 153.5 125.5 Q150 107 150 88 Q150 71 154 59 Q160 35 182 35 Q215 35 251 47 Q287 59 322.5 77 Q358 95 392 115.5 Q426 136 455 154 Q484 172 506 184 Q528 196 540 196 Q549 196 555 184.5 Q561 173 565.5 157.5 Q570 142 573 126 Q576 110 579 101 Q584 85 590 68 Q596 51 605 37 Q614 23 627.5 14 Q641 5 660 5 Q691 5 730 17 Q769 29 804 44 Q839 59 865 71 Q891 83 895 83 Q904 83 910.5 75 Q917 67 917 59 Z " />
<glyph glyph-name="v" unicode="v" horiz-adv-x="664" d="M792 64 Q792 57 786.5 50.5 Q781 44 774 44 Q744 41 718 41 Q661 41 616 50 Q571 59 529 75 Q528 75 499.5 57.5 Q471 40 424.5 18 Q378 -4 318.5 -22 Q259 -40 196 -40 Q163 -40 141 -19.5 Q119 1 105.5 31 Q92 61 86.5 94.5 Q81 128 81 153 Q81 162 85 172 Q89 182 100 182 Q107 182 114 180.5 Q121 179 123 170 Q126 149 128.5 120 Q131 91 139.5 65 Q148 39 165 20.5 Q182 2 212 2 Q250 2 292 12.5 Q334 23 370 38 Q406 53 432 68.5 Q458 84 464 93 Q464 94 446 99 Q428 104 406 114.5 Q384 125 365.5 142.5 Q347 160 347 185 Q347 199 359 204 Q371 209 382 209 Q423 209 453.5 199 Q484 189 504.5 174.5 Q525 160 535.5 143.5 Q546 127 546 113 Q546 112 560.5 106 Q575 100 604 93.5 Q633 87 675.5 82 Q718 77 774 77 Q792 77 792 64 Z " />
<glyph glyph-name="w" unicode="w" horiz-adv-x="930" d="M1066 71 Q1066 63 1059.5 59 Q1053 55 1044.5 53 Q1036 51 1027.5 50.5 Q1019 50 1015 50 Q986 50 957.5 54 Q929 58 901 62 Q886 64 867.5 68.5 Q849 73 834 73 Q832 73 827 57 Q822 41 809 22.5 Q796 4 772.5 -12 Q749 -28 711 -28 Q691 -28 667 -20.5 Q643 -13 619.5 -1.5 Q596 10 575 24.5 Q554 39 539 53 Q530 62 515.5 76.5 Q501 91 487.5 104.5 Q474 118 464 127.5 Q454 137 452 137 Q450 137 433.5 125.5 Q417 114 391.5 97 Q366 80 334.5 60.5 Q303 41 270 24 Q237 7 205 -4.5 Q173 -16 148 -16 Q127 -16 113.5 -8 Q100 0 93 13 Q86 26 83.5 41.5 Q81 57 81 73 Q81 81 81.5 98.5 Q82 116 85 135 Q88 154 95 168 Q102 182 115 182 Q126 182 130 176.5 Q134 171 134 161 Q134 136 130 111 Q126 86 126 60 Q126 46 129 34.5 Q132 23 149 23 Q169 23 200 36.5 Q231 50 263 68 Q295 86 323.5 105.5 Q352 125 368 137 Q385 149 406 165.5 Q427 182 450 182 Q463 182 472.5 179 Q482 176 491 167 Q512 146 538 118.5 Q564 91 592 66.5 Q620 42 649.5 25 Q679 8 708 8 Q735 8 758 26.5 Q781 45 781 83 Q780 86 774 89 Q768 92 761.5 94.5 Q755 97 749.5 98.5 Q744 100 742 101 Q729 106 707 113 Q685 120 663.5 130.5 Q642 141 626.5 155 Q611 169 611 188 Q611 205 622 214 Q633 223 651 223 Q686 223 717.5 206.5 Q749 190 774.5 170.5 Q800 151 817 134 Q834 117 838 116 Q886 103 933.5 96 Q981 89 1018 89 Q1024 89 1032.5 88.5 Q1041 88 1048.5 86.5 Q1056 85 1061 81.5 Q1066 78 1066 71 Z " />
<glyph glyph-name="x" unicode="x" horiz-adv-x="712" d="M819 73 Q819 64 797.5 53.5 Q776 43 749 34 Q704 18 652.5 0.5 Q601 -17 554 -17 Q524 -17 490 -8.5 Q456 0 422.5 12.5 Q389 25 358 40 Q327 55 303.5 67.5 Q280 80 265 88.5 Q250 97 249 97 Q248 97 224 84.5 Q200 72 170 54 Q140 36 111.5 15 Q83 -6 72 -23 Q61 -40 47 -48.5 Q33 -57 24 -57 Q13 -57 13 -46 Q13 -32 30 -8 Q45 13 67 31.5 Q89 50 113 66 Q137 82 161.5 96.5 Q186 111 206 124 Q206 126 184 135.5 Q162 145 136 157 Q110 169 88 181.5 Q66 194 66 200 Q66 220 91 220 Q111 220 135 209 Q159 198 177 190 Q193 183 216.5 168.5 Q240 154 256 149 Q341 184 432.5 216 Q524 248 614 271 Q625 274 637 274 Q651 274 661 269 Q671 264 671 250 Q671 243 666 236 Q661 229 656 226 Q647 220 621.5 210.5 Q596 201 567.5 192.5 Q539 184 513.5 178 Q488 172 479 172 Q467 172 460.5 175 Q454 178 452 178 Q437 173 411.5 164.5 Q386 156 361.5 147 Q337 138 319 131 Q301 124 301 122 Q301 121 313.5 113 Q326 105 345.5 94 Q365 83 390.5 70.5 Q416 58 442 47 Q468 36 492.5 29 Q517 22 535 22 Q555 22 571.5 24.5 Q588 27 604 31 Q620 35 636 40.5 Q652 46 671 52 Q682 56 698 61.5 Q714 67 732 72.5 Q750 78 767 82 Q784 86 797 86 Q819 86 819 73 Z " />
<glyph glyph-name="y" unicode="y" horiz-adv-x="600" d="M735 65 Q735 59 727 51 Q693 23 651 -12 Q609 -47 569.5 -83 Q530 -119 498 -152 Q466 -185 452 -209 Q443 -224 432 -257.5 Q421 -291 407.5 -325 Q394 -359 378 -384.5 Q362 -410 342 -410 Q328 -410 318 -403.5 Q308 -397 308 -380 Q308 -351 321.5 -324 Q335 -297 353 -273 Q371 -249 388.5 -228.5 Q406 -208 413 -191 Q423 -168 428 -145 Q433 -122 440 -99 Q446 -79 455.5 -45 Q465 -11 474 23 Q483 57 489 82 Q495 107 495 109 Q460 90 423.5 67 Q387 44 348.5 24 Q310 4 269.5 -10 Q229 -24 187 -24 Q144 -24 119.5 -1 Q95 22 95 77 Q95 79 96.5 96 Q98 113 101.5 132.5 Q105 152 110.5 167.5 Q116 183 125 183 Q143 183 146 172 Q149 161 149 150 Q146 133 141.5 111.5 Q137 90 137 70 Q137 46 148 29 Q159 12 191 12 Q216 12 251 25 Q286 38 322 56.5 Q358 75 391.5 96 Q425 117 446 132 Q456 139 470.5 150.5 Q485 162 500 173.5 Q515 185 527.5 193 Q540 201 544 201 Q551 201 556 194.5 Q561 188 562 183 Q557 158 550 135 Q543 112 536 87 Q531 68 521.5 35.5 Q512 3 502 -29 Q492 -61 484.5 -85.5 Q477 -110 476 -114 Q481 -111 498 -96 Q515 -81 536 -62 Q557 -43 578 -23.5 Q599 -4 613 9 Q624 19 637 31 Q650 43 663 53.5 Q676 64 688.5 71 Q701 78 711 78 Q722 78 728.5 74.5 Q735 71 735 65 Z " />
<glyph glyph-name="z" unicode="z" horiz-adv-x="750" d="M930 79 Q930 63 909 46 Q888 29 859.5 14 Q831 -1 802 -12.5 Q773 -24 757 -30 Q744 -35 734 -37.5 Q724 -40 714 -42 Q704 -44 693.5 -44.5 Q683 -45 669 -45 Q615 -45 562.5 -27 Q510 -9 460 9 Q446 14 430.5 20.5 Q415 27 399 27 Q384 27 370.5 20.5 Q357 14 343.5 6 Q330 -2 316 -8.5 Q302 -15 285 -15 Q260 -15 260 12 Q260 34 275.5 45.5 Q291 57 312.5 63 Q334 69 356.5 71 Q379 73 392 75 Q396 76 409 83 Q422 90 439.5 100.5 Q457 111 475.5 123 Q494 135 510 145 Q526 155 536.5 161 Q547 167 547 166 Q547 174 538 178.5 Q529 183 522 183 Q457 183 396 162 Q335 141 278 111 Q269 107 244.5 92.5 Q220 78 192 62.5 Q164 47 139 35 Q114 23 104 23 Q85 23 85 42 Q85 53 94.5 59.5 Q104 66 112 71 Q146 94 192.5 120.5 Q239 147 292 170 Q345 193 401.5 208.5 Q458 224 511 224 Q536 224 557.5 222.5 Q579 221 601 219 Q614 218 627.5 216.5 Q641 215 651.5 212.5 Q662 210 669 205.5 Q676 201 676 192 Q676 182 658.5 169.5 Q641 157 618 145.5 Q595 134 573.5 124.5 Q552 115 544 111 Q529 104 514.5 96.5 Q500 89 488.5 82 Q477 75 470 69 Q463 63 463 60 Q463 57 475 50.5 Q487 44 505.5 36.5 Q524 29 547 21.5 Q570 14 592.5 8 Q615 2 634.5 -2 Q654 -6 666 -6 Q685 -6 708.5 -0.5 Q732 5 756.5 14 Q781 23 803 33.5 Q825 44 841 54 Q848 59 856.5 66 Q865 73 874.5 79.5 Q884 86 893.5 91 Q903 96 911 96 Q918 96 924 91.5 Q930 87 930 79 Z " />
<glyph glyph-name="braceleft" unicode="&#x7b;" horiz-adv-x="776" d="M759 189 Q759 180 754 177.5 Q749 175 740 175 Q724 176 708.5 176 Q693 176 679 176 Q635 176 600 175.5 Q565 175 544 173 Q533 172 498.5 168.5 Q464 165 419.5 159 Q375 153 326 144 Q277 135 236 123 Q195 111 168.5 96.5 Q142 82 142 65 Q142 48 170 38.5 Q198 29 237 24 Q276 19 319 18 Q362 17 392 17 Q403 17 424 17.5 Q445 18 470 19.5 Q495 21 522 23.5 Q549 26 571 29.5 Q593 33 607 38.5 Q621 44 621 51 Q621 59 609.5 62 Q598 65 584 68.5 Q570 72 558.5 80 Q547 88 547 104 Q547 127 569 131.5 Q591 136 632 136 Q649 136 669.5 133 Q690 130 708 123.5 Q726 117 738.5 107.5 Q751 98 751 86 Q751 66 732 50 Q713 34 682.5 22 Q652 10 613.5 1.5 Q575 -7 535 -12 Q495 -17 457.5 -19.5 Q420 -22 392 -22 Q377 -22 349.5 -21.5 Q322 -21 289 -18.5 Q256 -16 221.5 -10.5 Q187 -5 159 5 Q131 15 113 30.5 Q95 46 95 68 Q95 89 115 110 Q131 128 168 142.5 Q205 157 255 169 Q305 181 364 190.5 Q423 200 483 206.5 Q543 213 599 216 Q655 219 699 219 Q709 219 719.5 218 Q730 217 739 214 Q748 211 753.5 205 Q759 199 759 189 Z " />
<glyph glyph-name="bar" unicode="&#x7c;" horiz-adv-x="161" d="M119 700 Q119 664 116.5 628 Q114 592 113 556 Q113 536 112 503 Q111 470 110 430.5 Q109 391 108 348 Q107 305 106 263 Q105 221 104.5 183 Q104 145 104 117 Q104 89 103.5 74.5 Q103 60 102.5 44.5 Q102 29 101 4 Q100 -21 99 -70 Q93 -82 78 -82 Q66 -82 61.5 -74 Q57 -66 56 -55 Q55 -44 55.5 -32.5 Q56 -21 54 -14 L71 686 Q72 704 76 720 Q80 736 98 736 Q101 736 105 735 Q109 734 112 730.5 Q115 727 117 720 Q119 713 119 700 Z " />
<glyph glyph-name="braceright" unicode="&#x7d;" horiz-adv-x="456" d="M591 64 Q591 52 572.5 44.5 Q554 37 528 32.5 Q502 28 474.5 25.5 Q447 23 429 21 Q424 20 407.5 19.5 Q391 19 370 18.5 Q349 18 326 17 Q303 16 284 15.5 Q265 15 252.5 14.5 Q240 14 240 13 Q245 -34 247.5 -79.5 Q250 -125 250 -169 Q250 -232 245.5 -286.5 Q241 -341 232 -381.5 Q223 -422 209.5 -445.5 Q196 -469 177 -469 Q168 -469 163 -464.5 Q158 -460 155.5 -453 Q153 -446 152 -439 Q151 -432 151 -426 Q151 -411 153.5 -375 Q156 -339 160 -294 Q164 -249 169 -199 Q174 -149 178 -105 Q182 -61 184.5 -28 Q187 5 187 17 Q187 20 167 22.5 Q147 25 122.5 29.5 Q98 34 78 41.5 Q58 49 58 62 Q58 71 63.5 75 Q69 79 77 79 Q105 79 133 73 Q161 67 191 67 Q192 87 196 138.5 Q200 190 208 256.5 Q216 323 228 394.5 Q240 466 257.5 526 Q275 586 298.5 624.5 Q322 663 353 663 Q367 663 375.5 656 Q384 649 388 638.5 Q392 628 393 615 Q394 602 394 591 Q394 542 382 483 Q370 424 352.5 365 Q335 306 314.5 251 Q294 196 276.5 153 Q259 110 248 84.5 Q237 59 238 59 Q290 59 344 60.5 Q398 62 450 67 Q479 69 507 74 Q535 79 564 79 Q569 79 580 77 Q591 75 591 64 Z M355 603 Q355 615 347 615 Q337 615 327 596 Q317 577 308 547.5 Q299 518 290.5 483 Q282 448 275.5 416 Q269 384 264.5 359.5 Q260 335 259 327 Q257 314 253.5 293.5 Q250 273 247 251 Q244 229 241.5 208.5 Q239 188 239 175 Q242 176 249 191.5 Q256 207 263.5 226.5 Q271 246 278 264.5 Q285 283 287 290 Q313 365 334 445 Q355 525 355 603 Z " />
<glyph glyph-name="asciitilde" unicode="&#x7e;" horiz-adv-x="871" d="M1019 29 Q1019 20 1015.5 16 Q1012 12 1004 7 Q986 4 945 -2.5 Q904 -9 853 -17 Q802 -25 745.5 -33.5 Q689 -42 638.5 -49 Q588 -56 549.5 -60.5 Q511 -65 495 -65 Q488 -65 476.5 -64.5 Q465 -64 454.5 -61 Q444 -58 436 -52 Q428 -46 428 -35 Q428 -14 440.5 -8.5 Q453 -3 469 -3 Q493 -3 519.5 -7.5 Q546 -12 572 -12 Q594 -12 626 -10.5 Q658 -9 687 -4.5 Q716 0 737 7 Q758 14 758 26 Q758 37 729 43.5 Q700 50 659.5 57 Q619 64 577 72.5 Q535 81 508 96 Q479 44 434 12 Q389 -20 338.5 -37.5 Q288 -55 236 -60.5 Q184 -66 140 -66 Q138 -66 134.5 -66 Q131 -66 120.5 -66 Q110 -66 90 -65.5 Q70 -65 35 -65 Q28 -65 16.5 -64.5 Q5 -64 -5.5 -61 Q-16 -58 -24 -52 Q-32 -46 -32 -35 Q-32 -14 -19.5 -8.5 Q-7 -3 9 -3 Q33 -3 59.5 -7.5 Q86 -12 112 -12 Q134 -12 174 -11 Q214 -10 253.5 -7 Q293 -4 322 2 Q351 8 351 18 Q351 27 330 33.5 Q309 40 278 46.5 Q247 53 210.5 60 Q174 67 143 77 Q112 87 91 100.5 Q70 114 70 134 Q70 156 92 170.5 Q114 185 143 194 Q172 203 201.5 206.5 Q231 210 246 210 Q260 210 268 207.5 Q276 205 276 194 Q276 180 264 175 Q257 172 233.5 169.5 Q210 167 185 163 Q160 159 140.5 152 Q121 145 121 134 Q121 130 134.5 124.5 Q148 119 168.5 113.5 Q189 108 213.5 103 Q238 98 260.5 93.5 Q283 89 299.5 86.5 Q316 84 321 83 Q347 78 363 70.5 Q379 63 388 56.5 Q397 50 400 45 Q403 40 404 40 L405 40 Q448 75 467.5 106.5 Q487 138 495 162 Q503 186 505.5 200 Q508 214 515 214 Q529 214 537 211.5 Q545 209 545 198 Q545 184 540.5 169.5 Q536 155 526 132 Q528 128 543 122.5 Q558 117 579 111.5 Q600 106 624.5 101 Q649 96 671 92 Q693 88 709.5 85.5 Q726 83 731 82 Q763 76 781.5 69 Q800 62 810 55 Q820 48 822.5 41.5 Q825 35 825 31 Q825 25 824 25 Q846 25 867.5 29 Q889 33 910.5 37.5 Q932 42 953.5 45.5 Q975 49 996 49 Q1004 49 1011.5 43.5 Q1019 38 1019 29 Z " />
<glyph glyph-name="Adieresis" unicode="&#xc4;" horiz-adv-x="1277" d="M1261 777 Q1261 768 1258 757.5 Q1255 747 1249 737.5 Q1243 728 1235 722 Q1227 716 1217 716 Q1194 716 1194 738 Q1194 747 1197.5 758 Q1201 769 1207 778 Q1213 787 1221.5 793.5 Q1230 800 1240 800 Q1252 800 1256.5 794 Q1261 788 1261 777 Z M1154 778 Q1154 769 1151 758.5 Q1148 748 1142 738.5 Q1136 729 1128 723 Q1120 717 1110 717 Q1087 717 1087 739 Q1087 748 1090.5 759 Q1094 770 1100 779 Q1106 788 1114.5 794.5 Q1123 801 1132 801 Q1145 801 1149.5 795 Q1154 789 1154 778 Z M1278 43 Q1278 25 1272.5 10 Q1267 -5 1247 -5 Q1232 -5 1229 4.5 Q1226 14 1226 28 Q1226 44 1226.5 58 Q1227 72 1227.5 88 Q1228 104 1228.5 124 Q1229 144 1229 171 Q1229 174 1217.5 185 Q1206 196 1179 207.5 Q1152 219 1109 228.5 Q1066 238 1003 238 Q984 238 935 236.5 Q886 235 823.5 232 Q761 229 691.5 225 Q622 221 561.5 215 Q501 209 456.5 202 Q412 195 399 186 Q349 154 303 115 Q257 76 211 37 Q196 24 174.5 2.5 Q153 -19 130 -40 Q107 -61 85 -76.5 Q63 -92 46 -92 Q38 -92 30 -87.5 Q22 -83 22 -73 Q22 -55 38 -26 Q54 3 76 33 Q98 63 121 90 Q144 117 157 130 Q175 149 202.5 169 Q230 189 261 205.5 Q292 222 324 232.5 Q356 243 383 243 Q385 243 412.5 259 Q440 275 486 302 Q532 329 591.5 363 Q651 397 716.5 432 Q782 467 849 501 Q916 535 977 562 Q1038 589 1088 605 Q1138 621 1170 621 Q1209 621 1229.5 605 Q1250 589 1260 564.5 Q1270 540 1271.5 511.5 Q1273 483 1273 457 Q1273 434 1273.5 399 Q1274 364 1274.5 323.5 Q1275 283 1275.5 240 Q1276 197 1276.5 158.5 Q1277 120 1277.5 89.5 Q1278 59 1278 43 Z M1230 462 Q1230 481 1228.5 501.5 Q1227 522 1221 539.5 Q1215 557 1202.5 568 Q1190 579 1167 579 Q1149 579 1126.5 573.5 Q1104 568 1080 560 Q1056 552 1032.5 541.5 Q1009 531 989 522 Q983 519 958.5 506.5 Q934 494 898 475 Q862 456 819 433 Q776 410 731.5 386 Q687 362 645 339 Q603 316 570.5 298 Q538 280 518.5 268 Q499 256 499 254 Q624 262 745.5 272 Q867 282 992 282 Q1061 282 1105 276 Q1149 270 1175.5 263.5 Q1202 257 1213.5 251 Q1225 245 1228 245 Q1229 245 1229.5 249 Q1230 253 1230 273.5 Q1230 294 1230 338 Q1230 382 1230 462 Z " />
<glyph glyph-name="Aring" unicode="&#xc5;" horiz-adv-x="1277" d="M1270 760 Q1270 741 1256 728 Q1242 715 1222 706.5 Q1202 698 1180.5 694.5 Q1159 691 1145 691 Q1133 691 1117.5 693.5 Q1102 696 1087.5 702 Q1073 708 1063.5 717.5 Q1054 727 1054 742 Q1054 757 1064.5 769.5 Q1075 782 1091.5 790 Q1108 798 1128 803 Q1148 808 1167 808 Q1179 808 1196.5 806 Q1214 804 1230.5 798.5 Q1247 793 1258.5 784 Q1270 775 1270 760 Z M1278 43 Q1278 25 1272.5 10 Q1267 -5 1247 -5 Q1232 -5 1229 4.5 Q1226 14 1226 28 Q1226 44 1226.5 58 Q1227 72 1227.5 88 Q1228 104 1228.5 124 Q1229 144 1229 171 Q1229 174 1217.5 185 Q1206 196 1179 207.5 Q1152 219 1109 228.5 Q1066 238 1003 238 Q984 238 935 236.5 Q886 235 823.5 232 Q761 229 691.5 225 Q622 221 561.5 215 Q501 209 456.5 202 Q412 195 399 186 Q349 154 303 115 Q257 76 211 37 Q196 24 174.5 2.5 Q153 -19 130 -40 Q107 -61 85 -76.5 Q63 -92 46 -92 Q38 -92 30 -87.5 Q22 -83 22 -73 Q22 -55 38 -26 Q54 3 76 33 Q98 63 121 90 Q144 117 157 130 Q175 149 202.5 169 Q230 189 261 205.5 Q292 222 324 232.5 Q356 243 383 243 Q385 243 412.5 259 Q440 275 486 302 Q532 329 591.5 363 Q651 397 716.5 432 Q782 467 849 501 Q916 535 977 562 Q1038 589 1088 605 Q1138 621 1170 621 Q1209 621 1229.5 605 Q1250 589 1260 564.5 Q1270 540 1271.5 511.5 Q1273 483 1273 457 Q1273 434 1273.5 399 Q1274 364 1274.5 323.5 Q1275 283 1275.5 240 Q1276 197 1276.5 158.5 Q1277 120 1277.5 89.5 Q1278 59 1278 43 Z M1213 757 Q1213 764 1208 768 Q1203 772 1196.5 774 Q1190 776 1182.5 776.5 Q1175 777 1170 777 L1154 777 Q1148 776 1139.5 773.5 Q1131 771 1123.5 767 Q1116 763 1110.5 756.5 Q1105 750 1105 742 Q1105 737 1110 733.5 Q1115 730 1121.5 727.5 Q1128 725 1135.5 724 Q1143 723 1149 723 Q1158 723 1169 725.5 Q1180 728 1189.5 732.5 Q1199 737 1206 743.5 Q1213 750 1213 757 Z M1230 462 Q1230 481 1228.5 501.5 Q1227 522 1221 539.5 Q1215 557 1202.5 568 Q1190 579 1167 579 Q1149 579 1126.5 573.5 Q1104 568 1080 560 Q1056 552 1032.5 541.5 Q1009 531 989 522 Q983 519 958.5 506.5 Q934 494 898 475 Q862 456 819 433 Q776 410 731.5 386 Q687 362 645 339 Q603 316 570.5 298 Q538 280 518.5 268 Q499 256 499 254 Q624 262 745.5 272 Q867 282 992 282 Q1061 282 1105 276 Q1149 270 1175.5 263.5 Q1202 257 1213.5 251 Q1225 245 1228 245 Q1229 245 1229.5 249 Q1230 253 1230 273.5 Q1230 294 1230 338 Q1230 382 1230 462 Z " />
<glyph glyph-name="Ccedilla" unicode="&#xc7;" horiz-adv-x="1289" d="M1416 44 Q1416 37 1403.5 30.5 Q1391 24 1373 18.5 Q1355 13 1335.5 8.5 Q1316 4 1302 1 Q1199 -22 1095 -38 Q991 -54 886 -62 Q811 -68 732.5 -73 Q654 -78 576 -78 Q519 -78 462 -74 Q405 -70 350 -62 Q329 -59 297 -53.5 Q265 -48 230 -40 Q195 -32 159.5 -19.5 Q124 -7 96 11 Q68 29 50.5 52.5 Q33 76 33 107 Q33 143 55 177.5 Q77 212 113 243.5 Q149 275 195.5 303.5 Q242 332 291 357 Q340 382 387.5 402.5 Q435 423 473 438 Q563 475 662.5 513.5 Q762 552 859 576 Q913 590 966.5 599.5 Q1020 609 1075 609 Q1090 609 1107 607.5 Q1124 606 1139 601 Q1154 596 1164 585 Q1174 574 1174 555 Q1174 529 1148 501.5 Q1122 474 1078 447 Q1034 420 977.5 394 Q921 368 860 344.5 Q799 321 738.5 301.5 Q678 282 626 267.5 Q574 253 535 245 Q496 237 479 237 Q459 237 446.5 242 Q434 247 434 266 Q434 286 447.5 293 Q461 300 482 306 Q536 323 591.5 336 Q647 349 701 366 Q724 373 744 380 Q764 387 787 387 Q798 387 807.5 384 Q817 381 828 381 Q835 381 860 390 Q885 399 918 414 Q951 429 987.5 447.5 Q1024 466 1055 485 Q1086 504 1106 521.5 Q1126 539 1126 552 Q1126 563 1115 565 Q1104 567 1094 567 Q1030 567 968 556 Q906 545 844 528 Q819 521 773 506 Q727 491 668.5 469.5 Q610 448 544 422 Q478 396 412.5 366.5 Q347 337 287 305 Q227 273 181.5 240 Q136 207 108.5 175 Q81 143 81 113 Q81 80 113 56 Q145 32 195 15.5 Q245 -1 305.5 -11 Q366 -21 423.5 -26.5 Q481 -32 528 -33.5 Q575 -35 597 -35 Q667 -35 732 -32.5 Q797 -30 865 -23 Q1079 -3 1290 40 Q1303 43 1318.5 47 Q1334 51 1349 54.5 Q1364 58 1376 61 Q1388 64 1394 64 Q1416 64 1416 44 Z M752 -54 Q740 -80 735 -111.5 Q730 -143 728.5 -170.5 Q727 -198 727 -216.5 Q727 -235 725 -235 L710 -239 Q698 -224 678 -212 Q661 -201 634.5 -193 Q608 -185 570 -185 Q533 -185 483 -197 Q481 -198 479 -198 Q474 -198 471 -188 Q471 -186 470.5 -184.5 Q470 -183 470 -181 Q470 -176 471.5 -172 Q473 -168 477 -166 L494 -161 Q516 -155 540.5 -151.5 Q565 -148 590 -148 Q646 -146 690 -172 Q690 -172 692 -151.5 Q694 -131 698.5 -107 Q703 -83 710.5 -62.5 Q718 -42 729 -42 Q735 -42 742.5 -45.5 Q750 -49 752 -54 Z " />
<glyph glyph-name="Eacute" unicode="&#xc9;" horiz-adv-x="861" d="M524 812 Q524 806 521 796.5 Q518 787 511 771 Q504 755 493.5 731.5 Q483 708 468 674 Q464 671 460 671 Q453 671 448 677.5 Q443 684 443 692 Q443 705 453 727.5 Q463 750 482 797 Q487 810 493.5 820.5 Q500 831 508 831 Q512 831 518 827 Q524 823 524 812 Z M983 66 Q983 57 974 50 Q908 31 837 15 Q766 -1 693.5 -12.5 Q621 -24 548.5 -30.5 Q476 -37 408 -37 Q382 -37 345 -34.5 Q308 -32 273.5 -22 Q239 -12 214.5 9 Q190 30 190 66 Q190 96 203.5 118.5 Q217 141 237.5 160.5 Q258 180 280.5 197.5 Q303 215 321 233 Q315 236 301.5 237 Q288 238 274 238 Q261 240 237.5 241 Q214 242 187 245 Q160 248 132.5 253.5 Q105 259 82.5 269 Q60 279 45.5 293.5 Q31 308 31 330 Q31 349 37 363.5 Q43 378 53 389.5 Q63 401 75 410 Q87 419 100 427 Q172 475 250.5 507 Q329 539 410 566 Q455 581 500 597 Q545 613 589.5 625.5 Q634 638 678 646.5 Q722 655 765 655 Q778 655 792 647 Q806 639 806 623 Q806 609 783.5 592 Q761 575 726.5 558 Q692 541 651.5 525 Q611 509 575 496.5 Q539 484 513.5 476.5 Q488 469 483 469 Q473 469 464.5 473 Q456 477 456 488 L468 532 Q467 535 462 535 Q450 535 417 525 Q384 515 341.5 498.5 Q299 482 252.5 460.5 Q206 439 167.5 416.5 Q129 394 104 371.5 Q79 349 79 330 Q79 318 97 309.5 Q115 301 142 295 Q169 289 201.5 285.5 Q234 282 262.5 280 Q291 278 311.5 277.5 Q332 277 336 277 Q397 277 454 286.5 Q511 296 570 310 Q578 313 586 313 Q596 313 602.5 308 Q609 303 609 292 Q609 283 603.5 278 Q598 273 589.5 271 Q581 269 572.5 268 Q564 267 558 265 Q525 258 490.5 249.5 Q456 241 423 230 Q390 219 361 204 Q332 189 310 169 Q300 160 286.5 148.5 Q273 137 262 124 Q251 111 243 96 Q235 81 235 65 Q235 32 302 20 Q369 8 516 8 Q554 8 599.5 14 Q645 20 692 29 Q739 38 784.5 48.5 Q830 59 867 68 Q904 77 928.5 83 Q953 89 959 89 Q968 89 975.5 83 Q983 77 983 66 Z " />
<glyph glyph-name="Ntilde" unicode="&#xd1;" horiz-adv-x="1109" d="M725 703 Q725 700 724 695 Q723 690 721 684.5 Q719 679 717 674.5 Q715 670 712 670 Q703 676 692.5 680 Q682 684 670 684 Q655 684 637.5 674 Q620 664 604 664 Q585 664 567.5 675.5 Q550 687 534 695 Q534 700 535 706.5 Q536 713 537.5 719.5 Q539 726 541.5 730.5 Q544 735 548 735 Q554 735 561 731 Q568 727 576 721.5 Q584 716 593 712 Q602 708 612 708 Q620 708 626.5 711 Q633 714 640 717 Q647 720 655 723 Q663 726 673 726 Q675 726 683.5 724 Q692 722 701 719 Q710 716 717.5 712 Q725 708 725 703 Z M1127 576 Q1127 558 1125 528.5 Q1123 499 1119 467.5 Q1115 436 1109.5 407 Q1104 378 1097 360 Q1092 349 1079.5 345.5 Q1067 342 1061 333 Q1055 323 1052.5 291 Q1050 259 1046.5 216.5 Q1043 174 1035 128 Q1027 82 1009 43 Q991 4 960 -21.5 Q929 -47 880 -47 Q834 -47 780 -27 Q726 -7 669.5 26.5 Q613 60 555.5 103.5 Q498 147 443.5 193 Q389 239 341 285 Q293 331 254.5 369.5 Q216 408 190 436 Q164 464 154 474 Q153 476 146.5 482 Q140 488 139 488 Q138 488 135 457 Q132 426 128.5 379 Q125 332 121 276.5 Q117 221 113.5 172 Q110 123 107.5 87.5 Q105 52 104 46 Q103 38 101 28.5 Q99 19 95 11 Q91 3 84.5 -2.5 Q78 -8 67 -8 Q53 -8 49.5 0.5 Q46 9 46 22 Q46 31 48.5 59 Q51 87 55 128.5 Q59 170 64 222.5 Q69 275 73 331.5 Q77 388 79.5 446.5 Q82 505 82 558 L70 597 Q70 621 95 621 Q100 621 110 613 Q120 605 131.5 593.5 Q143 582 154 569 Q165 556 172 546 Q202 506 255 449.5 Q308 393 373 332 Q438 271 510 211.5 Q582 152 650 104.5 Q718 57 776.5 27.5 Q835 -2 873 -2 Q916 -2 942 32.5 Q968 67 982 121 Q996 175 1001.5 241 Q1007 307 1009.5 370 Q1012 433 1014.5 485 Q1017 537 1025 564 Q1031 585 1045 603 Q1059 621 1086 621 Q1108 621 1117.5 608 Q1127 595 1127 576 Z " />
<glyph glyph-name="Odieresis" unicode="&#xd6;" horiz-adv-x="1305" d="M914 758 Q914 749 911 738.5 Q908 728 902 718.5 Q896 709 888 703 Q880 697 870 697 Q847 697 847 719 Q847 728 850.5 739 Q854 750 860 759 Q866 768 874.5 774.5 Q883 781 893 781 Q905 781 909.5 775 Q914 769 914 758 Z M807 759 Q807 750 804 739.5 Q801 729 795 719.5 Q789 710 781 704 Q773 698 763 698 Q740 698 740 720 Q740 729 743.5 740 Q747 751 753 760 Q759 769 767.5 775.5 Q776 782 785 782 Q798 782 802.5 776 Q807 770 807 759 Z M1336 368 Q1336 316 1313.5 271.5 Q1291 227 1253.5 190 Q1216 153 1167.5 123.5 Q1119 94 1067.5 71 Q1016 48 965.5 32 Q915 16 873 7 Q819 -5 758.5 -12 Q698 -19 635 -19 Q539 -19 447 -0.5 Q355 18 280 61 Q254 76 226 97 Q198 118 175.5 145 Q153 172 138.5 204 Q124 236 124 273 Q124 318 143.5 358 Q163 398 195 433.5 Q227 469 269 499 Q311 529 355 553 Q399 577 442.5 595 Q486 613 522 624 Q544 631 569 636.5 Q594 642 608 642 Q627 642 630 638.5 Q633 635 633 625 Q633 620 619 614 Q605 608 588 601 Q571 594 557 587.5 Q543 581 543 574 Q621 593 705.5 601 Q790 609 871 609 Q923 609 984.5 604.5 Q1046 600 1106 585 Q1166 570 1218 542.5 Q1270 515 1304 468 Q1318 449 1327 423.5 Q1336 398 1336 368 Z M1290 366 Q1290 398 1275.5 423 Q1261 448 1241 468 Q1207 501 1161.5 520.5 Q1116 540 1066.5 550.5 Q1017 561 966 564 Q915 567 871 567 Q832 567 792.5 566 Q753 565 714 561 Q670 557 616 545 Q562 533 506.5 512.5 Q451 492 398 463 Q345 434 304.5 397 Q264 360 239 315 Q214 270 214 217 Q214 183 237 155.5 Q260 128 297 106 Q334 84 381.5 68 Q429 52 478 41.5 Q527 31 574 26 Q621 21 657 21 Q712 21 780.5 32.5 Q849 44 919 65.5 Q989 87 1056 118 Q1123 149 1175 187.5 Q1227 226 1258.5 271 Q1290 316 1290 366 Z " />
<glyph glyph-name="Udieresis" unicode="&#xdc;" horiz-adv-x="1083" d="M675 723 Q675 714 672 703.5 Q669 693 663 683.5 Q657 674 649 668 Q641 662 631 662 Q608 662 608 684 Q608 693 611.5 704 Q615 715 621 724 Q627 733 635.5 739.5 Q644 746 654 746 Q666 746 670.5 740 Q675 734 675 723 Z M568 724 Q568 715 565 704.5 Q562 694 556 684.5 Q550 675 542 669 Q534 663 524 663 Q501 663 501 685 Q501 694 504.5 705 Q508 716 514 725 Q520 734 528.5 740.5 Q537 747 546 747 Q559 747 563.5 741 Q568 735 568 724 Z M1135 575 Q1135 567 1134 558 Q1133 549 1130 538 Q1126 523 1118 505.5 Q1110 488 1100.5 470.5 Q1091 453 1081 437 Q1071 421 1064 409 Q1059 389 1054.5 367.5 Q1050 346 1046 325 Q1034 265 1027.5 204.5 Q1021 144 1013 83 Q1012 74 1012 59 Q1012 44 1010 29 Q1008 14 1002.5 3.5 Q997 -7 983 -7 Q969 -7 965.5 4.5 Q962 16 962 28 Q962 82 973.5 146.5 Q985 211 998 286 Q998 291 999 297 Q1000 303 1000 313 Q931 252 850.5 192.5 Q770 133 682.5 85.5 Q595 38 501.5 8.5 Q408 -21 312 -21 Q236 -21 179 10 Q122 41 94 119 Q81 154 76.5 185.5 Q72 217 72 252 Q72 263 72 273.5 Q72 284 73 295 Q62 304 54 313 Q46 322 46 336 Q46 371 52 421 Q58 471 68 517.5 Q78 564 90 597.5 Q102 631 115 634 L154 634 Q161 634 163.5 623.5 Q166 613 166 608 Q166 581 159.5 553.5 Q153 526 148 499 Q135 436 128 371.5 Q121 307 121 244 Q121 135 173.5 77.5 Q226 20 336 20 Q374 20 410.5 27.5 Q447 35 482 47.5 Q517 60 551 75.5 Q585 91 618 107 Q665 129 713.5 156.5 Q762 184 808.5 216 Q855 248 897.5 283.5 Q940 319 974 358 Q985 370 998.5 384.5 Q1012 399 1016 415 Q1023 442 1028 478 Q1033 514 1040 546.5 Q1047 579 1059 602 Q1071 625 1092 625 Q1098 625 1105 623 Q1112 621 1119 616 Q1126 611 1130.5 601 Q1135 591 1135 575 Z " />
<glyph glyph-name="aacute" unicode="&#xe1;" horiz-adv-x="889" d="M504 409 Q504 403 501 393.5 Q498 384 491 368 Q484 352 473.5 328.5 Q463 305 448 271 Q444 268 440 268 Q433 268 428 274.5 Q423 281 423 289 Q423 302 433 324.5 Q443 347 462 394 Q467 407 473.5 417.5 Q480 428 488 428 Q492 428 498 424 Q504 420 504 409 Z M1021 37 Q1021 28 1015 22.5 Q1009 17 1000.5 13.5 Q992 10 982 8 Q972 6 964 3 Q936 -6 906.5 -16.5 Q877 -27 847.5 -36 Q818 -45 788 -51 Q758 -57 728 -57 Q688 -57 658 -39 Q628 -21 599 6 Q591 13 580 26 Q569 39 557 39 Q550 39 539 35.5 Q528 32 516 27 Q504 22 492.5 17 Q481 12 473 9 Q413 -11 354 -17.5 Q295 -24 228 -24 Q215 -24 190.5 -21.5 Q166 -19 141.5 -12 Q117 -5 99 6 Q81 17 81 34 Q81 48 83 56 Q85 64 99 72 Q135 92 182.5 110.5 Q230 129 283 145 Q336 161 392.5 173.5 Q449 186 501.5 195.5 Q554 205 600.5 210 Q647 215 680 215 Q687 215 694.5 214.5 Q702 214 708 212 Q714 210 718 204.5 Q722 199 722 190 Q722 180 708 172 Q694 164 672 157 Q650 150 624 145 Q598 140 574 136.5 Q550 133 531.5 131 Q513 129 506 129 Q494 129 485.5 133.5 Q477 138 463 138 Q453 138 425.5 132.5 Q398 127 362.5 118 Q327 109 288.5 98 Q250 87 218 76 Q186 65 165 55.5 Q144 46 144 40 Q144 32 160.5 27 Q177 22 197.5 19.5 Q218 17 236.5 16 Q255 15 258 15 Q317 15 368 23 Q419 31 473 51 Q495 59 518 71.5 Q541 84 565 84 Q583 84 599 68.5 Q615 53 632.5 34 Q650 15 671.5 -1 Q693 -17 722 -18 Q767 -20 816 -3.5 Q865 13 910 27 Q930 33 955 43.5 Q980 54 1000 54 Q1009 54 1015 51 Q1021 48 1021 37 Z " />
<glyph glyph-name="agrave" unicode="&#xe0;" horiz-adv-x="889" d="M481 297 Q481 289 476.5 282.5 Q472 276 465 276 Q463 276 458 279 Q445 313 435.5 336.5 Q426 360 420 376 Q414 392 411 401.5 Q408 411 408 417 Q408 428 413.5 432 Q419 436 422 436 Q429 436 434.5 425 Q440 414 445 402 Q462 355 471.5 332.5 Q481 310 481 297 Z M1021 37 Q1021 28 1015 22.5 Q1009 17 1000.5 13.5 Q992 10 982 8 Q972 6 964 3 Q936 -6 906.5 -16.5 Q877 -27 847.5 -36 Q818 -45 788 -51 Q758 -57 728 -57 Q688 -57 658 -39 Q628 -21 599 6 Q591 13 580 26 Q569 39 557 39 Q550 39 539 35.5 Q528 32 516 27 Q504 22 492.5 17 Q481 12 473 9 Q413 -11 354 -17.5 Q295 -24 228 -24 Q215 -24 190.5 -21.5 Q166 -19 141.5 -12 Q117 -5 99 6 Q81 17 81 34 Q81 48 83 56 Q85 64 99 72 Q135 92 182.5 110.5 Q230 129 283 145 Q336 161 392.5 173.5 Q449 186 501.5 195.5 Q554 205 600.5 210 Q647 215 680 215 Q687 215 694.5 214.5 Q702 214 708 212 Q714 210 718 204.5 Q722 199 722 190 Q722 180 708 172 Q694 164 672 157 Q650 150 624 145 Q598 140 574 136.5 Q550 133 531.5 131 Q513 129 506 129 Q494 129 485.5 133.5 Q477 138 463 138 Q453 138 425.5 132.5 Q398 127 362.5 118 Q327 109 288.5 98 Q250 87 218 76 Q186 65 165 55.5 Q144 46 144 40 Q144 32 160.5 27 Q177 22 197.5 19.5 Q218 17 236.5 16 Q255 15 258 15 Q317 15 368 23 Q419 31 473 51 Q495 59 518 71.5 Q541 84 565 84 Q583 84 599 68.5 Q615 53 632.5 34 Q650 15 671.5 -1 Q693 -17 722 -18 Q767 -20 816 -3.5 Q865 13 910 27 Q930 33 955 43.5 Q980 54 1000 54 Q1009 54 1015 51 Q1021 48 1021 37 Z " />
<glyph glyph-name="acircumflex" unicode="&#xe2;" horiz-adv-x="889" d="M535 292 Q535 281 525 277 Q515 273 511 273 Q509 273 502.5 285.5 Q496 298 487.5 314.5 Q479 331 471.5 347.5 Q464 364 461 371 Q455 364 442.5 347.5 Q430 331 416.5 314.5 Q403 298 390.5 285.5 Q378 273 373 273 Q367 273 360.5 276.5 Q354 280 354 291 Q354 296 370.5 318 Q387 340 407.5 364.5 Q428 389 446.5 408.5 Q465 428 468 428 Q471 428 481.5 409.5 Q492 391 504 367.5 Q516 344 525.5 322 Q535 300 535 292 Z M1021 37 Q1021 28 1015 22.5 Q1009 17 1000.5 13.5 Q992 10 982 8 Q972 6 964 3 Q936 -6 906.5 -16.5 Q877 -27 847.5 -36 Q818 -45 788 -51 Q758 -57 728 -57 Q688 -57 658 -39 Q628 -21 599 6 Q591 13 580 26 Q569 39 557 39 Q550 39 539 35.5 Q528 32 516 27 Q504 22 492.5 17 Q481 12 473 9 Q413 -11 354 -17.5 Q295 -24 228 -24 Q215 -24 190.5 -21.5 Q166 -19 141.5 -12 Q117 -5 99 6 Q81 17 81 34 Q81 48 83 56 Q85 64 99 72 Q135 92 182.5 110.5 Q230 129 283 145 Q336 161 392.5 173.5 Q449 186 501.5 195.5 Q554 205 600.5 210 Q647 215 680 215 Q687 215 694.5 214.5 Q702 214 708 212 Q714 210 718 204.5 Q722 199 722 190 Q722 180 708 172 Q694 164 672 157 Q650 150 624 145 Q598 140 574 136.5 Q550 133 531.5 131 Q513 129 506 129 Q494 129 485.5 133.5 Q477 138 463 138 Q453 138 425.5 132.5 Q398 127 362.5 118 Q327 109 288.5 98 Q250 87 218 76 Q186 65 165 55.5 Q144 46 144 40 Q144 32 160.5 27 Q177 22 197.5 19.5 Q218 17 236.5 16 Q255 15 258 15 Q317 15 368 23 Q419 31 473 51 Q495 59 518 71.5 Q541 84 565 84 Q583 84 599 68.5 Q615 53 632.5 34 Q650 15 671.5 -1 Q693 -17 722 -18 Q767 -20 816 -3.5 Q865 13 910 27 Q930 33 955 43.5 Q980 54 1000 54 Q1009 54 1015 51 Q1021 48 1021 37 Z " />
<glyph glyph-name="adieresis" unicode="&#xe4;" horiz-adv-x="889" d="M527 342 Q527 333 524 322.5 Q521 312 515 302.5 Q509 293 501 287 Q493 281 483 281 Q460 281 460 303 Q460 312 463.5 323 Q467 334 473 343 Q479 352 487.5 358.5 Q496 365 506 365 Q518 365 522.5 359 Q527 353 527 342 Z M420 343 Q420 334 417 323.5 Q414 313 408 303.5 Q402 294 394 288 Q386 282 376 282 Q353 282 353 304 Q353 313 356.5 324 Q360 335 366 344 Q372 353 380.5 359.5 Q389 366 398 366 Q411 366 415.5 360 Q420 354 420 343 Z M1021 37 Q1021 28 1015 22.5 Q1009 17 1000.5 13.5 Q992 10 982 8 Q972 6 964 3 Q936 -6 906.5 -16.5 Q877 -27 847.5 -36 Q818 -45 788 -51 Q758 -57 728 -57 Q688 -57 658 -39 Q628 -21 599 6 Q591 13 580 26 Q569 39 557 39 Q550 39 539 35.5 Q528 32 516 27 Q504 22 492.5 17 Q481 12 473 9 Q413 -11 354 -17.5 Q295 -24 228 -24 Q215 -24 190.5 -21.5 Q166 -19 141.5 -12 Q117 -5 99 6 Q81 17 81 34 Q81 48 83 56 Q85 64 99 72 Q135 92 182.5 110.5 Q230 129 283 145 Q336 161 392.5 173.5 Q449 186 501.5 195.5 Q554 205 600.5 210 Q647 215 680 215 Q687 215 694.5 214.5 Q702 214 708 212 Q714 210 718 204.5 Q722 199 722 190 Q722 180 708 172 Q694 164 672 157 Q650 150 624 145 Q598 140 574 136.5 Q550 133 531.5 131 Q513 129 506 129 Q494 129 485.5 133.5 Q477 138 463 138 Q453 138 425.5 132.5 Q398 127 362.5 118 Q327 109 288.5 98 Q250 87 218 76 Q186 65 165 55.5 Q144 46 144 40 Q144 32 160.5 27 Q177 22 197.5 19.5 Q218 17 236.5 16 Q255 15 258 15 Q317 15 368 23 Q419 31 473 51 Q495 59 518 71.5 Q541 84 565 84 Q583 84 599 68.5 Q615 53 632.5 34 Q650 15 671.5 -1 Q693 -17 722 -18 Q767 -20 816 -3.5 Q865 13 910 27 Q930 33 955 43.5 Q980 54 1000 54 Q1009 54 1015 51 Q1021 48 1021 37 Z " />
<glyph glyph-name="atilde" unicode="&#xe3;" horiz-adv-x="889" d="M540 313 Q540 310 539 305 Q538 300 536 294.5 Q534 289 532 284.5 Q530 280 527 280 Q518 286 507.5 290 Q497 294 485 294 Q470 294 452.5 284 Q435 274 419 274 Q400 274 382.5 285.5 Q365 297 349 305 Q349 310 350 316.5 Q351 323 352.5 329.5 Q354 336 356.5 340.5 Q359 345 363 345 Q369 345 376 341 Q383 337 391 331.5 Q399 326 408 322 Q417 318 427 318 Q435 318 441.5 321 Q448 324 455 327 Q462 330 470 333 Q478 336 488 336 Q490 336 498.5 334 Q507 332 516 329 Q525 326 532.5 322 Q540 318 540 313 Z M1021 37 Q1021 28 1015 22.5 Q1009 17 1000.5 13.5 Q992 10 982 8 Q972 6 964 3 Q936 -6 906.5 -16.5 Q877 -27 847.5 -36 Q818 -45 788 -51 Q758 -57 728 -57 Q688 -57 658 -39 Q628 -21 599 6 Q591 13 580 26 Q569 39 557 39 Q550 39 539 35.5 Q528 32 516 27 Q504 22 492.5 17 Q481 12 473 9 Q413 -11 354 -17.5 Q295 -24 228 -24 Q215 -24 190.5 -21.5 Q166 -19 141.5 -12 Q117 -5 99 6 Q81 17 81 34 Q81 48 83 56 Q85 64 99 72 Q135 92 182.5 110.5 Q230 129 283 145 Q336 161 392.5 173.5 Q449 186 501.5 195.5 Q554 205 600.5 210 Q647 215 680 215 Q687 215 694.5 214.5 Q702 214 708 212 Q714 210 718 204.5 Q722 199 722 190 Q722 180 708 172 Q694 164 672 157 Q650 150 624 145 Q598 140 574 136.5 Q550 133 531.5 131 Q513 129 506 129 Q494 129 485.5 133.5 Q477 138 463 138 Q453 138 425.5 132.5 Q398 127 362.5 118 Q327 109 288.5 98 Q250 87 218 76 Q186 65 165 55.5 Q144 46 144 40 Q144 32 160.5 27 Q177 22 197.5 19.5 Q218 17 236.5 16 Q255 15 258 15 Q317 15 368 23 Q419 31 473 51 Q495 59 518 71.5 Q541 84 565 84 Q583 84 599 68.5 Q615 53 632.5 34 Q650 15 671.5 -1 Q693 -17 722 -18 Q767 -20 816 -3.5 Q865 13 910 27 Q930 33 955 43.5 Q980 54 1000 54 Q1009 54 1015 51 Q1021 48 1021 37 Z " />
<glyph glyph-name="aring" unicode="&#xe5;" horiz-adv-x="889" d="M547 320 Q547 301 533 288 Q519 275 499 266.5 Q479 258 457.5 254.5 Q436 251 422 251 Q410 251 394.5 253.5 Q379 256 364.5 262 Q350 268 340.5 277.5 Q331 287 331 302 Q331 317 341.5 329.5 Q352 342 368.5 350 Q385 358 405 363 Q425 368 444 368 Q456 368 473.5 366 Q491 364 507.5 358.5 Q524 353 535.5 344 Q547 335 547 320 Z M1021 37 Q1021 28 1015 22.5 Q1009 17 1000.5 13.5 Q992 10 982 8 Q972 6 964 3 Q936 -6 906.5 -16.5 Q877 -27 847.5 -36 Q818 -45 788 -51 Q758 -57 728 -57 Q688 -57 658 -39 Q628 -21 599 6 Q591 13 580 26 Q569 39 557 39 Q550 39 539 35.5 Q528 32 516 27 Q504 22 492.5 17 Q481 12 473 9 Q413 -11 354 -17.5 Q295 -24 228 -24 Q215 -24 190.5 -21.5 Q166 -19 141.5 -12 Q117 -5 99 6 Q81 17 81 34 Q81 48 83 56 Q85 64 99 72 Q135 92 182.5 110.5 Q230 129 283 145 Q336 161 392.5 173.5 Q449 186 501.5 195.5 Q554 205 600.5 210 Q647 215 680 215 Q687 215 694.5 214.5 Q702 214 708 212 Q714 210 718 204.5 Q722 199 722 190 Q722 180 708 172 Q694 164 672 157 Q650 150 624 145 Q598 140 574 136.5 Q550 133 531.5 131 Q513 129 506 129 Q494 129 485.5 133.5 Q477 138 463 138 Q453 138 425.5 132.5 Q398 127 362.5 118 Q327 109 288.5 98 Q250 87 218 76 Q186 65 165 55.5 Q144 46 144 40 Q144 32 160.5 27 Q177 22 197.5 19.5 Q218 17 236.5 16 Q255 15 258 15 Q317 15 368 23 Q419 31 473 51 Q495 59 518 71.5 Q541 84 565 84 Q583 84 599 68.5 Q615 53 632.5 34 Q650 15 671.5 -1 Q693 -17 722 -18 Q767 -20 816 -3.5 Q865 13 910 27 Q930 33 955 43.5 Q980 54 1000 54 Q1009 54 1015 51 Q1021 48 1021 37 Z M490 317 Q490 324 485 328 Q480 332 473.5 334 Q467 336 459.5 336.5 Q452 337 447 337 L431 337 Q425 336 416.5 333.5 Q408 331 400.5 327 Q393 323 387.5 316.5 Q382 310 382 302 Q382 297 387 293.5 Q392 290 398.5 287.5 Q405 285 412.5 284 Q420 283 426 283 Q435 283 446 285.5 Q457 288 466.5 292.5 Q476 297 483 303.5 Q490 310 490 317 Z " />
<glyph glyph-name="ccedilla" unicode="&#xe7;" horiz-adv-x="750" d="M879 57 Q879 49 873.5 41.5 Q868 34 853 31 Q735 10 618.5 -5 Q502 -20 382 -20 Q358 -20 326 -19.5 Q294 -19 260.5 -17 Q227 -15 195 -10.5 Q163 -6 137.5 2 Q112 10 96.5 22.5 Q81 35 81 53 Q81 80 121.5 102.5 Q162 125 224 143 Q286 161 360.5 174 Q435 187 503.5 196 Q572 205 625.5 209.5 Q679 214 698 214 Q714 214 731.5 203 Q749 192 749 177 Q749 172 746 166 Q739 157 719.5 150 Q700 143 676 138.5 Q652 134 626.5 132 Q601 130 581 130 Q565 130 554.5 138 Q544 146 533 157 L515 157 Q515 157 486 153.5 Q457 150 414.5 143 Q372 136 322 127 Q272 118 229.5 106.5 Q187 95 158.5 82.5 Q130 70 130 56 Q130 46 144.5 39 Q159 32 182 27.5 Q205 23 232 21 Q259 19 284.5 17.5 Q310 16 329.5 16 Q349 16 356 16 Q418 16 479 20.5 Q540 25 595.5 31.5 Q651 38 699.5 46 Q748 54 784.5 60.5 Q821 67 843 71.5 Q865 76 868 76 Q872 76 875.5 70.5 Q879 65 879 57 Z M499 1 Q487 -25 482 -56.5 Q477 -88 475.5 -115.5 Q474 -143 474 -161.5 Q474 -180 472 -180 L457 -184 Q445 -169 425 -157 Q408 -146 381.5 -138 Q355 -130 317 -130 Q280 -130 230 -142 Q228 -143 226 -143 Q221 -143 218 -133 Q218 -131 217.5 -129.5 Q217 -128 217 -126 Q217 -121 218.5 -117 Q220 -113 224 -111 L241 -106 Q263 -100 287.5 -96.5 Q312 -93 337 -93 Q393 -91 437 -117 Q437 -117 439 -96.5 Q441 -76 445.5 -52 Q450 -28 457.5 -7.5 Q465 13 476 13 Q482 13 489.5 9.5 Q497 6 499 1 Z " />
<glyph glyph-name="eacute" unicode="&#xe9;" horiz-adv-x="703" d="M446 401 Q446 395 443 385.5 Q440 376 433 360 Q426 344 415.5 320.5 Q405 297 390 263 Q386 260 382 260 Q375 260 370 266.5 Q365 273 365 281 Q365 294 375 316.5 Q385 339 404 386 Q409 399 415.5 409.5 Q422 420 430 420 Q434 420 440 416 Q446 412 446 401 Z M838 76 Q838 69 815 59 Q792 49 763 39.5 Q734 30 706.5 22.5 Q679 15 670 13 Q653 9 616 2 Q579 -5 531 -11.5 Q483 -18 427.5 -22.5 Q372 -27 319 -27 Q274 -27 233.5 -22.5 Q193 -18 162 -7 Q131 4 113 23 Q95 42 95 71 Q95 100 119.5 123 Q144 146 183 163.5 Q222 181 271 193 Q320 205 369 213 Q418 221 463 224.5 Q508 228 538 228 Q546 228 565.5 227 Q585 226 605.5 222.5 Q626 219 642 211 Q658 203 658 188 Q658 165 632.5 147 Q607 129 567 116.5 Q527 104 478.5 95.5 Q430 87 385 81.5 Q340 76 303.5 73.5 Q267 71 251 70 Q235 69 217 68.5 Q199 68 184 67.5 Q169 67 159 66.5 Q149 66 149 65 Q149 50 167 40.5 Q185 31 209 25.5 Q233 20 256.5 18 Q280 16 291 16 Q371 16 432 20 Q493 24 546.5 32 Q600 40 650.5 52 Q701 64 760 79 Q765 80 773 82.5 Q781 85 790 87.5 Q799 90 807 92 Q815 94 818 94 Q826 94 832 90.5 Q838 87 838 76 Z M595 178 Q595 184 588.5 186 Q582 188 574 188 Q539 188 497.5 185.5 Q456 183 414 178 Q372 173 332 166 Q292 159 259.5 150 Q227 141 203.5 130.5 Q180 120 172 107 Q209 107 248.5 109 Q288 111 328.5 115 Q369 119 408.5 124.5 Q448 130 484 136 Q492 138 510.5 142 Q529 146 547.5 152 Q566 158 580.5 164.5 Q595 171 595 178 Z " />
<glyph glyph-name="egrave" unicode="&#xe8;" horiz-adv-x="703" d="M378 305 Q378 297 373.5 290.5 Q369 284 362 284 Q360 284 355 287 Q342 321 332.5 344.5 Q323 368 317 384 Q311 400 308 409.5 Q305 419 305 425 Q305 436 310.5 440 Q316 444 319 444 Q326 444 331.5 433 Q337 422 342 410 Q359 363 368.5 340.5 Q378 318 378 305 Z M838 76 Q838 69 815 59 Q792 49 763 39.5 Q734 30 706.5 22.5 Q679 15 670 13 Q653 9 616 2 Q579 -5 531 -11.5 Q483 -18 427.5 -22.5 Q372 -27 319 -27 Q274 -27 233.5 -22.5 Q193 -18 162 -7 Q131 4 113 23 Q95 42 95 71 Q95 100 119.5 123 Q144 146 183 163.5 Q222 181 271 193 Q320 205 369 213 Q418 221 463 224.5 Q508 228 538 228 Q546 228 565.5 227 Q585 226 605.5 222.5 Q626 219 642 211 Q658 203 658 188 Q658 165 632.5 147 Q607 129 567 116.5 Q527 104 478.5 95.5 Q430 87 385 81.5 Q340 76 303.5 73.5 Q267 71 251 70 Q235 69 217 68.5 Q199 68 184 67.5 Q169 67 159 66.5 Q149 66 149 65 Q149 50 167 40.5 Q185 31 209 25.5 Q233 20 256.5 18 Q280 16 291 16 Q371 16 432 20 Q493 24 546.5 32 Q600 40 650.5 52 Q701 64 760 79 Q765 80 773 82.5 Q781 85 790 87.5 Q799 90 807 92 Q815 94 818 94 Q826 94 832 90.5 Q838 87 838 76 Z M595 178 Q595 184 588.5 186 Q582 188 574 188 Q539 188 497.5 185.5 Q456 183 414 178 Q372 173 332 166 Q292 159 259.5 150 Q227 141 203.5 130.5 Q180 120 172 107 Q209 107 248.5 109 Q288 111 328.5 115 Q369 119 408.5 124.5 Q448 130 484 136 Q492 138 510.5 142 Q529 146 547.5 152 Q566 158 580.5 164.5 Q595 171 595 178 Z " />
<glyph glyph-name="ecircumflex" unicode="&#xea;" horiz-adv-x="703" d="M477 299 Q477 288 467 284 Q457 280 453 280 Q451 280 444.5 292.5 Q438 305 429.5 321.5 Q421 338 413.5 354.5 Q406 371 403 378 Q397 371 384.5 354.5 Q372 338 358.5 321.5 Q345 305 332.5 292.5 Q320 280 315 280 Q309 280 302.5 283.5 Q296 287 296 298 Q296 303 312.5 325 Q329 347 349.5 371.5 Q370 396 388.5 415.5 Q407 435 410 435 Q413 435 423.5 416.5 Q434 398 446 374.5 Q458 351 467.5 329 Q477 307 477 299 Z M838 76 Q838 69 815 59 Q792 49 763 39.5 Q734 30 706.5 22.5 Q679 15 670 13 Q653 9 616 2 Q579 -5 531 -11.5 Q483 -18 427.5 -22.5 Q372 -27 319 -27 Q274 -27 233.5 -22.5 Q193 -18 162 -7 Q131 4 113 23 Q95 42 95 71 Q95 100 119.5 123 Q144 146 183 163.5 Q222 181 271 193 Q320 205 369 213 Q418 221 463 224.5 Q508 228 538 228 Q546 228 565.5 227 Q585 226 605.5 222.5 Q626 219 642 211 Q658 203 658 188 Q658 165 632.5 147 Q607 129 567 116.5 Q527 104 478.5 95.5 Q430 87 385 81.5 Q340 76 303.5 73.5 Q267 71 251 70 Q235 69 217 68.5 Q199 68 184 67.5 Q169 67 159 66.5 Q149 66 149 65 Q149 50 167 40.5 Q185 31 209 25.5 Q233 20 256.5 18 Q280 16 291 16 Q371 16 432 20 Q493 24 546.5 32 Q600 40 650.5 52 Q701 64 760 79 Q765 80 773 82.5 Q781 85 790 87.5 Q799 90 807 92 Q815 94 818 94 Q826 94 832 90.5 Q838 87 838 76 Z M595 178 Q595 184 588.5 186 Q582 188 574 188 Q539 188 497.5 185.5 Q456 183 414 178 Q372 173 332 166 Q292 159 259.5 150 Q227 141 203.5 130.5 Q180 120 172 107 Q209 107 248.5 109 Q288 111 328.5 115 Q369 119 408.5 124.5 Q448 130 484 136 Q492 138 510.5 142 Q529 146 547.5 152 Q566 158 580.5 164.5 Q595 171 595 178 Z " />
<glyph glyph-name="edieresis" unicode="&#xeb;" horiz-adv-x="703" d="M467 346 Q467 337 464 326.5 Q461 316 455 306.5 Q449 297 441 291 Q433 285 423 285 Q400 285 400 307 Q400 316 403.5 327 Q407 338 413 347 Q419 356 427.5 362.5 Q436 369 446 369 Q458 369 462.5 363 Q467 357 467 346 Z M360 347 Q360 338 357 327.5 Q354 317 348 307.5 Q342 298 334 292 Q326 286 316 286 Q293 286 293 308 Q293 317 296.5 328 Q300 339 306 348 Q312 357 320.5 363.5 Q329 370 338 370 Q351 370 355.5 364 Q360 358 360 347 Z M838 76 Q838 69 815 59 Q792 49 763 39.5 Q734 30 706.5 22.5 Q679 15 670 13 Q653 9 616 2 Q579 -5 531 -11.5 Q483 -18 427.5 -22.5 Q372 -27 319 -27 Q274 -27 233.5 -22.5 Q193 -18 162 -7 Q131 4 113 23 Q95 42 95 71 Q95 100 119.5 123 Q144 146 183 163.5 Q222 181 271 193 Q320 205 369 213 Q418 221 463 224.5 Q508 228 538 228 Q546 228 565.5 227 Q585 226 605.5 222.5 Q626 219 642 211 Q658 203 658 188 Q658 165 632.5 147 Q607 129 567 116.5 Q527 104 478.5 95.5 Q430 87 385 81.5 Q340 76 303.5 73.5 Q267 71 251 70 Q235 69 217 68.5 Q199 68 184 67.5 Q169 67 159 66.5 Q149 66 149 65 Q149 50 167 40.5 Q185 31 209 25.5 Q233 20 256.5 18 Q280 16 291 16 Q371 16 432 20 Q493 24 546.5 32 Q600 40 650.5 52 Q701 64 760 79 Q765 80 773 82.5 Q781 85 790 87.5 Q799 90 807 92 Q815 94 818 94 Q826 94 832 90.5 Q838 87 838 76 Z M595 178 Q595 184 588.5 186 Q582 188 574 188 Q539 188 497.5 185.5 Q456 183 414 178 Q372 173 332 166 Q292 159 259.5 150 Q227 141 203.5 130.5 Q180 120 172 107 Q209 107 248.5 109 Q288 111 328.5 115 Q369 119 408.5 124.5 Q448 130 484 136 Q492 138 510.5 142 Q529 146 547.5 152 Q566 158 580.5 164.5 Q595 171 595 178 Z " />
<glyph glyph-name="iacute" unicode="&#xed;" horiz-adv-x="367" d="M224 491 Q224 485 221 475.5 Q218 466 211 450 Q204 434 193.5 410.5 Q183 387 168 353 Q164 350 160 350 Q153 350 148 356.5 Q143 363 143 371 Q143 384 153 406.5 Q163 429 182 476 Q187 489 193.5 499.5 Q200 510 208 510 Q212 510 218 506 Q224 502 224 491 Z M471 51 Q471 41 453.5 32 Q436 23 409 15 Q382 7 349.5 0 Q317 -7 287.5 -12 Q258 -17 235.5 -19.5 Q213 -22 205 -22 Q157 -22 133 2 Q109 26 109 68 Q109 76 110.5 93 Q112 110 116 127 Q120 144 127 157 Q134 170 145 170 Q163 170 163 153 Q163 132 158.5 116 Q154 100 154 72 Q154 49 163.5 33 Q173 17 197 17 Q248 17 297 29 Q346 41 393 53 Q407 57 423.5 62.5 Q440 68 447 68 Q461 68 466 64 Q471 60 471 51 Z " />
<glyph glyph-name="igrave" unicode="&#xec;" horiz-adv-x="367" d="M220 371 Q220 363 215.5 356.5 Q211 350 204 350 Q202 350 197 353 Q184 387 174.5 410.5 Q165 434 159 450 Q153 466 150 475.5 Q147 485 147 491 Q147 502 152.5 506 Q158 510 161 510 Q168 510 173.5 499 Q179 488 184 476 Q201 429 210.5 406.5 Q220 384 220 371 Z M471 51 Q471 41 453.5 32 Q436 23 409 15 Q382 7 349.5 0 Q317 -7 287.5 -12 Q258 -17 235.5 -19.5 Q213 -22 205 -22 Q157 -22 133 2 Q109 26 109 68 Q109 76 110.5 93 Q112 110 116 127 Q120 144 127 157 Q134 170 145 170 Q163 170 163 153 Q163 132 158.5 116 Q154 100 154 72 Q154 49 163.5 33 Q173 17 197 17 Q248 17 297 29 Q346 41 393 53 Q407 57 423.5 62.5 Q440 68 447 68 Q461 68 466 64 Q471 60 471 51 Z " />
<glyph glyph-name="icircumflex" unicode="&#xee;" horiz-adv-x="367" d="M274 375 Q274 364 264 360 Q254 356 250 356 Q248 356 241.5 368.5 Q235 381 226.5 397.5 Q218 414 210.5 430.5 Q203 447 200 454 Q194 447 181.5 430.5 Q169 414 155.5 397.5 Q142 381 129.5 368.5 Q117 356 112 356 Q106 356 99.5 359.5 Q93 363 93 374 Q93 379 109.5 401 Q126 423 146.5 447.5 Q167 472 185.5 491.5 Q204 511 207 511 Q210 511 220.5 492.5 Q231 474 243 450.5 Q255 427 264.5 405 Q274 383 274 375 Z M471 51 Q471 41 453.5 32 Q436 23 409 15 Q382 7 349.5 0 Q317 -7 287.5 -12 Q258 -17 235.5 -19.5 Q213 -22 205 -22 Q157 -22 133 2 Q109 26 109 68 Q109 76 110.5 93 Q112 110 116 127 Q120 144 127 157 Q134 170 145 170 Q163 170 163 153 Q163 132 158.5 116 Q154 100 154 72 Q154 49 163.5 33 Q173 17 197 17 Q248 17 297 29 Q346 41 393 53 Q407 57 423.5 62.5 Q440 68 447 68 Q461 68 466 64 Q471 60 471 51 Z " />
<glyph glyph-name="idieresis" unicode="&#xef;" horiz-adv-x="367" d="M271 450 Q271 441 268 430.5 Q265 420 259 410.5 Q253 401 245 395 Q237 389 227 389 Q204 389 204 411 Q204 420 207.5 431 Q211 442 217 451 Q223 460 231.5 466.5 Q240 473 250 473 Q262 473 266.5 467 Q271 461 271 450 Z M164 451 Q164 442 161 431.5 Q158 421 152 411.5 Q146 402 138 396 Q130 390 120 390 Q97 390 97 412 Q97 421 100.5 432 Q104 443 110 452 Q116 461 124.5 467.5 Q133 474 142 474 Q155 474 159.5 468 Q164 462 164 451 Z M471 51 Q471 41 453.5 32 Q436 23 409 15 Q382 7 349.5 0 Q317 -7 287.5 -12 Q258 -17 235.5 -19.5 Q213 -22 205 -22 Q157 -22 133 2 Q109 26 109 68 Q109 76 110.5 93 Q112 110 116 127 Q120 144 127 157 Q134 170 145 170 Q163 170 163 153 Q163 132 158.5 116 Q154 100 154 72 Q154 49 163.5 33 Q173 17 197 17 Q248 17 297 29 Q346 41 393 53 Q407 57 423.5 62.5 Q440 68 447 68 Q461 68 466 64 Q471 60 471 51 Z " />
<glyph glyph-name="ntilde" unicode="&#xf1;" horiz-adv-x="734" d="M478 302 Q478 299 477 294 Q476 289 474 283.5 Q472 278 470 273.5 Q468 269 465 269 Q456 275 445.5 279 Q435 283 423 283 Q408 283 390.5 273 Q373 263 357 263 Q338 263 320.5 274.5 Q303 286 287 294 Q287 299 288 305.5 Q289 312 290.5 318.5 Q292 325 294.5 329.5 Q297 334 301 334 Q307 334 314 330 Q321 326 329 320.5 Q337 315 346 311 Q355 307 365 307 Q373 307 379.5 310 Q386 313 393 316 Q400 319 408 322 Q416 325 426 325 Q428 325 436.5 323 Q445 321 454 318 Q463 315 470.5 311 Q478 307 478 302 Z M875 50 Q875 45 847.5 31.5 Q820 18 783 4 Q746 -10 710 -21 Q674 -32 656 -32 Q624 -32 598.5 -19.5 Q573 -7 552.5 11.5 Q532 30 515 52 Q498 74 482.5 92.5 Q467 111 452.5 123.5 Q438 136 422 136 Q406 136 387 128.5 Q368 121 348.5 110 Q329 99 311 87.5 Q293 76 279 67 Q265 58 245 44 Q225 30 204 16.5 Q183 3 163 -7 Q143 -17 129 -17 Q107 -17 101 3 Q95 23 95 48 Q95 57 96 76 Q97 95 100.5 114.5 Q104 134 110.5 148.5 Q117 163 127 163 Q136 163 143 158 Q150 153 150 145 Q150 122 145.5 100.5 Q141 79 141 58 Q141 51 142 45.5 Q143 40 151 40 Q157 40 175 50.5 Q193 61 218 77 Q243 93 272 111 Q301 129 329.5 145 Q358 161 382.5 171.5 Q407 182 422 182 Q444 182 462.5 169.5 Q481 157 499 137.5 Q517 118 534 96 Q551 74 569 54.5 Q587 35 606.5 22.5 Q626 10 649 10 Q680 10 711 17.5 Q742 25 768.5 35.5 Q795 46 815.5 56.5 Q836 67 846 73 Q851 75 855 77.5 Q859 80 863 80 Q868 80 871.5 73.5 Q875 67 875 50 Z " />
<glyph glyph-name="oacute" unicode="&#xf3;" horiz-adv-x="886" d="M568 395 Q568 389 565 379.5 Q562 370 555 354 Q548 338 537.5 314.5 Q527 291 512 257 Q508 254 504 254 Q497 254 492 260.5 Q487 267 487 275 Q487 288 497 310.5 Q507 333 526 380 Q531 393 537.5 403.5 Q544 414 552 414 Q556 414 562 410 Q568 406 568 395 Z M1019 60 Q1019 54 1011.5 49 Q1004 44 996 44 L737 44 Q736 44 727.5 41 Q719 38 706.5 33.5 Q694 29 680 23.5 Q666 18 654 14 Q591 -9 524.5 -15.5 Q458 -22 392 -22 Q377 -22 349.5 -21.5 Q322 -21 289 -18.5 Q256 -16 221.5 -10.5 Q187 -5 159 5 Q131 15 113 30.5 Q95 46 95 68 Q95 89 115 110 Q131 128 168 142.5 Q205 157 255 169 Q305 181 364 190.5 Q423 200 483 206.5 Q543 213 599 216 Q655 219 699 219 Q709 219 719.5 218 Q730 217 739 214 Q748 211 753.5 205 Q759 199 759 189 Q759 180 754 177.5 Q749 175 740 175 Q724 176 708.5 176 Q693 176 679 176 Q635 176 600 175.5 Q565 175 544 173 Q533 172 498.5 168.5 Q464 165 419.5 159 Q375 153 326 144 Q277 135 236 123 Q195 111 168.5 96.5 Q142 82 142 65 Q142 48 170 38.5 Q198 29 237 24 Q276 19 319 18 Q362 17 392 17 Q403 17 424 17.5 Q445 18 470 19.5 Q495 21 522 23.5 Q549 26 571 29.5 Q593 33 607 38.5 Q621 44 621 51 Q621 59 609.5 62 Q598 65 584 68.5 Q570 72 558.5 80 Q547 88 547 104 Q547 127 569 131.5 Q591 136 632 136 Q649 136 669.5 133 Q690 130 708 123.5 Q726 117 738.5 107.5 Q751 98 751 86 Q772 85 790 84.5 Q808 84 828.5 84 Q849 84 874 83.5 Q899 83 933 83 Q981 82 1000 78 Q1019 74 1019 60 Z " />
<glyph glyph-name="ograve" unicode="&#xf2;" horiz-adv-x="886" d="M509 290 Q509 282 504.5 275.5 Q500 269 493 269 Q491 269 486 272 Q473 306 463.5 329.5 Q454 353 448 369 Q442 385 439 394.5 Q436 404 436 410 Q436 421 441.5 425 Q447 429 450 429 Q457 429 462.5 418 Q468 407 473 395 Q490 348 499.5 325.5 Q509 303 509 290 Z M1019 60 Q1019 54 1011.5 49 Q1004 44 996 44 L737 44 Q736 44 727.5 41 Q719 38 706.5 33.5 Q694 29 680 23.5 Q666 18 654 14 Q591 -9 524.5 -15.5 Q458 -22 392 -22 Q377 -22 349.5 -21.5 Q322 -21 289 -18.5 Q256 -16 221.5 -10.5 Q187 -5 159 5 Q131 15 113 30.5 Q95 46 95 68 Q95 89 115 110 Q131 128 168 142.5 Q205 157 255 169 Q305 181 364 190.5 Q423 200 483 206.5 Q543 213 599 216 Q655 219 699 219 Q709 219 719.5 218 Q730 217 739 214 Q748 211 753.5 205 Q759 199 759 189 Q759 180 754 177.5 Q749 175 740 175 Q724 176 708.5 176 Q693 176 679 176 Q635 176 600 175.5 Q565 175 544 173 Q533 172 498.5 168.5 Q464 165 419.5 159 Q375 153 326 144 Q277 135 236 123 Q195 111 168.5 96.5 Q142 82 142 65 Q142 48 170 38.5 Q198 29 237 24 Q276 19 319 18 Q362 17 392 17 Q403 17 424 17.5 Q445 18 470 19.5 Q495 21 522 23.5 Q549 26 571 29.5 Q593 33 607 38.5 Q621 44 621 51 Q621 59 609.5 62 Q598 65 584 68.5 Q570 72 558.5 80 Q547 88 547 104 Q547 127 569 131.5 Q591 136 632 136 Q649 136 669.5 133 Q690 130 708 123.5 Q726 117 738.5 107.5 Q751 98 751 86 Q772 85 790 84.5 Q808 84 828.5 84 Q849 84 874 83.5 Q899 83 933 83 Q981 82 1000 78 Q1019 74 1019 60 Z " />
<glyph glyph-name="ocircumflex" unicode="&#xf4;" horiz-adv-x="886" d="M559 295 Q559 284 549 280 Q539 276 535 276 Q533 276 526.5 288.5 Q520 301 511.5 317.5 Q503 334 495.5 350.5 Q488 367 485 374 Q479 367 466.5 350.5 Q454 334 440.5 317.5 Q427 301 414.5 288.5 Q402 276 397 276 Q391 276 384.5 279.5 Q378 283 378 294 Q378 299 394.5 321 Q411 343 431.5 367.5 Q452 392 470.5 411.5 Q489 431 492 431 Q495 431 505.5 412.5 Q516 394 528 370.5 Q540 347 549.5 325 Q559 303 559 295 Z M1019 60 Q1019 54 1011.5 49 Q1004 44 996 44 L737 44 Q736 44 727.5 41 Q719 38 706.5 33.5 Q694 29 680 23.5 Q666 18 654 14 Q591 -9 524.5 -15.5 Q458 -22 392 -22 Q377 -22 349.5 -21.5 Q322 -21 289 -18.5 Q256 -16 221.5 -10.5 Q187 -5 159 5 Q131 15 113 30.5 Q95 46 95 68 Q95 89 115 110 Q131 128 168 142.5 Q205 157 255 169 Q305 181 364 190.5 Q423 200 483 206.5 Q543 213 599 216 Q655 219 699 219 Q709 219 719.5 218 Q730 217 739 214 Q748 211 753.5 205 Q759 199 759 189 Q759 180 754 177.5 Q749 175 740 175 Q724 176 708.5 176 Q693 176 679 176 Q635 176 600 175.5 Q565 175 544 173 Q533 172 498.5 168.5 Q464 165 419.5 159 Q375 153 326 144 Q277 135 236 123 Q195 111 168.5 96.5 Q142 82 142 65 Q142 48 170 38.5 Q198 29 237 24 Q276 19 319 18 Q362 17 392 17 Q403 17 424 17.5 Q445 18 470 19.5 Q495 21 522 23.5 Q549 26 571 29.5 Q593 33 607 38.5 Q621 44 621 51 Q621 59 609.5 62 Q598 65 584 68.5 Q570 72 558.5 80 Q547 88 547 104 Q547 127 569 131.5 Q591 136 632 136 Q649 136 669.5 133 Q690 130 708 123.5 Q726 117 738.5 107.5 Q751 98 751 86 Q772 85 790 84.5 Q808 84 828.5 84 Q849 84 874 83.5 Q899 83 933 83 Q981 82 1000 78 Q1019 74 1019 60 Z " />
<glyph glyph-name="odieresis" unicode="&#xf6;" horiz-adv-x="886" d="M589 333 Q589 324 586 313.5 Q583 303 577 293.5 Q571 284 563 278 Q555 272 545 272 Q522 272 522 294 Q522 303 525.5 314 Q529 325 535 334 Q541 343 549.5 349.5 Q558 356 568 356 Q580 356 584.5 350 Q589 344 589 333 Z M482 334 Q482 325 479 314.5 Q476 304 470 294.5 Q464 285 456 279 Q448 273 438 273 Q415 273 415 295 Q415 304 418.5 315 Q422 326 428 335 Q434 344 442.5 350.5 Q451 357 460 357 Q473 357 477.5 351 Q482 345 482 334 Z M1019 60 Q1019 54 1011.5 49 Q1004 44 996 44 L737 44 Q736 44 727.5 41 Q719 38 706.5 33.5 Q694 29 680 23.5 Q666 18 654 14 Q591 -9 524.5 -15.5 Q458 -22 392 -22 Q377 -22 349.5 -21.5 Q322 -21 289 -18.5 Q256 -16 221.5 -10.5 Q187 -5 159 5 Q131 15 113 30.5 Q95 46 95 68 Q95 89 115 110 Q131 128 168 142.5 Q205 157 255 169 Q305 181 364 190.5 Q423 200 483 206.5 Q543 213 599 216 Q655 219 699 219 Q709 219 719.5 218 Q730 217 739 214 Q748 211 753.5 205 Q759 199 759 189 Q759 180 754 177.5 Q749 175 740 175 Q724 176 708.5 176 Q693 176 679 176 Q635 176 600 175.5 Q565 175 544 173 Q533 172 498.5 168.5 Q464 165 419.5 159 Q375 153 326 144 Q277 135 236 123 Q195 111 168.5 96.5 Q142 82 142 65 Q142 48 170 38.5 Q198 29 237 24 Q276 19 319 18 Q362 17 392 17 Q403 17 424 17.5 Q445 18 470 19.5 Q495 21 522 23.5 Q549 26 571 29.5 Q593 33 607 38.5 Q621 44 621 51 Q621 59 609.5 62 Q598 65 584 68.5 Q570 72 558.5 80 Q547 88 547 104 Q547 127 569 131.5 Q591 136 632 136 Q649 136 669.5 133 Q690 130 708 123.5 Q726 117 738.5 107.5 Q751 98 751 86 Q772 85 790 84.5 Q808 84 828.5 84 Q849 84 874 83.5 Q899 83 933 83 Q981 82 1000 78 Q1019 74 1019 60 Z " />
<glyph glyph-name="otilde" unicode="&#xf5;" horiz-adv-x="886" d="M580 320 Q580 317 579 312 Q578 307 576 301.5 Q574 296 572 291.5 Q570 287 567 287 Q558 293 547.5 297 Q537 301 525 301 Q510 301 492.5 291 Q475 281 459 281 Q440 281 422.5 292.5 Q405 304 389 312 Q389 317 390 323.5 Q391 330 392.5 336.5 Q394 343 396.5 347.5 Q399 352 403 352 Q409 352 416 348 Q423 344 431 338.5 Q439 333 448 329 Q457 325 467 325 Q475 325 481.5 328 Q488 331 495 334 Q502 337 510 340 Q518 343 528 343 Q530 343 538.5 341 Q547 339 556 336 Q565 333 572.5 329 Q580 325 580 320 Z M1019 60 Q1019 54 1011.5 49 Q1004 44 996 44 L737 44 Q736 44 727.5 41 Q719 38 706.5 33.5 Q694 29 680 23.5 Q666 18 654 14 Q591 -9 524.5 -15.5 Q458 -22 392 -22 Q377 -22 349.5 -21.5 Q322 -21 289 -18.5 Q256 -16 221.5 -10.5 Q187 -5 159 5 Q131 15 113 30.5 Q95 46 95 68 Q95 89 115 110 Q131 128 168 142.5 Q205 157 255 169 Q305 181 364 190.5 Q423 200 483 206.5 Q543 213 599 216 Q655 219 699 219 Q709 219 719.5 218 Q730 217 739 214 Q748 211 753.5 205 Q759 199 759 189 Q759 180 754 177.5 Q749 175 740 175 Q724 176 708.5 176 Q693 176 679 176 Q635 176 600 175.5 Q565 175 544 173 Q533 172 498.5 168.5 Q464 165 419.5 159 Q375 153 326 144 Q277 135 236 123 Q195 111 168.5 96.5 Q142 82 142 65 Q142 48 170 38.5 Q198 29 237 24 Q276 19 319 18 Q362 17 392 17 Q403 17 424 17.5 Q445 18 470 19.5 Q495 21 522 23.5 Q549 26 571 29.5 Q593 33 607 38.5 Q621 44 621 51 Q621 59 609.5 62 Q598 65 584 68.5 Q570 72 558.5 80 Q547 88 547 104 Q547 127 569 131.5 Q591 136 632 136 Q649 136 669.5 133 Q690 130 708 123.5 Q726 117 738.5 107.5 Q751 98 751 86 Q772 85 790 84.5 Q808 84 828.5 84 Q849 84 874 83.5 Q899 83 933 83 Q981 82 1000 78 Q1019 74 1019 60 Z " />
<glyph glyph-name="uacute" unicode="&#xfa;" horiz-adv-x="782" d="M396 378 Q396 372 393 362.5 Q390 353 383 337 Q376 321 365.5 297.5 Q355 274 340 240 Q336 237 332 237 Q325 237 320 243.5 Q315 250 315 258 Q315 271 325 293.5 Q335 316 354 363 Q359 376 365.5 386.5 Q372 397 380 397 Q384 397 390 393 Q396 389 396 378 Z M917 59 Q917 48 908 44 Q885 34 852.5 20.5 Q820 7 785.5 -5 Q751 -17 717.5 -25.5 Q684 -34 658 -34 Q626 -34 604.5 -21.5 Q583 -9 569 10 Q555 29 547.5 51.5 Q540 74 534.5 93 Q529 112 525 124.5 Q521 137 515 137 Q511 137 493.5 126.5 Q476 116 449.5 100 Q423 84 390 65 Q357 46 320.5 30 Q284 14 247 3.5 Q210 -7 176 -7 Q158 -7 144.5 -0.5 Q131 6 122 15.5 Q113 25 108 36 Q103 47 103 56 Q102 63 101.5 71 Q101 79 101 89 Q101 104 102.5 120 Q104 136 108.5 149 Q113 162 120.5 170.5 Q128 179 139 179 Q142 179 149.5 173 Q157 167 157 155 Q157 144 153.5 125.5 Q150 107 150 88 Q150 71 154 59 Q160 35 182 35 Q215 35 251 47 Q287 59 322.5 77 Q358 95 392 115.5 Q426 136 455 154 Q484 172 506 184 Q528 196 540 196 Q549 196 555 184.5 Q561 173 565.5 157.5 Q570 142 573 126 Q576 110 579 101 Q584 85 590 68 Q596 51 605 37 Q614 23 627.5 14 Q641 5 660 5 Q691 5 730 17 Q769 29 804 44 Q839 59 865 71 Q891 83 895 83 Q904 83 910.5 75 Q917 67 917 59 Z " />
<glyph glyph-name="ugrave" unicode="&#xf9;" horiz-adv-x="782" d="M320 260 Q320 252 315.5 245.5 Q311 239 304 239 Q302 239 297 242 Q284 276 274.5 299.5 Q265 323 259 339 Q253 355 250 364.5 Q247 374 247 380 Q247 391 252.5 395 Q258 399 261 399 Q268 399 273.5 388 Q279 377 284 365 Q301 318 310.5 295.5 Q320 273 320 260 Z M917 59 Q917 48 908 44 Q885 34 852.5 20.5 Q820 7 785.5 -5 Q751 -17 717.5 -25.5 Q684 -34 658 -34 Q626 -34 604.5 -21.5 Q583 -9 569 10 Q555 29 547.5 51.5 Q540 74 534.5 93 Q529 112 525 124.5 Q521 137 515 137 Q511 137 493.5 126.5 Q476 116 449.5 100 Q423 84 390 65 Q357 46 320.5 30 Q284 14 247 3.5 Q210 -7 176 -7 Q158 -7 144.5 -0.5 Q131 6 122 15.5 Q113 25 108 36 Q103 47 103 56 Q102 63 101.5 71 Q101 79 101 89 Q101 104 102.5 120 Q104 136 108.5 149 Q113 162 120.5 170.5 Q128 179 139 179 Q142 179 149.5 173 Q157 167 157 155 Q157 144 153.5 125.5 Q150 107 150 88 Q150 71 154 59 Q160 35 182 35 Q215 35 251 47 Q287 59 322.5 77 Q358 95 392 115.5 Q426 136 455 154 Q484 172 506 184 Q528 196 540 196 Q549 196 555 184.5 Q561 173 565.5 157.5 Q570 142 573 126 Q576 110 579 101 Q584 85 590 68 Q596 51 605 37 Q614 23 627.5 14 Q641 5 660 5 Q691 5 730 17 Q769 29 804 44 Q839 59 865 71 Q891 83 895 83 Q904 83 910.5 75 Q917 67 917 59 Z " />
<glyph glyph-name="ucircumflex" unicode="&#xfb;" horiz-adv-x="782" d="M404 256 Q404 245 394 241 Q384 237 380 237 Q378 237 371.5 249.5 Q365 262 356.5 278.5 Q348 295 340.5 311.5 Q333 328 330 335 Q324 328 311.5 311.5 Q299 295 285.5 278.5 Q272 262 259.5 249.5 Q247 237 242 237 Q236 237 229.5 240.5 Q223 244 223 255 Q223 260 239.5 282 Q256 304 276.5 328.5 Q297 353 315.5 372.5 Q334 392 337 392 Q340 392 350.5 373.5 Q361 355 373 331.5 Q385 308 394.5 286 Q404 264 404 256 Z M917 59 Q917 48 908 44 Q885 34 852.5 20.5 Q820 7 785.5 -5 Q751 -17 717.5 -25.5 Q684 -34 658 -34 Q626 -34 604.5 -21.5 Q583 -9 569 10 Q555 29 547.5 51.5 Q540 74 534.5 93 Q529 112 525 124.5 Q521 137 515 137 Q511 137 493.5 126.5 Q476 116 449.5 100 Q423 84 390 65 Q357 46 320.5 30 Q284 14 247 3.5 Q210 -7 176 -7 Q158 -7 144.5 -0.5 Q131 6 122 15.5 Q113 25 108 36 Q103 47 103 56 Q102 63 101.5 71 Q101 79 101 89 Q101 104 102.5 120 Q104 136 108.5 149 Q113 162 120.5 170.5 Q128 179 139 179 Q142 179 149.5 173 Q157 167 157 155 Q157 144 153.5 125.5 Q150 107 150 88 Q150 71 154 59 Q160 35 182 35 Q215 35 251 47 Q287 59 322.5 77 Q358 95 392 115.5 Q426 136 455 154 Q484 172 506 184 Q528 196 540 196 Q549 196 555 184.5 Q561 173 565.5 157.5 Q570 142 573 126 Q576 110 579 101 Q584 85 590 68 Q596 51 605 37 Q614 23 627.5 14 Q641 5 660 5 Q691 5 730 17 Q769 29 804 44 Q839 59 865 71 Q891 83 895 83 Q904 83 910.5 75 Q917 67 917 59 Z " />
<glyph glyph-name="udieresis" unicode="&#xfc;" horiz-adv-x="782" d="M405 290 Q405 281 402 270.5 Q399 260 393 250.5 Q387 241 379 235 Q371 229 361 229 Q338 229 338 251 Q338 260 341.5 271 Q345 282 351 291 Q357 300 365.5 306.5 Q374 313 384 313 Q396 313 400.5 307 Q405 301 405 290 Z M917 59 Q917 48 908 44 Q885 34 852.5 20.5 Q820 7 785.5 -5 Q751 -17 717.5 -25.5 Q684 -34 658 -34 Q626 -34 604.5 -21.5 Q583 -9 569 10 Q555 29 547.5 51.5 Q540 74 534.5 93 Q529 112 525 124.5 Q521 137 515 137 Q511 137 493.5 126.5 Q476 116 449.5 100 Q423 84 390 65 Q357 46 320.5 30 Q284 14 247 3.5 Q210 -7 176 -7 Q158 -7 144.5 -0.5 Q131 6 122 15.5 Q113 25 108 36 Q103 47 103 56 Q102 63 101.5 71 Q101 79 101 89 Q101 104 102.5 120 Q104 136 108.5 149 Q113 162 120.5 170.5 Q128 179 139 179 Q142 179 149.5 173 Q157 167 157 155 Q157 144 153.5 125.5 Q150 107 150 88 Q150 71 154 59 Q160 35 182 35 Q215 35 251 47 Q287 59 322.5 77 Q358 95 392 115.5 Q426 136 455 154 Q484 172 506 184 Q528 196 540 196 Q549 196 555 184.5 Q561 173 565.5 157.5 Q570 142 573 126 Q576 110 579 101 Q584 85 590 68 Q596 51 605 37 Q614 23 627.5 14 Q641 5 660 5 Q691 5 730 17 Q769 29 804 44 Q839 59 865 71 Q891 83 895 83 Q904 83 910.5 75 Q917 67 917 59 Z M298 291 Q298 282 295 271.5 Q292 261 286 251.5 Q280 242 272 236 Q264 230 254 230 Q231 230 231 252 Q231 261 234.5 272 Q238 283 244 292 Q250 301 258.5 307.5 Q267 314 276 314 Q289 314 293.5 308 Q298 302 298 291 Z " />
<glyph glyph-name="dagger" unicode="&#x2020;" horiz-adv-x="413" d="M393 532 Q393 525 389 518 Q385 511 378 509 L229 509 Q228 470 227 416.5 Q226 363 224.5 306.5 Q223 250 222 197 Q221 144 221 107 Q221 79 220.5 64.5 Q220 50 219.5 34.5 Q219 19 218 -6 Q217 -31 216 -80 Q210 -92 195 -92 Q183 -92 178.5 -84 Q174 -76 173 -65 Q172 -54 172.5 -42.5 Q173 -31 171 -24 L184 509 L47 509 Q40 511 36 518 Q32 525 32 532 Q32 538 35.5 547 Q39 556 47 556 L185 556 L188 676 Q189 694 193 710 Q197 726 215 726 Q218 726 222 725 Q226 724 229 720.5 Q232 717 234 710 Q236 703 236 690 Q236 656 233.5 622.5 Q231 589 230 556 L378 556 Q386 556 389.5 547 Q393 538 393 532 Z " />
<glyph glyph-name="cent" unicode="&#xa2;" horiz-adv-x="720" d="M696 187 Q696 179 690.5 171.5 Q685 164 670 161 Q617 152 581 145 Q545 138 514 133.5 Q483 129 451 126.5 Q419 124 374 123 Q374 102 373.5 74 Q373 46 373 14 Q367 2 355 2 Q345 2 341.5 10 Q338 18 337 29 Q336 40 336.5 51.5 Q337 63 335 70 L335 123 L329 123 Q305 123 273 123.5 Q241 124 207.5 127 Q174 130 142 135 Q110 140 84.5 148.5 Q59 157 43.5 170 Q28 183 28 201 Q28 222 54 240.5 Q80 259 123 275 Q166 291 220.5 303.5 Q275 316 333 326 L332 411 Q332 429 336 444.5 Q340 460 355 460 Q361 460 367 455 Q373 450 373 425 Q373 409 373 397.5 Q373 386 372.5 376 Q372 366 371.5 356 Q371 346 370 332 Q417 340 461 345.5 Q505 351 541.5 354.5 Q578 358 605.5 360 Q633 362 645 362 Q661 362 678.5 351 Q696 340 696 325 Q696 320 693 314 Q686 305 666.5 298 Q647 291 623 286.5 Q599 282 573.5 280 Q548 278 528 278 Q512 278 501.5 286 Q491 294 480 305 L462 305 Q462 305 433 301.5 Q404 298 361.5 291 Q319 284 269 275 Q219 266 176.5 254.5 Q134 243 105.5 230.5 Q77 218 77 204 Q77 194 91.5 187 Q106 180 129 175.5 Q152 171 179 169 Q206 167 231.5 165.5 Q257 164 276.5 164 Q296 164 303 164 Q396 164 465.5 170.5 Q535 177 582 185 Q629 193 654.5 199.5 Q680 206 685 206 Q689 206 692.5 200.5 Q696 195 696 187 Z " />
<glyph glyph-name="sterling" unicode="&#xa3;" horiz-adv-x="749" d="M717 284 Q717 277 713 270 Q709 263 702 261 L307 261 Q301 220 291 188 L691 188 Q699 188 702.5 179 Q706 170 706 164 Q706 157 702 150 Q698 143 691 141 L274 141 Q255 95 226 41 Q242 35 277 27.5 Q312 20 357 11.5 Q402 3 452 -4.5 Q502 -12 547 -18.5 Q592 -25 627.5 -28.5 Q663 -32 679 -32 Q690 -32 694.5 -38 Q699 -44 699 -52 Q699 -60 695 -67 Q691 -74 685 -74 Q642 -74 590.5 -69.5 Q539 -65 486 -58 Q433 -51 382 -42.5 Q331 -34 288.5 -27 Q246 -20 216 -15.5 Q186 -11 176 -11 Q173 -12 163 -20.5 Q153 -29 138.5 -39 Q124 -49 106 -57 Q88 -65 70 -65 Q34 -65 34 -31 Q34 -18 42.5 -7.5 Q51 3 64 10.5 Q77 18 92.5 23 Q108 28 121 31 Q156 39 182 69 Q208 99 225 141 L70 141 Q63 143 59 150 Q55 157 55 164 Q55 170 58.5 179 Q62 188 70 188 L242 188 Q253 225 259 261 L81 261 Q74 263 70 270 Q66 277 66 284 Q66 290 69.5 299 Q73 308 81 308 L267 308 Q272 347 274 380.5 Q276 414 277 446.5 Q278 479 278.5 512 Q279 545 280 582 Q284 596 294 602.5 Q304 609 318 609 Q342 609 357 592.5 Q372 576 372 549 Q372 534 371.5 514.5 Q371 495 369 474.5 Q367 454 363 434 Q359 414 351 399 Q346 389 333 382.5 Q320 376 315 363 Q315 348 314.5 334.5 Q314 321 313 308 L702 308 Q710 308 713.5 299 Q717 290 717 284 Z " />
<glyph glyph-name="section" unicode="&#xa7;" horiz-adv-x="461" d="M464 135 Q464 117 441 99 Q418 81 367 70 Q384 65 393.5 59.5 Q403 54 407.5 48 Q412 42 413 36.5 Q414 31 414 25 Q414 12 396 -2 Q378 -16 345 -27.5 Q312 -39 266.5 -46.5 Q221 -54 165 -54 Q145 -54 116 -56.5 Q87 -59 58 -59 Q22 -59 -5 -54 Q-32 -49 -32 -35 Q-32 -14 -19.5 -8.5 Q-7 -3 9 -3 Q33 -3 59.5 -7.5 Q86 -12 112 -12 Q134 -12 173.5 -10.5 Q213 -9 252 -4.5 Q291 0 319.5 7 Q348 14 348 26 Q348 35 327.5 41 Q307 47 276 52.5 Q245 58 209 64 Q173 70 142 79 Q111 88 90.5 101 Q70 114 70 134 Q70 147 78 157 Q86 167 99 175 Q112 183 129 189 Q146 195 163 199 Q143 207 131.5 218 Q120 229 120 244 Q120 266 142 280.5 Q164 295 193 304 Q222 313 251.5 316.5 Q281 320 296 320 Q310 320 318 317.5 Q326 315 326 304 Q326 290 314 285 Q307 282 283.5 279.5 Q260 277 235 273 Q210 269 190.5 262 Q171 255 171 244 Q171 240 184.5 234.5 Q198 229 218.5 223.5 Q239 218 263.5 213 Q288 208 310.5 203.5 Q333 199 349.5 196 Q366 193 371 192 Q405 185 424 178 Q443 171 452 164 Q461 157 462.5 149.5 Q464 142 464 135 Z M398 136 Q398 143 386 148 Q374 153 354.5 157 Q335 161 310.5 165 Q286 169 260 174 Q250 171 226.5 168.5 Q203 166 180 162 Q157 158 139 151.5 Q121 145 121 134 Q121 130 130.5 125.5 Q140 121 155 116.5 Q170 112 189 107.5 Q208 103 227 99 Q255 101 285 103.5 Q315 106 340 110.5 Q365 115 381.5 121 Q398 127 398 136 Z " />
<glyph glyph-name="bullet" unicode="&#x2022;" horiz-adv-x="269" d="M230 312 Q230 288 222 260 Q214 232 199 208 Q184 184 162.5 168 Q141 152 115 152 Q54 152 54 210 Q54 234 63.5 262 Q73 290 89 314.5 Q105 339 127.5 355.5 Q150 372 175 372 Q207 372 218.5 356.5 Q230 341 230 312 Z " />
<glyph glyph-name="paragraph" unicode="&#xb6;" horiz-adv-x="742" d="M705 526 Q705 524 701.5 501 Q698 478 692 445 Q686 412 680 373 Q674 334 668 300 Q662 266 658.5 241.5 Q655 217 655 212 Q654 204 651.5 173 Q649 142 644 100.5 Q639 59 632 13 Q625 -33 615 -71.5 Q605 -110 593 -135 Q581 -160 565 -160 Q537 -160 537 -133 Q535 -125 534 -116.5 Q533 -108 533 -99 Q533 -70 541.5 -37 Q550 -4 561.5 28.5 Q573 61 585 90.5 Q597 120 603 142 Q610 167 616.5 199.5 Q623 232 628.5 266.5 Q634 301 638 334.5 Q642 368 645 395 Q648 422 649.5 440 Q651 458 651 461 Q651 468 647 474 Q643 480 638 480 Q628 480 620.5 461 Q613 442 607 413.5 Q601 385 597 351.5 Q593 318 590.5 288.5 Q588 259 587 238.5 Q586 218 586 215 Q586 207 578 201.5 Q570 196 565 193 Q490 148 402 127 Q314 106 227 106 Q205 106 174.5 110.5 Q144 115 116.5 132 Q89 149 69.5 184 Q50 219 50 279 Q50 338 82.5 378 Q115 418 167.5 444.5 Q220 471 285.5 485.5 Q351 500 416.5 506.5 Q482 513 541 515 Q600 517 639 517 Q649 517 655.5 521 Q662 525 666.5 529.5 Q671 534 674.5 537.5 Q678 541 684 541 Q689 541 697 537 Q705 533 705 526 Z " />
<glyph glyph-name="germandbls" unicode="&#xdf;" horiz-adv-x="711" d="M873 40 Q873 31 869.5 27 Q866 23 858 18 Q840 15 802.5 7 Q765 -1 714.5 -11 Q664 -21 604.5 -32 Q545 -43 481.5 -51.5 Q418 -60 354.5 -65 Q291 -70 234 -69 Q227 -69 215.5 -68.5 Q204 -68 193.5 -65 Q183 -62 175 -56 Q167 -50 167 -39 Q167 -18 179.5 -12.5 Q192 -7 208 -7 Q232 -7 258.5 -12.5 Q285 -18 311 -16 Q377 -13 418 -9 Q459 -5 485.5 -0.5 Q512 4 530 9 Q548 14 569 18 Q587 24 605 33.5 Q623 43 637.5 55 Q652 67 661.5 81.5 Q671 96 671 113 Q671 135 653 151 Q635 167 606.5 178 Q578 189 544 196 Q510 203 477.5 207 Q445 211 418 213 Q391 215 378 216 Q346 218 315 219 Q284 220 255 222 Q245 224 236.5 232 Q228 240 228 251 Q228 260 232.5 271.5 Q237 283 246 288 Q276 304 315 321.5 Q354 339 395 357.5 Q436 376 476 394.5 Q516 413 547.5 432 Q579 451 598 469.5 Q617 488 617 505 Q617 543 573.5 563.5 Q530 584 455 584 Q380 584 318 544 Q256 504 211.5 431 Q167 358 142.5 255 Q118 152 118 26 Q118 24 119 7 Q120 -10 121 -35 Q122 -60 123.5 -90 Q125 -120 126 -148 Q127 -176 128 -199 Q129 -222 129 -233 Q129 -359 111.5 -416 Q94 -473 56 -473 Q47 -473 42 -468.5 Q37 -464 34.5 -457 Q32 -450 31 -443 Q30 -436 30 -430 Q30 -406 32.5 -365 Q35 -324 39 -274.5 Q43 -225 47.5 -172 Q52 -119 56 -72 Q60 -25 63 11 Q66 47 66 63 Q66 99 73.5 155.5 Q81 212 97.5 275.5 Q114 339 142.5 402.5 Q171 466 213.5 517.5 Q256 569 314 601 Q372 633 448 633 Q551 633 608 602.5 Q665 572 665 508 Q665 487 657 470.5 Q649 454 636 440.5 Q623 427 607.5 416 Q592 405 578 396 Q550 377 519.5 362.5 Q489 348 457.5 334.5 Q426 321 394.5 307.5 Q363 294 333 279 Q327 276 324 274.5 Q321 273 321 267 Q321 261 350.5 258.5 Q380 256 424 252.5 Q468 249 520 241.5 Q572 234 616 219 Q660 204 689.5 178 Q719 152 719 111 Q715 62 676 28 Q690 31 713.5 36 Q737 41 763 46.5 Q789 52 812.5 56 Q836 60 850 60 Q858 60 865.5 54.5 Q873 49 873 40 Z " />
<glyph glyph-name="registered" unicode="&#xae;" horiz-adv-x="1292" d="M1252 368 Q1252 316 1229.5 271.5 Q1207 227 1169.5 190 Q1132 153 1083.5 123.5 Q1035 94 983.5 71 Q932 48 881.5 32 Q831 16 789 7 Q735 -5 674.5 -12 Q614 -19 551 -19 Q455 -19 363 -0.5 Q271 18 196 61 Q170 76 142 97 Q114 118 91.5 145 Q69 172 54.5 204 Q40 236 40 273 Q40 318 59.5 358 Q79 398 111 433.5 Q143 469 185 499 Q227 529 271 553 Q315 577 358.5 595 Q402 613 438 624 Q460 631 485 636.5 Q510 642 524 642 Q543 642 546 638.5 Q549 635 549 625 Q549 620 535 614 Q521 608 504 601 Q487 594 473 587.5 Q459 581 459 574 Q537 593 621.5 601 Q706 609 787 609 Q839 609 900.5 604.5 Q962 600 1022 585 Q1082 570 1134 542.5 Q1186 515 1220 468 Q1234 449 1243 423.5 Q1252 398 1252 368 Z M1206 366 Q1206 398 1191.5 423 Q1177 448 1157 468 Q1123 501 1077.5 520.5 Q1032 540 982.5 550.5 Q933 561 882 564 Q831 567 787 567 Q748 567 708.5 566 Q669 565 630 561 Q586 557 532 545 Q478 533 422.5 512.5 Q367 492 314 463 Q261 434 220.5 397 Q180 360 155 315 Q130 270 130 217 Q130 183 153 155.5 Q176 128 213 106 Q250 84 297.5 68 Q345 52 394 41.5 Q443 31 490 26 Q537 21 573 21 Q628 21 696.5 32.5 Q765 44 835 65.5 Q905 87 972 118 Q1039 149 1091 187.5 Q1143 226 1174.5 271 Q1206 316 1206 366 Z M948 268 Q948 254 930 252 L902 252 Q873 252 839 253.5 Q805 255 771.5 260.5 Q738 266 706.5 276 Q675 286 652 303 Q626 323 614.5 334 Q603 345 602 345 Q601 345 596 331 Q591 317 582.5 296.5 Q574 276 564 252 Q554 228 542.5 207.5 Q531 187 519 173 Q507 159 496 159 Q486 159 481.5 168 Q477 177 475 186 L475 336 Q475 372 487 372 L511 372 Q513 372 516.5 366.5 Q520 361 520 337 L520 265 Q524 265 529.5 278.5 Q535 292 541 311.5 Q547 331 553.5 353.5 Q560 376 566 395.5 Q572 415 577 428 Q582 441 586 441 L597 441 Q598 441 607 419 Q616 397 646 366 Q674 337 711 322.5 Q748 308 787.5 301.5 Q827 295 865 293 Q903 291 933 288 Q944 286 946 282.5 Q948 279 948 268 Z " />
<glyph glyph-name="copyright" unicode="&#xa9;" horiz-adv-x="1292" d="M1252 368 Q1252 316 1229.5 271.5 Q1207 227 1169.5 190 Q1132 153 1083.5 123.5 Q1035 94 983.5 71 Q932 48 881.5 32 Q831 16 789 7 Q735 -5 674.5 -12 Q614 -19 551 -19 Q455 -19 363 -0.5 Q271 18 196 61 Q170 76 142 97 Q114 118 91.5 145 Q69 172 54.5 204 Q40 236 40 273 Q40 318 59.5 358 Q79 398 111 433.5 Q143 469 185 499 Q227 529 271 553 Q315 577 358.5 595 Q402 613 438 624 Q460 631 485 636.5 Q510 642 524 642 Q543 642 546 638.5 Q549 635 549 625 Q549 620 535 614 Q521 608 504 601 Q487 594 473 587.5 Q459 581 459 574 Q537 593 621.5 601 Q706 609 787 609 Q839 609 900.5 604.5 Q962 600 1022 585 Q1082 570 1134 542.5 Q1186 515 1220 468 Q1234 449 1243 423.5 Q1252 398 1252 368 Z M1206 366 Q1206 398 1191.5 423 Q1177 448 1157 468 Q1123 501 1077.5 520.5 Q1032 540 982.5 550.5 Q933 561 882 564 Q831 567 787 567 Q748 567 708.5 566 Q669 565 630 561 Q586 557 532 545 Q478 533 422.5 512.5 Q367 492 314 463 Q261 434 220.5 397 Q180 360 155 315 Q130 270 130 217 Q130 183 153 155.5 Q176 128 213 106 Q250 84 297.5 68 Q345 52 394 41.5 Q443 31 490 26 Q537 21 573 21 Q628 21 696.5 32.5 Q765 44 835 65.5 Q905 87 972 118 Q1039 149 1091 187.5 Q1143 226 1174.5 271 Q1206 316 1206 366 Z M1065 269 Q1065 261 1059.5 253.5 Q1054 246 1039 243 Q921 222 804.5 207 Q688 192 568 192 Q544 192 512 192.5 Q480 193 446.5 195 Q413 197 381 201.5 Q349 206 323.5 214 Q298 222 282.5 234.5 Q267 247 267 265 Q267 292 307.5 314.5 Q348 337 410 355 Q472 373 546.5 386 Q621 399 689.5 408 Q758 417 811.5 421.5 Q865 426 884 426 Q900 426 917.5 415 Q935 404 935 389 Q935 384 932 378 Q925 369 905.5 362 Q886 355 862 350.5 Q838 346 812.5 344 Q787 342 767 342 Q751 342 740.5 350 Q730 358 719 369 L701 369 Q701 369 672 365.5 Q643 362 600.5 355 Q558 348 508 339 Q458 330 415.5 318.5 Q373 307 344.5 294.5 Q316 282 316 268 Q316 258 330.5 251 Q345 244 368 239.5 Q391 235 418 233 Q445 231 470.5 229.5 Q496 228 515.5 228 Q535 228 542 228 Q604 228 665 232.5 Q726 237 781.5 243.5 Q837 250 885.5 258 Q934 266 970.5 272.5 Q1007 279 1029 283.5 Q1051 288 1054 288 Q1058 288 1061.5 282.5 Q1065 277 1065 269 Z " />
<glyph glyph-name="trademark" unicode="&#x2122;" horiz-adv-x="535" d="M515 113 Q515 100 488 74 Q461 48 413.5 23 Q366 -2 302.5 -21 Q239 -40 165 -40 Q132 -40 110 -19.5 Q88 1 74.5 31 Q61 61 55.5 94.5 Q50 128 50 153 Q50 162 54 172 Q58 182 69 182 Q76 182 83 180.5 Q90 179 92 170 Q95 149 97.5 120 Q100 91 108.5 65 Q117 39 134 20.5 Q151 2 181 2 Q219 2 261 12.5 Q303 23 339 38 Q375 53 401 68.5 Q427 84 433 93 Q433 94 415 99 Q397 104 375 114.5 Q353 125 334.5 142.5 Q316 160 316 185 Q316 199 328 204 Q340 209 351 209 Q392 209 422.5 199 Q453 189 473.5 174.5 Q494 160 504.5 143.5 Q515 127 515 113 Z " />
<glyph glyph-name="acute" unicode="&#xb4;" horiz-adv-x="413" d="M288 491 Q288 485 285 475.5 Q282 466 275 450 Q268 434 257.5 410.5 Q247 387 232 353 Q228 350 224 350 Q217 350 212 356.5 Q207 363 207 371 Q207 384 217 406.5 Q227 429 246 476 Q251 489 257.5 499.5 Q264 510 272 510 Q276 510 282 506 Q288 502 288 491 Z " />
<glyph glyph-name="dieresis" unicode="&#xa8;" horiz-adv-x="413" d="M363 450 Q363 441 360 430.5 Q357 420 351 410.5 Q345 401 337 395 Q329 389 319 389 Q296 389 296 411 Q296 420 299.5 431 Q303 442 309 451 Q315 460 323.5 466.5 Q332 473 342 473 Q354 473 358.5 467 Q363 461 363 450 Z M256 451 Q256 442 253 431.5 Q250 421 244 411.5 Q238 402 230 396 Q222 390 212 390 Q189 390 189 412 Q189 421 192.5 432 Q196 443 202 452 Q208 461 216.5 467.5 Q225 474 234 474 Q247 474 251.5 468 Q256 462 256 451 Z " />
<glyph glyph-name="AE" unicode="&#xc6;" horiz-adv-x="1861" d="M1983 86 Q1983 77 1974 70 Q1908 51 1837 35 Q1766 19 1693.5 7.5 Q1621 -4 1548.5 -10.5 Q1476 -17 1408 -17 Q1382 -17 1345 -14.5 Q1308 -12 1273.5 -2 Q1239 8 1214.5 29 Q1190 50 1190 86 Q1190 109 1198.5 127.5 Q1207 146 1221 163 Q1208 174 1174 187.5 Q1140 201 1090.5 212 Q1041 223 980 230.5 Q919 238 853 238 Q834 238 796 236.5 Q758 235 712 232 Q666 229 616.5 225 Q567 221 523 215 Q479 209 445.5 202 Q412 195 399 186 Q349 154 303 115 Q257 76 211 37 Q196 24 174.5 2.5 Q153 -19 130 -40 Q107 -61 85 -76.5 Q63 -92 46 -92 Q38 -92 30 -87.5 Q22 -83 22 -73 Q22 -55 38 -26 Q54 3 76 33 Q98 63 121 90 Q144 117 157 130 Q175 149 202.5 169 Q230 189 261 205.5 Q292 222 324 232.5 Q356 243 383 243 Q385 243 412.5 259 Q440 275 486 302 Q532 329 591.5 363 Q651 397 716.5 432 Q782 467 849 501 Q916 535 977 562 Q1038 589 1088 605 Q1138 621 1170 621 Q1195 621 1212 614 Q1229 607 1240.5 595 Q1252 583 1258.5 567.5 Q1265 552 1268 534 Q1303 548 1338.5 561 Q1374 574 1410 586 Q1455 601 1500 617 Q1545 633 1589.5 645.5 Q1634 658 1678 666.5 Q1722 675 1765 675 Q1778 675 1792 667 Q1806 659 1806 643 Q1806 629 1783.5 612 Q1761 595 1726.5 578 Q1692 561 1651.5 545 Q1611 529 1575 516.5 Q1539 504 1513.5 496.5 Q1488 489 1483 489 Q1473 489 1464.5 493 Q1456 497 1456 508 L1468 552 Q1467 555 1462 555 Q1450 555 1417 545 Q1384 535 1341.5 518.5 Q1299 502 1252.5 480.5 Q1206 459 1167.5 436.5 Q1129 414 1104 391.5 Q1079 369 1079 350 Q1079 338 1097 329.5 Q1115 321 1142 315 Q1169 309 1201.5 305.5 Q1234 302 1262.5 300 Q1291 298 1311.5 297.5 Q1332 297 1336 297 Q1397 297 1454 306.5 Q1511 316 1570 330 Q1578 333 1586 333 Q1596 333 1602.5 328 Q1609 323 1609 312 Q1609 303 1603.5 298 Q1598 293 1589.5 291 Q1581 289 1572.5 288 Q1564 287 1558 285 Q1525 278 1490.5 269.5 Q1456 261 1423 250 Q1390 239 1361 224 Q1332 209 1310 189 Q1300 180 1286.5 168.5 Q1273 157 1262 144 Q1251 131 1243 116 Q1235 101 1235 85 Q1235 52 1302 40 Q1369 28 1516 28 Q1554 28 1599.5 34 Q1645 40 1692 49 Q1739 58 1784.5 68.5 Q1830 79 1867 88 Q1904 97 1928.5 103 Q1953 109 1959 109 Q1968 109 1975.5 103 Q1983 97 1983 86 Z M1321 253 Q1315 256 1301.5 257 Q1288 258 1274 258 Q1261 260 1237.5 261 Q1214 262 1187 265 Q1160 268 1132.5 273.5 Q1105 279 1082.5 289 Q1060 299 1045.5 313.5 Q1031 328 1031 350 Q1031 369 1037 383.5 Q1043 398 1053 409.5 Q1063 421 1075 430 Q1087 439 1100 447 Q1131 467 1162.5 484 Q1194 501 1227 516 Q1222 542 1209 560.5 Q1196 579 1167 579 Q1149 579 1126.5 573.5 Q1104 568 1080 560 Q1056 552 1032.5 541.5 Q1009 531 989 522 Q983 519 958.5 506.5 Q934 494 898 475 Q862 456 819 433 Q776 410 731.5 386 Q687 362 645 339 Q603 316 570.5 298 Q538 280 518.5 268 Q499 256 499 254 Q561 261 600.5 266 Q640 271 675 274.5 Q710 278 750 280 Q790 282 852 282 Q937 282 1005 272 Q1073 262 1123 248 Q1173 234 1205.5 219 Q1238 204 1251 193 Q1268 208 1287 222.5 Q1306 237 1321 253 Z " />
<glyph glyph-name="Oslash" unicode="&#xd8;" horiz-adv-x="1305" d="M1336 368 Q1336 316 1313.5 271.5 Q1291 227 1253.5 190 Q1216 153 1167.5 123.5 Q1119 94 1067.5 71 Q1016 48 965.5 32 Q915 16 873 7 Q830 -2 783.5 -8.5 Q737 -15 688 -17 Q683 -33 678.5 -48.5 Q674 -64 670 -78 Q663 -85 654 -85 Q644 -85 637.5 -78.5 Q631 -72 631 -63 Q631 -52 635 -40 Q639 -28 641 -19 L635 -19 Q539 -19 447 -0.5 Q355 18 280 61 Q254 76 226 97 Q198 118 175.5 145 Q153 172 138.5 204 Q124 236 124 273 Q124 332 154 378 Q225 468 319 529.5 Q413 591 522 624 Q544 631 569 636.5 Q594 642 608 642 Q627 642 630 638.5 Q633 635 633 625 Q633 620 619 614 Q605 608 588 601 Q571 594 557 587.5 Q543 581 543 574 Q612 591 687.5 599 Q763 607 838 609 L853 656 Q858 673 865 685.5 Q872 698 886 698 Q893 698 899.5 694 Q906 690 906 679 Q906 669 902 657 L902 658 Q900 653 897 645 Q895 638 892.5 629 Q890 620 886 609 Q938 608 997.5 602.5 Q1057 597 1114 582 Q1171 567 1221 540 Q1271 513 1304 468 Q1318 449 1327 423.5 Q1336 398 1336 368 Z M1290 366 Q1290 398 1275.5 423 Q1261 448 1241 468 Q1207 500 1162 519.5 Q1117 539 1067 549.5 Q1017 560 966.5 563.5 Q916 567 872 567 Q857 519 836 453 Q815 387 792 313.5 Q769 240 745.5 165 Q722 90 701 23 Q758 27 823.5 41 Q889 55 954.5 77 Q1020 99 1080.5 129.5 Q1141 160 1187.5 196.5 Q1234 233 1262 276 Q1290 319 1290 366 Z M825 567 Q767 565 714 561 Q670 557 616 545 Q562 533 506.5 512.5 Q451 492 398 463 Q345 434 304.5 397 Q264 360 239 315 Q214 270 214 217 Q214 183 236.5 155.5 Q259 128 295.5 106.5 Q332 85 378.5 69 Q425 53 474 42.5 Q523 32 569.5 26.5 Q616 21 652 21 L825 567 Z " />
<glyph glyph-name="plusminus" unicode="&#xb1;" horiz-adv-x="438" d="M400 238 Q400 231 396 224 Q392 217 385 215 L242 215 L234 71 Q233 63 224 60 Q215 57 210 57 Q203 58 196 62 Q189 66 187 74 L195 215 L54 215 Q47 217 43 224 Q39 231 39 238 Q39 244 42.5 253 Q46 262 54 262 L198 262 L207 404 Q209 411 216 414.5 Q223 418 230 418 Q236 417 245.5 413 Q255 409 254 401 L245 262 L385 262 Q393 262 396.5 253 Q400 244 400 238 Z M380 23 Q380 16 376 9 Q372 2 365 0 L34 0 Q27 2 23 9 Q19 16 19 23 Q19 29 22.5 38 Q26 47 34 47 L365 47 Q373 47 376.5 38 Q380 29 380 23 Z " />
<glyph glyph-name="yen" unicode="&#xa5;" horiz-adv-x="680" d="M1140 672 Q1140 670 1138.5 667 Q1137 664 1132 663 Q1092 655 1033 630 Q974 605 908.5 571 Q843 537 777 498 Q711 459 655.5 424 Q600 389 561.5 361.5 Q523 334 512 323 Q477 299 436 264 L635 264 Q643 264 646.5 255 Q650 246 650 240 Q650 233 646 226 Q642 219 635 217 L383 217 L323 160 L602 160 Q610 160 613.5 151 Q617 142 617 136 Q617 129 613 122 Q609 115 602 113 L278 113 Q255 88 234.5 64 Q214 40 198 20 L210 -12 Q210 -14 206.5 -27 Q203 -40 196 -59 Q189 -78 178.5 -99.5 Q168 -121 153.5 -139 Q139 -157 121.5 -169 Q104 -181 82 -181 Q64 -181 53 -169.5 Q42 -158 42 -133 Q42 -119 56.5 -93 Q71 -67 95.5 -34 Q120 -1 151.5 37 Q183 75 217 113 L71 113 Q64 115 60 122 Q56 129 56 136 Q56 142 59.5 151 Q63 160 71 160 L260 160 Q274 175 288 189 Q302 203 315 217 L104 217 Q97 219 93 226 Q89 233 89 240 Q89 246 92.5 255 Q96 264 104 264 L364 264 Q381 280 399 295 Q417 310 432 322 Q447 334 456.5 342.5 Q466 351 466 353 Q466 355 455.5 363.5 Q445 372 428.5 384 Q412 396 392 410.5 Q372 425 352.5 439 Q333 453 316.5 465 Q300 477 291 484 Q285 489 269 501.5 Q253 514 232 529.5 Q211 545 189 563 Q167 581 148 596.5 Q129 612 117 624.5 Q105 637 105 642 Q105 653 109 662.5 Q113 672 126 672 Q132 672 141.5 665.5 Q151 659 161 650 Q171 641 181.5 630.5 Q192 620 201 612 Q261 561 320 517 Q327 512 343.5 499.5 Q360 487 381 472 Q402 457 424 441.5 Q446 426 464.5 413 Q483 400 495 391.5 Q507 383 508 384 Q509 385 510 385 Q511 385 513 387 Q524 396 560.5 422 Q597 448 649.5 482 Q702 516 765 553 Q828 590 891 621.5 Q954 653 1012.5 673 Q1071 693 1114 693 Q1115 693 1119.5 691 Q1124 689 1128.5 686 Q1133 683 1136.5 679.5 Q1140 676 1140 672 Z " />
<glyph glyph-name="mu" unicode="&#xb5;" horiz-adv-x="686" d="M586 606 L586 694 L625 694 L625 676 L609 676 L609 660 L624 660 L624 643 L609 643 L609 623 L626 623 L626 606 L586 606 Z M580 662 Q580 650 575.5 646 Q571 642 559 642 L553 642 L553 606 L530 606 L530 694 L553 694 Q572 694 576 689 Q580 684 580 669 L580 662 Z M510 637 L510 606 L489 606 L489 637 L473 694 L493 694 Q498 670 499 661 Q500 668 501.5 676 Q503 684 505 694 L526 694 L510 637 Z M459 676 L459 606 L436 606 L436 676 L422 676 L422 694 L472 694 L472 676 L459 676 Z M379 606 L378 622 L370 622 L368 606 L345 606 L356 694 L389 694 L403 606 L379 606 Z M341 632 Q341 612 336 609 Q331 606 317 606 L288 606 L288 694 L305 694 Q318 694 325 693 Q332 692 335.5 689 Q339 686 340 680 Q341 674 341 663 L341 632 Z M261 606 L260 622 L251 622 L250 606 L227 606 L238 694 L271 694 L285 606 L261 606 Z M203 606 L191 646 L191 606 L172 606 L172 694 L190 694 L203 654 L203 694 L223 694 L223 606 L203 606 Z M144 606 L143 622 L135 622 L133 606 L110 606 L121 694 L154 694 L168 606 L144 606 Z M107 638 Q107 621 101.5 612.5 Q96 604 80 604 Q64 604 58.5 611.5 Q53 619 53 637 L53 663 Q53 682 59.5 689 Q66 696 79 696 Q96 696 101.5 688 Q107 680 107 664 L107 656 L84 656 L84 671 Q84 678 83 679.5 Q82 681 80 681 Q76 681 76 670 L76 629 Q76 622 76.5 620.5 Q77 619 80 619 Q82 619 83 620.5 Q84 622 84 630 L84 642 L107 642 L107 638 Z M51 0 L51 578 L629 578 L629 0 L51 0 Z M561 672 Q561 679 553 679 L553 656 L555 656 Q561 656 561 664 L561 672 Z M377 637 Q376 651 374 675 Q372 662 371 652.5 Q370 643 370 637 L377 637 Z M318 668 Q318 676 317 677.5 Q316 679 311 679 L311 621 Q316 621 317 622.5 Q318 624 318 633 L318 668 Z M259 637 Q258 651 256 675 Q254 662 253 652.5 Q252 643 251 637 L259 637 Z M142 637 Q141 644 140.5 653 Q140 662 139 673 Q137 661 136 652 Q135 643 135 637 L142 637 Z M533 285 Q530 288 527.5 291 Q525 294 521 296 L544 364 L488 352 Q484 354 481.5 357.5 Q479 361 477 364 L466 386 L421 341 Q417 336 414.5 334 Q412 332 410 330 Q401 334 399 341 L432 453 L399 442 Q397 441 392 438 Q387 435 387 432 L387 431 Q382 434 380.5 435.5 Q379 437 376 442 L343 509 L309 442 Q307 437 304.5 435.5 Q302 434 298 431 Q298 434 293.5 437.5 Q289 441 287 442 L264 453 L287 341 L275 330 Q272 333 269.5 334.5 Q267 336 264 341 L219 386 L208 364 Q204 359 202 356.5 Q200 354 197 352 L141 364 L163 296 Q158 292 152 285 L130 285 L231 207 Q233 205 236.5 198.5 Q240 192 242 184 Q240 179 236.5 172 Q233 165 219 151 L320 173 Q325 171 329 168.5 Q333 166 333 164 Q333 163 332 162 L332 61 L354 61 L354 162 Q353 163 353 165 Q353 169 365 173 L466 151 Q454 165 449.5 173 Q445 181 443 184 Q445 192 448.5 198.5 Q452 205 454 207 L544 285 L533 285 Z " />
<glyph glyph-name="ordmasculine" unicode="&#xba;" horiz-adv-x="776" d="M719 499 Q719 490 714 487.5 Q709 485 700 485 Q684 486 668.5 486 Q653 486 639 486 Q595 486 560 485.5 Q525 485 504 483 Q493 482 458.5 478.5 Q424 475 379.5 469 Q335 463 286 454 Q237 445 196 433 Q155 421 128.5 406.5 Q102 392 102 375 Q102 358 130 348.5 Q158 339 197 334 Q236 329 279 328 Q322 327 352 327 Q363 327 384 327.5 Q405 328 430 329.5 Q455 331 482 333.5 Q509 336 531 339.5 Q553 343 567 348.5 Q581 354 581 361 Q581 369 569.5 372 Q558 375 544 378.5 Q530 382 518.5 390 Q507 398 507 414 Q507 437 529 441.5 Q551 446 592 446 Q609 446 629.5 443 Q650 440 668 433.5 Q686 427 698.5 417.5 Q711 408 711 396 Q711 376 692 360 Q673 344 642.5 332 Q612 320 573.5 311.5 Q535 303 495 298 Q455 293 417.5 290.5 Q380 288 352 288 Q337 288 309.5 288.5 Q282 289 249 291.5 Q216 294 181.5 299.5 Q147 305 119 315 Q91 325 73 340.5 Q55 356 55 378 Q55 399 75 420 Q91 438 128 452.5 Q165 467 215 479 Q265 491 324 500.5 Q383 510 443 516.5 Q503 523 559 526 Q615 529 659 529 Q669 529 679.5 528 Q690 527 699 524 Q708 521 713.5 515 Q719 509 719 499 Z M538 167 Q538 160 534 153 Q530 146 523 144 L272 144 Q265 146 261 153 Q257 160 257 167 Q257 173 260.5 182 Q264 191 272 191 L523 191 Q531 191 534.5 182 Q538 173 538 167 Z " />
<glyph glyph-name="ae" unicode="&#xe6;" horiz-adv-x="1198" d="M1356 60 Q1356 53 1333 43 Q1310 33 1281 23.5 Q1252 14 1224.5 6.5 Q1197 -1 1188 -3 Q1171 -7 1134 -14 Q1097 -21 1049 -27.5 Q1001 -34 945.5 -38.5 Q890 -43 837 -43 Q800 -43 767.5 -42 Q735 -41 706 -35 Q677 -29 649 -15.5 Q621 -2 593 23 Q585 30 574 43 Q563 56 551 56 Q544 56 533 52.5 Q522 49 510 44 Q498 39 486.5 34 Q475 29 467 26 Q407 6 348 -0.5 Q289 -7 222 -7 Q209 -7 184.5 -4.5 Q160 -2 135.5 5 Q111 12 93 23 Q75 34 75 51 Q75 65 77 73 Q79 81 93 89 Q129 109 176.5 127.5 Q224 146 277 162 Q330 178 386.5 190.5 Q443 203 495.5 212.5 Q548 222 594 227 Q640 232 674 232 Q681 232 688.5 231.5 Q696 231 702 229 Q708 227 712 221.5 Q716 216 716 207 Q716 197 702 189 Q688 181 666 174 Q644 167 618 162 Q592 157 568 153.5 Q544 150 525.5 148 Q507 146 500 146 Q488 146 479.5 150.5 Q471 155 457 155 Q447 155 419.5 149.5 Q392 144 356.5 135 Q321 126 282.5 115 Q244 104 212 93 Q180 82 159 72.5 Q138 63 138 57 Q138 49 154.5 44 Q171 39 191.5 36.5 Q212 34 230.5 33 Q249 32 252 32 Q311 32 362 40 Q413 48 467 68 Q489 76 512 88.5 Q535 101 559 101 Q574 101 587 90.5 Q600 80 614 66 Q619 93 645.5 114 Q672 135 711 151.5 Q750 168 798 179.5 Q846 191 893.5 198 Q941 205 984 208.5 Q1027 212 1056 212 Q1064 212 1083.5 211 Q1103 210 1123.5 206.5 Q1144 203 1160 195 Q1176 187 1176 172 Q1176 149 1150.5 131 Q1125 113 1085 100.5 Q1045 88 996.5 79.5 Q948 71 903 65.5 Q858 60 821.5 57.5 Q785 55 769 54 Q753 53 735 52.5 Q717 52 702 51.5 Q687 51 677 50.5 Q667 50 667 49 Q667 34 685 24.5 Q703 15 727 9.5 Q751 4 774.5 2 Q798 0 809 0 Q889 0 950 4 Q1011 8 1064.5 16 Q1118 24 1168.5 36 Q1219 48 1278 63 Q1283 64 1291 66.5 Q1299 69 1308 71.5 Q1317 74 1325 76 Q1333 78 1336 78 Q1344 78 1350 74.5 Q1356 71 1356 60 Z M1113 162 Q1113 168 1106.5 170 Q1100 172 1092 172 Q1057 172 1015.5 169.5 Q974 167 932 162 Q890 157 850 150 Q810 143 777.5 134 Q745 125 721.5 114 Q698 103 690 91 Q727 91 766.5 93 Q806 95 846.5 99 Q887 103 926.5 108.5 Q966 114 1002 120 Q1010 122 1028.5 126 Q1047 130 1065.5 136 Q1084 142 1098.5 148.5 Q1113 155 1113 162 Z " />
</font>
</svg>
